# https://github.com/mikedh/trimesh
v 0.0000000000 0.0000000000 0.0000000000
v 1.0000000000 0.0000000000 0.0000000000
v 0.5000000000 0.8660254038 0.0000000000
v 0.7500000000 0.4330127019 0.0000000000
v 0.2500000000 0.4330127019 0.0000000000
v 0.5000000000 0.0000000000 0.0000000000
v 0.3750000000 0.2165063509 0.0000000000
v 0.6250000000 0.2165063509 0.0000000000
v 0.5000000000 0.4330127019 0.0000000000
v 0.3750000000 0.6495190528 0.0000000000
v 0.6250000000 0.6495190528 0.0000000000
v 0.1250000000 0.2165063509 0.0000000000
v 0.2500000000 0.0000000000 0.0000000000
v 0.7500000000 0.0000000000 0.0000000000
v 0.8750000000 0.2165063509 0.0000000000
v 0.5625000000 0.3247595264 0.0000000000
v 0.4375000000 0.3247595264 0.0000000000
v 0.5000000000 0.2165063509 0.0000000000
v 0.5625000000 0.5412658774 0.0000000000
v 0.5000000000 0.6495190528 0.0000000000
v 0.4375000000 0.5412658774 0.0000000000
v 0.3125000000 0.1082531755 0.0000000000
v 0.2500000000 0.2165063509 0.0000000000
v 0.1875000000 0.1082531755 0.0000000000
v 0.8125000000 0.1082531755 0.0000000000
v 0.7500000000 0.2165063509 0.0000000000
v 0.6875000000 0.1082531755 0.0000000000
v 0.5625000000 0.1082531755 0.0000000000
v 0.4375000000 0.1082531755 0.0000000000
v 0.6875000000 0.3247595264 0.0000000000
v 0.6250000000 0.4330127019 0.0000000000
v 0.3750000000 0.4330127019 0.0000000000
v 0.3125000000 0.3247595264 0.0000000000
v 0.3125000000 0.5412658774 0.0000000000
v 0.6875000000 0.5412658774 0.0000000000
v 0.5625000000 0.7577722283 0.0000000000
v 0.4375000000 0.7577722283 0.0000000000
v 0.1250000000 0.0000000000 0.0000000000
v 0.0625000000 0.1082531755 0.0000000000
v 0.3750000000 0.0000000000 0.0000000000
v 0.1875000000 0.3247595264 0.0000000000
v 0.6250000000 0.0000000000 0.0000000000
v 0.8750000000 0.0000000000 0.0000000000
v 0.9375000000 0.1082531755 0.0000000000
v 0.8125000000 0.3247595264 0.0000000000
v 0.4687500000 0.2706329387 0.0000000000
v 0.5312500000 0.2706329387 0.0000000000
v 0.5000000000 0.3247595264 0.0000000000
v 0.4687500000 0.5953924651 0.0000000000
v 0.5000000000 0.5412658774 0.0000000000
v 0.5312500000 0.5953924651 0.0000000000
v 0.2187500000 0.1623797632 0.0000000000
v 0.2500000000 0.1082531755 0.0000000000
v 0.2812500000 0.1623797632 0.0000000000
v 0.7187500000 0.1623797632 0.0000000000
v 0.7500000000 0.1082531755 0.0000000000
v 0.7812500000 0.1623797632 0.0000000000
v 0.4687500000 0.1623797632 0.0000000000
v 0.5000000000 0.1082531755 0.0000000000
v 0.5312500000 0.1623797632 0.0000000000
v 0.5937500000 0.3788861142 0.0000000000
v 0.6250000000 0.3247595264 0.0000000000
v 0.6562500000 0.3788861142 0.0000000000
v 0.3437500000 0.3788861142 0.0000000000
v 0.3750000000 0.3247595264 0.0000000000
v 0.4062500000 0.3788861142 0.0000000000
v 0.3750000000 0.5412658774 0.0000000000
v 0.3437500000 0.4871392896 0.0000000000
v 0.4062500000 0.4871392896 0.0000000000
v 0.6250000000 0.5412658774 0.0000000000
v 0.5937500000 0.4871392896 0.0000000000
v 0.6562500000 0.4871392896 0.0000000000
v 0.5000000000 0.7577722283 0.0000000000
v 0.4687500000 0.7036456406 0.0000000000
v 0.5312500000 0.7036456406 0.0000000000
v 0.1250000000 0.1082531755 0.0000000000
v 0.0937500000 0.0541265877 0.0000000000
v 0.1562500000 0.0541265877 0.0000000000
v 0.3750000000 0.1082531755 0.0000000000
v 0.3437500000 0.0541265877 0.0000000000
v 0.4062500000 0.0541265877 0.0000000000
v 0.2500000000 0.3247595264 0.0000000000
v 0.2187500000 0.2706329387 0.0000000000
v 0.2812500000 0.2706329387 0.0000000000
v 0.6250000000 0.1082531755 0.0000000000
v 0.5937500000 0.0541265877 0.0000000000
v 0.6562500000 0.0541265877 0.0000000000
v 0.8750000000 0.1082531755 0.0000000000
v 0.8437500000 0.0541265877 0.0000000000
v 0.9062500000 0.0541265877 0.0000000000
v 0.7500000000 0.3247595264 0.0000000000
v 0.7187500000 0.2706329387 0.0000000000
v 0.7812500000 0.2706329387 0.0000000000
v 0.4687500000 0.3788861142 0.0000000000
v 0.5312500000 0.3788861142 0.0000000000
v 0.4062500000 0.2706329387 0.0000000000
v 0.4375000000 0.2165063509 0.0000000000
v 0.5625000000 0.2165063509 0.0000000000
v 0.5937500000 0.2706329387 0.0000000000
v 0.5625000000 0.6495190528 0.0000000000
v 0.5937500000 0.5953924651 0.0000000000
v 0.4375000000 0.6495190528 0.0000000000
v 0.4062500000 0.5953924651 0.0000000000
v 0.4687500000 0.4871392896 0.0000000000
v 0.5312500000 0.4871392896 0.0000000000
v 0.3125000000 0.2165063509 0.0000000000
v 0.3437500000 0.1623797632 0.0000000000
v 0.1875000000 0.2165063509 0.0000000000
v 0.1562500000 0.1623797632 0.0000000000
v 0.2187500000 0.0541265877 0.0000000000
v 0.2812500000 0.0541265877 0.0000000000
v 0.8125000000 0.2165063509 0.0000000000
v 0.8437500000 0.1623797632 0.0000000000
v 0.6875000000 0.2165063509 0.0000000000
v 0.6562500000 0.1623797632 0.0000000000
v 0.7187500000 0.0541265877 0.0000000000
v 0.7812500000 0.0541265877 0.0000000000
v 0.5937500000 0.1623797632 0.0000000000
v 0.4062500000 0.1623797632 0.0000000000
v 0.4687500000 0.0541265877 0.0000000000
v 0.5312500000 0.0541265877 0.0000000000
v 0.6875000000 0.4330127019 0.0000000000
v 0.7187500000 0.3788861142 0.0000000000
v 0.5625000000 0.4330127019 0.0000000000
v 0.6562500000 0.2706329387 0.0000000000
v 0.4375000000 0.4330127019 0.0000000000
v 0.3125000000 0.4330127019 0.0000000000
v 0.2812500000 0.3788861142 0.0000000000
v 0.3437500000 0.2706329387 0.0000000000
v 0.3437500000 0.5953924651 0.0000000000
v 0.2812500000 0.4871392896 0.0000000000
v 0.7187500000 0.4871392896 0.0000000000
v 0.6562500000 0.5953924651 0.0000000000
v 0.5937500000 0.7036456406 0.0000000000
v 0.5312500000 0.8118988160 0.0000000000
v 0.4687500000 0.8118988160 0.0000000000
v 0.4062500000 0.7036456406 0.0000000000
v 0.1875000000 0.0000000000 0.0000000000
v 0.0937500000 0.1623797632 0.0000000000
v 0.0312500000 0.0541265877 0.0000000000
v 0.0625000000 0.0000000000 0.0000000000
v 0.4375000000 0.0000000000 0.0000000000
v 0.3125000000 0.0000000000 0.0000000000
v 0.2187500000 0.3788861142 0.0000000000
v 0.1562500000 0.2706329387 0.0000000000
v 0.6875000000 0.0000000000 0.0000000000
v 0.5625000000 0.0000000000 0.0000000000
v 0.9687500000 0.0541265877 0.0000000000
v 0.9375000000 0.0000000000 0.0000000000
v 0.9062500000 0.1623797632 0.0000000000
v 0.8125000000 0.0000000000 0.0000000000
v 0.8437500000 0.2706329387 0.0000000000
v 0.7812500000 0.3788861142 0.0000000000
f 46 47 48
f 49 50 51
f 52 53 54
f 55 56 57
f 58 59 60
f 61 62 63
f 64 65 66
f 67 68 69
f 70 71 72
f 73 74 75
f 76 77 78
f 79 80 81
f 82 83 84
f 85 86 87
f 88 89 90
f 91 92 93
f 94 48 95
f 96 97 46
f 47 98 99
f 100 51 101
f 102 103 49
f 50 104 105
f 106 54 107
f 108 109 52
f 53 110 111
f 112 57 113
f 114 115 55
f 56 116 117
f 98 60 118
f 97 119 58
f 59 120 121
f 122 63 123
f 124 95 61
f 62 99 125
f 126 66 94
f 127 128 64
f 65 129 96
f 104 69 126
f 103 130 67
f 68 131 127
f 132 72 122
f 133 101 70
f 71 105 124
f 134 75 100
f 135 136 73
f 74 137 102
f 110 78 138
f 109 139 76
f 77 140 141
f 120 81 142
f 119 107 79
f 80 111 143
f 129 84 106
f 128 144 82
f 83 145 108
f 116 87 146
f 115 118 85
f 86 121 147
f 148 90 149
f 150 113 88
f 89 117 151
f 152 93 112
f 153 123 91
f 92 125 114
f 46 18 47
f 48 47 16
f 17 46 48
f 49 21 50
f 51 50 19
f 20 49 51
f 52 24 53
f 54 53 22
f 23 52 54
f 55 27 56
f 57 56 25
f 26 55 57
f 58 29 59
f 60 59 28
f 18 58 60
f 61 16 62
f 63 62 30
f 31 61 63
f 64 33 65
f 66 65 17
f 32 64 66
f 67 34 68
f 69 68 32
f 21 67 69
f 70 19 71
f 72 71 31
f 35 70 72
f 73 37 74
f 75 74 20
f 36 73 75
f 76 39 77
f 78 77 38
f 24 76 78
f 79 22 80
f 81 80 40
f 29 79 81
f 82 41 83
f 84 83 23
f 33 82 84
f 85 28 86
f 87 86 42
f 27 85 87
f 88 25 89
f 90 89 43
f 44 88 90
f 91 30 92
f 93 92 26
f 45 91 93
f 94 17 48
f 95 48 16
f 9 94 95
f 96 7 97
f 46 97 18
f 17 96 46
f 47 18 98
f 99 98 8
f 16 47 99
f 100 20 51
f 101 51 19
f 11 100 101
f 102 10 103
f 49 103 21
f 20 102 49
f 50 21 104
f 105 104 9
f 19 50 105
f 106 23 54
f 107 54 22
f 7 106 107
f 108 12 109
f 52 109 24
f 23 108 52
f 53 24 110
f 111 110 13
f 22 53 111
f 112 26 57
f 113 57 25
f 15 112 113
f 114 8 115
f 55 115 27
f 26 114 55
f 56 27 116
f 117 116 14
f 25 56 117
f 98 18 60
f 118 60 28
f 8 98 118
f 97 7 119
f 58 119 29
f 18 97 58
f 59 29 120
f 121 120 6
f 28 59 121
f 122 31 63
f 123 63 30
f 4 122 123
f 124 9 95
f 61 95 16
f 31 124 61
f 62 16 99
f 125 99 8
f 30 62 125
f 126 32 66
f 94 66 17
f 9 126 94
f 127 5 128
f 64 128 33
f 32 127 64
f 65 33 129
f 96 129 7
f 17 65 96
f 104 21 69
f 126 69 32
f 9 104 126
f 103 10 130
f 67 130 34
f 21 103 67
f 68 34 131
f 127 131 5
f 32 68 127
f 132 35 72
f 122 72 31
f 4 132 122
f 133 11 101
f 70 101 19
f 35 133 70
f 71 19 105
f 124 105 9
f 31 71 124
f 134 36 75
f 100 75 20
f 11 134 100
f 135 3 136
f 73 136 37
f 36 135 73
f 74 37 137
f 102 137 10
f 20 74 102
f 110 24 78
f 138 78 38
f 13 110 138
f 109 12 139
f 76 139 39
f 24 109 76
f 77 39 140
f 141 140 1
f 38 77 141
f 120 29 81
f 142 81 40
f 6 120 142
f 119 7 107
f 79 107 22
f 29 119 79
f 80 22 111
f 143 111 13
f 40 80 143
f 129 33 84
f 106 84 23
f 7 129 106
f 128 5 144
f 82 144 41
f 33 128 82
f 83 41 145
f 108 145 12
f 23 83 108
f 116 27 87
f 146 87 42
f 14 116 146
f 115 8 118
f 85 118 28
f 27 115 85
f 86 28 121
f 147 121 6
f 42 86 147
f 148 44 90
f 149 90 43
f 2 148 149
f 150 15 113
f 88 113 25
f 44 150 88
f 89 25 117
f 151 117 14
f 43 89 151
f 152 45 93
f 112 93 26
f 15 152 112
f 153 4 123
f 91 123 30
f 45 153 91
f 92 30 125
f 114 125 8
f 26 92 114

