# https://github.com/mikedh/trimesh
v 0.0000000000 0.0000000000 0.0000000000
v 1.0000000000 0.0000000000 0.0000000000
v 0.5000000000 0.8660254038 0.0000000000
v 0.7500000000 0.4330127019 0.0000000000
v 0.2500000000 0.4330127019 0.0000000000
v 0.5000000000 0.0000000000 0.0000000000
v 0.3750000000 0.2165063509 0.0000000000
v 0.6250000000 0.2165063509 0.0000000000
v 0.5000000000 0.4330127019 0.0000000000
v 0.3750000000 0.6495190528 0.0000000000
v 0.6250000000 0.6495190528 0.0000000000
v 0.1250000000 0.2165063509 0.0000000000
v 0.2500000000 0.0000000000 0.0000000000
v 0.7500000000 0.0000000000 0.0000000000
v 0.8750000000 0.2165063509 0.0000000000
v 0.5625000000 0.3247595264 0.0000000000
v 0.4375000000 0.3247595264 0.0000000000
v 0.5000000000 0.2165063509 0.0000000000
v 0.5625000000 0.5412658774 0.0000000000
v 0.5000000000 0.6495190528 0.0000000000
v 0.4375000000 0.5412658774 0.0000000000
v 0.3125000000 0.1082531755 0.0000000000
v 0.2500000000 0.2165063509 0.0000000000
v 0.1875000000 0.1082531755 0.0000000000
v 0.8125000000 0.1082531755 0.0000000000
v 0.7500000000 0.2165063509 0.0000000000
v 0.6875000000 0.1082531755 0.0000000000
v 0.5625000000 0.1082531755 0.0000000000
v 0.4375000000 0.1082531755 0.0000000000
v 0.6875000000 0.3247595264 0.0000000000
v 0.6250000000 0.4330127019 0.0000000000
v 0.3750000000 0.4330127019 0.0000000000
v 0.3125000000 0.3247595264 0.0000000000
v 0.3125000000 0.5412658774 0.0000000000
v 0.6875000000 0.5412658774 0.0000000000
v 0.5625000000 0.7577722283 0.0000000000
v 0.4375000000 0.7577722283 0.0000000000
v 0.1250000000 0.0000000000 0.0000000000
v 0.0625000000 0.1082531755 0.0000000000
v 0.3750000000 0.0000000000 0.0000000000
v 0.1875000000 0.3247595264 0.0000000000
v 0.6250000000 0.0000000000 0.0000000000
v 0.8750000000 0.0000000000 0.0000000000
v 0.9375000000 0.1082531755 0.0000000000
v 0.8125000000 0.3247595264 0.0000000000
v 0.4687500000 0.2706329387 0.0000000000
v 0.5312500000 0.2706329387 0.0000000000
v 0.5000000000 0.3247595264 0.0000000000
v 0.4687500000 0.5953924651 0.0000000000
v 0.5000000000 0.5412658774 0.0000000000
v 0.5312500000 0.5953924651 0.0000000000
v 0.2187500000 0.1623797632 0.0000000000
v 0.2500000000 0.1082531755 0.0000000000
v 0.2812500000 0.1623797632 0.0000000000
v 0.7187500000 0.1623797632 0.0000000000
v 0.7500000000 0.1082531755 0.0000000000
v 0.7812500000 0.1623797632 0.0000000000
v 0.4687500000 0.1623797632 0.0000000000
v 0.5000000000 0.1082531755 0.0000000000
v 0.5312500000 0.1623797632 0.0000000000
v 0.5937500000 0.3788861142 0.0000000000
v 0.6250000000 0.3247595264 0.0000000000
v 0.6562500000 0.3788861142 0.0000000000
v 0.3437500000 0.3788861142 0.0000000000
v 0.3750000000 0.3247595264 0.0000000000
v 0.4062500000 0.3788861142 0.0000000000
v 0.3750000000 0.5412658774 0.0000000000
v 0.3437500000 0.4871392896 0.0000000000
v 0.4062500000 0.4871392896 0.0000000000
v 0.6250000000 0.5412658774 0.0000000000
v 0.5937500000 0.4871392896 0.0000000000
v 0.6562500000 0.4871392896 0.0000000000
v 0.5000000000 0.7577722283 0.0000000000
v 0.4687500000 0.7036456406 0.0000000000
v 0.5312500000 0.7036456406 0.0000000000
v 0.1250000000 0.1082531755 0.0000000000
v 0.0937500000 0.0541265877 0.0000000000
v 0.1562500000 0.0541265877 0.0000000000
v 0.3750000000 0.1082531755 0.0000000000
v 0.3437500000 0.0541265877 0.0000000000
v 0.4062500000 0.0541265877 0.0000000000
v 0.2500000000 0.3247595264 0.0000000000
v 0.2187500000 0.2706329387 0.0000000000
v 0.2812500000 0.2706329387 0.0000000000
v 0.6250000000 0.1082531755 0.0000000000
v 0.5937500000 0.0541265877 0.0000000000
v 0.6562500000 0.0541265877 0.0000000000
v 0.8750000000 0.1082531755 0.0000000000
v 0.8437500000 0.0541265877 0.0000000000
v 0.9062500000 0.0541265877 0.0000000000
v 0.7500000000 0.3247595264 0.0000000000
v 0.7187500000 0.2706329387 0.0000000000
v 0.7812500000 0.2706329387 0.0000000000
v 0.4687500000 0.3788861142 0.0000000000
v 0.5312500000 0.3788861142 0.0000000000
v 0.4062500000 0.2706329387 0.0000000000
v 0.4375000000 0.2165063509 0.0000000000
v 0.5625000000 0.2165063509 0.0000000000
v 0.5937500000 0.2706329387 0.0000000000
v 0.5625000000 0.6495190528 0.0000000000
v 0.5937500000 0.5953924651 0.0000000000
v 0.4375000000 0.6495190528 0.0000000000
v 0.4062500000 0.5953924651 0.0000000000
v 0.4687500000 0.4871392896 0.0000000000
v 0.5312500000 0.4871392896 0.0000000000
v 0.3125000000 0.2165063509 0.0000000000
v 0.3437500000 0.1623797632 0.0000000000
v 0.1875000000 0.2165063509 0.0000000000
v 0.1562500000 0.1623797632 0.0000000000
v 0.2187500000 0.0541265877 0.0000000000
v 0.2812500000 0.0541265877 0.0000000000
v 0.8125000000 0.2165063509 0.0000000000
v 0.8437500000 0.1623797632 0.0000000000
v 0.6875000000 0.2165063509 0.0000000000
v 0.6562500000 0.1623797632 0.0000000000
v 0.7187500000 0.0541265877 0.0000000000
v 0.7812500000 0.0541265877 0.0000000000
v 0.5937500000 0.1623797632 0.0000000000
v 0.4062500000 0.1623797632 0.0000000000
v 0.4687500000 0.0541265877 0.0000000000
v 0.5312500000 0.0541265877 0.0000000000
v 0.6875000000 0.4330127019 0.0000000000
v 0.7187500000 0.3788861142 0.0000000000
v 0.5625000000 0.4330127019 0.0000000000
v 0.6562500000 0.2706329387 0.0000000000
v 0.4375000000 0.4330127019 0.0000000000
v 0.3125000000 0.4330127019 0.0000000000
v 0.2812500000 0.3788861142 0.0000000000
v 0.3437500000 0.2706329387 0.0000000000
v 0.3437500000 0.5953924651 0.0000000000
v 0.2812500000 0.4871392896 0.0000000000
v 0.7187500000 0.4871392896 0.0000000000
v 0.6562500000 0.5953924651 0.0000000000
v 0.5937500000 0.7036456406 0.0000000000
v 0.5312500000 0.8118988160 0.0000000000
v 0.4687500000 0.8118988160 0.0000000000
v 0.4062500000 0.7036456406 0.0000000000
v 0.1875000000 0.0000000000 0.0000000000
v 0.0937500000 0.1623797632 0.0000000000
v 0.0312500000 0.0541265877 0.0000000000
v 0.0625000000 0.0000000000 0.0000000000
v 0.4375000000 0.0000000000 0.0000000000
v 0.3125000000 0.0000000000 0.0000000000
v 0.2187500000 0.3788861142 0.0000000000
v 0.1562500000 0.2706329387 0.0000000000
v 0.6875000000 0.0000000000 0.0000000000
v 0.5625000000 0.0000000000 0.0000000000
v 0.9687500000 0.0541265877 0.0000000000
v 0.9375000000 0.0000000000 0.0000000000
v 0.9062500000 0.1623797632 0.0000000000
v 0.8125000000 0.0000000000 0.0000000000
v 0.8437500000 0.2706329387 0.0000000000
v 0.7812500000 0.3788861142 0.0000000000
v 0.5156250000 0.2976962326 0.0000000000
v 0.4843750000 0.2976962326 0.0000000000
v 0.5000000000 0.2706329387 0.0000000000
v 0.5156250000 0.5683291712 0.0000000000
v 0.5000000000 0.5953924651 0.0000000000
v 0.4843750000 0.5683291712 0.0000000000
v 0.2656250000 0.1353164693 0.0000000000
v 0.2500000000 0.1623797632 0.0000000000
v 0.2343750000 0.1353164693 0.0000000000
v 0.7656250000 0.1353164693 0.0000000000
v 0.7500000000 0.1623797632 0.0000000000
v 0.7343750000 0.1353164693 0.0000000000
v 0.5156250000 0.1353164693 0.0000000000
v 0.5000000000 0.1623797632 0.0000000000
v 0.4843750000 0.1353164693 0.0000000000
v 0.6406250000 0.3518228203 0.0000000000
v 0.6250000000 0.3788861142 0.0000000000
v 0.6093750000 0.3518228203 0.0000000000
v 0.3906250000 0.3518228203 0.0000000000
v 0.3750000000 0.3788861142 0.0000000000
v 0.3593750000 0.3518228203 0.0000000000
v 0.3750000000 0.4871392896 0.0000000000
v 0.3906250000 0.5142025835 0.0000000000
v 0.3593750000 0.5142025835 0.0000000000
v 0.6250000000 0.4871392896 0.0000000000
v 0.6406250000 0.5142025835 0.0000000000
v 0.6093750000 0.5142025835 0.0000000000
v 0.5000000000 0.7036456406 0.0000000000
v 0.5156250000 0.7307089344 0.0000000000
v 0.4843750000 0.7307089344 0.0000000000
v 0.1250000000 0.0541265877 0.0000000000
v 0.1406250000 0.0811898816 0.0000000000
v 0.1093750000 0.0811898816 0.0000000000
v 0.3750000000 0.0541265877 0.0000000000
v 0.3906250000 0.0811898816 0.0000000000
v 0.3593750000 0.0811898816 0.0000000000
v 0.2500000000 0.2706329387 0.0000000000
v 0.2656250000 0.2976962326 0.0000000000
v 0.2343750000 0.2976962326 0.0000000000
v 0.6250000000 0.0541265877 0.0000000000
v 0.6406250000 0.0811898816 0.0000000000
v 0.6093750000 0.0811898816 0.0000000000
v 0.8750000000 0.0541265877 0.0000000000
v 0.8906250000 0.0811898816 0.0000000000
v 0.8593750000 0.0811898816 0.0000000000
v 0.7500000000 0.2706329387 0.0000000000
v 0.7656250000 0.2976962326 0.0000000000
v 0.7343750000 0.2976962326 0.0000000000
v 0.5156250000 0.3518228203 0.0000000000
v 0.5000000000 0.3788861142 0.0000000000
v 0.4843750000 0.3518228203 0.0000000000
v 0.4531250000 0.2435696448 0.0000000000
v 0.4375000000 0.2706329387 0.0000000000
v 0.4218750000 0.2435696448 0.0000000000
v 0.5781250000 0.2435696448 0.0000000000
v 0.5625000000 0.2706329387 0.0000000000
v 0.5468750000 0.2435696448 0.0000000000
v 0.5625000000 0.5953924651 0.0000000000
v 0.5781250000 0.6224557590 0.0000000000
v 0.5468750000 0.6224557590 0.0000000000
v 0.4375000000 0.5953924651 0.0000000000
v 0.4531250000 0.6224557590 0.0000000000
v 0.4218750000 0.6224557590 0.0000000000
v 0.5000000000 0.4871392896 0.0000000000
v 0.5156250000 0.5142025835 0.0000000000
v 0.4843750000 0.5142025835 0.0000000000
v 0.3125000000 0.1623797632 0.0000000000
v 0.3281250000 0.1894430571 0.0000000000
v 0.2968750000 0.1894430571 0.0000000000
v 0.1875000000 0.1623797632 0.0000000000
v 0.2031250000 0.1894430571 0.0000000000
v 0.1718750000 0.1894430571 0.0000000000
v 0.2500000000 0.0541265877 0.0000000000
v 0.2656250000 0.0811898816 0.0000000000
v 0.2343750000 0.0811898816 0.0000000000
v 0.8125000000 0.1623797632 0.0000000000
v 0.8281250000 0.1894430571 0.0000000000
v 0.7968750000 0.1894430571 0.0000000000
v 0.6875000000 0.1623797632 0.0000000000
v 0.7031250000 0.1894430571 0.0000000000
v 0.6718750000 0.1894430571 0.0000000000
v 0.7500000000 0.0541265877 0.0000000000
v 0.7656250000 0.0811898816 0.0000000000
v 0.7343750000 0.0811898816 0.0000000000
v 0.5625000000 0.1623797632 0.0000000000
v 0.5781250000 0.1894430571 0.0000000000
v 0.5468750000 0.1894430571 0.0000000000
v 0.4375000000 0.1623797632 0.0000000000
v 0.4531250000 0.1894430571 0.0000000000
v 0.4218750000 0.1894430571 0.0000000000
v 0.5000000000 0.0541265877 0.0000000000
v 0.5156250000 0.0811898816 0.0000000000
v 0.4843750000 0.0811898816 0.0000000000
v 0.6875000000 0.3788861142 0.0000000000
v 0.7031250000 0.4059494080 0.0000000000
v 0.6718750000 0.4059494080 0.0000000000
v 0.5625000000 0.3788861142 0.0000000000
v 0.5781250000 0.4059494080 0.0000000000
v 0.5468750000 0.4059494080 0.0000000000
v 0.6250000000 0.2706329387 0.0000000000
v 0.6406250000 0.2976962326 0.0000000000
v 0.6093750000 0.2976962326 0.0000000000
v 0.4375000000 0.3788861142 0.0000000000
v 0.4531250000 0.4059494080 0.0000000000
v 0.4218750000 0.4059494080 0.0000000000
v 0.3125000000 0.3788861142 0.0000000000
v 0.3281250000 0.4059494080 0.0000000000
v 0.2968750000 0.4059494080 0.0000000000
v 0.3750000000 0.2706329387 0.0000000000
v 0.3906250000 0.2976962326 0.0000000000
v 0.3593750000 0.2976962326 0.0000000000
v 0.4218750000 0.4600759958 0.0000000000
v 0.4531250000 0.4600759958 0.0000000000
v 0.4375000000 0.4871392896 0.0000000000
v 0.3593750000 0.5683291712 0.0000000000
v 0.3906250000 0.5683291712 0.0000000000
v 0.3750000000 0.5953924651 0.0000000000
v 0.2968750000 0.4600759958 0.0000000000
v 0.3281250000 0.4600759958 0.0000000000
v 0.3125000000 0.4871392896 0.0000000000
v 0.6718750000 0.4600759958 0.0000000000
v 0.7031250000 0.4600759958 0.0000000000
v 0.6875000000 0.4871392896 0.0000000000
v 0.6093750000 0.5683291712 0.0000000000
v 0.6406250000 0.5683291712 0.0000000000
v 0.6250000000 0.5953924651 0.0000000000
v 0.5468750000 0.4600759958 0.0000000000
v 0.5781250000 0.4600759958 0.0000000000
v 0.5625000000 0.4871392896 0.0000000000
v 0.5468750000 0.6765823467 0.0000000000
v 0.5781250000 0.6765823467 0.0000000000
v 0.5625000000 0.7036456406 0.0000000000
v 0.4843750000 0.7848355222 0.0000000000
v 0.5156250000 0.7848355222 0.0000000000
v 0.5000000000 0.8118988160 0.0000000000
v 0.4218750000 0.6765823467 0.0000000000
v 0.4531250000 0.6765823467 0.0000000000
v 0.4375000000 0.7036456406 0.0000000000
v 0.1718750000 0.0270632939 0.0000000000
v 0.2031250000 0.0270632939 0.0000000000
v 0.1875000000 0.0541265877 0.0000000000
v 0.1093750000 0.1353164693 0.0000000000
v 0.1406250000 0.1353164693 0.0000000000
v 0.1250000000 0.1623797632 0.0000000000
v 0.0468750000 0.0270632939 0.0000000000
v 0.0781250000 0.0270632939 0.0000000000
v 0.0625000000 0.0541265877 0.0000000000
v 0.4218750000 0.0270632939 0.0000000000
v 0.4531250000 0.0270632939 0.0000000000
v 0.4375000000 0.0541265877 0.0000000000
v 0.3593750000 0.1353164693 0.0000000000
v 0.3906250000 0.1353164693 0.0000000000
v 0.3750000000 0.1623797632 0.0000000000
v 0.2968750000 0.0270632939 0.0000000000
v 0.3281250000 0.0270632939 0.0000000000
v 0.3125000000 0.0541265877 0.0000000000
v 0.2968750000 0.2435696448 0.0000000000
v 0.3281250000 0.2435696448 0.0000000000
v 0.3125000000 0.2706329387 0.0000000000
v 0.2343750000 0.3518228203 0.0000000000
v 0.2656250000 0.3518228203 0.0000000000
v 0.2500000000 0.3788861142 0.0000000000
v 0.1718750000 0.2435696448 0.0000000000
v 0.2031250000 0.2435696448 0.0000000000
v 0.1875000000 0.2706329387 0.0000000000
v 0.6718750000 0.0270632939 0.0000000000
v 0.7031250000 0.0270632939 0.0000000000
v 0.6875000000 0.0541265877 0.0000000000
v 0.6093750000 0.1353164693 0.0000000000
v 0.6406250000 0.1353164693 0.0000000000
v 0.6250000000 0.1623797632 0.0000000000
v 0.5468750000 0.0270632939 0.0000000000
v 0.5781250000 0.0270632939 0.0000000000
v 0.5625000000 0.0541265877 0.0000000000
v 0.9218750000 0.0270632939 0.0000000000
v 0.9531250000 0.0270632939 0.0000000000
v 0.9375000000 0.0541265877 0.0000000000
v 0.8593750000 0.1353164693 0.0000000000
v 0.8906250000 0.1353164693 0.0000000000
v 0.8750000000 0.1623797632 0.0000000000
v 0.7968750000 0.0270632939 0.0000000000
v 0.8281250000 0.0270632939 0.0000000000
v 0.8125000000 0.0541265877 0.0000000000
v 0.7968750000 0.2435696448 0.0000000000
v 0.8281250000 0.2435696448 0.0000000000
v 0.8125000000 0.2706329387 0.0000000000
v 0.7343750000 0.3518228203 0.0000000000
v 0.7656250000 0.3518228203 0.0000000000
v 0.7500000000 0.3788861142 0.0000000000
v 0.6718750000 0.2435696448 0.0000000000
v 0.7031250000 0.2435696448 0.0000000000
v 0.6875000000 0.2706329387 0.0000000000
v 0.5156250000 0.2435696448 0.0000000000
v 0.4843750000 0.2435696448 0.0000000000
v 0.5468750000 0.2976962326 0.0000000000
v 0.5312500000 0.3247595264 0.0000000000
v 0.4687500000 0.3247595264 0.0000000000
v 0.4531250000 0.2976962326 0.0000000000
v 0.4687500000 0.5412658774 0.0000000000
v 0.4531250000 0.5683291712 0.0000000000
v 0.5312500000 0.5412658774 0.0000000000
v 0.5468750000 0.5683291712 0.0000000000
v 0.5156250000 0.6224557590 0.0000000000
v 0.4843750000 0.6224557590 0.0000000000
v 0.2187500000 0.1082531755 0.0000000000
v 0.2031250000 0.1353164693 0.0000000000
v 0.2812500000 0.1082531755 0.0000000000
v 0.2968750000 0.1353164693 0.0000000000
v 0.2656250000 0.1894430571 0.0000000000
v 0.2343750000 0.1894430571 0.0000000000
v 0.7187500000 0.1082531755 0.0000000000
v 0.7031250000 0.1353164693 0.0000000000
v 0.7812500000 0.1082531755 0.0000000000
v 0.7968750000 0.1353164693 0.0000000000
v 0.7656250000 0.1894430571 0.0000000000
v 0.7343750000 0.1894430571 0.0000000000
v 0.4687500000 0.1082531755 0.0000000000
v 0.4531250000 0.1353164693 0.0000000000
v 0.5312500000 0.1082531755 0.0000000000
v 0.5468750000 0.1353164693 0.0000000000
v 0.5156250000 0.1894430571 0.0000000000
v 0.4843750000 0.1894430571 0.0000000000
v 0.5937500000 0.3247595264 0.0000000000
v 0.5781250000 0.3518228203 0.0000000000
v 0.6562500000 0.3247595264 0.0000000000
v 0.6718750000 0.3518228203 0.0000000000
v 0.6406250000 0.4059494080 0.0000000000
v 0.6093750000 0.4059494080 0.0000000000
v 0.3437500000 0.3247595264 0.0000000000
v 0.3281250000 0.3518228203 0.0000000000
v 0.4062500000 0.3247595264 0.0000000000
v 0.4218750000 0.3518228203 0.0000000000
v 0.3906250000 0.4059494080 0.0000000000
v 0.3593750000 0.4059494080 0.0000000000
v 0.3281250000 0.5142025835 0.0000000000
v 0.3437500000 0.5412658774 0.0000000000
v 0.3593750000 0.4600759958 0.0000000000
v 0.3906250000 0.4600759958 0.0000000000
v 0.4218750000 0.5142025835 0.0000000000
v 0.4062500000 0.5412658774 0.0000000000
v 0.5781250000 0.5142025835 0.0000000000
v 0.5937500000 0.5412658774 0.0000000000
v 0.6093750000 0.4600759958 0.0000000000
v 0.6406250000 0.4600759958 0.0000000000
v 0.6718750000 0.5142025835 0.0000000000
v 0.6562500000 0.5412658774 0.0000000000
v 0.4531250000 0.7307089344 0.0000000000
v 0.4687500000 0.7577722283 0.0000000000
v 0.4843750000 0.6765823467 0.0000000000
v 0.5156250000 0.6765823467 0.0000000000
v 0.5468750000 0.7307089344 0.0000000000
v 0.5312500000 0.7577722283 0.0000000000
v 0.0781250000 0.0811898816 0.0000000000
v 0.0937500000 0.1082531755 0.0000000000
v 0.1093750000 0.0270632939 0.0000000000
v 0.1406250000 0.0270632939 0.0000000000
v 0.1718750000 0.0811898816 0.0000000000
v 0.1562500000 0.1082531755 0.0000000000
v 0.3281250000 0.0811898816 0.0000000000
v 0.3437500000 0.1082531755 0.0000000000
v 0.3593750000 0.0270632939 0.0000000000
v 0.3906250000 0.0270632939 0.0000000000
v 0.4218750000 0.0811898816 0.0000000000
v 0.4062500000 0.1082531755 0.0000000000
v 0.2031250000 0.2976962326 0.0000000000
v 0.2187500000 0.3247595264 0.0000000000
v 0.2343750000 0.2435696448 0.0000000000
v 0.2656250000 0.2435696448 0.0000000000
v 0.2968750000 0.2976962326 0.0000000000
v 0.2812500000 0.3247595264 0.0000000000
v 0.5781250000 0.0811898816 0.0000000000
v 0.5937500000 0.1082531755 0.0000000000
v 0.6093750000 0.0270632939 0.0000000000
v 0.6406250000 0.0270632939 0.0000000000
v 0.6718750000 0.0811898816 0.0000000000
v 0.6562500000 0.1082531755 0.0000000000
v 0.8281250000 0.0811898816 0.0000000000
v 0.8437500000 0.1082531755 0.0000000000
v 0.8593750000 0.0270632939 0.0000000000
v 0.8906250000 0.0270632939 0.0000000000
v 0.9218750000 0.0811898816 0.0000000000
v 0.9062500000 0.1082531755 0.0000000000
v 0.7031250000 0.2976962326 0.0000000000
v 0.7187500000 0.3247595264 0.0000000000
v 0.7343750000 0.2435696448 0.0000000000
v 0.7656250000 0.2435696448 0.0000000000
v 0.7968750000 0.2976962326 0.0000000000
v 0.7812500000 0.3247595264 0.0000000000
v 0.4531250000 0.3518228203 0.0000000000
v 0.5468750000 0.3518228203 0.0000000000
v 0.5156250000 0.4059494080 0.0000000000
v 0.4843750000 0.4059494080 0.0000000000
v 0.4062500000 0.2165063509 0.0000000000
v 0.3906250000 0.2435696448 0.0000000000
v 0.4687500000 0.2165063509 0.0000000000
v 0.4218750000 0.2976962326 0.0000000000
v 0.5312500000 0.2165063509 0.0000000000
v 0.5937500000 0.2165063509 0.0000000000
v 0.6093750000 0.2435696448 0.0000000000
v 0.5781250000 0.2976962326 0.0000000000
v 0.5312500000 0.6495190528 0.0000000000
v 0.5781250000 0.5683291712 0.0000000000
v 0.6093750000 0.6224557590 0.0000000000
v 0.5937500000 0.6495190528 0.0000000000
v 0.3906250000 0.6224557590 0.0000000000
v 0.4062500000 0.6495190528 0.0000000000
v 0.4218750000 0.5683291712 0.0000000000
v 0.4687500000 0.6495190528 0.0000000000
v 0.4531250000 0.5142025835 0.0000000000
v 0.4843750000 0.4600759958 0.0000000000
v 0.5156250000 0.4600759958 0.0000000000
v 0.5468750000 0.5142025835 0.0000000000
v 0.2812500000 0.2165063509 0.0000000000
v 0.3281250000 0.1353164693 0.0000000000
v 0.3593750000 0.1894430571 0.0000000000
v 0.3437500000 0.2165063509 0.0000000000
v 0.1406250000 0.1894430571 0.0000000000
v 0.1562500000 0.2165063509 0.0000000000
v 0.1718750000 0.1353164693 0.0000000000
v 0.2187500000 0.2165063509 0.0000000000
v 0.2031250000 0.0811898816 0.0000000000
v 0.2343750000 0.0270632939 0.0000000000
v 0.2656250000 0.0270632939 0.0000000000
v 0.2968750000 0.0811898816 0.0000000000
v 0.7812500000 0.2165063509 0.0000000000
v 0.8281250000 0.1353164693 0.0000000000
v 0.8593750000 0.1894430571 0.0000000000
v 0.8437500000 0.2165063509 0.0000000000
v 0.6406250000 0.1894430571 0.0000000000
v 0.6562500000 0.2165063509 0.0000000000
v 0.6718750000 0.1353164693 0.0000000000
v 0.7187500000 0.2165063509 0.0000000000
v 0.7031250000 0.0811898816 0.0000000000
v 0.7343750000 0.0270632939 0.0000000000
v 0.7656250000 0.0270632939 0.0000000000
v 0.7968750000 0.0811898816 0.0000000000
v 0.5781250000 0.1353164693 0.0000000000
v 0.6093750000 0.1894430571 0.0000000000
v 0.3906250000 0.1894430571 0.0000000000
v 0.4218750000 0.1353164693 0.0000000000
v 0.4531250000 0.0811898816 0.0000000000
v 0.4843750000 0.0270632939 0.0000000000
v 0.5156250000 0.0270632939 0.0000000000
v 0.5468750000 0.0811898816 0.0000000000
v 0.6562500000 0.4330127019 0.0000000000
v 0.7031250000 0.3518228203 0.0000000000
v 0.7343750000 0.4059494080 0.0000000000
v 0.7187500000 0.4330127019 0.0000000000
v 0.5312500000 0.4330127019 0.0000000000
v 0.5937500000 0.4330127019 0.0000000000
v 0.6406250000 0.2435696448 0.0000000000
v 0.6718750000 0.2976962326 0.0000000000
v 0.4062500000 0.4330127019 0.0000000000
v 0.4687500000 0.4330127019 0.0000000000
v 0.2656250000 0.4059494080 0.0000000000
v 0.2812500000 0.4330127019 0.0000000000
v 0.2968750000 0.3518228203 0.0000000000
v 0.3437500000 0.4330127019 0.0000000000
v 0.3281250000 0.2976962326 0.0000000000
v 0.3593750000 0.2435696448 0.0000000000
v 0.3593750000 0.6224557590 0.0000000000
v 0.3281250000 0.5683291712 0.0000000000
v 0.2968750000 0.5142025835 0.0000000000
v 0.2656250000 0.4600759958 0.0000000000
v 0.7031250000 0.5142025835 0.0000000000
v 0.7343750000 0.4600759958 0.0000000000
v 0.6406250000 0.6224557590 0.0000000000
v 0.6718750000 0.5683291712 0.0000000000
v 0.5781250000 0.7307089344 0.0000000000
v 0.6093750000 0.6765823467 0.0000000000
v 0.4843750000 0.8389621099 0.0000000000
v 0.5156250000 0.8389621099 0.0000000000
v 0.4531250000 0.7848355222 0.0000000000
v 0.5468750000 0.7848355222 0.0000000000
v 0.4218750000 0.7307089344 0.0000000000
v 0.3906250000 0.6765823467 0.0000000000
v 0.1562500000 0.0000000000 0.0000000000
v 0.2187500000 0.0000000000 0.0000000000
v 0.1093750000 0.1894430571 0.0000000000
v 0.0781250000 0.1353164693 0.0000000000
v 0.0468750000 0.0811898816 0.0000000000
v 0.0156250000 0.0270632939 0.0000000000
v 0.0312500000 0.0000000000 0.0000000000
v 0.0937500000 0.0000000000 0.0000000000
v 0.4062500000 0.0000000000 0.0000000000
v 0.4687500000 0.0000000000 0.0000000000
v 0.2812500000 0.0000000000 0.0000000000
v 0.3437500000 0.0000000000 0.0000000000
v 0.2343750000 0.4059494080 0.0000000000
v 0.2031250000 0.3518228203 0.0000000000
v 0.1718750000 0.2976962326 0.0000000000
v 0.1406250000 0.2435696448 0.0000000000
v 0.6562500000 0.0000000000 0.0000000000
v 0.7187500000 0.0000000000 0.0000000000
v 0.5312500000 0.0000000000 0.0000000000
v 0.5937500000 0.0000000000 0.0000000000
v 0.9531250000 0.0811898816 0.0000000000
v 0.9062500000 0.0000000000 0.0000000000
v 0.9687500000 0.0000000000 0.0000000000
v 0.9843750000 0.0270632939 0.0000000000
v 0.8906250000 0.1894430571 0.0000000000
v 0.9218750000 0.1353164693 0.0000000000
v 0.7812500000 0.0000000000 0.0000000000
v 0.8437500000 0.0000000000 0.0000000000
v 0.8281250000 0.2976962326 0.0000000000
v 0.8593750000 0.2435696448 0.0000000000
v 0.7656250000 0.4059494080 0.0000000000
v 0.7968750000 0.3518228203 0.0000000000
f 154 155 156
f 157 158 159
f 160 161 162
f 163 164 165
f 166 167 168
f 169 170 171
f 172 173 174
f 175 176 177
f 178 179 180
f 181 182 183
f 184 185 186
f 187 188 189
f 190 191 192
f 193 194 195
f 196 197 198
f 199 200 201
f 202 203 204
f 205 206 207
f 208 209 210
f 211 212 213
f 214 215 216
f 217 218 219
f 220 221 222
f 223 224 225
f 226 227 228
f 229 230 231
f 232 233 234
f 235 236 237
f 238 239 240
f 241 242 243
f 244 245 246
f 247 248 249
f 250 251 252
f 253 254 255
f 256 257 258
f 259 260 261
f 262 263 264
f 265 266 267
f 268 269 270
f 271 272 273
f 274 275 276
f 277 278 279
f 280 281 282
f 283 284 285
f 286 287 288
f 289 290 291
f 292 293 294
f 295 296 297
f 298 299 300
f 301 302 303
f 304 305 306
f 307 308 309
f 310 311 312
f 313 314 315
f 316 317 318
f 319 320 321
f 322 323 324
f 325 326 327
f 328 329 330
f 331 332 333
f 334 335 336
f 337 338 339
f 340 341 342
f 343 344 345
f 346 156 347
f 348 349 154
f 155 350 351
f 352 159 353
f 354 355 157
f 158 356 357
f 358 162 359
f 360 361 160
f 161 362 363
f 364 165 365
f 366 367 163
f 164 368 369
f 370 168 371
f 372 373 166
f 167 374 375
f 376 171 377
f 378 379 169
f 170 380 381
f 382 174 383
f 384 385 172
f 173 386 387
f 388 177 389
f 390 391 175
f 176 392 393
f 394 180 395
f 396 397 178
f 179 398 399
f 400 183 401
f 402 403 181
f 182 404 405
f 406 186 407
f 408 409 184
f 185 410 411
f 412 189 413
f 414 415 187
f 188 416 417
f 418 192 419
f 420 421 190
f 191 422 423
f 424 195 425
f 426 427 193
f 194 428 429
f 430 198 431
f 432 433 196
f 197 434 435
f 436 201 437
f 438 439 199
f 200 440 441
f 350 204 442
f 349 443 202
f 203 444 445
f 446 207 447
f 448 347 205
f 206 351 449
f 450 210 346
f 451 452 208
f 209 453 348
f 356 213 454
f 355 455 211
f 212 456 457
f 458 216 459
f 460 353 214
f 215 357 461
f 462 219 352
f 463 464 217
f 218 465 354
f 362 222 466
f 361 467 220
f 221 468 469
f 470 225 471
f 472 359 223
f 224 363 473
f 474 228 358
f 475 476 226
f 227 477 360
f 368 231 478
f 367 479 229
f 230 480 481
f 482 234 483
f 484 365 232
f 233 369 485
f 486 237 364
f 487 488 235
f 236 489 366
f 374 240 450
f 373 490 238
f 239 491 451
f 492 243 446
f 493 371 241
f 242 375 448
f 494 246 370
f 495 496 244
f 245 497 372
f 380 249 498
f 379 499 247
f 248 500 501
f 444 252 502
f 443 377 250
f 251 381 503
f 453 255 376
f 452 504 253
f 254 505 378
f 386 258 506
f 385 442 256
f 257 445 507
f 508 261 509
f 510 383 259
f 260 387 511
f 512 264 382
f 513 447 262
f 263 449 384
f 392 267 462
f 391 506 265
f 266 507 463
f 514 270 458
f 515 389 268
f 269 393 460
f 516 273 388
f 517 509 271
f 272 511 390
f 398 276 518
f 397 498 274
f 275 501 519
f 456 279 520
f 455 395 277
f 278 399 521
f 465 282 394
f 464 502 280
f 281 503 396
f 404 285 522
f 403 454 283
f 284 457 523
f 524 288 525
f 526 401 286
f 287 405 527
f 528 291 400
f 529 459 289
f 290 461 402
f 410 294 474
f 409 530 292
f 293 531 475
f 532 297 470
f 533 407 295
f 296 411 472
f 534 300 406
f 535 536 298
f 299 537 408
f 416 303 494
f 415 538 301
f 302 539 495
f 468 306 492
f 467 413 304
f 305 417 493
f 477 309 412
f 476 540 307
f 308 541 414
f 422 312 512
f 421 466 310
f 311 469 513
f 542 315 508
f 543 419 313
f 314 423 510
f 544 318 418
f 545 471 316
f 317 473 420
f 428 321 486
f 427 546 319
f 320 547 487
f 491 324 482
f 490 425 322
f 323 429 484
f 497 327 424
f 496 548 325
f 326 549 426
f 434 330 550
f 433 551 328
f 329 552 553
f 480 333 554
f 479 431 331
f 332 435 555
f 489 336 430
f 488 556 334
f 335 557 432
f 440 339 558
f 439 478 337
f 338 481 559
f 500 342 560
f 499 437 340
f 341 441 561
f 505 345 436
f 504 483 343
f 344 485 438
f 154 48 155
f 156 155 46
f 47 154 156
f 157 51 158
f 159 158 49
f 50 157 159
f 160 54 161
f 162 161 52
f 53 160 162
f 163 57 164
f 165 164 55
f 56 163 165
f 166 60 167
f 168 167 58
f 59 166 168
f 169 63 170
f 171 170 61
f 62 169 171
f 172 66 173
f 174 173 64
f 65 172 174
f 175 69 176
f 177 176 67
f 68 175 177
f 178 72 179
f 180 179 70
f 71 178 180
f 181 75 182
f 183 182 73
f 74 181 183
f 184 78 185
f 186 185 76
f 77 184 186
f 187 81 188
f 189 188 79
f 80 187 189
f 190 84 191
f 192 191 82
f 83 190 192
f 193 87 194
f 195 194 85
f 86 193 195
f 196 90 197
f 198 197 88
f 89 196 198
f 199 93 200
f 201 200 91
f 92 199 201
f 202 95 203
f 204 203 94
f 48 202 204
f 205 46 206
f 207 206 96
f 97 205 207
f 208 99 209
f 210 209 47
f 98 208 210
f 211 101 212
f 213 212 100
f 51 211 213
f 214 49 215
f 216 215 102
f 103 214 216
f 217 105 218
f 219 218 50
f 104 217 219
f 220 107 221
f 222 221 106
f 54 220 222
f 223 52 224
f 225 224 108
f 109 223 225
f 226 111 227
f 228 227 53
f 110 226 228
f 229 113 230
f 231 230 112
f 57 229 231
f 232 55 233
f 234 233 114
f 115 232 234
f 235 117 236
f 237 236 56
f 116 235 237
f 238 118 239
f 240 239 98
f 60 238 240
f 241 58 242
f 243 242 97
f 119 241 243
f 244 121 245
f 246 245 59
f 120 244 246
f 247 123 248
f 249 248 122
f 63 247 249
f 250 61 251
f 252 251 124
f 95 250 252
f 253 125 254
f 255 254 62
f 99 253 255
f 256 94 257
f 258 257 126
f 66 256 258
f 259 64 260
f 261 260 127
f 128 259 261
f 262 96 263
f 264 263 65
f 129 262 264
f 265 126 266
f 267 266 104
f 69 265 267
f 268 67 269
f 270 269 103
f 130 268 270
f 271 127 272
f 273 272 68
f 131 271 273
f 274 122 275
f 276 275 132
f 72 274 276
f 277 70 278
f 279 278 133
f 101 277 279
f 280 124 281
f 282 281 71
f 105 280 282
f 283 100 284
f 285 284 134
f 75 283 285
f 286 73 287
f 288 287 135
f 136 286 288
f 289 102 290
f 291 290 74
f 137 289 291
f 292 138 293
f 294 293 110
f 78 292 294
f 295 76 296
f 297 296 109
f 139 295 297
f 298 141 299
f 300 299 77
f 140 298 300
f 301 142 302
f 303 302 120
f 81 301 303
f 304 79 305
f 306 305 119
f 107 304 306
f 307 143 308
f 309 308 80
f 111 307 309
f 310 106 311
f 312 311 129
f 84 310 312
f 313 82 314
f 315 314 128
f 144 313 315
f 316 108 317
f 318 317 83
f 145 316 318
f 319 146 320
f 321 320 116
f 87 319 321
f 322 85 323
f 324 323 115
f 118 322 324
f 325 147 326
f 327 326 86
f 121 325 327
f 328 149 329
f 330 329 148
f 90 328 330
f 331 88 332
f 333 332 150
f 113 331 333
f 334 151 335
f 336 335 89
f 117 334 336
f 337 112 338
f 339 338 152
f 93 337 339
f 340 91 341
f 342 341 153
f 123 340 342
f 343 114 344
f 345 344 92
f 125 343 345
f 346 47 156
f 347 156 46
f 18 346 347
f 348 16 349
f 154 349 48
f 47 348 154
f 155 48 350
f 351 350 17
f 46 155 351
f 352 50 159
f 353 159 49
f 21 352 353
f 354 19 355
f 157 355 51
f 50 354 157
f 158 51 356
f 357 356 20
f 49 158 357
f 358 53 162
f 359 162 52
f 24 358 359
f 360 22 361
f 160 361 54
f 53 360 160
f 161 54 362
f 363 362 23
f 52 161 363
f 364 56 165
f 365 165 55
f 27 364 365
f 366 25 367
f 163 367 57
f 56 366 163
f 164 57 368
f 369 368 26
f 55 164 369
f 370 59 168
f 371 168 58
f 29 370 371
f 372 28 373
f 166 373 60
f 59 372 166
f 167 60 374
f 375 374 18
f 58 167 375
f 376 62 171
f 377 171 61
f 16 376 377
f 378 30 379
f 169 379 63
f 62 378 169
f 170 63 380
f 381 380 31
f 61 170 381
f 382 65 174
f 383 174 64
f 33 382 383
f 384 17 385
f 172 385 66
f 65 384 172
f 173 66 386
f 387 386 32
f 64 173 387
f 388 68 177
f 389 177 67
f 34 388 389
f 390 32 391
f 175 391 69
f 68 390 175
f 176 69 392
f 393 392 21
f 67 176 393
f 394 71 180
f 395 180 70
f 19 394 395
f 396 31 397
f 178 397 72
f 71 396 178
f 179 72 398
f 399 398 35
f 70 179 399
f 400 74 183
f 401 183 73
f 37 400 401
f 402 20 403
f 181 403 75
f 74 402 181
f 182 75 404
f 405 404 36
f 73 182 405
f 406 77 186
f 407 186 76
f 39 406 407
f 408 38 409
f 184 409 78
f 77 408 184
f 185 78 410
f 411 410 24
f 76 185 411
f 412 80 189
f 413 189 79
f 22 412 413
f 414 40 415
f 187 415 81
f 80 414 187
f 188 81 416
f 417 416 29
f 79 188 417
f 418 83 192
f 419 192 82
f 41 418 419
f 420 23 421
f 190 421 84
f 83 420 190
f 191 84 422
f 423 422 33
f 82 191 423
f 424 86 195
f 425 195 85
f 28 424 425
f 426 42 427
f 193 427 87
f 86 426 193
f 194 87 428
f 429 428 27
f 85 194 429
f 430 89 198
f 431 198 88
f 25 430 431
f 432 43 433
f 196 433 90
f 89 432 196
f 197 90 434
f 435 434 44
f 88 197 435
f 436 92 201
f 437 201 91
f 30 436 437
f 438 26 439
f 199 439 93
f 92 438 199
f 200 93 440
f 441 440 45
f 91 200 441
f 350 48 204
f 442 204 94
f 17 350 442
f 349 16 443
f 202 443 95
f 48 349 202
f 203 95 444
f 445 444 9
f 94 203 445
f 446 97 207
f 447 207 96
f 7 446 447
f 448 18 347
f 205 347 46
f 97 448 205
f 206 46 351
f 449 351 17
f 96 206 449
f 450 98 210
f 346 210 47
f 18 450 346
f 451 8 452
f 208 452 99
f 98 451 208
f 209 99 453
f 348 453 16
f 47 209 348
f 356 51 213
f 454 213 100
f 20 356 454
f 355 19 455
f 211 455 101
f 51 355 211
f 212 101 456
f 457 456 11
f 100 212 457
f 458 103 216
f 459 216 102
f 10 458 459
f 460 21 353
f 214 353 49
f 103 460 214
f 215 49 357
f 461 357 20
f 102 215 461
f 462 104 219
f 352 219 50
f 21 462 352
f 463 9 464
f 217 464 105
f 104 463 217
f 218 105 465
f 354 465 19
f 50 218 354
f 362 54 222
f 466 222 106
f 23 362 466
f 361 22 467
f 220 467 107
f 54 361 220
f 221 107 468
f 469 468 7
f 106 221 469
f 470 109 225
f 471 225 108
f 12 470 471
f 472 24 359
f 223 359 52
f 109 472 223
f 224 52 363
f 473 363 23
f 108 224 473
f 474 110 228
f 358 228 53
f 24 474 358
f 475 13 476
f 226 476 111
f 110 475 226
f 227 111 477
f 360 477 22
f 53 227 360
f 368 57 231
f 478 231 112
f 26 368 478
f 367 25 479
f 229 479 113
f 57 367 229
f 230 113 480
f 481 480 15
f 112 230 481
f 482 115 234
f 483 234 114
f 8 482 483
f 484 27 365
f 232 365 55
f 115 484 232
f 233 55 369
f 485 369 26
f 114 233 485
f 486 116 237
f 364 237 56
f 27 486 364
f 487 14 488
f 235 488 117
f 116 487 235
f 236 117 489
f 366 489 25
f 56 236 366
f 374 60 240
f 450 240 98
f 18 374 450
f 373 28 490
f 238 490 118
f 60 373 238
f 239 118 491
f 451 491 8
f 98 239 451
f 492 119 243
f 446 243 97
f 7 492 446
f 493 29 371
f 241 371 58
f 119 493 241
f 242 58 375
f 448 375 18
f 97 242 448
f 494 120 246
f 370 246 59
f 29 494 370
f 495 6 496
f 244 496 121
f 120 495 244
f 245 121 497
f 372 497 28
f 59 245 372
f 380 63 249
f 498 249 122
f 31 380 498
f 379 30 499
f 247 499 123
f 63 379 247
f 248 123 500
f 501 500 4
f 122 248 501
f 444 95 252
f 502 252 124
f 9 444 502
f 443 16 377
f 250 377 61
f 95 443 250
f 251 61 381
f 503 381 31
f 124 251 503
f 453 99 255
f 376 255 62
f 16 453 376
f 452 8 504
f 253 504 125
f 99 452 253
f 254 125 505
f 378 505 30
f 62 254 378
f 386 66 258
f 506 258 126
f 32 386 506
f 385 17 442
f 256 442 94
f 66 385 256
f 257 94 445
f 507 445 9
f 126 257 507
f 508 128 261
f 509 261 127
f 5 508 509
f 510 33 383
f 259 383 64
f 128 510 259
f 260 64 387
f 511 387 32
f 127 260 511
f 512 129 264
f 382 264 65
f 33 512 382
f 513 7 447
f 262 447 96
f 129 513 262
f 263 96 449
f 384 449 17
f 65 263 384
f 392 69 267
f 462 267 104
f 21 392 462
f 391 32 506
f 265 506 126
f 69 391 265
f 266 126 507
f 463 507 9
f 104 266 463
f 514 130 270
f 458 270 103
f 10 514 458
f 515 34 389
f 268 389 67
f 130 515 268
f 269 67 393
f 460 393 21
f 103 269 460
f 516 131 273
f 388 273 68
f 34 516 388
f 517 5 509
f 271 509 127
f 131 517 271
f 272 127 511
f 390 511 32
f 68 272 390
f 398 72 276
f 518 276 132
f 35 398 518
f 397 31 498
f 274 498 122
f 72 397 274
f 275 122 501
f 519 501 4
f 132 275 519
f 456 101 279
f 520 279 133
f 11 456 520
f 455 19 395
f 277 395 70
f 101 455 277
f 278 70 399
f 521 399 35
f 133 278 521
f 465 105 282
f 394 282 71
f 19 465 394
f 464 9 502
f 280 502 124
f 105 464 280
f 281 124 503
f 396 503 31
f 71 281 396
f 404 75 285
f 522 285 134
f 36 404 522
f 403 20 454
f 283 454 100
f 75 403 283
f 284 100 457
f 523 457 11
f 134 284 523
f 524 136 288
f 525 288 135
f 3 524 525
f 526 37 401
f 286 401 73
f 136 526 286
f 287 73 405
f 527 405 36
f 135 287 527
f 528 137 291
f 400 291 74
f 37 528 400
f 529 10 459
f 289 459 102
f 137 529 289
f 290 102 461
f 402 461 20
f 74 290 402
f 410 78 294
f 474 294 110
f 24 410 474
f 409 38 530
f 292 530 138
f 78 409 292
f 293 138 531
f 475 531 13
f 110 293 475
f 532 139 297
f 470 297 109
f 12 532 470
f 533 39 407
f 295 407 76
f 139 533 295
f 296 76 411
f 472 411 24
f 109 296 472
f 534 140 300
f 406 300 77
f 39 534 406
f 535 1 536
f 298 536 141
f 140 535 298
f 299 141 537
f 408 537 38
f 77 299 408
f 416 81 303
f 494 303 120
f 29 416 494
f 415 40 538
f 301 538 142
f 81 415 301
f 302 142 539
f 495 539 6
f 120 302 495
f 468 107 306
f 492 306 119
f 7 468 492
f 467 22 413
f 304 413 79
f 107 467 304
f 305 79 417
f 493 417 29
f 119 305 493
f 477 111 309
f 412 309 80
f 22 477 412
f 476 13 540
f 307 540 143
f 111 476 307
f 308 143 541
f 414 541 40
f 80 308 414
f 422 84 312
f 512 312 129
f 33 422 512
f 421 23 466
f 310 466 106
f 84 421 310
f 311 106 469
f 513 469 7
f 129 311 513
f 542 144 315
f 508 315 128
f 5 542 508
f 543 41 419
f 313 419 82
f 144 543 313
f 314 82 423
f 510 423 33
f 128 314 510
f 544 145 318
f 418 318 83
f 41 544 418
f 545 12 471
f 316 471 108
f 145 545 316
f 317 108 473
f 420 473 23
f 83 317 420
f 428 87 321
f 486 321 116
f 27 428 486
f 427 42 546
f 319 546 146
f 87 427 319
f 320 146 547
f 487 547 14
f 116 320 487
f 491 118 324
f 482 324 115
f 8 491 482
f 490 28 425
f 322 425 85
f 118 490 322
f 323 85 429
f 484 429 27
f 115 323 484
f 497 121 327
f 424 327 86
f 28 497 424
f 496 6 548
f 325 548 147
f 121 496 325
f 326 147 549
f 426 549 42
f 86 326 426
f 434 90 330
f 550 330 148
f 44 434 550
f 433 43 551
f 328 551 149
f 90 433 328
f 329 149 552
f 553 552 2
f 148 329 553
f 480 113 333
f 554 333 150
f 15 480 554
f 479 25 431
f 331 431 88
f 113 479 331
f 332 88 435
f 555 435 44
f 150 332 555
f 489 117 336
f 430 336 89
f 25 489 430
f 488 14 556
f 334 556 151
f 117 488 334
f 335 151 557
f 432 557 43
f 89 335 432
f 440 93 339
f 558 339 152
f 45 440 558
f 439 26 478
f 337 478 112
f 93 439 337
f 338 112 481
f 559 481 15
f 152 338 559
f 500 123 342
f 560 342 153
f 4 500 560
f 499 30 437
f 340 437 91
f 123 499 340
f 341 91 441
f 561 441 45
f 153 341 561
f 505 125 345
f 436 345 92
f 30 505 436
f 504 8 483
f 343 483 114
f 125 504 343
f 344 114 485
f 438 485 26
f 92 344 438

