# https://github.com/mikedh/trimesh
v 0.0000000000 0.0000000000 0.0000000000
v 1.0000000000 0.0000000000 0.0000000000
v 0.5000000000 0.8660254038 0.0000000000
v 0.7500000000 0.4330127019 0.0000000000
v 0.2500000000 0.4330127019 0.0000000000
v 0.5000000000 0.0000000000 0.0000000000
v 0.3750000000 0.2165063509 0.0000000000
v 0.6250000000 0.2165063509 0.0000000000
v 0.5000000000 0.4330127019 0.0000000000
v 0.3750000000 0.6495190528 0.0000000000
v 0.6250000000 0.6495190528 0.0000000000
v 0.1250000000 0.2165063509 0.0000000000
v 0.2500000000 0.0000000000 0.0000000000
v 0.7500000000 0.0000000000 0.0000000000
v 0.8750000000 0.2165063509 0.0000000000
v 0.5625000000 0.3247595264 0.0000000000
v 0.4375000000 0.3247595264 0.0000000000
v 0.5000000000 0.2165063509 0.0000000000
v 0.5625000000 0.5412658774 0.0000000000
v 0.5000000000 0.6495190528 0.0000000000
v 0.4375000000 0.5412658774 0.0000000000
v 0.3125000000 0.1082531755 0.0000000000
v 0.2500000000 0.2165063509 0.0000000000
v 0.1875000000 0.1082531755 0.0000000000
v 0.8125000000 0.1082531755 0.0000000000
v 0.7500000000 0.2165063509 0.0000000000
v 0.6875000000 0.1082531755 0.0000000000
v 0.5625000000 0.1082531755 0.0000000000
v 0.4375000000 0.1082531755 0.0000000000
v 0.6875000000 0.3247595264 0.0000000000
v 0.6250000000 0.4330127019 0.0000000000
v 0.3750000000 0.4330127019 0.0000000000
v 0.3125000000 0.3247595264 0.0000000000
v 0.3125000000 0.5412658774 0.0000000000
v 0.6875000000 0.5412658774 0.0000000000
v 0.5625000000 0.7577722283 0.0000000000
v 0.4375000000 0.7577722283 0.0000000000
v 0.1250000000 0.0000000000 0.0000000000
v 0.0625000000 0.1082531755 0.0000000000
v 0.3750000000 0.0000000000 0.0000000000
v 0.1875000000 0.3247595264 0.0000000000
v 0.6250000000 0.0000000000 0.0000000000
v 0.8750000000 0.0000000000 0.0000000000
v 0.9375000000 0.1082531755 0.0000000000
v 0.8125000000 0.3247595264 0.0000000000
f 16 17 18
f 19 20 21
f 22 23 24
f 25 26 27
f 28 18 29
f 30 31 16
f 17 32 33
f 32 21 34
f 31 35 19
f 20 36 37
f 38 24 39
f 40 29 22
f 23 33 41
f 42 27 28
f 43 44 25
f 26 45 30
f 16 9 17
f 18 17 7
f 8 16 18
f 19 11 20
f 21 20 10
f 9 19 21
f 22 7 23
f 24 23 12
f 13 22 24
f 25 15 26
f 27 26 8
f 14 25 27
f 28 8 18
f 29 18 7
f 6 28 29
f 30 4 31
f 16 31 9
f 8 30 16
f 17 9 32
f 33 32 5
f 7 17 33
f 32 9 21
f 34 21 10
f 5 32 34
f 31 4 35
f 19 35 11
f 9 31 19
f 20 11 36
f 37 36 3
f 10 20 37
f 38 13 24
f 39 24 12
f 1 38 39
f 40 6 29
f 22 29 7
f 13 40 22
f 23 7 33
f 41 33 5
f 12 23 41
f 42 14 27
f 28 27 8
f 6 42 28
f 43 2 44
f 25 44 15
f 14 43 25
f 26 15 45
f 30 45 4
f 8 26 30

