####
#
# OBJ File Generated by Meshlab
#
####
# Object 100face_torus.obj
#
# Vertices: 50
# Faces: 100
#
####
v 0.1382513 0.0538553 -0.4820435
v 0.3012904 -0.0580872 -0.4109857
v 0.3774531 -0.1378010 -0.1987704
v 0.4235940 0.1373516 -0.0693834
v 0.4932807 0.0511299 0.0888170
v 0.3577325 0.1443760 0.0837557
v 0.3909395 -0.0814132 0.2971078
v 0.1940479 0.1246966 0.4046305
v 0.0796559 0.1326504 0.2926778
v 0.1104386 -0.1415620 0.3993309
v -0.0787404 0.1451555 0.3456087
v -0.2444549 0.0846637 0.0163093
v -0.3860306 -0.0896574 0.2794483
v -0.4851528 0.0184425 0.1714352
v -0.2363744 0.1418094 0.3285398
v -0.4476047 0.1208330 -0.0515042
v 0.1514441 0.1376999 -0.3747244
v 0.0133326 -0.0953100 -0.4822087
v -0.0485962 -0.1446004 -0.3394630
v 0.3388317 0.0802912 -0.3565727
v 0.4647672 -0.0472642 -0.2030402
v 0.2422842 0.0456855 -0.0091675
v 0.2085350 -0.0291986 0.1005190
v 0.4998309 -0.0495310 0.0245117
v 0.2671573 -0.1200224 -0.1316227
v 0.3672613 0.0734960 0.3254415
v 0.2335919 -0.0340622 0.4533215
v 0.0052427 0.0715907 0.4892550
v -0.0245843 -0.0637757 0.4930138
v -0.1203341 0.0220149 0.2004815
v 0.0595957 -0.0807626 0.2376472
v -0.1604346 0.0482013 0.4725123
v -0.2860507 -0.0302424 0.4164348
v -0.2121654 -0.1163508 0.2001061
v -0.4936630 -0.0735758 -0.0449175
v -0.1424081 0.0969921 -0.2195315
v -0.3367722 -0.1407733 -0.1333298
v 0.0949421 0.1026995 -0.2481486
v -0.2331089 -0.1162451 -0.3900285
v -0.3433962 0.0193668 -0.3840380
v -0.0589434 0.0087538 -0.5074905
v -0.1449422 0.1286235 -0.4155389
v 0.3800323 -0.1510229 0.0941065
v -0.1735753 -0.1381537 0.3761116
v -0.4294895 -0.1236644 0.1017874
v -0.2564093 -0.0963097 -0.0830733
v 0.1286095 -0.0438234 -0.2015929
v -0.3860140 0.0847687 0.2934223
v -0.4832860 -0.0566823 -0.1756458
v -0.3162849 0.1439895 -0.2358433
# 50 vertices, 0 vertices normals

f 47 25 23
f 32 48 33
f 33 13 44
f 50 40 16
f 37 19 46
f 1 20 2
f 17 4 20
f 3 25 47
f 3 43 25
f 24 7 43
f 43 31 23
f 43 10 31
f 26 8 27
f 23 31 9
f 28 11 32
f 32 15 48
f 48 14 33
f 33 14 13
f 44 45 34
f 14 35 13
f 48 16 14
f 12 50 16
f 45 49 37
f 46 19 38
f 19 47 38
f 38 4 17
f 20 21 2
f 38 6 4
f 38 22 6
f 21 4 5
f 24 5 7
f 27 10 7
f 9 31 30
f 8 9 11
f 11 12 15
f 13 35 45
f 14 16 49
f 12 36 50
f 12 46 36
f 40 42 41
f 41 18 39
f 42 1 41
f 1 42 17
f 18 41 1
f 1 17 20
f 47 19 3
f 18 1 2
f 3 18 2
f 38 47 22
f 3 2 21
f 21 20 4
f 21 24 3
f 21 5 24
f 22 47 23
f 3 24 43
f 25 43 23
f 5 26 7
f 5 4 6
f 5 6 26
f 26 6 8
f 6 22 9
f 22 23 9
f 43 7 10
f 7 26 27
f 6 9 8
f 8 28 27
f 10 44 31
f 10 27 29
f 29 27 28
f 29 28 32
f 8 11 28
f 31 34 30
f 31 44 34
f 10 29 44
f 32 11 15
f 11 9 30
f 44 29 33
f 29 32 33
f 11 30 12
f 44 13 45
f 48 15 16
f 30 34 46
f 30 46 12
f 34 37 46
f 34 45 37
f 35 14 49
f 15 12 16
f 45 35 49
f 49 16 40
f 42 50 36
f 37 49 39
f 49 40 39
f 40 50 42
f 42 36 38
f 36 46 38
f 42 38 17
f 37 39 19
f 39 40 41
f 19 18 3
f 19 39 18
# 100 faces, 0 coords texture

# End of File
