####
#
# OBJ File Generated by Meshlab
#
####
# Object 100face_sphere.obj
#
# Vertices: 52
# Faces: 100
#
####
v -0.2820529 0.0109053 0.4277119
v -0.0414708 -0.4925182 0.1502070
v 0.0814986 -0.3311600 0.3765464
v 0.4106523 -0.2275179 0.1963205
v -0.4499985 0.2291505 -0.0608247
v 0.2809175 0.3065493 -0.3062724
v -0.0849402 0.4636543 0.2020439
v -0.3630602 0.1219994 -0.3460278
v -0.0008262 0.3270125 -0.3919866
v 0.1658527 -0.2590330 -0.4064153
v 0.4663688 0.0617948 0.2052438
v 0.2370926 0.0749025 -0.4506555
v -0.2882426 0.3517694 -0.2451186
v 0.4229121 0.2680546 0.0880325
v -0.4116763 -0.2725056 0.1325253
v 0.1130550 0.1608192 0.4771303
v 0.3675578 0.0024843 0.3543499
v 0.2252532 -0.4432506 0.1392282
v -0.2909348 -0.1146235 -0.4032716
v 0.0493544 -0.0505447 -0.5127373
v 0.3507982 -0.1759507 -0.3283550
v -0.2615019 -0.3633081 -0.2510063
v -0.4596775 -0.1123774 -0.2148277
v 0.2626601 0.4376048 0.0156528
v 0.1480538 -0.1268213 0.4741111
v 0.0507232 0.4617281 -0.2045782
v 0.4588212 -0.2188932 0.0217208
v -0.1974210 0.2121154 0.4298322
v 0.2474571 0.3429286 0.3001763
v 0.0102348 0.3527099 0.3707481
v 0.2654746 -0.2309933 0.3694239
v -0.0768111 -0.1410595 0.4898771
v -0.3131742 -0.1738327 0.3601404
v -0.1090541 0.1475743 -0.4799667
v 0.3084435 0.3893648 -0.1146450
v -0.1564897 0.4798164 -0.0993542
v 0.2854161 -0.4253401 -0.0352289
v -0.0407328 -0.3969534 -0.3189867
v 0.4693709 0.1065016 -0.1853919
v -0.5096965 -0.0692009 -0.0043819
v 0.0460214 0.5036019 0.0526648
v -0.0151919 -0.5016825 -0.1205441
v 0.5042119 0.0520930 -0.0022022
v -0.4256854 -0.0732308 0.2700922
v -0.3188160 0.3682998 0.1690777
v -0.4752370 0.1393347 0.1387896
v -0.2484660 -0.4388735 0.0729101
v -0.1695270 -0.3712861 0.3063106
v -0.1267147 -0.1883378 -0.4572980
v 0.2232063 -0.3700132 -0.2762440
v 0.4493558 -0.2240356 -0.1187103
v -0.4164679 -0.2815548 -0.0978583
# 52 vertices, 0 vertices normals

f 24 14 35
f 41 26 36
f 19 49 22
f 51 43 27
f 48 32 33
f 47 2 48
f 13 34 8
f 15 44 40
f 23 19 22
f 17 29 16
f 36 45 7
f 20 21 10
f 13 36 9
f 42 22 38
f 2 47 42
f 47 22 42
f 51 21 39
f 51 39 43
f 1 32 28
f 4 31 18
f 48 33 15
f 34 20 19
f 14 43 39
f 15 40 52
f 41 29 24
f 4 17 31
f 31 25 3
f 48 2 3
f 41 24 26
f 4 27 11
f 5 23 40
f 31 17 25
f 7 45 28
f 36 7 41
f 39 21 12
f 20 10 49
f 18 42 37
f 35 14 39
f 45 5 46
f 17 16 25
f 19 20 49
f 50 10 21
f 14 11 43
f 11 29 17
f 28 46 1
f 6 39 12
f 9 6 12
f 13 9 34
f 26 24 35
f 51 37 50
f 19 23 8
f 38 22 49
f 42 50 37
f 37 51 27
f 45 13 5
f 5 8 23
f 52 47 15
f 41 7 29
f 7 30 29
f 3 18 31
f 51 50 21
f 22 52 23
f 42 38 50
f 32 25 16
f 32 3 25
f 1 44 33
f 1 33 32
f 16 28 32
f 14 24 29
f 16 30 28
f 29 30 16
f 11 14 29
f 1 46 44
f 28 45 46
f 30 7 28
f 18 37 4
f 15 47 48
f 44 15 33
f 3 2 18
f 32 48 3
f 12 21 20
f 34 12 20
f 9 12 34
f 19 8 34
f 6 26 35
f 9 26 6
f 9 36 26
f 10 38 49
f 10 50 38
f 22 47 52
f 18 2 42
f 6 35 39
f 4 37 27
f 11 27 43
f 17 4 11
f 45 36 13
f 46 5 40
f 5 13 8
f 44 46 40
f 23 52 40
# 100 faces, 0 coords texture

# End of File
