####
#
# OBJ File Generated by Meshlab
#
####
# Object arm500.obj
#
# Vertices: 252
# Faces: 500
#
####
v -0.5011446 -0.1786108 0.5178810
v -0.5048082 -0.1608520 0.7353590
v -0.5050231 -0.1325023 0.7634813
v -0.5122500 -0.1442835 0.4829962
v -0.5132715 -0.1489699 0.7236379
v -0.4995294 -0.0200332 0.8112884
v -0.5106490 -0.0211649 0.4281031
v -0.5120729 0.1567776 0.5085630
v -0.5142179 0.0621481 0.7803804
v -0.5077149 0.0753067 0.7942666
v -0.5144775 0.1592049 0.6635686
v -0.5046872 0.1907329 0.5975408
v -0.5040690 -0.0861843 0.4364734
v -0.5083205 -0.1966170 0.6634577
v -0.5133080 -0.0936435 0.7893782
v -0.5063446 0.0570735 0.4311253
v -0.5079043 0.1202009 0.4655430
v -0.4573583 0.1281511 0.7585805
v -0.5067730 -0.1953126 0.5595531
v -0.5084465 0.1587663 0.7213126
v -0.4611734 -0.1348164 0.4655483
v -0.4630109 -0.0367288 0.4216214
v -0.4700450 0.0034579 0.4197278
v -0.1570074 -0.0346915 0.4213929
v -0.1514368 0.1569729 0.5079448
v -0.4537570 -0.2029324 0.5928413
v -0.1602542 0.0372999 0.4247888
v -0.1617549 -0.0344629 0.8128828
v -0.1587718 0.1581594 0.7264506
v -0.4551706 0.1906738 0.6442081
v -0.1566409 0.0930005 0.7872137
v -0.1603008 0.1806456 0.5537027
v -0.1607615 -0.2035342 0.6492454
v -0.1551533 -0.1032735 0.4439216
v -0.1573795 -0.1660762 0.7329772
v -0.1592799 -0.1018517 0.7909714
v -0.1644956 0.0346595 0.8104863
v -0.1570904 0.0863245 0.4437372
v -0.1565977 0.1233609 0.4697788
v -0.1475144 0.1912239 0.6501928
v -0.1242283 -0.2544276 0.4821443
v -0.1461889 -0.2637680 0.6509206
v -0.1186863 -0.2807588 0.6202312
v -0.1485000 -0.1981254 0.5609524
v -0.1419751 -0.2254373 0.6972191
v -0.1373931 -0.2060056 0.7710587
v -0.1150744 -0.2397620 0.7686436
v -0.1372588 -0.1767744 0.7330512
v -0.1454279 -0.1925028 0.8222687
v -0.1234908 -0.1415440 0.3794892
v -0.1385217 -0.1696696 0.5005410
v -0.1363692 -0.1544661 0.8612677
v -0.1217627 -0.1222552 0.7865193
v -0.1272181 -0.1245043 0.8404805
v -0.1288690 -0.1075312 0.4159119
v -0.1240344 -0.0379973 0.3647256
v -0.1235203 -0.0493136 0.4017548
v -0.1275751 -0.0790774 0.8938050
v -0.1249166 0.0574555 0.8915530
v -0.1224068 0.0795347 0.3724661
v -0.1268016 0.0663451 0.4172489
v -0.1219985 0.0982409 0.8106333
v -0.1282312 0.1264199 0.8582153
v -0.1264968 0.1287545 0.4396747
v -0.1368205 0.1886914 0.7179101
v -0.1266170 0.1956983 0.4181659
v -0.1220147 0.2150605 0.7867734
v -0.1365476 0.1931900 0.5463418
v -0.1404368 0.2629991 0.6032953
v -0.1398622 0.2459329 0.7057693
v -0.0198036 -0.2581180 0.6624080
v -0.0564041 -0.1381044 0.3536640
v -0.1146938 -0.0883566 0.8138580
v -0.1178645 0.0162545 0.8200210
v -0.0826475 -0.0553672 0.8986363
v -0.0819335 0.0852542 0.8771919
v -0.1185626 0.0629587 0.8703910
v -0.0782587 0.1074616 0.3595021
v -0.0499416 0.1685362 0.3925384
v -0.1276342 0.2652363 0.5342221
v -0.1091000 0.2770266 0.6090313
v -0.0510706 -0.1545550 0.8450981
v -0.0710142 -0.1790164 0.3964605
v -0.0754028 -0.0606544 0.3310904
v -0.0415511 -0.0195023 0.8888916
v -0.0149074 -0.0357676 0.2294655
v -0.0728429 0.1855037 0.8101174
v -0.0295104 0.2324813 0.4913794
v -0.1077668 0.2695914 0.6866167
v -0.0644896 -0.2648464 0.5241151
v -0.0132090 -0.2601743 0.5860298
v 0.0311148 -0.1805145 0.7584389
v -0.0545721 0.0734968 0.3146538
v -0.0102633 0.0774427 0.8566428
v 0.0089360 0.1625757 0.2963682
v 0.0231788 0.2268105 0.6442747
v -0.0006544 -0.2132605 0.4526662
v 0.0427796 -0.1420536 0.2930084
v -0.0013221 -0.0962359 0.2552476
v 0.0236482 -0.0746592 0.8466932
v 0.0794910 0.0048185 0.0402385
v 0.0124955 0.1077543 0.1985112
v -0.0297474 0.2104639 0.7627435
v -0.0200086 0.2514656 0.5785904
v 0.0870996 -0.2000062 0.6050117
v 0.0633594 -0.1033913 0.1638642
v 0.0849734 0.1719192 0.1267381
v 0.0100415 0.2001896 0.4332793
v 0.0563389 -0.2027809 0.4573598
v 0.0631152 -0.1149858 0.7926279
v 0.1139857 0.0979284 0.0107698
v 0.0627971 0.0101049 0.8227060
v 0.0715583 0.1950704 0.4799488
v 0.0869961 0.1930406 0.1870659
v 0.0475098 0.1863087 0.3125491
v 0.1473546 -0.1657165 0.4204700
v 0.1142402 -0.1363052 -0.4693303
v 0.1100212 -0.1261465 -0.3697647
v 0.0948248 -0.0869514 0.0462890
v 0.1201110 -0.1214414 0.1742103
v 0.1315697 -0.1027764 0.6839940
v 0.1103417 -0.0789007 -0.4434193
v 0.1214388 -0.0431228 -0.0798543
v 0.1104229 -0.0563943 0.7565765
v 0.0738141 0.1114041 0.7657422
v 0.1559841 0.0838964 0.5977128
v 0.0885169 0.1634296 0.6458799
v 0.1430118 0.2043942 0.1816927
v 0.0872832 0.1914919 0.3345150
v 0.1556136 -0.1322002 -0.1956557
v 0.1541004 -0.1240453 -0.0234480
v 0.1371725 -0.1545590 0.3142923
v 0.1886007 -0.1344116 0.4349155
v 0.1172797 -0.0862785 -0.5198790
v 0.1277194 -0.0859541 -0.2666011
v 0.1292895 -0.0863099 -0.1014006
v 0.1561370 -0.0625979 -0.5269727
v 0.1363950 -0.0397850 -0.1361158
v 0.1519050 -0.0550933 -0.3224753
v 0.1726067 -0.0221505 -0.2284438
v 0.1345353 0.0219369 0.7121329
v 0.1206461 0.1671825 0.4972259
v 0.1349172 0.1847369 0.3235746
v 0.1387453 0.1993686 0.1131292
v 0.1678216 -0.1383478 -0.3229025
v 0.2157098 -0.1375133 -0.0047668
v 0.1895513 -0.1232257 0.1879257
v 0.1660385 -0.1310498 -0.5165073
v 0.2398110 -0.0879698 0.3408076
v 0.1886150 -0.0663485 -0.5251380
v 0.1979783 -0.0505383 -0.3983791
v 0.1686827 -0.0516418 0.6182041
v 0.1737000 -0.0017889 0.6091064
v 0.1607132 0.0122992 -0.1398033
v 0.2225440 0.0716889 -0.2249214
v 0.1911759 0.1069532 0.4334482
v 0.1697442 0.1543317 0.3713336
v 0.1989137 0.1726422 -0.0027468
v 0.2425677 -0.1422135 -0.3181205
v 0.1919128 -0.0870175 -0.5790483
v 0.2266377 -0.0869425 -0.4374353
v 0.2112063 -0.1283619 0.3080148
v 0.2682819 -0.0529642 0.2745738
v 0.2352580 -0.0539658 -0.4073833
v 0.2457504 -0.0279347 -0.4052231
v 0.2095175 0.1981953 0.1265373
v 0.2586057 0.1534781 0.1505681
v 0.2219826 -0.1230645 -0.3564596
v 0.2879221 -0.1532329 -0.2298245
v 0.2443825 -0.1099180 0.1830027
v 0.2652377 -0.0451894 -0.5009742
v 0.2673923 -0.0171246 0.2888379
v 0.2709090 0.1134595 -0.3224271
v 0.2355031 0.1256731 -0.1615361
v 0.2546816 0.1695764 -0.0197574
v 0.2717345 0.1654275 0.0617948
v 0.2710291 -0.1786710 -0.7217075
v 0.2938011 -0.2302786 -0.6817520
v 0.2777241 -0.1701152 -0.4939296
v 0.3186499 -0.1711734 -0.3286520
v 0.2626430 -0.1499427 -0.3768795
v 0.2990851 -0.1260196 -0.0027716
v 0.2871534 -0.2100434 -0.8371144
v 0.2634055 -0.0875063 -0.4349840
v 0.2849581 -0.0871861 0.1682819
v 0.2974667 -0.0146763 -0.8477677
v 0.2767769 -0.0137992 -0.7494587
v 0.2535358 0.0352968 0.3185420
v 0.2909147 0.1591918 -0.6804268
v 0.2750030 0.0750843 -0.4904188
v 0.2946974 0.1489362 -0.4545917
v 0.3041785 0.1461220 -0.1535210
v 0.3514871 -0.2722089 -0.6657088
v 0.3197752 -0.2156774 -0.4974833
v 0.3294076 -0.2162329 -0.8804088
v 0.3317355 -0.0536553 -0.8933934
v 0.3222913 -0.0512813 0.1131848
v 0.3289956 0.1266929 -0.8399599
v 0.2983839 0.1140094 -0.7903209
v 0.3145015 0.0768308 0.1017665
v 0.3576350 0.0981557 -0.0710156
v 0.3059034 0.1513688 -0.3443400
v 0.3244939 0.1526784 -0.2845265
v 0.3255956 0.1362231 -0.0724922
v 0.3289878 0.2087118 -0.7265008
v 0.3299378 -0.2640113 -0.7764902
v 0.3846017 -0.2722689 -0.7741854
v 0.3681352 -0.2175647 -0.4420052
v 0.3763787 -0.2209854 -0.8748038
v 0.3439468 -0.0917329 0.0023030
v 0.3685758 -0.0640132 -0.8950949
v 0.3682644 -0.0404146 -0.0126846
v 0.3663268 0.1055055 -0.8620785
v 0.3667062 0.1243678 -0.1935544
v 0.3674093 0.2139165 -0.7631337
v 0.3653352 0.1527649 -0.2889059
v 0.3268010 0.2209330 -0.5896614
v 0.3655945 0.1938604 -0.4092688
v 0.3553484 0.2268317 -0.5239292
v 0.4007270 -0.2631019 -0.6061438
v 0.4197740 -0.2106252 -0.4320593
v 0.3505740 -0.1517224 -0.2407710
v 0.4010757 -0.1424348 -0.2673542
v 0.3557196 -0.1252706 -0.1409862
v 0.3891902 0.0572760 -0.1141471
v 0.4053638 0.0678907 -0.8548051
v 0.4027007 0.1250934 -0.2721642
v 0.4013186 0.1803187 -0.7884731
v 0.3826875 0.2438193 -0.6820918
v 0.4054719 0.2375522 -0.6084944
v 0.4536202 -0.2459337 -0.6605167
v 0.4633184 -0.2127365 -0.7476779
v 0.4211247 -0.1539621 -0.8558956
v 0.4182496 -0.0830001 -0.2061699
v 0.4932559 -0.0434191 -0.3923813
v 0.3910030 0.0073163 -0.0839983
v 0.4338575 0.1036576 -0.3038971
v 0.4150716 0.2125291 -0.4820428
v 0.4146661 0.1622503 -0.3602630
v 0.4409271 0.1887123 -0.7084548
v 0.4508013 -0.2340391 -0.5558364
v 0.4683956 -0.1801217 -0.4428176
v 0.4919934 -0.1274534 -0.4372450
v 0.4747581 -0.0767648 -0.7665063
v 0.4568012 0.0844722 -0.7800311
v 0.4758175 0.0461591 -0.3607499
v 0.4903702 0.1137873 -0.4848931
v 0.4492386 0.1988446 -0.5860868
v 0.4984591 -0.1744593 -0.5917557
v 0.5096410 -0.0131812 -0.6447911
v 0.4857502 0.1355920 -0.6179438
v 0.5146395 -0.0549612 -0.5760136
# 252 vertices, 0 vertices normals

f 4 1 19
f 4 19 14
f 4 14 5
f 2 5 14
f 3 5 2
f 5 3 15
f 4 7 13
f 15 4 5
f 8 7 4
f 15 6 9
f 9 6 10
f 16 7 8
f 11 8 4
f 11 4 15
f 11 15 9
f 8 17 16
f 11 9 20
f 9 10 20
f 12 8 11
f 12 11 20
f 19 26 14
f 1 4 21
f 13 21 4
f 22 13 7
f 7 23 22
f 16 23 7
f 10 18 20
f 20 30 12
f 25 17 8
f 32 25 8
f 32 8 12
f 37 6 28
f 16 27 23
f 37 10 6
f 16 17 38
f 1 26 19
f 38 27 16
f 17 39 38
f 25 39 17
f 28 6 15
f 33 2 14
f 13 34 21
f 24 13 22
f 23 24 22
f 31 10 37
f 31 18 10
f 26 33 14
f 33 35 2
f 3 2 35
f 3 35 36
f 36 15 3
f 23 27 24
f 30 32 12
f 29 30 20
f 44 33 26
f 51 44 1
f 26 1 44
f 1 21 51
f 18 29 20
f 18 31 29
f 29 40 30
f 51 21 34
f 40 32 30
f 24 34 13
f 36 28 15
f 43 42 41
f 47 42 43
f 41 42 44
f 44 42 45
f 45 42 47
f 47 46 45
f 51 50 41
f 51 41 44
f 33 44 45
f 45 48 33
f 48 45 46
f 49 46 47
f 55 50 51
f 48 35 33
f 54 46 49
f 54 49 52
f 55 51 34
f 48 46 53
f 36 48 53
f 48 36 35
f 46 54 53
f 54 36 53
f 73 36 54
f 54 52 58
f 73 54 58
f 57 50 55
f 56 50 57
f 24 57 34
f 57 55 34
f 73 28 36
f 74 28 73
f 27 57 24
f 74 37 28
f 61 56 57
f 60 56 61
f 27 61 57
f 38 61 27
f 74 31 37
f 62 31 74
f 64 60 61
f 39 64 38
f 38 64 61
f 66 60 64
f 39 25 64
f 31 62 29
f 62 65 29
f 62 63 65
f 80 64 25
f 66 64 80
f 32 68 25
f 68 80 25
f 32 40 68
f 29 65 40
f 69 80 68
f 70 68 40
f 70 40 65
f 70 63 67
f 65 63 70
f 69 68 70
f 89 70 67
f 80 69 81
f 81 69 70
f 81 70 89
f 90 43 41
f 47 43 71
f 83 41 50
f 49 47 82
f 49 82 52
f 83 50 72
f 58 52 75
f 56 72 50
f 56 84 72
f 77 74 73
f 58 77 73
f 60 84 56
f 60 78 84
f 58 59 77
f 75 76 59
f 58 75 59
f 62 77 63
f 62 74 77
f 77 59 76
f 60 66 78
f 76 63 77
f 66 79 78
f 76 87 63
f 67 63 87
f 108 79 66
f 108 66 88
f 87 103 67
f 80 88 66
f 103 89 67
f 90 91 43
f 91 71 43
f 97 90 41
f 82 75 52
f 84 93 86
f 78 93 84
f 85 94 76
f 85 76 75
f 94 87 76
f 80 104 88
f 81 104 80
f 90 97 109
f 83 97 41
f 71 92 47
f 92 82 47
f 84 99 72
f 75 82 100
f 84 86 99
f 100 85 75
f 101 86 93
f 78 102 93
f 102 78 95
f 79 95 78
f 94 103 87
f 81 96 104
f 89 96 81
f 96 89 103
f 109 91 90
f 72 97 83
f 98 97 72
f 98 72 99
f 92 110 82
f 82 110 100
f 85 100 112
f 85 112 94
f 102 101 93
f 125 103 94
f 79 115 95
f 108 115 79
f 71 105 92
f 98 109 97
f 98 99 106
f 86 119 106
f 86 106 99
f 101 119 86
f 125 94 112
f 107 111 102
f 95 107 102
f 103 125 96
f 113 108 88
f 113 88 104
f 96 113 104
f 109 105 91
f 91 105 71
f 132 109 98
f 132 98 106
f 110 124 100
f 100 124 112
f 101 102 111
f 95 114 107
f 95 115 114
f 108 129 115
f 108 113 129
f 96 127 142
f 127 96 125
f 142 113 96
f 109 116 105
f 105 116 133
f 120 132 106
f 105 110 92
f 121 110 105
f 122 117 118
f 134 117 122
f 122 118 135
f 119 120 106
f 121 124 110
f 123 136 119
f 101 123 119
f 124 141 112
f 101 111 123
f 125 112 141
f 126 127 125
f 114 144 107
f 142 129 113
f 142 143 129
f 128 144 114
f 129 114 115
f 129 128 114
f 116 109 132
f 148 145 117
f 117 145 118
f 130 118 145
f 147 132 120
f 133 121 105
f 160 148 134
f 134 148 117
f 135 118 130
f 135 130 136
f 136 130 131
f 136 131 119
f 119 131 120
f 137 160 134
f 137 134 122
f 139 137 122
f 139 122 135
f 139 135 138
f 138 135 136
f 138 136 123
f 152 124 121
f 140 139 138
f 138 154 140
f 124 152 141
f 141 152 153
f 154 138 123
f 111 154 123
f 126 125 141
f 142 156 157
f 156 142 127
f 156 127 126
f 143 142 157
f 128 129 143
f 168 145 148
f 145 159 130
f 130 146 131
f 146 147 131
f 131 147 120
f 147 162 132
f 132 133 116
f 162 133 132
f 133 149 121
f 150 160 137
f 150 139 151
f 150 137 139
f 149 152 121
f 140 151 139
f 154 155 140
f 153 126 141
f 111 155 154
f 111 174 155
f 174 111 158
f 107 158 111
f 158 107 144
f 157 166 143
f 166 158 144
f 166 144 128
f 166 128 143
f 168 159 145
f 146 170 147
f 162 147 170
f 161 148 160
f 148 161 168
f 162 149 133
f 160 150 161
f 150 151 161
f 161 151 164
f 163 152 149
f 165 164 151
f 151 140 165
f 163 172 153
f 163 153 152
f 140 155 165
f 172 188 153
f 188 126 153
f 188 156 126
f 167 157 156
f 166 175 158
f 167 166 157
f 159 168 181
f 159 169 130
f 169 146 130
f 161 184 181
f 168 161 181
f 149 162 170
f 149 170 185
f 184 161 164
f 149 185 163
f 164 165 171
f 173 165 155
f 156 188 200
f 155 174 173
f 174 158 175
f 176 175 166
f 167 176 166
f 177 183 178
f 177 178 179
f 194 179 178
f 180 159 181
f 187 183 177
f 169 159 180
f 169 182 146
f 146 182 170
f 186 183 187
f 171 177 179
f 184 179 181
f 182 185 170
f 171 179 184
f 171 184 164
f 190 177 171
f 199 186 187
f 190 187 177
f 190 171 165
f 189 199 187
f 189 187 190
f 173 190 165
f 191 190 173
f 200 167 156
f 189 190 191
f 202 191 173
f 202 173 203
f 174 203 173
f 192 203 174
f 192 174 175
f 204 192 175
f 204 175 176
f 206 183 195
f 183 206 178
f 178 206 193
f 193 194 178
f 179 194 181
f 180 181 194
f 222 169 180
f 183 196 195
f 169 224 182
f 222 224 169
f 186 196 183
f 224 210 182
f 185 182 210
f 197 185 210
f 197 163 185
f 197 172 163
f 172 236 188
f 196 186 198
f 236 200 188
f 198 186 199
f 201 167 200
f 201 204 176
f 201 176 167
f 199 205 198
f 205 199 189
f 191 217 189
f 191 219 217
f 219 191 202
f 205 189 217
f 207 193 206
f 195 207 206
f 209 207 195
f 193 208 194
f 194 208 180
f 208 222 180
f 196 209 195
f 196 211 209
f 212 197 210
f 212 172 197
f 196 213 211
f 212 236 172
f 198 213 196
f 236 225 200
f 225 201 200
f 204 201 214
f 214 216 203
f 214 203 192
f 214 192 204
f 215 213 198
f 205 215 198
f 218 219 202
f 216 202 203
f 216 218 202
f 215 205 229
f 229 205 217
f 229 217 219
f 207 220 193
f 193 220 208
f 220 221 208
f 208 223 222
f 221 223 208
f 233 209 211
f 224 222 223
f 224 223 234
f 234 210 224
f 212 210 234
f 233 211 226
f 236 212 234
f 213 226 211
f 214 225 227
f 225 214 201
f 226 213 228
f 216 227 239
f 227 216 214
f 228 213 215
f 239 238 218
f 218 216 239
f 229 228 215
f 238 219 218
f 230 229 219
f 238 230 219
f 231 220 207
f 232 207 209
f 207 232 231
f 231 241 220
f 220 241 221
f 232 209 233
f 221 242 223
f 242 234 223
f 236 234 235
f 233 226 245
f 236 246 225
f 237 225 246
f 237 227 225
f 245 226 228
f 228 240 245
f 237 239 227
f 240 228 229
f 230 240 229
f 230 248 240
f 230 238 248
f 241 242 221
f 233 244 232
f 243 234 242
f 235 234 243
f 233 245 244
f 235 246 236
f 247 237 246
f 245 240 251
f 247 239 237
f 251 240 248
f 248 247 251
f 248 238 247
f 247 238 239
f 249 231 232
f 249 241 231
f 242 241 249
f 232 244 250
f 232 250 249
f 249 252 243
f 249 243 242
f 252 249 250
f 244 245 250
f 247 246 235
f 245 251 250
f 250 251 247
f 252 235 243
f 247 235 252
f 250 247 252
# 500 faces, 0 coords texture

# End of File
