####
#
# OBJ File Generated by Meshlab
#
####
# Object bob200.obj
#
# Vertices: 100
# Faces: 200
#
####
v -0.8907116 0.1016086 -0.0936797
v -0.8783166 0.2122406 -0.1134101
v -0.8831968 0.1876869 0.1300882
v -0.7663459 0.0913121 0.1340759
v -0.6927813 0.2160984 0.1528183
v -0.7055427 0.3552253 -0.0035951
v -0.6413665 -0.1775314 0.0382433
v -0.5398376 0.0377862 0.1994805
v -0.6397680 0.0355678 -0.1237526
v -0.5074171 -0.3299732 -0.2936677
v -0.5263469 -0.3659043 0.0914591
v -0.5413267 0.4625414 -0.0246725
v -0.5727994 -0.0880065 -0.2471795
v -0.5380901 0.1880449 -0.2332449
v -0.4323319 0.3807043 0.1917846
v -0.4332752 0.4192930 -0.1630316
v -0.5240022 -0.1098097 0.3203307
v -0.4803827 0.2235524 0.2433787
v -0.4458509 -0.0426791 -0.3350123
v -0.4249589 -0.4438777 -0.1531494
v -0.3719966 -0.3591400 0.4626404
v -0.4024066 -0.2217612 -0.4981841
v -0.4227964 -0.0035741 0.2732869
v -0.3522073 -0.4698628 0.1935797
v -0.2576929 0.0539955 0.1547375
v -0.3012893 -0.1476896 0.5422931
v -0.3004718 0.2496817 -0.1910807
v -0.4962681 -0.2365198 0.3993029
v -0.1754135 -0.4738030 -0.3814807
v -0.2171595 -0.4300157 -0.5004540
v -0.2715357 0.4208397 0.0754963
v -0.1952491 -0.4368972 -0.0697575
v 0.0465699 -0.2544619 0.7255093
v -0.2945307 0.0465997 -0.1750669
v -0.2295477 0.3373456 -0.0993945
v 0.0099548 -0.0722595 -0.2796328
v -0.2062061 0.2415735 0.1153365
v -0.0084354 -0.4383900 0.3104114
v -0.0840602 -0.3585078 -0.6453068
v -0.1780088 -0.0312928 0.1744546
v -0.1983024 0.0558970 -0.0739696
v -0.1259247 -0.1298137 -0.6359087
v -0.0624938 -0.1496797 -0.1498951
v -0.1523616 -0.4714669 0.3161765
v -0.0476810 -0.4300086 0.6065148
v -0.0685836 -0.3348097 -0.1559941
v -0.0100600 -0.0141247 0.5573531
v 0.0185567 -0.0067321 -0.5291903
v -0.0817284 -0.3470894 0.1333848
v -0.0855877 -0.2213965 -0.0274410
v -0.0925771 -0.1515632 0.0957418
v 0.0637785 -0.1080145 0.2668840
v 0.1531378 -0.1850858 -0.7216507
v -0.0575619 -0.4500685 -0.3174661
v 0.2023922 -0.0585246 0.6509244
v 0.0531720 -0.2629157 0.2288136
v -0.0345693 -0.0098489 0.3949148
v 0.0625103 -0.2461437 -0.2302683
v 0.2313028 -0.3527959 -0.6889884
v 0.2425490 -0.3690253 0.2668679
v 0.2098183 -0.4676378 -0.5698281
v 0.2947087 -0.2025032 -0.2190525
v 0.2113460 -0.4625492 -0.4236318
v 0.2076835 -0.3929802 -0.3095972
v 0.4014791 -0.4294046 0.2307016
v 0.4730509 -0.1623192 -0.6499589
v 0.2657936 -0.1117845 0.2577423
v 0.4423954 -0.0595870 0.1657809
v 0.4115226 -0.0254135 -0.5428096
v 0.3800345 -0.2443078 -0.0999076
v 0.2788208 -0.4707097 0.4325522
v 0.4120566 -0.2837125 0.0653592
v 0.5581682 -0.0043118 -0.1886086
v 0.3798487 -0.0020964 0.4176594
v 0.2277006 -0.0280168 -0.3588700
v 0.2870398 -0.4583170 0.5804069
v 0.4840223 -0.4074230 0.0724788
v 0.4745645 -0.0699236 -0.0149557
v 0.4581114 -0.4272121 -0.1627546
v 0.5003409 -0.4176055 -0.5458559
v 0.6192161 -0.0508797 0.4282884
v 0.5793521 -0.4734540 0.2777260
v 0.4955815 -0.1711181 0.6360911
v 0.7386630 -0.0031211 0.1833249
v 0.5935913 -0.4737284 -0.2609744
v 0.7075432 -0.2814374 -0.4673482
v 0.6678229 -0.1047382 -0.4511175
v 0.7222162 -0.0127103 -0.2041936
v 0.7744871 -0.4477256 -0.0642191
v 0.5534596 -0.3607998 0.5769715
v 0.7318464 -0.4212980 0.2803552
v 0.8525627 -0.0540592 0.1471329
v 0.6518220 0.0371028 0.0805974
v 0.7592832 -0.4015351 -0.2854818
v 0.7476105 0.0908066 -0.0868154
v 0.8127034 0.2372507 0.0082539
v 0.7844270 -0.2262962 0.3762322
v 0.8781413 -0.1295706 -0.1676491
v 0.8889148 0.1752848 -0.0033466
v 0.8993573 -0.2597573 0.0677667
# 100 vertices, 0 vertices normals

f 2 1 3
f 3 1 4
f 6 2 3
f 9 1 2
f 3 5 6
f 1 9 4
f 2 14 9
f 6 14 2
f 5 3 4
f 9 7 4
f 8 4 7
f 18 5 4
f 7 9 13
f 17 7 28
f 13 10 7
f 7 17 8
f 11 7 10
f 11 28 7
f 9 14 13
f 18 15 5
f 16 14 6
f 6 12 16
f 5 15 6
f 4 8 18
f 15 12 6
f 20 11 10
f 28 11 21
f 17 23 8
f 13 22 10
f 13 19 22
f 14 34 13
f 18 8 25
f 21 11 24
f 15 31 12
f 31 16 12
f 20 24 11
f 23 17 26
f 19 13 34
f 16 27 14
f 17 28 26
f 8 23 25
f 20 10 30
f 27 34 14
f 37 15 18
f 31 35 16
f 29 20 30
f 29 24 20
f 30 10 22
f 22 19 42
f 34 48 19
f 37 18 25
f 16 35 27
f 24 32 44
f 24 45 21
f 21 26 28
f 27 41 34
f 15 37 31
f 22 39 30
f 21 33 26
f 47 57 23
f 29 32 24
f 47 23 26
f 36 48 34
f 40 25 23
f 27 35 41
f 29 54 32
f 33 21 45
f 39 22 42
f 40 23 57
f 41 37 40
f 40 37 25
f 41 35 37
f 37 35 31
f 44 45 24
f 49 44 32
f 48 42 19
f 41 43 34
f 40 51 41
f 32 46 49
f 43 51 50
f 43 41 51
f 49 46 50
f 29 30 61
f 44 49 38
f 54 46 32
f 33 47 26
f 36 34 43
f 50 51 49
f 53 39 42
f 46 43 50
f 33 55 47
f 51 56 49
f 40 57 52
f 61 30 39
f 43 46 58
f 40 56 51
f 29 63 54
f 56 38 49
f 48 36 75
f 40 52 56
f 44 76 45
f 64 58 46
f 61 63 29
f 54 64 46
f 53 59 39
f 58 36 43
f 53 42 48
f 38 71 44
f 71 76 44
f 64 54 63
f 59 61 39
f 38 56 60
f 58 64 62
f 52 60 56
f 36 58 62
f 62 75 36
f 69 53 48
f 47 74 57
f 60 71 38
f 57 67 52
f 76 33 45
f 52 67 60
f 74 67 57
f 90 33 76
f 69 48 75
f 53 66 59
f 66 53 69
f 60 65 71
f 72 60 67
f 83 55 33
f 75 62 73
f 33 90 83
f 72 65 60
f 61 85 63
f 80 61 59
f 70 62 64
f 79 70 64
f 67 68 72
f 78 72 68
f 55 74 47
f 79 64 63
f 66 80 59
f 70 72 78
f 68 67 74
f 63 85 79
f 82 71 65
f 82 76 71
f 79 77 70
f 77 72 70
f 65 72 77
f 62 70 78
f 78 73 62
f 74 55 81
f 75 73 69
f 68 93 78
f 80 85 61
f 81 55 83
f 68 74 84
f 77 82 65
f 66 86 80
f 66 69 87
f 79 82 77
f 74 92 84
f 81 92 74
f 84 93 68
f 95 78 93
f 79 85 82
f 91 76 82
f 76 91 90
f 95 73 78
f 85 80 94
f 66 87 86
f 73 88 69
f 85 89 82
f 86 94 80
f 90 97 83
f 81 83 97
f 88 87 69
f 89 91 82
f 88 73 95
f 87 88 98
f 85 94 89
f 91 97 90
f 92 81 97
f 95 93 96
f 84 96 93
f 97 91 100
f 98 86 87
f 88 95 98
f 100 91 89
f 95 99 98
f 96 99 95
f 94 98 89
f 86 98 94
f 92 99 84
f 84 99 96
f 89 98 100
f 92 97 100
f 100 98 99
f 100 99 92
# 200 faces, 0 coords texture

# End of File
