####
#
# OBJ File Generated by Meshlab
#
####
# Object ducky300.obj
#
# Vertices: 150
# Faces: 300
#
####
v -0.9026957 0.1489990 -0.0728633
v -0.8526179 0.1334000 0.1362699
v -0.8742605 0.2193621 0.1047575
v -0.8491405 0.1094868 -0.1316894
v -0.8194973 0.0607005 0.0159363
v -0.8638584 0.2299785 -0.0991358
v -0.6917264 0.1966656 -0.1611267
v -0.6982865 0.3454061 0.0400664
v -0.6909438 0.3277065 -0.0558040
v -0.5773162 0.4294375 0.0671592
v -0.5748140 -0.2431180 -0.2381729
v -0.6782200 0.0439566 0.0593219
v -0.6675311 0.0398605 -0.0677834
v -0.6810769 0.1831087 0.1682340
v -0.5834799 -0.0689712 0.2076737
v -0.6157945 -0.2484851 -0.0459331
v -0.6076790 -0.2342303 0.1401000
v -0.5245529 0.1912670 0.2347305
v -0.6251155 0.0988411 0.1739806
v -0.5917354 0.0851154 -0.1853402
v -0.4489416 0.0606565 0.2041360
v -0.4624493 -0.2734422 0.4114957
v -0.5145519 0.4117585 -0.1367988
v -0.5024128 0.2027837 -0.2428412
v -0.4451136 -0.1931004 -0.4557770
v -0.5705435 -0.0308145 -0.2037975
v -0.4022197 -0.1366402 0.4745035
v -0.2957699 0.0847962 -0.1733874
v -0.3957753 0.0186427 -0.2336160
v -0.3242781 0.2041652 0.2035420
v -0.4299695 -0.4130499 -0.2831914
v -0.3244348 -0.4771993 0.0473139
v -0.4731008 -0.4159048 0.1097094
v -0.3382955 -0.3955432 0.4381426
v -0.5012040 -0.0105823 0.2367472
v -0.3930574 0.3053120 -0.2136927
v -0.4685315 0.4165884 0.1551727
v -0.3273528 -0.4671048 0.2623603
v -0.2942868 0.0742900 0.1655167
v -0.4064878 0.4388331 -0.1206326
v -0.4081664 0.4749923 -0.0055184
v -0.3731895 -0.2674637 -0.5161841
v -0.2783667 -0.0078525 0.2983546
v -0.3356997 0.4001972 0.1490761
v -0.3878149 -0.0852964 -0.4304056
v -0.2867015 0.2095215 -0.1812055
v -0.2458314 0.3775628 -0.0192566
v -0.2250383 0.0105152 -0.2075349
v -0.2970063 0.3933108 -0.1106336
v -0.1810984 -0.1860919 -0.6251031
v -0.1235183 -0.0481258 0.5475456
v -0.2070621 0.2389161 -0.1004839
v -0.1991645 0.2622572 0.0793895
v -0.1818190 0.0721823 0.0280938
v -0.2515492 -0.4741838 -0.3382087
v -0.1613402 -0.4130026 -0.0347154
v -0.1669420 -0.4481627 0.1800563
v -0.0703809 -0.1483222 0.1381910
v -0.1537815 -0.0472842 -0.1491467
v -0.1779302 -0.3895837 -0.5717004
v -0.1812944 -0.2909983 0.6303429
v -0.1883855 -0.0174347 0.2096127
v -0.0866768 -0.2580458 -0.0302782
v -0.0830434 -0.4432498 0.5541164
v -0.0294780 -0.3781127 0.2228082
v -0.0778742 -0.2047489 0.0734794
v -0.0295661 -0.0842339 -0.6407305
v -0.0861988 -0.1203682 -0.1578905
v 0.0285463 -0.4671730 0.4156468
v 0.0806983 -0.3350292 -0.2595138
v -0.0356787 -0.2842357 -0.1545301
v 0.1004453 -0.1027073 -0.2837102
v 0.1567503 -0.4109813 0.6461231
v 0.0682447 -0.2563148 -0.2322834
v 0.1341537 -0.0611149 -0.6370431
v 0.0227293 -0.0683032 0.2982114
v 0.0435959 -0.1959353 0.7060910
v -0.0490071 -0.1000491 0.6466253
v -0.0422686 -0.4400724 -0.3133370
v -0.0057040 -0.4492403 -0.5701715
v 0.0850820 -0.3392464 0.6901484
v 0.1160732 -0.3649060 0.2786558
v -0.1158119 -0.0126326 -0.4614674
v 0.0967868 -0.1754308 0.2472338
v 0.0296527 -0.3056274 -0.7011310
v -0.0598680 -0.0182911 -0.3630510
v 0.1194499 -0.0000898 0.4888165
v 0.2633458 -0.2170803 0.2252479
v 0.2462896 -0.4657413 0.5481221
v 0.2739214 -0.4168414 -0.6288366
v 0.2602628 -0.2277823 -0.7146906
v 0.2923270 -0.1368249 0.6864854
v 0.2730329 -0.0256955 0.3634520
v 0.3803045 -0.1941852 0.1170154
v 0.2954784 -0.3064637 0.6938109
v 0.4782511 -0.0077483 0.3162987
v 0.3453133 -0.4592351 0.3586336
v 0.3050344 -0.3760810 0.2582979
v 0.3062171 -0.2285113 -0.2030592
v 0.2991151 -0.1014286 -0.2674889
v 0.3711159 -0.0172702 -0.3498816
v 0.2767950 -0.4396042 -0.3363496
v 0.3904894 -0.2974547 -0.1200519
v 0.4454082 -0.0940369 -0.0894932
v 0.3024285 -0.0419091 0.5931522
v 0.2637725 -0.4747523 -0.4750740
v 0.3560152 -0.0109224 -0.5245246
v 0.4873542 -0.4142423 0.5558682
v 0.4068452 -0.2946415 -0.0134244
v 0.4994026 -0.1465333 0.6161602
v 0.4513694 -0.0407955 0.2026663
v 0.4663641 -0.3957136 0.0775055
v 0.4534515 -0.4446270 -0.2067349
v 0.5555487 -0.4546367 0.1095414
v 0.4596323 -0.2969735 0.6423120
v 0.3652656 -0.0549559 -0.6028847
v 0.5605505 -0.4685756 0.3760065
v 0.4899983 -0.0157631 0.4519884
v 0.6534361 -0.3115611 0.5055283
v 0.4385387 -0.4340762 -0.5635819
v 0.5799495 0.0016492 -0.1357432
v 0.4670438 -0.2606612 -0.6514511
v 0.6102870 -0.0545218 -0.4375134
v 0.6665935 -0.4723165 0.1767790
v 0.7194819 -0.3936461 0.3508861
v 0.5530562 -0.0016320 0.1639890
v 0.7121831 -0.3025105 -0.4545695
v 0.7341957 -0.0152778 0.1974060
v 0.6009597 -0.4717732 -0.3167520
v 0.6194050 -0.1579372 -0.5428218
v 0.6574108 -0.1111448 0.4725676
v 0.6996003 -0.0070746 -0.1962309
v 0.6660108 -0.4229656 -0.3741024
v 0.6978268 0.0642376 0.0534181
v 0.7071577 0.0731634 -0.0653945
v 0.8136647 -0.3940646 0.0844123
v 0.7560133 -0.4393422 -0.0995801
v 0.8411562 -0.3415728 -0.1593977
v 0.8171325 -0.0712514 0.2042535
v 0.8285843 -0.2083638 0.2807335
v 0.7937271 0.2298219 0.0029559
v 0.7924774 -0.0458372 -0.1983904
v 0.8804176 0.1051963 -0.0654932
v 0.8771691 -0.3044634 0.0588378
v 0.8369232 -0.2353361 -0.2699223
v 0.8153716 -0.3210787 0.2650657
v 0.8561842 -0.0872795 -0.1586967
v 0.8864527 0.1413947 0.0296493
v 0.8894075 -0.2138338 0.1166552
v 0.8982620 -0.2242148 -0.0731791
# 150 vertices, 0 vertices normals

f 3 1 2
f 6 1 3
f 1 4 5
f 2 1 5
f 4 1 6
f 5 19 2
f 3 8 6
f 20 4 7
f 4 6 7
f 3 14 8
f 12 19 5
f 8 9 6
f 14 3 2
f 7 6 9
f 13 4 20
f 19 14 2
f 4 13 5
f 12 5 13
f 18 14 19
f 13 16 17
f 13 11 16
f 12 13 17
f 12 17 15
f 7 24 20
f 9 8 10
f 13 26 11
f 24 7 23
f 9 23 7
f 26 13 20
f 15 19 12
f 10 8 14
f 10 14 18
f 15 35 19
f 37 10 18
f 23 9 10
f 26 25 11
f 22 15 17
f 11 31 16
f 16 31 33
f 16 33 17
f 21 18 19
f 41 23 10
f 21 19 35
f 24 23 36
f 41 10 37
f 17 33 22
f 27 35 15
f 41 40 23
f 42 31 11
f 42 11 25
f 22 27 15
f 26 45 25
f 26 20 29
f 20 28 29
f 28 20 24
f 36 23 40
f 33 34 22
f 30 18 21
f 31 32 33
f 29 45 26
f 44 18 30
f 37 18 44
f 41 37 44
f 38 33 32
f 34 33 38
f 51 35 27
f 21 35 43
f 39 30 21
f 55 32 31
f 83 45 29
f 24 46 28
f 36 46 24
f 40 49 36
f 61 27 22
f 51 43 35
f 40 41 49
f 31 42 60
f 61 22 34
f 45 50 25
f 48 83 29
f 51 27 78
f 28 48 29
f 41 47 49
f 41 44 47
f 55 31 60
f 45 83 67
f 62 39 21
f 21 43 62
f 30 53 44
f 50 42 25
f 78 27 61
f 46 52 28
f 39 54 30
f 52 46 36
f 49 52 36
f 44 53 47
f 56 32 55
f 30 54 53
f 47 52 49
f 32 56 57
f 38 64 34
f 86 83 48
f 54 39 62
f 28 52 54
f 48 28 54
f 54 52 53
f 52 47 53
f 80 55 60
f 64 61 34
f 59 48 54
f 57 69 32
f 42 50 85
f 77 78 61
f 50 45 67
f 86 48 59
f 59 54 62
f 87 62 43
f 57 65 69
f 85 60 42
f 68 59 66
f 66 62 58
f 66 59 62
f 68 86 59
f 51 87 43
f 55 79 56
f 63 57 56
f 66 63 68
f 69 38 32
f 63 65 57
f 79 71 56
f 71 63 56
f 63 66 65
f 62 76 58
f 76 62 87
f 70 71 79
f 71 68 63
f 67 85 50
f 106 55 80
f 69 64 38
f 61 81 77
f 66 58 65
f 85 80 60
f 64 73 81
f 61 64 81
f 71 70 74
f 83 75 67
f 69 89 64
f 58 82 65
f 76 84 58
f 86 68 72
f 71 74 68
f 68 74 72
f 106 79 55
f 73 64 89
f 58 84 82
f 82 69 65
f 51 78 87
f 107 75 83
f 85 90 80
f 79 102 70
f 106 102 79
f 67 91 85
f 67 75 91
f 92 105 78
f 105 87 78
f 93 76 87
f 86 107 83
f 84 88 82
f 70 72 74
f 95 77 81
f 92 77 95
f 78 77 92
f 93 84 76
f 99 70 102
f 91 90 85
f 73 95 81
f 82 88 98
f 72 70 99
f 86 72 101
f 90 120 80
f 80 120 106
f 117 89 69
f 82 97 69
f 97 117 69
f 99 100 72
f 75 116 91
f 88 84 93
f 100 101 72
f 101 107 86
f 108 95 73
f 87 96 93
f 82 98 97
f 89 108 73
f 102 103 99
f 94 98 88
f 111 88 93
f 107 116 75
f 105 118 87
f 91 122 90
f 115 92 95
f 91 116 122
f 105 92 110
f 103 102 113
f 94 112 98
f 94 88 111
f 118 96 87
f 106 113 102
f 122 120 90
f 103 109 99
f 97 98 114
f 109 112 94
f 110 92 115
f 116 130 122
f 104 99 109
f 104 100 99
f 121 100 104
f 101 100 121
f 111 93 96
f 120 129 106
f 117 108 89
f 114 98 112
f 95 108 115
f 109 103 113
f 94 104 109
f 106 129 113
f 110 118 105
f 114 124 97
f 124 117 97
f 104 94 126
f 126 94 111
f 101 132 107
f 109 113 112
f 118 110 131
f 116 123 130
f 116 107 123
f 121 104 135
f 113 114 112
f 108 119 115
f 135 104 126
f 111 96 126
f 132 101 121
f 113 129 114
f 129 120 133
f 120 127 133
f 110 115 119
f 130 127 122
f 122 127 120
f 134 135 126
f 118 126 96
f 114 129 124
f 126 118 128
f 131 110 119
f 131 128 118
f 117 125 108
f 125 119 108
f 132 123 107
f 139 128 131
f 132 142 123
f 128 134 126
f 124 125 117
f 137 124 129
f 133 137 129
f 146 119 125
f 119 140 131
f 145 127 130
f 147 130 123
f 142 147 123
f 135 132 121
f 133 138 137
f 133 127 138
f 141 135 134
f 137 136 124
f 124 136 125
f 125 136 146
f 140 119 146
f 139 131 140
f 142 132 135
f 142 135 141
f 141 134 128
f 139 141 128
f 137 138 136
f 138 127 145
f 130 147 145
f 136 138 144
f 146 136 144
f 141 143 142
f 143 141 148
f 146 149 140
f 147 142 143
f 139 148 141
f 144 138 150
f 145 150 138
f 144 149 146
f 145 147 150
f 149 139 140
f 149 148 139
f 150 149 144
f 143 149 150
f 147 143 150
f 143 148 149
# 300 faces, 0 coords texture

# End of File
