####
#
# OBJ File Generated by Meshlab
#
####
# Object bob400.obj
#
# Vertices: 200
# Faces: 400
#
####
v -0.9074157 0.1450353 -0.0403572
v -0.8331092 0.0707568 -0.0539013
v -0.8352889 0.1094977 -0.1303984
v -0.8783166 0.2122406 -0.1134101
v -0.8668159 0.2406237 0.0566047
v -0.8642498 0.1686189 0.1414719
v -0.8304164 0.0803936 0.0799690
v -0.6927813 0.2160984 0.1528183
v -0.6889915 0.0815488 0.1319215
v -0.6710879 0.0356754 -0.0359291
v -0.6781310 0.2040763 -0.1627356
v -0.6819702 0.1120493 -0.1650418
v -0.7034634 0.3394925 -0.0329691
v -0.6439702 0.0015990 0.0907721
v -0.5817106 0.0310092 0.1709792
v -0.6278627 -0.2228300 -0.0098067
v -0.6322028 0.0132867 -0.1133456
v -0.5626194 0.1034195 -0.2082618
v -0.5915047 0.0284313 -0.1618143
v -0.6662747 0.1166362 0.1771680
v -0.5747710 -0.2889574 -0.1514236
v -0.5826049 -0.1679963 -0.2296136
v -0.5263469 -0.3659043 0.0914591
v -0.6110165 -0.2066581 0.1398023
v -0.5816749 -0.1521783 0.2282765
v -0.5413267 0.4625414 -0.0246725
v -0.6847560 0.3479451 0.0391053
v -0.5355749 -0.1684777 -0.3179461
v -0.5892854 -0.0362406 0.1823047
v -0.4236361 0.1944498 0.2329179
v -0.5347564 -0.2598575 0.2933936
v -0.5235628 -0.0050867 -0.2214800
v -0.4929301 0.0646140 0.2049039
v -0.4852322 0.2197848 -0.2411440
v -0.4940050 0.4130505 0.1430299
v -0.4837264 0.4358782 -0.1309454
v -0.4017932 -0.4061748 0.3278038
v -0.4896890 -0.2903724 -0.3463598
v -0.4365684 -0.1606215 -0.4457661
v -0.3545063 -0.4576088 0.2553506
v -0.4760641 -0.1479267 0.3991794
v -0.5094275 0.2358952 0.2311117
v -0.4260908 -0.4460013 -0.1199681
v -0.4017026 -0.0812311 -0.4161815
v -0.3961910 -0.4359590 -0.2506666
v -0.3675297 -0.3137470 0.4976243
v -0.3948385 0.3863304 -0.1748210
v -0.3617624 -0.2606511 -0.5193809
v -0.4656935 -0.0331503 0.2968415
v -0.3311707 0.0093226 0.2465628
v -0.3445370 -0.4730980 0.0416570
v -0.3927735 -0.3510504 -0.4238207
v -0.3892552 0.0038825 -0.2609271
v -0.3703286 0.0793982 0.1917543
v -0.3012893 -0.1476896 0.5422931
v -0.1348792 -0.0857545 -0.5882273
v -0.3004718 0.2496817 -0.1910807
v -0.4066480 -0.2653399 0.4766019
v -0.3666303 0.3446840 0.1858213
v -0.1754135 -0.4738030 -0.3814807
v -0.2171595 -0.4300157 -0.5004540
v -0.2998549 0.3833932 0.1267504
v -0.2552675 0.3781469 -0.0765346
v -0.3286027 0.4516693 0.0376838
v -0.2469645 -0.4589983 0.0210632
v -0.1334543 -0.2577696 0.6547610
v -0.2352065 0.0131396 -0.1993930
v -0.2234106 0.0247802 0.1652130
v -0.1523926 -0.4460115 0.5164224
v -0.3260308 0.0914876 -0.1808995
v -0.2645921 0.2244967 0.1630120
v -0.2141311 0.2777412 -0.1038106
v -0.2132467 0.2920979 0.0759502
v -0.1745080 -0.4294960 -0.1010853
v -0.2058388 0.1058864 -0.0842334
v -0.1297077 -0.0295002 -0.2831685
v -0.2323586 0.0837718 0.1190721
v -0.1942460 0.0876844 0.0336077
v -0.1965964 0.2182736 0.0778106
v -0.0567048 -0.4570391 0.3392041
v -0.0840602 -0.3585078 -0.6453068
v -0.1671139 -0.0261044 0.1100419
v -0.1915941 -0.0119331 0.3694916
v -0.1794427 0.0153719 -0.0777685
v -0.0115737 -0.3757779 0.6538745
v -0.1113034 -0.1634773 -0.6536563
v -0.1182572 -0.0863292 -0.1403390
v -0.1904499 -0.4570466 0.1695380
v -0.0794140 -0.4502174 0.5311930
v -0.1030114 -0.3508800 -0.0892246
v -0.1113924 -0.0501796 0.5620131
v -0.1773008 -0.0206019 0.2712916
v -0.2193708 -0.0079345 -0.3736703
v -0.1513096 -0.4078861 0.0851163
v -0.0876474 -0.2818538 0.0433575
v -0.0782595 -0.2027516 -0.0690356
v -0.0445816 -0.3506170 0.1799457
v -0.0925771 -0.1515632 0.0957418
v -0.0185323 -0.1460648 -0.1981512
v -0.0993497 -0.0777535 0.1913922
v 0.0637785 -0.1080145 0.2668840
v 0.1114888 -0.2600957 -0.7162239
v 0.0582159 -0.1015088 -0.2725250
v -0.0236809 -0.3380699 -0.1953771
v 0.1322422 -0.0037288 0.5277504
v -0.0566186 -0.4727693 0.4447229
v -0.0575619 -0.4500685 -0.3174661
v -0.0355961 -0.1964412 0.6841630
v 0.1515834 -0.1130569 0.6843414
v -0.0224842 -0.0217966 0.5465191
v 0.0481161 -0.0158177 -0.5608729
v 0.0531720 -0.2629157 0.2288136
v 0.0426365 -0.0142570 0.4007420
v 0.0625103 -0.2461437 -0.2302683
v 0.0489916 -0.4132398 0.3035280
v 0.2313028 -0.3527959 -0.6889884
v 0.1609435 -0.2503639 0.7173069
v 0.1357783 -0.3826885 -0.2961236
v 0.1736130 -0.2266258 -0.2467332
v 0.1825967 -0.1321498 -0.6924149
v 0.2249664 -0.0923180 -0.2940570
v 0.2034480 -0.4531661 0.5927008
v 0.2372847 -0.4172936 0.3242500
v 0.2114019 -0.4452740 -0.5939386
v 0.1710618 -0.0279243 0.5875837
v 0.2446619 -0.2922762 0.7037157
v 0.3104902 -0.2522728 -0.2043864
v 0.2417069 -0.3021672 0.2472636
v 0.0088277 -0.4681204 -0.5245528
v 0.3884772 -0.1331617 -0.1638612
v 0.3907072 -0.4633063 -0.5089100
v 0.2113460 -0.4625492 -0.4236318
v 0.2809111 -0.3960693 -0.2807260
v 0.3756142 -0.3616555 0.1948105
v 0.2713932 -0.1612535 0.2354780
v 0.4443016 -0.0063391 0.4299238
v 0.3807099 -0.2110738 -0.6804512
v 0.3006485 -0.0577151 0.3108175
v 0.4423954 -0.0595870 0.1657809
v 0.3906178 -0.0478031 0.5714377
v 0.2730758 -0.0299402 -0.5775349
v 0.3544775 -0.2338417 0.1487700
v 0.3800345 -0.2443078 -0.0999076
v 0.4351536 -0.1214049 0.0510252
v 0.2855724 -0.0319303 -0.3606593
v 0.2788208 -0.4707097 0.4325522
v 0.4007834 -0.2977566 0.0694049
v 0.4073968 -0.2702924 -0.0445301
v 0.4465152 -0.0950107 -0.6078903
v 0.4791071 -0.4557013 0.2393269
v 0.4057365 -0.3792218 -0.1645637
v 0.3794475 -0.1583093 0.6684210
v 0.4447111 -0.0310998 -0.2430417
v 0.3700797 -0.0110697 0.3849744
v 0.2553832 -0.0069600 -0.4617496
v 0.4034639 -0.4612723 0.5166841
v 0.4745921 -0.4223024 0.1365749
v 0.5110499 -0.0355415 -0.0997111
v 0.5103541 -0.4505093 -0.1705222
v 0.4694264 -0.4010333 -0.0436731
v 0.4649098 -0.3902813 -0.5873890
v 0.5297044 -0.2520339 -0.6147141
v 0.6192161 -0.0508797 0.4282884
v 0.5793521 -0.4734540 0.2777260
v 0.4235556 -0.3706983 0.6251533
v 0.4855936 -0.2718834 0.6363759
v 0.5455060 -0.1257420 0.5714383
v 0.6006824 -0.0024569 -0.2022700
v 0.6250060 -0.0017917 0.2183599
v 0.5935913 -0.4737284 -0.2609744
v 0.5648098 -0.4337912 -0.4611642
v 0.6287216 -0.2908533 -0.5370839
v 0.6678229 -0.1047382 -0.4511175
v 0.4984713 -0.0183022 -0.4525370
v 0.7222162 -0.0127103 -0.2041936
v 0.5623553 -0.0030324 0.1350062
v 0.7052818 -0.4667723 -0.0009991
v 0.6458983 -0.3617664 0.4869293
v 0.6799406 -0.4442960 0.2967666
v 0.7690305 -0.3646573 -0.3206494
v 0.7593079 -0.3959225 0.2703749
v 0.7959725 -0.0519852 0.2120895
v 0.7254679 0.0626430 0.0913604
v 0.6994432 0.0672863 -0.0278063
v 0.7747956 -0.0116268 0.1794594
v 0.7286043 -0.4322067 -0.2443063
v 0.7716819 0.0709734 -0.1133911
v 0.7910317 0.2261127 -0.0039806
v 0.7598932 -0.2575358 -0.3943043
v 0.7892610 -0.4241883 0.0285562
v 0.8331376 -0.2513923 0.2803242
v 0.7273934 -0.1990718 0.4362551
v 0.8557262 -0.0866503 -0.1663825
v 0.8566923 -0.0670247 0.1531081
v 0.8377210 -0.3725736 -0.0397017
v 0.8781795 -0.2248982 -0.1754958
v 0.8726120 0.0977931 -0.0780385
v 0.8440413 0.1931820 0.0345513
v 0.8993573 -0.2597573 0.0677667
v 0.8906492 0.1057398 0.0379552
# 200 vertices, 0 vertices normals

f 4 1 5
f 5 1 6
f 1 3 2
f 6 1 7
f 3 1 4
f 1 2 7
f 7 20 6
f 27 5 6
f 13 4 5
f 27 13 5
f 12 3 4
f 6 8 27
f 2 3 10
f 2 10 7
f 10 9 7
f 9 20 7
f 4 11 12
f 13 11 4
f 10 3 12
f 8 6 20
f 10 14 9
f 15 9 14
f 10 12 17
f 11 18 12
f 18 11 34
f 24 14 16
f 10 17 16
f 10 16 14
f 19 17 12
f 42 8 20
f 27 26 13
f 16 17 22
f 29 24 25
f 14 24 29
f 20 9 15
f 18 19 12
f 22 21 16
f 19 22 17
f 14 29 15
f 16 23 24
f 23 16 21
f 23 31 24
f 24 31 25
f 22 32 28
f 22 19 32
f 19 18 32
f 20 15 33
f 34 11 36
f 42 35 8
f 36 11 13
f 13 26 36
f 8 35 27
f 22 38 21
f 28 38 22
f 25 31 41
f 25 41 29
f 30 42 20
f 20 33 30
f 39 28 32
f 34 36 47
f 35 26 27
f 43 23 21
f 43 21 38
f 31 23 37
f 31 58 41
f 29 49 15
f 38 45 43
f 37 58 31
f 38 48 52
f 48 38 39
f 28 39 38
f 32 44 39
f 53 44 32
f 49 33 15
f 18 70 32
f 30 33 54
f 42 59 35
f 37 23 40
f 37 46 58
f 41 49 29
f 49 50 33
f 34 70 18
f 35 64 26
f 64 36 26
f 43 40 23
f 49 41 55
f 53 32 70
f 47 57 34
f 42 30 59
f 38 52 45
f 41 58 55
f 59 62 35
f 35 62 64
f 64 47 36
f 51 40 43
f 67 53 70
f 33 50 54
f 45 52 61
f 57 70 34
f 45 51 43
f 39 86 48
f 93 44 53
f 71 59 30
f 64 63 47
f 60 45 61
f 60 51 45
f 37 69 46
f 61 52 48
f 39 44 56
f 68 54 50
f 77 30 54
f 86 39 56
f 67 93 53
f 54 68 77
f 71 30 77
f 47 72 57
f 51 65 88
f 40 69 37
f 46 55 58
f 57 75 70
f 59 71 62
f 63 72 47
f 48 81 61
f 46 66 55
f 83 50 49
f 91 83 49
f 73 64 62
f 60 65 51
f 88 106 51
f 106 40 51
f 79 71 77
f 73 62 71
f 63 64 73
f 60 74 65
f 65 74 94
f 91 49 55
f 76 93 67
f 92 68 50
f 75 84 70
f 57 72 75
f 73 71 79
f 73 72 63
f 60 107 74
f 66 46 85
f 81 48 86
f 110 83 91
f 84 67 70
f 92 50 83
f 82 78 68
f 78 77 68
f 84 75 78
f 75 79 78
f 78 79 77
f 75 72 79
f 79 72 73
f 80 106 88
f 106 69 40
f 94 88 65
f 85 46 69
f 93 56 44
f 84 87 67
f 92 82 68
f 84 78 82
f 82 98 84
f 82 92 100
f 74 90 94
f 87 98 96
f 87 84 98
f 105 83 110
f 94 90 95
f 98 82 100
f 113 92 83
f 60 61 129
f 88 97 80
f 89 85 69
f 107 104 74
f 90 74 104
f 97 88 94
f 95 90 96
f 96 98 95
f 108 55 66
f 108 91 55
f 99 67 87
f 76 67 99
f 105 113 83
f 97 94 95
f 95 98 97
f 99 87 96
f 93 111 56
f 113 100 92
f 106 89 69
f 96 90 104
f 102 81 86
f 104 99 96
f 108 109 91
f 103 76 99
f 80 97 115
f 98 112 97
f 91 109 110
f 100 113 101
f 129 61 81
f 99 104 114
f 100 112 98
f 60 132 107
f 112 115 97
f 117 66 85
f 108 66 117
f 86 56 111
f 103 155 76
f 93 76 155
f 89 122 85
f 100 101 112
f 106 122 89
f 118 114 104
f 86 120 102
f 110 109 125
f 129 132 60
f 115 146 80
f 107 118 104
f 102 116 81
f 114 103 99
f 109 108 117
f 155 111 93
f 129 81 124
f 120 86 111
f 80 146 106
f 146 122 106
f 118 107 132
f 116 124 81
f 115 112 123
f 121 145 155
f 155 103 121
f 125 105 110
f 114 118 119
f 101 128 112
f 103 114 119
f 119 121 103
f 141 120 111
f 105 154 113
f 123 146 115
f 113 138 101
f 122 126 85
f 126 117 85
f 101 135 128
f 138 135 101
f 154 138 113
f 112 128 123
f 118 133 119
f 127 121 119
f 124 131 129
f 165 126 122
f 134 123 128
f 141 111 155
f 156 165 122
f 102 137 116
f 127 119 133
f 120 137 102
f 127 130 121
f 149 120 141
f 125 109 140
f 123 150 146
f 142 128 135
f 152 117 126
f 152 109 117
f 120 149 137
f 121 130 153
f 136 154 105
f 131 132 129
f 132 133 118
f 126 165 166
f 142 134 128
f 140 109 152
f 145 121 153
f 131 170 132
f 161 124 116
f 124 161 131
f 134 150 123
f 143 127 133
f 152 126 166
f 138 142 135
f 141 155 174
f 105 125 140
f 151 143 133
f 127 143 130
f 138 139 142
f 134 157 150
f 142 147 134
f 144 147 142
f 144 142 139
f 140 136 105
f 146 156 122
f 159 133 132
f 159 151 133
f 162 161 116
f 137 162 116
f 143 148 144
f 144 148 147
f 139 138 154
f 153 155 145
f 132 170 159
f 164 146 150
f 164 156 146
f 151 160 143
f 160 148 143
f 147 148 160
f 152 167 140
f 141 174 149
f 134 147 157
f 162 137 149
f 166 167 152
f 130 143 144
f 158 153 130
f 136 140 163
f 155 168 174
f 160 157 147
f 158 130 144
f 159 160 151
f 178 165 156
f 158 144 176
f 139 176 144
f 168 155 153
f 171 170 131
f 161 171 131
f 163 140 167
f 139 154 169
f 136 169 154
f 157 164 150
f 162 172 161
f 165 178 166
f 149 174 173
f 159 164 160
f 160 164 157
f 136 182 169
f 163 182 136
f 169 176 139
f 161 172 171
f 168 153 158
f 184 158 176
f 159 170 164
f 179 156 164
f 156 179 178
f 149 173 162
f 184 168 158
f 170 171 186
f 166 192 167
f 162 173 172
f 168 175 174
f 183 184 176
f 170 177 164
f 171 180 186
f 172 180 171
f 178 192 166
f 163 167 192
f 175 173 174
f 187 168 184
f 177 179 164
f 181 178 179
f 172 189 180
f 189 172 173
f 175 168 187
f 183 176 169
f 173 175 193
f 182 185 169
f 185 183 169
f 179 177 190
f 170 186 177
f 181 191 178
f 182 163 192
f 184 183 188
f 179 190 181
f 192 178 191
f 184 188 187
f 177 186 195
f 177 195 190
f 186 180 195
f 185 198 183
f 198 188 183
f 191 181 199
f 196 189 173
f 194 185 182
f 175 187 193
f 199 181 190
f 193 196 173
f 194 182 192
f 187 197 193
f 188 197 187
f 190 195 199
f 180 196 195
f 189 196 180
f 191 194 192
f 194 200 185
f 185 200 198
f 188 198 197
f 195 196 199
f 194 191 199
f 197 198 200
f 199 196 200
f 199 200 194
f 196 193 200
f 197 200 193
# 400 faces, 0 coords texture

# End of File
