####
#
# OBJ File Generated by Meshlab
#
####
# Object ducky_500.obj
#
# Vertices: 250
# Faces: 500
#
####
vn -0.9838141 -0.1006721 0.1482402
v -0.9014556 0.1558847 0.0396226
vn -0.9264811 -0.1484829 -0.3458116
v -0.8951474 0.1712935 -0.0772811
vn -0.7873012 -0.6161647 -0.0223136
v -0.8753627 0.1011450 -0.0049847
vn -0.5318654 -0.8251907 -0.1902095
v -0.8331092 0.0707568 -0.0539013
vn -0.4644566 -0.5730225 -0.6752225
v -0.8352889 0.1094977 -0.1303984
vn -0.4010044 0.4280829 0.8099016
v -0.8459176 0.1942975 0.1355149
vn -0.4513687 0.3150859 -0.8348576
v -0.8471290 0.2010913 -0.1313139
vn -0.7305666 0.6232361 0.2790150
v -0.8668159 0.2406237 0.0566047
vn -0.7059664 0.6498029 -0.2817228
v -0.8690195 0.2393419 -0.0606849
vn -0.7356286 -0.1803637 0.6529315
v -0.8657548 0.1432169 0.1296733
vn -0.4417792 -0.8280203 0.3452729
v -0.8304164 0.0803936 0.0799690
vn -0.3766696 0.4537722 0.8075957
v -0.6927813 0.2160984 0.1528183
vn -0.4792470 -0.7260740 0.4930913
v -0.6889915 0.0815488 0.1319215
vn -0.4349116 0.7662399 0.4729994
v -0.7014514 0.3291854 0.0443001
vn -0.5293125 0.8378223 -0.1337242
v -0.7011833 0.3433376 -0.0198244
vn -0.6199517 -0.7684410 -0.1586138
v -0.6710879 0.0356754 -0.0359291
vn -0.3714408 0.2978247 -0.8793931
v -0.6781310 0.2040763 -0.1627356
vn -0.4235407 -0.3756807 -0.8243041
v -0.6819702 0.1120493 -0.1650418
vn -0.4100062 0.6576785 -0.6319446
v -0.6750547 0.3049578 -0.0888011
vn -0.9041765 -0.2199096 0.3662032
v -0.6439702 0.0015990 0.0907721
vn -0.5512505 -0.1362463 0.8231403
v -0.5817106 0.0310092 0.1709792
vn -0.9570254 -0.2819188 -0.0680012
v -0.6278627 -0.2228300 -0.0098067
vn -0.8515261 -0.2700954 -0.4493905
v -0.6322028 0.0132867 -0.1133456
vn -0.2840396 -0.1400709 -0.9485261
v -0.5976008 0.1454877 -0.2089462
vn -0.5407451 -0.1095855 -0.8340179
v -0.5915047 0.0284313 -0.1618143
vn -0.2780771 -0.2735856 0.9207736
v -0.6662747 0.1166362 0.1771680
vn -0.8355430 -0.5065569 -0.2127629
v -0.5747710 -0.2889574 -0.1514236
vn -0.8797473 -0.0178012 -0.4751084
v -0.5826049 -0.1679963 -0.2296136
vn -0.7286898 -0.6766888 0.1053730
v -0.5263469 -0.3659043 0.0914591
vn -0.9309736 -0.2173175 0.2933621
v -0.6110165 -0.2066581 0.1398023
vn -0.8996345 -0.0016794 0.4366407
v -0.5816749 -0.1521783 0.2282765
vn -0.4769442 0.8082282 -0.3453860
v -0.5546830 0.4348902 -0.0618522
vn -0.5311697 0.7872763 0.3131372
v -0.5635898 0.4307978 0.0579054
vn -0.2490448 0.9614425 0.1166407
v -0.5128299 0.4650190 0.0218597
vn -0.8380156 0.0878196 -0.5385329
v -0.5355749 -0.1684777 -0.3179461
vn -0.7540548 0.3067295 0.5807912
v -0.5892854 -0.0362406 0.1823047
vn 0.1769788 -0.0765341 0.9812345
v -0.4236361 0.1944498 0.2329179
vn -0.8369952 -0.3387208 0.4297758
v -0.5347564 -0.2598575 0.2933936
vn -0.5000974 0.4744010 -0.7244627
v -0.5235628 -0.0050867 -0.2214800
vn -0.1329484 -0.0773294 -0.9881017
v -0.4996978 0.0745729 -0.2060996
vn -0.1284110 0.1746211 0.9762265
v -0.4929301 0.0646140 0.2049039
vn -0.2569375 0.2158741 -0.9420093
v -0.5467785 0.2140635 -0.2213129
vn -0.1600506 0.7258816 0.6689392
v -0.4940050 0.4130505 0.1430299
vn -0.2922633 0.5966504 -0.7473892
v -0.4990199 0.3767993 -0.1666739
vn -0.6341763 -0.6767763 0.3738908
v -0.4017932 -0.4061748 0.3278038
vn -0.7876241 -0.4067213 -0.4628456
v -0.4896890 -0.2903724 -0.3463598
vn -0.6649762 0.2574078 -0.7011048
v -0.4365684 -0.1606215 -0.4457661
vn 0.0366308 0.3800208 -0.9242523
v -0.4443745 0.3323801 -0.2006548
vn -0.0096471 0.9393321 -0.3428735
v -0.4615788 0.4583002 -0.0769031
vn -0.6508102 -0.7415560 -0.1629135
v -0.4502438 -0.4185793 -0.1612296
vn -0.3532976 -0.9220269 0.1582633
v -0.3545063 -0.4576088 0.2553506
vn -0.7436725 0.2260474 0.6291691
v -0.4760641 -0.1479267 0.3991794
vn -0.1877403 0.2143936 0.9585348
v -0.5094275 0.2358952 0.2311117
vn -0.3917682 -0.9199255 -0.0159605
v -0.4074096 -0.4572626 -0.0201104
vn -0.3487065 0.7914924 0.5019399
v -0.3885002 -0.0496403 0.3792138
vn -0.3841996 0.7355726 -0.5579637
v -0.4017026 -0.0812311 -0.4161815
vn 0.3095968 0.2720902 -0.9111074
v -0.3492725 0.0933574 -0.1874045
vn -0.4625239 -0.8597188 -0.2166918
v -0.3961910 -0.4359590 -0.2506666
vn -0.5684100 -0.4010576 0.7183752
v -0.3675297 -0.3137470 0.4976243
vn 0.0711229 -0.0359219 -0.9968205
v -0.4363628 0.1965473 -0.2330541
vn 0.3256052 0.6651611 -0.6719687
v -0.3556464 0.4031262 -0.1423107
vn -0.6185502 -0.2532060 -0.7438295
v -0.3617624 -0.2606511 -0.5193809
vn -0.2945530 0.6419537 0.7079082
v -0.4285062 -0.0077803 0.2675041
vn 0.0764997 0.8743979 0.4791411
v -0.3311707 0.0093226 0.2465628
vn 0.1610671 0.9549165 0.2493829
v -0.3933910 0.4625827 0.0528353
vn -0.0147452 -0.9998913 0.0002011
v -0.3304169 -0.4717404 0.1265237
vn -0.6040959 -0.6208204 -0.4996501
v -0.3927735 -0.3510504 -0.4238207
vn -0.0687906 0.8753065 -0.4786507
v -0.3892552 0.0038825 -0.2609271
vn 0.3005382 0.3475460 0.8881940
v -0.3703286 0.0793982 0.1917543
vn -0.5464861 0.2607890 0.7958279
v -0.3394217 -0.1554305 0.5200472
vn -0.4112065 0.4741157 0.7785394
v -0.2222152 -0.1286214 0.5752620
vn -0.3522524 0.6437650 -0.6793268
v -0.1348792 -0.0857545 -0.5882273
vn 0.4736476 0.1188179 -0.8726628
v -0.3004718 0.2496817 -0.1910807
vn -0.0728539 -0.9969150 -0.0292019
v -0.2804097 -0.4729599 -0.1866688
vn -0.7318149 -0.2157513 0.6464507
v -0.4066480 -0.2653399 0.4766019
vn 0.2349680 0.3950615 0.8880971
v -0.3666303 0.3446840 0.1858213
vn 0.0249382 -0.9996864 0.0022761
v -0.2227063 -0.4737742 -0.3117135
vn -0.3714385 -0.7395908 -0.5612833
v -0.1952181 -0.4114138 -0.5361181
vn 0.2589509 0.8364007 -0.4830925
v -0.2715042 0.0208007 -0.2036256
vn 0.4965711 0.6346071 0.5921917
v -0.2998549 0.3833932 0.1267504
vn 0.7495944 0.6038976 -0.2709535
v -0.2552675 0.3781469 -0.0765346
vn 0.5301130 0.8476470 -0.0217930
v -0.3042070 0.4364539 0.0040709
vn 0.3237208 -0.9461419 -0.0045103
v -0.2469645 -0.4589983 0.0210632
vn -0.3812080 -0.1039726 0.9186240
v -0.1334543 -0.2577696 0.6547610
vn 0.4946715 0.8659518 -0.0736720
v -0.2003324 -0.0044812 -0.2249172
vn 0.5671347 0.6928682 0.4452997
v -0.2234106 0.0247802 0.1652130
vn -0.2999947 -0.8548411 0.4233791
v -0.1523926 -0.4460115 0.5164224
vn 0.5002843 0.6351917 -0.5884277
v -0.2618978 0.0513309 -0.1622806
vn 0.6199985 0.1280708 0.7740800
v -0.2645921 0.2244967 0.1630120
vn 0.8714030 0.2666251 -0.4117864
v -0.2141311 0.2777412 -0.1038106
vn 0.8765479 0.3996982 0.2681514
v -0.2132467 0.2920979 0.0759502
vn 0.5406324 -0.8194037 0.1905106
v -0.1745080 -0.4294960 -0.1010853
vn 0.8642773 0.1306253 -0.4857591
v -0.2058388 0.1058864 -0.0842334
vn -0.3467803 -0.8840600 -0.3133392
v -0.2818066 -0.4458071 -0.3932211
vn 0.3025919 0.8760673 0.3754252
v -0.1297077 -0.0295002 -0.2831685
vn 0.6902937 0.1141032 0.7144753
v -0.2323586 0.0837718 0.1190721
vn 0.9566643 0.2294892 0.1792436
v -0.1942460 0.0876844 0.0336077
vn 0.9649453 0.0641883 0.2544810
v -0.1965964 0.2182736 0.0778106
vn 0.2143733 -0.8966935 -0.3872790
v -0.0567048 -0.4570391 0.3392041
vn -0.3402581 -0.3432628 -0.8754399
v -0.1118363 -0.3299991 -0.6452006
vn -0.4290119 0.1830551 -0.8845562
v -0.1782255 -0.1976216 -0.6290380
vn 0.8244969 0.5654327 0.0221541
v -0.1671139 -0.0261044 0.1100419
vn -0.0628999 0.9911883 0.1165739
v -0.1915941 -0.0119331 0.3694916
vn 0.8712391 0.4668685 -0.1515791
v -0.1794427 0.0153719 -0.0777685
vn -0.2750949 -0.6456063 0.7124011
v -0.0819016 -0.3922467 0.6133236
vn -0.2150058 0.4463384 -0.8686510
v -0.0442716 -0.1373557 -0.6601616
vn 0.8073336 0.5778008 0.1198281
v -0.1182572 -0.0863292 -0.1403390
vn 0.3707138 -0.9081220 -0.1946426
v -0.1904499 -0.4570466 0.1695380
vn -0.1084894 -0.9060171 0.4091004
v -0.0794140 -0.4502174 0.5311930
vn 0.8658360 -0.4486230 0.2215074
v -0.1030114 -0.3508800 -0.0892246
vn -0.2712549 0.7570641 0.5943693
v -0.1113924 -0.0501796 0.5620131
vn 0.3273151 0.9443331 -0.0331643
v -0.1773008 -0.0206019 0.2712916
vn -0.1647571 0.9324542 -0.3215342
v -0.1586547 -0.0165948 -0.4445240
vn 0.6889366 -0.7136441 -0.1268007
v -0.1513096 -0.4078861 0.0851163
vn 0.9716515 -0.2049539 -0.1178446
v -0.0876474 -0.2818538 0.0433575
vn 0.9554545 0.0867249 0.2821092
v -0.0782595 -0.2027516 -0.0690356
vn 0.6532473 -0.4781866 -0.5870312
v -0.0445816 -0.3506170 0.1799457
vn 0.9241130 0.3203504 -0.2083047
v -0.0925771 -0.1515632 0.0957418
vn 0.6221366 0.4859467 0.6138420
v -0.0185323 -0.1460648 -0.1981512
vn 0.5494668 0.6710088 -0.4978288
v -0.0993497 -0.0777535 0.1913922
vn 0.2157778 0.6960999 -0.6847517
v 0.0534931 -0.0783611 0.2962893
vn -0.0328682 0.9847387 -0.1709075
v 0.0774150 -0.0081074 -0.5263785
vn -0.1669963 -0.0197023 -0.9857607
v 0.0546639 -0.2371876 -0.7062314
vn 0.2362083 0.5565840 0.7965048
v 0.0582159 -0.1015088 -0.2725250
vn 0.1051173 0.9943860 -0.0121227
v -0.1879195 -0.0103772 -0.3465852
vn 0.6416176 -0.3807990 0.6658221
v -0.0236809 -0.3380699 -0.1953771
vn 0.0083614 0.9901530 0.1397397
v 0.1322422 -0.0037288 0.5277504
vn -0.0120275 -0.9990799 0.0411665
v -0.0566186 -0.4727693 0.4447229
vn 0.2404445 -0.8912612 0.3844995
v -0.0575619 -0.4500685 -0.3174661
vn -0.2729148 0.2927752 0.9164062
v -0.0355961 -0.1964412 0.6841630
vn -0.1251585 0.5689631 0.8127831
v 0.0561617 -0.1109096 0.6682010
vn -0.1313801 0.8916832 0.4331748
v -0.0224842 -0.0217966 0.5465191
vn -0.0719538 -0.9935607 -0.0875204
v -0.1183946 -0.4747529 -0.4151658
vn -0.1774277 -0.7018052 -0.6899196
v -0.0253516 -0.3904482 -0.6336602
vn -0.1273470 -0.4497650 0.8840216
v 0.0489167 -0.3642300 0.6693798
vn -0.1279184 0.7981955 -0.5886602
v 0.0388575 -0.0530193 -0.6110706
vn 0.5808686 0.1122207 -0.8062247
v 0.0222074 -0.2247376 0.2102673
vn 0.0830798 0.9466075 -0.3114996
v 0.0426365 -0.0142570 0.4007420
vn 0.3697099 0.0090776 0.9291029
v 0.0625103 -0.2461437 -0.2302683
vn 0.0494400 0.9299615 0.3643176
v 0.0734953 -0.0173076 -0.3948291
vn 0.2031845 -0.7251543 -0.6579264
v 0.0489916 -0.4132398 0.3035280
vn -0.0534507 -0.4823857 -0.8743266
v 0.1326133 -0.3593842 -0.6800776
vn -0.1227392 0.7365050 -0.6652034
v 0.2598081 -0.0633250 0.3115890
vn 0.0817233 -0.1610118 -0.9835632
v 0.2155099 -0.2878840 -0.7052807
vn -0.0376513 0.0166715 0.9991519
v 0.1609435 -0.2503639 0.7173069
vn 0.1797145 0.2640542 -0.9476171
v 0.0989472 -0.1752389 0.2524878
vn 0.0060213 -0.7516640 0.6595187
v 0.1619551 -0.4219093 0.6301605
vn 0.2869871 -0.2714257 -0.9186765
v 0.0831040 -0.2961302 0.2467792
vn 0.1512267 -0.5721021 0.8061201
v 0.1357783 -0.3826885 -0.2961236
vn -0.0493315 -0.0048397 0.9987708
v 0.1736130 -0.2266258 -0.2467332
vn 0.0810595 0.5310270 0.8434688
v 0.2238190 -0.1240263 0.6829850
vn 0.0139613 0.6376563 -0.7701945
v 0.1725557 -0.0922836 -0.6610431
vn -0.2082500 0.5918041 0.7787168
v 0.2249664 -0.0923180 -0.2940570
vn 0.0092959 -0.9695027 0.2449044
v 0.1923978 -0.4682358 0.5351650
vn -0.1766550 -0.7010220 -0.6909133
v 0.2372847 -0.4172936 0.3242500
vn 0.0528785 -0.8097041 -0.5844512
v 0.2114019 -0.4452740 -0.5939386
vn 0.0487443 0.3254246 -0.9443108
v 0.1865419 -0.1584174 -0.7003133
vn 0.0100184 0.8291587 0.5589237
v 0.1710618 -0.0279243 0.5875837
vn 0.1507648 -0.2859424 0.9463123
v 0.2446619 -0.2922762 0.7037157
vn -0.0864820 0.9654059 -0.2459926
v 0.3058017 -0.0081030 0.4220496
vn -0.6192559 0.0143260 0.7850586
v 0.3104902 -0.2522728 -0.2043864
vn -0.3181120 -0.2393590 -0.9173396
v 0.2417069 -0.3021672 0.2472636
vn -0.0798989 -0.9552134 -0.2849273
v 0.0088277 -0.4681204 -0.5245528
vn -0.6303441 0.4479117 0.6340675
v 0.3312849 -0.1341502 -0.2124574
vn 0.1214412 -0.9563838 -0.2656729
v 0.3907072 -0.4633063 -0.5089100
vn -0.0508134 -0.9638254 0.2616459
v 0.2113460 -0.4625492 -0.4236318
vn -0.4295396 -0.5454376 0.7197177
v 0.2809111 -0.3960693 -0.2807260
vn -0.6113893 -0.5596343 -0.5594754
v 0.3756142 -0.3616555 0.1948105
vn -0.8264097 -0.2428582 0.5080029
v 0.3850440 -0.2889101 -0.1224628
vn -0.3690816 0.3480884 -0.8617501
v 0.2713932 -0.1612535 0.2354780
vn 0.0998843 0.9856167 0.1363191
v 0.4443016 -0.0063391 0.4299238
vn 0.2023776 -0.8487892 0.4884672
v 0.3775469 -0.4420921 0.5596082
vn 0.2262465 -0.4574098 -0.8599935
v 0.3350056 -0.3615030 -0.6581166
vn 0.2869400 0.1300119 -0.9490851
v 0.3807099 -0.2110738 -0.6804512
vn -0.4235041 0.7051654 -0.5686705
v 0.3630811 -0.0718674 0.2451734
vn -0.6461110 0.6630133 -0.3780925
v 0.4162212 -0.0841148 0.1651617
vn 0.2136429 0.8102671 0.5457326
v 0.3906178 -0.0478031 0.5714377
vn 0.0721173 0.8945178 -0.4411768
v 0.2730758 -0.0299402 -0.5775349
vn -0.7682075 0.1252329 -0.6278328
v 0.3544775 -0.2338417 0.1487700
vn -0.9007797 0.1864139 0.3922320
v 0.4052133 -0.1813352 -0.0835534
vn -0.8500994 0.5039334 -0.1529123
v 0.4351536 -0.1214049 0.0510252
vn -0.7275656 0.6239379 0.2852189
v 0.4359186 -0.1002781 -0.1121224
vn -0.1398727 0.8976726 0.4178751
v 0.2855724 -0.0319303 -0.3606593
vn -0.0198989 -0.9785966 -0.2048235
v 0.2788208 -0.4707097 0.4325522
vn -0.9200429 -0.2785163 -0.2755898
v 0.4007834 -0.2977566 0.0694049
vn -0.9859954 -0.1029640 0.1311933
v 0.4073968 -0.2702924 -0.0445301
vn 0.2579382 0.6562204 -0.7091140
v 0.4075663 -0.0719161 -0.5988121
vn -0.3425809 -0.8934411 -0.2905190
v 0.4791071 -0.4557013 0.2393269
vn -0.6351534 -0.6146137 0.4677928
v 0.4057365 -0.3792218 -0.1645637
vn 0.2753240 0.2927261 0.9157009
v 0.3794475 -0.1583093 0.6684210
vn -0.3756678 0.8496515 0.3700894
v 0.4447111 -0.0310998 -0.2430417
vn -0.2531725 0.9400839 -0.2283548
v 0.4471868 -0.0150672 0.2991058
vn -0.0372121 0.9976231 0.0579944
v 0.3192475 -0.0058491 -0.4432853
vn 0.1789714 -0.9568993 0.2287204
v 0.4901062 -0.4675546 0.4264388
vn -0.6262805 -0.7492233 -0.2154931
v 0.4745921 -0.4223024 0.1365749
vn -0.5382463 0.8388297 0.0815831
v 0.5110499 -0.0355415 -0.0997111
vn -0.4252810 0.8825164 -0.2007512
v 0.5014470 -0.0296397 0.1478305
vn -0.4105103 -0.8701200 0.2727134
v 0.5103541 -0.4505093 -0.1705222
vn -0.7579581 -0.6434923 0.1068510
v 0.4694264 -0.4010333 -0.0436731
vn 0.3531999 -0.6349779 -0.6870611
v 0.4649098 -0.3902813 -0.5873890
vn 0.5058126 -0.0566243 -0.8607829
v 0.5297044 -0.2520339 -0.6147141
vn 0.4677868 0.7539315 0.4612623
v 0.6192161 -0.0508797 0.4282884
vn 0.4768973 0.4039758 -0.7806231
v 0.4962362 -0.1340360 -0.6014646
vn 0.0435785 -0.9988790 0.0184865
v 0.5747841 -0.4735413 0.2897676
vn 0.3312629 -0.5511686 0.7658186
v 0.4235556 -0.3706983 0.6251533
vn 0.4712129 -0.0710863 0.8791503
v 0.4855936 -0.2718834 0.6363759
vn -0.2871161 -0.9572389 -0.0354693
v 0.5840063 -0.4668088 0.0582459
vn 0.4928714 0.4507018 0.7442753
v 0.5455060 -0.1257420 0.5714383
vn -0.1518724 0.9810171 -0.1205826
v 0.6006824 -0.0024569 -0.2022700
vn -0.0507229 0.9781695 0.2015234
v 0.6250060 -0.0017917 0.2183599
vn 0.0704107 -0.9959006 -0.0567835
v 0.5935913 -0.4737284 -0.2609744
vn 0.4081209 -0.7979045 -0.4436055
v 0.5648098 -0.4337912 -0.4611642
vn 0.6386750 -0.2902825 -0.7126222
v 0.6287216 -0.2908533 -0.5370839
vn 0.7042919 0.2997443 -0.6435266
v 0.7013855 -0.1537378 -0.4437792
vn 0.4932805 0.6879469 -0.5323566
v 0.6088063 -0.0794196 -0.4753109
vn 0.1940679 0.9369457 -0.2906380
v 0.4984713 -0.0183022 -0.4525370
vn 0.3060727 0.8187705 -0.4857308
v 0.7222162 -0.0127103 -0.2041936
vn -0.4527508 0.8911501 0.0294667
v 0.5623553 -0.0030324 0.1350062
vn 0.3035704 -0.9521658 -0.0350071
v 0.7052818 -0.4667723 -0.0009991
vn 0.5198878 -0.6860963 0.5089093
v 0.6223236 -0.3995745 0.4622157
vn 0.4081984 -0.8854376 0.2222034
v 0.6799406 -0.4442960 0.2967666
vn 0.6617805 -0.5624923 -0.4956299
v 0.6848221 -0.3849463 -0.4053527
vn 0.6802316 -0.2668882 0.6826828
v 0.6538313 -0.3117399 0.5022488
vn 0.7040167 0.2389796 0.6687670
v 0.6811517 -0.1936509 0.4833737
vn 0.7036403 -0.6347648 0.3193179
v 0.7593079 -0.3959225 0.2703749
vn 0.3447100 0.8693245 0.3541893
v 0.6905352 -0.0282655 0.2687024
vn -0.3520801 0.7999819 0.4858689
v 0.7254679 0.0626430 0.0913604
vn -0.5579607 0.8235981 -0.1018134
v 0.6994432 0.0672863 -0.0278063
vn 0.6494585 0.5443375 0.5309430
v 0.8106644 -0.1016927 0.2407058
vn 0.3406314 0.6709855 0.6585960
v 0.7747956 -0.0116268 0.1794594
vn 0.5380861 -0.8108191 -0.2302949
v 0.7286043 -0.4322067 -0.2443063
vn 0.0716773 0.6747743 -0.7345353
v 0.7716819 0.0709734 -0.1133911
vn 0.6297433 0.5292752 -0.5685870
v 0.8215851 -0.0803724 -0.2014213
vn -0.3264516 0.9113386 -0.2507816
v 0.7910317 0.2261127 -0.0039806
vn 0.8424042 -0.4077008 -0.3523284
v 0.8253770 -0.3252172 -0.2290474
vn 0.8189230 -0.1349452 -0.5578127
v 0.7598932 -0.2575358 -0.3943043
vn 0.6270839 -0.7767400 0.0586577
v 0.7892610 -0.4241883 0.0285562
vn 0.9371872 -0.0092097 0.3487053
v 0.8626100 -0.1976944 0.2001413
vn 0.8309283 0.1249980 0.5421565
v 0.8049306 -0.2003005 0.3151241
vn 0.8907339 -0.4056205 0.2050979
v 0.8722057 -0.2979752 0.1198165
vn 0.8316668 -0.2950201 0.4704185
v 0.7962630 -0.2908061 0.3198200
vn 0.8709853 0.1148840 -0.4776884
v 0.8493891 -0.1876667 -0.2272558
vn 0.8146468 0.2637852 -0.5164959
v 0.8646966 -0.0627437 -0.1412081
vn 0.8133366 0.3025440 0.4969415
v 0.8566923 -0.0670247 0.1531081
vn 0.7923886 -0.6020449 -0.0982968
v 0.8377210 -0.3725736 -0.0397017
vn 0.9672711 -0.1207915 -0.2231504
v 0.8863847 -0.2358210 -0.1307315
vn 0.6762845 0.4715415 -0.5659398
v 0.8726120 0.0977931 -0.0780385
vn 0.4434608 0.7492473 0.4919057
v 0.8440413 0.1931820 0.0345513
vn 0.9875189 -0.1153625 0.1072288
v 0.9029766 -0.2201151 0.0357599
vn 0.9552208 0.2262836 0.1906542
v 0.8906492 0.1057398 0.0379552
# 250 vertices, 0 vertices normals

f 2//2 3//3 1//1
f 9//9 2//2 1//1
f 9//9 1//1 8//8
f 8//8 1//1 10//10
f 11//11 1//1 3//3
f 2//2 5//5 4//4
f 2//2 4//4 3//3
f 10//10 1//1 11//11
f 5//5 2//2 7//7
f 6//6 8//8 10//10
f 9//9 7//7 2//2
f 3//3 4//4 11//11
f 11//11 26//26 10//10
f 14//14 8//8 6//6
f 15//15 9//9 8//8
f 14//14 15//15 8//8
f 18//18 5//5 7//7
f 19//19 7//7 9//9
f 26//26 6//6 10//10
f 6//6 12//12 14//14
f 4//4 5//5 16//16
f 4//4 16//16 11//11
f 16//16 13//13 11//11
f 13//13 26//26 11//11
f 7//7 17//17 18//18
f 19//19 17//17 7//7
f 15//15 19//19 9//9
f 16//16 5//5 18//18
f 12//12 6//6 26//26
f 16//16 20//20 13//13
f 21//21 13//13 20//20
f 16//16 18//18 23//23
f 17//17 24//24 18//18
f 24//24 17//17 42//42
f 30//30 20//20 22//22
f 16//16 23//23 22//22
f 16//16 22//22 20//20
f 25//25 23//23 18//18
f 53//53 12//12 26//26
f 32//32 19//19 15//15
f 33//33 14//14 12//12
f 33//33 32//32 15//15
f 33//33 15//15 14//14
f 22//22 23//23 28//28
f 36//36 30//30 31//31
f 20//20 30//30 36//36
f 26//26 13//13 21//21
f 24//24 25//25 18//18
f 28//28 27//27 22//22
f 25//25 28//28 23//23
f 20//20 36//36 21//21
f 22//22 29//29 30//30
f 29//29 22//22 27//27
f 29//29 38//38 30//30
f 30//30 38//38 31//31
f 28//28 39//39 35//35
f 28//28 25//25 39//39
f 25//25 40//40 39//39
f 24//24 40//40 25//25
f 26//26 21//21 41//41
f 42//42 17//17 44//44
f 53//53 43//43 12//12
f 44//44 17//17 19//19
f 19//19 32//32 44//44
f 12//12 43//43 33//33
f 34//34 32//32 33//33
f 28//28 46//46 27//27
f 35//35 46//46 28//28
f 31//31 38//38 52//52
f 31//31 52//52 36//36
f 37//37 53//53 26//26
f 60//60 40//40 24//24
f 26//26 41//41 37//37
f 42//42 60//60 24//24
f 47//47 35//35 39//39
f 42//42 44//44 48//48
f 49//49 44//44 32//32
f 43//43 34//34 33//33
f 50//50 29//29 27//27
f 50//50 27//27 46//46
f 38//38 29//29 45//45
f 38//38 75//75 52//52
f 36//36 63//63 21//21
f 49//49 32//32 34//34
f 54//54 29//29 50//50
f 46//46 58//58 50//50
f 45//45 75//75 38//38
f 46//46 62//62 67//67
f 62//62 46//46 47//47
f 35//35 47//47 46//46
f 39//39 56//56 47//47
f 68//68 56//56 39//39
f 63//63 41//41 21//21
f 40//40 57//57 39//39
f 37//37 41//41 69//69
f 48//48 60//60 42//42
f 53//53 76//76 43//43
f 45//45 29//29 51//51
f 45//45 59//59 75//75
f 52//52 55//55 36//36
f 63//63 64//64 41//41
f 60//60 57//57 40//40
f 48//48 44//44 61//61
f 44//44 49//49 61//61
f 43//43 65//65 34//34
f 65//65 49//49 34//34
f 54//54 51//51 29//29
f 55//55 52//52 70//70
f 63//63 36//36 55//55
f 68//68 39//39 57//57
f 48//48 73//73 60//60
f 53//53 37//37 76//76
f 58//58 54//54 50//50
f 46//46 67//67 58//58
f 52//52 75//75 70//70
f 76//76 80//80 43//43
f 43//43 80//80 65//65
f 82//82 61//61 49//49
f 65//65 82//82 49//49
f 66//66 51//51 54//54
f 79//79 68//68 57//57
f 41//41 64//64 69//69
f 48//48 61//61 73//73
f 58//58 67//67 94//94
f 79//79 57//57 88//88
f 73//73 57//57 60//60
f 58//58 74//74 54//54
f 74//74 66//66 54//54
f 47//47 101//101 62//62
f 113//113 56//56 68//68
f 55//55 64//64 63//63
f 89//89 76//76 37//37
f 82//82 81//81 61//61
f 65//65 80//80 82//82
f 77//77 58//58 94//94
f 77//77 74//74 58//58
f 67//67 78//78 94//94
f 45//45 87//87 59//59
f 78//78 67//67 62//62
f 47//47 56//56 72//72
f 86//86 69//69 64//64
f 96//96 37//37 69//69
f 101//101 47//47 72//72
f 125//125 113//113 68//68
f 79//79 125//125 68//68
f 69//69 86//86 96//96
f 89//89 37//37 96//96
f 61//61 90//90 73//73
f 74//74 83//83 66//66
f 66//66 83//83 108//108
f 51//51 87//87 45//45
f 59//59 70//70 75//75
f 71//71 55//55 70//70
f 73//73 93//93 57//57
f 76//76 89//89 80//80
f 81//81 90//90 61//61
f 62//62 100//100 78//78
f 59//59 84//84 70//70
f 84//84 71//71 70//70
f 103//103 64//64 55//55
f 111//111 103//103 55//55
f 85//85 125//125 79//79
f 57//57 93//93 88//88
f 91//91 82//82 80//80
f 77//77 83//83 74//74
f 108//108 128//128 66//66
f 128//128 51//51 66//66
f 79//79 88//88 85//85
f 98//98 89//89 96//96
f 91//91 80//80 89//89
f 81//81 82//82 91//91
f 133//133 77//77 94//94
f 77//77 92//92 83//83
f 83//83 92//92 114//114
f 111//111 55//55 71//71
f 95//95 125//125 85//85
f 112//112 86//86 64//64
f 93//93 104//104 88//88
f 73//73 90//90 93//93
f 91//91 89//89 98//98
f 91//91 90//90 81//81
f 133//133 129//129 77//77
f 77//77 129//129 92//92
f 84//84 59//59 105//105
f 100//100 62//62 101//101
f 106//106 101//101 72//72
f 132//132 103//103 111//111
f 104//104 85//85 88//88
f 112//112 64//64 103//103
f 102//102 97//97 86//86
f 97//97 96//96 86//86
f 104//104 93//93 97//97
f 93//93 98//98 97//97
f 97//97 98//98 96//96
f 93//93 90//90 98//98
f 98//98 90//90 91//91
f 99//99 128//128 108//108
f 128//128 87//87 51//51
f 114//114 108//108 83//83
f 105//105 59//59 87//87
f 113//113 72//72 56//56
f 104//104 107//107 85//85
f 112//112 102//102 86//86
f 104//104 97//97 102//102
f 78//78 133//133 94//94
f 134//134 78//78 100//100
f 102//102 118//118 104//104
f 102//102 112//112 120//120
f 92//92 110//110 114//114
f 107//107 118//118 116//116
f 107//107 104//104 118//118
f 127//127 103//103 132//132
f 114//114 110//110 115//115
f 118//118 102//102 120//120
f 138//138 112//112 103//103
f 133//133 78//78 163//163
f 108//108 117//117 99//99
f 109//109 105//105 87//87
f 129//129 126//126 92//92
f 110//110 92//92 126//126
f 117//117 108//108 114//114
f 115//115 110//110 116//116
f 116//116 118//118 115//115
f 130//130 71//71 84//84
f 130//130 111//111 71//71
f 119//119 85//85 107//107
f 95//95 85//85 119//119
f 127//127 138//138 103//103
f 117//117 114//114 115//115
f 115//115 118//118 117//117
f 119//119 107//107 116//116
f 113//113 136//136 72//72
f 138//138 120//120 112//112
f 128//128 109//109 87//87
f 116//116 110//110 126//126
f 123//123 100//100 101//101
f 126//126 119//119 116//116
f 106//106 123//123 101//101
f 130//130 131//131 111//111
f 124//124 95//95 119//119
f 125//125 122//122 113//113
f 99//99 117//117 141//141
f 84//84 105//105 135//135
f 118//118 137//137 117//117
f 111//111 131//131 132//132
f 136//136 113//113 122//122
f 120//120 138//138 121//121
f 163//163 78//78 134//134
f 119//119 126//126 139//139
f 120//120 137//137 118//118
f 133//133 166//166 129//129
f 148//148 141//141 117//117
f 137//137 148//148 117//117
f 145//145 84//84 135//135
f 130//130 84//84 145//145
f 106//106 72//72 136//136
f 124//124 140//140 95//95
f 125//125 95//95 140//140
f 109//109 147//147 105//105
f 142//142 134//134 100//100
f 120//120 146//146 137//137
f 128//128 154//154 109//109
f 147//147 109//109 154//154
f 147//147 135//135 105//105
f 149//149 139//139 126//126
f 106//106 157//157 123//123
f 121//121 146//146 120//120
f 132//132 131//131 158//158
f 163//163 166//166 133//133
f 141//141 184//184 99//99
f 129//129 149//149 126//126
f 123//123 142//142 100//100
f 139//139 124//124 119//119
f 131//131 130//130 145//145
f 140//140 122//122 125//125
f 163//163 134//134 156//156
f 151//151 131//131 145//145
f 152//152 106//106 136//136
f 99//99 184//184 128//128
f 184//184 154//154 128//128
f 149//149 129//129 166//166
f 142//142 156//156 134//134
f 137//137 146//146 148//148
f 106//106 152//152 157//157
f 141//141 148//148 155//155
f 144//144 142//142 123//123
f 146//146 121//121 143//143
f 153//153 183//183 140//140
f 140//140 124//124 153//153
f 158//158 127//127 132//132
f 139//139 149//149 150//150
f 146//146 162//162 148//148
f 124//124 139//139 150//150
f 150//150 153//153 124//124
f 151//151 158//158 131//131
f 178//178 152//152 136//136
f 183//183 193//193 140//140
f 122//122 140//140 193//193
f 127//127 160//160 138//138
f 155//155 184//184 141//141
f 136//136 122//122 178//178
f 138//138 143//143 121//121
f 147//147 159//159 135//135
f 159//159 145//145 135//135
f 123//123 157//157 144//144
f 146//146 170//170 162//162
f 143//143 170//170 146//146
f 160//160 143//143 138//138
f 148//148 162//162 155//155
f 172//172 147//147 154//154
f 173//173 156//156 142//142
f 149//149 167//167 150//150
f 161//161 153//153 150//150
f 156//156 165//165 163//163
f 205//205 159//159 147//147
f 144//144 173//173 142//142
f 168//168 155//155 162//162
f 157//157 152//152 187//187
f 178//178 122//122 193//193
f 172//172 205//205 147//147
f 144//144 174//174 173//173
f 161//161 150//150 167//167
f 157//157 174//174 144//144
f 161//161 164//164 153//153
f 187//187 152//152 178//178
f 158//158 151//151 177//177
f 155//155 188//188 184//184
f 179//179 162//162 170//170
f 190//190 145//145 159//159
f 190//190 151//151 145//145
f 157//157 187//187 174//174
f 153//153 164//164 191//191
f 160//160 175//175 143//143
f 171//171 160//160 127//127
f 165//165 166//166 163//163
f 166//166 167//167 149//149
f 159//159 205//205 206//206
f 179//179 168//168 162//162
f 143//143 175//175 170//170
f 177//177 151//151 190//190
f 183//183 153//153 191//191
f 165//165 211//211 166//166
f 200//200 156//156 173//173
f 156//156 200//200 165//165
f 168//168 188//188 155//155
f 169//169 161//161 167//167
f 190//190 159//159 206//206
f 175//175 179//179 170//170
f 178//178 193//193 216//216
f 160//160 192//192 175//175
f 127//127 158//158 177//177
f 189//189 169//169 167//167
f 161//161 180//180 164//164
f 175//175 176//176 179//179
f 194//194 172//172 154//154
f 168//168 195//195 188//188
f 179//179 185//185 168//168
f 169//169 180//180 161//161
f 169//169 186//186 180//180
f 181//181 185//185 179//179
f 181//181 179//179 176//176
f 164//164 180//180 182//182
f 177//177 171//171 127//127
f 184//184 194//194 154//154
f 198//198 167//167 166//166
f 198//198 189//189 167//167
f 201//201 200//200 173//173
f 174//174 201//201 173//173
f 180//180 186//186 181//181
f 181//181 186//186 185//185
f 174//174 187//187 203//203
f 191//191 164//164 182//182
f 176//176 175//175 192//192
f 191//191 193//193 183//183
f 166//166 211//211 198//198
f 204//204 184//184 188//188
f 204//204 194//194 184//184
f 189//189 199//199 169//169
f 199//199 186//186 169//169
f 185//185 186//186 199//199
f 190//190 208//208 177//177
f 178//178 216//216 187//187
f 171//171 192//192 160//160
f 168//168 185//185 195//195
f 201//201 174//174 203//203
f 206//206 208//208 190//190
f 182//182 180//180 181//181
f 181//181 176//176 197//197
f 196//196 191//191 182//182
f 171//171 177//177 202//202
f 193//193 209//209 216//216
f 199//199 195//195 185//185
f 196//196 182//182 181//181
f 197//197 176//176 192//192
f 198//198 199//199 189//189
f 220//220 205//205 172//172
f 196//196 181//181 218//218
f 197//197 218//218 181//181
f 209//209 193//193 191//191
f 212//212 211//211 165//165
f 172//172 194//194 220//220
f 200//200 212//212 165//165
f 202//202 177//177 208//208
f 197//197 192//192 210//210
f 171//171 210//210 192//192
f 195//195 207//207 188//188
f 201//201 213//213 200//200
f 205//205 223//223 206//206
f 215//215 203//203 187//187
f 187//187 216//216 215//215
f 198//198 207//207 199//199
f 199//199 207//207 195//195
f 171//171 226//226 210//210
f 202//202 226//226 171//171
f 210//210 218//218 197//197
f 200//200 213//213 212//212
f 220//220 223//223 205//205
f 209//209 191//191 196//196
f 228//228 196//196 218//218
f 198//198 211//211 207//207
f 207//207 204//204 188//188
f 221//221 194//194 204//204
f 194//194 221//221 220//220
f 203//203 214//214 201//201
f 203//203 215//215 214//214
f 228//228 209//209 196//196
f 211//211 212//212 231//231
f 206//206 224//224 208//208
f 201//201 214//214 213//213
f 209//209 217//217 216//216
f 227//227 228//228 218//218
f 211//211 219//219 207//207
f 219//219 204//204 207//207
f 212//212 222//222 231//231
f 213//213 222//222 212//212
f 223//223 224//224 206//206
f 202//202 208//208 224//224
f 217//217 215//215 216//216
f 232//232 209//209 228//228
f 219//219 221//221 204//204
f 225//225 220//220 221//221
f 213//213 236//236 222//222
f 236//236 213//213 214//214
f 217//217 209//209 232//232
f 227//227 218//218 210//210
f 215//215 217//217 233//233
f 226//226 230//230 210//210
f 230//230 227//227 210//210
f 221//221 219//219 237//237
f 211//211 231//231 219//219
f 241//241 223//223 220//220
f 215//215 233//233 214//214
f 225//225 241//241 220//220
f 229//229 202//202 224//224
f 226//226 202//202 229//229
f 228//228 227//227 234//234
f 221//221 237//237 225//225
f 235//235 231//231 222//222
f 239//239 223//223 241//241
f 239//239 224//224 223//223
f 239//239 229//229 224//224
f 229//229 230//230 226//226
f 228//228 234//234 232//232
f 219//219 231//231 245//245
f 219//219 245//245 237//237
f 236//236 235//235 222//222
f 231//231 235//235 245//245
f 230//230 248//248 227//227
f 248//248 234//234 227//227
f 241//241 225//225 240//240
f 242//242 236//236 214//214
f 244//244 230//230 229//229
f 217//217 232//232 233//233
f 240//240 225//225 237//237
f 241//241 238//238 239//239
f 233//233 242//242 214//214
f 244//244 229//229 239//239
f 233//233 232//232 243//243
f 232//232 247//247 243//243
f 234//234 247//247 232//232
f 237//237 245//245 240//240
f 235//235 246//246 245//245
f 236//236 242//242 235//235
f 235//235 242//242 246//246
f 240//240 238//238 241//241
f 238//238 244//244 239//239
f 243//243 242//242 233//233
f 244//244 250//250 230//230
f 230//230 250//250 248//248
f 234//234 248//248 247//247
f 245//245 246//246 249//249
f 240//240 249//249 238//238
f 244//244 238//238 249//249
f 242//242 243//243 246//246
f 247//247 248//248 250//250
f 245//245 249//249 240//240
f 249//249 246//246 250//250
f 249//249 250//250 244//244
f 246//246 243//243 250//250
f 247//247 250//250 243//243
# 500 faces, 0 coords texture

# End of File
