####
#
# OBJ File Generated by Meshlab
#
####
# Object cat-reference500.obj
#
# Vertices: 254
# Faces: 500
#
####
v -0.1545782 -0.0806649 -0.0833637
v -0.1570093 -0.0737246 0.0177142
v -0.1548422 0.0583138 0.4628175
v -0.1527700 0.0117128 -0.1173666
v -0.1513179 0.0720875 0.0242848
v -0.1154375 -0.3930051 -0.1361448
v -0.1396321 -0.3869558 0.5477504
v -0.1529908 -0.3894199 -0.0943422
v -0.1229343 -0.3868613 -0.0481548
v -0.1234292 -0.3851877 0.4690847
v -0.1253728 -0.3426109 -0.1219024
v -0.1261176 -0.3425965 0.4921549
v -0.1199418 -0.2962583 0.4576014
v -0.1413798 -0.1950607 -0.1144446
v -0.1210233 -0.2318575 -0.0960935
v -0.1256989 -0.2099770 -0.1477637
v -0.1503476 -0.1078230 0.0042919
v -0.1276252 -0.1597410 0.4585682
v -0.1224655 -0.2392989 0.5020919
v -0.1212761 -0.1285266 0.0082524
v -0.1286794 -0.2325467 0.4841976
v -0.1055515 -0.1074797 -0.1353293
v -0.1203524 -0.0047662 0.0554736
v -0.1245118 -0.0484358 0.4271658
v -0.1082986 -0.0245895 -0.2037901
v -0.1252122 -0.0875558 0.5334533
v -0.1360162 0.0019640 0.5392794
v -0.1144888 0.1019632 0.0555516
v -0.1152445 0.1229962 0.5724899
v -0.1324308 0.1043199 0.2958945
v -0.1475391 0.1353245 0.4728090
v -0.1339565 0.1652440 0.2161276
v -0.1208844 0.2212677 0.0914030
v -0.1124673 0.1918771 0.3748991
v -0.0976102 -0.4130134 0.4842890
v -0.0920454 -0.3531838 -0.1531293
v -0.1206382 -0.3616608 -0.1429096
v -0.0976958 -0.3456878 -0.1045115
v -0.0788752 -0.3847097 0.5594671
v -0.1000253 -0.3487226 0.4494460
v -0.0963787 -0.2207008 -0.0856526
v -0.0990740 -0.2363726 0.4479643
v -0.0998309 -0.2065663 -0.1529174
v -0.0994082 -0.2638655 0.5145768
v -0.0851769 -0.1768157 -0.0738096
v -0.1022486 -0.0703466 0.5500486
v -0.1006765 -0.0573235 0.4179537
v -0.1192280 0.0579376 0.3682078
v -0.1212788 0.1381179 0.0953300
v -0.0958076 0.1925510 0.5915781
v -0.1260957 0.1562322 -0.0179015
v -0.1179998 0.2133978 0.7462514
v -0.1148295 0.2445739 0.2238646
v -0.0969439 0.2719396 0.0885247
v -0.0980184 0.2272395 0.6551527
v -0.0929477 0.2592072 0.8240850
v -0.1055834 0.2895482 0.7681961
v -0.0780457 0.3175816 0.7336280
v -0.1024902 0.3228326 0.7192166
v -0.0840743 -0.4100781 -0.0903590
v -0.0813618 -0.3392119 0.5007782
v -0.0717491 -0.3525280 0.4722951
v -0.0748068 -0.2362793 0.4613043
v -0.0819961 -0.2501711 -0.1225392
v -0.0643376 -0.2094746 0.4947758
v -0.0777762 -0.0500822 0.4331830
v -0.0707051 -0.0686807 -0.1637822
v -0.0856548 -0.0143278 0.0199644
v -0.0848359 -0.0314747 0.3825912
v -0.0887735 0.0149163 0.0803767
v -0.0666650 0.0706108 0.5928581
v -0.0717189 0.1366458 0.6344438
v -0.0849392 0.1640624 0.6575637
v -0.1287007 0.1430816 -0.1850435
v -0.0893407 0.2411657 0.3668643
v -0.0796799 0.2581258 0.5919029
v -0.0626517 0.2721017 0.4359528
v -0.1128464 0.2383195 0.4670647
v -0.0766516 0.2907622 0.2064763
v -0.0836926 0.3705432 0.7496722
v -0.0708937 -0.3929118 -0.0589312
v -0.0736538 -0.3487374 -0.1195589
v -0.0630506 -0.3891691 0.5086038
v -0.0667047 -0.0989633 0.5294251
v -0.0569496 -0.0772622 0.4848490
v -0.0806756 -0.1172275 -0.1130511
v -0.0400202 -0.0288708 -0.0642501
v -0.0876742 -0.0935409 -0.0379903
v -0.0456240 -0.0599409 0.4809539
v -0.0844762 -0.0021432 0.2191445
v -0.0705089 0.0490155 -0.2575865
v -0.1144059 0.0815064 -0.2306002
v -0.0485088 0.1448804 0.8105091
v -0.0924854 0.2365885 -0.1118872
v -0.0348671 0.1743561 0.8775868
v -0.0377606 0.2011745 -0.2571728
v -0.0470276 -0.0339906 0.2420541
v -0.0586793 -0.0408555 0.5511184
v -0.0283341 -0.0139615 0.0588980
v -0.0339451 0.1456659 -0.2765484
v -0.0188250 0.1982744 -0.4412595
v -0.0372940 0.1858913 0.8236401
v -0.0207311 0.2667811 0.8639126
v -0.0480690 0.2955342 -0.0719155
v -0.0318550 0.2988243 0.3150776
v -0.0165993 0.3066313 0.6259363
v -0.0752275 0.2820203 0.6534524
v -0.0475324 0.3531572 0.7831746
v -0.0274907 0.3156981 0.0847653
v 0.0305834 -0.0313151 0.5410945
v 0.0304229 -0.0204544 0.1469045
v -0.0504073 0.0156643 0.5738336
v -0.0229104 0.0193297 -0.2356844
v -0.0022876 0.0695635 0.6154661
v -0.0127625 0.1468155 -0.7678399
v -0.0223423 0.1404905 -0.6017079
v 0.0031441 0.1281323 -0.6037228
v -0.0142933 0.1416918 -0.3915847
v -0.0012634 0.1145678 0.6726061
v -0.0202774 0.1351333 0.8548588
v -0.0211404 0.1668859 -0.7692490
v -0.0313089 0.1665733 -0.4973450
v -0.0370649 0.1732347 -0.3451294
v -0.0129823 0.1833141 -0.7088885
v -0.0083729 0.1971121 0.8445237
v -0.0651918 0.3504649 0.7203417
v 0.0014844 -0.0672585 0.3813455
v 0.0250894 -0.0529711 0.2783462
v -0.0021231 -0.0161818 -0.0899523
v -0.0012959 -0.0010334 -0.1529694
v 0.0230988 0.1365117 -0.2746738
v 0.0077566 0.1534905 -0.8998435
v 0.0073346 0.1344744 -0.7551413
v 0.0224887 0.1417666 -0.4041173
v 0.0373881 0.1387659 0.7701494
v 0.0254181 0.1965137 -0.8789853
v 0.0108689 0.2069200 -0.4460140
v -0.0021370 0.2088212 -0.2648555
v 0.0220370 0.2115314 -0.2457692
v 0.0474726 0.2805766 0.4027387
v 0.0567906 -0.0553916 0.4966265
v 0.0114163 0.0372079 -0.2341911
v 0.0454254 0.1408602 -0.8807356
v 0.0323231 0.1390844 -0.7693659
v 0.0369075 0.1395594 -0.6116142
v 0.0218021 0.1485451 0.8733770
v 0.0163180 0.1997740 -0.7537781
v 0.0179148 0.1934864 -0.6462947
v 0.0328915 0.1888531 -0.4620779
v 0.0413494 0.1869935 0.8277231
v 0.0335629 0.1888566 -0.3274929
v 0.0149611 0.2832148 0.8634334
v 0.0653646 0.3512031 0.7303111
v 0.0580571 0.3493437 0.7845336
v 0.0704587 -0.0565526 0.4503857
v 0.0518765 -0.0386137 -0.1809425
v 0.0666241 -0.0266831 0.5579755
v 0.0437767 0.0062837 -0.2322476
v 0.0712188 0.0458875 -0.2577277
v 0.0478026 0.1426424 0.8209095
v 0.0417221 0.1665194 -0.7252522
v 0.0404496 0.1684320 -0.4345139
v 0.0473617 0.1773122 -0.2665368
v 0.0218491 0.1902735 0.8905625
v 0.0411129 0.2997295 -0.0594275
v 0.0636720 0.2824378 0.5532712
v 0.0425935 0.3141052 0.1987482
v 0.0418159 0.3104591 0.6575684
v 0.0743037 0.3402936 0.7115378
v 0.0723666 -0.4147715 -0.0935096
v 0.0601035 -0.3779179 -0.1103482
v 0.0715742 -0.3595854 0.4782342
v 0.0753003 -0.2801730 0.4867567
v 0.0695291 -0.2203595 0.4747256
v 0.0764380 -0.1340166 0.5235813
v 0.0802095 -0.1243007 -0.1071647
v 0.0567206 -0.0638064 0.5189265
v 0.0510046 -0.0256803 -0.0463090
v 0.0835631 -0.0193521 -0.2196255
v 0.0967338 -0.0249061 0.3786327
v 0.0786769 0.0003363 0.0739509
v 0.0600465 0.0580575 0.5911918
v 0.1091898 0.1101359 -0.2332800
v 0.0491608 0.1841914 -0.8833362
v 0.0498320 0.1763437 0.8575479
v 0.1002214 -0.3908288 0.4628185
v 0.0710560 -0.4043004 0.4997511
v 0.0976668 -0.3505325 -0.1589932
v 0.0760876 -0.3835339 -0.0669307
v 0.0822325 -0.3485200 0.4973896
v 0.0717689 -0.3858023 0.5585018
v 0.0987613 -0.3490936 -0.1080048
v 0.1002125 -0.1583001 0.5283296
v 0.0976780 -0.2801557 0.4482443
v 0.0829003 -0.2525793 -0.1318871
v 0.0929198 -0.2323585 -0.0949023
v 0.1001095 -0.0586617 0.4184621
v 0.0584903 -0.0579442 -0.0997293
v 0.1012669 -0.1256127 -0.0139458
v 0.0838783 -0.0225400 0.0088044
v 0.0884019 -0.0153659 0.2755743
v 0.1368557 0.1091138 0.2658988
v 0.1162720 0.0263016 0.5686390
v 0.0883032 0.0198854 0.1015780
v 0.0966275 0.1222947 0.5917899
v 0.0665013 0.2133686 -0.2109282
v 0.0995960 0.2041080 0.5955409
v 0.0975120 0.2540497 0.8289697
v 0.0971116 0.2491576 -0.0751382
v 0.1108018 0.2451169 0.4762741
v 0.0877503 0.2554743 0.6328003
v 0.0678917 0.2890684 -0.0590437
v 0.1149666 0.2585720 0.1965346
v 0.0812605 0.3279918 0.7293842
v 0.0808408 0.3605891 0.7472982
v 0.1205446 -0.3959894 0.5580944
v 0.1235159 -0.3535874 0.5224624
v 0.1235802 -0.2811121 -0.1471168
v 0.1071029 -0.1515696 -0.1462950
v 0.1193714 -0.2308946 -0.0966081
v 0.1237147 -0.1152550 0.0197092
v 0.1072556 -0.1004798 -0.1389773
v 0.1214783 0.0116358 0.0546179
v 0.1203845 0.1160548 0.0554271
v 0.1110738 0.1937653 0.7462049
v 0.1369661 0.1934359 0.2445311
v 0.1299085 0.2117333 0.4592943
v 0.0847205 0.1485298 0.6475025
v 0.1289827 0.2782304 0.7250748
v 0.1336094 -0.4105726 -0.1122067
v 0.1210618 -0.4039015 -0.0638346
v 0.1382552 -0.3957831 0.4941980
v 0.1272662 -0.3540878 0.4594240
v 0.1239633 -0.3437744 0.5003914
v 0.1245528 -0.3567922 -0.1134238
v 0.1251092 -0.2991211 -0.1213825
v 0.1428282 -0.1964313 -0.1150090
v 0.1301634 -0.2555760 0.4680864
v 0.1303482 -0.2384961 0.5011246
v 0.1305193 -0.0584688 0.4296012
v 0.1327574 -0.1190129 0.5217738
v 0.1352174 0.0023356 -0.1914147
v 0.1199386 0.0533871 0.3640820
v 0.1142607 0.2041851 0.3786375
v 0.1355111 0.1375185 -0.1826108
v 0.1247664 0.1711848 -0.0019079
v 0.1591743 -0.0753482 -0.0042449
v 0.1472687 -0.1191802 -0.0024409
v 0.1560315 -0.0856337 -0.0813002
v 0.1468070 -0.0056164 0.0389155
v 0.1580325 0.0438988 -0.0594947
v 0.1512702 0.0664587 0.0311651
v 0.1613843 0.0683585 0.4674376
v 0.1485178 0.0764828 0.5275733
# 254 vertices, 0 vertices normals

f 17 1 14
f 1 17 2
f 4 1 2
f 5 4 2
f 2 23 5
f 3 27 29
f 3 29 31
f 60 8 6
f 8 60 9
f 35 7 10
f 8 37 6
f 37 8 11
f 11 8 9
f 10 12 13
f 10 7 12
f 13 12 21
f 37 11 14
f 19 21 12
f 14 16 37
f 14 11 15
f 13 21 18
f 17 14 15
f 14 22 16
f 17 15 20
f 21 19 26
f 1 22 14
f 17 20 23
f 27 21 26
f 18 21 27
f 1 25 22
f 23 2 17
f 3 24 18
f 4 25 1
f 27 3 18
f 92 25 4
f 3 48 24
f 74 92 4
f 23 28 5
f 51 4 5
f 51 74 4
f 5 28 51
f 31 48 3
f 32 49 30
f 48 31 34
f 94 74 51
f 31 29 50
f 33 49 32
f 34 32 30
f 53 33 32
f 53 32 34
f 60 81 9
f 36 6 37
f 40 35 10
f 9 38 11
f 12 7 61
f 7 39 61
f 40 10 13
f 44 12 61
f 36 37 43
f 41 11 38
f 40 13 42
f 44 19 12
f 16 43 37
f 15 11 41
f 42 13 18
f 22 43 16
f 15 41 20
f 26 19 44
f 44 46 26
f 20 41 45
f 88 20 45
f 47 42 24
f 18 24 42
f 23 20 68
f 69 47 24
f 25 92 91
f 70 23 68
f 24 48 69
f 27 26 46
f 30 90 48
f 29 27 46
f 28 23 70
f 49 90 30
f 30 48 34
f 49 51 28
f 33 51 49
f 78 34 31
f 78 31 50
f 78 50 76
f 94 51 33
f 53 34 75
f 34 78 75
f 54 94 33
f 54 33 53
f 79 54 53
f 59 55 52
f 57 52 56
f 59 52 57
f 58 59 57
f 35 39 7
f 36 60 6
f 81 82 9
f 40 62 35
f 38 9 82
f 36 64 82
f 36 43 64
f 38 82 64
f 64 41 38
f 42 63 62
f 42 62 40
f 65 44 61
f 43 86 64
f 64 86 45
f 45 41 64
f 44 65 84
f 84 46 44
f 86 43 22
f 47 66 42
f 63 42 66
f 86 88 45
f 98 46 84
f 86 22 67
f 67 22 25
f 68 20 88
f 47 69 66
f 46 98 112
f 48 90 69
f 71 46 112
f 49 70 90
f 28 70 49
f 71 29 46
f 71 72 29
f 92 96 100
f 74 96 92
f 50 29 72
f 50 72 73
f 55 50 73
f 55 73 52
f 76 50 55
f 77 75 78
f 107 76 55
f 104 94 54
f 79 53 75
f 59 107 55
f 59 126 107
f 58 57 108
f 108 57 56
f 80 59 58
f 126 59 80
f 83 39 35
f 36 81 60
f 82 81 36
f 62 83 35
f 62 61 83
f 83 61 39
f 62 65 61
f 62 63 65
f 66 85 63
f 63 85 65
f 65 85 84
f 87 86 67
f 86 87 88
f 66 89 85
f 113 67 25
f 87 68 88
f 97 69 90
f 127 69 97
f 127 66 69
f 25 91 113
f 68 99 70
f 70 97 90
f 99 97 70
f 91 92 100
f 73 119 52
f 72 119 73
f 93 52 119
f 93 95 52
f 74 94 96
f 95 56 52
f 96 94 104
f 103 56 95
f 75 105 79
f 77 105 75
f 78 106 77
f 76 106 78
f 109 104 54
f 79 109 54
f 108 56 103
f 108 80 58
f 126 80 108
f 127 89 66
f 98 84 85
f 98 85 89
f 87 67 129
f 87 99 68
f 114 71 112
f 71 114 72
f 96 123 100
f 95 93 120
f 76 107 106
f 109 79 105
f 106 107 126
f 127 97 128
f 127 141 89
f 89 110 98
f 141 110 89
f 130 67 113
f 67 130 129
f 129 178 87
f 87 178 99
f 99 111 97
f 111 128 97
f 98 110 112
f 100 131 91
f 119 72 114
f 133 116 115
f 117 116 133
f 119 135 93
f 135 120 93
f 121 115 116
f 121 116 122
f 122 116 118
f 122 118 123
f 123 118 100
f 95 120 146
f 124 121 122
f 124 122 101
f 101 122 123
f 138 101 123
f 138 123 96
f 113 142 130
f 110 114 112
f 91 142 113
f 91 131 142
f 133 115 132
f 117 134 116
f 116 134 118
f 134 131 118
f 118 131 100
f 121 132 115
f 136 132 121
f 147 136 121
f 121 124 147
f 147 124 148
f 137 148 124
f 137 124 101
f 138 137 101
f 164 103 95
f 138 96 139
f 139 96 104
f 152 103 164
f 140 105 77
f 166 77 106
f 167 109 105
f 140 167 105
f 108 103 152
f 153 106 126
f 154 108 152
f 154 126 108
f 154 153 126
f 198 129 130
f 198 178 129
f 200 99 178
f 181 111 99
f 158 156 142
f 130 156 198
f 130 142 156
f 182 114 110
f 159 158 142
f 159 142 131
f 114 182 228
f 114 228 119
f 132 144 133
f 143 144 132
f 144 145 133
f 133 145 117
f 117 145 134
f 135 160 120
f 120 160 146
f 136 184 132
f 125 150 102
f 146 164 95
f 148 137 149
f 137 151 149
f 138 151 137
f 151 138 139
f 150 125 102
f 165 139 104
f 166 140 77
f 165 104 109
f 167 165 109
f 168 166 106
f 153 168 106
f 141 127 155
f 127 180 155
f 110 141 177
f 177 157 110
f 157 182 110
f 228 135 119
f 132 184 143
f 143 184 161
f 143 161 144
f 144 161 145
f 145 161 162
f 162 134 145
f 163 134 162
f 163 131 134
f 163 183 131
f 185 146 160
f 184 136 161
f 161 136 147
f 161 147 148
f 161 148 149
f 161 149 162
f 162 149 151
f 162 151 163
f 146 185 164
f 163 151 139
f 206 163 139
f 152 164 208
f 139 212 206
f 165 212 139
f 212 165 167
f 153 169 168
f 170 189 171
f 190 172 187
f 190 187 191
f 188 171 195
f 174 173 175
f 141 155 174
f 141 174 175
f 177 141 175
f 177 175 157
f 179 176 156
f 156 176 198
f 180 128 201
f 180 127 128
f 156 158 179
f 99 200 181
f 201 128 111
f 179 158 159
f 181 204 111
f 111 204 201
f 131 183 159
f 182 205 228
f 228 225 135
f 225 160 135
f 206 183 163
f 185 208 164
f 168 211 166
f 140 213 167
f 168 169 211
f 152 208 154
f 215 154 214
f 215 153 154
f 231 189 170
f 187 216 191
f 170 171 188
f 172 186 187
f 171 189 192
f 186 172 194
f 217 190 191
f 171 192 195
f 173 194 172
f 190 173 172
f 195 192 196
f 190 193 173
f 174 194 173
f 194 174 197
f 219 195 176
f 176 195 196
f 175 173 193
f 176 196 199
f 197 174 155
f 176 222 219
f 198 176 199
f 178 198 199
f 157 175 193
f 222 176 179
f 178 199 200
f 155 180 197
f 223 181 200
f 203 157 193
f 201 204 202
f 203 182 157
f 204 224 202
f 182 203 205
f 205 207 228
f 206 245 183
f 225 185 160
f 245 206 209
f 225 208 185
f 206 212 209
f 140 244 213
f 140 210 244
f 210 166 207
f 207 166 211
f 210 140 166
f 213 212 167
f 229 211 169
f 154 229 214
f 214 169 153
f 214 153 215
f 230 231 170
f 186 232 187
f 232 216 187
f 170 188 230
f 231 235 189
f 189 235 192
f 233 232 186
f 217 191 216
f 194 233 186
f 236 192 235
f 234 190 217
f 236 196 192
f 233 194 238
f 234 193 190
f 239 193 234
f 196 236 220
f 195 218 188
f 195 219 218
f 197 238 194
f 196 220 199
f 220 221 199
f 238 197 240
f 241 193 239
f 179 242 222
f 221 200 199
f 240 197 180
f 221 223 200
f 193 241 203
f 243 180 201
f 159 242 179
f 223 204 181
f 201 202 243
f 242 159 183
f 223 224 204
f 242 183 245
f 254 207 205
f 209 213 246
f 226 213 244
f 227 210 207
f 211 228 207
f 228 211 229
f 225 228 229
f 229 208 225
f 244 210 227
f 209 212 213
f 208 229 154
f 169 214 229
f 230 235 231
f 232 233 234
f 232 217 216
f 232 234 217
f 188 235 230
f 188 218 235
f 233 238 234
f 218 236 235
f 238 239 234
f 218 237 236
f 237 220 236
f 218 219 237
f 237 248 220
f 249 248 237
f 248 221 220
f 222 237 219
f 249 237 222
f 238 240 239
f 240 241 239
f 242 249 222
f 248 250 221
f 250 223 221
f 254 203 241
f 243 240 180
f 252 223 250
f 253 240 243
f 254 205 203
f 223 252 224
f 243 244 253
f 246 224 252
f 243 202 244
f 202 226 244
f 244 227 253
f 224 226 202
f 253 227 254
f 254 227 207
f 245 209 246
f 224 246 226
f 246 213 226
f 249 247 248
f 247 250 248
f 249 242 251
f 247 249 251
f 240 253 241
f 253 254 241
f 251 252 247
f 247 252 250
f 245 251 242
f 251 246 252
f 251 245 246
# 500 faces, 0 coords texture

# End of File
