####
#
# OBJ File Generated by Meshlab
#
####
# Object dice500.obj
#
# Vertices: 252
# Faces: 500
#
####
v -0.8971547 -0.7061508 -0.4979631
v -0.8955533 -0.5870278 0.3832245
v -0.8964841 -0.3413885 0.7833099
v -0.8938525 -0.3580506 -0.7783993
v -0.8961307 -0.4433497 0.2018764
v -0.8963596 -0.2656913 0.3575022
v -0.8874349 0.0439966 -0.8962529
v -0.8978753 -0.0572251 -0.1359982
v -0.8961731 -0.1408111 0.0544315
v -0.8975528 0.1153571 -0.1114181
v -0.8965589 0.1814544 0.8411143
v -0.8962855 0.0972225 0.1301092
v -0.8972722 0.3867042 -0.2237031
v -0.8906876 0.4688455 -0.2196908
v -0.8984715 0.3440287 -0.7841275
v -0.8978186 0.4284047 -0.5017576
v -0.8956251 0.5611405 0.6645108
v -0.8911772 0.5197610 -0.4717840
v -0.8950053 0.5636679 -0.3148693
v -0.8995865 0.8288003 -0.2019899
v -0.8982055 0.7685426 0.4027697
v -0.8161772 -0.8984671 0.2353452
v -0.8931459 -0.8332458 0.2303749
v -0.8276669 -0.2233233 0.8982171
v -0.8172711 0.2767984 -0.8952291
v -0.8937720 0.7072014 -0.5037979
v -0.8962631 -0.6450607 0.5620454
v -0.7857841 -0.5874239 0.7581942
v -0.8946259 -0.4485888 0.5172824
v -0.8978273 0.2836175 -0.4007888
v -0.8476220 -0.8942370 -0.1420291
v -0.7967730 0.2957957 0.8988652
v -0.8145682 0.8992475 -0.2467072
v -0.5995369 -0.8976778 0.6360400
v -0.7155558 0.0968303 -0.1130970
v -0.6366000 0.8971941 -0.6044867
v -0.6994144 -0.4745023 0.5090304
v -0.6820655 -0.5535598 0.2530960
v -0.5886616 -0.6189030 0.8967380
v -0.6790537 -0.2709714 0.3568142
v -0.6889253 -0.0900814 -0.1172659
v -0.6847768 -0.1267996 0.0667985
v -0.6951541 -0.0013609 0.1409368
v -0.6811085 0.1370524 0.0332850
v -0.7163258 0.3538117 -0.2381993
v -0.6838488 0.2833752 -0.4095322
v -0.6873861 0.4282386 -0.5007122
v -0.6908288 0.5707745 -0.4100951
v -0.5786838 0.6514606 0.8955504
v -0.5269918 0.8983126 0.6965425
v -0.7786100 -0.3571719 -0.8985533
v -0.6763670 0.4876996 -0.2250410
v -0.6452764 -0.7890633 0.7128011
v -0.6189069 0.6208463 -0.8965600
v -0.6619403 -0.8973657 -0.5589870
v -0.2367388 -0.8310645 0.8984851
v -0.4900217 -0.5047074 0.6862343
v -0.8247213 0.8987694 0.2348253
v -0.5047092 -0.7228798 0.4246591
v -0.6132911 -0.6334655 -0.8966510
v -0.5156162 -0.8944193 -0.3964672
v -0.4585123 -0.5464720 0.8940495
v -0.4158314 -0.1366515 0.6861781
v -0.5024073 0.0079983 0.6918921
v -0.4829756 0.0959509 0.8959264
v -0.4383683 0.5853922 0.8942185
v -0.5037918 0.7082311 -0.4915096
v -0.4887263 0.6859991 -0.3828327
v -0.5192415 0.8973636 -0.4097556
v -0.3932858 -0.8964697 -0.5876998
v -0.4763311 -0.8932838 0.5349036
v -0.4270509 -0.2760378 0.6887767
v -0.3776984 0.2857203 0.6976277
v -0.4129773 0.2925489 0.8970497
v -0.3754097 0.8935530 -0.5768942
v -0.4614396 -0.8986199 0.2983572
v -0.4216616 -0.6872588 -0.5818905
v -0.4774714 -0.6828787 0.3538202
v -0.2923734 -0.5682052 0.8961811
v -0.3942782 0.1520151 0.6901563
v -0.5136214 0.4633023 0.6831064
v -0.4436608 -0.6931260 0.5499864
v -0.4804793 -0.3306922 0.8977152
v -0.4146565 -0.1477100 0.8981327
v -0.3025107 0.6915374 -0.2870389
v -0.3289360 0.8995858 -0.7885373
v -0.4221763 -0.6802088 -0.2907169
v -0.3897686 -0.7005913 0.2878756
v -0.2939046 0.1380774 0.8971755
v -0.3239181 0.7162686 -0.5796791
v -0.2388486 0.8976545 -0.3516781
v -0.2804529 -0.8987535 0.3028409
v -0.2934982 -0.5597641 0.6844692
v -0.2344674 -0.0853398 0.6917722
v -0.0744393 0.8750695 -0.8973652
v -0.2277305 -0.8941742 -0.8348122
v -0.2107100 -0.8988925 -0.4811116
v -0.3005006 -0.8995867 -0.2849593
v -0.2412679 0.0796375 0.6862951
v -0.3224149 0.5842052 0.7218863
v -0.2124767 -0.8986174 0.4024436
v -0.2676853 -0.8989618 0.5722286
v -0.2140613 -0.6826332 -0.4449767
v -0.2294948 -0.6899843 0.3736116
v -0.2581674 -0.6878022 0.5402601
v -0.2083867 -0.3922796 0.6992239
v -0.2659839 0.3216130 0.8979175
v -0.2138136 0.4766919 0.8979305
v -0.2457698 0.6799005 -0.5217040
v -0.1256896 -0.8979157 -0.0858300
v -0.1228380 -0.9008767 0.0972135
v -0.2133056 -0.3635404 0.8958048
v -0.2064447 -0.0229610 0.8953129
v -0.2077963 0.4147214 0.6792937
v -0.1521083 -0.8994505 0.8445976
v -0.0467246 -0.8584408 -0.8986139
v -0.1606914 -0.0446733 -0.8971635
v -0.1531536 -0.0352409 -0.6901401
v -0.0561946 0.1293495 -0.6887188
v -0.1173568 -0.6935058 0.0897733
v -0.1052858 -0.6856043 -0.1044641
v -0.3856235 0.8987105 -0.2980590
v 0.0710674 -0.8978318 -0.1413111
v 0.0347826 -0.1413101 -0.6936247
v -0.0048208 0.1557136 -0.8898989
v 0.1549716 0.0420463 -0.6896961
v 0.3654225 0.8980714 0.2837797
v 0.0114077 0.8936179 0.8941600
v 0.1201859 -0.8979778 0.1226515
v 0.1111351 -0.6954547 -0.0917784
v 0.0857398 -0.6841767 0.1392983
v 0.1658932 -0.0440453 -0.8965220
v 0.2233848 -0.8982981 -0.3639997
v 0.2148843 -0.6846793 0.4333831
v 0.2375975 -0.4992797 0.6897947
v 0.2420124 -0.5163709 0.8977255
v 0.2220066 -0.3891054 0.8957726
v 0.3548271 0.7824783 0.8978252
v 0.2298667 0.8981780 0.3695635
v 0.2036967 -0.9007320 0.4418989
v 0.2747330 -0.8271400 0.3119065
v 0.2173081 -0.6944847 -0.4380361
v 0.2839377 -0.3051798 0.6893460
v 0.2358934 -0.0976760 0.7017903
v 0.2453619 -0.0854482 0.8990984
v 0.2517230 0.3179149 0.8980433
v 0.2086515 0.3911931 0.6932574
v 0.2248332 0.5003169 0.8931804
v 0.2980976 0.7957041 -0.8990937
v 0.2685044 -0.6855186 0.5414175
v 0.3913786 -0.8963785 -0.2751790
v 0.2972953 -0.5619918 0.8924481
v 0.3862126 -0.1568279 0.8980289
v 0.2906149 0.1278992 0.6877343
v 0.2863896 0.1475400 0.8972757
v 0.3328222 0.5762100 0.6824075
v 0.3990565 0.5882913 0.8980546
v 0.2916843 0.6818429 0.3051853
v 0.4013195 -0.8983557 0.2871489
v 0.3641034 -0.7794004 -0.8986316
v 0.1173160 -0.8937989 0.8915976
v 0.3456333 -0.6851372 -0.2790421
v 0.5120959 -0.6800458 -0.4000933
v 0.4158913 -0.6953064 0.2892168
v 0.3410662 -0.2857586 0.8918265
v 0.3802765 0.2871752 0.6880755
v 0.2305114 0.6798026 0.4994303
v 0.3934159 0.6855009 0.5674849
v 0.3989776 -0.6791435 -0.5802567
v 0.3588247 -0.7181367 0.5792510
v 0.3824052 -0.8959333 0.5837186
v 0.3003235 -0.8972073 -0.8126363
v 0.4251353 -0.5673468 0.8940164
v 0.3721439 -0.5734329 0.6911616
v 0.4992712 -0.0727214 0.6873162
v 0.4657503 0.0993877 0.6919178
v 0.3368937 0.8975114 0.5982671
v 0.5154358 -0.8984336 -0.4539621
v 0.3040714 -0.8871339 -0.5789704
v 0.4805098 -0.6862263 0.5124695
v 0.4337495 -0.3025360 0.6969904
v 0.5033402 -0.3840228 0.8979743
v 0.4312493 0.3045630 0.8977392
v 0.5137523 0.6924054 0.4053225
v -0.2331380 0.8979381 -0.4903260
v 0.7787322 -0.9024814 -0.3976836
v 0.5110843 -0.8975174 0.4462774
v 0.5042655 -0.4782745 0.6890313
v 0.5219081 0.4548156 0.6938797
v 0.5089382 0.8958437 0.4185129
v 0.5196558 0.0131548 0.8972472
v 0.5145890 0.4366866 0.8970022
v 0.6880738 0.5318998 0.8973279
v 0.4099535 0.8994893 -0.7497870
v 0.8046748 -0.8986548 0.3083698
v 0.5103605 -0.6947821 0.8972416
v 0.6810650 -0.5687981 0.3059967
v 0.7192354 -0.4537370 0.8988441
v 0.6817837 -0.3903712 0.2091380
v 0.6220392 -0.8954206 0.5989149
v 0.6866486 -0.7083027 -0.7643533
v 0.6860458 -0.5672528 -0.2771408
v 0.6857372 -0.4376142 -0.5289778
v 0.6946189 -0.3002509 -0.2463818
v 0.6913930 -0.3107047 0.4507173
v 0.6957761 0.4469545 -0.5342809
v 0.6802716 0.3393759 0.2322234
v 0.6869951 0.3119963 -0.2519490
v 0.6768746 0.5703485 -0.8959147
v 0.6846850 0.5721264 0.3108737
v 0.6938685 0.5794272 -0.3205714
v 0.6824961 0.5285080 0.4626125
v 0.7321764 0.6701861 -0.7572150
v 0.8964733 0.4648350 0.5140741
v 0.8966925 -0.5587645 0.2791727
v 0.7691671 -0.6128581 0.7564317
v 0.8367722 0.2409033 0.8982864
v 0.6840382 0.3556744 0.4875970
v 0.6382970 0.8952228 0.6060500
v 0.8950408 -0.3680364 0.5006475
v 0.8454576 0.0727910 -0.8991258
v 0.7568856 0.9002467 -0.4191235
v 0.8984052 -0.8521508 0.1595412
v 0.6922808 -0.5389932 0.4765530
v 0.8984927 -0.3916168 0.2100773
v 0.8180089 -0.3013632 0.8863424
v 0.8402784 -0.1470458 0.9005493
v 0.9004151 0.2745300 -0.3876573
v 0.8997926 0.4541187 -0.5171247
v 0.8433385 0.8993489 0.2256317
v 0.8872959 -0.6620356 0.5718178
v 0.8901510 -0.4620672 -0.7399654
v 0.8981620 -0.3465281 0.7834815
v 0.7654434 -0.4289745 -0.8985822
v 0.9012551 -0.0717805 -0.8506604
v 0.9000280 -0.0388639 0.8479968
v 0.9007351 0.4554464 -0.2049761
v 0.9026550 0.7501315 -0.4260789
v 0.8962735 -0.7672836 -0.4082877
v 0.8983521 -0.5315285 0.4800127
v 0.9036896 -0.5439380 -0.4744552
v 0.8976131 -0.5759001 -0.3169237
v 0.8987883 -0.3194541 -0.2445543
v 0.8975385 -0.2745390 0.3643152
v 0.8993886 -0.3321463 -0.4889192
v 0.8989524 0.2884348 0.3823370
v 0.9006630 0.3690961 0.2167226
v 0.9008144 0.3318950 -0.7890469
v 0.8921051 0.5791993 -0.3465038
v 0.8990243 0.4556877 0.7442549
v 0.9000641 0.5810570 0.3122225
v 0.9020442 0.8272766 0.2510594
# 252 vertices, 0 vertices normals

f 23 1 31
f 2 1 23
f 2 23 27
f 5 1 2
f 27 29 2
f 8 1 5
f 9 8 5
f 3 29 27
f 6 29 3
f 15 4 1
f 15 1 8
f 7 4 15
f 8 9 41
f 9 5 12
f 12 5 6
f 11 6 3
f 30 15 8
f 12 6 11
f 13 8 10
f 13 10 12
f 13 30 8
f 16 15 30
f 17 12 11
f 21 13 12
f 17 21 12
f 19 14 13
f 20 26 15
f 20 15 16
f 16 18 19
f 16 19 13
f 13 20 16
f 20 13 21
f 22 23 31
f 28 3 27
f 4 60 1
f 51 4 7
f 11 3 24
f 9 12 43
f 25 7 15
f 30 13 45
f 26 54 15
f 18 48 19
f 20 58 33
f 21 58 20
f 60 55 1
f 2 38 5
f 60 4 51
f 41 10 8
f 35 10 41
f 24 32 11
f 47 16 30
f 14 45 13
f 32 17 11
f 36 26 33
f 26 20 33
f 31 1 55
f 34 23 22
f 34 27 23
f 37 2 29
f 5 38 40
f 24 3 28
f 40 6 5
f 29 6 37
f 37 6 40
f 10 44 12
f 15 54 25
f 47 18 16
f 48 18 47
f 52 14 19
f 36 54 26
f 58 21 50
f 53 27 34
f 27 53 28
f 37 38 2
f 42 41 9
f 42 9 43
f 44 43 12
f 35 44 10
f 46 30 45
f 46 47 30
f 14 52 45
f 49 17 32
f 50 21 17
f 53 39 28
f 24 28 39
f 52 19 48
f 40 38 37
f 44 41 42
f 44 35 41
f 52 46 45
f 48 47 46
f 46 52 48
f 49 50 17
f 83 24 39
f 32 24 83
f 44 42 43
f 74 49 32
f 22 76 34
f 83 39 62
f 25 117 7
f 25 54 117
f 122 33 58
f 65 74 32
f 66 49 74
f 61 31 55
f 76 71 34
f 69 36 33
f 61 98 31
f 98 22 31
f 71 115 34
f 62 39 56
f 84 32 83
f 84 65 32
f 55 70 61
f 98 76 22
f 71 102 115
f 59 76 88
f 76 59 71
f 70 77 61
f 59 88 78
f 34 56 53
f 59 82 71
f 56 39 53
f 61 77 87
f 59 78 82
f 62 56 79
f 57 83 62
f 57 72 83
f 63 64 84
f 84 64 65
f 64 80 65
f 81 66 74
f 36 86 54
f 67 69 68
f 33 122 69
f 50 122 58
f 55 60 96
f 7 117 51
f 73 81 74
f 128 49 66
f 68 109 67
f 75 69 67
f 85 68 69
f 75 86 36
f 36 69 75
f 87 98 61
f 105 82 78
f 62 93 57
f 95 117 54
f 100 66 81
f 109 90 67
f 75 67 90
f 69 122 85
f 96 70 55
f 82 102 71
f 62 79 93
f 117 60 51
f 84 83 112
f 80 89 65
f 74 65 89
f 89 107 74
f 68 85 109
f 54 86 95
f 98 111 76
f 111 92 76
f 115 56 34
f 92 88 76
f 102 82 105
f 88 104 78
f 104 105 78
f 112 83 72
f 99 80 64
f 114 100 81
f 108 128 66
f 128 50 49
f 122 91 85
f 185 86 75
f 96 60 116
f 103 87 77
f 72 57 93
f 94 63 84
f 99 64 63
f 107 73 74
f 114 81 73
f 96 97 70
f 97 77 70
f 87 103 98
f 104 88 92
f 106 112 72
f 113 94 84
f 63 94 99
f 89 80 99
f 114 73 107
f 66 100 108
f 90 185 75
f 110 111 98
f 104 92 101
f 103 77 97
f 106 93 79
f 106 79 112
f 72 93 106
f 117 116 60
f 113 89 99
f 108 114 107
f 100 114 108
f 109 185 90
f 50 139 122
f 123 110 98
f 92 111 101
f 98 103 97
f 105 101 102
f 104 101 105
f 99 94 113
f 91 185 109
f 91 109 85
f 132 116 117
f 122 185 91
f 97 123 98
f 110 120 111
f 110 121 120
f 161 79 56
f 129 101 111
f 120 121 131
f 145 84 112
f 145 113 84
f 117 125 118
f 118 125 119
f 111 120 131
f 136 79 161
f 79 145 112
f 155 113 145
f 155 89 113
f 146 108 107
f 95 149 117
f 96 172 97
f 129 140 101
f 96 116 172
f 131 129 111
f 123 121 110
f 136 145 79
f 124 132 117
f 124 117 118
f 155 107 89
f 140 102 101
f 130 121 123
f 118 119 124
f 132 125 117
f 146 107 155
f 128 139 50
f 97 133 123
f 140 115 102
f 119 126 124
f 125 126 119
f 108 138 128
f 130 131 121
f 132 160 116
f 127 122 139
f 128 177 139
f 56 115 161
f 137 145 136
f 124 126 132
f 125 132 126
f 194 95 86
f 161 115 140
f 130 123 129
f 130 129 131
f 157 108 146
f 129 159 140
f 160 172 116
f 196 136 161
f 117 149 132
f 148 157 146
f 138 108 157
f 179 142 133
f 137 136 135
f 155 145 144
f 147 148 146
f 172 133 97
f 140 159 141
f 171 161 140
f 141 134 140
f 150 140 134
f 142 162 133
f 169 142 179
f 136 152 135
f 143 137 135
f 155 144 154
f 147 156 148
f 139 167 158
f 167 139 177
f 171 140 150
f 133 162 151
f 164 134 141
f 162 142 169
f 135 152 174
f 143 135 174
f 143 165 137
f 145 137 165
f 165 153 145
f 153 144 145
f 148 156 157
f 139 158 127
f 127 185 122
f 133 151 123
f 170 171 150
f 150 180 170
f 188 143 174
f 175 154 144
f 166 147 146
f 166 156 147
f 177 168 167
f 194 149 95
f 185 194 86
f 172 179 133
f 141 159 164
f 134 180 150
f 173 152 136
f 173 174 152
f 160 132 234
f 149 234 132
f 183 166 146
f 219 128 138
f 128 219 177
f 164 180 134
f 162 169 163
f 143 181 165
f 182 153 165
f 153 175 144
f 158 167 168
f 168 184 158
f 194 209 149
f 170 180 171
f 188 174 173
f 182 165 181
f 176 154 175
f 154 176 155
f 183 146 155
f 189 157 156
f 193 138 157
f 184 127 158
f 230 185 127
f 172 178 179
f 151 159 123
f 123 159 129
f 162 163 151
f 201 172 160
f 187 171 180
f 196 173 136
f 181 143 188
f 176 191 155
f 149 221 234
f 191 183 155
f 166 183 189
f 166 189 156
f 184 168 177
f 184 190 127
f 184 177 190
f 219 190 177
f 186 178 172
f 200 171 187
f 171 200 161
f 178 169 179
f 163 178 151
f 163 169 178
f 187 164 159
f 180 164 187
f 182 188 173
f 181 188 182
f 153 191 175
f 176 175 191
f 183 192 189
f 157 189 192
f 200 196 161
f 191 153 182
f 193 219 138
f 194 213 209
f 222 194 185
f 201 186 172
f 201 160 234
f 182 173 196
f 227 191 182
f 227 183 191
f 193 157 192
f 222 213 194
f 190 230 127
f 178 186 151
f 151 186 159
f 195 200 187
f 217 183 227
f 217 192 183
f 149 209 221
f 230 190 219
f 200 216 196
f 198 227 182
f 159 195 187
f 182 196 198
f 193 192 217
f 222 185 230
f 196 216 198
f 203 204 202
f 197 199 205
f 197 205 224
f 212 218 207
f 206 211 208
f 212 207 210
f 213 222 238
f 232 201 234
f 199 244 205
f 218 246 207
f 210 207 251
f 212 214 218
f 241 203 202
f 242 241 202
f 198 216 226
f 205 220 224
f 227 198 226
f 204 203 245
f 206 208 228
f 207 246 247
f 228 229 206
f 237 208 211
f 206 249 211
f 251 212 210
f 186 195 159
f 195 223 231
f 231 200 195
f 200 231 216
f 245 203 241
f 217 250 193
f 251 207 247
f 252 230 219
f 201 239 186
f 232 239 201
f 197 215 199
f 231 233 216
f 199 215 225
f 240 224 220
f 233 226 216
f 225 244 199
f 245 243 204
f 221 209 248
f 248 209 213
f 229 249 206
f 237 211 249
f 251 214 212
f 250 219 193
f 223 186 239
f 223 195 186
f 215 197 224
f 240 215 224
f 243 242 202
f 204 243 202
f 220 205 244
f 235 232 234
f 226 233 236
f 236 227 226
f 235 234 221
f 227 236 217
f 221 248 235
f 208 237 228
f 214 246 218
f 238 248 213
f 250 252 219
f 238 222 230
f 252 238 230
f 239 242 223
f 241 242 239
f 223 240 231
f 242 243 223
f 215 240 223
f 232 241 239
f 243 225 223
f 223 225 215
f 240 233 231
f 241 235 245
f 232 235 241
f 220 233 240
f 220 244 233
f 225 247 244
f 235 228 245
f 244 236 233
f 244 247 246
f 246 236 244
f 246 250 236
f 235 229 228
f 245 247 243
f 243 247 225
f 250 217 236
f 228 247 245
f 235 248 229
f 228 237 247
f 246 214 250
f 248 238 229
f 214 252 250
f 252 214 251
f 229 238 249
f 249 238 237
f 237 252 247
f 247 252 251
f 238 252 237
# 500 faces, 0 coords texture

# End of File
