####
#
# OBJ File Generated by Meshlab
#
####
# Object dice520.obj
#
# Vertices: 262
# Faces: 520
#
####
v -0.8971547 -0.7061508 -0.4979631
v -0.8955533 -0.5870278 0.3832245
v -0.8964841 -0.3413885 0.7833099
v -0.8938525 -0.3580506 -0.7783993
v -0.8961307 -0.4433497 0.2018764
v -0.8963596 -0.2656913 0.3575022
v -0.8874349 0.0439966 -0.8962529
v -0.8978753 -0.0572251 -0.1359982
v -0.8961731 -0.1408111 0.0544315
v -0.8975528 0.1153571 -0.1114181
v -0.8965589 0.1814544 0.8411143
v -0.8962855 0.0972225 0.1301092
v -0.8972722 0.3867042 -0.2237031
v -0.8906876 0.4688455 -0.2196908
v -0.8984715 0.3440287 -0.7841275
v -0.8978186 0.4284047 -0.5017576
v -0.8956251 0.5611405 0.6645108
v -0.8911772 0.5197610 -0.4717840
v -0.8950053 0.5636679 -0.3148693
v -0.8995865 0.8288003 -0.2019899
v -0.8982055 0.7685426 0.4027697
v -0.8161772 -0.8984671 0.2353452
v -0.8931459 -0.8332458 0.2303749
v -0.8276669 -0.2233233 0.8982171
v -0.8172711 0.2767984 -0.8952291
v -0.8937720 0.7072014 -0.5037979
v -0.8962631 -0.6450607 0.5620454
v -0.7857841 -0.5874239 0.7581942
v -0.8946259 -0.4485888 0.5172824
v -0.8978273 0.2836175 -0.4007888
v -0.8476220 -0.8942370 -0.1420291
v -0.7967730 0.2957957 0.8988652
v -0.8145682 0.8992475 -0.2467072
v -0.5995369 -0.8976778 0.6360400
v -0.6845368 -0.5727610 0.3119326
v -0.7155558 0.0968303 -0.1130970
v -0.6366000 0.8971941 -0.6044867
v -0.6994144 -0.4745023 0.5090304
v -0.6850780 -0.4322286 0.2183964
v -0.5886616 -0.6189030 0.8967380
v -0.6830986 -0.2971024 0.2924923
v -0.6889253 -0.0900814 -0.1172659
v -0.6847768 -0.1267996 0.0667985
v -0.6951541 -0.0013609 0.1409368
v -0.6811085 0.1370524 0.0332850
v -0.7163258 0.3538117 -0.2381993
v -0.6838488 0.2833752 -0.4095322
v -0.6873861 0.4282386 -0.5007122
v -0.6908288 0.5707745 -0.4100951
v -0.5786838 0.6514606 0.8955504
v -0.5269918 0.8983126 0.6965425
v -0.7786100 -0.3571719 -0.8985533
v -0.6799012 -0.3158998 0.4433809
v -0.6763670 0.4876996 -0.2250410
v -0.6452764 -0.7890633 0.7128011
v -0.6189069 0.6208463 -0.8965600
v -0.6619403 -0.8973657 -0.5589870
v -0.2367388 -0.8310645 0.8984851
v -0.4900217 -0.5047074 0.6862343
v -0.8247213 0.8987694 0.2348253
v -0.5047092 -0.7228798 0.4246591
v -0.6132911 -0.6334655 -0.8966510
v -0.5156162 -0.8944193 -0.3964672
v -0.4585123 -0.5464720 0.8940495
v -0.4158314 -0.1366515 0.6861781
v -0.5024073 0.0079983 0.6918921
v -0.4829756 0.0959509 0.8959264
v -0.4383683 0.5853922 0.8942185
v -0.5037918 0.7082311 -0.4915096
v -0.4887263 0.6859991 -0.3828327
v -0.5192415 0.8973636 -0.4097556
v -0.3932858 -0.8964697 -0.5876998
v -0.4763311 -0.8932838 0.5349036
v -0.4270509 -0.2760378 0.6887767
v -0.3776984 0.2857203 0.6976277
v -0.4129773 0.2925489 0.8970497
v -0.3754097 0.8935530 -0.5768942
v -0.4614396 -0.8986199 0.2983572
v -0.4216616 -0.6872588 -0.5818905
v -0.4774714 -0.6828787 0.3538202
v -0.2923734 -0.5682052 0.8961811
v -0.3942782 0.1520151 0.6901563
v -0.5136214 0.4633023 0.6831064
v -0.4436608 -0.6931260 0.5499864
v -0.4804793 -0.3306922 0.8977152
v -0.4146565 -0.1477100 0.8981327
v -0.3025107 0.6915374 -0.2870389
v -0.3289360 0.8995858 -0.7885373
v -0.4221763 -0.6802088 -0.2907169
v -0.3897686 -0.7005913 0.2878756
v -0.2939046 0.1380774 0.8971755
v -0.3239181 0.7162686 -0.5796791
v -0.1860954 0.8338373 0.8984761
v -0.2388486 0.8976545 -0.3516781
v -0.2804529 -0.8987535 0.3028409
v -0.2934982 -0.5597641 0.6844692
v -0.2344674 -0.0853398 0.6917722
v -0.0744393 0.8750695 -0.8973652
v -0.2277305 -0.8941742 -0.8348122
v -0.2107100 -0.8988925 -0.4811116
v -0.3005006 -0.8995867 -0.2849593
v -0.1370007 0.0610495 -0.8975514
v -0.2412679 0.0796375 0.6862951
v -0.3224149 0.5842052 0.7218863
v -0.2124767 -0.8986174 0.4024436
v -0.2676853 -0.8989618 0.5722286
v -0.2140613 -0.6826332 -0.4449767
v -0.2294948 -0.6899843 0.3736116
v -0.2581674 -0.6878022 0.5402601
v -0.2083867 -0.3922796 0.6992239
v -0.2659839 0.3216130 0.8979175
v -0.2138136 0.4766919 0.8979305
v -0.2457698 0.6799005 -0.5217040
v -0.1256896 -0.8979157 -0.0858300
v -0.1228380 -0.9008767 0.0972135
v -0.2133056 -0.3635404 0.8958048
v -0.2064447 -0.0229610 0.8953129
v -0.2077963 0.4147214 0.6792937
v -0.1521083 -0.8994505 0.8445976
v -0.0467246 -0.8584408 -0.8986139
v -0.1157713 -0.0965173 -0.8946279
v -0.1531536 -0.0352409 -0.6901401
v -0.0561946 0.1293495 -0.6887188
v -0.1173568 -0.6935058 0.0897733
v -0.1052858 -0.6856043 -0.1044641
v -0.3856235 0.8987105 -0.2980590
v 0.0710674 -0.8978318 -0.1413111
v 0.0347826 -0.1413101 -0.6936247
v -0.0048208 0.1557136 -0.8898989
v 0.1549716 0.0420463 -0.6896961
v 0.3654225 0.8980714 0.2837797
v 0.1261851 0.8986700 0.8535431
v 0.1201859 -0.8979778 0.1226515
v 0.1111351 -0.6954547 -0.0917784
v 0.0857398 -0.6841767 0.1392983
v 0.0745471 -0.1336363 -0.8974352
v 0.1563453 0.0307964 -0.8970436
v 0.2233848 -0.8982981 -0.3639997
v 0.2148843 -0.6846793 0.4333831
v 0.2375975 -0.4992797 0.6897947
v 0.2420124 -0.5163709 0.8977255
v 0.2220066 -0.3891054 0.8957726
v 0.3548271 0.7824783 0.8978252
v 0.2298667 0.8981780 0.3695635
v 0.2036967 -0.9007320 0.4418989
v 0.2747330 -0.8271400 0.3119065
v 0.2173081 -0.6944847 -0.4380361
v 0.2839377 -0.3051798 0.6893460
v 0.2358934 -0.0976760 0.7017903
v 0.2453619 -0.0854482 0.8990984
v 0.2517230 0.3179149 0.8980433
v 0.2086515 0.3911931 0.6932574
v 0.2248332 0.5003169 0.8931804
v 0.2980976 0.7957041 -0.8990937
v 0.2685044 -0.6855186 0.5414175
v 0.3913786 -0.8963785 -0.2751790
v 0.2972953 -0.5619918 0.8924481
v 0.3862126 -0.1568279 0.8980289
v 0.2906149 0.1278992 0.6877343
v 0.2863896 0.1475400 0.8972757
v 0.3328222 0.5762100 0.6824075
v 0.3990565 0.5882913 0.8980546
v 0.2916843 0.6818429 0.3051853
v 0.4013195 -0.8983557 0.2871489
v 0.3641034 -0.7794004 -0.8986316
v 0.2667839 -0.8099436 0.8994733
v 0.3456333 -0.6851372 -0.2790421
v 0.5120959 -0.6800458 -0.4000933
v 0.4158913 -0.6953064 0.2892168
v 0.3410662 -0.2857586 0.8918265
v 0.3802765 0.2871752 0.6880755
v 0.2305114 0.6798026 0.4994303
v 0.3934159 0.6855009 0.5674849
v 0.3446200 -0.8989730 0.7796141
v 0.3989776 -0.6791435 -0.5802567
v 0.3588247 -0.7181367 0.5792510
v 0.3824052 -0.8959333 0.5837186
v 0.3003235 -0.8972073 -0.8126363
v 0.4251353 -0.5673468 0.8940164
v 0.3721439 -0.5734329 0.6911616
v 0.4992712 -0.0727214 0.6873162
v 0.4657503 0.0993877 0.6919178
v 0.3368937 0.8975114 0.5982671
v 0.5154358 -0.8984336 -0.4539621
v 0.3040714 -0.8871339 -0.5789704
v 0.4805098 -0.6862263 0.5124695
v 0.4337495 -0.3025360 0.6969904
v 0.5033402 -0.3840228 0.8979743
v 0.4312493 0.3045630 0.8977392
v 0.5137523 0.6924054 0.4053225
v -0.2331380 0.8979381 -0.4903260
v 0.7787322 -0.9024814 -0.3976836
v 0.5110843 -0.8975174 0.4462774
v 0.5042655 -0.4782745 0.6890313
v 0.5219081 0.4548156 0.6938797
v 0.5089382 0.8958437 0.4185129
v 0.5196558 0.0131548 0.8972472
v 0.5145890 0.4366866 0.8970022
v 0.6880738 0.5318998 0.8973279
v 0.4099535 0.8994893 -0.7497870
v 0.8046748 -0.8986548 0.3083698
v 0.5103605 -0.6947821 0.8972416
v 0.6810650 -0.5687981 0.3059967
v 0.7192354 -0.4537370 0.8988441
v 0.6817837 -0.3903712 0.2091380
v 0.6220392 -0.8954206 0.5989149
v 0.6866486 -0.7083027 -0.7643533
v 0.6860458 -0.5672528 -0.2771408
v 0.7125092 -0.4899336 -0.5075133
v 0.6828170 -0.3875558 -0.5092629
v 0.6899155 -0.3807755 -0.2236335
v 0.6913930 -0.3107047 0.4507173
v 0.7037260 -0.2846796 -0.3552530
v 0.6957761 0.4469545 -0.5342809
v 0.6802716 0.3393759 0.2322234
v 0.6919600 0.2868803 -0.3150833
v 0.6889741 0.4123067 -0.2186166
v 0.6768746 0.5703485 -0.8959147
v 0.6846850 0.5721264 0.3108737
v 0.6938685 0.5794272 -0.3205714
v 0.6824961 0.5285080 0.4626125
v 0.7321764 0.6701861 -0.7572150
v 0.8964733 0.4648350 0.5140741
v 0.8966925 -0.5587645 0.2791727
v 0.7691671 -0.6128581 0.7564317
v 0.8367722 0.2409033 0.8982864
v 0.6840382 0.3556744 0.4875970
v 0.6382970 0.8952228 0.6060500
v 0.8950408 -0.3680364 0.5006475
v 0.8454576 0.0727910 -0.8991258
v 0.7568856 0.9002467 -0.4191235
v 0.8984052 -0.8521508 0.1595412
v 0.6922808 -0.5389932 0.4765530
v 0.8984927 -0.3916168 0.2100773
v 0.8180089 -0.3013632 0.8863424
v 0.8402784 -0.1470458 0.9005493
v 0.9004151 0.2745300 -0.3876573
v 0.8997926 0.4541187 -0.5171247
v 0.8433385 0.8993489 0.2256317
v 0.8872959 -0.6620356 0.5718178
v 0.8901510 -0.4620672 -0.7399654
v 0.8981620 -0.3465281 0.7834815
v 0.7654434 -0.4289745 -0.8985822
v 0.9012551 -0.0717805 -0.8506604
v 0.9000280 -0.0388639 0.8479968
v 0.9007351 0.4554464 -0.2049761
v 0.9026550 0.7501315 -0.4260789
v 0.8962735 -0.7672836 -0.4082877
v 0.8983521 -0.5315285 0.4800127
v 0.9036896 -0.5439380 -0.4744552
v 0.8976131 -0.5759001 -0.3169237
v 0.8999229 -0.2875090 -0.3281087
v 0.8985413 -0.3833658 -0.2073138
v 0.8975385 -0.2745390 0.3643152
v 0.8993886 -0.3321463 -0.4889192
v 0.8989524 0.2884348 0.3823370
v 0.9006630 0.3690961 0.2167226
v 0.9008144 0.3318950 -0.7890469
v 0.8921051 0.5791993 -0.3465038
v 0.8990243 0.4556877 0.7442549
v 0.9000641 0.5810570 0.3122225
v 0.9020442 0.8272766 0.2510594
# 262 vertices, 0 vertices normals

f 23 1 31
f 2 1 23
f 2 23 27
f 5 1 2
f 27 29 2
f 8 1 5
f 9 8 5
f 3 29 27
f 6 29 3
f 15 4 1
f 15 1 8
f 7 4 15
f 8 9 42
f 9 5 12
f 12 5 6
f 11 6 3
f 30 15 8
f 12 6 11
f 13 8 10
f 13 10 12
f 13 30 8
f 16 15 30
f 17 12 11
f 21 13 12
f 17 21 12
f 19 14 13
f 20 26 15
f 20 15 16
f 16 18 19
f 16 19 13
f 13 20 16
f 20 13 21
f 22 23 31
f 28 3 27
f 4 62 1
f 52 4 7
f 11 3 24
f 9 12 44
f 25 7 15
f 30 13 46
f 26 56 15
f 18 49 19
f 20 60 33
f 21 60 20
f 62 57 1
f 2 35 5
f 62 4 52
f 42 10 8
f 36 10 42
f 24 32 11
f 48 16 30
f 14 46 13
f 32 17 11
f 37 26 33
f 26 20 33
f 31 1 57
f 34 23 22
f 34 27 23
f 38 2 29
f 5 39 41
f 24 3 28
f 41 6 5
f 29 6 38
f 38 6 53
f 10 45 12
f 15 56 25
f 48 18 16
f 49 18 48
f 54 14 19
f 37 56 26
f 60 21 51
f 55 27 34
f 27 55 28
f 38 35 2
f 5 35 39
f 43 42 9
f 43 9 44
f 45 44 12
f 36 45 10
f 47 30 46
f 47 48 30
f 14 54 46
f 50 17 32
f 51 21 17
f 55 40 28
f 24 28 40
f 41 53 6
f 54 19 49
f 53 35 38
f 41 35 53
f 45 42 43
f 45 36 42
f 54 47 46
f 49 48 47
f 47 54 49
f 50 51 17
f 35 41 39
f 85 24 40
f 32 24 85
f 45 43 44
f 76 50 32
f 22 78 34
f 85 40 64
f 25 102 7
f 25 56 102
f 126 33 60
f 67 76 32
f 68 50 76
f 63 31 57
f 78 73 34
f 71 37 33
f 63 101 31
f 101 22 31
f 73 119 34
f 64 40 58
f 86 32 85
f 86 67 32
f 57 72 63
f 101 78 22
f 73 106 119
f 61 78 90
f 78 61 73
f 72 79 63
f 61 90 80
f 34 58 55
f 61 84 73
f 58 40 55
f 63 79 89
f 61 80 84
f 64 58 81
f 59 85 64
f 59 74 85
f 65 66 86
f 86 66 67
f 66 82 67
f 83 68 76
f 37 88 56
f 69 71 70
f 33 126 71
f 51 126 60
f 57 62 99
f 7 102 52
f 75 83 76
f 93 50 68
f 70 113 69
f 77 71 69
f 87 70 71
f 77 88 37
f 37 71 77
f 89 101 63
f 109 84 80
f 64 96 59
f 98 102 56
f 104 68 83
f 113 92 69
f 77 69 92
f 71 126 87
f 99 72 57
f 84 106 73
f 64 81 96
f 102 62 52
f 86 85 116
f 82 91 67
f 76 67 91
f 91 111 76
f 70 87 113
f 56 88 98
f 101 115 78
f 115 95 78
f 119 58 34
f 95 90 78
f 106 84 109
f 90 108 80
f 108 109 80
f 116 85 74
f 103 82 66
f 118 104 83
f 112 93 68
f 93 51 50
f 126 94 87
f 191 88 77
f 99 62 120
f 107 89 79
f 74 59 96
f 97 65 86
f 103 66 65
f 111 75 76
f 118 83 75
f 99 100 72
f 100 79 72
f 89 107 101
f 108 90 95
f 110 116 74
f 117 97 86
f 65 97 103
f 91 82 103
f 118 75 111
f 68 104 112
f 92 191 77
f 114 115 101
f 108 95 105
f 107 79 100
f 110 96 81
f 110 81 116
f 74 96 110
f 102 120 62
f 117 91 103
f 112 118 111
f 104 118 112
f 113 191 92
f 51 144 126
f 127 114 101
f 95 115 105
f 101 107 100
f 109 105 106
f 108 105 109
f 103 97 117
f 94 191 113
f 94 113 87
f 136 120 102
f 102 121 136
f 132 51 93
f 126 191 94
f 100 127 101
f 114 124 115
f 114 125 124
f 166 81 58
f 121 102 122
f 133 105 115
f 124 125 135
f 150 86 116
f 150 117 86
f 102 129 122
f 122 129 123
f 115 124 135
f 141 81 166
f 81 150 116
f 160 117 150
f 160 91 117
f 151 112 111
f 98 154 102
f 99 178 100
f 133 145 105
f 99 120 178
f 135 133 115
f 127 125 114
f 141 150 81
f 128 136 121
f 128 121 122
f 160 111 91
f 145 106 105
f 134 125 127
f 122 123 128
f 137 129 102
f 151 111 160
f 132 144 51
f 100 138 127
f 145 119 106
f 123 130 128
f 129 130 123
f 112 143 93
f 134 135 125
f 136 165 120
f 93 143 132
f 131 126 144
f 132 183 144
f 58 119 166
f 142 150 141
f 128 130 136
f 129 137 130
f 200 98 88
f 174 119 145
f 134 127 133
f 134 133 135
f 136 130 137
f 162 112 151
f 133 164 145
f 165 178 120
f 174 166 119
f 202 141 166
f 102 154 137
f 153 162 151
f 143 112 162
f 185 147 138
f 142 141 140
f 160 150 149
f 152 153 151
f 178 138 100
f 145 164 146
f 177 174 145
f 146 139 145
f 155 145 139
f 147 167 138
f 175 147 185
f 141 157 140
f 148 142 140
f 160 149 159
f 152 161 153
f 144 172 163
f 172 144 183
f 177 145 155
f 138 167 156
f 169 139 146
f 167 147 175
f 140 157 180
f 148 140 180
f 148 170 142
f 150 142 170
f 170 158 150
f 158 149 150
f 153 161 162
f 144 163 131
f 131 191 126
f 138 156 127
f 176 177 155
f 155 186 176
f 194 148 180
f 137 243 136
f 181 159 149
f 171 152 151
f 171 161 152
f 183 173 172
f 200 154 98
f 191 200 88
f 178 185 138
f 146 164 169
f 139 186 155
f 179 157 141
f 179 180 157
f 165 136 243
f 154 243 137
f 189 171 151
f 228 132 143
f 132 228 183
f 169 186 139
f 167 175 168
f 148 187 170
f 188 158 170
f 158 181 149
f 163 172 173
f 173 190 163
f 200 218 154
f 174 202 166
f 176 186 177
f 194 180 179
f 188 170 187
f 182 159 181
f 159 182 160
f 189 151 160
f 195 162 161
f 199 143 162
f 190 131 163
f 239 191 131
f 178 184 185
f 156 164 127
f 127 164 133
f 167 168 156
f 207 178 165
f 193 177 186
f 202 179 141
f 187 148 194
f 182 197 160
f 154 230 243
f 197 189 160
f 171 189 195
f 171 195 161
f 190 173 183
f 190 196 131
f 190 183 196
f 228 196 183
f 192 184 178
f 206 177 193
f 177 206 174
f 184 175 185
f 168 184 156
f 168 175 184
f 193 169 164
f 186 169 193
f 188 194 179
f 187 194 188
f 158 197 181
f 182 181 197
f 189 198 195
f 162 195 198
f 206 202 174
f 197 158 188
f 199 228 143
f 200 222 218
f 231 200 191
f 207 192 178
f 207 165 243
f 188 179 202
f 236 197 188
f 236 189 197
f 199 162 198
f 231 222 200
f 196 239 131
f 184 192 156
f 156 192 164
f 201 206 193
f 226 189 236
f 226 198 189
f 154 218 230
f 239 196 228
f 206 225 202
f 204 236 188
f 164 201 193
f 188 202 204
f 199 198 226
f 231 191 239
f 210 208 209
f 202 225 204
f 210 211 208
f 203 205 212
f 203 212 233
f 210 213 211
f 221 227 215
f 214 220 217
f 214 217 216
f 221 215 219
f 222 231 247
f 241 207 243
f 213 253 211
f 252 253 213
f 205 254 212
f 227 256 215
f 217 246 216
f 219 215 261
f 221 223 227
f 250 209 208
f 251 250 208
f 204 225 235
f 212 229 233
f 255 210 209
f 236 204 235
f 213 210 255
f 214 216 237
f 215 256 257
f 237 238 214
f 246 217 220
f 214 259 220
f 261 221 219
f 192 201 164
f 201 232 240
f 240 206 201
f 206 240 225
f 255 209 250
f 226 260 199
f 261 215 257
f 262 239 228
f 207 248 192
f 241 248 207
f 203 224 205
f 240 242 225
f 205 224 234
f 249 233 229
f 242 235 225
f 234 254 205
f 255 252 213
f 230 218 258
f 258 218 222
f 238 259 214
f 246 220 259
f 261 223 221
f 260 228 199
f 232 192 248
f 232 201 192
f 224 203 233
f 249 224 233
f 253 251 208
f 211 253 208
f 229 212 254
f 244 241 243
f 235 242 245
f 245 236 235
f 244 243 230
f 236 245 226
f 230 258 244
f 216 246 237
f 223 256 227
f 247 258 222
f 260 262 228
f 247 231 239
f 262 247 239
f 248 251 232
f 250 251 248
f 232 249 240
f 251 253 232
f 224 249 232
f 241 250 248
f 253 234 232
f 232 234 224
f 249 242 240
f 250 244 255
f 241 244 250
f 229 242 249
f 229 254 242
f 252 234 253
f 234 257 254
f 244 237 255
f 254 245 242
f 254 257 256
f 256 245 254
f 256 260 245
f 244 238 237
f 255 257 252
f 252 257 234
f 260 226 245
f 237 257 255
f 244 258 238
f 237 246 257
f 256 223 260
f 258 247 238
f 223 262 260
f 262 223 261
f 238 247 259
f 259 247 246
f 246 262 257
f 257 262 261
f 247 262 246
# 520 faces, 0 coords texture

# End of File
