####
#
# OBJ File Generated by Meshlab
#
####
# Object double_torus500.obj
#
# Vertices: 248
# Faces: 500
#
####
v -0.4273506 -0.0448379 -0.4543469
v -0.4316839 -0.0469218 0.4675375
v -0.4323347 -0.0112572 0.5317423
v -0.4264903 -0.0043045 -0.5754869
v -0.4281498 0.0643330 -0.4698343
v -0.4121424 0.0857911 0.4980721
v -0.4137226 -0.0744136 0.5300279
v -0.3837082 -0.0897326 -0.6143634
v -0.3900713 -0.0965590 0.3709485
v -0.4058572 0.0100182 0.3209644
v -0.3748087 -0.1184587 0.5307266
v -0.3861737 -0.0730002 0.6330170
v -0.3800916 0.0130029 -0.6909190
v -0.4070142 0.0034512 -0.3232709
v -0.3386588 0.0999419 0.6899265
v -0.3654338 0.1276075 -0.4012992
v -0.3525620 -0.1300981 -0.5463779
v -0.3770770 -0.1142922 -0.4271172
v -0.3203878 -0.1368245 0.5805097
v -0.3967234 0.0584839 -0.3279457
v -0.3070374 0.0423774 0.0608324
v -0.3997644 0.0306131 0.6432467
v -0.3729577 0.0990354 0.3567214
v -0.3680813 0.1234887 0.4991137
v -0.3851777 0.1021753 -0.5820737
v -0.2941802 -0.1361972 -0.3645049
v -0.3037928 -0.1207745 0.6952990
v -0.3432166 -0.0609479 0.7209840
v -0.3786168 -0.0625346 -0.2884122
v -0.3182025 0.0048241 -0.0616869
v -0.3047185 0.1364718 0.3435411
v -0.3178859 0.1381804 -0.4033081
v -0.3207640 -0.0288507 0.0957014
v -0.2299115 0.1020251 -0.7960441
v -0.2988671 0.0985843 -0.7426276
v -0.2836562 -0.1391222 -0.6154402
v -0.1970457 -0.1317439 0.2357254
v -0.2862374 -0.1006299 -0.7500940
v -0.3233348 -0.1376441 0.4265839
v -0.2840190 -0.0419676 -0.7937339
v -0.2754123 0.0514772 -0.7994894
v -0.2646479 0.0951678 -0.0012364
v -0.2991706 0.1320885 0.2700626
v -0.2912434 -0.1247227 0.2285646
v -0.2763951 -0.1220352 0.5199718
v -0.2248701 -0.0947836 0.8067190
v -0.2496213 0.1160780 -0.5324522
v -0.2319718 0.0940068 -0.4055960
v -0.2509883 -0.1322646 -0.1555054
v -0.2941461 0.0022230 0.7979822
v -0.2340082 0.1252943 0.3267456
v -0.2962027 0.1378461 0.6064118
v -0.2860987 -0.0712706 -0.0287926
v -0.2374185 -0.1005678 -0.3950654
v -0.2218776 -0.0639660 0.4896219
v -0.1983686 0.0133421 0.8586868
v -0.2041088 0.1133242 -0.2992908
v -0.2869530 0.1373200 -0.6570395
v -0.2075474 -0.1420988 0.1451136
v -0.2219024 -0.1150378 -0.6120761
v -0.2133908 -0.1027164 0.3380598
v -0.1972854 0.0382634 0.5274139
v -0.2189668 0.1417262 0.1208015
v -0.2193170 -0.0600385 -0.4581978
v -0.1986530 0.0019210 0.4266241
v -0.1989650 0.0174207 -0.5035167
v -0.2467656 0.1042589 0.4644423
v -0.2291825 0.1388323 -0.2367580
v -0.1889756 0.1057059 0.6282336
v -0.2418075 0.1267679 0.7506582
v -0.2059427 -0.1503163 -0.1660613
v -0.1741346 -0.1263285 -0.7952781
v -0.1594445 -0.1302598 0.6988630
v -0.0713906 -0.0889132 0.8743348
v -0.1855829 0.0034953 -0.3748466
v -0.2049971 0.0757283 0.8315954
v -0.1726769 0.0913389 0.3034569
v -0.1551598 0.1072735 -0.2615947
v -0.1391519 0.1355185 -0.7239239
v -0.2328559 0.1312350 -0.0929693
v -0.1154656 -0.1365671 -0.7472757
v -0.1585490 -0.1252632 -0.2470660
v -0.1707449 -0.0522243 0.5913079
v -0.1691740 -0.0079693 -0.5674514
v -0.1468784 0.0006313 0.3261125
v -0.1252060 0.1618374 -0.1277165
v -0.1586485 -0.1375864 0.7643505
v -0.0900673 -0.0818670 0.2466072
v -0.1603961 -0.0725631 -0.6201098
v -0.1076120 0.0846857 -0.6620789
v -0.1296905 0.0143574 -0.3059014
v -0.1121644 0.0439388 0.8826383
v -0.0614992 0.0726325 -0.2449219
v -0.1280899 0.1349997 0.8006874
v -0.1762639 0.1485386 0.1841303
v -0.0677416 -0.1510209 0.1568925
v -0.1568717 -0.0552933 -0.3093076
v -0.0294465 -0.0099248 -0.2610805
v -0.1771193 0.0801835 -0.5971254
v -0.1657836 0.0540413 -0.8626105
v -0.1226533 0.0552966 0.6365846
v -0.0797382 0.1281502 0.2031430
v -0.1102538 0.1776767 -0.0044932
v -0.1137700 -0.0854212 0.6676961
v -0.0840901 0.0027270 -0.6434721
v -0.1153055 0.1304035 -0.8035151
v 0.0270097 0.1246814 -0.8393085
v -0.0285465 0.1357877 -0.1761329
v -0.0542600 -0.1074376 -0.2203756
v -0.0373476 -0.1180564 -0.8494819
v -0.0510370 -0.0841768 -0.6805455
v -0.0482257 -0.0149737 0.9016404
v -0.1351733 -0.0250164 -0.8801432
v -0.0664495 0.1339783 0.7468264
v -0.0498474 0.1090780 0.8530889
v -0.0369757 -0.1900537 0.0028470
v -0.0312774 -0.1121135 0.7155721
v -0.0641506 0.0616384 0.2586357
v -0.1113741 -0.1601208 -0.1508886
v -0.0333682 0.0026414 0.6646112
v 0.0327970 -0.0237173 -0.6589147
v 0.0281916 0.0964816 -0.2221251
v 0.0245047 -0.1404670 0.7975893
v 0.0610621 -0.0953887 0.6933631
v -0.0244191 -0.0281442 0.2601495
v 0.0498266 0.0085086 0.2666019
v -0.0092464 0.0892092 -0.6907470
v 0.0686846 0.0560937 0.6658852
v -0.0360208 0.1675044 0.1260858
v 0.1086231 -0.1291184 -0.1934491
v 0.0957211 -0.1187422 -0.7060528
v 0.0636435 0.0239941 -0.2688590
v 0.0942237 0.0967573 -0.6799018
v -0.0209268 0.0894358 0.6947240
v 0.0631168 0.1750052 -0.1000475
v 0.0153354 0.0380365 -0.8983167
v 0.0190450 0.0700055 0.2427527
v 0.0238751 0.0615052 0.8920371
v 0.1048298 -0.1276854 0.2141484
v 0.0905010 -0.0677490 -0.2598403
v 0.1112316 0.0037001 0.6330987
v 0.1051175 -0.0253525 0.8925636
v 0.0807503 0.1170834 0.2122942
v 0.0030454 0.1415517 -0.7842551
v 0.1307765 -0.1720380 -0.0148103
v 0.0954203 -0.1362075 -0.8003929
v 0.1329398 -0.0574238 0.6360996
v 0.0208524 -0.0242937 -0.9002506
v 0.1258401 0.0668135 -0.8666880
v 0.0660279 0.1858166 0.0338446
v 0.1147952 -0.0892539 0.2642681
v 0.1359655 0.1199861 0.6933601
v 0.1206330 0.1230301 0.8235292
v 0.0918297 -0.1657617 -0.1087941
v 0.0922266 0.0080111 -0.6363970
v 0.2148855 -0.1391668 -0.0711846
v 0.1674178 -0.1048722 0.6526432
v 0.1318763 0.1188809 -0.2362221
v 0.1408861 0.1029493 0.2569278
v 0.1442899 -0.1094194 0.8322004
v 0.1666324 -0.0078238 -0.3504092
v 0.1563521 0.0141299 0.3313386
v 0.1939175 0.1411493 -0.7138641
v 0.1717974 0.1524762 0.1625577
v 0.2137572 -0.1334119 -0.2524515
v 0.1819564 -0.1366227 0.7567217
v 0.1667030 -0.0740739 -0.8495767
v 0.1685172 -0.0829055 0.3122081
v 0.2007467 -0.0518390 0.5414335
v 0.1665108 -0.0802659 -0.6175780
v 0.2021807 -0.0641067 -0.3753452
v 0.2099206 0.0799361 0.3702757
v 0.1946340 0.0856284 0.8345799
v 0.1759483 0.0711657 -0.3261190
v 0.1798947 0.1381315 0.7465330
v 0.1640797 -0.1560920 0.1651583
v 0.2085214 -0.0452778 0.4262042
v 0.1802231 -0.0401657 -0.5727832
v 0.2190263 -0.0671471 -0.4947213
v 0.2539926 -0.0461826 0.8229521
v 0.2007580 0.0067636 -0.4488660
v 0.1924827 0.0273436 0.5383469
v 0.2540101 0.1115809 -0.7712893
v 0.1933683 0.0958551 0.6083083
v 0.1861768 0.1445292 -0.2109120
v 0.2047508 0.1475128 -0.1005683
v 0.2451625 0.1356400 0.2646252
v 0.2231791 -0.1411276 -0.6807184
v 0.2518419 -0.1334662 0.3148898
v 0.2722376 -0.1278818 0.4213906
v 0.1871122 -0.0033177 -0.8602545
v 0.1765916 0.0278233 -0.5647369
v 0.2357581 0.0964673 -0.4620393
v 0.1940357 0.0956839 -0.6070040
v 0.2159579 0.0604792 0.4851598
v 0.2587411 0.1315727 -0.3494050
v 0.1512851 -0.1325988 0.7207177
v 0.2566828 -0.1192296 0.1188453
v 0.2797023 0.1300298 -0.5161241
v 0.2501337 0.1316121 0.6200452
v 0.3318228 -0.1345534 -0.3633284
v 0.2634211 -0.1229108 0.5259344
v 0.2813447 -0.1264417 -0.4434303
v 0.2633002 -0.0966054 -0.7766539
v 0.2659545 0.1147957 0.4463931
v 0.2776832 0.1352248 0.6776114
v 0.3268732 -0.1381713 -0.5477974
v 0.2740846 -0.1180363 -0.1662794
v 0.3496652 0.0702973 -0.7095101
v 0.2476422 0.1141847 0.0393527
v 0.3191322 0.1366185 -0.6148950
v 0.3400461 -0.1332127 0.5635850
v 0.3244373 -0.1234289 -0.6593544
v 0.3444858 -0.0306935 0.7393396
v 0.3356885 -0.0351775 -0.1378627
v 0.3022947 0.0013198 -0.7867618
v 0.3333397 0.0393563 0.7525781
v 0.2914450 0.1308625 -0.2440739
v 0.3110726 0.1129829 0.7040555
v 0.2854659 0.1141159 0.1757938
v 0.3144775 0.1382182 0.5343542
v 0.2667249 -0.1334144 0.2193523
v 0.3491850 -0.1283199 0.4280128
v 0.2894689 -0.0634434 0.0425118
v 0.3133700 0.0140466 0.0151747
v 0.3043212 0.0746216 -0.1095077
v 0.3004238 0.1361911 0.3104141
v 0.3197426 -0.1159571 0.6879444
v 0.3776162 -0.0338115 -0.6829438
v 0.3418472 0.0169394 0.1553864
v 0.3951811 0.0787511 0.3457367
v 0.3286738 0.1331686 -0.3638425
v 0.3705884 0.1243472 0.4688194
v 0.3917085 -0.1070449 -0.4033183
v 0.3826733 -0.0839631 0.3448386
v 0.3744596 -0.1118487 -0.5760159
v 0.4090179 -0.0495192 0.6044859
v 0.4090689 0.0735713 0.5862007
v 0.4122421 0.0564744 -0.3844171
v 0.3812934 0.1155666 -0.4731824
v 0.4236579 -0.0490709 -0.5647187
v 0.4161493 -0.0703071 0.4648838
v 0.4085339 -0.0197584 -0.3240228
v 0.4063413 -0.0176374 0.3335381
v 0.4185213 0.0579813 -0.5482298
v 0.4227637 0.0754592 0.4633508
v 0.4389299 0.0004066 0.4882092
v 0.4358763 -0.0198337 -0.4719866
# 248 vertices, 0 vertices normals

f 1 4 8
f 3 2 7
f 5 4 1
f 5 1 14
f 20 5 14
f 6 10 2
f 6 2 3
f 6 3 22
f 1 8 18
f 29 1 18
f 14 1 29
f 10 9 2
f 7 12 3
f 22 3 12
f 25 13 4
f 25 4 5
f 6 24 23
f 8 17 18
f 2 9 11
f 2 11 7
f 12 7 11
f 13 8 4
f 10 33 9
f 22 12 28
f 6 23 10
f 6 22 15
f 20 16 5
f 16 25 5
f 44 39 9
f 9 39 11
f 39 19 11
f 27 12 11
f 28 50 22
f 14 29 20
f 20 29 30
f 10 21 33
f 10 23 21
f 25 35 13
f 16 20 80
f 6 15 24
f 18 17 26
f 19 27 11
f 18 49 29
f 28 12 27
f 13 38 8
f 13 40 38
f 30 29 53
f 13 35 41
f 50 15 22
f 43 21 23
f 31 43 23
f 35 25 58
f 25 16 58
f 31 23 24
f 15 52 24
f 58 16 32
f 36 26 17
f 36 8 38
f 8 36 17
f 26 49 18
f 33 44 9
f 13 41 40
f 30 33 21
f 20 30 42
f 31 24 52
f 37 39 44
f 45 19 39
f 46 28 27
f 53 29 49
f 30 53 33
f 42 30 21
f 80 20 42
f 68 32 16
f 36 60 26
f 33 53 44
f 46 50 28
f 76 15 50
f 76 70 15
f 63 21 43
f 58 34 35
f 32 48 47
f 52 67 31
f 52 15 70
f 47 58 32
f 36 38 72
f 26 71 49
f 54 26 60
f 59 44 53
f 37 61 39
f 61 45 39
f 21 63 42
f 68 16 80
f 67 51 31
f 69 67 52
f 68 57 32
f 51 43 31
f 26 82 71
f 59 37 44
f 71 53 49
f 54 60 64
f 61 55 45
f 40 72 38
f 56 50 46
f 41 100 40
f 56 76 50
f 67 69 62
f 32 57 48
f 95 63 43
f 51 95 43
f 87 27 19
f 53 71 59
f 19 45 73
f 87 46 27
f 64 60 89
f 47 48 66
f 77 51 67
f 70 76 94
f 63 80 42
f 72 81 36
f 73 87 19
f 81 60 36
f 26 54 82
f 104 73 45
f 55 83 45
f 83 104 45
f 113 72 40
f 84 64 89
f 64 97 54
f 55 61 85
f 85 65 55
f 100 113 40
f 66 64 84
f 65 62 55
f 66 75 64
f 66 48 75
f 65 67 62
f 77 67 65
f 35 34 41
f 66 99 47
f 58 106 34
f 47 99 79
f 77 95 51
f 79 106 58
f 58 47 79
f 114 52 70
f 97 82 54
f 56 46 74
f 97 64 75
f 83 55 62
f 84 99 66
f 75 48 91
f 65 85 77
f 91 48 57
f 78 91 57
f 101 62 69
f 79 99 90
f 68 78 57
f 69 52 114
f 94 114 70
f 71 116 59
f 37 88 61
f 61 88 85
f 62 101 83
f 34 100 41
f 77 102 95
f 86 78 68
f 86 68 80
f 103 86 80
f 103 80 63
f 82 119 71
f 110 81 72
f 60 81 111
f 87 74 46
f 105 84 89
f 75 91 97
f 56 74 112
f 84 105 99
f 56 112 92
f 95 103 63
f 37 59 96
f 72 113 110
f 97 109 82
f 83 120 104
f 83 101 120
f 91 78 93
f 92 76 56
f 76 92 115
f 94 76 115
f 116 96 59
f 109 119 82
f 96 88 37
f 60 111 89
f 99 105 90
f 125 118 85
f 91 93 98
f 85 118 77
f 106 100 34
f 102 77 118
f 69 114 101
f 108 93 78
f 95 102 129
f 119 116 71
f 87 123 74
f 104 117 73
f 97 98 109
f 125 85 88
f 111 105 89
f 91 98 97
f 107 100 106
f 90 127 79
f 93 108 122
f 144 107 106
f 79 144 106
f 87 73 117
f 148 110 113
f 100 136 113
f 121 90 105
f 101 134 120
f 138 92 112
f 100 107 136
f 115 92 138
f 101 114 134
f 108 78 86
f 129 103 95
f 129 150 103
f 87 117 123
f 121 127 90
f 137 102 118
f 127 144 79
f 150 86 103
f 150 135 86
f 119 154 116
f 96 116 176
f 146 81 110
f 130 119 109
f 104 124 117
f 120 124 104
f 113 136 148
f 121 105 111
f 142 138 112
f 126 118 125
f 126 137 118
f 81 131 111
f 131 121 111
f 132 98 93
f 134 128 120
f 93 122 132
f 137 143 102
f 108 86 135
f 129 102 143
f 94 175 114
f 139 88 96
f 124 197 117
f 123 117 197
f 140 130 109
f 125 88 139
f 98 140 109
f 130 154 119
f 74 123 160
f 167 110 148
f 142 112 74
f 151 126 125
f 120 141 124
f 98 132 140
f 120 128 141
f 155 127 121
f 155 133 127
f 152 134 114
f 114 175 152
f 153 94 115
f 115 138 153
f 153 175 94
f 131 81 146
f 125 139 151
f 141 147 124
f 136 149 148
f 159 137 126
f 107 149 136
f 159 143 137
f 152 128 134
f 154 145 116
f 139 96 176
f 157 197 124
f 110 167 146
f 142 74 160
f 144 127 133
f 122 108 158
f 135 158 108
f 143 164 129
f 116 145 176
f 197 166 123
f 166 160 123
f 147 157 124
f 155 121 170
f 142 173 138
f 158 132 122
f 138 173 153
f 163 144 133
f 164 150 129
f 170 121 131
f 191 167 148
f 178 155 170
f 168 126 151
f 162 126 168
f 178 192 155
f 132 161 140
f 149 191 148
f 161 132 174
f 194 133 155
f 162 159 126
f 141 128 184
f 158 174 132
f 149 107 183
f 186 135 150
f 145 222 176
f 130 165 154
f 167 204 146
f 192 194 155
f 152 184 128
f 183 107 163
f 143 159 164
f 144 163 107
f 186 185 135
f 145 154 156
f 140 171 130
f 147 169 157
f 142 160 180
f 140 161 171
f 147 141 169
f 182 169 141
f 180 173 142
f 172 159 162
f 185 158 135
f 164 186 150
f 146 188 131
f 165 156 154
f 188 170 131
f 165 130 171
f 168 177 162
f 161 174 181
f 149 183 191
f 182 141 184
f 163 133 194
f 158 185 174
f 173 175 153
f 175 200 152
f 156 198 145
f 145 198 222
f 176 189 139
f 146 204 188
f 189 151 139
f 189 168 151
f 157 169 202
f 190 177 168
f 179 178 170
f 179 181 178
f 192 178 181
f 181 179 171
f 181 171 161
f 182 177 169
f 195 162 177
f 195 177 182
f 195 172 162
f 193 192 181
f 174 193 181
f 195 182 184
f 185 196 174
f 164 159 187
f 200 184 152
f 186 218 185
f 210 186 164
f 220 210 164
f 220 164 187
f 165 208 156
f 197 212 166
f 190 168 189
f 160 166 228
f 188 179 170
f 203 171 179
f 165 171 203
f 169 177 202
f 192 193 194
f 193 174 196
f 175 173 206
f 218 196 185
f 201 208 165
f 222 189 176
f 166 212 228
f 157 202 197
f 188 203 179
f 202 177 190
f 228 180 160
f 191 216 167
f 217 173 180
f 183 216 191
f 194 193 199
f 205 172 195
f 200 205 195
f 195 184 200
f 199 163 194
f 226 186 210
f 187 159 172
f 173 219 206
f 206 200 175
f 207 188 213
f 202 212 197
f 188 204 213
f 156 208 215
f 215 224 156
f 156 224 198
f 167 216 204
f 183 209 216
f 186 226 218
f 187 172 205
f 221 205 200
f 211 163 199
f 203 188 207
f 201 165 203
f 189 222 223
f 223 190 189
f 225 226 210
f 220 225 210
f 219 173 217
f 193 196 199
f 187 205 227
f 221 227 205
f 211 183 163
f 206 221 200
f 207 201 203
f 212 202 190
f 214 217 180
f 232 211 199
f 232 199 196
f 232 196 218
f 220 187 227
f 223 212 190
f 201 234 208
f 222 198 235
f 234 215 208
f 204 229 213
f 180 228 214
f 204 216 229
f 225 224 215
f 230 224 225
f 215 226 225
f 225 220 230
f 220 227 231
f 206 219 221
f 213 236 207
f 235 223 222
f 235 198 224
f 244 235 224
f 229 216 209
f 220 231 230
f 211 209 183
f 232 240 211
f 233 231 227
f 221 233 227
f 221 238 233
f 238 221 219
f 207 234 201
f 207 236 234
f 237 228 212
f 236 213 229
f 244 224 230
f 243 226 215
f 243 239 226
f 239 218 226
f 238 219 217
f 232 239 240
f 239 232 218
f 246 231 233
f 236 241 234
f 242 223 235
f 223 242 212
f 242 237 212
f 229 241 236
f 243 215 234
f 237 214 228
f 237 238 217
f 217 214 237
f 209 211 245
f 245 211 240
f 242 247 237
f 242 235 244
f 209 241 229
f 241 209 245
f 231 244 230
f 245 240 239
f 246 233 238
f 241 248 234
f 243 234 248
f 247 242 244
f 241 245 248
f 248 239 243
f 247 246 238
f 247 238 237
f 244 231 247
f 248 245 239
f 231 246 247
# 500 faces, 0 coords texture

# End of File
