####
#
# OBJ File Generated by Meshlab
#
####
# Object double_torusMC436.obj
#
# Vertices: 216
# Faces: 436
#
####
v -0.3688551 -0.0733333 -0.6600000
v -0.3666667 -0.0758797 -0.6600000
v -0.3666667 -0.0733333 -0.6634848
v -0.4061329 -0.0733333 -0.5133333
v -0.3666667 -0.1134186 -0.5133333
v -0.3921168 -0.0733333 -0.3666667
v -0.3666667 -0.1004307 -0.3666667
v -0.3666667 -0.0733333 -0.2904195
v -0.3957846 -0.0733333 0.3666667
v -0.3666667 -0.1048493 0.3666667
v -0.3666667 -0.0733333 0.2835591
v -0.4078540 -0.0733333 0.5133333
v -0.3666667 -0.1156740 0.5133333
v -0.3693482 -0.0733333 0.6600000
v -0.3666667 -0.0764701 0.6600000
v -0.3666667 -0.0733333 0.6643116
v -0.3700326 0.0733333 -0.6600000
v -0.3666667 0.0733333 -0.6652055
v -0.4097271 0.0733333 -0.5133333
v -0.3978830 0.0733333 -0.3666667
v -0.3666667 0.0733333 -0.2812149
v -0.3900832 0.0733333 0.3666667
v -0.3666667 0.0733333 0.2955398
v -0.4042683 0.0733333 0.5133333
v -0.3687648 0.0733333 0.6600000
v -0.3666667 0.0733333 0.6633154
v -0.3666667 0.0772160 -0.6600000
v -0.3666667 0.1169094 -0.5133333
v -0.3666667 0.1069015 -0.3666667
v -0.3666667 0.0989074 0.3666667
v -0.3666667 0.1124296 0.5133333
v -0.3666667 0.0757794 0.6600000
v -0.2332517 -0.0733333 -0.8066667
v -0.2200000 -0.0834406 -0.8066667
v -0.2200000 -0.0733333 -0.8159407
v -0.2200000 -0.1273333 -0.6600000
v -0.2200000 -0.0762252 -0.5133333
v -0.2200000 -0.0914950 -0.3666667
v -0.3295056 -0.0733333 -0.2200000
v -0.2200000 -0.1386286 -0.2200000
v -0.2891300 -0.0733333 -0.0733333
v -0.2200000 -0.1362376 -0.0733333
v -0.2879797 -0.0733333 0.0733333
v -0.2200000 -0.1330888 0.0733333
v -0.3288426 -0.0733333 0.2200000
v -0.2200000 -0.1328388 0.2200000
v -0.2200000 -0.0895725 0.3666667
v -0.2200000 -0.0740309 0.5133333
v -0.2200000 -0.1248169 0.6600000
v -0.2373352 -0.0733333 0.8066667
v -0.2200000 -0.0864582 0.8066667
v -0.2200000 -0.0733333 0.8191137
v -0.2335405 0.0733333 -0.8066667
v -0.2200000 0.0733333 -0.8162290
v -0.3299452 0.0733333 -0.2200000
v -0.2870291 0.0733333 -0.0733333
v -0.2880439 0.0733333 0.0733333
v -0.3270848 0.0733333 0.2200000
v -0.2365942 0.0733333 0.8066667
v -0.2200000 0.0733333 0.8188715
v -0.2200000 0.0835970 -0.8066667
v -0.2200000 0.1279972 -0.6600000
v -0.2200000 0.0756271 -0.5133333
v -0.2200000 0.0872983 -0.3666667
v -0.2200000 0.1357821 -0.2200000
v -0.2200000 0.1343941 -0.0733333
v -0.2200000 0.1347063 0.0733333
v -0.2200000 0.1382349 0.2200000
v -0.2200000 0.0947406 0.3666667
v -0.2200000 0.0755050 0.5133333
v -0.2200000 0.1259743 0.6600000
v -0.2200000 0.0863870 0.8066667
v -0.0733333 -0.1246207 -0.8066667
v -0.0733333 -0.0733333 -0.8614200
v -0.0943484 -0.0733333 -0.6600000
v -0.0733333 -0.0733333 -0.6824668
v -0.2173515 -0.0733333 -0.5133333
v -0.2006808 -0.0733333 -0.3666667
v -0.0733333 -0.0733333 -0.2514648
v -0.0733333 -0.1070402 -0.2200000
v -0.0733333 -0.1772319 -0.0733333
v -0.0733333 -0.1741074 0.0733333
v -0.0733333 -0.1054047 0.2200000
v -0.2019050 -0.0733333 0.3666667
v -0.0733333 -0.0733333 0.2517909
v -0.2193790 -0.0733333 0.5133333
v -0.1026269 -0.0733333 0.6600000
v -0.0733333 -0.0733333 0.6890210
v -0.0733333 -0.1253033 0.8066667
v -0.0733333 -0.0733333 0.8657663
v -0.0733333 0.0733333 -0.8613045
v -0.0940048 0.0733333 -0.6600000
v -0.0733333 0.0733333 -0.6825486
v -0.2179312 0.0733333 -0.5133333
v -0.2050705 0.0733333 -0.3666667
v -0.0733333 0.0733333 -0.2484139
v -0.1967040 0.0733333 0.3666667
v -0.0733333 0.0733333 0.2548844
v -0.2181118 0.0733333 0.5133333
v -0.1017825 0.0733333 0.6600000
v -0.0733333 0.0733333 0.6884804
v -0.0733333 0.0733333 0.8658476
v -0.0733333 0.1241429 -0.8066667
v -0.0733333 0.1033187 -0.2200000
v -0.0733333 0.1757855 -0.0733333
v -0.0733333 0.1757180 0.0733333
v -0.0733333 0.1088433 0.2200000
v -0.0733333 0.1262010 0.8066667
v 0.0733333 -0.1244358 -0.8066667
v 0.0733333 -0.0733333 -0.8614697
v 0.0733333 -0.0733333 -0.6824340
v 0.0733333 -0.1028635 -0.2200000
v 0.0733333 -0.0733333 -0.2491859
v 0.0733333 -0.1743144 -0.0733333
v 0.0733333 -0.1769864 0.0733333
v 0.0733333 -0.1096630 0.2200000
v 0.0733333 -0.0733333 0.2548303
v 0.0733333 -0.1252996 0.8066667
v 0.0733333 -0.0733333 0.6892503
v 0.0733333 -0.0733333 0.8645445
v 0.0733333 0.0733333 -0.8615173
v 0.0733333 0.0733333 -0.6822324
v 0.0733333 0.0733333 -0.2515137
v 0.0733333 0.0733333 0.2521214
v 0.0733333 0.0733333 0.6898924
v 0.0733333 0.0733333 0.8647608
v 0.0733333 0.1246887 -0.8066667
v 0.0733333 0.1062437 -0.2200000
v 0.0733333 0.1758576 -0.0733333
v 0.0733333 0.1765238 0.0733333
v 0.0733333 0.1066021 0.2200000
v 0.0733333 0.1256049 0.8066667
v 0.2200000 -0.0843826 -0.8066667
v 0.2200000 -0.0733333 -0.8168660
v 0.0942504 -0.0733333 -0.6600000
v 0.2200000 -0.1270125 -0.6600000
v 0.2168617 -0.0733333 -0.5133333
v 0.2200000 -0.0767991 -0.5133333
v 0.2023403 -0.0733333 -0.3666667
v 0.2200000 -0.0894187 -0.3666667
v 0.2200000 -0.1329706 -0.2200000
v 0.2200000 -0.1329921 -0.0733333
v 0.2200000 -0.1348100 0.0733333
v 0.2200000 -0.1389239 0.2200000
v 0.1986534 -0.0733333 0.3666667
v 0.2200000 -0.0928810 0.3666667
v 0.2186979 -0.0733333 0.5133333
v 0.2200000 -0.0747877 0.5133333
v 0.1021607 -0.0733333 0.6600000
v 0.2200000 -0.1254184 0.6600000
v 0.2200000 -0.0866654 0.8066667
v 0.2200000 -0.0733333 0.8194101
v 0.2200000 0.0733333 -0.8164688
v 0.0936130 0.0733333 -0.6600000
v 0.2156715 0.0733333 -0.5133333
v 0.1981527 0.0733333 -0.3666667
v 0.2032450 0.0733333 0.3666667
v 0.2189617 0.0733333 0.5133333
v 0.1026321 0.0733333 0.6600000
v 0.2200000 0.0733333 0.8191739
v 0.2200000 0.0839975 -0.8066667
v 0.2200000 0.1284746 -0.6600000
v 0.2200000 0.0782500 -0.5133333
v 0.2200000 0.0940480 -0.3666667
v 0.2200000 0.1379910 -0.2200000
v 0.2200000 0.1353201 -0.0733333
v 0.2200000 0.1336286 0.0733333
v 0.2200000 0.1358242 0.2200000
v 0.2200000 0.0885921 0.3666667
v 0.2200000 0.0745029 0.5133333
v 0.2200000 0.1258618 0.6600000
v 0.2200000 0.0865413 0.8066667
v 0.2346456 -0.0733333 -0.8066667
v 0.3666667 -0.0733333 -0.6640903
v 0.3666667 -0.0763332 -0.6600000
v 0.3666667 -0.1160090 -0.5133333
v 0.3666667 -0.1056710 -0.3666667
v 0.3301853 -0.0733333 -0.2200000
v 0.3666667 -0.0733333 -0.2807815
v 0.2880301 -0.0733333 -0.0733333
v 0.2877352 -0.0733333 0.0733333
v 0.3266026 -0.0733333 0.2200000
v 0.3666667 -0.0733333 0.2973419
v 0.3666667 -0.0986737 0.3666667
v 0.3666667 -0.1120312 0.5133333
v 0.3666667 -0.0751560 0.6600000
v 0.2371951 -0.0733333 0.8066667
v 0.3666667 -0.0733333 0.6624938
v 0.2338745 0.0733333 -0.8066667
v 0.3666667 0.0733333 -0.6628870
v 0.3291699 0.0733333 -0.2200000
v 0.3666667 0.0733333 -0.2916915
v 0.2878007 0.0733333 -0.0733333
v 0.2870901 0.0733333 0.0733333
v 0.3273224 0.0733333 0.2200000
v 0.3666667 0.0733333 0.2870388
v 0.2372458 0.0733333 0.8066667
v 0.3666667 0.0733333 0.6646221
v 0.3666667 0.0754205 -0.6600000
v 0.3666667 0.1123188 -0.5133333
v 0.3666667 0.0996327 -0.3666667
v 0.3666667 0.1044802 0.3666667
v 0.3666667 0.1157443 0.5133333
v 0.3666667 0.0767034 0.6600000
v 0.3692434 -0.0733333 -0.6600000
v 0.4082293 -0.0733333 -0.5133333
v 0.3966789 -0.0733333 -0.3666667
v 0.3904153 -0.0733333 0.3666667
v 0.4046649 -0.0733333 0.5133333
v 0.3682433 -0.0733333 0.6600000
v 0.3684847 0.0733333 -0.6600000
v 0.4048700 0.0733333 -0.5133333
v 0.3908917 0.0733333 -0.3666667
v 0.3957573 0.0733333 0.3666667
v 0.4086643 0.0733333 0.5133333
v 0.3695968 0.0733333 0.6600000
# 216 vertices, 0 vertices normals

f 3 2 1
f 5 4 1
f 5 1 2
f 7 6 4
f 7 4 5
f 8 6 7
f 11 10 9
f 13 12 9
f 13 9 10
f 15 14 12
f 15 12 13
f 16 14 15
f 3 1 17
f 3 17 18
f 19 1 4
f 17 1 19
f 20 4 6
f 19 4 20
f 6 8 21
f 6 21 20
f 11 9 22
f 11 22 23
f 24 9 12
f 22 9 24
f 25 12 14
f 24 12 25
f 14 16 26
f 14 26 25
f 27 18 17
f 27 17 19
f 27 19 28
f 28 19 20
f 28 20 29
f 29 20 21
f 30 23 22
f 30 22 24
f 30 24 31
f 31 24 25
f 31 25 32
f 32 25 26
f 35 34 33
f 2 3 33
f 34 2 33
f 36 2 34
f 2 37 5
f 36 37 2
f 5 38 7
f 37 38 5
f 40 39 8
f 7 40 8
f 38 40 7
f 42 41 39
f 42 39 40
f 44 43 41
f 44 41 42
f 46 45 43
f 46 43 44
f 10 11 45
f 46 10 45
f 47 10 46
f 10 48 13
f 47 48 10
f 13 49 15
f 48 49 13
f 51 50 16
f 15 51 16
f 49 51 15
f 52 50 51
f 35 33 53
f 35 53 54
f 18 53 3
f 3 53 33
f 55 21 39
f 39 21 8
f 56 39 41
f 55 39 56
f 57 41 43
f 56 41 57
f 58 43 45
f 57 43 58
f 23 58 11
f 11 58 45
f 59 26 50
f 50 26 16
f 50 52 60
f 50 60 59
f 61 54 53
f 61 53 18
f 27 61 18
f 62 61 27
f 63 27 28
f 63 62 27
f 64 28 29
f 64 63 28
f 29 21 55
f 65 29 55
f 64 29 65
f 65 55 56
f 65 56 66
f 66 56 57
f 66 57 67
f 67 57 58
f 67 58 68
f 68 58 23
f 30 68 23
f 69 68 30
f 70 30 31
f 70 69 30
f 71 31 32
f 71 70 31
f 32 26 59
f 72 32 59
f 71 32 72
f 72 59 60
f 74 73 34
f 74 34 35
f 73 76 75
f 36 73 75
f 34 73 36
f 77 37 36
f 77 36 75
f 78 38 37
f 78 37 77
f 38 78 79
f 80 38 79
f 40 38 80
f 40 81 42
f 80 81 40
f 42 82 44
f 81 82 42
f 44 83 46
f 82 83 44
f 83 85 84
f 47 83 84
f 46 83 47
f 86 48 47
f 86 47 84
f 87 49 48
f 87 48 86
f 49 87 88
f 89 49 88
f 51 49 89
f 52 51 89
f 52 89 90
f 54 74 35
f 54 91 74
f 75 76 92
f 92 76 93
f 75 94 77
f 75 92 94
f 77 95 78
f 77 94 95
f 79 78 96
f 96 78 95
f 84 85 97
f 97 85 98
f 84 99 86
f 84 97 99
f 86 100 87
f 86 99 100
f 88 87 101
f 101 87 100
f 90 60 52
f 102 60 90
f 103 91 54
f 103 54 61
f 62 92 93
f 103 62 93
f 61 62 103
f 92 62 63
f 92 63 94
f 94 63 64
f 94 64 95
f 104 96 95
f 64 104 95
f 65 104 64
f 105 65 66
f 105 104 65
f 106 66 67
f 106 105 66
f 107 67 68
f 107 106 67
f 69 97 98
f 107 69 98
f 68 69 107
f 97 69 70
f 97 70 99
f 99 70 71
f 99 71 100
f 108 101 100
f 71 108 100
f 72 108 71
f 72 60 102
f 72 102 108
f 110 109 73
f 110 73 74
f 76 73 109
f 76 109 111
f 113 112 80
f 113 80 79
f 80 114 81
f 112 114 80
f 81 115 82
f 114 115 81
f 82 116 83
f 115 116 82
f 85 83 116
f 85 116 117
f 119 118 89
f 119 89 88
f 90 89 118
f 90 118 120
f 91 110 74
f 91 121 110
f 111 93 76
f 122 93 111
f 96 113 79
f 96 123 113
f 117 98 85
f 124 98 117
f 101 119 88
f 101 125 119
f 120 102 90
f 126 102 120
f 127 121 91
f 127 91 103
f 103 93 122
f 103 122 127
f 128 123 96
f 128 96 104
f 129 104 105
f 129 128 104
f 130 105 106
f 130 129 105
f 131 106 107
f 131 130 106
f 107 98 124
f 107 124 131
f 132 125 101
f 132 101 108
f 108 102 126
f 108 126 132
f 134 133 109
f 134 109 110
f 136 135 111
f 109 136 111
f 133 136 109
f 138 137 135
f 138 135 136
f 140 139 137
f 140 137 138
f 112 113 139
f 140 112 139
f 141 112 140
f 112 142 114
f 141 142 112
f 114 143 115
f 142 143 114
f 115 144 116
f 143 144 115
f 146 145 117
f 116 146 117
f 144 146 116
f 148 147 145
f 148 145 146
f 150 149 147
f 150 147 148
f 118 119 149
f 150 118 149
f 151 118 150
f 120 118 151
f 120 151 152
f 121 134 110
f 121 153 134
f 154 122 135
f 135 122 111
f 155 135 137
f 154 135 155
f 156 137 139
f 155 137 156
f 123 156 113
f 113 156 139
f 157 124 145
f 145 124 117
f 158 145 147
f 157 145 158
f 159 147 149
f 158 147 159
f 125 159 119
f 119 159 149
f 152 126 120
f 160 126 152
f 161 153 121
f 161 121 127
f 127 122 154
f 162 127 154
f 161 127 162
f 162 154 155
f 162 155 163
f 163 155 156
f 163 156 164
f 164 156 123
f 128 164 123
f 165 164 128
f 166 128 129
f 166 165 128
f 167 129 130
f 167 166 129
f 168 130 131
f 168 167 130
f 131 124 157
f 169 131 157
f 168 131 169
f 169 157 158
f 169 158 170
f 170 158 159
f 170 159 171
f 171 159 125
f 132 171 125
f 172 171 132
f 132 126 160
f 132 160 172
f 134 173 133
f 133 173 174
f 175 133 174
f 136 133 175
f 136 176 138
f 175 176 136
f 138 177 140
f 176 177 138
f 177 179 178
f 141 177 178
f 140 177 141
f 180 142 141
f 180 141 178
f 181 143 142
f 181 142 180
f 182 144 143
f 182 143 181
f 144 182 183
f 184 144 183
f 146 144 184
f 146 185 148
f 184 185 146
f 148 186 150
f 185 186 148
f 186 188 187
f 151 186 187
f 150 186 151
f 187 152 151
f 153 189 173
f 153 173 134
f 174 173 190
f 190 173 189
f 178 179 191
f 191 179 192
f 178 193 180
f 178 191 193
f 180 194 181
f 180 193 194
f 181 195 182
f 181 194 195
f 183 182 196
f 196 182 195
f 187 188 197
f 197 188 198
f 197 160 152
f 197 152 187
f 161 189 153
f 199 190 189
f 161 199 189
f 162 199 161
f 200 162 163
f 200 199 162
f 201 163 164
f 201 200 163
f 165 191 192
f 201 165 192
f 164 165 201
f 191 165 166
f 191 166 193
f 193 166 167
f 193 167 194
f 194 167 168
f 194 168 195
f 202 196 195
f 168 202 195
f 169 202 168
f 203 169 170
f 203 202 169
f 204 170 171
f 204 203 170
f 172 197 198
f 204 172 198
f 171 172 204
f 197 172 160
f 174 205 175
f 206 176 175
f 206 175 205
f 207 177 176
f 207 176 206
f 207 179 177
f 183 208 184
f 209 185 184
f 209 184 208
f 210 186 185
f 210 185 209
f 210 188 186
f 190 211 205
f 190 205 174
f 205 212 206
f 205 211 212
f 206 213 207
f 206 212 213
f 213 192 179
f 213 179 207
f 196 214 208
f 196 208 183
f 208 215 209
f 208 214 215
f 209 216 210
f 209 215 216
f 216 198 188
f 216 188 210
f 199 211 190
f 211 199 200
f 211 200 212
f 212 200 201
f 212 201 213
f 213 201 192
f 202 214 196
f 214 202 203
f 214 203 215
f 215 203 204
f 215 204 216
f 216 204 198
# 436 faces, 0 coords texture

# End of File
