####
#
# OBJ File Generated by Meshlab
#
####
# Object fandisk500.obj
#
# Vertices: 252
# Faces: 500
#
####
v -0.8284952 -0.0613768 -0.4467227
v -0.8260608 -0.0292272 0.1022664
v -0.8282244 0.0153648 0.2832201
v -0.8256258 0.0143053 0.4500290
v -0.8297088 -0.0189291 -0.0603170
v -0.8283678 0.1881908 -0.2327146
v -0.8281510 0.1994319 -0.0522498
v -0.8261169 0.1804695 0.4333066
v -0.8287351 0.2579951 0.4043714
v -0.8220962 -0.0519122 -0.0227972
v -0.7747442 -0.0308314 0.1894401
v -0.8187558 0.1816354 -0.4340115
v -0.8270932 -0.0638780 -0.2700329
v -0.8268783 0.1616414 -0.4502153
v -0.8279489 0.2397932 0.3017585
v -0.7648600 -0.0338082 -0.4603396
v -0.6274434 -0.0732717 -0.0452300
v -0.6603975 0.1963497 -0.2052205
v -0.6106960 -0.0993170 -0.4407584
v -0.6656032 0.1876390 -0.4375040
v -0.6716391 0.2643732 0.4063416
v -0.6673008 -0.0516615 0.0225110
v -0.6252731 0.1572690 -0.4589025
v -0.6228895 0.0213665 0.4577929
v -0.5799136 0.2127583 -0.4510981
v -0.5844650 0.2576655 0.4170106
v -0.5199081 0.2553883 -0.1535711
v -0.6381709 0.2198894 0.0622481
v -0.3330860 -0.0263917 0.2248511
v -0.5751880 0.2909315 0.4026980
v -0.5681452 -0.1000558 -0.1115769
v -0.5392946 -0.0885763 -0.4585135
v -0.4851125 0.2759015 -0.4337206
v -0.4912388 -0.1407065 -0.4414476
v -0.5174446 0.2770897 0.0567923
v -0.4675696 0.3627761 0.3696185
v -0.4940023 0.3324614 0.4040756
v -0.4261678 -0.1603318 -0.1483035
v -0.3403983 0.0395949 -0.4591189
v -0.8188202 -0.0176209 0.2899159
v -0.7779660 0.0055673 0.4359488
v -0.4969523 0.2315117 -0.4574493
v -0.4123583 0.3777358 -0.1363148
v -0.4607070 0.3223472 0.0182811
v -0.4057795 0.4538555 0.3706493
v -0.3362373 -0.2241299 -0.4381061
v -0.3468736 -0.1773658 -0.4589204
v -0.4956179 -0.0972378 -0.0835456
v -0.4220401 0.3586749 0.3991551
v -0.3643099 0.5364370 0.3671471
v -0.4045432 0.3820445 -0.4353357
v -0.3749588 0.3750942 -0.4582117
v -0.3925068 0.4596756 0.1848457
v -0.3735352 0.5050299 -0.4452137
v -0.3749682 0.5493114 0.3317501
v -0.3749462 0.5061529 -0.0648175
v -0.3727582 0.7699351 -0.0460882
v -0.3724357 0.7593693 0.3290897
v -0.3695126 0.7603862 -0.4395892
v -0.3686048 0.8322111 0.2967775
v -0.3539896 -0.2083134 -0.1869626
v -0.1765469 -0.0678898 -0.0293362
v -0.3233899 0.7397908 -0.4599745
v -0.3514630 0.7908673 -0.4523278
v -0.3396728 0.8294242 -0.0740353
v -0.3390454 0.8764495 0.3017509
v -0.2297359 -0.3095984 -0.2286192
v -0.3217397 -0.1768181 -0.1501034
v -0.3242827 0.8208151 -0.4368037
v -0.2657323 0.8314944 -0.4526942
v -0.1991026 -0.3218623 -0.1992984
v -0.1933491 -0.0466648 0.0420630
v -0.1922301 0.8400847 -0.2600297
v -0.2892672 0.8975758 0.3036227
v -0.2891724 0.8552595 -0.0186635
v -0.2591836 0.0624448 0.4515238
v -0.1021430 0.8801607 0.1761287
v -0.1849280 -0.3598268 -0.4334055
v -0.1510679 -0.3552948 -0.4587387
v -0.0030381 -0.5675026 -0.4395591
v -0.1482554 0.0052807 0.4365641
v -0.0394390 0.4311154 -0.4593173
v -0.0603848 0.8290386 -0.4397838
v -0.0953121 0.8396998 -0.2025197
v -0.0555626 0.8905215 0.2982363
v -0.2124193 0.0174450 0.4542888
v -0.0083244 0.7103304 0.3375770
v -0.0302188 0.8454230 0.0511973
v -0.0365905 -0.5269111 -0.2512609
v -0.0603569 -0.5004832 -0.2289735
v -0.1994181 -0.2631637 -0.1830821
v -0.0141927 0.7943364 -0.4537075
v -0.0320684 0.8228146 -0.2339337
v -0.0146549 0.8641402 0.3051642
v 0.0519905 -0.6118282 -0.2629778
v 0.1990597 -0.1685747 -0.1473806
v -0.1146642 -0.0999622 -0.0863936
v 0.0110665 -0.0571070 0.0004418
v 0.0048874 0.6465377 -0.4340176
v 0.0136000 0.6443031 -0.0662954
v 0.0059612 0.6465645 -0.2435720
v 0.0057363 0.6791809 -0.0324965
v 0.0140198 0.6852031 0.2557392
v 0.0024881 0.7848051 -0.0321876
v 0.0056354 0.7215691 0.2973858
v 0.0002861 0.7691367 -0.3743973
v 0.0024828 0.8237957 0.2911732
v 0.1151463 -0.0984276 -0.0863505
v 0.1595905 0.6281790 0.0549995
v 0.1518828 -0.2458407 -0.1791591
v 0.1455927 -0.0484037 0.0416525
v 0.0859093 -0.0169271 0.2919745
v 0.0921013 0.0139093 0.4524732
v 0.0940319 0.0886036 0.4465433
v -0.0154261 0.6127129 -0.4587282
v 0.0233912 0.6257831 -0.4482246
v 0.0183694 0.6369337 -0.1600256
v 0.0198043 0.6630005 0.0818003
v 0.1300522 0.6414542 0.1284715
v 0.0900859 0.6772146 0.3370551
v 0.1977002 -0.7209663 -0.4398396
v 0.0085128 -0.5269794 -0.2301338
v 0.1393645 -0.0336533 0.1430761
v 0.1169238 0.0348812 0.2797829
v 0.1285035 0.0848625 0.2949783
v 0.1149093 0.3734619 0.2452023
v 0.0931314 0.4051629 0.3888381
v 0.0923479 0.5641584 0.3587039
v 0.0924833 0.6119025 -0.4341370
v 0.2194130 -0.7316440 -0.2912993
v 0.0325789 -0.5569867 -0.4591566
v 0.1811542 -0.0983417 -0.1106465
v 0.1329474 -0.0194296 0.2245136
v 0.0291292 0.3563673 0.3990177
v 0.1245390 0.3655170 0.2111399
v 0.1241320 0.3805639 0.3819894
v 0.2993574 0.5832205 -0.4458022
v 0.2430811 -0.4328835 -0.4589656
v 0.2141679 -0.0259639 0.0559351
v 0.1923461 0.0539112 0.1031909
v 0.1915800 0.3547999 0.0427152
v 0.1560793 0.3499859 0.1199906
v 0.1986073 -0.0518086 0.0176951
v 0.2480012 -0.0488152 0.0140285
v 0.3154867 -0.1091818 -0.4593408
v 0.2486566 0.0303846 0.0107178
v 0.2558335 0.0931519 0.3008263
v 0.1492769 0.1267567 0.4402550
v 0.2192341 0.3311544 0.0323437
v 0.2627436 0.3786930 0.3587426
v 0.1278318 0.5766398 -0.4592606
v 0.2251765 0.6077216 -0.0656424
v 0.2016931 -0.7070422 -0.2615755
v 0.3431857 -0.0857059 -0.0913688
v 0.2608223 0.3548790 0.3942919
v 0.2478196 0.3300208 -0.0441749
v 0.3078677 0.5904146 -0.1661060
v 0.2033667 -0.7033312 -0.4553714
v 0.3870307 -0.7832333 -0.4573307
v 0.2858899 -0.2979412 -0.1911686
v 0.2567654 -0.1106938 -0.1876990
v -0.0078152 0.1397198 -0.4592899
v 0.3201108 0.0553912 0.0990516
v 0.2754292 0.1277128 0.3211133
v 0.2606825 0.1222348 0.4282443
v 0.2956475 0.0928875 0.2531357
v 0.2765511 0.3300031 0.2835729
v 0.3182052 0.3127364 -0.0674097
v 0.3782055 -0.4795787 -0.2215205
v 0.3230484 0.0831152 0.1907403
v 0.3173947 0.2975875 0.1654092
v 0.2849141 0.3565631 0.2182440
v 0.3623362 0.3333034 0.0669372
v 0.5450839 -0.7344308 -0.4593138
v 0.3851893 0.0609274 0.0916602
v 0.3145909 0.3170151 -0.1166542
v 0.4126840 -0.7958963 -0.2778781
v 0.3582399 -0.1213649 -0.2671509
v 0.3666540 0.0153738 -0.1076809
v 0.4054025 0.2892138 0.0319902
v 0.3906430 0.3197095 -0.1847991
v 0.4274870 0.2079293 -0.4594335
v 0.4055636 0.5387813 -0.4584485
v 0.3683935 -0.8090433 -0.4378850
v 0.3592578 -0.8022397 -0.2913349
v 0.4467163 -0.1387687 -0.3153512
v 0.4524356 0.2890455 -0.2185676
v 0.3726710 0.3004174 -0.1497318
v 0.4250878 0.3197990 -0.0088077
v 0.4717068 -0.8190652 -0.4579975
v 0.4528089 0.5728954 -0.2781316
v 0.5229582 0.5617690 -0.3132044
v 0.4910661 0.5651455 -0.4347541
v 0.5335961 -0.8601641 -0.2883784
v 0.5565050 -0.6997059 -0.2632202
v 0.4306513 0.0030402 -0.1508875
v 0.5072421 0.0379684 -0.0150947
v 0.5160159 0.3068817 -0.0743378
v 0.5324894 -0.8627039 -0.4385437
v 0.6190327 0.2981981 -0.1303548
v 0.7850168 0.4890001 -0.4588970
v 0.5967139 -0.8522058 -0.4583586
v 0.5625858 -0.1428516 -0.3600347
v 0.5043518 -0.0999969 -0.1920688
v 0.6078357 0.0189489 -0.1059805
v 0.6492387 -0.2775702 -0.3625858
v 0.6654599 -0.1179042 -0.2696971
v 0.5464310 -0.0067024 -0.2199583
v 0.7804137 0.1880979 -0.4595932
v 0.6332070 0.5535870 -0.3511990
v 0.6307496 -0.0864036 -0.2378216
v 0.6196399 0.0474982 -0.0786078
v 0.6852289 0.2930930 -0.1467501
v 0.5480587 0.2960325 -0.2725482
v 0.7380557 0.0585702 -0.1119756
v 0.5098737 -0.3452408 -0.4594036
v 0.7846679 -0.0866501 -0.4595382
v 0.6763002 -0.0142263 -0.2605435
v 0.5775558 0.2816430 -0.2540732
v 0.8236426 0.5419599 -0.3807551
v 0.8275389 -0.8331227 -0.2876990
v 0.7830027 -0.8447795 -0.4597785
v 0.7871176 -0.1946147 -0.4580053
v 0.6466007 0.2823960 -0.2988084
v 0.6968573 -0.8952597 -0.4416588
v 0.8272894 -0.6032321 -0.3267232
v 0.7244605 -0.5003817 -0.3342630
v 0.8228014 -0.1580959 -0.4021478
v 0.8220197 -0.1214121 -0.3076777
v 0.8221492 -0.0866827 -0.2707595
v 0.8190185 -0.0112216 -0.2718651
v 0.8244400 0.0046433 -0.2182514
v 0.8268689 0.2806957 -0.1649106
v 0.7318441 0.3417619 -0.3317877
v 0.8194322 0.5407461 -0.4521328
v 0.8264602 -0.8971204 -0.4459648
v 0.8256915 -0.3498864 -0.3719347
v 0.8204906 -0.3824666 -0.4501391
v 0.8279040 -0.1292831 -0.3652374
v 0.8205676 -0.1306708 -0.4499733
v 0.8225926 0.0164231 -0.1197937
v 0.8205016 0.2503935 -0.4482142
v 0.8281334 0.5505024 -0.4381652
v 0.8273429 -0.8983625 -0.2953741
v 0.8269650 -0.7260845 -0.4452123
v 0.8282173 -0.5134979 -0.3508590
v 0.8281880 -0.4885091 -0.4365279
v 0.8284465 -0.1800536 -0.4370800
v 0.8284628 -0.0052394 -0.2986670
v 0.8281106 0.1505765 -0.4361198
v 0.8277252 0.2682917 -0.2965940
v 0.8270971 0.3162678 -0.3467075
# 252 vertices, 0 vertices normals

f 6 13 5
f 5 13 10
f 5 10 2
f 6 1 13
f 5 2 15
f 15 2 3
f 3 2 40
f 4 3 40
f 8 3 4
f 15 3 9
f 9 3 8
f 7 6 5
f 15 7 5
f 14 1 6
f 12 14 6
f 13 17 10
f 10 11 2
f 2 11 40
f 40 41 4
f 14 16 1
f 6 7 18
f 4 41 24
f 24 8 4
f 20 14 12
f 20 12 6
f 18 20 6
f 28 7 15
f 15 9 21
f 21 9 8
f 1 19 13
f 13 19 17
f 17 22 10
f 10 22 11
f 14 23 16
f 20 23 14
f 28 18 7
f 16 19 1
f 21 28 15
f 19 31 17
f 24 21 8
f 20 25 23
f 26 21 24
f 30 28 21
f 30 21 26
f 16 32 19
f 23 32 16
f 24 41 86
f 25 20 18
f 27 25 18
f 28 27 18
f 32 34 19
f 22 29 11
f 24 76 26
f 35 27 28
f 30 35 28
f 34 31 19
f 48 17 31
f 11 29 40
f 25 42 23
f 33 42 25
f 33 25 27
f 44 27 35
f 37 30 26
f 35 30 36
f 37 36 30
f 34 38 31
f 32 47 34
f 39 47 32
f 23 39 32
f 76 24 86
f 23 42 39
f 36 44 35
f 48 31 38
f 48 22 17
f 51 42 33
f 51 33 43
f 43 33 27
f 27 44 43
f 36 37 49
f 47 46 34
f 46 61 34
f 61 38 34
f 40 81 41
f 86 41 81
f 37 26 76
f 37 76 49
f 52 42 51
f 36 45 44
f 53 43 44
f 53 44 45
f 49 45 36
f 48 62 22
f 22 72 29
f 43 53 56
f 50 45 49
f 52 51 54
f 54 51 43
f 54 43 56
f 55 53 45
f 55 45 50
f 56 53 55
f 57 54 56
f 55 50 58
f 57 56 58
f 58 56 55
f 59 54 57
f 60 57 58
f 61 68 38
f 38 68 48
f 52 39 42
f 52 162 39
f 54 63 52
f 59 63 54
f 59 64 63
f 65 64 59
f 69 64 65
f 57 65 59
f 57 60 65
f 66 60 58
f 65 60 66
f 67 61 46
f 71 61 67
f 68 61 71
f 48 68 97
f 62 48 97
f 22 62 72
f 29 81 40
f 134 49 76
f 134 50 49
f 70 64 69
f 75 69 65
f 66 75 65
f 74 75 66
f 58 74 66
f 91 68 71
f 70 63 64
f 73 70 69
f 75 73 69
f 47 78 46
f 46 78 67
f 52 82 162
f 63 82 52
f 39 162 47
f 63 115 82
f 77 75 74
f 90 67 78
f 71 67 90
f 47 79 78
f 47 162 79
f 87 58 50
f 74 58 87
f 84 73 75
f 63 92 115
f 70 92 63
f 83 70 73
f 77 84 75
f 80 78 79
f 78 80 89
f 78 89 90
f 91 71 90
f 114 76 86
f 114 134 76
f 127 50 134
f 84 83 73
f 85 77 74
f 79 131 80
f 110 68 91
f 62 98 72
f 72 112 29
f 29 112 81
f 94 74 87
f 70 83 92
f 93 83 84
f 88 93 84
f 88 84 77
f 85 88 77
f 85 74 94
f 122 91 90
f 96 108 68
f 68 108 97
f 98 111 72
f 111 112 72
f 134 114 148
f 93 92 83
f 88 85 94
f 89 80 95
f 122 89 95
f 89 122 90
f 122 110 91
f 79 138 131
f 79 145 138
f 97 98 62
f 108 98 97
f 112 113 81
f 86 81 113
f 127 87 50
f 115 99 116
f 101 117 99
f 99 117 116
f 100 117 101
f 99 106 101
f 100 101 102
f 102 118 100
f 103 118 102
f 92 99 115
f 101 106 102
f 102 104 107
f 102 105 103
f 102 107 105
f 105 87 103
f 99 92 106
f 106 104 102
f 107 94 87
f 107 87 105
f 106 92 93
f 106 93 104
f 88 104 93
f 104 88 94
f 104 94 107
f 96 68 110
f 162 145 79
f 113 114 86
f 128 87 127
f 129 116 117
f 100 118 109
f 120 118 103
f 120 103 87
f 131 158 80
f 109 117 100
f 128 120 87
f 119 118 120
f 158 121 80
f 121 95 80
f 130 95 121
f 153 95 130
f 122 95 153
f 108 143 98
f 143 111 98
f 111 123 112
f 123 133 112
f 133 124 112
f 124 113 112
f 124 125 114
f 124 114 113
f 114 125 148
f 82 182 162
f 127 136 126
f 134 136 127
f 82 151 182
f 127 126 128
f 115 151 82
f 151 116 129
f 115 116 151
f 117 152 129
f 119 120 126
f 126 120 128
f 118 119 109
f 169 110 122
f 108 96 132
f 132 143 108
f 124 133 140
f 140 125 124
f 142 119 135
f 135 119 126
f 109 119 142
f 152 137 129
f 109 152 117
f 169 122 153
f 169 160 110
f 143 139 111
f 111 139 123
f 133 123 139
f 139 140 133
f 140 147 125
f 125 165 148
f 155 134 148
f 172 142 135
f 155 136 134
f 142 141 109
f 96 161 132
f 132 161 154
f 154 143 132
f 144 139 143
f 139 146 140
f 147 165 125
f 156 141 149
f 149 141 142
f 150 135 126
f 150 172 135
f 150 126 136
f 136 155 150
f 156 152 141
f 152 109 141
f 157 137 152
f 131 159 158
f 160 96 110
f 161 96 160
f 154 144 143
f 146 139 144
f 147 140 163
f 155 148 165
f 172 149 142
f 151 183 182
f 157 152 156
f 137 151 129
f 158 184 121
f 121 184 130
f 184 185 130
f 185 153 130
f 146 144 179
f 166 147 163
f 166 164 147
f 164 165 147
f 166 170 171
f 166 171 167
f 166 167 164
f 164 167 165
f 167 155 165
f 156 168 176
f 149 168 156
f 173 149 172
f 167 171 172
f 167 172 150
f 167 150 155
f 157 156 176
f 151 137 183
f 159 184 158
f 177 153 185
f 169 153 177
f 145 216 138
f 178 161 160
f 154 179 144
f 162 182 145
f 146 163 140
f 179 163 146
f 170 166 163
f 172 171 173
f 189 168 149
f 189 149 173
f 181 157 176
f 131 174 159
f 131 138 174
f 178 204 161
f 179 175 163
f 170 163 175
f 175 171 170
f 188 181 176
f 188 176 168
f 180 173 171
f 157 191 137
f 169 186 160
f 160 186 178
f 204 154 161
f 180 171 175
f 189 188 168
f 180 189 173
f 181 191 157
f 194 185 184
f 159 190 184
f 174 190 159
f 195 169 177
f 186 204 178
f 196 179 154
f 179 197 175
f 188 187 181
f 183 209 182
f 191 181 187
f 193 183 137
f 191 193 137
f 190 199 184
f 185 194 177
f 195 186 169
f 204 196 154
f 204 208 196
f 179 196 197
f 175 197 180
f 187 188 198
f 198 188 189
f 198 189 180
f 192 191 187
f 194 184 199
f 138 216 174
f 203 204 186
f 198 180 197
f 219 214 187
f 187 214 192
f 190 202 199
f 194 195 177
f 205 212 197
f 196 205 197
f 183 201 209
f 192 193 191
f 174 202 190
f 206 186 195
f 206 203 186
f 208 204 211
f 182 217 145
f 208 205 196
f 200 219 187
f 200 198 197
f 198 200 187
f 210 192 214
f 210 193 192
f 199 225 194
f 203 207 204
f 204 207 211
f 212 200 197
f 183 235 201
f 193 235 183
f 227 206 195
f 145 223 216
f 212 213 200
f 219 224 214
f 213 219 200
f 224 234 214
f 234 210 214
f 243 235 193
f 210 243 193
f 202 225 199
f 195 194 244
f 202 174 222
f 195 221 227
f 227 237 206
f 217 223 145
f 218 208 211
f 215 212 205
f 194 225 244
f 226 227 221
f 228 203 206
f 229 207 203
f 211 207 230
f 218 211 230
f 232 208 218
f 208 241 205
f 182 209 217
f 215 213 212
f 234 220 210
f 202 222 225
f 221 195 244
f 216 222 174
f 216 223 222
f 231 232 218
f 232 241 208
f 241 215 205
f 233 213 215
f 251 224 219
f 233 219 213
f 233 251 219
f 237 228 206
f 228 229 203
f 207 229 230
f 231 218 230
f 220 243 210
f 225 236 244
f 222 236 225
f 222 245 236
f 222 238 245
f 226 246 227
f 223 238 222
f 246 237 227
f 223 240 238
f 217 240 223
f 228 239 229
f 209 240 217
f 209 242 240
f 233 215 241
f 251 252 224
f 201 242 209
f 234 224 252
f 201 235 242
f 234 252 220
f 236 221 244
f 236 245 221
f 245 226 221
f 245 246 226
f 245 247 246
f 238 247 245
f 247 237 246
f 238 248 247
f 247 248 237
f 240 248 238
f 248 228 237
f 248 239 228
f 239 230 229
f 248 249 239
f 239 249 230
f 249 231 230
f 248 251 249
f 232 231 249
f 240 250 248
f 248 250 251
f 249 251 233
f 249 233 232
f 232 233 241
f 242 250 240
f 250 252 251
f 242 243 250
f 250 243 252
f 235 243 242
f 243 220 252
# 500 faces, 0 coords texture

# End of File
