####
#
# OBJ File Generated by Meshlab
#
####
# Object fertility200.obj
#
# Vertices: 94
# Faces: 200
#
####
v -0.9012306 0.0085211 0.0589385
v -0.8888685 -0.2079766 0.0031099
v -0.8042004 -0.0246744 0.1880420
v -0.8953477 0.1617208 -0.0124682
v -0.7558460 -0.4090575 -0.1040157
v -0.7192261 -0.2644711 -0.1164283
v -0.8336846 0.2028198 0.0721646
v -0.7668238 0.1561188 -0.0934401
v -0.7872903 0.5663951 0.0650313
v -0.7906955 -0.3482591 0.1163488
v -0.6725112 0.5068181 0.1436616
v -0.7965742 0.4686985 -0.0977489
v -0.6666670 -0.0417527 -0.1695656
v -0.8304403 0.0226827 -0.1478353
v -0.5932999 0.0572294 -0.3339518
v -0.5896299 0.1408347 -0.2602835
v -0.6248250 -0.1853364 -0.0118178
v -0.6659865 -0.0975702 0.0628124
v -0.6777264 -0.0390318 -0.0928209
v -0.6400267 0.0129423 0.2932356
v -0.7064766 0.1875813 -0.0026239
v -0.6793286 0.2808315 0.0073419
v -0.6107950 0.6470250 0.0676118
v -0.6014631 -0.2980517 0.1850874
v -0.5757126 0.2986754 -0.0554299
v -0.5546404 -0.5350516 0.0542011
v -0.6118203 -0.3953835 -0.2043312
v -0.5477711 0.0438998 -0.2050385
v -0.5923045 0.3241855 0.0775086
v -0.7012234 0.1287159 0.2668664
v -0.5487310 0.4888589 -0.1140562
v -0.6353126 0.6528146 -0.0731950
v -0.4949566 0.4593550 0.0256731
v -0.4982536 0.5527970 0.0795532
v -0.2177731 -0.1250941 0.1903487
v -0.5753262 -0.6300084 -0.1793037
v -0.5010272 -0.5157455 0.1875990
v -0.6123579 0.0584496 0.1695572
v -0.4599485 -0.4885052 -0.2174236
v -0.3999535 0.6715786 0.0327582
v -0.4289376 -0.1358913 0.0677258
v -0.4771861 0.4962763 -0.0805495
v -0.3766142 0.2161247 -0.2081560
v -0.4349541 -0.2007929 -0.1662553
v -0.3592474 0.1403430 0.2176702
v -0.2976956 0.5523297 -0.0569786
v -0.3108061 0.2308484 -0.3004766
v -0.3876203 0.2181664 0.2979266
v -0.2863656 0.5339966 0.0825067
v -0.3473752 0.1397006 -0.2848006
v -0.1995431 0.3883905 -0.0887083
v -0.3290431 0.4244028 -0.0240292
v -0.3703843 -0.5690128 -0.2938686
v -0.2690685 0.3872001 0.1417055
v -0.2108583 -0.4151469 0.2603335
v -0.2471137 0.1608092 0.0752798
v -0.3202617 0.1196274 0.2967154
v -0.2092328 0.3584840 0.0068837
v -0.1666630 -0.0038496 -0.1523345
v -0.2853103 0.4135345 -0.1961201
v -0.2127540 -0.3806803 -0.1919827
v -0.2290255 0.3694704 0.2348490
v -0.2251558 -0.3960577 0.1970150
v -0.2474490 0.1614317 -0.0631154
v -0.0499597 -0.2982647 0.0241425
v 0.1399793 -0.2458620 0.2712208
v -0.0666142 0.4483892 0.1074876
v -0.1535464 0.5418952 -0.0263907
v -0.0016896 0.3301847 0.0872607
v -0.4935076 -0.6272493 0.2497578
v 0.0120776 0.2772826 -0.1082165
v -0.0118977 0.3915842 -0.0995801
v -0.5665149 -0.6504946 -0.1266095
v 0.1194969 0.1077187 -0.0792710
v 0.0814905 0.1877837 0.1391869
v 0.0519757 -0.2875388 -0.2590729
v 0.0168411 -0.0208672 -0.0160359
v 0.2237490 -0.3758233 0.2864940
v 0.2839104 -0.3433087 -0.2792015
v 0.1667790 -0.2166609 -0.2033442
v 0.4703219 0.1728851 0.1144767
v 0.6683754 -0.2108378 -0.2818078
v 0.2887548 0.0843707 0.0366796
v 0.4091771 -0.1238339 -0.0304796
v 0.3824019 0.0219216 -0.0329754
v 0.5173052 -0.0483174 -0.1225093
v 0.5457827 0.1097567 -0.1253353
v 0.6283882 -0.0813559 -0.2725559
v 0.6803979 -0.0573891 0.2401858
v 0.7747203 -0.1858770 0.2464328
v 0.7861471 0.0254461 -0.1171793
v 0.7746212 0.0074356 0.1587361
v 0.5345942 0.2165643 -0.0025178
v 0.9144544 -0.1303588 -0.0947337
# 94 vertices, 0 vertices normals

f 1 4 2
f 1 2 10
f 10 3 1
f 5 2 14
f 4 14 2
f 1 7 4
f 14 4 8
f 7 1 3
f 8 4 12
f 4 7 9
f 7 3 30
f 9 12 4
f 2 5 10
f 14 6 5
f 19 6 14
f 3 10 18
f 14 13 19
f 11 9 7
f 10 5 26
f 20 30 3
f 8 16 14
f 12 21 8
f 11 7 22
f 16 15 14
f 21 22 7
f 12 22 21
f 32 12 9
f 27 5 6
f 17 6 19
f 37 10 26
f 18 17 19
f 14 15 13
f 7 30 38
f 38 21 7
f 12 25 22
f 11 23 9
f 32 9 23
f 24 18 10
f 18 38 3
f 38 20 3
f 38 19 21
f 32 31 12
f 26 5 39
f 37 24 10
f 28 19 13
f 38 18 19
f 21 19 28
f 25 29 22
f 22 29 11
f 28 16 8
f 28 8 21
f 12 31 25
f 23 11 34
f 6 44 27
f 18 24 17
f 36 73 26
f 73 70 26
f 27 39 5
f 20 38 57
f 47 15 16
f 34 11 29
f 31 32 42
f 37 26 70
f 41 17 24
f 33 29 25
f 23 34 32
f 36 26 39
f 38 45 57
f 48 38 30
f 43 47 16
f 25 31 33
f 33 34 29
f 34 42 32
f 35 24 37
f 44 6 17
f 44 17 41
f 31 42 33
f 53 36 39
f 44 39 27
f 41 24 35
f 50 13 15
f 28 13 50
f 57 30 20
f 57 48 30
f 42 34 40
f 47 50 15
f 38 48 45
f 28 43 16
f 28 50 43
f 42 40 46
f 34 33 49
f 53 73 36
f 37 70 55
f 63 35 37
f 59 39 44
f 52 49 33
f 40 34 49
f 63 37 55
f 76 53 39
f 33 42 52
f 59 61 39
f 41 59 44
f 52 42 46
f 61 76 39
f 54 45 48
f 60 47 43
f 43 50 51
f 54 48 62
f 51 60 43
f 52 60 51
f 52 54 49
f 52 46 60
f 49 46 40
f 59 41 64
f 54 52 58
f 56 41 35
f 41 56 64
f 51 50 47
f 56 58 64
f 48 57 62
f 58 52 51
f 54 62 49
f 56 67 58
f 54 57 45
f 60 51 47
f 46 68 60
f 68 46 49
f 77 61 59
f 69 56 35
f 62 57 54
f 67 62 54
f 54 58 67
f 68 51 60
f 62 67 49
f 63 55 65
f 58 51 64
f 78 55 70
f 49 67 68
f 77 65 61
f 35 63 65
f 68 72 51
f 80 76 61
f 67 56 69
f 64 51 72
f 66 55 78
f 64 71 59
f 80 61 65
f 35 65 77
f 35 77 75
f 75 69 35
f 72 71 64
f 68 67 72
f 65 55 66
f 76 79 53
f 77 59 74
f 73 78 70
f 71 72 69
f 72 67 69
f 73 53 79
f 71 74 59
f 74 83 77
f 66 80 65
f 79 78 73
f 93 71 69
f 75 77 83
f 85 83 74
f 75 83 81
f 71 87 74
f 75 81 69
f 81 93 69
f 66 84 80
f 74 87 85
f 76 82 79
f 76 88 82
f 80 88 76
f 87 71 93
f 78 89 66
f 89 84 66
f 86 84 85
f 87 86 85
f 89 85 84
f 85 89 83
f 79 90 78
f 84 88 80
f 89 81 83
f 89 78 90
f 86 88 84
f 82 94 79
f 79 94 90
f 92 81 89
f 81 92 93
f 93 91 87
f 91 88 86
f 86 87 91
f 82 88 94
f 91 94 88
f 93 92 91
f 92 89 90
f 94 91 92
f 94 92 90
# 200 faces, 0 coords texture

# End of File
