####
#
# OBJ File Generated by Meshlab
#
####
# Object fertility500.obj
#
# Vertices: 244
# Faces: 500
#
####
v -0.8854200 -0.1662636 -0.0371664
v -0.9008191 -0.0447514 0.0528430
v -0.8866061 0.0448520 -0.0523380
v -0.8632353 -0.2568474 0.0414745
v -0.8309476 -0.0232108 0.1562891
v -0.8877759 0.1378274 0.0417359
v -0.8670042 0.3247282 -0.0052490
v -0.8251545 0.3037382 0.0693666
v -0.8290977 -0.2915445 -0.0699088
v -0.8375685 -0.0065201 -0.1268440
v -0.7404124 -0.2195937 -0.1089479
v -0.7942538 0.1848451 0.0865644
v -0.8204022 0.0441356 0.1824107
v -0.8141010 0.1599091 -0.0758488
v -0.7615128 0.1216004 0.2213582
v -0.7872903 0.5663951 0.0650313
v -0.8038833 -0.3651092 0.0696055
v -0.7958480 -0.2652223 0.1214716
v -0.7608912 0.1946262 -0.0493527
v -0.8105505 0.3149594 -0.0724156
v -0.8016846 0.5449072 -0.0403328
v -0.7348472 -0.0302955 0.1552484
v -0.7383753 0.4023775 0.1029255
v -0.7004601 -0.2891522 -0.1361554
v -0.7423114 -0.0682312 -0.1102449
v -0.7229062 0.2091486 0.0259831
v -0.6989329 0.3042733 -0.0373133
v -0.6618723 0.5303225 0.1417505
v -0.7095200 0.1292530 -0.1592617
v -0.7410936 0.4641377 -0.1204408
v -0.6838109 0.6476259 -0.0463733
v -0.6676456 -0.2025714 0.1100535
v -0.7437077 -0.0444133 -0.1541728
v -0.7621549 0.0457696 -0.2333746
v -0.6405770 0.0913433 -0.3028318
v -0.6825864 0.1168524 -0.2485384
v -0.6205853 0.1265439 -0.2264566
v -0.6977912 0.1377414 0.1726879
v -0.6448866 -0.4400197 0.1659319
v -0.6656052 -0.1649756 -0.0548225
v -0.6666866 -0.0747234 -0.0170339
v -0.6682012 -0.0262084 -0.1048733
v -0.7081310 0.0246294 0.2652235
v -0.6553389 0.1098712 -0.0761202
v -0.5720825 0.1408918 0.2825000
v -0.7126849 0.3221545 0.0512467
v -0.6107950 0.6470250 0.0676118
v -0.5046989 -0.5154426 0.1541019
v -0.7296590 -0.4265405 -0.1105194
v -0.6575531 -0.0198590 0.0658869
v -0.6333305 0.5956613 -0.1071954
v -0.6014631 -0.2980517 0.1850874
v -0.6003723 -0.1908576 0.0422360
v -0.6349776 0.0958945 0.1012536
v -0.6049893 0.3022070 -0.0700853
v -0.6936906 -0.4729293 0.0003386
v -0.6118203 -0.3953835 -0.2043312
v -0.5708935 -0.6477714 -0.1285182
v -0.5566852 -0.5583429 -0.1673240
v -0.5621452 -0.5662788 0.0737799
v -0.6119179 -0.2215488 -0.0850531
v -0.5352234 0.0179985 -0.2442250
v -0.5798297 0.0331195 -0.3168598
v -0.5606670 0.0269786 0.3058084
v -0.5981397 0.0391139 0.1865330
v -0.5158731 0.1451341 -0.2496794
v -0.5813805 0.0427892 -0.1789984
v -0.5923045 0.3241855 0.0775086
v -0.6072582 0.0911582 0.3138112
v -0.5266178 0.3635688 0.0031359
v -0.5487310 0.4888589 -0.1140562
v -0.5785790 0.6365682 -0.0278790
v -0.5252512 -0.5214425 -0.0833716
v -0.4321307 0.0616673 0.3008365
v -0.4654673 0.1571901 -0.3215698
v -0.4997087 0.4860886 0.0098649
v -0.5082318 0.5609917 0.0814240
v -0.5011827 0.5234690 -0.0614765
v -0.5383186 -0.6415599 0.1667754
v -0.3719335 -0.2282631 0.1914762
v -0.4921053 -0.6190319 -0.2374910
v -0.4617515 -0.4931111 0.1893734
v -0.4788201 -0.1661489 0.0243885
v -0.4858114 0.0783666 -0.2147320
v -0.5938022 0.1024741 0.2107169
v -0.4120723 0.4368542 -0.0557978
v -0.4760765 0.5458624 0.0867209
v -0.4599485 -0.4885052 -0.2174236
v -0.4927871 -0.5413140 0.2072649
v -0.4466395 0.6463796 -0.0011262
v -0.4589981 -0.1961759 0.1440481
v -0.4336489 -0.1600978 -0.0854815
v -0.4217893 0.0929814 -0.3061420
v -0.3998689 0.4154797 0.0565713
v -0.4238891 0.5267338 -0.0914872
v -0.4313437 0.1514443 0.3255688
v -0.4058422 0.1132070 0.2178101
v -0.3199242 0.1585551 0.2968178
v -0.4164035 0.2125235 -0.2420009
v -0.3459590 0.3026983 -0.1999609
v -0.3122220 0.4936690 0.0782492
v -0.3910736 -0.2150842 -0.1795017
v -0.2934581 0.2316599 0.1907545
v -0.3574927 0.6280599 -0.0481133
v -0.3066731 -0.0751804 -0.1218781
v -0.3724044 -0.0782359 -0.0240626
v -0.3670644 -0.0801216 0.0711667
v -0.3165351 0.2150748 -0.2907395
v -0.3610317 0.1699911 -0.2116347
v -0.3949827 0.1956272 0.2473568
v -0.3352686 0.2634644 -0.2795917
v -0.3604001 0.6501940 0.0467627
v -0.3093782 0.2257595 0.3005252
v -0.2944127 0.4492165 -0.1370849
v -0.3278329 0.4260390 0.0129089
v -0.2854530 0.5501479 0.0365440
v -0.3849847 -0.5837431 0.2690389
v -0.2795314 0.2039245 -0.0663834
v -0.3174303 0.1766100 -0.2645633
v -0.2662923 0.3528096 -0.1248791
v -0.3281135 0.4464257 -0.0505383
v -0.2799764 0.3976963 0.1693315
v -0.3214679 0.2734496 0.2749995
v -0.2902671 0.5373161 -0.0471022
v -0.3685886 -0.5774123 -0.2756915
v -0.4123802 -0.5279499 -0.2780467
v -0.2273330 0.1279733 -0.0461896
v -0.2890525 0.1998747 0.0827913
v -0.2411691 0.3178476 -0.2132188
v -0.2508461 0.3842508 0.1110939
v -0.2165801 -0.4300388 0.2709370
v -0.1150559 -0.3650600 -0.2610404
v -0.2113205 0.1459578 0.0731326
v -0.2347773 0.2730452 0.2382423
v -0.2558056 0.3663194 -0.0010614
v -0.2509085 0.3667341 0.2366720
v -0.2249783 0.4996964 0.1329292
v -0.1582948 -0.2000424 -0.1335601
v -0.1893479 -0.0909800 -0.1579061
v -0.2722262 -0.0887942 0.1604221
v -0.1761044 0.4226988 -0.1012450
v -0.2657578 0.4171517 -0.2002255
v -0.1344801 -0.3624448 0.1616305
v -0.2455242 -0.3882326 -0.1983324
v -0.1842320 0.4202159 0.1618180
v -0.2611622 -0.4154746 0.1950721
v -0.2182614 -0.3301224 0.1944117
v -0.1430782 0.2191649 -0.0777748
v -0.1671700 0.2856595 -0.1041099
v -0.1697919 0.4238098 0.0938724
v -0.1329865 0.0875050 -0.1370295
v -0.1324940 0.4169959 -0.0830096
v -0.2033252 0.3622764 0.0052532
v -0.1184802 0.4089913 0.0822391
v -0.0807780 -0.2942374 0.0652712
v -0.1944749 0.2948340 0.1050340
v -0.1751465 0.5484849 -0.0001928
v -0.2488025 -0.5002255 -0.2868443
v -0.1559591 -0.3591745 -0.1449244
v -0.0859492 -0.3096417 -0.0457080
v -0.0403462 -0.1041912 -0.0507802
v -0.0267672 0.0484250 -0.1083544
v -0.1187793 -0.0301650 0.1631217
v -0.0391868 -0.3336925 0.2702186
v -0.0215162 -0.0781622 0.0388265
v -0.0414301 0.2823179 -0.0915206
v -0.0503649 0.3657319 0.1230345
v -0.1470878 0.5345301 -0.0388871
v -0.0769318 0.2549399 0.0983501
v -0.1845549 -0.5176636 0.2704970
v -0.0520560 -0.4599667 -0.2793126
v 0.0442569 -0.2731817 -0.1996708
v -0.0424897 0.3783102 -0.1127269
v 0.0098535 -0.2865255 0.0753153
v 0.0199099 0.3208937 -0.0576932
v -0.0168273 0.4539897 0.0464051
v 0.0341803 0.3343663 0.0250969
v 0.0115372 0.3116698 0.0734359
v -0.0005502 0.4049851 -0.0756683
v -0.2377559 -0.5367487 -0.0238953
v 0.0666543 0.0379322 -0.0460356
v 0.0376464 0.0527558 0.0789774
v 0.1649163 0.0664737 0.0008137
v 0.1647634 0.1809234 -0.1088125
v 0.1649512 0.2287020 -0.1145455
v -0.0146847 -0.4544154 0.2831941
v 0.0732249 -0.3714844 0.2904351
v 0.0142257 0.1351997 0.1410521
v 0.1047994 -0.4034650 -0.2792121
v 0.0968395 -0.2674793 -0.2598436
v 0.1392881 0.3086839 0.0632540
v 0.2484822 -0.3570693 -0.2687870
v 0.1515346 0.1172291 -0.0772479
v 0.2449169 -0.2291326 0.2834232
v 0.0970702 0.0673808 0.0414835
v 0.1230915 0.1885049 0.1285342
v 0.0686605 0.2460111 0.1227072
v 0.2656390 0.0915335 0.0526760
v 0.2854383 -0.3516810 0.2813925
v 0.2859807 -0.3163303 -0.2828733
v 0.2832849 -0.1972874 -0.2669595
v 0.1637232 -0.2217183 0.1253859
v 0.3165280 -0.1803234 0.2368093
v 0.3262479 0.2785556 0.0203374
v 0.3000130 -0.1685781 -0.2034721
v 0.1533288 -0.2226685 -0.2058355
v 0.2833658 0.0738828 -0.0216165
v 0.3482488 0.0521724 0.0343643
v 0.3657490 0.1764645 0.1152663
v 0.5565392 -0.2366937 -0.2853267
v 0.3659073 0.0723889 0.0710723
v 0.4545571 0.2098601 0.0791030
v 0.3814316 0.0115908 0.0033832
v 0.3246861 0.1059084 -0.0796429
v 0.4315499 0.2259826 -0.0515065
v 0.4341840 0.0296594 0.0881430
v 0.4870880 0.1399823 0.1193145
v 0.2619130 -0.3616824 0.0380762
v 0.4091771 -0.1238339 -0.0304796
v 0.4240547 -0.0704598 0.0283185
v 0.4700734 -0.0211359 -0.0936235
v 0.3738168 0.1698726 -0.1125028
v 0.5117395 -0.2696150 0.2857768
v 0.4753396 -0.2789661 -0.2742585
v 0.4822354 -0.1316459 -0.2754390
v 0.4617312 -0.1168079 0.1273506
v 0.6013271 0.0849399 -0.1373655
v 0.5988407 -0.0600720 0.1754234
v 0.8453825 -0.1556580 -0.1243388
v 0.5461414 -0.1411494 0.2827515
v 0.5719079 -0.0539043 -0.1729480
v 0.7138099 -0.2077068 0.2628840
v 0.6675146 -0.0652453 -0.2556885
v 0.7465799 0.0203154 -0.1559054
v 0.7314611 -0.1910924 -0.2602044
v 0.8157901 -0.1587556 -0.2106720
v 0.7339101 0.0258282 0.1544437
v 0.8150082 -0.1685963 0.2093470
v 0.6455920 0.1498933 0.0207205
v 0.7072288 -0.0711164 0.2473655
v 0.7974046 0.0039211 0.1311048
v 0.8446804 -0.0213691 -0.0232879
v 0.8979492 -0.1338958 0.0671021
v 0.8920829 -0.1285674 -0.0914607
# 244 vertices, 0 vertices normals

f 1 4 2
f 2 3 1
f 3 2 6
f 6 7 3
f 2 4 18
f 18 5 2
f 9 1 10
f 3 10 1
f 5 13 2
f 6 2 13
f 6 8 7
f 1 9 4
f 10 3 14
f 12 6 13
f 6 12 8
f 14 3 7
f 14 7 20
f 7 8 16
f 17 18 4
f 34 10 14
f 12 13 15
f 7 21 20
f 16 21 7
f 4 9 17
f 10 11 9
f 34 33 10
f 21 30 20
f 9 49 17
f 25 11 10
f 22 18 32
f 22 5 18
f 10 33 25
f 13 5 43
f 14 29 34
f 46 8 12
f 23 16 8
f 17 49 56
f 39 18 17
f 24 9 11
f 22 43 5
f 43 15 13
f 29 36 34
f 14 19 29
f 38 12 15
f 20 19 14
f 23 8 46
f 16 23 28
f 9 24 49
f 36 35 34
f 26 46 12
f 20 27 19
f 20 30 27
f 31 21 16
f 57 49 24
f 40 11 25
f 50 22 32
f 69 15 43
f 19 27 26
f 39 17 56
f 41 40 25
f 42 41 25
f 33 42 25
f 34 63 33
f 12 38 54
f 26 44 19
f 54 26 12
f 27 46 26
f 30 55 27
f 31 51 30
f 30 21 31
f 28 47 16
f 31 16 47
f 29 37 36
f 19 44 29
f 38 45 85
f 45 38 15
f 52 32 18
f 40 41 32
f 41 50 32
f 50 65 22
f 65 64 22
f 34 35 63
f 54 42 44
f 69 45 15
f 44 26 54
f 68 28 23
f 51 71 30
f 56 49 88
f 48 39 56
f 39 52 18
f 61 11 40
f 40 32 53
f 33 62 42
f 67 42 62
f 54 41 42
f 43 22 64
f 44 42 67
f 41 54 50
f 85 54 38
f 55 68 27
f 27 68 46
f 46 68 23
f 61 24 11
f 40 53 61
f 33 63 62
f 65 50 54
f 67 37 29
f 67 29 44
f 30 71 55
f 47 28 77
f 51 31 72
f 47 72 31
f 24 102 57
f 32 52 53
f 65 54 85
f 69 43 64
f 59 58 60
f 58 79 60
f 73 56 88
f 57 88 49
f 39 48 82
f 82 52 39
f 64 65 74
f 67 66 37
f 68 55 70
f 84 66 67
f 75 35 36
f 77 28 68
f 71 51 78
f 72 78 51
f 89 60 79
f 73 59 60
f 73 60 48
f 73 48 56
f 53 83 61
f 91 83 53
f 91 53 52
f 35 75 63
f 66 75 36
f 36 37 66
f 70 55 71
f 76 68 70
f 47 77 72
f 58 180 79
f 59 81 58
f 48 60 89
f 59 73 88
f 65 97 74
f 85 97 65
f 96 45 69
f 110 85 45
f 99 75 66
f 70 71 76
f 76 77 68
f 77 78 72
f 80 52 82
f 92 102 24
f 92 24 61
f 92 61 83
f 84 67 62
f 71 78 76
f 87 77 76
f 59 126 81
f 126 59 88
f 102 88 57
f 91 52 80
f 93 62 63
f 84 62 93
f 74 69 64
f 74 96 69
f 96 110 45
f 78 77 90
f 87 90 77
f 117 89 79
f 75 93 63
f 85 110 97
f 86 76 78
f 95 86 78
f 95 78 90
f 81 180 58
f 126 125 81
f 83 91 107
f 109 99 84
f 84 99 66
f 123 110 96
f 94 87 76
f 82 48 89
f 92 83 106
f 107 106 83
f 84 93 119
f 84 119 109
f 75 108 93
f 75 99 111
f 86 94 76
f 95 90 104
f 104 90 112
f 102 92 105
f 108 119 93
f 108 75 111
f 87 94 101
f 112 90 87
f 125 180 81
f 89 117 131
f 82 89 146
f 146 80 82
f 139 88 102
f 80 140 91
f 107 91 140
f 98 96 74
f 113 96 98
f 100 99 109
f 115 101 94
f 112 87 101
f 180 117 79
f 146 89 131
f 132 126 88
f 113 123 96
f 97 110 103
f 86 121 115
f 94 86 115
f 95 121 86
f 139 144 88
f 106 105 92
f 121 95 124
f 104 124 95
f 144 132 88
f 98 74 97
f 97 103 98
f 122 103 110
f 100 109 120
f 142 111 100
f 111 99 100
f 142 100 114
f 112 101 116
f 126 158 125
f 134 98 103
f 109 119 120
f 122 110 123
f 120 114 100
f 121 114 120
f 115 122 101
f 121 124 114
f 104 116 124
f 116 104 112
f 180 170 117
f 105 106 127
f 113 98 134
f 111 129 108
f 136 123 113
f 142 129 111
f 130 115 135
f 115 130 122
f 147 80 146
f 105 139 102
f 133 107 140
f 106 133 127
f 133 106 107
f 128 127 133
f 118 127 128
f 120 119 129
f 128 153 118
f 108 129 119
f 113 134 136
f 122 130 103
f 135 121 120
f 121 135 115
f 136 122 123
f 122 136 137
f 101 122 137
f 137 116 101
f 139 105 151
f 128 156 153
f 130 134 103
f 142 141 129
f 135 153 130
f 114 168 142
f 124 168 114
f 124 157 168
f 157 124 116
f 132 158 126
f 138 144 139
f 127 151 105
f 169 133 140
f 148 127 118
f 118 153 149
f 145 134 130
f 129 141 120
f 145 136 134
f 120 141 135
f 141 152 135
f 136 145 137
f 137 157 116
f 131 117 170
f 147 146 143
f 159 144 138
f 163 80 147
f 163 140 80
f 128 133 156
f 149 148 118
f 135 152 153
f 150 145 130
f 144 159 132
f 143 146 131
f 151 127 148
f 153 156 154
f 130 153 150
f 168 141 142
f 145 176 137
f 147 143 155
f 163 169 140
f 153 152 149
f 150 154 145
f 145 154 176
f 171 180 125
f 158 171 125
f 186 131 170
f 153 154 150
f 168 152 141
f 137 176 157
f 164 143 131
f 138 160 159
f 163 147 155
f 138 139 162
f 167 154 156
f 168 179 152
f 132 171 158
f 172 132 159
f 161 160 138
f 161 138 162
f 151 162 139
f 156 133 169
f 149 166 148
f 169 167 156
f 149 152 173
f 176 154 167
f 157 176 168
f 164 131 186
f 160 165 155
f 148 166 151
f 173 152 179
f 172 159 160
f 155 143 174
f 174 160 155
f 161 165 160
f 163 155 165
f 163 165 182
f 188 163 182
f 188 169 163
f 173 166 149
f 187 164 186
f 185 151 166
f 197 169 188
f 167 169 178
f 166 173 175
f 168 176 179
f 174 143 164
f 151 185 162
f 178 169 197
f 132 189 171
f 190 132 172
f 164 202 174
f 161 162 181
f 179 175 173
f 178 177 167
f 177 176 167
f 180 186 170
f 174 172 160
f 161 181 165
f 195 182 165
f 196 197 188
f 175 179 177
f 179 176 177
f 180 171 189
f 165 181 195
f 175 185 166
f 189 132 190
f 164 203 202
f 162 184 181
f 185 184 162
f 178 197 191
f 194 203 164
f 181 183 195
f 193 181 184
f 178 191 177
f 180 218 186
f 187 186 199
f 194 164 187
f 202 172 174
f 193 183 181
f 195 188 182
f 189 218 180
f 190 172 206
f 172 202 206
f 188 195 196
f 204 175 177
f 189 192 218
f 194 187 199
f 204 177 191
f 206 201 190
f 186 218 199
f 189 200 192
f 190 200 189
f 190 201 200
f 202 205 206
f 196 195 198
f 195 183 198
f 214 183 193
f 219 202 203
f 207 198 183
f 184 214 193
f 207 183 214
f 196 198 209
f 185 222 184
f 209 197 196
f 209 212 197
f 197 212 191
f 212 204 191
f 202 219 205
f 184 222 214
f 175 215 185
f 175 204 215
f 201 210 200
f 207 208 198
f 205 201 206
f 208 211 198
f 198 211 209
f 224 192 200
f 213 208 207
f 210 224 200
f 201 225 210
f 207 214 213
f 194 230 203
f 205 225 201
f 209 211 216
f 222 185 215
f 217 212 209
f 223 194 199
f 223 230 194
f 226 219 203
f 213 221 220
f 213 214 221
f 216 208 213
f 216 211 208
f 221 219 220
f 222 221 214
f 209 216 217
f 215 227 222
f 218 223 199
f 226 220 219
f 220 216 213
f 220 228 216
f 239 204 212
f 219 221 231
f 221 222 227
f 239 215 204
f 192 232 218
f 224 232 192
f 230 228 203
f 228 220 226
f 219 225 205
f 218 232 223
f 226 203 228
f 228 217 216
f 230 223 232
f 231 225 219
f 227 231 221
f 235 229 224
f 224 229 232
f 233 225 231
f 212 217 237
f 215 239 227
f 225 233 210
f 237 217 228
f 212 237 239
f 239 234 227
f 224 210 235
f 210 233 235
f 240 228 230
f 232 240 230
f 234 233 231
f 231 227 234
f 228 240 237
f 235 233 236
f 232 238 240
f 234 236 233
f 241 237 240
f 241 239 237
f 235 236 229
f 229 243 232
f 234 239 242
f 239 241 242
f 241 240 238
f 232 243 238
f 234 244 236
f 242 244 234
f 236 244 229
f 243 242 241
f 243 241 238
f 244 243 229
f 244 242 243
# 500 faces, 0 coords texture

# End of File
