####
#
# OBJ File Generated by Meshlab
#
####
# Object fertility_300.obj
#
# Vertices: 144
# Faces: 300
#
####
vn -0.9874639 -0.1569496 -0.0167900
v -0.8990133 -0.1534478 0.0009726
vn -0.8254380 0.1456258 0.5453854
v -0.8933915 0.0781113 0.0544466
vn -0.8504429 0.2242214 -0.4758903
v -0.8806810 0.2100309 -0.0237368
vn -0.6102329 -0.4651178 0.6413121
v -0.7796628 -0.3901831 0.1033133
vn 0.0377739 0.6238259 -0.7806500
v -0.7969058 0.1643192 -0.0822212
vn 0.1221394 0.7303997 0.6720107
v -0.7818987 0.1917697 0.0911492
vn -0.6775225 0.3736894 0.6334979
v -0.7810054 0.5701838 0.0715876
vn -0.6017846 0.7059620 -0.3734608
v -0.7682883 0.6104813 -0.0395493
vn -0.6704546 -0.3699249 -0.6431534
v -0.7758605 -0.3939556 -0.1025989
vn 0.0287934 -0.3563426 -0.9339117
v -0.7752710 0.3453437 -0.0797091
vn -0.4752579 -0.0911165 -0.8751159
v -0.8541580 -0.0528034 -0.1005075
vn -0.0497811 -0.1132913 0.9923139
v -0.7873238 0.3553113 0.0801817
vn 0.5449780 -0.7280657 -0.4158357
v -0.6952029 -0.0489247 -0.1197023
vn 0.4375320 -0.4516517 0.7775452
v -0.7520295 -0.0623820 0.1387871
vn -0.6071386 -0.2823773 0.7427287
v -0.8402191 -0.0316060 0.1465190
vn -0.4269364 0.0383389 -0.9034687
v -0.7381014 0.0409591 -0.2594931
vn -0.5492131 0.4491718 0.7047054
v -0.7653365 0.0992419 0.2458213
vn 0.8865273 0.4575831 -0.0684625
v -0.6610681 0.1240653 -0.0768499
vn 0.7438968 0.2507737 -0.6194596
v -0.7460919 0.2427671 -0.0379154
vn 0.9097362 0.3603628 0.2062011
v -0.6594942 0.1340543 0.0468616
vn 0.6207010 -0.7189342 0.3128321
v -0.7013422 0.3062617 0.0389532
vn -0.3893774 0.1401193 -0.9103581
v -0.7631406 0.5179818 -0.0976737
vn 0.7311906 0.3608516 -0.5789183
v -0.7090729 -0.1719393 -0.0930012
vn 0.0227900 -0.8636548 0.5035683
v -0.6486324 0.0053234 0.2658361
vn 0.2846872 0.8863023 -0.3652690
v -0.6566538 0.1276723 0.1994097
vn 0.0025233 0.3064762 0.9518750
v -0.6741064 -0.2802459 0.1467779
vn 0.8445888 0.4025254 0.3530484
v -0.6693039 -0.1201106 0.0465073
vn 0.8640976 -0.0351049 -0.5020987
v -0.5968573 0.0362082 0.1809114
vn -0.1286233 0.9498401 -0.2850610
v -0.6300369 0.1405377 0.2520679
vn 0.3690262 -0.3636918 -0.8553058
v -0.6082287 0.3913734 -0.1216780
vn -0.4400651 -0.8811220 -0.1731092
v -0.6806715 -0.4709963 -0.0772022
vn -0.3885074 -0.4525198 0.8026755
v -0.5023662 -0.5099212 0.1894464
vn 0.9833251 -0.1710817 -0.0616665
v -0.6552774 -0.0236982 0.0042460
vn -0.0015986 0.0486729 0.9988135
v -0.6541643 0.4945592 0.1397126
vn -0.2776248 0.2455961 -0.9287664
v -0.6047314 -0.3459664 -0.2017463
vn -0.0461482 0.6738212 -0.7374520
v -0.6342257 -0.2546960 -0.1396142
vn -0.1335078 0.9567155 -0.2585944
v -0.6351836 0.1282261 -0.2569284
vn 0.4936592 0.2632615 -0.8288510
v -0.5530480 0.5515587 -0.1202653
vn 0.2022042 -0.9587420 -0.1998179
v -0.6017461 0.2800053 0.0004798
vn 0.1375346 0.9461166 0.2931685
v -0.6185988 0.6520658 0.0727214
vn -0.7240713 -0.6485195 0.2348261
v -0.5521445 -0.6465898 0.1238993
vn -0.2220133 0.1065516 0.9692042
v -0.5983462 0.0796416 0.3204308
vn 0.1475346 0.6119539 -0.7770110
v -0.5559696 0.0589696 0.1975711
vn 0.6772434 -0.6343113 0.3728144
v -0.5590928 0.3221548 0.0610331
vn -0.8471674 0.3151601 -0.4277635
v -0.5606022 -0.5586342 -0.1683862
vn -0.0857632 0.9887487 0.1225588
v -0.5366207 -0.1918402 0.0527570
vn 0.0731462 -0.6050436 -0.7928253
v -0.5386428 0.0377490 -0.3164335
vn -0.6848493 -0.5515309 -0.4762301
v -0.5561216 -0.6416053 -0.1730890
vn -0.9823345 0.1034835 -0.1559169
v -0.5241973 -0.5195254 -0.0979903
vn 0.2287465 -0.2849057 -0.9308618
v -0.4604125 0.0835364 0.2078919
vn 0.0799836 0.3310931 0.9402021
v -0.4982938 0.5498229 0.0793705
vn -0.2859321 -0.5319600 0.7970330
v -0.4404389 -0.6074356 0.2545614
vn -0.8326219 0.2988776 0.4662757
v -0.5462790 -0.5574871 0.1311984
vn -0.4370560 0.0404267 -0.8985254
v -0.4558930 -0.4838287 -0.2156622
vn 0.4263200 -0.7731490 0.4695656
v -0.4303384 0.0737605 0.3187525
vn 0.1920741 -0.9281958 -0.3186851
v -0.4970692 0.4812308 -0.0000898
vn 0.3611660 0.7647595 0.5335749
v -0.3674864 0.6433060 0.0689180
vn 0.0152065 0.4824734 -0.8757787
v -0.5063316 0.5624611 -0.0544206
vn -0.3389188 0.4403341 -0.8314084
v -0.3842406 -0.4892519 -0.2662528
vn -0.1954737 0.3094915 0.9305939
v -0.4684940 -0.2649700 0.1912331
vn -0.1406125 -0.8787270 -0.4561436
v -0.4007581 0.4212142 -0.0413825
vn -0.6556228 0.6682530 0.3515631
v -0.3614785 -0.0639339 0.0768973
vn -0.0784438 -0.5557386 0.8276480
v -0.4044145 0.4290067 0.0744038
vn 0.1029895 -0.8434934 -0.5271737
v -0.3754472 -0.5804263 -0.2864007
vn 0.1270573 0.1535524 -0.9799379
v -0.2154932 -0.1532989 -0.1697804
vn 0.7593850 -0.5372427 0.3670213
v -0.5308701 0.0283399 -0.2235144
vn 0.3419718 0.2893331 -0.8940591
v -0.3407326 0.5044752 -0.0940120
vn -0.2414888 0.9352921 -0.2586731
v -0.4267537 0.6511093 -0.0003588
vn -0.7429358 0.6452059 -0.1782018
v -0.3909698 0.2473435 -0.2554731
vn -0.2887127 0.4320074 -0.8544089
v -0.3933124 0.1504049 0.2123660
vn -0.4157892 0.5214313 0.7451368
v -0.3954119 -0.5112540 0.2552382
vn -0.2136314 0.1877080 0.9587113
v -0.4117212 -0.4841313 0.1897281
vn 0.4671613 -0.5253492 -0.7111741
v -0.2804356 0.1984791 0.2214419
vn 0.4356955 -0.5342507 0.7243933
v -0.4049514 0.1074085 -0.2342592
vn -0.0365750 0.6389676 -0.7683637
v -0.2317092 -0.3938873 -0.2060187
vn 0.3455608 -0.2414262 -0.9068082
v -0.3860039 0.1521467 -0.3302641
vn -0.0840194 0.4692104 0.8790804
v -0.3066997 0.2156318 0.3097752
vn 0.5907798 0.0363844 -0.8060120
v -0.2759612 0.2520005 -0.2607196
vn -0.8567864 0.3529325 -0.3759730
v -0.3505678 0.2569335 0.2272153
vn -0.8392283 -0.5396120 -0.0671915
v -0.2711203 0.3975123 0.1310001
vn -0.5310117 -0.7773415 0.3372932
v -0.3322072 0.4444528 0.0550206
vn 0.1600226 0.9739290 0.1607954
v -0.2739000 0.5583686 0.0334385
vn -0.3664251 -0.8929384 0.2615221
v -0.2569558 0.3733562 -0.1095568
vn -0.1243437 0.5654197 0.8153768
v -0.2490833 0.4361633 0.2001054
vn -0.1054761 0.8271559 -0.5519855
v -0.3036693 0.4898415 -0.0719973
vn -0.5004768 0.6214383 -0.6027747
v -0.3689616 -0.1433992 -0.1317848
vn -0.5263073 -0.3307124 0.7833454
v -0.2738363 0.1930716 0.0874718
vn -0.8834617 -0.1685828 -0.4371217
v -0.2834650 0.2086513 -0.0583050
vn -0.8071952 0.3011871 0.5076636
v -0.2814867 0.2324243 0.0766459
vn -0.8931457 0.0178369 0.4494136
v -0.2325354 0.1311179 0.0592084
vn 0.7226688 -0.4547221 -0.5205551
v -0.2035651 0.4023559 -0.1634360
vn -0.6183642 -0.7835076 -0.0611686
v -0.2137005 0.3558849 0.0110946
vn 0.8636965 -0.4180904 0.2814763
v -0.1804802 0.4077110 0.1533167
vn -0.0380996 0.6685634 -0.7426786
v -0.2716482 0.4424987 -0.1789572
vn 0.3576141 0.7199563 0.5947901
v -0.1316492 0.5224898 0.0557431
vn 0.4342467 0.7249097 -0.5347297
v -0.1336059 0.5187883 -0.0483936
vn -0.3819079 0.0011148 -0.9241998
v -0.1795465 0.1768059 -0.0716802
vn 0.2213580 0.9255071 -0.3073064
v -0.0948608 -0.3147930 -0.0687766
vn 0.0149805 -0.0064933 -0.9998667
v -0.1134962 0.3656188 -0.1148058
vn 0.1639566 0.3086755 0.9369299
v -0.1546454 0.4147765 0.0793316
vn -0.2074171 0.4688978 -0.8585529
v 0.0190606 -0.3125653 -0.2619562
vn 0.7917242 0.5858959 0.1729127
v -0.0085351 0.4575602 0.0436326
vn 0.2693246 -0.7819979 0.5620887
v 0.2104789 -0.3811362 0.2828115
vn -0.1536347 0.6800920 0.7168483
v -0.1823448 -0.3770192 0.1964829
vn 0.8300889 0.3811025 0.4070791
v -0.0799116 -0.3235966 0.0753288
vn 0.0619479 0.2039831 0.9770125
v -0.0493017 0.3668764 0.1232282
vn -0.2492388 0.6191689 0.7446542
v 0.1341446 -0.2630346 0.2807956
vn 0.8083001 -0.3371567 0.4826761
v -0.0259052 -0.0747114 0.0411573
vn 0.8153009 -0.3619581 -0.4519633
v -0.0317848 -0.0880447 -0.0518865
vn 0.5077966 -0.0309231 0.8609218
v -0.1319177 -0.0559178 0.1638930
vn 0.0272965 -0.0544424 0.9981437
v -0.0878156 0.0964507 0.1532008
vn 0.0658965 0.0261198 -0.9974846
v -0.0823224 0.0905157 -0.1445059
vn 0.1518312 -0.4109221 -0.8989385
v -0.0523185 -0.4616177 -0.2806982
vn -0.3661516 0.9271504 0.0795314
v 0.1192446 -0.2385726 0.0884062
vn 0.1336217 -0.5017792 0.8546128
v -0.0958971 -0.4848880 0.2805804
vn -0.3517866 0.8793488 -0.3209237
v 0.1975098 -0.2065566 -0.2350516
vn 0.5197858 -0.7960783 0.3099712
v 0.0880580 0.0547533 0.0464812
vn 0.2872951 0.3210447 0.9024367
v -0.0068431 0.2982846 0.0959176
vn 0.5738841 0.8017120 -0.1670775
v 0.0354071 0.3474826 -0.0152692
vn 0.3388484 0.9401692 -0.0355485
v 0.3899347 0.2731692 -0.0000232
vn 0.2192567 -0.6406093 -0.7358983
v 0.3063981 -0.3354339 -0.2815939
vn -0.0805809 -0.8559721 0.5107040
v 0.2577952 0.0956586 0.0515216
vn 0.2811006 -0.8221205 -0.4950762
v 0.1506701 0.0974988 -0.0513575
vn 0.3207362 0.4595717 -0.8282042
v 0.0249368 0.3168738 -0.0715406
vn -0.5099977 -0.8505519 -0.1283120
v 0.3131305 0.0473746 -0.0227970
vn 0.1110931 0.3339060 0.9360369
v 0.4157044 0.1892136 0.1096724
vn 0.0274966 0.0621851 0.9976858
v 0.4701164 -0.2192579 0.2941551
vn -0.9453251 -0.1759640 0.2745855
v 0.4190998 -0.0426665 0.0142064
vn 0.0441562 0.1627646 -0.9856764
v 0.2447571 0.2265599 -0.1077378
vn -0.7436798 0.6413164 -0.1888219
v 0.4107116 -0.1216779 -0.0361101
vn -0.5181248 0.6611431 0.5426201
v 0.5243205 -0.0991604 0.1628054
vn -0.1074959 0.6409409 -0.7600260
v 0.6997078 -0.0214204 -0.2224266
vn -0.4304065 -0.1295683 0.8932874
v 0.5495327 0.0031313 0.1372668
vn -0.0681248 0.3510076 -0.9338912
v 0.5628816 -0.1207337 -0.2797746
vn -0.5960619 -0.0916937 -0.7976857
v 0.5071260 -0.0377235 -0.1164560
vn 0.5065509 -0.2349819 -0.8295720
v 0.7348919 -0.1892850 -0.2685988
vn 0.1917417 0.5454965 0.8158852
v 0.7416387 0.0191039 0.1592636
vn 0.4068236 -0.7504239 0.5209209
v 0.6833015 -0.2196410 0.2685433
vn 0.0948842 0.5177213 0.8502715
v 0.7082454 -0.0694509 0.2509157
vn 0.3679622 0.5921002 -0.7169527
v 0.7485472 0.0027599 -0.1736445
vn 0.8603433 0.1981280 0.4696326
v 0.8708910 -0.1472066 0.1536252
vn 0.7379453 0.6513707 -0.1765021
v 0.8219239 0.0106919 -0.0643978
vn 0.5775816 0.7428731 0.3384364
v 0.7538890 0.0775218 0.0740133
vn 0.8999428 -0.2131699 -0.3803441
v 0.8789040 -0.1334002 -0.1258799
# 144 vertices, 0 vertices normals

f 1//1 15//15 2//2
f 11//11 1//1 3//3
f 3//3 1//1 2//2
f 1//1 9//9 4//4
f 1//1 11//11 9//9
f 1//1 4//4 15//15
f 11//11 3//3 16//16
f 2//2 15//15 17//17
f 5//5 16//16 3//3
f 3//3 10//10 5//5
f 12//12 2//2 6//6
f 2//2 7//7 3//3
f 22//22 3//3 8//8
f 8//8 3//3 7//7
f 17//17 6//6 2//2
f 12//12 7//7 2//2
f 10//10 3//3 22//22
f 10//10 19//19 5//5
f 20//20 12//12 6//6
f 14//14 15//15 4//4
f 21//21 12//12 20//20
f 9//9 11//11 36//36
f 26//26 14//14 4//4
f 17//17 25//25 6//6
f 36//36 11//11 23//23
f 11//11 13//13 23//23
f 16//16 13//13 11//11
f 5//5 37//37 16//16
f 18//18 37//37 5//5
f 24//24 17//17 15//15
f 19//19 18//18 5//5
f 19//19 21//21 20//20
f 30//30 10//10 22//22
f 12//12 34//34 7//7
f 9//9 31//31 4//4
f 27//27 14//14 26//26
f 13//13 33//33 23//23
f 15//15 14//14 24//24
f 42//42 29//29 17//17
f 29//29 25//25 17//17
f 19//19 20//20 18//18
f 19//19 10//10 21//21
f 34//34 40//40 7//7
f 8//8 38//38 22//22
f 8//8 7//7 40//40
f 23//23 33//33 27//27
f 66//66 37//37 18//18
f 32//32 26//26 4//4
f 27//27 33//33 14//14
f 14//14 28//28 24//24
f 13//13 18//18 33//33
f 42//42 17//17 24//24
f 10//10 30//30 39//39
f 21//21 44//44 12//12
f 12//12 44//44 34//34
f 13//13 16//16 47//47
f 66//66 18//18 13//13
f 28//28 14//14 33//33
f 33//33 18//18 20//20
f 6//6 28//28 20//20
f 6//6 25//25 28//28
f 10//10 39//39 21//21
f 22//22 38//38 30//30
f 40//40 38//38 8//8
f 31//31 32//32 4//4
f 60//60 26//26 32//32
f 36//36 35//35 9//9
f 26//26 46//46 27//27
f 46//46 36//36 23//23
f 27//27 46//46 23//23
f 13//13 47//47 66//66
f 28//28 33//33 20//20
f 39//39 44//44 21//21
f 51//51 40//40 34//34
f 32//32 31//31 49//49
f 31//31 9//9 54//54
f 47//47 16//16 37//37
f 43//43 28//28 25//25
f 77//77 29//29 42//42
f 40//40 58//58 38//38
f 45//45 48//48 41//41
f 41//41 53//53 45//45
f 37//37 66//66 74//74
f 44//44 51//51 34//34
f 31//31 54//54 49//49
f 47//47 37//37 76//76
f 43//43 25//25 29//29
f 45//45 53//53 49//49
f 35//35 54//54 9//9
f 46//46 86//86 36//36
f 43//43 50//50 28//28
f 28//28 50//50 24//24
f 55//55 42//42 24//24
f 39//39 30//30 44//44
f 44//44 30//30 38//38
f 44//44 38//38 56//56
f 51//51 44//44 56//56
f 40//40 51//51 58//58
f 41//41 52//52 53//53
f 53//53 32//32 49//49
f 43//43 29//29 50//50
f 56//56 38//38 58//58
f 45//45 49//49 54//54
f 50//50 55//55 24//24
f 70//70 50//50 29//29
f 77//77 70//70 29//29
f 64//64 41//41 48//48
f 45//45 64//64 48//48
f 71//71 53//53 52//52
f 65//65 54//54 35//35
f 46//46 26//26 60//60
f 55//55 77//77 42//42
f 37//37 74//74 69//69
f 64//64 45//45 59//59
f 72//72 32//32 53//53
f 71//71 72//72 53//53
f 54//54 59//59 45//45
f 35//35 36//36 86//86
f 62//62 86//86 46//46
f 76//76 66//66 47//47
f 70//70 77//77 79//79
f 51//51 68//68 58//58
f 68//68 51//51 57//57
f 72//72 60//60 32//32
f 69//69 76//76 37//37
f 58//58 61//61 56//56
f 41//41 64//64 52//52
f 50//50 73//73 55//55
f 50//50 70//70 73//73
f 56//56 61//61 63//63
f 56//56 63//63 51//51
f 67//67 61//61 58//58
f 62//62 46//46 60//60
f 58//58 68//68 67//67
f 63//63 57//57 51//51
f 65//65 75//75 54//54
f 61//61 81//81 63//63
f 68//68 57//57 67//67
f 72//72 104//104 60//60
f 74//74 66//66 76//76
f 67//67 81//81 61//61
f 82//82 63//63 81//81
f 82//82 57//57 63//63
f 57//57 82//82 67//67
f 54//54 75//75 59//59
f 86//86 65//65 35//35
f 90//90 86//86 62//62
f 77//77 55//55 73//73
f 76//76 78//78 74//74
f 69//69 78//78 76//76
f 69//69 94//94 78//78
f 83//83 69//69 74//74
f 82//82 85//85 67//67
f 103//103 115//115 64//64
f 115//115 52//52 64//64
f 115//115 71//71 52//52
f 60//60 111//111 62//62
f 79//79 73//73 70//70
f 85//85 69//69 83//83
f 85//85 94//94 69//69
f 67//67 83//83 81//81
f 67//67 85//85 83//83
f 86//86 90//90 97//97
f 89//89 88//88 87//87
f 94//94 91//91 78//78
f 73//73 79//79 80//80
f 79//79 77//77 80//80
f 80//80 77//77 84//84
f 92//92 81//81 83//83
f 81//81 92//92 80//80
f 81//81 80//80 84//84
f 82//82 81//81 84//84
f 110//110 60//60 104//104
f 88//88 90//90 87//87
f 91//91 83//83 74//74
f 94//94 85//85 82//82
f 72//72 71//71 104//104
f 90//90 88//88 97//97
f 78//78 91//91 74//74
f 73//73 80//80 93//93
f 92//92 93//93 80//80
f 94//94 82//82 96//96
f 95//95 96//96 82//82
f 65//65 109//109 75//75
f 110//110 111//111 60//60
f 111//111 90//90 62//62
f 99//99 97//97 88//88
f 93//93 77//77 73//73
f 89//89 92//92 88//88
f 77//77 93//93 84//84
f 91//91 92//92 83//83
f 94//94 96//96 91//91
f 95//95 82//82 84//84
f 59//59 113//113 64//64
f 113//113 59//59 101//101
f 59//59 75//75 101//101
f 86//86 112//112 65//65
f 99//99 88//88 92//92
f 71//71 107//107 104//104
f 110//110 104//104 105//105
f 98//98 75//75 109//109
f 112//112 86//86 97//97
f 92//92 91//91 99//99
f 93//93 92//92 100//100
f 100//100 84//84 93//93
f 89//89 100//100 92//92
f 99//99 91//91 96//96
f 84//84 100//100 95//95
f 95//95 102//102 96//96
f 107//107 71//71 115//115
f 108//108 110//110 105//105
f 113//113 103//103 64//64
f 87//87 90//90 118//118
f 106//106 100//100 89//89
f 65//65 112//112 109//109
f 118//118 90//90 111//111
f 118//118 106//106 87//87
f 106//106 89//89 87//87
f 97//97 124//124 112//112
f 96//96 124//124 99//99
f 106//106 95//95 100//100
f 109//109 105//105 98//98
f 108//108 105//105 109//109
f 124//124 97//97 99//99
f 98//98 116//116 75//75
f 105//105 114//114 98//98
f 112//112 123//123 109//109
f 129//129 112//112 124//124
f 110//110 108//108 111//111
f 106//106 102//102 95//95
f 102//102 124//124 96//96
f 116//116 101//101 75//75
f 118//118 102//102 106//106
f 117//117 108//108 109//109
f 111//111 108//108 117//117
f 119//119 102//102 118//118
f 124//124 102//102 119//119
f 121//121 103//103 113//113
f 101//101 121//121 113//113
f 114//114 105//105 104//104
f 109//109 123//123 117//117
f 103//103 107//107 115//115
f 114//114 116//116 98//98
f 129//129 123//123 112//112
f 123//123 122//122 117//117
f 122//122 111//111 117//117
f 118//118 111//111 126//126
f 119//119 118//118 120//120
f 121//121 138//138 103//103
f 129//129 124//124 119//119
f 111//111 122//122 126//126
f 114//114 130//130 116//116
f 126//126 120//120 118//118
f 116//116 134//134 101//101
f 121//121 101//101 134//134
f 114//114 104//104 107//107
f 125//125 122//122 123//123
f 129//129 125//125 123//123
f 127//127 107//107 103//103
f 131//131 130//130 114//114
f 107//107 131//131 114//114
f 120//120 129//129 119//119
f 139//139 131//131 107//107
f 135//135 130//130 128//128
f 135//135 128//128 125//125
f 130//130 131//131 128//128
f 133//133 122//122 125//125
f 129//129 135//135 125//125
f 120//120 126//126 143//143
f 127//127 103//103 138//138
f 122//122 133//133 126//126
f 134//134 136//136 121//121
f 133//133 128//128 131//131
f 133//133 125//125 128//128
f 135//135 129//129 140//140
f 139//139 107//107 127//127
f 137//137 143//143 126//126
f 116//116 130//130 132//132
f 132//132 130//130 135//135
f 129//129 120//120 140//140
f 138//138 139//139 127//127
f 126//126 133//133 137//137
f 134//134 116//116 132//132
f 137//137 131//131 139//139
f 131//131 137//137 133//133
f 140//140 132//132 135//135
f 120//120 142//142 140//140
f 142//142 120//120 143//143
f 138//138 121//121 136//136
f 134//134 132//132 136//136
f 138//138 141//141 139//139
f 132//132 140//140 136//136
f 144//144 136//136 140//140
f 137//137 139//139 141//141
f 136//136 144//144 138//138
f 144//144 141//141 138//138
f 141//141 143//143 137//137
f 144//144 140//140 142//142
f 142//142 143//143 141//141
f 144//144 142//142 141//141
# 300 faces, 0 coords texture

# End of File
