####
#
# OBJ File Generated by Meshlab
#
####
# Object fruit500.obj
#
# Vertices: 252
# Faces: 500
#
####
v -0.6991941 -0.2034867 0.0357181
v -0.6678194 -0.0413335 -0.2331636
v -0.6916448 -0.1038205 -0.2977208
v -0.7072160 0.1171359 0.1498118
v -0.6681904 0.2090631 -0.1370124
v -0.6887223 0.2436829 -0.0223451
v -0.6109476 -0.3284884 0.1523256
v -0.6630497 -0.2016618 -0.1857917
v -0.6398410 -0.0920623 -0.4084018
v -0.6534064 0.2933417 -0.2136976
v -0.6305684 -0.0059783 0.4180861
v -0.6790298 0.1181866 0.3132854
v -0.5557518 -0.3538215 0.4061937
v -0.6094954 -0.2758459 0.3271171
v -0.5837226 0.0304602 -0.5120283
v -0.6622404 0.2368448 0.0992340
v -0.5113723 0.3736694 -0.3667460
v -0.5479579 -0.0393429 0.0862813
v -0.5520467 0.0451873 -0.0903891
v -0.4907878 0.1537114 -0.4306701
v -0.5138651 0.2491730 0.1652892
v -0.5979184 0.3272632 -0.1466174
v -0.5184964 -0.1322293 0.3416230
v -0.5124957 0.1483211 0.4314003
v -0.5064576 -0.4917601 -0.2280641
v -0.5185806 -0.3802622 -0.3730127
v -0.4907047 -0.2763313 -0.1202154
v -0.4683585 0.0368729 -0.6763003
v -0.5069056 0.4908809 0.1614224
v -0.4588574 -0.5545203 -0.1709428
v -0.4455587 -0.3227987 -0.0125529
v -0.4542399 -0.3814370 -0.5142578
v -0.6274408 0.0668589 0.4522095
v -0.4637297 0.1703915 0.5142761
v -0.4896571 0.2610070 0.2566984
v -0.3979972 0.3475649 -0.6007431
v -0.5063533 0.3622088 0.4357269
v -0.4025381 -0.3783803 0.2355139
v -0.4827633 -0.1688718 -0.4342563
v -0.4105410 -0.0944834 -0.6114553
v -0.5119967 0.3288864 -0.5070779
v -0.4424482 0.3403513 -0.0052989
v -0.4263076 0.3308888 0.5877839
v -0.4384592 0.3494489 -0.1139400
v -0.4458675 -0.5665679 0.0239639
v -0.4422209 0.5846763 -0.0027518
v -0.4349064 -0.2350588 -0.6220440
v -0.3627352 -0.2160176 0.6597349
v -0.4454542 -0.1634913 0.5220967
v -0.3759365 0.3969676 -0.2409932
v -0.4655752 0.4779716 0.3598666
v -0.3946942 -0.4293917 0.1685922
v -0.4016162 0.0914448 0.6283400
v -0.3524682 0.1634081 -0.6566117
v -0.4319803 -0.4866155 -0.3385348
v -0.3175375 -0.5832532 0.3486278
v -0.3002912 -0.1391831 0.7216927
v -0.4250399 -0.0508178 0.7136758
v -0.2939813 0.4770123 0.2701510
v -0.4177718 0.5805728 0.1134561
v -0.3390274 0.4187394 -0.3403440
v -0.3485907 -0.6322730 0.1366470
v -0.3216813 -0.5321724 -0.1505002
v -0.3195999 -0.4332657 -0.3910287
v -0.3161346 -0.4066397 0.4059860
v -0.3871542 -0.3552872 0.5935572
v -0.2493733 -0.2430302 0.7542676
v -0.3800657 0.2119149 0.6941497
v -0.2811558 -0.3290233 -0.5952065
v -0.2133799 -0.2094411 -0.7395912
v -0.2497775 -0.6238343 0.3533980
v -0.2699871 -0.4669499 -0.3564984
v -0.2969977 0.3858802 0.5004590
v -0.2568962 0.4849553 0.3332030
v -0.3353516 0.5955458 -0.3023081
v -0.2031209 -0.3615219 0.6308996
v -0.1653764 -0.0067292 0.8228858
v -0.1714665 0.0565525 -0.8158784
v -0.2990686 0.6339401 -0.2031825
v -0.1712888 -0.5361893 0.0672912
v -0.1809389 -0.5624173 -0.5470497
v -0.3642092 -0.2076584 -0.7171617
v -0.2600258 -0.0318159 -0.7658843
v -0.2473316 0.3900125 -0.5511496
v -0.2436222 0.2452783 -0.7583804
v -0.2436858 0.2478488 0.6967595
v -0.2091663 0.6042314 -0.4343919
v -0.1411129 0.2884471 -0.7284929
v -0.2457125 0.5538245 -0.4826323
v -0.1735474 -0.6462895 -0.2664222
v -0.0925462 -0.6934438 -0.2975243
v -0.1552150 -0.5307254 0.5872226
v -0.0377623 -0.1437262 0.8230416
v -0.1224398 0.5761778 0.5071864
v -0.1726188 0.5306452 0.0496071
v -0.1999878 0.5746037 0.4843967
v -0.1015427 -0.5487119 0.2525711
v -0.1674592 -0.3334058 -0.7399836
v -0.2073396 0.0931530 0.8039767
v -0.1757018 0.5330529 -0.0517875
v -0.1444234 0.6724517 0.2132186
v -0.1575682 -0.5354233 0.0066555
v -0.0596107 -0.0515236 -0.8429808
v -0.1798768 0.4374771 0.6699801
v -0.0430613 0.6952433 -0.0714707
v -0.0308841 0.0973373 -0.8376572
v -0.1113939 0.2012762 0.8007135
v -0.0756357 0.6994563 0.2691173
v -0.0867116 0.4213355 -0.7079480
v -0.0362270 0.3987836 0.6459668
v -0.0778791 0.5455064 -0.2670542
v -0.0393831 -0.5570511 0.2861978
v -0.0152333 -0.5123636 0.4314247
v -0.0684096 -0.4375127 -0.6147567
v -0.0503534 -0.2818044 -0.7471138
v -0.0151338 -0.5574458 -0.3850906
v 0.0591999 -0.6876080 -0.0388661
v 0.0190123 -0.5278736 -0.4001279
v -0.0360540 -0.1048527 -0.8341712
v -0.0613719 -0.3724947 0.7439882
v 0.0537583 0.3448681 -0.7046975
v 0.0171155 0.4738785 -0.5214254
v 0.0547403 0.5715748 0.2120713
v -0.0297989 -0.7023941 0.0878386
v -0.0293716 -0.4273606 -0.6163693
v 0.0086047 0.5316728 0.3941059
v -0.0179598 0.7320201 0.0293402
v 0.0108541 -0.4522887 -0.5965930
v 0.0462085 -0.3773528 0.6763863
v 0.0605154 0.5377814 0.3517025
v -0.0256917 0.5568951 -0.3087034
v 0.0000077 -0.7356176 0.0097160
v 0.0889275 -0.5592629 -0.1483351
v 0.0702576 0.7083420 -0.0375332
v 0.0546766 -0.3525383 -0.7493725
v 0.0913638 -0.1304488 -0.8165286
v 0.1189246 0.6226998 -0.4383062
v 0.1026519 -0.6482198 0.3880562
v 0.1825526 -0.5293480 0.0707233
v 0.0786719 0.3785362 0.7356626
v 0.1662065 0.5791250 0.4836375
v 0.1170366 -0.6988528 0.2004648
v 0.0475172 -0.5140403 -0.4923054
v 0.0371264 0.1803590 0.8123953
v 0.1431259 -0.5729261 0.5154849
v 0.0953864 -0.5454507 -0.2637006
v 0.1280659 -0.4852122 -0.6400558
v 0.1750691 -0.4309715 0.6721947
v 0.1767093 -0.3207040 -0.6794123
v 0.1580042 -0.3001652 0.7595719
v 0.2148449 -0.2329011 -0.7608618
v 0.1626039 -0.0024588 -0.8163849
v 0.1811715 0.4553715 -0.6613941
v 0.1949601 -0.6055713 0.3284011
v 0.2083565 -0.5908096 -0.4594470
v 0.1849673 -0.1723277 0.7696747
v 0.0709632 0.0934280 0.8280424
v 0.1076288 0.1905801 -0.8046404
v 0.2251566 0.3680600 0.6080501
v 0.1913368 0.5951873 -0.4666429
v 0.2408813 -0.6196440 -0.2292086
v 0.1008135 -0.0072963 0.8352749
v 0.3081910 0.1623279 -0.7570674
v 0.1352353 0.6902741 -0.2512104
v 0.1952363 -0.5817143 0.4575919
v 0.2218291 -0.4602843 0.5879259
v 0.1776489 0.5289025 -0.0556709
v 0.2031861 -0.5247169 0.0182798
v 0.2465656 -0.4942655 0.2263780
v 0.2517610 -0.5426801 -0.4882242
v 0.2748003 0.3190584 -0.6213055
v 0.1818499 0.5341057 0.5709095
v 0.2786414 0.4515802 -0.3397025
v 0.2750689 -0.4463108 0.4055091
v 0.2715981 -0.3247207 0.6175922
v 0.1933596 0.2101645 0.7820744
v 0.2695883 0.4954408 -0.1890993
v 0.1591633 0.5382950 0.1044617
v 0.3055283 -0.4700442 0.2902760
v 0.3169167 0.1571897 0.6997166
v 0.3009506 0.5781908 0.3842681
v 0.2547205 -0.0889753 0.7845508
v 0.2906962 0.0352014 0.7758524
v 0.3562434 0.3125518 0.6678222
v 0.2778887 -0.3972421 -0.4930159
v 0.3734232 0.1486221 -0.6893425
v 0.3135665 -0.1807282 0.7495447
v 0.3436609 0.4022979 0.3490700
v 0.2960227 0.6368781 0.2383243
v 0.3201512 -0.6163394 -0.3050633
v 0.3826540 -0.6218224 -0.0577640
v 0.3576331 -0.3995006 -0.2951308
v 0.2588678 -0.1423293 -0.7380757
v 0.3648771 0.0631154 -0.6796650
v 0.3615214 0.5976940 -0.0167373
v 0.3650329 -0.3081406 -0.6711922
v 0.4013783 -0.3431905 0.5766114
v 0.3842239 0.3062854 -0.6235989
v 0.4403654 -0.4792108 0.3563897
v 0.4295976 -0.3470528 -0.0753649
v 0.4239427 -0.2265410 0.6465948
v 0.5102721 0.2877202 0.5029393
v 0.4046586 0.3713337 0.1672972
v 0.4340156 -0.5636709 -0.0784071
v 0.3921054 -0.0445623 -0.7330323
v 0.4612462 0.3923950 -0.4971801
v 0.4527311 0.3186051 -0.0122786
v 0.4062062 0.6080916 0.0825406
v 0.4355904 -0.1120660 0.5708756
v 0.4619252 0.0321161 0.6814538
v 0.5034264 -0.5067431 0.1836931
v 0.5274805 -0.3706719 -0.3168880
v 0.4828592 0.3040330 -0.5303683
v 0.5001676 0.2269772 -0.2437201
v 0.3973103 0.5478469 0.1817209
v 0.4533585 0.5319332 -0.2432841
v 0.4737757 -0.3604346 -0.5133596
v 0.4738243 -0.2898335 0.1381758
v 0.4908425 -0.2045704 0.3489913
v 0.4364675 0.1474286 0.5762988
v 0.5180478 -0.3876400 0.3989023
v 0.5124676 -0.2928265 -0.4948867
v 0.6588799 -0.2412247 0.0853813
v 0.4766290 0.1549124 -0.4621501
v 0.5153337 0.3995835 -0.3145413
v 0.4973639 0.4845766 -0.1257471
v 0.5003627 0.4871849 -0.2810839
v 0.5563961 -0.1244033 -0.2296690
v 0.5018133 -0.1388410 -0.3941315
v 0.4172651 -0.1665432 -0.5716626
v 0.5661780 -0.0176731 0.5631008
v 0.6190519 -0.3107042 -0.0889414
v 0.5847048 -0.0272383 -0.5323514
v 0.5578320 -0.0519352 -0.1848526
v 0.4970469 0.3758534 0.4540004
v 0.5353301 0.1095042 0.2837278
v 0.6653223 -0.0312084 0.3623564
v 0.6458690 0.0910670 -0.4009505
v 0.6200585 0.2843239 0.3086334
v 0.5659831 0.3612499 0.3126927
v 0.6094430 -0.3275779 -0.3144484
v 0.5563872 0.0339274 0.0372314
v 0.5889074 0.3219650 0.1069502
v 0.6568295 -0.2122678 -0.1766276
v 0.6721497 -0.0524909 0.2336010
v 0.6595799 0.2190222 -0.1432381
v 0.6733910 -0.1309932 0.3133422
v 0.6836076 0.0635884 -0.2786014
v 0.6786711 0.1794008 0.0588516
v 0.6618986 0.2777739 0.1366514
v 0.6996369 -0.2059918 -0.0325596
v 0.7013198 0.1999417 -0.1046715
# 252 vertices, 0 vertices normals

f 1 3 8
f 2 3 1
f 12 4 11
f 4 12 16
f 6 5 4
f 4 16 6
f 5 6 10
f 7 1 8
f 11 33 12
f 13 14 7
f 7 14 1
f 3 9 8
f 9 3 15
f 15 3 2
f 19 4 5
f 10 6 22
f 1 18 2
f 11 4 18
f 22 6 16
f 15 28 9
f 23 11 18
f 19 18 4
f 7 8 27
f 14 23 1
f 18 1 23
f 18 19 2
f 2 20 15
f 20 2 19
f 5 20 19
f 24 16 12
f 21 16 24
f 10 41 5
f 17 41 10
f 22 17 10
f 39 27 8
f 8 9 39
f 24 12 33
f 41 20 5
f 44 16 21
f 22 16 44
f 58 33 11
f 31 7 27
f 14 49 23
f 53 24 33
f 11 23 49
f 20 54 15
f 21 24 35
f 35 24 34
f 34 37 35
f 44 17 22
f 29 35 37
f 29 37 51
f 25 26 32
f 25 31 26
f 7 38 13
f 47 32 26
f 39 26 27
f 27 26 31
f 48 14 13
f 48 49 14
f 40 39 9
f 58 11 49
f 24 53 34
f 21 42 44
f 21 35 42
f 17 36 41
f 29 42 35
f 29 60 46
f 51 60 29
f 25 30 45
f 25 55 30
f 32 55 25
f 45 31 25
f 31 38 7
f 32 47 82
f 39 47 26
f 9 28 40
f 37 34 43
f 43 51 37
f 31 45 52
f 38 65 13
f 39 40 47
f 53 33 58
f 28 15 54
f 20 41 54
f 34 68 43
f 50 17 44
f 65 66 13
f 29 50 42
f 30 62 45
f 31 52 38
f 13 66 48
f 49 48 57
f 57 58 49
f 34 53 68
f 42 50 44
f 46 50 29
f 62 56 45
f 30 63 62
f 52 45 56
f 64 30 55
f 61 36 17
f 61 17 50
f 75 50 46
f 46 79 75
f 60 79 46
f 64 63 30
f 38 52 65
f 69 32 82
f 67 48 66
f 40 82 47
f 28 83 40
f 85 41 36
f 43 73 51
f 51 73 59
f 51 59 60
f 75 61 50
f 65 52 56
f 32 64 55
f 65 76 66
f 32 69 64
f 83 82 40
f 54 41 85
f 86 43 68
f 73 43 86
f 67 57 48
f 78 83 28
f 77 53 58
f 36 61 84
f 71 56 62
f 82 70 69
f 53 99 68
f 99 86 68
f 75 84 61
f 87 75 79
f 62 63 80
f 64 72 63
f 76 65 56
f 69 72 64
f 77 99 53
f 54 78 28
f 74 59 73
f 75 89 84
f 59 100 60
f 75 87 89
f 66 76 67
f 54 85 78
f 84 85 36
f 73 96 74
f 60 100 79
f 71 62 97
f 62 80 97
f 71 92 56
f 63 102 80
f 92 76 56
f 72 81 90
f 63 72 102
f 69 81 72
f 103 70 82
f 77 58 57
f 73 86 104
f 104 96 73
f 98 81 69
f 69 70 98
f 67 76 93
f 83 103 82
f 88 85 84
f 84 89 88
f 95 100 59
f 95 59 74
f 102 72 90
f 77 57 93
f 101 74 96
f 81 91 90
f 89 109 88
f 94 96 104
f 87 109 89
f 101 95 74
f 97 113 71
f 92 71 113
f 78 85 106
f 107 86 99
f 107 104 86
f 79 100 111
f 102 97 80
f 93 57 67
f 103 83 78
f 77 107 99
f 111 87 79
f 96 94 108
f 108 101 96
f 90 124 102
f 114 81 98
f 92 120 76
f 120 93 76
f 98 70 119
f 103 119 70
f 78 106 103
f 122 109 87
f 100 131 111
f 100 95 131
f 101 105 95
f 81 114 91
f 114 98 115
f 110 94 104
f 111 122 87
f 105 131 95
f 132 124 90
f 124 112 102
f 112 97 102
f 98 119 115
f 106 85 88
f 107 144 104
f 104 144 110
f 108 127 101
f 90 91 132
f 97 112 113
f 116 91 114
f 113 129 92
f 92 129 120
f 157 107 77
f 127 105 101
f 115 125 114
f 157 144 107
f 88 109 106
f 122 121 109
f 117 91 116
f 114 125 116
f 116 125 118
f 115 128 125
f 119 135 115
f 93 162 77
f 157 77 162
f 106 109 121
f 94 110 126
f 111 131 122
f 94 126 123
f 123 108 94
f 132 91 117
f 112 124 138
f 118 125 128
f 106 158 103
f 110 144 140
f 134 108 123
f 134 127 108
f 133 117 116
f 128 115 135
f 120 129 93
f 118 133 116
f 112 138 113
f 143 118 128
f 145 129 113
f 106 121 158
f 141 126 110
f 130 123 126
f 105 137 131
f 164 137 105
f 164 105 127
f 134 164 127
f 132 142 124
f 124 142 138
f 143 146 118
f 118 146 133
f 128 135 147
f 136 135 119
f 162 93 150
f 103 136 119
f 158 152 103
f 172 110 140
f 130 126 141
f 131 137 122
f 134 123 167
f 117 142 132
f 138 145 113
f 128 147 143
f 93 129 150
f 153 121 122
f 172 141 110
f 139 117 133
f 146 143 161
f 148 129 145
f 149 147 135
f 150 129 148
f 136 149 135
f 153 158 121
f 153 122 137
f 178 123 130
f 139 142 117
f 146 168 133
f 156 162 150
f 103 152 136
f 157 176 144
f 123 178 167
f 143 155 161
f 155 143 147
f 168 139 133
f 149 136 151
f 156 182 162
f 187 182 156
f 164 160 137
f 142 139 154
f 142 165 138
f 145 138 165
f 165 148 145
f 155 147 170
f 147 149 170
f 193 151 136
f 159 140 144
f 153 137 160
f 167 164 134
f 165 142 154
f 183 157 162
f 152 158 163
f 180 176 157
f 158 153 171
f 172 140 159
f 178 177 167
f 130 189 178
f 130 141 189
f 139 168 169
f 165 166 148
f 175 150 166
f 150 148 166
f 150 175 156
f 196 151 193
f 152 193 136
f 162 182 183
f 183 180 157
f 176 159 144
f 155 190 161
f 168 146 161
f 139 169 154
f 154 169 174
f 154 174 165
f 149 185 170
f 149 151 196
f 152 205 193
f 163 158 171
f 181 172 159
f 153 160 171
f 160 164 173
f 173 164 167
f 165 174 166
f 175 166 174
f 171 160 173
f 189 195 178
f 172 181 141
f 155 170 190
f 168 179 169
f 175 187 156
f 176 180 184
f 176 184 159
f 177 173 167
f 181 189 141
f 190 191 161
f 169 179 174
f 163 186 152
f 188 181 159
f 195 177 178
f 179 197 174
f 175 174 197
f 194 152 186
f 173 198 171
f 208 195 189
f 161 179 168
f 191 179 161
f 185 192 170
f 185 149 196
f 197 187 175
f 205 152 194
f 163 171 198
f 182 187 201
f 180 183 210
f 235 159 184
f 188 215 181
f 215 189 181
f 191 190 204
f 170 192 190
f 191 199 179
f 179 199 197
f 230 196 193
f 193 205 230
f 209 182 201
f 183 182 209
f 202 184 180
f 235 188 159
f 206 198 173
f 203 215 188
f 216 173 177
f 195 216 177
f 208 189 215
f 190 192 204
f 196 217 185
f 197 201 187
f 216 206 173
f 204 192 200
f 217 192 185
f 213 186 163
f 198 213 163
f 235 240 188
f 210 183 209
f 224 194 186
f 207 215 203
f 208 216 195
f 199 191 211
f 200 218 211
f 217 212 192
f 221 201 197
f 230 205 233
f 202 180 220
f 224 186 213
f 206 213 198
f 240 203 188
f 215 207 226
f 208 215 226
f 208 226 216
f 204 211 191
f 204 200 211
f 199 221 197
f 212 200 192
f 222 217 196
f 222 196 230
f 220 180 210
f 202 235 184
f 225 226 207
f 216 227 206
f 227 216 226
f 211 221 199
f 211 218 221
f 218 219 221
f 221 209 201
f 221 219 209
f 209 231 210
f 194 233 205
f 236 202 220
f 214 224 225
f 225 207 214
f 241 212 217
f 229 222 230
f 238 194 224
f 213 225 224
f 240 243 203
f 213 206 225
f 225 206 227
f 225 227 226
f 217 222 241
f 200 223 218
f 218 223 219
f 234 228 229
f 231 220 210
f 244 222 229
f 244 229 228
f 223 247 219
f 247 209 219
f 209 247 231
f 233 229 230
f 238 233 194
f 236 220 237
f 214 246 224
f 212 232 200
f 244 241 222
f 242 245 228
f 228 234 242
f 245 242 236
f 202 236 239
f 246 214 207
f 207 243 246
f 243 207 203
f 239 235 202
f 212 241 232
f 232 223 200
f 234 229 233
f 231 237 220
f 237 245 236
f 246 238 224
f 236 242 249
f 236 249 239
f 235 239 240
f 228 245 244
f 248 234 233
f 233 238 248
f 240 250 243
f 240 239 250
f 251 232 241
f 223 232 251
f 244 245 251
f 237 231 247
f 249 242 234
f 249 250 239
f 250 246 243
f 251 241 244
f 248 249 234
f 246 252 238
f 250 252 246
f 251 247 223
f 251 245 247
f 247 245 237
f 238 252 248
f 248 252 249
f 252 250 249
# 500 faces, 0 coords texture

# End of File
