####
#
# OBJ File Generated by Meshlab
#
####
# Object gear500.obj
#
# Vertices: 250
# Faces: 500
#
####
v -0.8582022 -0.3095710 -0.2109309
v -0.8513178 -0.3085336 -0.0674272
v -0.8567967 -0.3028653 -0.6477365
v -0.8820100 -0.2053689 -0.5957265
v -0.8978814 -0.1234440 -0.0869433
v -0.8947957 -0.1221301 -0.6413613
v -0.8626990 -0.1253863 -0.0346572
v -0.8587201 -0.0975302 -0.6437701
v -0.6832619 -0.0044827 -0.6477447
v -0.8214596 -0.3291344 -0.0557356
v -0.7789882 -0.0529141 0.0610101
v -0.8359619 -0.0808219 -0.0335287
v -0.7551473 0.4759138 -0.0881817
v -0.7229207 -0.2984976 0.0664096
v -0.7430004 0.4576825 -0.6480495
v -0.7548773 0.4740686 -0.6167979
v -0.7048591 -0.3341016 0.0567102
v -0.7533934 0.4362679 -0.6208003
v -0.7534997 0.4337127 -0.0486190
v -0.8163018 -0.3281054 -0.6145681
v -0.5401388 -0.0821490 0.0807524
v -0.6360377 0.6174701 -0.6370535
v -0.6358032 0.6171756 -0.0721503
v -0.7127669 0.3777890 0.0211829
v -0.6518608 0.3702524 0.0722596
v -0.5966867 0.0441496 0.0661382
v -0.5283592 0.1286566 0.0588303
v -0.5308699 0.0784030 -0.6461004
v -0.5911627 0.2152500 -0.6109895
v -0.5412126 0.0168903 0.6421005
v -0.5325670 0.0840407 0.0694853
v -0.5586368 0.1987236 -0.6466991
v -0.5255370 0.1221975 -0.6047708
v -0.5055528 0.1643385 0.6466042
v -0.4676871 0.2534207 0.0817215
v -0.4531094 0.2686562 0.6424515
v -0.5095961 0.5651333 0.0656006
v -0.3336303 -0.8462093 -0.6428658
v -0.3788795 -0.8396730 -0.6084859
v -0.4831655 -0.7822427 -0.6430976
v -0.4381123 -0.5455838 -0.6464320
v -0.4616968 -0.6454000 0.0634083
v -0.4416890 -0.3417528 -0.6080318
v -0.4384513 -0.3428660 0.0633787
v -0.4343497 -0.3436127 0.6117829
v -0.4911640 -0.2559272 0.0812069
v -0.5062622 -0.2184000 0.6476834
v -0.4997661 0.5412687 -0.6465387
v -0.4628949 0.5464057 -0.6106188
v -0.3465288 0.4955959 0.0666480
v -0.4832618 -0.7824719 -0.0665391
v -0.3761201 -0.4152037 0.0743792
v -0.4153268 -0.4016749 0.0612631
v -0.4119547 -0.3768583 -0.6082968
v -0.4191523 -0.3663257 0.0864598
v -0.4288319 -0.3300868 -0.6464737
v -0.3988409 -0.0167146 0.6486434
v -0.3628901 -0.1466789 0.0295940
v -0.3782807 -0.0499347 -0.6071978
v -0.3757687 0.0391974 0.0923626
v -0.3816210 0.0200955 0.6139809
v -0.3718405 0.0627869 -0.6448045
v -0.3651540 0.3770486 0.6487675
v -0.2704832 0.4610842 -0.6417676
v -0.2664054 0.4616080 0.0546476
v -0.3471046 -0.4351397 0.6461069
v -0.2933905 -0.2677646 -0.6427472
v -0.3783946 -0.1432333 -0.6479276
v -0.3494833 -0.1717205 -0.6112825
v -0.3611958 -0.1488081 0.6479242
v -0.3434672 0.1390442 -0.0101941
v -0.3369503 0.4067282 0.0797748
v -0.2964174 -0.8701571 -0.6169748
v -0.3973215 -0.3808435 -0.6466253
v -0.2076478 -0.5237688 0.6114802
v -0.2887107 -0.2719087 0.6469447
v -0.3314101 0.1648163 -0.6118605
v -0.3443055 0.1440700 0.6475546
v -0.2860949 0.2453692 -0.6457561
v -0.2956446 -0.8738625 -0.0694643
v -0.2196471 -0.7771257 0.0551815
v -0.1466920 -0.7044384 -0.6464658
v -0.2302996 -0.3254985 -0.6435597
v -0.2161302 -0.5022942 0.6472457
v -0.2355957 -0.3239165 0.6413512
v -0.2439962 0.2734052 -0.6140013
v -0.2599297 0.2592487 0.1097073
v -0.2189013 0.4734717 0.0593410
v -0.2396012 -0.8097693 -0.6462136
v -0.2430136 -0.5065784 0.0773533
v -0.2103198 -0.3389036 -0.0236457
v -0.2431827 0.2763654 0.6468346
v -0.2206713 0.4678138 -0.6385826
v -0.1321246 -0.3829921 0.6430164
v -0.1306766 0.3350493 0.5976939
v -0.1752684 0.4936970 0.0797683
v -0.2345296 0.4670542 0.6211718
v -0.1403397 0.6715295 -0.6459728
v -0.2009975 0.5316888 -0.6130033
v -0.0659121 -0.5563277 0.6473809
v -0.1406399 -0.3756534 -0.6048846
v -0.1380097 0.3761227 -0.6462896
v -0.1727243 0.4719292 0.6478837
v -0.1522846 0.7016010 0.0701421
v -0.1160284 0.8525273 -0.1076806
v -0.1233423 0.8112935 -0.0020936
v -0.1466144 -0.7064391 0.0671861
v -0.0573567 -0.3998010 0.6430939
v -0.1461097 0.3317600 -0.6360663
v -0.0921161 0.5091909 0.6464519
v -0.1181088 0.8487867 -0.6071191
v -0.0937387 0.8779643 -0.0865579
v -0.0864377 0.8771771 -0.6088015
v -0.0230965 -0.5650439 0.0722144
v -0.0927484 -0.5560353 0.0902420
v -0.1220431 -0.4037637 -0.6459039
v -0.1070030 -0.3876350 -0.0050618
v -0.0881316 0.8581147 -0.6469367
v 0.0750555 0.8797429 -0.6066841
v 0.0025120 -0.5310627 -0.6465422
v -0.0255081 -0.5661495 -0.6157805
v 0.1052412 -0.5509124 0.6468309
v -0.0222123 0.3575819 0.0634747
v -0.1006047 0.3606402 0.6469135
v 0.0218794 -0.5645010 -0.6137536
v -0.0219693 -0.3999793 -0.6243220
v 0.0100168 0.3586537 0.5984960
v -0.0208693 0.5198383 0.0798088
v 0.0204661 -0.5655771 0.0522766
v 0.1093505 -0.3846024 -0.6062627
v 0.0751975 -0.3937464 0.6070965
v 0.0799142 0.3502583 -0.6086676
v 0.0986436 0.7374393 0.0701234
v 0.1116657 0.8567238 -0.0507478
v 0.1501983 -0.7133164 -0.6402646
v 0.1884292 -0.7598859 0.0638737
v 0.1238640 0.4939281 0.6479541
v 0.0892529 0.8769838 -0.0858287
v -0.0038224 0.3607472 -0.6441783
v 0.1098195 0.5085083 0.0860069
v 0.0532105 0.5174751 0.6233778
v 0.1072158 0.8589674 -0.6441310
v 0.1439197 -0.3940252 -0.6464772
v 0.1358604 0.3318829 -0.6005626
v 0.0823734 0.3502797 0.6447681
v 0.1760083 0.5140717 -0.6447605
v 0.1607209 0.5373734 0.0742065
v 0.1653095 0.6581568 -0.6407835
v 0.1309743 0.7842796 -0.6392215
v 0.1392849 0.7563196 0.0476552
v 0.0987621 -0.5572408 0.0788557
v 0.1739302 -0.3603403 0.6457079
v 0.1938128 -0.3468711 0.0338314
v 0.2240762 0.2824490 0.0116981
v 0.2125515 0.2941595 0.6438875
v 0.2167576 0.4717997 0.0450205
v 0.2116684 0.4750887 0.0636379
v 0.2331375 0.2763241 -0.6117744
v 0.2188728 0.4716188 -0.6317074
v 0.2565705 -0.8404267 -0.0236729
v 0.3171973 -0.4592781 0.0775341
v 0.2368897 -0.5044399 0.6449088
v 0.1768376 0.3437906 -0.6451400
v 0.2780170 0.4408005 0.0824513
v 0.2824221 -0.8450710 -0.6456275
v 0.2309498 -0.3242055 -0.6444439
v 0.2828203 -0.2724049 -0.6394826
v 0.2435912 0.4613009 0.6119366
v 0.2651324 0.4597440 -0.6413382
v 0.2703437 0.4647511 0.0612605
v 0.2924846 -0.8738079 -0.6124548
v 0.3021490 -0.8724059 -0.0746199
v 0.3586050 -0.8455958 -0.6455520
v 0.3987474 -0.6765691 0.0670154
v 0.3446645 -0.4322349 0.6441841
v 0.3026118 -0.2518613 0.6466962
v 0.3762041 0.1302511 -0.6449466
v 0.3176267 0.1851446 0.6058206
v 0.2625126 0.4374921 0.6474009
v 0.4196638 -0.5546297 -0.6453764
v 0.3480640 -0.1719863 -0.6227238
v 0.3556711 -0.1548629 0.0687308
v 0.3729073 -0.0916716 0.6411083
v 0.3633722 0.0814610 0.6120465
v 0.5077550 0.1252375 0.6468000
v 0.3736234 0.5099307 -0.6160973
v 0.3944586 -0.3902008 0.0699214
v 0.4037766 -0.3361975 -0.6431028
v 0.4168880 -0.3575997 0.6412274
v 0.3891517 -0.1492845 -0.6444435
v 0.3773533 -0.0301027 -0.6026726
v 0.3460784 0.1445791 -0.6123661
v 0.3635636 0.1330047 0.6474208
v 0.3784208 0.3632170 0.0881922
v 0.3403985 0.3957770 0.6107224
v 0.4555456 -0.6260687 0.0596460
v 0.4374053 -0.5323386 -0.6154904
v 0.4084364 -0.3744591 -0.6078102
v 0.4137832 -0.4054519 0.0504603
v 0.4218499 -0.3535494 0.0400868
v 0.4832636 -0.2510250 0.6439652
v 0.5167083 0.1463333 -0.6441844
v 0.4677405 0.2481341 0.0856436
v 0.4224646 0.3068970 0.6459284
v 0.5385985 0.2240676 0.0737587
v 0.4491031 0.5215884 -0.6440759
v 0.4060143 0.4914895 0.0714117
v 0.4839232 -0.7814668 -0.0752591
v 0.4408322 -0.3394927 -0.6300993
v 0.4940156 0.5629315 0.0463831
v 0.4796436 -0.7810567 -0.6421160
v 0.4683169 -0.2893722 0.0777754
v 0.5733113 -0.1839054 0.0768179
v 0.5270689 -0.1349209 0.0803244
v 0.5072063 -0.1980497 0.6123810
v 0.5331568 0.0795558 0.0629812
v 0.5369914 -0.0427538 0.6090364
v 0.5384501 0.0185705 0.0850913
v 0.5320966 0.0780185 -0.6113115
v 0.5259661 0.1263788 -0.6116896
v 0.5256740 0.1244577 0.0491865
v 0.5164127 0.1323948 0.0702509
v 0.5087353 0.1565737 0.6119686
v 0.5117765 0.5510247 0.0686107
v 0.6101192 0.6139748 -0.6067097
v 0.5793039 0.5995537 -0.0158753
v 0.4774588 -0.3391014 0.0608153
v 0.6424130 -0.0084479 -0.6439822
v 0.6153172 0.2502748 -0.6397086
v 0.7200228 0.3920596 0.0025462
v 0.6696322 0.3333837 0.0700411
v 0.8197777 -0.3263182 -0.0588637
v 0.6267493 -0.2940121 -0.6449583
v 0.6448807 0.5761129 -0.6463087
v 0.7359547 -0.0317681 0.0697066
v 0.6468114 0.6061060 -0.6195142
v 0.6349962 0.6206169 -0.0719242
v 0.7646168 0.4535415 -0.0689495
v 0.7084267 -0.3293481 0.0620482
v 0.7805874 -0.0591996 0.0558394
v 0.7613751 0.4554294 -0.6417271
v 0.8139480 -0.3259960 -0.6097156
v 0.8542181 -0.3005657 -0.6385784
v 0.8554671 -0.3006762 -0.0689545
v 0.8620151 -0.1228727 -0.6442701
v 0.8673084 -0.1266645 -0.0403411
v 0.8158695 -0.0725047 -0.6072972
v 0.8205425 -0.0747662 -0.0218231
v 0.8961916 -0.1231701 -0.0900242
v 0.8953540 -0.1238449 -0.6210714
# 250 vertices, 0 vertices normals

f 6 4 5
f 4 3 1
f 5 1 2
f 3 4 8
f 4 1 5
f 6 8 4
f 5 2 7
f 12 8 6
f 12 6 5
f 12 5 7
f 3 20 1
f 20 10 1
f 1 10 2
f 7 11 12
f 17 10 20
f 14 2 10
f 11 2 14
f 7 2 11
f 8 9 3
f 12 9 8
f 17 14 10
f 16 18 19
f 16 19 13
f 21 11 14
f 28 9 12
f 29 19 18
f 16 15 18
f 29 18 32
f 29 24 19
f 15 32 18
f 19 24 25
f 48 15 22
f 16 22 15
f 22 16 13
f 23 13 19
f 46 14 17
f 21 14 46
f 26 11 21
f 12 26 28
f 11 26 12
f 27 25 24
f 23 19 37
f 23 22 13
f 20 3 56
f 15 48 32
f 37 19 25
f 43 17 20
f 44 46 17
f 27 24 29
f 9 28 3
f 31 26 21
f 31 28 26
f 35 25 27
f 22 49 48
f 49 22 23
f 37 49 23
f 56 43 20
f 43 44 17
f 21 46 47
f 21 47 30
f 31 21 30
f 32 28 33
f 33 28 31
f 33 31 27
f 31 30 34
f 32 33 29
f 29 33 27
f 35 27 31
f 48 62 32
f 48 79 62
f 42 40 51
f 3 68 56
f 70 30 47
f 57 30 70
f 57 34 30
f 32 62 28
f 34 35 31
f 36 35 34
f 72 25 35
f 50 37 25
f 50 49 37
f 39 40 38
f 39 51 40
f 42 41 40
f 46 44 47
f 47 44 45
f 28 68 3
f 78 34 57
f 72 50 25
f 40 41 38
f 81 42 51
f 54 74 41
f 54 41 42
f 54 42 53
f 42 52 53
f 55 54 53
f 56 74 54
f 43 56 54
f 43 54 55
f 43 55 44
f 44 55 45
f 47 45 66
f 28 62 68
f 78 36 34
f 92 36 78
f 92 63 36
f 35 63 72
f 63 35 36
f 48 49 64
f 39 80 51
f 89 38 41
f 90 52 42
f 52 66 55
f 52 55 53
f 55 66 45
f 70 47 76
f 68 67 56
f 68 59 69
f 58 69 59
f 58 61 70
f 70 61 57
f 68 62 59
f 59 60 58
f 58 60 61
f 59 62 60
f 78 57 61
f 48 64 79
f 49 50 65
f 89 41 74
f 66 76 47
f 68 69 67
f 62 77 71
f 62 71 60
f 60 71 61
f 61 71 78
f 62 79 77
f 38 73 39
f 39 73 80
f 80 81 51
f 52 90 66
f 66 90 75
f 84 76 66
f 56 83 74
f 56 67 83
f 58 76 69
f 69 76 67
f 76 58 70
f 87 71 77
f 78 71 87
f 86 77 79
f 77 86 87
f 78 87 92
f 64 102 79
f 97 72 63
f 65 50 72
f 65 64 49
f 38 89 73
f 73 89 80
f 107 42 81
f 107 90 42
f 74 82 89
f 76 84 85
f 96 65 72
f 81 80 107
f 89 82 80
f 80 82 107
f 84 66 75
f 76 91 67
f 67 91 83
f 85 91 76
f 109 79 102
f 93 102 64
f 88 93 64
f 88 64 65
f 88 65 96
f 96 72 97
f 63 103 97
f 83 116 74
f 101 116 83
f 91 101 83
f 79 109 86
f 103 63 92
f 99 93 88
f 115 75 90
f 75 100 84
f 84 94 85
f 101 91 117
f 117 91 85
f 117 85 94
f 109 95 86
f 86 95 87
f 87 95 92
f 95 124 92
f 124 103 92
f 102 93 98
f 99 98 93
f 96 104 88
f 104 99 88
f 105 99 104
f 111 98 99
f 114 90 107
f 115 90 114
f 74 120 82
f 74 116 120
f 108 117 94
f 110 103 124
f 110 96 97
f 103 110 97
f 106 105 104
f 105 111 99
f 121 107 82
f 100 94 84
f 128 104 96
f 133 106 104
f 111 118 98
f 105 106 112
f 118 111 113
f 113 111 105
f 113 105 112
f 114 107 121
f 115 100 75
f 108 94 100
f 126 116 101
f 126 101 117
f 102 139 109
f 109 123 95
f 139 123 109
f 123 127 95
f 127 124 95
f 137 110 124
f 98 139 102
f 98 118 139
f 141 96 110
f 141 128 96
f 121 82 120
f 114 100 115
f 108 126 117
f 106 133 134
f 119 118 113
f 138 113 112
f 134 112 106
f 125 121 120
f 121 129 114
f 125 129 121
f 114 151 100
f 151 122 100
f 108 100 122
f 131 126 108
f 132 123 139
f 145 124 127
f 147 104 128
f 133 104 147
f 142 149 118
f 119 142 118
f 138 119 113
f 136 129 125
f 151 114 129
f 116 143 120
f 116 126 143
f 130 143 126
f 131 130 126
f 132 127 123
f 141 140 128
f 137 141 110
f 134 138 112
f 135 136 125
f 120 135 125
f 152 108 122
f 152 131 108
f 132 144 127
f 144 145 127
f 118 163 139
f 140 147 128
f 136 151 129
f 120 173 135
f 120 143 173
f 179 124 145
f 179 137 124
f 118 146 163
f 148 146 118
f 148 118 149
f 133 150 134
f 134 149 142
f 142 119 138
f 142 138 134
f 131 153 130
f 131 152 153
f 163 144 132
f 155 145 144
f 132 139 163
f 150 133 147
f 148 149 150
f 150 149 134
f 173 165 135
f 151 162 122
f 143 166 173
f 162 152 122
f 166 143 130
f 153 166 130
f 163 158 144
f 158 154 144
f 144 154 155
f 179 145 155
f 140 157 147
f 168 140 141
f 168 157 140
f 141 137 168
f 159 146 148
f 148 150 156
f 156 150 157
f 150 147 157
f 171 160 135
f 165 171 135
f 135 160 136
f 161 162 151
f 176 152 162
f 163 169 177
f 169 146 159
f 163 146 169
f 159 148 156
f 136 160 174
f 175 176 162
f 153 167 166
f 153 176 167
f 152 176 153
f 169 159 156
f 170 169 156
f 164 156 157
f 164 170 156
f 168 164 157
f 179 168 137
f 179 195 168
f 172 160 171
f 174 151 136
f 161 151 174
f 163 192 158
f 158 192 178
f 158 178 154
f 154 178 155
f 155 178 193
f 179 155 193
f 169 170 186
f 171 165 173
f 174 172 208
f 160 172 174
f 166 180 173
f 187 175 161
f 161 175 162
f 167 188 166
f 190 167 181
f 167 182 181
f 176 182 167
f 163 177 192
f 185 179 193
f 204 179 185
f 179 204 195
f 194 170 164
f 195 194 164
f 195 164 168
f 173 180 211
f 166 188 180
f 189 176 175
f 182 176 183
f 178 192 184
f 178 184 193
f 205 170 194
f 207 170 205
f 171 173 172
f 173 208 172
f 187 161 174
f 187 189 175
f 190 188 167
f 201 183 176
f 190 181 191
f 181 182 191
f 191 182 183
f 190 191 177
f 184 191 183
f 177 191 192
f 192 191 184
f 193 184 183
f 195 204 194
f 169 206 177
f 186 206 169
f 170 207 210
f 196 187 174
f 199 187 196
f 180 198 197
f 197 198 199
f 198 180 188
f 198 200 199
f 199 200 187
f 188 209 198
f 198 209 200
f 187 200 212
f 187 212 189
f 201 176 189
f 185 183 201
f 185 193 183
f 194 203 205
f 203 194 204
f 231 207 205
f 224 207 231
f 210 186 170
f 173 211 208
f 196 208 197
f 211 180 197
f 208 196 174
f 197 199 196
f 209 227 200
f 200 227 212
f 189 212 201
f 204 223 203
f 223 204 185
f 206 202 177
f 207 224 210
f 197 208 211
f 209 242 227
f 201 212 215
f 190 233 188
f 212 214 215
f 222 203 223
f 233 209 188
f 212 213 214
f 215 214 217
f 215 217 201
f 217 185 201
f 214 218 217
f 177 233 190
f 202 228 177
f 217 218 223
f 217 223 185
f 228 202 219
f 216 221 218
f 218 221 222
f 202 220 219
f 219 220 221
f 219 221 216
f 218 222 223
f 222 205 203
f 206 229 202
f 210 224 226
f 225 206 186
f 226 186 210
f 213 218 214
f 177 228 233
f 213 216 218
f 229 220 202
f 220 229 221
f 221 205 222
f 231 205 221
f 225 234 206
f 225 186 226
f 235 216 213
f 216 235 219
f 241 229 206
f 224 230 226
f 226 237 225
f 233 242 209
f 239 212 227
f 229 230 221
f 221 230 231
f 206 234 241
f 230 224 231
f 236 234 225
f 236 225 237
f 239 227 232
f 227 242 232
f 239 213 212
f 235 213 239
f 248 247 219
f 235 248 219
f 240 248 235
f 237 226 230
f 233 243 242
f 245 243 233
f 233 228 245
f 219 247 228
f 229 241 238
f 229 238 230
f 238 237 230
f 240 235 239
f 236 241 234
f 241 236 237
f 241 237 238
f 244 240 239
f 245 228 247
f 244 239 232
f 240 244 246
f 242 243 232
f 243 244 232
f 248 240 246
f 243 249 244
f 243 250 249
f 249 246 244
f 245 250 243
f 247 250 245
f 250 247 248
f 249 250 248
f 248 246 249
# 500 faces, 0 coords texture

# End of File
