####
#
# OBJ File Generated by Meshlab
#
####
# Object igea200.obj
#
# Vertices: 102
# Faces: 200
#
####
v -0.6543951 -0.0659380 0.2433045
v -0.5906158 0.1339776 0.3793529
v -0.5452139 0.3026651 0.0147783
v -0.4437709 -0.3175634 0.0640705
v -0.4966390 -0.1137938 -0.1107393
v -0.4161979 -0.0174655 -0.4693589
v -0.3891235 0.1455468 0.5936034
v -0.4264868 -0.2340470 0.2957853
v -0.4018328 0.0125998 0.5374237
v -0.4275846 0.4232470 0.5427305
v -0.3449625 0.6831564 -0.2013436
v -0.4288831 0.4810041 -0.3526547
v -0.3686976 -0.4507818 0.4960367
v -0.2423556 -0.4544934 -0.2240405
v -0.2961479 -0.1419699 -0.5834974
v -0.2969580 0.1899208 -0.6808124
v -0.4933942 0.4296680 0.4158885
v -0.4761797 0.6268362 0.1597038
v -0.3625183 0.7548000 0.3277986
v -0.2843571 -0.8141466 0.1323879
v -0.3369351 -0.4255192 0.0239787
v -0.2372005 -0.5979921 0.6270198
v -0.2862877 -0.1625533 0.6844706
v -0.2343481 -0.7270513 -0.1690114
v -0.2130589 0.0613345 -0.8287790
v -0.3780999 0.3727341 0.6763480
v -0.1152084 0.7576947 -0.2948543
v -0.2018806 0.1271157 0.7931690
v -0.2567790 -0.6747677 0.3083707
v -0.1343893 -0.7232409 0.5582107
v -0.2317639 -0.1167912 -0.8054797
v -0.1105114 -0.5149866 0.7132595
v -0.1890996 -0.2883927 -0.4869625
v -0.2659281 0.8117548 0.0901849
v -0.0544627 -0.7705281 0.4294858
v -0.0416302 0.3456074 0.8080098
v -0.1265906 0.4691809 0.8021810
v -0.0657297 -0.0898046 0.7515642
v -0.2090667 0.5475737 -0.5856930
v -0.1615031 0.6084816 0.6997896
v 0.1119544 -0.5764989 -0.2736535
v -0.0843302 -0.0141829 -0.8967667
v -0.0767050 -0.6641289 0.7417217
v -0.1310672 0.2614094 -0.7624171
v -0.0601565 -0.6772168 -0.2676693
v 0.0190991 -0.3384586 -0.7348109
v -0.1396126 -0.3101147 -0.7907512
v 0.0161996 -0.3735088 0.8114415
v 0.1620007 -0.1799334 -0.8290892
v 0.0375251 -0.4820656 0.8006602
v 0.0500472 -0.2491001 0.9197656
v -0.0004885 0.8967698 0.1476123
v 0.0958976 -0.7750835 0.4534256
v 0.1765816 0.4108433 0.7890896
v 0.1029742 0.6032106 -0.6069149
v -0.0710982 0.7787799 0.5577184
v -0.2136703 -0.8559829 0.3090250
v 0.1102858 -0.6824062 0.7478071
v 0.1442805 0.0525854 -0.8721207
v 0.0653347 0.0112641 0.8778627
v -0.1055093 -0.8850152 0.3831675
v 0.2014429 -0.2789725 -0.4619616
v 0.0558134 0.2483502 -0.8052430
v -0.0235350 0.9030783 0.3394218
v 0.1835450 -0.3141190 0.7512484
v 0.2689517 -0.4713346 -0.1851942
v 0.1304215 0.5875838 0.7436458
v 0.1161674 -0.8940544 0.2586527
v 0.3359194 0.8115001 0.3150963
v 0.2971422 -0.6719320 -0.1641392
v 0.1474200 -0.0626265 0.7346852
v 0.3048021 0.0611090 0.7657347
v 0.2771282 -0.8653855 0.3983880
v 0.2614758 -0.8725446 0.1222920
v 0.3121691 -0.1295133 0.6819257
v 0.2874772 0.0718924 -0.6577244
v 0.2442851 0.7949795 -0.1653348
v 0.2465486 -0.1620198 -0.5528055
v 0.2374932 0.7128963 0.5890248
v 0.2998638 -0.6642075 0.3287928
v 0.2935943 -0.5553516 0.6399938
v 0.2729775 0.4395105 0.7758448
v 0.3765099 -0.8370217 0.1710334
v 0.4301406 0.1307366 0.5898878
v 0.4063961 0.3288521 0.6868576
v 0.3495747 0.5233147 -0.5427313
v 0.3671357 -0.5253396 0.2066686
v 0.3237019 0.5697923 0.6648439
v 0.4361601 -0.3247788 0.1160500
v 0.4062501 -0.1768380 0.5821775
v 0.4584116 -0.2152606 -0.1333435
v 0.3838938 0.7717765 0.0398258
v 0.4966375 0.0994181 -0.3290817
v 0.4608379 0.7249139 0.2761051
v 0.5102470 0.5034295 -0.2102648
v 0.4490895 -0.0384124 0.4638684
v 0.5392905 0.2658889 0.5412863
v 0.6057156 0.3412945 0.1201382
v 0.4865655 0.4811870 0.5461059
v 0.5592779 -0.0298686 -0.0253021
v 0.5928907 0.1260369 0.4010082
v 0.6273974 -0.1254482 0.1618583
# 102 vertices, 0 vertices normals

f 9 2 1
f 1 2 5
f 3 2 17
f 17 2 10
f 1 5 4
f 18 3 17
f 9 1 8
f 2 3 5
f 2 7 10
f 18 12 3
f 4 8 1
f 9 7 2
f 5 3 6
f 12 6 3
f 11 12 18
f 5 21 4
f 6 14 5
f 10 7 26
f 9 8 13
f 10 19 17
f 5 14 21
f 6 12 16
f 18 17 19
f 21 8 4
f 6 16 15
f 11 18 34
f 8 21 13
f 9 13 23
f 29 13 21
f 15 33 6
f 40 19 10
f 39 12 11
f 18 19 34
f 20 21 24
f 21 20 29
f 22 23 13
f 6 33 14
f 9 28 7
f 37 10 26
f 37 40 10
f 14 24 21
f 31 15 25
f 25 15 16
f 39 16 12
f 23 38 9
f 16 44 25
f 11 27 39
f 31 47 15
f 28 9 38
f 56 19 40
f 57 29 20
f 13 30 22
f 47 33 15
f 36 26 7
f 27 11 34
f 64 34 19
f 13 29 30
f 30 29 35
f 28 36 7
f 37 26 36
f 16 39 44
f 64 19 56
f 20 24 45
f 35 29 57
f 32 23 22
f 25 42 31
f 22 30 32
f 23 32 48
f 33 41 14
f 48 38 23
f 52 27 34
f 57 20 45
f 24 14 45
f 32 30 43
f 31 42 47
f 27 55 39
f 64 52 34
f 61 35 57
f 46 33 47
f 50 32 43
f 38 48 51
f 63 42 25
f 63 25 44
f 53 43 30
f 41 45 14
f 38 60 28
f 54 37 36
f 53 30 35
f 58 50 43
f 41 33 62
f 47 49 46
f 60 38 51
f 28 60 36
f 44 39 55
f 54 40 37
f 67 56 40
f 53 58 43
f 48 32 50
f 27 52 77
f 46 62 33
f 73 35 61
f 45 41 68
f 44 55 63
f 67 40 54
f 67 79 56
f 57 68 61
f 45 68 57
f 62 66 41
f 49 47 59
f 42 59 47
f 82 67 54
f 77 55 27
f 42 63 59
f 53 35 73
f 65 51 48
f 60 54 36
f 61 68 73
f 81 50 58
f 50 65 48
f 71 60 51
f 70 68 41
f 71 51 65
f 63 55 86
f 46 78 62
f 60 71 72
f 86 55 77
f 64 56 69
f 50 81 65
f 46 49 78
f 71 65 75
f 73 68 74
f 53 80 81
f 53 81 58
f 70 41 66
f 76 49 59
f 75 72 71
f 59 63 76
f 56 79 69
f 64 69 52
f 68 70 74
f 76 63 86
f 53 73 80
f 75 65 90
f 49 76 78
f 60 72 54
f 52 92 77
f 69 92 52
f 83 73 74
f 67 82 88
f 90 65 81
f 82 54 85
f 88 79 67
f 84 54 72
f 79 94 69
f 73 83 80
f 87 81 80
f 66 87 70
f 91 66 62
f 94 92 69
f 83 74 70
f 87 80 83
f 62 78 91
f 54 84 85
f 82 85 88
f 83 70 87
f 87 90 81
f 87 66 89
f 91 78 76
f 96 75 90
f 99 79 88
f 94 79 99
f 89 66 91
f 84 75 96
f 84 72 75
f 76 86 93
f 99 88 85
f 92 95 77
f 95 86 77
f 89 90 87
f 96 90 89
f 100 91 93
f 91 76 93
f 89 102 96
f 95 93 86
f 99 85 97
f 97 85 84
f 95 92 94
f 91 102 89
f 98 95 94
f 84 96 101
f 84 101 97
f 100 93 98
f 93 95 98
f 97 98 99
f 98 94 99
f 102 91 100
f 101 96 102
f 100 101 102
f 98 101 100
f 101 98 97
# 200 faces, 0 coords texture

# End of File
