####
#
# OBJ File Generated by Meshlab
#
####
# Object igea500.obj
#
# Vertices: 252
# Faces: 500
#
####
v -0.6154087 -0.0294494 0.1110501
v -0.6096267 -0.0809100 0.3118204
v -0.6043178 0.0629998 0.2647487
v -0.5896692 0.1862713 0.4247699
v -0.5546400 0.2545437 0.3144244
v -0.5504870 -0.1780761 0.1770832
v -0.5429224 -0.0958551 0.0065895
v -0.5304636 0.0676660 0.0214510
v -0.5286040 0.0558633 0.4488818
v -0.4755134 0.1227454 0.5304831
v -0.4953870 0.5825303 0.1632034
v -0.5214341 0.1579336 -0.1286495
v -0.4940790 0.3424949 0.4848729
v -0.5503026 0.3323871 0.0868125
v -0.5314257 -0.0253981 0.3948142
v -0.5204436 0.4259144 0.3106302
v -0.4491422 -0.3312386 0.0662185
v -0.4950359 -0.2236010 0.0698985
v -0.4032378 -0.2866279 -0.0513792
v -0.4534847 -0.0576994 -0.2932501
v -0.4211861 0.1553715 0.5647399
v -0.4366971 0.5524083 -0.2144977
v -0.4834792 -0.1366804 -0.1144634
v -0.4760149 0.3028159 -0.3331773
v -0.4348472 -0.1616614 0.3516816
v -0.4122881 0.1030012 -0.4936763
v -0.3944606 -0.2327998 0.5290325
v -0.4055949 -0.0212344 0.4892090
v -0.4446530 0.3305629 0.5429872
v -0.3908509 0.3830867 0.6577893
v -0.3781796 -0.4196941 0.1291208
v -0.4002641 -0.3064312 0.1985571
v -0.3565731 -0.4205764 0.5182167
v -0.3484943 -0.2818980 -0.2608753
v -0.3620516 -0.0421373 0.5877714
v -0.3746340 0.4568116 0.5921634
v -0.3377097 0.6841947 -0.2151820
v -0.3931136 0.6824651 -0.0149876
v -0.3302034 0.1660381 0.6479505
v -0.3715129 -0.4363137 0.4033334
v -0.3379869 -0.1692238 0.6333508
v -0.3093644 -0.0474691 -0.6030623
v -0.3016669 0.2576517 -0.6581534
v -0.3622055 0.4511570 -0.4850137
v -0.3966288 0.6107116 0.4460109
v -0.4144632 0.7028136 0.2074134
v -0.3240070 0.7851857 0.2891614
v -0.3144136 -0.5122528 0.1682953
v -0.3221118 -0.4105233 -0.0465555
v -0.3616048 -0.1480581 -0.4508164
v -0.3157300 0.0571385 0.6770493
v -0.3447613 0.6921733 0.4367777
v -0.3017361 -0.7216380 0.1740114
v -0.2484060 -0.4452587 -0.1977910
v -0.2742126 -0.1878030 -0.5213996
v -0.3114578 0.1058922 -0.6463732
v -0.2032986 0.6632536 0.6244658
v -0.2836660 -0.7450450 -0.0457582
v -0.2707409 -0.6550192 0.2889619
v -0.2710941 -0.6020799 0.5397263
v -0.2533152 -0.2739764 0.7067154
v -0.2678330 -0.1095337 -0.7536775
v -0.2636324 -0.1952517 -0.6435875
v -0.1708929 0.2744926 -0.7332642
v -0.2003182 -0.7220315 0.3528107
v -0.2448801 0.0261653 -0.7902917
v -0.2945681 0.2269895 0.6803880
v -0.2567217 0.5853353 -0.4825151
v -0.1638872 0.6853198 -0.3907982
v -0.1692644 0.7684295 0.5078048
v -0.2561133 -0.8180282 0.2116322
v -0.2343343 0.1276053 0.7699396
v -0.2269360 0.4667732 0.7276379
v -0.1653528 0.8703000 0.3252227
v -0.2123947 -0.8630546 0.3322212
v -0.2117245 -0.7420927 -0.1231652
v -0.1930230 -0.6984031 -0.2166595
v -0.2077036 -0.5327587 0.6823482
v -0.2321589 -0.1056526 0.7059988
v -0.1130351 -0.0130919 -0.8911512
v -0.2545252 -0.8041799 0.0828459
v -0.1294219 -0.2607707 -0.8049776
v -0.2077984 -0.2650189 -0.7042685
v -0.1888699 -0.2760459 -0.4836789
v -0.1811625 -0.1323314 -0.8294405
v -0.1672163 0.0056484 0.7879869
v -0.0879951 0.2281814 -0.8032006
v -0.0606531 -0.7456693 -0.0708938
v -0.0813774 -0.4779676 -0.3001206
v -0.0545432 -0.3260539 -0.4551561
v -0.0833984 0.7745882 -0.2644800
v -0.2659281 0.8117548 0.0901849
v -0.0400989 -0.8477105 0.2348402
v -0.1174376 -0.7103394 -0.2101729
v -0.1400040 -0.7200820 0.5659884
v -0.1548830 0.1480880 -0.8256450
v -0.2062925 0.3952684 0.7738491
v -0.1207500 -0.6713181 0.6838104
v -0.1092679 -0.5268574 0.7033228
v -0.1654790 0.5345919 -0.6123340
v -0.0938497 0.5539934 0.7581167
v -0.0703960 -0.5379145 0.7571363
v -0.0807837 -0.0596535 -0.8787512
v -0.0423653 -0.0286698 0.7551982
v -0.0776301 0.8753832 0.2378552
v -0.0849577 -0.1990968 0.7572445
v -0.0799260 0.4807728 0.8080469
v -0.0739033 -0.4262259 0.7498459
v -0.0650470 -0.2934831 0.8090294
v -0.0762989 0.3305116 0.7967455
v -0.0684921 -0.9014130 0.3465977
v -0.0506428 -0.8678856 0.4264526
v -0.0355408 -0.8001480 0.0523420
v -0.1065293 -0.3365967 -0.6830182
v -0.0050533 -0.0642148 -0.8967998
v -0.0213887 0.2015615 -0.8231545
v -0.0089627 0.3357653 -0.7406285
v -0.0439294 -0.6709679 -0.2815572
v -0.0140899 -0.3474112 -0.7189928
v -0.0733411 -0.1679102 -0.8581078
v 0.0273236 0.0157283 -0.8983787
v -0.0507295 0.8307255 0.4420879
v 0.0352641 -0.6090654 0.7794668
v 0.0296859 -0.2959855 -0.7832156
v 0.0689775 -0.2025233 -0.8355699
v 0.0006573 0.1147729 0.8552868
v -0.0212613 0.7295588 0.6167135
v 0.1481272 -0.8972593 0.2649570
v -0.0049168 -0.7165117 0.7048184
v 0.0004869 -0.3011524 0.8806882
v 0.0176408 -0.1185090 0.8734878
v 0.0465146 0.1856040 -0.8525131
v -0.0535269 0.8677334 0.0394499
v 0.0920515 -0.8596636 0.2052616
v 0.0675390 -0.4952728 0.7904741
v 0.0771371 -0.2212911 0.8949038
v 0.1416335 0.3791485 0.7911682
v 0.0669383 0.5433984 -0.6496437
v 0.2217063 0.7512033 0.5543705
v 0.0372022 0.9066289 0.3247145
v 0.0697018 -0.7196171 -0.0656690
v 0.0765218 0.6320057 -0.5577610
v 0.1022061 0.7430397 -0.3250849
v 0.1212676 -0.0990734 -0.8665317
v 0.1415189 -0.0240667 -0.8609937
v 0.1945609 0.8309468 -0.0817218
v 0.0348340 -0.7717932 0.4429235
v 0.1936145 -0.5964523 -0.2424958
v 0.0494108 -0.3894731 0.8238671
v 0.1701126 0.1362215 -0.8261942
v 0.2262667 -0.8623474 0.4189725
v 0.0832913 -0.3196545 -0.4424967
v 0.1208558 -0.3110277 0.8461221
v 0.1207259 0.2986051 -0.7426276
v 0.0691582 0.8807369 0.2442509
v 0.1199472 0.8488241 0.3968070
v 0.1372194 -0.6946540 0.7059114
v 0.1572746 -0.4597553 0.7398575
v 0.1515793 -0.0707755 0.7291201
v 0.1051391 -0.0059001 0.8513443
v 0.2104189 0.6754886 0.6374821
v 0.1136902 -0.4647704 -0.2933379
v 0.1452412 -0.2789408 -0.6366774
v 0.1882368 0.1088289 0.8303753
v 0.1304215 0.5875838 0.7436458
v 0.1697473 -0.2723068 -0.4714403
v 0.1848913 -0.2886576 0.7502109
v 0.2486241 -0.1454390 -0.5622946
v 0.2924357 0.7880057 0.4122266
v 0.1609338 0.8679032 0.1301306
v 0.2496859 -0.8872608 0.1332020
v 0.2077522 -0.7054083 -0.0783251
v 0.3046889 -0.7023652 -0.1402376
v 0.1822073 -0.1726733 -0.8135710
v 0.1519448 -0.7556023 0.4302049
v 0.2613053 0.0400000 -0.7342050
v 0.2740292 0.1080156 -0.6638947
v 0.2611341 -0.0673799 -0.6692843
v 0.2520536 -0.0657985 0.7370743
v 0.1793681 0.4915769 0.7750704
v 0.2781858 0.7107388 -0.3113806
v 0.2487325 -0.1798427 -0.5324966
v 0.3736471 0.3880017 -0.5442439
v 0.2645179 0.8384683 0.2268395
v 0.3385303 0.8088279 0.1298948
v 0.3726063 -0.8523081 0.1926178
v 0.2901345 -0.3393851 -0.2949128
v 0.2426787 0.4941989 -0.6095963
v 0.2671351 0.5896120 -0.5314661
v 0.3493548 -0.8609957 0.2883433
v 0.2338821 -0.7135018 0.3898781
v 0.2724792 -0.6502520 0.5277917
v 0.3020032 -0.4327394 -0.1501067
v 0.2951769 -0.4208086 0.6767963
v 0.2964131 -0.1832255 0.6611349
v 0.3574601 -0.7972791 0.0855474
v 0.2716250 -0.8165713 0.0447949
v 0.3103605 -0.6350023 0.3196233
v 0.3539701 -0.4364799 0.0588639
v 0.3268645 -0.0510302 0.7218642
v 0.2939422 0.0186160 0.7463279
v 0.3192243 0.0697166 0.7618796
v 0.2973430 0.4281220 0.7683553
v 0.3467658 -0.7134430 -0.0034107
v 0.2917209 0.2822238 0.7321293
v 0.3874786 0.5355772 -0.4486744
v 0.3481864 -0.7818102 0.2552826
v 0.3779683 -0.3958851 0.5234270
v 0.4169464 0.0041506 0.6011478
v 0.3380799 0.5039930 0.6858433
v 0.3875938 0.6777255 0.4815798
v 0.3575682 -0.4974218 0.1896303
v 0.3908497 -0.3173036 -0.0127036
v 0.3537930 0.0442893 -0.5509173
v 0.3584355 0.8127034 0.2885042
v 0.4274211 -0.3483941 0.0970667
v 0.3590298 -0.2490143 0.6319330
v 0.4302347 -0.2204311 0.4576112
v 0.3918904 -0.2518198 -0.2429989
v 0.4099379 0.7084933 -0.0864178
v 0.4370611 -0.2679432 0.2514884
v 0.4229732 0.1168236 0.5763835
v 0.4315503 0.7576043 0.2724602
v 0.4816543 -0.2587854 0.0977166
v 0.4459141 -0.0692132 0.4233701
v 0.4122102 0.3276587 0.6830182
v 0.4196197 0.7500808 0.2003003
v 0.4961532 0.6593794 0.2211427
v 0.4805625 -0.1974061 -0.0803745
v 0.4966375 0.0994181 -0.3290817
v 0.5049250 0.3351347 0.6066409
v 0.4498779 0.5391607 0.5628223
v 0.5007025 0.6097301 0.3473231
v 0.5865498 0.0998692 0.4272403
v 0.5159199 0.4190196 -0.2354813
v 0.4926129 0.5649772 -0.1673821
v 0.4960392 -0.1028073 -0.1585999
v 0.5226954 0.1871237 0.5594671
v 0.5749931 0.4657116 0.1524140
v 0.5568548 0.2327285 0.4766607
v 0.5093409 0.4171700 0.5297564
v 0.5970859 -0.1891490 0.1459009
v 0.5278126 -0.1167117 0.2859387
v 0.5988851 0.2534083 0.0710681
v 0.5659717 0.4555217 0.2639230
v 0.5364927 -0.0119588 -0.0924036
v 0.5726144 0.0404811 0.0996972
v 0.5862718 0.1461093 0.2533634
v 0.6265230 -0.0855677 0.1704522
v 0.5726236 -0.0175647 0.3692538
v 0.6165705 -0.0391622 0.1922234
v 0.6327052 0.0597380 0.3058437
# 252 vertices, 0 vertices normals

f 3 1 2
f 6 2 1
f 15 3 2
f 8 1 3
f 3 15 9
f 5 3 4
f 1 7 6
f 3 9 4
f 8 3 5
f 5 4 13
f 6 7 18
f 7 1 8
f 12 8 14
f 5 14 8
f 16 14 5
f 11 14 16
f 15 2 25
f 8 23 7
f 9 10 4
f 4 10 13
f 19 18 23
f 23 18 7
f 12 20 23
f 12 23 8
f 29 13 10
f 14 24 12
f 11 22 14
f 6 18 17
f 17 32 6
f 6 25 2
f 25 28 15
f 28 9 15
f 28 10 9
f 12 24 20
f 5 13 16
f 22 24 14
f 24 26 20
f 10 21 29
f 13 36 16
f 45 16 36
f 11 16 45
f 18 19 17
f 10 28 21
f 13 29 36
f 38 22 11
f 31 32 17
f 25 6 32
f 19 23 34
f 20 34 23
f 20 26 50
f 29 21 30
f 44 24 22
f 11 45 46
f 27 32 40
f 40 33 27
f 32 27 25
f 20 50 34
f 35 25 27
f 28 25 35
f 36 29 30
f 36 52 45
f 17 19 31
f 19 34 49
f 26 42 50
f 39 21 28
f 30 21 39
f 24 44 26
f 26 44 43
f 37 44 22
f 46 45 47
f 48 32 31
f 35 27 41
f 26 56 42
f 39 35 51
f 39 28 35
f 67 30 39
f 22 38 37
f 38 46 92
f 11 46 38
f 32 48 40
f 31 49 48
f 19 49 31
f 27 33 61
f 41 27 61
f 45 52 47
f 49 53 48
f 48 59 40
f 60 33 40
f 34 54 49
f 42 55 50
f 41 79 35
f 43 56 26
f 51 67 39
f 97 30 67
f 97 73 30
f 57 52 36
f 68 44 37
f 46 47 92
f 53 49 58
f 48 53 59
f 40 59 60
f 78 61 33
f 41 61 79
f 42 63 55
f 51 72 67
f 73 36 30
f 73 57 36
f 92 37 38
f 53 58 81
f 60 59 65
f 54 58 49
f 60 78 33
f 34 50 54
f 62 63 42
f 62 42 66
f 66 42 56
f 43 64 56
f 100 43 44
f 100 44 68
f 53 81 71
f 81 58 76
f 53 71 65
f 76 58 77
f 50 84 54
f 50 55 84
f 79 51 35
f 56 64 96
f 37 69 68
f 75 65 71
f 53 65 59
f 54 77 58
f 55 63 84
f 62 83 63
f 86 51 79
f 72 51 86
f 56 96 66
f 97 67 110
f 70 52 57
f 65 95 60
f 83 84 63
f 85 62 66
f 91 37 92
f 52 70 47
f 105 92 47
f 105 47 74
f 81 93 71
f 95 78 60
f 77 54 89
f 89 54 84
f 83 62 85
f 80 66 96
f 72 110 67
f 43 100 64
f 57 73 101
f 74 47 70
f 71 93 75
f 88 81 76
f 114 83 82
f 82 83 85
f 66 80 85
f 126 72 86
f 64 87 96
f 91 69 37
f 77 94 76
f 84 83 114
f 61 106 79
f 73 107 101
f 95 99 78
f 61 78 108
f 90 89 84
f 108 106 61
f 85 80 103
f 104 126 86
f 107 73 97
f 133 91 92
f 94 88 76
f 77 89 118
f 99 95 98
f 99 98 102
f 108 78 99
f 85 103 120
f 86 79 104
f 110 72 126
f 142 100 68
f 69 142 68
f 57 127 70
f 105 133 92
f 75 111 112
f 93 111 75
f 112 65 75
f 113 93 81
f 81 88 113
f 118 94 77
f 124 114 82
f 85 120 82
f 104 79 106
f 74 70 122
f 105 74 140
f 147 65 112
f 147 95 65
f 129 123 98
f 123 102 98
f 90 84 114
f 149 109 108
f 109 106 108
f 100 117 64
f 110 107 97
f 57 101 127
f 70 127 122
f 95 129 98
f 108 99 102
f 114 124 119
f 124 82 120
f 106 109 131
f 116 80 96
f 116 96 87
f 117 116 87
f 87 64 117
f 143 142 69
f 113 134 93
f 147 129 95
f 94 141 88
f 103 115 120
f 106 131 104
f 143 69 91
f 74 122 140
f 141 94 118
f 89 90 152
f 130 109 149
f 130 131 109
f 120 125 124
f 103 121 115
f 154 116 117
f 117 100 138
f 138 100 142
f 165 127 101
f 111 128 112
f 135 108 102
f 149 108 135
f 125 120 115
f 104 131 126
f 80 121 103
f 137 107 110
f 91 133 146
f 93 134 111
f 134 128 111
f 141 113 88
f 102 123 135
f 114 152 90
f 136 131 130
f 116 121 80
f 116 132 121
f 154 132 116
f 139 122 127
f 129 157 123
f 162 118 89
f 162 89 152
f 149 153 130
f 119 152 114
f 136 130 153
f 160 126 131
f 137 110 126
f 117 138 154
f 137 180 107
f 165 101 107
f 165 161 127
f 122 156 140
f 155 105 140
f 113 141 134
f 118 162 148
f 119 124 152
f 125 115 144
f 121 145 115
f 164 126 160
f 180 165 107
f 181 142 143
f 146 143 91
f 122 139 156
f 170 105 155
f 151 112 128
f 151 147 112
f 147 157 129
f 118 148 141
f 135 158 149
f 160 131 136
f 115 145 144
f 121 150 145
f 121 132 150
f 139 127 161
f 105 170 133
f 124 163 152
f 174 124 125
f 153 160 136
f 164 137 126
f 133 170 146
f 175 147 151
f 135 123 158
f 152 163 166
f 124 174 163
f 144 174 125
f 153 159 160
f 140 156 155
f 172 134 141
f 175 157 147
f 141 148 172
f 158 123 157
f 166 162 152
f 149 158 167
f 167 153 149
f 150 132 154
f 154 138 188
f 188 138 142
f 184 170 155
f 148 173 172
f 163 182 166
f 182 163 168
f 167 159 153
f 159 167 195
f 160 159 164
f 189 142 181
f 156 139 169
f 134 171 128
f 197 171 134
f 157 194 158
f 163 174 168
f 179 159 195
f 145 176 144
f 145 150 176
f 164 202 137
f 188 142 189
f 175 191 192
f 157 175 192
f 148 162 193
f 167 158 194
f 166 187 162
f 178 174 144
f 178 144 176
f 179 201 159
f 150 154 177
f 203 137 205
f 203 180 137
f 181 143 146
f 156 184 155
f 171 186 128
f 134 172 197
f 162 187 193
f 217 167 194
f 182 187 166
f 217 195 167
f 205 137 202
f 177 154 188
f 169 184 156
f 175 151 191
f 192 191 198
f 174 178 168
f 164 159 201
f 150 177 176
f 170 185 146
f 184 185 170
f 197 172 173
f 157 192 194
f 178 176 177
f 183 177 188
f 165 180 210
f 215 184 169
f 193 173 148
f 178 177 168
f 186 190 128
f 128 190 151
f 171 196 186
f 197 196 171
f 151 190 191
f 214 182 168
f 195 200 179
f 177 214 168
f 200 201 179
f 201 202 164
f 210 180 203
f 161 165 210
f 139 211 169
f 146 185 220
f 207 191 190
f 191 207 198
f 198 208 192
f 173 199 204
f 193 199 173
f 192 208 194
f 219 193 187
f 183 214 177
f 203 205 226
f 146 220 181
f 227 185 184
f 215 227 184
f 204 197 173
f 204 196 197
f 198 207 212
f 194 208 217
f 187 182 219
f 209 201 200
f 201 209 202
f 203 226 210
f 206 183 188
f 189 206 188
f 232 161 210
f 181 206 189
f 186 207 190
f 196 207 186
f 196 212 207
f 204 212 196
f 204 199 212
f 198 212 221
f 198 221 208
f 199 193 213
f 219 182 214
f 209 200 195
f 232 139 161
f 216 212 199
f 213 216 199
f 217 209 195
f 222 202 209
f 222 205 202
f 211 139 232
f 185 227 220
f 221 212 216
f 224 216 213
f 218 208 221
f 218 217 208
f 213 193 219
f 218 209 217
f 214 183 230
f 241 210 226
f 210 241 232
f 220 236 181
f 236 206 181
f 233 169 211
f 223 169 233
f 223 215 169
f 223 227 215
f 213 219 229
f 221 225 218
f 237 219 230
f 209 218 225
f 219 214 230
f 225 222 209
f 183 206 235
f 234 238 222
f 205 222 238
f 238 226 205
f 211 232 233
f 223 228 227
f 224 221 216
f 219 237 229
f 242 243 221
f 221 243 225
f 235 230 183
f 241 226 231
f 206 236 235
f 228 223 233
f 213 229 224
f 222 225 234
f 231 226 238
f 236 220 228
f 228 220 227
f 224 242 221
f 229 242 224
f 225 250 234
f 241 233 232
f 245 228 233
f 243 250 225
f 230 246 237
f 234 240 238
f 240 241 231
f 239 236 228
f 239 228 245
f 229 237 246
f 246 230 244
f 240 231 238
f 230 235 244
f 240 245 241
f 245 233 241
f 235 236 239
f 242 249 243
f 242 229 246
f 251 250 243
f 246 244 247
f 235 239 244
f 244 239 245
f 242 246 249
f 251 243 249
f 246 247 249
f 234 250 252
f 247 244 248
f 248 244 245
f 248 245 240
f 251 252 250
f 249 247 251
f 251 247 252
f 247 248 252
f 252 248 234
f 234 248 240
# 500 faces, 0 coords texture

# End of File
