####
#
# OBJ File Generated by Meshlab
#
####
# Object lion-reference200.obj
#
# Vertices: 102
# Faces: 200
#
####
v -0.2341186 -0.3954709 -0.1757422
v -0.2042332 -0.3913048 -0.2896323
v -0.2024404 -0.3936304 0.6266391
v -0.2005720 -0.4259275 0.5540587
v -0.1800766 -0.3251668 0.5430464
v -0.1891428 -0.1869332 0.4971665
v -0.1382034 -0.3848284 -0.1761548
v -0.1451315 -0.3335994 0.5577930
v -0.1686568 -0.3423885 0.4606137
v -0.1651257 -0.1894029 -0.2829120
v -0.1554745 -0.0150627 0.5451742
v -0.1702214 -0.0588036 0.4272194
v -0.1330866 0.0780838 -0.2123979
v -0.1274097 0.1795548 0.3604058
v -0.1506094 -0.4203276 -0.2972637
v -0.0906751 -0.3941167 0.5425017
v -0.1253632 -0.2134580 -0.3279486
v -0.1414484 -0.2628061 0.4375888
v -0.1431321 -0.2584750 -0.2316725
v -0.1363988 -0.2179081 0.5535238
v -0.1333768 -0.0094999 0.5611561
v -0.1529424 0.1551197 0.5227431
v -0.1099327 -0.3593849 -0.2641072
v -0.0987282 -0.2036166 0.5189499
v -0.0942615 -0.0170692 0.3882818
v -0.0825631 -0.0605574 0.1529731
v -0.1037352 0.0153567 0.3449422
v -0.1477072 -0.0364041 -0.0718267
v -0.1160304 0.0870838 0.1226804
v -0.0912479 0.1554277 -0.0681598
v -0.0984443 0.2337674 0.5674804
v -0.0811337 0.3270591 0.5018891
v -0.0928084 -0.4113858 0.6464902
v -0.0523504 -0.0535851 0.4796748
v -0.0783742 -0.0232590 0.5645834
v -0.0799103 0.0305979 -0.0236184
v -0.0742953 0.2961828 0.3714689
v -0.1078477 0.2736637 0.7005571
v -0.0786754 0.3901712 0.7314807
v -0.0815783 -0.1070192 -0.2556618
v -0.0503455 -0.0068432 -0.0857987
v -0.1061448 -0.0559467 -0.2583937
v -0.0727410 0.2445762 -0.1370805
v -0.0896441 0.2504641 0.0627951
v -0.0179747 0.0326191 0.6088455
v -0.0422722 0.2136676 0.6895047
v -0.0284519 0.2359734 0.8004471
v -0.0032999 -0.0723401 0.3793828
v 0.0112497 0.1649781 0.7733181
v -0.0001364 0.2047877 -0.3027042
v -0.0555298 0.3230233 0.8251992
v -0.0076791 0.0713586 -0.2831162
v 0.0506163 0.0775098 -0.2827189
v 0.0405967 0.2242870 0.8345627
v -0.0361916 0.2102295 0.8821424
v -0.0096874 0.2936615 0.0461103
v 0.0690454 0.3246365 0.5372551
v 0.0841163 -0.0633751 0.1635873
v -0.0023073 -0.0045529 -0.1748454
v 0.0317181 0.1910524 0.6804494
v -0.0099381 0.4193977 0.6923788
v 0.0886237 -0.1029668 -0.2665459
v 0.0627860 -0.0477464 0.5525396
v 0.0445041 -0.0090385 -0.0734154
v 0.0242307 0.2331010 -0.2551493
v 0.0656843 0.2666440 -0.0903195
v 0.0430419 0.3437980 0.8209566
v 0.0578950 0.4133729 0.7538692
v 0.1131246 -0.4284927 0.5426752
v 0.1167532 -0.3283391 0.5050605
v 0.1003125 -0.2617787 -0.2596409
v 0.0937961 -0.0370056 0.4028816
v 0.0989910 0.0862529 -0.0096253
v 0.0940350 0.2538731 0.3131043
v 0.1064238 0.2912906 0.6982686
v 0.1849002 -0.4174764 0.6376315
v 0.1233399 -0.4245136 -0.2074439
v 0.1453298 -0.2980594 0.4523006
v 0.1436045 -0.3695218 -0.3219613
v 0.1258629 -0.1952421 -0.3245349
v 0.1113829 -0.1274613 -0.1535603
v 0.1008144 -0.0022079 0.3496057
v 0.0932978 0.1383989 -0.0536412
v 0.1229594 0.0912091 -0.2244377
v 0.0916508 0.3245951 0.4256674
v 0.1552787 -0.1974307 -0.2065232
v 0.1664514 -0.1131703 0.5396406
v 0.1624544 -0.0500721 -0.1081016
v 0.1609363 -0.0989959 -0.2313226
v 0.1408150 -0.0286257 0.3835710
v 0.1251006 0.1496286 0.5773675
v 0.1251048 0.1758866 0.2061260
v 0.1748366 -0.3519770 -0.3054160
v 0.1129099 -0.3864275 0.6481377
v 0.1241611 -0.3463666 -0.2359340
v 0.1644807 -0.3286941 0.5580851
v 0.1714929 -0.1996142 -0.2783326
v 0.1675538 0.0900990 0.4759968
v 0.2218802 -0.4229213 -0.2690158
v 0.1946163 -0.3676307 0.5043352
v 0.1888286 -0.1741336 0.4695847
v 0.2376513 -0.3934321 -0.1811905
# 102 vertices, 0 vertices normals

f 2 15 1
f 9 4 5
f 5 4 3
f 5 6 9
f 1 7 2
f 5 3 8
f 10 2 19
f 6 18 9
f 6 5 11
f 6 12 18
f 6 11 12
f 15 7 1
f 3 4 33
f 33 8 3
f 2 17 15
f 19 2 7
f 10 17 2
f 8 20 5
f 5 20 11
f 10 19 28
f 11 20 21
f 13 10 28
f 22 12 11
f 14 12 22
f 15 23 7
f 9 16 4
f 23 15 17
f 23 19 7
f 24 20 8
f 42 17 10
f 12 25 18
f 42 10 13
f 12 27 25
f 30 13 28
f 27 12 14
f 31 22 21
f 21 22 11
f 14 22 32
f 22 31 32
f 16 33 4
f 23 17 40
f 16 24 8
f 40 19 23
f 9 24 16
f 9 18 24
f 42 40 17
f 25 34 18
f 59 28 19
f 20 24 35
f 21 20 35
f 59 41 28
f 41 36 28
f 29 26 27
f 29 27 14
f 29 36 26
f 36 30 28
f 45 31 21
f 30 43 13
f 44 29 14
f 37 14 32
f 16 8 33
f 18 34 24
f 59 19 40
f 48 25 26
f 27 26 25
f 45 21 35
f 30 36 29
f 44 30 29
f 43 30 44
f 44 14 37
f 38 31 46
f 38 47 51
f 39 38 51
f 34 35 24
f 34 25 48
f 26 36 41
f 13 52 42
f 52 13 50
f 46 31 45
f 56 44 37
f 31 38 39
f 61 31 39
f 34 63 35
f 35 63 45
f 50 13 43
f 46 47 38
f 65 50 43
f 56 65 43
f 43 44 56
f 47 55 51
f 31 61 32
f 51 68 39
f 59 64 41
f 59 40 52
f 42 52 40
f 60 46 45
f 49 47 46
f 32 85 37
f 39 68 61
f 58 48 26
f 48 63 34
f 64 58 41
f 41 58 26
f 50 53 52
f 60 49 46
f 47 54 55
f 74 56 37
f 51 55 67
f 57 85 32
f 57 32 61
f 67 68 51
f 52 62 59
f 47 49 54
f 66 65 56
f 67 55 54
f 74 37 85
f 59 62 81
f 81 64 59
f 53 62 52
f 91 60 45
f 65 53 50
f 74 66 56
f 75 57 61
f 63 72 70
f 58 82 48
f 63 48 72
f 48 82 72
f 91 45 63
f 53 65 84
f 60 75 49
f 49 75 54
f 69 94 70
f 62 71 81
f 53 84 62
f 72 82 90
f 64 73 58
f 66 84 65
f 66 92 83
f 57 60 91
f 92 66 74
f 57 75 60
f 75 67 54
f 75 68 67
f 61 68 75
f 76 94 69
f 95 79 77
f 71 79 95
f 80 79 71
f 62 80 71
f 70 72 78
f 96 63 70
f 89 62 84
f 73 64 81
f 58 73 82
f 84 66 83
f 73 92 82
f 82 92 74
f 73 83 92
f 78 69 70
f 96 70 94
f 71 95 86
f 72 90 78
f 81 71 86
f 87 63 96
f 62 89 80
f 88 81 86
f 88 73 81
f 83 73 88
f 87 91 63
f 82 98 90
f 74 98 82
f 74 85 98
f 98 57 91
f 85 57 98
f 99 77 79
f 93 99 79
f 100 69 78
f 79 80 93
f 93 80 97
f 93 86 95
f 97 86 93
f 90 101 78
f 97 89 86
f 89 97 80
f 89 88 86
f 101 98 87
f 90 98 101
f 88 89 84
f 84 83 88
f 98 91 87
f 99 102 77
f 95 77 102
f 94 76 96
f 95 102 93
f 100 87 96
f 78 101 100
f 100 101 87
f 69 100 76
f 100 96 76
f 102 99 93
# 200 faces, 0 coords texture

# End of File
