####
#
# OBJ File Generated by Meshlab
#
####
# Object lion-reference500.obj
#
# Vertices: 252
# Faces: 500
#
####
v -0.2461740 -0.4057637 -0.2064538
v -0.2264284 -0.4213595 -0.2600243
v -0.2123838 -0.4230500 -0.1817111
v -0.2111562 -0.3844859 0.6006673
v -0.1899513 -0.3982346 0.6371692
v -0.1764204 -0.4159827 0.5253060
v -0.2279395 -0.3802406 -0.2644698
v -0.2104470 -0.3860192 0.5673391
v -0.1763194 -0.3411699 -0.2932780
v -0.2205568 -0.3640682 -0.2328510
v -0.2004030 -0.4253205 0.5874541
v -0.1519670 -0.3834533 -0.3171481
v -0.1968866 -0.3781969 -0.1686881
v -0.1800766 -0.3251668 0.5430464
v -0.1895316 -0.3445034 0.4856114
v -0.1858754 -0.2392227 0.5063466
v -0.1533127 -0.2022500 0.4281879
v -0.1857597 -0.1466254 0.5158122
v -0.1814037 -0.1255575 0.4542122
v -0.1106014 -0.3837086 0.6423538
v -0.1546349 -0.3473581 -0.2407859
v -0.1451315 -0.3335994 0.5577930
v -0.1536855 -0.2659952 -0.2455897
v -0.1389927 -0.3407007 0.4694394
v -0.1674097 -0.2017806 -0.2954789
v -0.1515906 -0.1314775 -0.1486558
v -0.1665426 -0.1256706 0.5443211
v -0.1607738 -0.0721957 -0.1161365
v -0.1505067 -0.0321101 0.3941921
v -0.1629399 -0.1113915 -0.2344086
v -0.1417602 0.0598793 -0.1789949
v -0.1670103 0.0346463 0.4513887
v -0.1564295 -0.0133857 0.5389018
v -0.1299323 0.2230199 0.4114090
v -0.1328700 -0.4262227 -0.2390814
v -0.1440232 -0.4052552 -0.1663012
v -0.1078835 -0.3833634 0.5209578
v -0.1253632 -0.2134580 -0.3279486
v -0.1204674 -0.2344076 0.4459856
v -0.1170403 -0.1931569 -0.2106879
v -0.1363988 -0.2179081 0.5535238
v -0.1188585 -0.0810939 -0.2610928
v -0.1202087 -0.0419906 -0.0759695
v -0.1032365 0.1152880 -0.2327716
v -0.0931612 0.0278993 -0.0445513
v -0.1333768 -0.0094999 0.5611561
v -0.1291828 0.1500705 0.2685945
v -0.1183160 0.2003915 0.3535297
v -0.1529424 0.1551197 0.5227431
v -0.1099327 -0.3593849 -0.2641072
v -0.0940523 -0.2204201 -0.2750393
v -0.0987282 -0.2036166 0.5189499
v -0.1045340 -0.0331991 0.3898439
v -0.0811307 -0.0312220 -0.0914839
v -0.0841406 -0.0224481 0.3907619
v -0.0967845 -0.0298944 0.1504112
v -0.1037352 0.0153567 0.3449422
v -0.1468994 0.0131009 -0.0825960
v -0.1160304 0.0870838 0.1226804
v -0.1078645 0.1246746 -0.0924902
v -0.1078670 0.2025257 0.1147055
v -0.1025424 0.1852796 0.5759773
v -0.0995651 0.2357410 0.2368235
v -0.0932162 0.2399156 0.7082815
v -0.1090886 0.2933686 0.4946429
v -0.0951799 0.3504805 0.7239370
v -0.0984670 -0.4232495 0.6240451
v -0.0757575 -0.4053257 0.5793557
v -0.0851280 -0.1303193 -0.2675896
v -0.0770660 -0.1457960 0.4746833
v -0.0900121 -0.0815216 0.5455943
v -0.0705771 0.0025762 0.0132222
v -0.0884477 0.0704681 -0.0370472
v -0.0930853 0.1281373 -0.0279567
v -0.0812824 0.2043031 -0.1731656
v -0.0886130 0.2511524 0.1433039
v -0.0766823 0.3226468 0.4023938
v -0.0839868 0.2750270 0.5542859
v -0.1100638 0.3250917 0.7050248
v -0.0866762 0.2827177 0.6570131
v -0.0808183 0.3115782 0.7955684
v -0.0690769 0.3626384 0.6929691
v -0.0750631 -0.0876703 -0.1698968
v -0.0530610 -0.0533315 0.4948511
v -0.0654364 -0.0671186 0.1617515
v -0.0610810 -0.0661341 -0.2500605
v -0.0352741 -0.0297423 0.0049241
v -0.0669876 -0.0078132 0.5734395
v -0.0628243 0.0175283 -0.2722986
v -0.0537164 0.2206219 -0.2220874
v -0.0382134 0.2010863 0.6690720
v -0.0379974 0.2251499 0.7733829
v -0.0721738 0.2596868 -0.0599666
v -0.0735563 0.2646282 0.0284196
v -0.0582999 0.2863795 0.3570696
v -0.0384683 0.3430482 0.5070002
v -0.0296784 -0.0656179 0.4142628
v -0.0419303 -0.0128576 -0.0849727
v -0.0656758 0.0833161 0.5943190
v -0.0308056 0.1916177 0.7392263
v -0.0627709 0.2175809 0.6405575
v -0.0504537 0.1980149 0.8522914
v -0.0531578 0.2578543 0.8034001
v -0.0018967 0.2494668 -0.1966959
v -0.0331546 0.2868596 -0.0172118
v -0.0368518 0.2849430 0.2901020
v -0.0913315 0.3965966 0.7307610
v -0.0460776 -0.0628981 0.3205734
v -0.0134177 -0.0149378 -0.1678099
v -0.0230953 0.1175526 -0.2912209
v -0.0000254 0.1338303 0.7605175
v -0.0261733 0.1701017 -0.8410832
v -0.0144203 0.1776516 -0.2982287
v -0.0215012 0.1882742 0.7972708
v -0.0118576 0.1865884 -0.7814150
v -0.0130069 0.1893118 -0.5587740
v -0.0123812 0.1902718 -0.4198900
v 0.0125435 0.2343231 0.7846271
v 0.0004603 0.2519226 0.8127949
v -0.0235882 0.3392193 0.8331119
v 0.0014949 0.3364369 0.4528373
v -0.0208823 0.4072719 0.6678332
v 0.0037737 0.4030555 0.7803917
v 0.0065194 -0.0517780 0.5504327
v 0.0012683 0.0461174 -0.2656809
v 0.0041630 0.0162012 0.6020587
v 0.0072650 0.1314543 0.6562550
v 0.0506163 0.0775098 -0.2827189
v 0.0008325 0.1472128 0.8006224
v 0.0067297 0.1889465 -0.7336774
v 0.0108270 0.1908477 -0.4951556
v 0.0106745 0.1760204 -0.4017193
v 0.0004189 0.2034365 0.6979964
v -0.0067273 0.2154960 -0.8857227
v 0.0185818 0.1907773 -0.7837056
v 0.0174822 0.1995871 -0.3813745
v 0.0314005 0.1873084 0.8501833
v -0.0129230 0.2369513 -0.8209528
v -0.0056923 0.2364992 0.8996970
v 0.0093103 0.2917658 0.2029124
v 0.0475055 0.2884046 0.3567081
v 0.0208318 0.3855027 0.6001493
v 0.0489839 -0.0730433 0.1808096
v 0.0438991 -0.0604740 0.3256971
v 0.0134279 -0.0148764 -0.1759020
v 0.0312497 0.1739201 0.7717131
v -0.0003465 0.1878276 -0.3203628
v 0.0322129 0.1869178 -0.8588867
v 0.0058805 0.2135322 -0.2895555
v 0.0558927 0.2088608 0.6530262
v 0.0557107 0.2153026 0.8464872
v 0.0632921 0.2510673 -0.1339580
v 0.0399989 0.2822462 -0.0387591
v 0.0201657 0.3270263 0.8385369
v 0.0302816 0.4097679 0.7159214
v 0.0278462 -0.0679861 0.4013890
v 0.0876179 -0.0698646 -0.2679007
v 0.0752013 -0.0009860 0.5735614
v 0.0265476 0.1902421 0.7366127
v 0.0448761 0.2312596 0.8005201
v 0.0724361 0.3362935 0.4374670
v 0.0536109 0.3316456 0.5313852
v 0.0861261 -0.1215062 -0.2608985
v 0.0560465 -0.0554527 0.5320481
v 0.0528259 -0.0282195 0.0158021
v 0.0510488 -0.0143498 -0.0732213
v 0.0468238 0.2078287 -0.2469555
v 0.0443672 0.2186719 0.7508481
v 0.0774511 0.2482240 -0.0243666
v 0.0632125 0.2766141 0.8057317
v 0.0704328 0.3406265 0.8003070
v 0.0667929 0.3626359 0.6903294
v 0.0869287 0.3977731 0.7318116
v 0.0809011 -0.4216655 0.5657614
v 0.0965907 -0.3978314 0.6428702
v 0.0874371 -0.3715861 0.5727835
v 0.0942297 -0.2348270 -0.2741722
v 0.1112444 -0.0935288 0.4086885
v 0.0950190 -0.0378679 0.1687726
v 0.0961143 -0.0108706 0.3561518
v 0.0780759 -0.0406101 0.4281479
v 0.0747121 -0.0292678 -0.0914644
v 0.0894030 0.0379681 -0.0395136
v 0.0913167 0.1149813 -0.0323102
v 0.0921328 0.0461609 0.0679994
v 0.0933025 0.1798818 -0.1432163
v 0.0811876 0.1280086 0.5942627
v 0.0944327 0.2368971 0.5548778
v 0.0757464 0.2646976 0.1562713
v 0.0793887 0.2827561 0.6363602
v 0.1073540 0.3320435 0.7079505
v 0.1775284 -0.4230812 0.6334419
v 0.1220092 -0.4084266 -0.2517966
v 0.1161385 -0.3511868 -0.2563835
v 0.1126163 -0.3616852 0.5135958
v 0.1366700 -0.3439828 0.4713339
v 0.1436045 -0.3695218 -0.3219613
v 0.1247177 -0.2526814 0.4543541
v 0.1096888 -0.2732782 0.5121446
v 0.0932030 -0.1213017 -0.1868239
v 0.0769932 -0.1526416 0.4899623
v 0.1258629 -0.1952421 -0.3245349
v 0.1205034 -0.0615760 -0.0901506
v 0.1105839 -0.0836195 0.5540310
v 0.1190867 0.0897711 0.1292348
v 0.1134328 0.0838681 0.3610487
v 0.1369520 0.0682154 -0.1873803
v 0.1013742 0.1449073 -0.0824724
v 0.1024093 0.1129609 -0.2378124
v 0.1181755 0.1902310 0.3475148
v 0.1030685 0.2139117 0.0936810
v 0.0987841 0.2373017 0.3379446
v 0.1059393 0.2918851 0.4080187
v 0.1134516 0.2700663 0.5125903
v 0.1087720 0.2688539 0.7136263
v 0.1462566 -0.3767607 -0.1773951
v 0.1323713 -0.3415846 0.5524103
v 0.1423130 -0.3056596 0.5498744
v 0.1209876 -0.2184626 -0.2218139
v 0.1552787 -0.1974307 -0.2065232
v 0.1481537 -0.0407786 0.3912279
v 0.1597401 -0.1309691 0.5490193
v 0.1624544 -0.0500721 -0.1081016
v 0.1609363 -0.0989959 -0.2313226
v 0.1402453 0.0417079 -0.0819867
v 0.1304546 -0.0195686 0.3745656
v 0.1402692 0.0649170 0.5690550
v 0.1266142 0.1492343 0.2568793
v 0.1612992 0.1255108 0.4928592
v 0.1400320 -0.4236807 -0.1821920
v 0.1626259 -0.4225605 0.5282352
v 0.1844829 -0.3649375 -0.3053640
v 0.1436530 -0.3770496 0.6426412
v 0.1515875 -0.3380748 -0.2515948
v 0.1831417 -0.3380185 0.5577483
v 0.1701497 -0.3194340 -0.2928500
v 0.1553368 -0.2678141 0.4490589
v 0.1755350 -0.2753972 0.5369351
v 0.1714929 -0.1996142 -0.2783326
v 0.1707338 0.0375383 0.4670992
v 0.1362289 0.1637578 0.5617449
v 0.1905477 -0.4277435 -0.2715444
v 0.2295249 -0.4243529 -0.1935804
v 0.2136364 -0.3990834 0.5693699
v 0.1884224 -0.4013391 0.6360892
v 0.2079386 -0.3563285 -0.2272170
v 0.1864259 -0.3319482 0.4806369
v 0.1809057 -0.1342256 0.4473172
v 0.1856090 -0.1444606 0.5147635
v 0.1550963 -0.0320814 0.5405399
v 0.2383940 -0.4036321 -0.2577891
v 0.2243294 -0.3792111 -0.1850461
# 252 vertices, 0 vertices normals

f 2 10 7
f 1 10 2
f 3 13 1
f 1 13 10
f 2 35 1
f 1 35 3
f 12 2 7
f 8 6 11
f 4 8 11
f 4 11 5
f 12 7 9
f 15 6 8
f 10 9 7
f 15 8 14
f 14 8 4
f 14 16 15
f 12 35 2
f 36 13 3
f 10 21 9
f 21 10 13
f 14 4 22
f 25 9 23
f 16 17 15
f 16 14 27
f 16 27 18
f 19 17 16
f 19 29 17
f 19 16 18
f 19 18 33
f 18 27 33
f 19 32 29
f 19 33 32
f 35 36 3
f 6 67 11
f 5 11 20
f 20 22 5
f 5 22 4
f 21 13 36
f 6 15 24
f 9 38 12
f 23 9 21
f 25 38 9
f 22 41 14
f 17 24 15
f 14 41 27
f 30 25 23
f 25 30 42
f 30 23 26
f 28 30 26
f 46 33 27
f 27 41 46
f 31 30 28
f 31 28 58
f 49 32 33
f 32 34 48
f 34 32 49
f 20 11 67
f 12 50 35
f 35 50 36
f 24 37 6
f 50 21 36
f 50 12 38
f 50 23 21
f 40 23 50
f 52 41 22
f 17 39 24
f 26 23 40
f 42 38 25
f 40 43 26
f 53 39 17
f 43 28 26
f 29 53 17
f 58 28 43
f 42 30 44
f 29 57 53
f 31 44 30
f 58 43 45
f 32 57 29
f 60 31 58
f 57 32 48
f 62 49 46
f 46 49 33
f 34 49 65
f 49 62 65
f 37 67 6
f 50 38 51
f 37 52 22
f 51 40 50
f 24 52 37
f 24 39 52
f 42 51 38
f 42 69 51
f 53 70 39
f 83 43 40
f 41 52 71
f 46 41 71
f 83 54 43
f 88 46 71
f 53 57 55
f 44 89 42
f 54 45 43
f 59 56 57
f 59 57 47
f 58 45 73
f 59 72 56
f 73 60 58
f 48 47 57
f 99 62 46
f 44 31 75
f 60 75 31
f 75 60 93
f 61 59 47
f 63 61 47
f 63 47 48
f 76 61 63
f 78 65 62
f 34 77 48
f 77 34 65
f 80 64 79
f 64 103 79
f 68 67 37
f 68 20 67
f 68 22 20
f 22 68 37
f 39 70 52
f 69 40 51
f 69 86 83
f 83 40 69
f 70 53 84
f 42 86 69
f 89 86 42
f 56 85 108
f 108 55 56
f 57 56 55
f 99 46 88
f 74 73 72
f 74 72 59
f 60 74 93
f 74 60 73
f 61 74 59
f 93 74 61
f 94 93 61
f 78 62 101
f 94 61 76
f 63 48 95
f 92 103 64
f 77 95 48
f 80 78 101
f 79 103 81
f 80 79 82
f 66 79 81
f 66 82 79
f 107 82 66
f 70 71 52
f 84 71 70
f 97 55 108
f 97 53 55
f 53 97 84
f 71 84 88
f 56 72 87
f 56 87 85
f 98 45 54
f 45 72 73
f 44 110 89
f 110 44 113
f 101 62 99
f 90 44 75
f 101 64 80
f 91 64 101
f 75 93 90
f 106 94 76
f 106 76 63
f 106 63 95
f 78 96 65
f 96 77 65
f 78 80 82
f 122 78 82
f 81 120 66
f 66 120 107
f 86 109 83
f 84 124 88
f 87 72 98
f 88 124 126
f 45 98 72
f 99 91 101
f 113 44 90
f 100 64 91
f 100 92 64
f 104 149 90
f 93 104 90
f 92 102 103
f 105 104 93
f 93 94 105
f 103 120 81
f 103 102 120
f 105 94 106
f 78 122 96
f 120 123 107
f 122 82 107
f 108 156 97
f 124 84 97
f 109 54 83
f 54 109 98
f 109 166 98
f 166 87 98
f 109 86 125
f 89 125 86
f 126 99 88
f 125 89 110
f 99 126 127
f 127 91 99
f 127 133 91
f 111 92 100
f 114 111 129
f 92 111 114
f 134 112 138
f 115 135 138
f 112 115 138
f 135 115 130
f 130 115 116
f 149 147 113
f 90 149 113
f 133 100 91
f 92 119 102
f 118 92 114
f 118 119 92
f 102 139 120
f 106 140 105
f 121 95 77
f 96 121 77
f 107 123 122
f 143 108 85
f 143 144 108
f 144 156 108
f 156 124 97
f 165 143 87
f 87 143 85
f 145 166 109
f 145 109 125
f 148 135 112
f 113 128 110
f 100 159 111
f 135 115 112
f 135 130 115
f 115 130 116
f 130 131 116
f 116 132 117
f 131 132 116
f 132 147 117
f 118 114 129
f 112 134 148
f 131 130 116
f 131 116 117
f 136 131 117
f 136 117 147
f 147 149 136
f 133 159 100
f 119 137 102
f 137 139 102
f 141 140 106
f 141 106 95
f 120 139 154
f 142 121 96
f 142 96 122
f 154 123 120
f 155 142 122
f 155 122 123
f 166 165 87
f 126 124 164
f 125 157 145
f 128 125 110
f 113 149 128
f 159 146 111
f 111 146 129
f 136 132 131
f 136 147 132
f 113 147 149
f 127 150 133
f 118 129 146
f 136 149 147
f 150 159 133
f 168 118 146
f 148 134 138
f 148 138 135
f 167 149 104
f 167 104 152
f 118 168 160
f 160 137 119
f 151 139 137
f 160 119 118
f 152 104 105
f 154 139 151
f 153 152 105
f 140 153 105
f 161 141 121
f 141 95 121
f 142 162 121
f 171 123 154
f 123 173 155
f 145 157 163
f 145 163 200
f 200 182 145
f 182 166 145
f 128 157 125
f 164 158 126
f 187 127 126
f 167 128 149
f 150 127 187
f 168 146 159
f 151 137 160
f 168 170 160
f 154 151 160
f 189 153 140
f 140 141 189
f 160 170 154
f 161 121 162
f 142 172 162
f 171 173 123
f 172 142 155
f 164 181 201
f 179 144 143
f 143 165 179
f 179 180 144
f 144 180 156
f 124 156 181
f 124 181 164
f 156 180 181
f 183 165 166
f 165 183 185
f 187 126 158
f 128 167 209
f 167 152 186
f 150 215 159
f 168 159 215
f 152 169 186
f 168 215 170
f 152 153 169
f 169 153 189
f 212 189 141
f 141 213 212
f 213 141 161
f 170 171 154
f 162 172 190
f 174 175 176
f 174 176 195
f 163 177 200
f 199 204 201
f 181 178 201
f 204 164 201
f 203 182 200
f 204 158 164
f 128 209 157
f 181 180 226
f 182 183 166
f 165 185 179
f 179 206 180
f 185 183 184
f 208 184 183
f 185 184 205
f 186 209 167
f 184 208 169
f 169 211 184
f 188 150 187
f 186 169 208
f 211 169 189
f 211 189 212
f 188 190 150
f 190 215 150
f 162 214 161
f 214 162 188
f 188 162 190
f 170 215 191
f 191 171 170
f 172 191 190
f 191 172 173
f 191 173 171
f 155 173 172
f 192 175 174
f 174 195 231
f 233 176 175
f 176 217 195
f 217 199 195
f 194 197 193
f 195 198 196
f 199 198 195
f 199 217 218
f 177 197 194
f 194 219 177
f 202 197 177
f 163 202 177
f 200 177 219
f 201 198 199
f 203 200 219
f 201 178 198
f 218 204 199
f 163 157 202
f 226 178 181
f 224 157 209
f 183 182 203
f 227 187 158
f 227 158 204
f 208 183 225
f 180 206 226
f 185 205 179
f 179 205 206
f 207 209 186
f 207 186 208
f 205 228 206
f 206 228 210
f 241 187 227
f 205 184 211
f 205 211 228
f 241 214 188
f 187 241 188
f 228 211 212
f 228 212 210
f 210 212 213
f 213 161 214
f 190 191 215
f 216 193 230
f 194 193 216
f 192 233 175
f 234 194 216
f 196 231 195
f 217 176 233
f 198 237 196
f 234 219 194
f 219 234 220
f 221 237 198
f 178 221 198
f 203 219 220
f 222 204 218
f 157 224 202
f 223 203 220
f 226 221 178
f 250 204 222
f 223 183 203
f 225 183 223
f 250 227 204
f 240 221 226
f 224 209 207
f 225 207 208
f 206 240 226
f 210 240 206
f 240 210 229
f 210 213 229
f 229 214 241
f 213 214 229
f 242 193 197
f 242 230 193
f 232 242 197
f 245 233 192
f 216 246 234
f 247 231 196
f 233 235 217
f 237 247 196
f 235 218 217
f 238 218 235
f 197 202 236
f 236 202 239
f 236 220 234
f 239 220 236
f 221 248 237
f 222 218 238
f 239 224 220
f 224 239 202
f 224 223 220
f 248 240 250
f 221 240 248
f 223 224 207
f 207 225 223
f 240 227 250
f 240 229 241
f 240 241 227
f 242 243 230
f 174 231 192
f 216 243 252
f 216 230 243
f 247 244 231
f 233 245 235
f 234 246 232
f 246 216 252
f 236 232 197
f 232 236 234
f 247 238 235
f 237 249 247
f 237 248 249
f 247 249 238
f 249 222 238
f 249 250 222
f 249 248 250
f 231 244 192
f 232 251 242
f 245 192 244
f 244 235 245
f 247 235 244
f 242 251 243
f 243 251 252
f 246 251 232
f 251 246 252
# 500 faces, 0 coords texture

# End of File
