####
#
# OBJ File Generated by Meshlab
#
####
# Object lion-reference300.obj
#
# Vertices: 149
# Faces: 294
#
####
v -0.1200535 -0.2075523 -0.0971278
v -0.1207926 -0.2025266 -0.1305929
v -0.1012202 -0.1968152 0.3133195
v -0.1002860 -0.2129637 0.2770294
v -0.0881597 -0.1705849 -0.1466390
v -0.1068729 -0.1851096 -0.0912708
v -0.0759835 -0.1917267 -0.1585740
v -0.0900383 -0.1625834 0.2715232
v -0.0947658 -0.1722517 0.2428057
v -0.0945714 -0.0934666 0.2485832
v -0.0766564 -0.1011250 0.2140939
v -0.0691017 -0.1924142 -0.0880774
v -0.0725658 -0.1667997 0.2788965
v -0.0768427 -0.1329976 -0.1227949
v -0.0694963 -0.1703503 0.2347197
v -0.0837048 -0.1008903 -0.1477395
v -0.0757953 -0.0657388 -0.0743279
v -0.0777372 -0.0075314 0.2725871
v -0.0803869 -0.0360978 -0.0580683
v -0.0851107 -0.0294018 0.2136097
v -0.0814699 -0.0556957 -0.1172043
v -0.0708801 0.0299397 -0.0894974
v -0.0601375 0.1011298 0.1784132
v -0.0664350 -0.2131113 -0.1195407
v -0.0453375 -0.1970583 0.2712508
v -0.0626816 -0.1067290 -0.1639743
v -0.0602337 -0.1172038 0.2229928
v -0.0585201 -0.0965785 -0.1053440
v -0.0681994 -0.1089541 0.2767619
v -0.0601043 -0.0209953 -0.0379847
v -0.0516182 0.0576440 -0.1163858
v -0.0666884 -0.0047499 0.2805780
v -0.0645914 0.0750353 0.1342973
v -0.0764712 0.0775599 0.2613716
v -0.0549664 -0.1796924 -0.1320536
v -0.0470262 -0.1102101 -0.1375196
v -0.0493641 -0.1018083 0.2594749
v -0.0471308 -0.0085346 0.1941409
v -0.0412815 -0.0302787 0.0764865
v -0.0518676 0.0076783 0.1724711
v -0.0734497 0.0065504 -0.0412980
v -0.0580152 0.0435419 0.0613402
v -0.0456240 0.0777139 -0.0340799
v -0.0539335 0.1012628 0.0573527
v -0.0512712 0.0926398 0.2879887
v -0.0545443 0.1466843 0.2473214
v -0.0475899 0.1752403 0.3619685
v -0.0464042 -0.2056929 0.3232451
v -0.0261752 -0.0267926 0.2398374
v -0.0391871 -0.0116295 0.2822917
v -0.0399551 0.0152990 -0.0118092
v -0.0361879 0.1115132 -0.0895521
v -0.0371476 0.1480914 0.1857345
v -0.0419934 0.1375135 0.2771429
v -0.0539238 0.1368318 0.3502785
v -0.0404091 0.1557891 0.3977842
v -0.0345384 0.1813192 0.3464845
v -0.0361674 -0.0432840 -0.1261035
v -0.0251728 -0.0034216 -0.0428994
v -0.0530724 -0.0279733 -0.1291969
v -0.0360869 0.1298434 -0.0299833
v -0.0426309 0.1281273 0.0569801
v -0.0192342 0.1715241 0.2535001
v -0.0089873 0.0163095 0.3044227
v -0.0154028 0.0958089 0.3696131
v -0.0282800 0.1056717 0.3271919
v -0.0252269 0.0990075 0.4261457
v -0.0235102 0.1157533 0.3884978
v -0.0165773 0.1434298 -0.0086059
v -0.0456657 0.1982983 0.3653805
v -0.0230388 -0.0314490 0.1602867
v 0.0053151 0.0688056 0.3930801
v -0.0000682 0.1023938 -0.1513521
v -0.0020032 0.1238287 0.3992444
v -0.0117941 0.1696096 0.4165560
v 0.0294390 0.1695494 0.2288600
v -0.0038395 0.0356793 -0.1415581
v 0.0008088 0.0986505 0.3457162
v 0.0253081 0.0387549 -0.1413595
v 0.0250948 0.0990176 0.4266393
v -0.0028462 0.1182496 0.4498485
v -0.0054181 0.1467337 0.1204557
v 0.0237528 0.1442023 0.1783541
v 0.0204180 0.1729746 0.2634079
v 0.0244919 -0.0365217 0.0904048
v 0.0185685 -0.0314677 0.1806977
v -0.0011537 -0.0022764 -0.0874227
v 0.0279463 0.1044304 0.3265131
v -0.0049691 0.2096988 0.3461894
v 0.0231814 0.1221291 0.4038901
v 0.0443119 -0.0514834 -0.1332729
v 0.0245073 -0.0253219 0.2706337
v 0.0264130 -0.0141097 0.0079011
v 0.0121154 0.1165505 -0.1275747
v 0.0214815 0.1010316 0.3681629
v 0.0328738 0.1367098 -0.0217901
v 0.0215209 0.1718990 0.4104783
v 0.0395057 0.1583625 0.3293380
v 0.0289475 0.2066865 0.3769346
v 0.0404505 -0.2108327 0.2828807
v 0.0468455 -0.1811136 0.2719642
v 0.0501562 -0.1308894 -0.1298205
v 0.0468981 -0.0185028 0.2014408
v 0.0475095 -0.0189340 0.0843863
v 0.0287281 -0.0066896 -0.0405701
v 0.0456583 0.0574906 -0.0161551
v 0.0394922 0.0220748 -0.0122687
v 0.0343340 0.1249862 -0.0619904
v 0.0405938 0.0640043 0.2971313
v 0.0501381 0.1357667 0.2652782
v 0.0378732 0.1323488 0.0781357
v 0.0578946 0.1449800 0.3539830
v 0.0924501 -0.2087382 0.3188157
v 0.0616700 -0.2122568 -0.1037219
v 0.0615169 -0.1761960 -0.1152278
v 0.0726649 -0.1490297 0.2261503
v 0.0718022 -0.1847609 -0.1609807
v 0.0466015 -0.0606509 -0.0934120
v 0.0518885 -0.1287744 0.2500053
v 0.0629314 -0.0976210 -0.1622675
v 0.0602517 -0.0307880 -0.0450753
v 0.0500890 -0.0209734 0.2786498
v 0.0595433 0.0448856 0.0646174
v 0.0504072 -0.0011039 0.1748029
v 0.0576887 0.0480585 -0.0371986
v 0.0614797 0.0456045 -0.1122188
v 0.0564423 0.1081902 0.1702665
v 0.0529696 0.1459426 0.2040094
v 0.0710180 -0.1675478 0.2747980
v 0.0776394 -0.0987154 -0.1032616
v 0.0832257 -0.0565851 0.2698203
v 0.0812272 -0.0250361 -0.0540508
v 0.0804682 -0.0494980 -0.1156613
v 0.0704075 -0.0143129 0.1917855
v 0.0712578 0.0571212 0.2847967
v 0.0625524 0.0879433 0.1030630
v 0.0813130 -0.2112803 0.2641176
v 0.0874183 -0.1759885 -0.1527080
v 0.0564550 -0.1932137 0.3240689
v 0.0757938 -0.1690374 -0.1257974
v 0.0915708 -0.1690093 0.2788741
v 0.0857464 -0.0998071 -0.1391663
v 0.0837769 0.0450495 0.2379984
v 0.1109401 -0.2114607 -0.1345079
v 0.1147624 -0.2121764 -0.0967902
v 0.1068182 -0.1995417 0.2846850
v 0.0932129 -0.1659741 0.2403185
v 0.0944143 -0.0870668 0.2347923
v 0.1107390 -0.1847351 -0.0967853
# 149 vertices, 0 vertices normals

f 1 6 2
f 2 24 1
f 7 2 5
f 6 5 2
f 9 4 8
f 8 4 3
f 8 10 9
f 7 24 2
f 12 6 1
f 6 12 5
f 8 3 13
f 16 5 14
f 10 11 9
f 10 8 18
f 10 20 11
f 10 18 20
f 24 12 1
f 3 4 48
f 48 13 3
f 4 9 15
f 5 26 7
f 14 5 12
f 16 26 5
f 13 29 8
f 11 15 9
f 8 29 18
f 21 16 14
f 16 21 60
f 21 14 17
f 19 21 17
f 18 29 32
f 22 21 19
f 22 19 41
f 34 20 18
f 23 20 34
f 7 35 24
f 24 35 12
f 15 25 4
f 35 7 26
f 35 14 12
f 28 14 35
f 37 29 13
f 11 27 15
f 17 14 28
f 60 26 16
f 28 30 17
f 38 27 11
f 30 19 17
f 20 38 11
f 41 19 30
f 60 21 31
f 20 40 38
f 22 31 21
f 41 30 51
f 43 22 41
f 40 20 23
f 45 34 32
f 32 34 18
f 23 34 46
f 34 45 46
f 25 48 4
f 35 26 36
f 25 37 13
f 36 28 35
f 15 37 25
f 15 27 37
f 60 36 26
f 60 58 36
f 38 49 27
f 87 30 28
f 29 37 50
f 32 29 50
f 87 59 30
f 59 51 30
f 42 39 40
f 42 40 33
f 42 51 39
f 51 43 41
f 23 33 40
f 64 45 32
f 31 22 52
f 43 52 22
f 52 43 61
f 44 42 33
f 62 44 33
f 62 33 23
f 54 46 45
f 53 23 46
f 25 13 48
f 27 49 37
f 58 28 36
f 87 28 58
f 71 38 39
f 40 39 38
f 64 32 50
f 43 51 42
f 44 43 42
f 61 43 44
f 62 61 44
f 54 45 66
f 62 23 53
f 55 54 66
f 55 68 56
f 47 55 56
f 47 57 55
f 70 57 47
f 49 50 37
f 49 38 71
f 39 51 59
f 31 77 60
f 77 31 73
f 66 45 64
f 82 62 53
f 54 63 46
f 63 53 46
f 54 55 57
f 89 54 57
f 56 75 47
f 47 75 70
f 49 92 50
f 50 92 64
f 73 31 52
f 65 55 66
f 65 68 55
f 94 73 52
f 61 94 52
f 69 94 61
f 61 62 69
f 68 75 56
f 68 67 75
f 69 62 82
f 54 89 63
f 75 99 70
f 89 57 70
f 71 86 49
f 87 105 59
f 87 58 77
f 60 77 58
f 78 66 64
f 72 68 65
f 68 72 74
f 78 65 66
f 68 74 67
f 67 81 75
f 63 76 53
f 70 99 89
f 85 71 39
f 85 86 71
f 86 92 49
f 93 85 59
f 59 85 39
f 73 79 77
f 65 95 72
f 78 95 65
f 74 80 67
f 80 81 67
f 83 82 53
f 75 81 97
f 84 76 63
f 84 63 89
f 97 99 75
f 105 93 59
f 77 91 87
f 88 95 78
f 95 74 72
f 74 95 90
f 90 80 74
f 108 94 69
f 97 81 80
f 96 108 69
f 82 96 69
f 83 53 76
f 87 91 118
f 118 105 87
f 79 91 77
f 92 122 64
f 109 78 64
f 94 79 73
f 88 78 109
f 97 80 90
f 111 96 82
f 82 83 111
f 98 84 89
f 92 103 119
f 104 86 85
f 85 93 104
f 104 124 86
f 92 86 103
f 86 124 103
f 107 93 105
f 109 64 122
f 79 94 126
f 88 112 95
f 95 112 90
f 127 111 83
f 83 128 127
f 128 83 76
f 100 139 101
f 91 102 118
f 122 92 119
f 121 105 118
f 79 126 91
f 103 124 134
f 93 107 104
f 125 106 107
f 107 106 123
f 108 126 94
f 106 125 96
f 96 136 106
f 110 88 109
f 108 96 125
f 136 96 111
f 136 111 127
f 110 98 88
f 98 112 88
f 84 110 76
f 110 84 98
f 112 97 90
f 112 98 99
f 112 99 97
f 89 99 98
f 113 139 100
f 100 101 137
f 129 119 101
f 115 117 114
f 119 116 101
f 102 117 115
f 120 117 102
f 91 120 102
f 121 118 102
f 119 103 116
f 129 122 119
f 133 91 126
f 107 105 121
f 135 109 122
f 107 123 104
f 104 123 124
f 126 108 125
f 123 136 124
f 124 136 127
f 123 106 136
f 109 135 110
f 128 76 110
f 116 137 101
f 129 101 139
f 140 102 115
f 102 140 130
f 103 134 116
f 121 102 130
f 131 122 129
f 91 133 120
f 132 121 130
f 132 107 121
f 125 107 132
f 131 135 122
f 124 143 134
f 127 143 124
f 127 128 143
f 143 110 135
f 128 110 143
f 144 114 117
f 138 144 117
f 115 149 140
f 147 137 116
f 139 141 129
f 131 129 141
f 117 120 138
f 138 120 142
f 138 130 140
f 142 130 138
f 134 148 116
f 142 133 130
f 133 142 120
f 133 132 130
f 148 143 131
f 134 143 148
f 132 133 126
f 126 125 132
f 143 135 131
f 144 145 114
f 100 137 113
f 115 145 149
f 115 114 145
f 147 146 137
f 139 113 141
f 140 149 138
f 147 131 141
f 116 148 147
f 147 148 131
f 137 146 113
f 146 141 113
f 147 141 146
f 145 144 149
f 149 144 138
# 294 faces, 0 coords texture

# End of File
