####
#
# OBJ File Generated by Meshlab
#
####
# Object mobius220-v7.obj
#
# Vertices: 171
# Faces: 220
#
####
v -0.9053516 -0.4792235 0.0000000
v -0.9941121 -0.2508007 -0.0000001
v -1.0228928 -0.0000002 -0.0000001
v -0.6378841 -0.7991462 0.0000000
v -0.7864401 -0.6543041 0.0000000
v -0.2326744 -0.9934133 0.0000000
v -0.4479426 -0.9179918 0.0000000
v 0.2208089 -0.9933178 0.0000000
v -0.0059135 -1.0187352 0.0000000
v 0.6292937 -0.7964927 0.0000000
v 0.4360916 -0.9177585 0.0000000
v 0.9119142 -0.4419821 0.0000000
v 0.7904540 -0.6350374 0.0000000
v 1.0127659 0.0000001 0.0000000
v 0.9870747 -0.2266277 0.0000000
v 0.9119142 0.4419822 0.0000000
v 0.9870747 0.2266279 0.0000000
v 0.6292936 0.7964927 0.0000000
v 0.7904540 0.6350374 0.0000000
v 0.2208087 0.9933178 0.0000000
v 0.4360914 0.9177585 0.0000000
v -0.2326746 0.9934133 0.0000000
v -0.0059138 1.0187352 0.0000000
v -0.6378844 0.7991458 0.0000000
v -0.4479430 0.9179918 0.0000000
v -0.9053516 0.4792233 0.0000000
v -0.7864401 0.6543037 0.0000000
v -1.0228928 -0.0000002 -0.0000001
v -0.9941121 0.2508003 -0.0000001
v -1.0176883 -0.1262717 -0.0000001
v -1.0249035 -0.2579957 -0.2523878
v -1.0334765 -0.1275649 -0.2538601
v -1.0228928 -0.0000002 -0.2541865
v -0.8478706 -0.5732152 0.0000000
v -0.8533660 -0.7099747 -0.2389662
v -0.9100636 -0.6151080 -0.2430107
v -0.9601269 -0.5077953 -0.2467370
v -0.5480123 -0.8627834 0.0000000
v -0.5070748 -1.0399927 -0.2153218
v -0.6139386 -0.9669438 -0.2225734
v -0.7070978 -0.8859801 -0.2288860
v -0.1200253 -1.0124170 0.0000000
v -0.0061870 -1.1988975 -0.1798085
v -0.1393747 -1.1811044 -0.1896126
v -0.2684325 -1.1482718 -0.1988194
v 0.3305502 -0.9615732 0.0000000
v 0.5295254 -1.1122073 -0.1352793
v 0.3989517 -1.1578126 -0.1471432
v 0.2648610 -1.1876768 -0.1585435
v 0.7143809 -0.7202890 0.0000000
v 0.9783996 -0.7850533 -0.0839744
v 0.8807299 -0.8868650 -0.0973020
v 0.7723231 -0.9761593 -0.1103226
v 0.9555165 -0.3364249 0.0000000
v 1.2338837 -0.2829947 -0.0284661
v 1.1926004 -0.4194662 -0.0425890
v 1.1357539 -0.5498825 -0.0565770
v 1.0062637 0.1140174 0.0000000
v 1.2338837 0.2829949 0.0284662
v 1.2590716 0.1425028 0.0142552
v 1.2676415 0.0000001 0.0000000
v 0.8565930 0.5418967 0.0000000
v 0.9783993 0.7850536 0.0839745
v 1.0638767 0.6722385 0.0703862
v 1.1357539 0.5498827 0.0565771
v 0.5360949 0.8625253 0.0000000
v 0.5295252 1.1122073 0.1352794
v 0.6546106 1.0514661 0.1229945
v 0.7723228 0.9761593 0.1103227
v 0.1081682 1.0123686 0.0000000
v -0.0061873 1.1988975 0.1798085
v 0.1291775 1.2012275 0.1694426
v 0.2648607 1.1876768 0.1585435
v -0.3424110 0.9617324 0.0000000
v -0.5070751 1.0399927 0.2153217
v -0.3914590 1.1008292 0.2073968
v -0.2684328 1.1482718 0.1988193
v -0.7172695 0.7289644 0.0000000
v -0.8533660 0.7099742 0.2389661
v -0.7866085 0.7995261 0.2343258
v -0.7070984 0.8859798 0.2288859
v -0.9553114 0.3716721 -0.0000001
v -1.0249035 0.2579954 0.2523877
v -0.9995954 0.3883530 0.2499356
v -0.9601269 0.5077950 0.2467370
v -0.9553114 -0.3716725 -0.0000001
v -0.9995954 -0.3883533 -0.2499357
v -0.8505769 -0.4506518 0.2467370
v -0.9110276 -0.3549913 0.2499356
v -0.9633209 -0.2436056 0.2523877
v -1.0019003 -0.1249784 0.2538600
v -1.0228928 -0.0000002 0.2541863
v -0.7172695 -0.7289649 0.0000000
v -0.7866080 -0.7995265 -0.2343259
v -0.5686705 -0.7123123 0.2288859
v -0.6479309 -0.6584033 0.2343259
v -0.7195143 -0.5986336 0.2389661
v -0.7856774 -0.5313222 0.2430106
v -0.3424109 -0.9617324 0.0000000
v -0.3914586 -1.1008292 -0.2073968
v -0.1969163 -0.8385548 0.1988193
v -0.2933630 -0.8226354 0.2073968
v -0.3888102 -0.7959910 0.2153217
v -0.4820861 -0.7586232 0.2225733
v 0.1081684 -1.0123686 0.0000000
v 0.1291779 -1.2012275 -0.1694426
v 0.1767568 -0.7989586 0.1585435
v 0.0871591 -0.8235099 0.1694426
v -0.0056402 -0.8385727 0.1798085
v -0.1006757 -0.8437294 0.1896126
v 0.5360952 -0.8625253 0.0000000
v 0.6546108 -1.0514661 -0.1229944
v 0.4862643 -0.6168260 0.1103227
v 0.4175795 -0.6735845 0.1229944
v 0.3426576 -0.7233098 0.1352794
v 0.2621488 -0.7653339 0.1471432
v 0.8565930 -0.5418964 0.0000000
v 1.0638767 -0.6722382 -0.0703861
v 0.6880742 -0.3340818 0.0565770
v 0.6493092 -0.4115548 0.0703862
v 0.6025088 -0.4850214 0.0839745
v 0.5480319 -0.5537131 0.0973021
v 1.0062637 -0.1140172 0.0000000
v 1.2590716 -0.1425025 -0.0142551
v 0.7578902 0.0000001 0.0000000
v 0.7534559 -0.0855319 0.0142551
v 0.7402657 -0.1702608 0.0284662
v 0.7184325 -0.2533834 0.0425891
v 0.9555165 0.3364251 0.0000000
v 1.1926004 0.4194664 0.0425891
v 0.6880742 0.3340820 -0.0565770
v 0.7184325 0.2533836 -0.0425890
v 0.7402657 0.1702609 -0.0284661
v 0.7534559 0.0855321 -0.0142551
v 0.7143806 0.7202890 0.0000000
v 0.8807294 0.8868650 0.0973021
v 0.4862640 0.6168260 -0.1103227
v 0.5480317 0.5537131 -0.0973021
v 0.6025086 0.4850217 -0.0839745
v 0.6493090 0.4115550 -0.0703862
v 0.3305500 0.9615732 0.0000000
v 0.3989514 1.1578126 0.1471432
v 0.1767566 0.7989586 -0.1585435
v 0.2621486 0.7653339 -0.1471432
v 0.3426575 0.7233098 -0.1352793
v 0.4175793 0.6735845 -0.1229944
v -0.1200255 1.0124170 0.0000000
v -0.1393751 1.1811044 0.1896126
v -0.1969165 0.8385548 -0.1988194
v -0.1006759 0.8437294 -0.1896126
v -0.0056404 0.8385727 -0.1798085
v 0.0871589 0.8235099 -0.1694426
v -0.5480127 0.8627834 0.0000000
v -0.6139389 0.9669434 0.2225733
v -0.5686705 0.7123119 -0.2288860
v -0.4820861 0.7586232 -0.2225734
v -0.3888106 0.7959910 -0.2153218
v -0.2933632 0.8226354 -0.2073968
v -0.8478706 0.5732147 0.0000000
v -0.9100636 0.6151076 0.2430106
v -0.8505769 0.4506516 -0.2467370
v -0.7856774 0.5313220 -0.2430107
v -0.7195143 0.5986333 -0.2389662
v -0.6479309 0.6584029 -0.2343259
v -1.0176883 0.1262714 -0.0000001
v -1.0228928 -0.0000002 0.2541863
v -1.0334765 0.1275646 0.2538600
v -1.0228928 -0.0000002 -0.2541865
v -1.0019003 0.1249781 -0.2538601
v -0.9633209 0.2436053 -0.2523878
v -0.9110276 0.3549911 -0.2499357
# 171 vertices, 0 vertices normals

f 17 58 60
f 17 60 59
f 133 134 58
f 133 58 17
f 135 19 63
f 135 63 136
f 26 159 160
f 26 160 85
f 88 89 86
f 88 86 1
f 169 170 29
f 169 29 165
f 140 131 16
f 140 16 62
f 29 82 84
f 29 84 83
f 144 145 21
f 144 21 141
f 78 24 81
f 78 81 80
f 121 122 50
f 121 50 13
f 127 128 54
f 127 54 15
f 120 121 13
f 120 13 117
f 102 103 7
f 102 7 99
f 82 26 85
f 82 85 84
f 18 135 136
f 18 136 69
f 89 90 2
f 89 2 86
f 24 153 154
f 24 154 81
f 50 10 53
f 50 53 52
f 113 114 111
f 113 111 10
f 145 146 66
f 145 66 21
f 165 29 83
f 165 83 167
f 157 158 74
f 157 74 25
f 126 127 15
f 126 15 123
f 38 4 41
f 38 41 40
f 114 115 11
f 114 11 111
f 27 78 80
f 27 80 79
f 104 95 4
f 104 4 38
f 70 20 73
f 70 73 72
f 138 139 19
f 138 19 135
f 4 93 94
f 4 94 41
f 11 46 48
f 11 48 47
f 2 30 32
f 2 32 31
f 155 156 153
f 155 153 24
f 109 110 42
f 109 42 9
f 110 101 6
f 110 6 42
f 107 108 105
f 107 105 8
f 150 151 23
f 150 23 147
f 42 6 45
f 42 45 44
f 164 155 24
f 164 24 78
f 66 18 69
f 66 69 68
f 1 86 87
f 1 87 37
f 98 88 1
f 98 1 34
f 34 1 37
f 34 37 36
f 116 107 8
f 116 8 46
f 158 149 22
f 158 22 74
f 13 50 52
f 13 52 51
f 151 152 70
f 151 70 23
f 122 113 10
f 122 10 50
f 153 25 75
f 153 75 154
f 108 109 9
f 108 9 105
f 125 126 123
f 125 123 14
f 91 92 3
f 91 3 30
f 5 34 36
f 5 36 35
f 54 12 57
f 54 57 56
f 62 16 65
f 62 65 64
f 152 143 20
f 152 20 70
f 19 62 64
f 19 64 63
f 95 96 93
f 95 93 4
f 103 104 38
f 103 38 7
f 105 9 43
f 105 43 106
f 146 137 18
f 146 18 66
f 156 157 25
f 156 25 153
f 93 5 35
f 93 35 94
f 131 132 129
f 131 129 16
f 58 14 61
f 58 61 60
f 111 11 47
f 111 47 112
f 137 138 135
f 137 135 18
f 7 38 40
f 7 40 39
f 22 147 148
f 22 148 77
f 20 141 142
f 20 142 73
f 117 13 51
f 117 51 118
f 139 140 62
f 139 62 19
f 8 105 106
f 8 106 49
f 132 133 17
f 132 17 129
f 147 23 71
f 147 71 148
f 90 91 30
f 90 30 2
f 86 2 31
f 86 31 87
f 25 74 76
f 25 76 75
f 97 98 34
f 97 34 5
f 159 27 79
f 159 79 160
f 171 161 26
f 171 26 82
f 129 17 59
f 129 59 130
f 162 163 27
f 162 27 159
f 23 70 72
f 23 72 71
f 123 15 55
f 123 55 124
f 6 99 100
f 6 100 45
f 149 150 147
f 149 147 22
f 115 116 46
f 115 46 11
f 119 120 117
f 119 117 12
f 170 171 82
f 170 82 29
f 16 129 130
f 16 130 65
f 9 42 44
f 9 44 43
f 161 162 159
f 161 159 26
f 143 144 141
f 143 141 20
f 96 97 5
f 96 5 93
f 15 54 56
f 15 56 55
f 74 22 77
f 74 77 76
f 10 111 112
f 10 112 53
f 12 117 118
f 12 118 57
f 141 21 67
f 141 67 142
f 30 3 33
f 30 33 32
f 101 102 99
f 101 99 6
f 46 8 49
f 46 49 48
f 21 66 68
f 21 68 67
f 163 164 78
f 163 78 27
f 128 119 12
f 128 12 54
f 14 123 124
f 14 124 61
f 99 7 39
f 99 39 100
f 134 125 14
f 134 14 58
# 220 faces, 0 coords texture

# End of File
