####
#
# OBJ File Generated by Meshlab
#
####
# Object oloid50.obj
#
# Vertices: 27
# Faces: 50
#
####
v -0.5838877 -0.1274272 0.0058988
v -0.6000354 -0.3997903 0.0014140
v -0.4775749 -0.0337176 -0.1145197
v -0.2862285 0.2389593 0.2662278
v -0.4562541 -0.6961855 0.0009956
v -0.2304977 -0.8562196 -0.0009381
v -0.5022104 0.0340667 0.0051523
v -0.1495482 -0.2857074 -0.3272561
v -0.2381938 -0.0799656 0.3532451
v -0.2052026 -0.1457012 -0.3560367
v -0.0002769 0.3126915 0.6037506
v 0.0009039 0.2518976 -0.6041577
v 0.0435738 -0.8774790 -0.0197735
v 0.0065937 0.7265251 0.4178318
v -0.0114355 0.7497686 -0.3761207
v 0.0082007 0.0320242 -0.5358828
v 0.0028893 0.5676953 -0.5469393
v -0.0000914 0.8726456 -0.1838023
v 0.0003152 0.8926402 0.1352527
v 0.0038553 -0.8895169 0.0111762
v 0.0017079 0.5772410 0.5407324
v 0.4019957 -0.0423972 -0.2073817
v 0.3014263 -0.8204105 -0.0012468
v 0.0028801 0.0786321 0.5615624
v 0.6004161 -0.2598807 0.0011306
v 0.5262271 -0.6287165 0.0007210
v 0.5575098 -0.0676932 0.0025097
# 27 vertices, 0 vertices normals

f 5 2 10
f 1 9 11
f 2 9 1
f 1 3 2
f 1 11 4
f 1 7 3
f 8 5 10
f 10 2 3
f 8 6 5
f 9 2 5
f 24 9 5
f 1 4 7
f 12 10 3
f 24 5 6
f 3 15 17
f 3 7 15
f 7 18 15
f 11 21 4
f 24 11 9
f 13 6 8
f 6 20 24
f 7 19 18
f 13 20 6
f 12 3 17
f 8 16 13
f 21 14 4
f 4 14 7
f 10 16 8
f 16 10 12
f 7 14 19
f 17 15 18
f 27 17 18
f 11 27 21
f 27 18 19
f 27 11 25
f 23 20 13
f 12 17 22
f 23 24 20
f 16 23 13
f 12 22 16
f 17 27 22
f 27 14 21
f 25 11 24
f 27 19 14
f 23 26 24
f 26 23 16
f 26 16 22
f 24 26 25
f 22 25 26
f 22 27 25
# 50 faces, 0 coords texture

# End of File
