####
#
# OBJ File Generated by Meshlab
#
####
# Object oloid100.obj
#
# Vertices: 52
# Faces: 100
#
####
v -0.5737757 -0.4946356 0.0027680
v -0.5982916 -0.2467338 0.0010992
v -0.3714228 -0.0603647 -0.2324277
v -0.4273910 -0.7053466 -0.0174608
v -0.4397700 0.0575493 -0.1232063
v -0.2716657 -0.2062137 0.2964968
v -0.0108451 0.8750265 0.1079995
v -0.2532791 0.0075569 0.3488647
v -0.5776152 -0.1306856 0.0010261
v -0.5134524 0.0133597 0.0036759
v -0.1973064 0.0002738 -0.3983387
v -0.3521347 0.2197180 0.1642738
v -0.0141171 0.8116630 0.2774591
v -0.3552507 -0.7687052 0.0095090
v -0.1481649 -0.2360325 0.3484484
v -0.1321846 -0.2452797 -0.3545414
v -0.1989099 -0.8595067 -0.0006529
v 0.0000377 0.7284155 0.4193232
v -0.2396618 0.3671477 -0.2606397
v 0.0005904 0.0581314 -0.5506372
v -0.1347120 -0.5582928 0.1850963
v 0.0023834 0.1448898 0.5819333
v -0.0758599 -0.5135190 -0.2219482
v -0.0019460 0.5462675 0.5474859
v -0.0121579 0.8840751 -0.0266059
v 0.1159989 -0.8889753 -0.0015687
v 0.0014578 -0.1741519 0.4210917
v 0.0014298 0.5242077 -0.5558358
v -0.0007024 0.3949048 -0.5962354
v 0.0014588 0.7279412 -0.4192131
v 0.0099371 0.8922925 -0.0049677
v 0.0145901 -0.8825911 0.0122165
v 0.0460148 -0.1435010 -0.4332360
v 0.0117928 0.7912297 0.3159703
v 0.0007754 0.2105227 -0.5962921
v 0.2319289 0.1782125 -0.3610294
v 0.0030278 0.0234585 0.5315561
v 0.2767384 0.3090369 -0.2367502
v 0.0019669 0.8413209 -0.2513035
v 0.0922312 0.1235681 0.5100954
v 0.1614659 -0.3807279 0.2762595
v 0.1804587 -0.1091929 -0.3833739
v 0.2887206 0.2820430 0.2322365
v 0.0009122 0.4114692 0.5926855
v 0.3763759 -0.1785413 0.2195719
v 0.3602880 -0.7836806 -0.0006065
v 0.5224006 -0.0026762 0.0015716
v 0.2852240 -0.3071478 0.2476283
v 0.4895249 -0.6510215 -0.0011446
v 0.6002188 -0.2744431 -0.0021940
v 0.5872506 -0.1601310 0.0020627
v 0.5819854 -0.4556296 -0.0022497
# 52 vertices, 0 vertices normals

f 1 6 2
f 1 2 3
f 3 2 9
f 2 6 8
f 9 5 3
f 9 10 5
f 1 4 14
f 3 11 1
f 9 2 8
f 1 14 6
f 16 4 1
f 16 1 11
f 10 9 12
f 10 12 7
f 7 12 13
f 5 10 19
f 4 17 14
f 15 6 14
f 9 8 44
f 13 12 18
f 23 17 4
f 20 16 11
f 29 3 5
f 21 14 17
f 15 14 21
f 23 4 16
f 24 9 44
f 24 12 9
f 22 8 15
f 8 6 15
f 19 29 5
f 12 24 18
f 15 21 27
f 11 3 29
f 21 17 32
f 23 26 17
f 26 32 17
f 19 28 29
f 10 7 25
f 27 21 32
f 15 27 37
f 37 22 15
f 20 11 35
f 23 16 33
f 35 11 29
f 19 30 28
f 19 39 30
f 10 39 19
f 16 20 33
f 8 22 44
f 39 10 25
f 13 18 34
f 34 7 13
f 34 31 7
f 31 39 25
f 31 25 7
f 22 37 40
f 33 26 23
f 42 33 20
f 28 30 38
f 27 32 41
f 44 22 40
f 47 31 34
f 36 35 29
f 43 18 24
f 38 30 39
f 26 41 32
f 35 42 20
f 43 24 44
f 26 33 46
f 28 36 29
f 41 37 27
f 40 37 48
f 34 18 43
f 33 49 46
f 48 37 41
f 40 48 45
f 35 36 50
f 38 36 28
f 47 38 39
f 31 47 39
f 42 49 33
f 35 50 42
f 41 26 46
f 50 52 42
f 44 40 51
f 51 43 44
f 51 40 45
f 47 34 43
f 42 52 49
f 50 36 51
f 51 36 38
f 41 46 48
f 48 49 45
f 47 43 51
f 48 46 49
f 51 38 47
f 49 52 45
f 51 45 50
f 52 50 45
# 100 faces, 0 coords texture

# End of File
