####
#
# OBJ File Generated by Meshlab
#
####
# Object oloid500.obj
#
# Vertices: 252
# Faces: 500
#
####
v -0.5833821 -0.3907073 0.0108195
v -0.5707849 -0.4421300 -0.0109918
v -0.5918961 -0.2836711 -0.0109505
v -0.5288424 -0.3422739 -0.0635186
v -0.5908844 -0.2564688 0.0108011
v -0.5824218 -0.1866203 0.0109024
v -0.5315736 -0.5452147 -0.0114387
v -0.5774087 -0.1675188 -0.0125676
v -0.5497705 -0.0725365 -0.0120810
v -0.4818112 -0.4377952 0.0781814
v -0.4546787 -0.1074696 -0.1456487
v -0.5496768 -0.0732865 0.0140975
v -0.5361215 -0.5387011 0.0114099
v -0.5003914 -0.2571639 0.0988469
v -0.4919575 -0.2288152 -0.1092891
v -0.4824017 -0.6303074 -0.0112500
v -0.4323419 -0.4794124 -0.0969466
v -0.4029799 -0.1080944 0.1975598
v -0.4541096 0.0487253 -0.0978506
v -0.4891498 0.0485168 -0.0211576
v -0.4825801 -0.6303173 0.0115706
v -0.3681687 -0.2212250 0.2161175
v -0.5097952 0.0138372 0.0163824
v -0.4842207 -0.4262644 -0.0790153
v -0.4220161 -0.7036632 0.0110186
v -0.4426901 -0.6793680 -0.0119371
v -0.3937688 -0.6097579 0.0674413
v -0.3435880 -0.0797437 -0.2569834
v -0.4837285 -0.0608279 0.1023642
v -0.3547009 -0.7627028 0.0110741
v -0.4388476 -0.0082197 -0.1465071
v -0.4472179 0.1094071 0.0619076
v -0.4100964 0.1942251 -0.0065125
v -0.3623843 -0.7574835 -0.0110075
v -0.3504843 -0.3944298 0.1765697
v -0.3358102 0.2809824 0.1263829
v -0.4044039 0.1610093 -0.1035183
v -0.3098936 0.3627057 0.0359651
v -0.3458899 -0.0054329 0.2538670
v -0.3778533 0.0839239 0.1972121
v -0.3735691 0.1476006 -0.1741689
v -0.2967468 -0.4496897 0.1834124
v -0.3217282 -0.4724933 -0.1627436
v -0.2653027 0.1799260 0.3179140
v -0.2932037 0.3731198 -0.1055390
v -0.3111439 0.3607478 -0.0309183
v -0.3365292 -0.2520189 -0.2330993
v -0.3037650 0.0742669 -0.2926477
v -0.3187075 0.2368259 0.2110251
v -0.2717172 0.3603303 -0.1938501
v -0.2572135 0.4326284 0.1185021
v -0.2797652 -0.8107083 0.0109248
v -0.2574382 -0.6796515 -0.0868471
v -0.2860178 -0.6541789 0.0908294
v -0.2188250 -0.4153578 0.2337379
v -0.3153921 -0.5739908 -0.1192003
v -0.2830661 -0.1424470 -0.2986458
v -0.2718768 -0.8146694 -0.0111535
v -0.1789165 -0.8544419 0.0108763
v -0.2640945 -0.3112765 -0.2585983
v -0.1997111 0.4576463 0.2533334
v -0.1732213 -0.7359807 -0.0779453
v -0.1821771 -0.5632273 0.1700672
v -0.1707656 -0.2343175 -0.3395136
v -0.2487954 -0.2101487 0.3043956
v -0.2329824 0.0398768 -0.3673853
v -0.2943648 0.1774766 -0.2786131
v -0.1553082 0.6303102 0.0356517
v -0.1674432 -0.8574189 -0.0111214
v -0.1486156 -0.1816979 0.3717187
v -0.2020265 -0.0204542 0.3880585
v -0.1742831 0.1444522 -0.4273087
v -0.2387295 0.3135711 -0.2974905
v -0.1622288 0.6130574 -0.0727562
v -0.1827295 -0.5200984 -0.1931355
v -0.1738038 -0.3898196 -0.2635901
v -0.1250094 0.1301822 0.4747014
v -0.0990794 -0.1927785 -0.3886095
v -0.1510943 -0.0905568 -0.4063129
v -0.0790108 0.1498160 -0.5209534
v -0.1072411 0.4812880 -0.4136786
v -0.1481538 0.4152452 0.3848554
v -0.1869034 0.4592599 -0.2799520
v -0.0199497 -0.8820393 0.0121144
v -0.1035938 -0.4109461 -0.2713469
v -0.0529943 -0.0425904 -0.4797945
v -0.1460417 0.0488526 -0.4458396
v -0.1451686 0.2328905 0.4505695
v -0.0821419 0.6164287 -0.3528346
v -0.1050945 -0.6650208 0.1290468
v -0.0875212 -0.4048639 0.2782752
v -0.0952863 -0.2238902 0.3736115
v -0.0857972 -0.0014211 0.4785434
v -0.0639092 0.0264601 -0.5015474
v -0.1447301 0.2465535 -0.4493959
v -0.1276153 0.3375805 -0.4504073
v -0.0113746 0.5241581 -0.5424638
v -0.0821048 0.5730032 0.3921822
v -0.1167736 0.6507393 -0.2072647
v -0.1012089 -0.7099288 -0.1045996
v -0.0304396 -0.5227340 -0.2174023
v -0.0687266 -0.2787924 -0.3522176
v -0.0232916 -0.1959875 0.4056923
v -0.1423101 0.3253249 0.4333221
v -0.0119152 0.5943340 0.5034864
v -0.0108215 0.6428766 -0.4732921
v -0.1130193 0.6724330 0.1730878
v -0.0115649 0.8833193 0.0148027
v -0.0052141 -0.5192606 0.2203067
v -0.0161846 -0.1404590 -0.4388553
v -0.0102949 0.1327289 0.5695734
v -0.0108892 0.5393957 0.5336085
v -0.0115576 0.8024746 0.2945506
v -0.0114162 0.8719776 -0.1107270
v 0.0067218 -0.8821263 -0.0117421
v -0.0104305 0.0118753 -0.5245755
v -0.0121862 0.1508416 -0.5757360
v -0.0111547 0.2909882 -0.5911619
v -0.0089294 0.2977104 0.5912149
v -0.0111787 0.4260920 0.5727890
v -0.0109566 0.4006318 -0.5802606
v -0.0114000 0.6929477 0.4314193
v -0.0113693 0.7519396 0.3680772
v -0.0112345 0.7507824 -0.3706706
v -0.0110067 0.8350987 -0.2338743
v -0.0114212 0.8555282 0.1768014
v 0.0391572 -0.4023314 0.2864538
v 0.0187104 -0.0666697 -0.4795998
v -0.0016466 0.0107951 0.5247346
v 0.0101828 0.0715939 -0.5511875
v 0.0114187 0.1313784 0.5686329
v 0.0117097 0.2336689 0.5866534
v 0.0122274 0.2651365 -0.5898389
v 0.0113043 0.5514727 -0.5298642
v 0.0113773 0.5411411 0.5318397
v 0.0114938 0.6264223 0.4830380
v 0.0109534 0.7312157 -0.3932891
v 0.0111182 0.8705459 -0.1234719
v 0.0113931 0.3329615 0.5875471
v 0.0115179 0.4398972 0.5695286
v 0.1215137 0.3568848 0.4522527
v 0.0113796 0.3835401 -0.5840350
v 0.1007916 0.4057909 -0.4630496
v 0.0111541 0.6365554 -0.4771497
v 0.0112077 0.6899536 0.4330752
v 0.0112873 0.8231067 0.2572080
v 0.0121755 0.8344842 -0.2294081
v 0.0117618 0.8700135 0.1218461
v 0.0110779 0.8822299 -0.0244677
v -0.0000872 -0.7487879 -0.0884255
v 0.0268268 -0.7273830 0.1007341
v 0.0658504 -0.4669185 -0.2470452
v 0.0215772 -0.2782070 -0.3596607
v 0.0217196 -0.1394269 0.4378621
v 0.0135170 0.1622158 -0.5759088
v 0.1273748 0.6066714 0.2525094
v 0.1433827 -0.8651801 -0.0109215
v 0.1098418 -0.6377683 -0.1453301
v 0.0963002 -0.2867613 -0.3416253
v 0.0711347 -0.0673948 0.4616359
v 0.0910954 -0.0018002 0.4747398
v 0.1082951 0.1576267 -0.4929660
v 0.1270586 0.1582432 0.4746000
v 0.1165997 0.5766935 -0.3171875
v 0.0119773 0.7875707 -0.3160942
v 0.0118499 0.7561818 0.3610969
v 0.1512570 0.6390766 0.0385579
v 0.1172547 -0.5798905 0.1752916
v 0.0986997 -0.0154305 -0.4670126
v 0.1001977 0.2643355 0.4967967
v 0.1170527 -0.8705153 0.0108300
v 0.0925530 -0.3520916 0.3069716
v 0.0801720 -0.1100319 -0.4362366
v 0.1528813 0.0422497 -0.4394657
v 0.1649889 0.1996167 -0.4335863
v 0.0729718 0.4904453 0.4648427
v 0.2250538 0.3661656 0.2872036
v 0.1176424 0.5350815 0.3547085
v 0.1346906 0.6384629 0.1593198
v 0.1285473 -0.2655095 0.3422577
v 0.1602827 -0.3014396 -0.3121723
v 0.1155899 0.4912128 -0.3932015
v 0.1175979 0.6498428 -0.2073893
v 0.2115101 -0.2321538 -0.3189385
v 0.1320914 0.0509856 0.4583923
v 0.2375544 0.3030022 -0.3057067
v 0.2270289 0.4436647 0.2010918
v 0.2178245 -0.2134141 0.3221240
v 0.2037350 0.0124143 0.3907564
v 0.2174238 -0.6528558 0.1129683
v 0.2433329 0.0942306 0.3559199
v 0.2557723 -0.8215780 -0.0114190
v 0.2012250 -0.8464253 0.0108903
v 0.2039232 -0.5391622 -0.1776751
v 0.2532654 0.1959261 -0.3274119
v 0.2032957 0.4181569 -0.2853322
v 0.1722454 0.5965784 -0.0767624
v 0.2987491 -0.6922324 0.0668249
v 0.2183930 -0.4754122 0.2049715
v 0.1777660 -0.1387043 -0.3737812
v 0.2064084 -0.0710762 -0.3742243
v 0.2232759 0.4365226 -0.2206467
v 0.3219780 -0.7875535 0.0107036
v 0.2868020 -0.4341998 0.1951314
v 0.2590453 -0.3577567 -0.2417325
v 0.2978275 -0.2391613 -0.2624229
v 0.2668531 0.0176603 -0.3338797
v 0.3433261 0.2284891 -0.1683295
v 0.3509016 0.1981047 0.1798033
v 0.2527719 0.4429777 -0.1172397
v 0.3325034 -0.7782148 -0.0113293
v 0.2594173 0.1897876 0.3212904
v 0.2843848 0.4067428 0.0363206
v 0.2790095 -0.5206252 -0.1594531
v 0.2699591 -0.1214883 0.3128711
v 0.3458239 -0.0718572 0.2549625
v 0.3474739 0.0385557 0.2470870
v 0.3524036 0.1652462 -0.1978658
v 0.3464998 0.2770938 -0.1027420
v 0.4320940 -0.6925235 0.0118864
v 0.3984184 -0.2054524 -0.1946903
v 0.3361803 -0.0795997 -0.2639013
v 0.3640563 0.1163009 0.2033425
v 0.3358832 0.3178251 -0.0268423
v 0.3622861 0.2566784 0.0829024
v 0.4189449 -0.3763589 -0.1398832
v 0.3523486 0.0209672 -0.2437007
v 0.4469044 0.1223118 -0.0328099
v 0.3571680 -0.4130909 0.1660486
v 0.3974819 -0.5122654 -0.1064933
v 0.3938887 0.0697975 -0.1804615
v 0.4645829 0.0689366 0.0638772
v 0.4595833 0.0455840 -0.0911339
v 0.4496208 -0.6753682 -0.0119913
v 0.3933411 -0.2955312 0.1790157
v 0.4965880 -0.1819400 -0.1054767
v 0.4734076 -0.2256787 0.1264222
v 0.4957592 -0.0317972 0.0784101
v 0.4949124 0.0395937 -0.0188757
v 0.5399120 -0.5286707 -0.0115041
v 0.5094771 -0.5919272 0.0106407
v 0.5082403 -0.0658829 -0.0727985
v 0.5538687 -0.0788279 -0.0102984
v 0.5487779 -0.0691351 0.0121775
v 0.5032474 0.0277736 0.0107617
v 0.5756330 -0.4177535 -0.0112450
v 0.5674690 -0.4555381 0.0112657
v 0.4617064 -0.1126475 0.1379810
v 0.5880955 -0.3243167 -0.0115169
v 0.5872896 -0.2352796 -0.0112735
v 0.5900542 -0.3242677 0.0108235
v 0.5807779 -0.1804591 0.0107488
# 252 vertices, 0 vertices normals

f 5 3 1
f 2 3 4
f 3 2 1
f 8 3 5
f 6 8 5
f 8 6 9
f 7 2 24
f 2 7 13
f 2 13 1
f 10 1 13
f 4 24 2
f 1 14 5
f 4 3 15
f 15 3 8
f 6 12 9
f 29 12 6
f 15 8 11
f 8 9 11
f 9 23 20
f 12 23 9
f 21 13 16
f 7 16 13
f 24 17 7
f 6 14 18
f 5 14 6
f 9 31 11
f 17 16 7
f 21 10 13
f 10 14 1
f 9 19 31
f 9 20 19
f 16 26 21
f 21 26 25
f 22 14 10
f 28 15 11
f 12 29 40
f 12 40 23
f 26 16 17
f 47 24 4
f 15 47 4
f 29 6 39
f 20 37 19
f 25 26 34
f 21 25 27
f 43 26 17
f 21 35 10
f 47 15 28
f 14 22 18
f 18 39 6
f 37 41 19
f 40 32 23
f 33 20 23
f 23 32 33
f 27 25 30
f 56 26 43
f 35 21 27
f 60 17 24
f 60 24 47
f 39 40 29
f 32 40 49
f 30 25 34
f 56 34 26
f 22 10 35
f 28 57 47
f 28 11 31
f 31 41 67
f 19 41 31
f 36 32 49
f 20 33 45
f 38 33 32
f 35 27 42
f 43 17 60
f 28 31 48
f 48 31 67
f 45 37 20
f 33 46 45
f 33 38 46
f 32 36 38
f 38 36 51
f 54 27 30
f 42 27 54
f 65 22 35
f 22 71 18
f 37 50 41
f 52 30 34
f 53 58 34
f 71 39 18
f 44 40 39
f 41 73 67
f 50 73 41
f 37 45 50
f 34 58 52
f 30 52 54
f 53 34 56
f 55 42 54
f 66 28 48
f 40 44 49
f 50 83 73
f 61 36 49
f 65 35 42
f 65 71 22
f 44 39 88
f 51 36 61
f 46 74 45
f 58 59 52
f 62 58 53
f 63 54 52
f 76 43 60
f 65 42 55
f 64 60 47
f 71 77 39
f 95 48 67
f 62 69 58
f 58 69 59
f 63 52 59
f 55 54 63
f 75 53 56
f 76 75 43
f 75 56 43
f 70 65 55
f 57 64 47
f 79 64 57
f 57 28 66
f 66 48 72
f 72 48 95
f 104 44 88
f 104 49 44
f 46 38 68
f 74 46 68
f 68 38 51
f 53 75 62
f 57 66 87
f 87 66 72
f 88 39 77
f 49 104 82
f 99 50 45
f 59 90 63
f 60 64 76
f 93 71 70
f 71 65 70
f 57 87 79
f 67 96 95
f 73 96 67
f 49 82 61
f 61 107 51
f 45 74 99
f 107 68 51
f 75 100 62
f 55 63 91
f 92 55 91
f 92 70 55
f 80 72 95
f 81 96 73
f 83 81 73
f 99 83 50
f 85 100 75
f 76 85 75
f 85 76 64
f 78 85 64
f 78 64 79
f 93 77 71
f 72 80 87
f 90 59 84
f 100 69 62
f 91 63 90
f 78 102 85
f 79 87 94
f 119 88 77
f 112 105 82
f 61 82 98
f 99 89 83
f 61 113 107
f 100 115 69
f 69 84 59
f 115 84 69
f 101 100 85
f 86 78 79
f 94 86 79
f 80 94 87
f 81 97 96
f 82 104 112
f 82 105 98
f 83 89 81
f 98 123 61
f 61 123 113
f 74 68 108
f 115 100 150
f 84 151 90
f 109 90 151
f 100 101 150
f 102 101 85
f 92 91 103
f 78 110 102
f 129 92 103
f 70 92 129
f 86 110 78
f 129 93 70
f 94 80 117
f 77 93 111
f 107 113 126
f 74 114 99
f 126 68 107
f 114 74 108
f 90 109 91
f 101 102 153
f 117 80 118
f 95 118 80
f 95 96 118
f 118 96 121
f 97 121 96
f 81 106 97
f 81 89 106
f 98 105 122
f 89 125 124
f 99 125 89
f 68 126 108
f 103 91 109
f 102 110 153
f 86 116 110
f 116 86 94
f 117 116 94
f 111 93 129
f 77 111 119
f 88 119 120
f 120 104 88
f 104 120 112
f 89 124 106
f 98 122 123
f 125 99 114
f 150 101 152
f 103 109 127
f 129 103 154
f 110 116 128
f 130 128 116
f 130 116 117
f 129 131 111
f 117 155 130
f 132 111 131
f 117 133 155
f 132 119 111
f 118 133 117
f 139 119 132
f 118 142 133
f 118 121 142
f 140 119 139
f 140 120 119
f 142 121 97
f 97 134 142
f 140 112 120
f 112 140 135
f 106 134 97
f 106 144 134
f 135 105 112
f 136 105 135
f 136 122 105
f 145 122 136
f 137 144 106
f 137 106 124
f 145 166 122
f 123 122 166
f 165 137 124
f 166 146 123
f 165 124 125
f 147 165 125
f 113 123 146
f 146 126 113
f 138 147 125
f 146 148 126
f 138 125 114
f 149 138 114
f 108 149 114
f 148 108 126
f 148 149 108
f 153 152 101
f 154 103 127
f 153 110 128
f 129 154 160
f 131 129 161
f 133 162 155
f 140 139 141
f 134 143 142
f 176 136 135
f 144 137 164
f 157 150 158
f 152 158 150
f 168 127 109
f 169 173 128
f 129 160 161
f 130 169 128
f 170 139 132
f 141 139 170
f 141 176 140
f 176 135 140
f 134 144 182
f 145 136 176
f 137 165 164
f 146 166 156
f 165 147 183
f 148 146 156
f 167 149 148
f 115 171 84
f 115 157 171
f 171 151 84
f 150 157 115
f 109 151 168
f 172 127 168
f 153 159 152
f 154 127 172
f 173 153 128
f 173 159 153
f 163 132 131
f 170 132 163
f 143 134 182
f 145 176 178
f 144 164 182
f 156 166 178
f 166 145 178
f 167 148 179
f 179 148 156
f 197 147 138
f 138 149 197
f 197 149 167
f 180 154 172
f 180 160 154
f 161 185 131
f 131 185 163
f 175 162 133
f 177 178 176
f 164 165 183
f 197 183 147
f 171 168 151
f 173 181 159
f 174 169 130
f 155 174 130
f 155 162 174
f 175 133 142
f 177 176 141
f 157 193 171
f 158 152 194
f 159 194 152
f 173 200 181
f 188 160 180
f 200 173 169
f 201 200 169
f 169 174 201
f 143 175 142
f 213 167 179
f 168 171 193
f 168 190 199
f 168 199 172
f 199 180 172
f 200 184 181
f 185 161 189
f 212 141 170
f 182 186 143
f 196 182 164
f 187 156 178
f 202 164 183
f 179 156 187
f 190 168 193
f 192 157 158
f 194 192 158
f 194 159 181
f 161 160 188
f 185 189 163
f 212 163 191
f 212 170 163
f 175 143 195
f 186 182 196
f 196 164 202
f 187 178 177
f 214 194 181
f 181 205 214
f 180 199 204
f 188 180 204
f 161 188 215
f 161 215 189
f 191 163 189
f 162 175 207
f 186 195 143
f 177 141 212
f 210 202 183
f 197 210 183
f 225 213 179
f 193 157 192
f 184 205 181
f 174 207 201
f 174 162 207
f 225 179 187
f 192 203 193
f 190 193 203
f 194 211 192
f 190 198 199
f 216 189 215
f 191 189 216
f 175 227 207
f 195 227 175
f 203 198 190
f 184 206 205
f 200 206 184
f 200 201 206
f 209 177 212
f 208 186 196
f 202 208 196
f 219 208 202
f 219 202 210
f 210 197 224
f 224 167 213
f 224 197 167
f 192 211 203
f 199 198 204
f 230 214 205
f 204 229 188
f 188 235 215
f 201 222 206
f 222 221 206
f 207 222 201
f 207 227 222
f 212 191 217
f 223 209 212
f 218 186 208
f 177 209 187
f 219 210 224
f 214 211 194
f 229 235 188
f 217 191 216
f 218 195 186
f 225 187 209
f 205 226 230
f 206 226 205
f 227 195 231
f 231 195 218
f 198 203 220
f 214 234 211
f 220 204 198
f 230 234 214
f 204 220 229
f 226 206 221
f 237 216 215
f 217 216 248
f 212 217 223
f 211 234 203
f 237 215 235
f 232 225 209
f 228 219 224
f 228 224 213
f 220 203 234
f 229 241 235
f 242 227 231
f 232 209 223
f 231 208 233
f 231 218 208
f 208 219 228
f 213 225 245
f 229 220 241
f 222 236 221
f 248 216 237
f 222 227 236
f 223 248 238
f 223 217 248
f 232 223 238
f 233 208 228
f 245 228 213
f 220 234 241
f 239 233 228
f 239 228 245
f 232 245 225
f 227 242 236
f 233 242 231
f 241 247 235
f 221 246 226
f 247 237 235
f 246 221 249
f 249 221 236
f 233 243 242
f 243 233 239
f 244 232 238
f 241 234 240
f 230 240 234
f 226 240 230
f 240 226 246
f 239 245 243
f 245 232 244
f 240 247 241
f 236 250 249
f 236 242 250
f 243 245 244
f 240 246 247
f 248 237 252
f 252 238 248
f 243 244 252
f 252 244 238
f 246 251 247
f 246 249 251
f 251 237 247
f 250 251 249
f 250 252 251
f 251 252 237
f 242 243 250
f 250 243 252
# 500 faces, 0 coords texture

# End of File
