####
#
# OBJ File Generated by Meshlab
#
####
# Object rippley400.obj
#
# Vertices: 202
# Faces: 400
#
####
v -1.0939168 -0.1265422 0.0764290
v -1.0433781 0.2930790 -0.2180199
v -1.0596813 -0.2341008 -0.2564661
v -1.0445265 0.2784392 0.0146877
v -0.9561377 -0.5796071 0.0066202
v -0.9675195 -0.3735540 0.4394753
v -1.0264567 0.1885487 -0.4077141
v -0.8312376 0.1303633 0.6649521
v -0.8822700 0.1436068 0.1351864
v -1.0252326 0.0382539 0.4389163
v -1.0697712 -0.0332100 0.0389509
v -0.8005508 -0.3384902 -0.2604511
v -0.8511631 -0.1973427 0.2346570
v -0.7504563 0.2961838 -0.4361398
v -0.9554815 0.4661545 0.3084536
v -0.8028066 -0.6516587 -0.3709977
v -0.9822075 -0.2432367 -0.4738587
v -0.8363174 0.4638313 -0.4744532
v -0.8630822 0.7219777 -0.0442893
v -0.7884739 0.5139898 -0.5370873
v -0.7355519 0.2184252 0.5338331
v -0.7767861 0.4512127 -0.0014462
v -0.7869323 -0.2370915 0.7028925
v -0.7529675 -0.3348042 -0.5461964
v -0.6697237 -0.8550176 0.2054455
v -0.7241307 -0.6880575 0.4027036
v -0.6796721 -0.4709650 0.3814354
v -0.5267448 0.4793679 0.6335875
v -0.6761732 -0.5943821 0.0416864
v -0.6025267 -0.5881409 -0.6480349
v -0.5176340 -0.0216273 0.8225029
v -0.5106742 0.1280712 -0.8123009
v -0.6322646 -0.5471071 -0.6727426
v -0.7757416 0.0431508 -0.7373335
v -0.8208928 -0.0287186 -0.4153022
v -0.7508352 -0.1042476 0.5496012
v -0.7211258 0.8105719 0.2274093
v -0.4621632 -0.0978417 0.9121761
v -0.6715062 0.4215289 0.7271982
v -0.6465556 -0.5748649 0.6610254
v -0.5689827 0.5812713 -0.4230995
v -0.5397794 0.7083688 -0.0590426
v -0.5707021 0.8120464 -0.4446477
v -0.4867513 0.9487290 -0.2713935
v -0.6696578 -0.8700806 -0.0666124
v -0.5647899 -0.2309977 -0.8525103
v -0.5609903 0.7401608 0.5840719
v -0.4293552 -0.4681789 -0.8283860
v -0.5053982 0.9883300 -0.0798480
v -0.5544870 0.2536164 -0.8503389
v -0.3144015 -0.0880996 -0.9505637
v -0.4168861 0.4670922 -0.8439957
v -0.5597883 -0.6415258 -0.3288435
v -0.3906520 0.7239637 0.4047690
v -0.2926201 0.1032926 0.9610184
v -0.5121127 -0.9386570 -0.2792060
v -0.4907410 -0.2485467 0.7998689
v -0.2817013 -0.4546975 -0.8192610
v -0.3737316 0.6015265 0.7891343
v -0.3826549 -0.8084316 0.0591842
v -0.4377925 -0.6395249 0.5107809
v -0.3496618 0.0154001 -0.9479249
v -0.4220830 0.3367133 -0.8010359
v -0.2933381 -0.5588516 0.8382053
v -0.3840238 -0.9306870 0.4546031
v -0.3909796 -0.7590732 -0.6188729
v -0.3059053 0.6042890 -0.7074875
v -0.4481241 -0.3396178 0.8737630
v -0.3390549 -0.8184621 -0.6009454
v -0.3772257 1.0503688 0.2138819
v -0.1718714 0.1696609 0.9886978
v -0.3064236 0.7112031 -0.5268899
v -0.2856608 -1.0472746 0.0215996
v -0.4224189 -0.2856055 -0.8286945
v -0.1887289 0.9302569 0.5475913
v -0.2680841 -0.3036310 0.8996578
v -0.1576118 0.4376361 0.8672423
v -0.1959872 -0.7704405 -0.4744875
v -0.1229201 -0.6284904 -0.7044514
v -0.2543488 0.8002307 -0.4198710
v -0.2159843 0.8784393 -0.0324365
v -0.1425156 -1.0597060 -0.3012367
v -0.1404316 0.8982646 0.0917470
v -0.1968123 -0.5786146 -0.8496341
v -0.0832390 0.5803158 0.8617901
v -0.0465131 -0.1654404 0.9917158
v -0.1262168 -0.8202080 0.4233511
v -0.1732961 0.9676608 -0.5136085
v -0.0991814 -0.1758847 -0.9889916
v -0.1938622 -1.0824976 0.0190669
v -0.1274778 -0.5357799 0.8206427
v 0.0738028 0.8393556 -0.3531640
v -0.0523913 0.8033300 0.4340009
v -0.1955978 0.6935815 -0.7866259
v 0.0413361 -0.2543848 -0.9799758
v -0.0191610 0.6224400 -0.7276936
v 0.0128976 -0.9723830 0.4965534
v 0.0038066 -0.7768763 0.7175934
v 0.0974417 1.0904112 0.1903416
v 0.0141362 -0.6894313 -0.7862606
v 0.0828656 -0.0000325 -1.0146244
v -0.0373779 0.0905822 -1.0221969
v 0.0346803 0.2799038 0.9659256
v -0.0596243 1.1189177 -0.1470463
v -0.0098216 -0.9780929 -0.4910095
v 0.0968834 0.6728981 -0.8086250
v 0.0715038 -0.8617867 -0.2771537
v -0.0512107 -0.0260398 1.0118114
v 0.1523956 -0.6676676 -0.6612878
v 0.0540083 -0.2595497 0.9766989
v 0.1317669 0.2870802 0.9629009
v 0.2437154 -0.4163005 -0.9148518
v 0.1645028 -1.0275614 0.2958275
v 0.0354697 -0.8829471 -0.1163239
v 0.2101539 -0.7681161 0.4545089
v 0.0050364 -0.4254511 0.9279959
v 0.0359656 0.5556384 0.7961035
v 0.1384558 -1.0860128 0.1414909
v 0.1831774 0.9270896 0.5636889
v 0.2528133 0.2550679 -0.9427487
v 0.3313798 -0.6907096 -0.7420720
v 0.1955254 0.6272980 0.8063508
v 0.2069862 0.9255757 -0.5341524
v 0.2730546 -0.6987078 0.7578444
v 0.2647648 0.8218303 0.3002372
v 0.3365397 0.5552328 -0.8303095
v 0.2685385 0.5598488 0.7159023
v 0.3408338 -0.4138997 -0.8129916
v 0.1978951 0.5405723 -0.7798494
v 0.3117298 -1.0473838 -0.1058580
v 0.2175571 0.1304918 0.9790896
v 0.2779037 -0.9994292 -0.3245372
v 0.3786997 -0.5502288 0.6844280
v 0.3369441 -0.8170291 0.0857909
v 0.3836733 -0.9008475 -0.4533462
v 0.3388527 -0.3601131 0.9046407
v 0.4767887 0.9289986 0.3182975
v 0.5017443 -0.5416855 0.7401832
v 0.5009677 -0.2465672 -0.7931722
v 0.3183389 1.0222387 -0.2271429
v 0.4370511 -0.7356508 -0.3244144
v 0.5967168 0.7897189 -0.4588468
v 0.4458401 0.5290875 0.8091784
v 0.5765360 -0.5323519 0.7166720
v 0.4809287 0.9904272 -0.0160357
v 0.4588537 -0.3416396 -0.8737354
v 0.6283639 -0.1474208 -0.8285253
v 0.4517414 0.3678335 0.7655835
v 0.5128372 0.1994842 -0.7979771
v 0.4661148 -0.2009514 0.8989447
v 0.4049282 0.7441352 -0.3615347
v 0.4418707 -0.9019150 0.4184806
v 0.2401794 -0.1287167 0.9678711
v 0.6360500 0.1168245 -0.8295314
v 0.3997035 0.0866241 0.9084646
v 0.6088411 -0.8857994 0.2046982
v 0.5616400 0.8604673 0.3922647
v 0.6100706 -0.9142213 -0.0159037
v 0.5387722 0.7004430 0.0871242
v 0.5611918 0.5797198 0.4290144
v 0.6661694 -0.0822920 0.6627221
v 0.6055756 -0.0362913 -0.7416786
v 0.4503984 -0.6461497 0.5520869
v 0.5643295 -0.3381037 0.6815273
v 0.6566007 -0.6393501 -0.5834463
v 0.8507676 -0.2821189 -0.6258026
v 0.5755366 0.7046552 -0.5727560
v 0.7866233 0.7736507 -0.0081073
v 0.7227470 0.4375136 -0.6903563
v 0.7395007 -0.7684641 -0.2834625
v 0.6298534 -0.3795243 -0.5620451
v 0.6915329 -0.5716984 -0.1130391
v 0.7646854 0.0480580 0.7449823
v 0.5887466 0.4983073 -0.5163290
v 0.7194727 0.2519265 0.5233405
v 0.6484004 0.3430241 0.7750677
v 0.7406043 -0.2792413 0.7194726
v 0.7203149 0.2085696 -0.5492859
v 0.8261485 0.5825857 0.4262922
v 0.7699659 -0.5956752 0.4899522
v 0.8033531 -0.1395269 -0.4122767
v 0.7958799 0.4183210 0.0985968
v 0.7722886 0.4073007 0.6091596
v 0.8571210 0.7275029 -0.0074846
v 1.0177115 -0.2404433 0.4087816
v 0.8354515 -0.3184073 0.2115260
v 0.8225742 -0.3463594 0.1935985
v 0.7451593 -0.6496905 0.4032843
v 0.8544316 -0.2290917 -0.2018861
v 0.9294001 -0.6166990 0.1140571
v 0.8643047 0.1443123 -0.1799111
v 0.9194259 0.0843477 -0.5858813
v 1.0020298 -0.4764693 -0.2291262
v 0.8854946 0.0351697 0.1840695
v 0.9328744 0.1734894 0.5043710
v 0.8997946 0.0709487 0.5638817
v 1.0090057 0.3403662 -0.1897863
v 1.0540199 0.3262370 0.1190811
v 0.9745290 0.4509045 -0.2634304
v 1.0493358 0.2035188 0.2330841
v 1.0947233 -0.0298705 -0.2700195
v 1.0966501 -0.1783769 0.0986779
# 202 vertices, 0 vertices normals

f 1 11 17
f 10 11 1
f 3 1 17
f 2 4 15
f 2 7 4
f 4 21 15
f 5 6 12
f 17 11 35
f 1 3 13
f 6 13 12
f 35 4 7
f 35 9 4
f 11 10 21
f 13 10 1
f 8 21 10
f 17 24 3
f 11 9 35
f 15 22 2
f 5 12 16
f 12 13 3
f 35 7 34
f 7 2 14
f 39 15 21
f 33 16 12
f 36 13 6
f 21 9 11
f 24 12 3
f 4 9 21
f 2 22 14
f 18 19 20
f 13 36 10
f 31 8 10
f 19 18 22
f 41 20 19
f 18 14 22
f 27 6 5
f 29 27 5
f 6 27 23
f 16 29 5
f 23 36 6
f 37 41 19
f 16 33 30
f 25 26 45
f 7 14 32
f 28 22 15
f 22 28 19
f 19 47 37
f 24 17 46
f 32 34 7
f 18 20 50
f 29 45 26
f 27 26 40
f 29 26 27
f 39 28 15
f 19 28 47
f 46 17 35
f 36 31 10
f 26 25 40
f 42 41 37
f 18 32 14
f 29 53 45
f 50 20 63
f 46 74 24
f 18 50 32
f 45 56 25
f 35 51 46
f 12 24 33
f 27 57 23
f 34 51 35
f 27 40 57
f 20 41 63
f 25 61 40
f 53 29 16
f 36 23 31
f 48 30 33
f 74 33 24
f 40 68 57
f 43 41 42
f 54 42 37
f 30 53 16
f 23 38 31
f 62 51 34
f 55 8 31
f 49 44 43
f 25 60 61
f 55 21 8
f 43 42 49
f 62 34 32
f 41 43 52
f 56 45 66
f 55 39 21
f 44 67 43
f 49 42 54
f 30 58 53
f 54 37 47
f 23 57 38
f 52 63 41
f 56 60 25
f 52 43 67
f 53 66 45
f 48 58 30
f 39 55 71
f 69 56 66
f 44 72 67
f 49 54 70
f 70 44 49
f 55 31 38
f 58 66 53
f 61 76 40
f 33 74 48
f 71 28 39
f 28 59 47
f 65 64 61
f 47 59 54
f 60 65 61
f 40 76 68
f 62 32 50
f 44 81 72
f 65 60 73
f 64 76 61
f 78 56 69
f 56 78 60
f 38 57 108
f 63 102 50
f 44 70 81
f 51 74 46
f 102 62 50
f 69 66 84
f 48 74 89
f 28 71 59
f 87 65 90
f 84 66 58
f 108 55 38
f 52 102 63
f 65 73 90
f 68 108 57
f 54 59 77
f 78 73 60
f 87 64 65
f 54 75 70
f 75 81 70
f 78 82 73
f 108 68 76
f 77 75 54
f 58 48 89
f 52 67 102
f 94 72 80
f 51 89 74
f 88 94 80
f 90 73 82
f 79 78 69
f 72 94 67
f 72 81 80
f 79 69 84
f 86 76 64
f 108 71 55
f 77 59 71
f 83 80 81
f 83 88 80
f 94 102 67
f 77 85 75
f 75 93 81
f 86 108 76
f 62 101 51
f 58 89 84
f 83 104 88
f 83 81 93
f 91 64 87
f 101 62 102
f 90 114 87
f 84 95 79
f 86 64 91
f 82 105 90
f 83 93 104
f 101 89 51
f 102 94 96
f 90 105 114
f 87 97 91
f 108 77 71
f 88 92 94
f 82 78 100
f 79 100 78
f 103 85 77
f 97 98 91
f 95 100 79
f 89 95 84
f 116 86 91
f 100 105 82
f 98 116 91
f 101 95 89
f 103 77 108
f 117 75 85
f 92 96 94
f 117 93 75
f 92 88 104
f 117 85 103
f 110 86 116
f 96 106 102
f 107 114 105
f 87 118 97
f 99 104 93
f 108 86 110
f 105 109 107
f 114 118 87
f 105 100 109
f 103 108 131
f 95 109 100
f 119 99 93
f 108 110 153
f 102 106 129
f 111 117 103
f 117 119 93
f 95 101 112
f 96 123 106
f 92 104 99
f 113 98 97
f 115 116 98
f 98 113 115
f 92 123 96
f 118 113 97
f 124 110 116
f 92 99 125
f 114 132 118
f 122 117 111
f 108 155 131
f 132 114 107
f 102 120 101
f 102 129 126
f 117 122 119
f 123 92 140
f 95 112 109
f 128 112 101
f 136 153 110
f 131 111 103
f 131 143 111
f 125 99 119
f 115 124 116
f 112 121 109
f 102 126 120
f 118 130 113
f 133 110 124
f 146 128 101
f 127 122 111
f 151 129 106
f 130 115 113
f 107 109 121
f 127 119 122
f 123 151 106
f 132 130 118
f 107 121 132
f 110 133 136
f 127 125 119
f 153 155 108
f 101 139 146
f 143 127 111
f 134 115 130
f 120 149 101
f 140 92 125
f 138 136 133
f 148 143 131
f 125 127 137
f 132 121 135
f 115 152 124
f 137 140 125
f 132 135 130
f 112 128 121
f 140 151 123
f 134 152 115
f 127 143 137
f 164 153 136
f 120 169 149
f 140 145 151
f 135 134 130
f 135 121 141
f 163 133 124
f 121 128 141
f 101 149 154
f 151 142 129
f 135 141 134
f 147 139 101
f 131 176 148
f 126 129 142
f 167 120 126
f 124 152 163
f 146 165 128
f 101 162 147
f 138 144 136
f 154 162 101
f 137 145 140
f 158 152 134
f 134 141 158
f 131 155 176
f 142 167 126
f 164 150 153
f 136 144 164
f 167 174 120
f 163 152 156
f 147 166 139
f 174 169 120
f 157 145 137
f 164 177 150
f 157 137 143
f 153 150 161
f 151 145 159
f 165 141 128
f 148 160 143
f 158 156 152
f 133 188 138
f 177 161 150
f 157 143 160
f 159 145 157
f 155 153 173
f 176 160 148
f 160 159 157
f 164 144 180
f 156 172 163
f 163 188 133
f 171 165 146
f 171 146 139
f 165 158 141
f 176 155 175
f 149 178 154
f 168 142 151
f 168 151 159
f 186 164 180
f 139 166 171
f 156 158 170
f 170 172 156
f 188 144 138
f 185 161 177
f 176 175 183
f 176 179 160
f 167 184 174
f 154 192 162
f 168 160 179
f 188 180 144
f 170 165 171
f 161 173 153
f 182 174 184
f 160 168 159
f 167 142 184
f 165 170 158
f 170 171 172
f 172 188 163
f 155 173 195
f 182 183 175
f 175 155 195
f 168 184 142
f 147 162 166
f 172 190 188
f 171 166 193
f 164 186 177
f 192 154 178
f 179 176 183
f 193 172 171
f 187 186 180
f 199 169 174
f 185 177 186
f 162 192 181
f 196 173 161
f 188 190 180
f 193 190 172
f 196 161 194
f 196 195 173
f 181 166 162
f 197 178 149
f 174 182 199
f 168 179 184
f 187 180 190
f 189 166 181
f 191 192 178
f 183 182 179
f 197 149 169
f 182 184 179
f 186 187 189
f 194 161 185
f 181 192 201
f 181 186 189
f 186 181 202
f 178 197 191
f 175 198 182
f 187 190 193
f 199 197 169
f 189 187 193
f 166 189 193
f 191 200 194
f 175 195 198
f 194 200 196
f 201 192 191
f 200 195 196
f 191 197 200
f 181 201 202
f 185 186 202
f 198 199 182
f 201 191 194
f 198 195 200
f 198 200 197
f 197 199 198
f 194 185 202
f 201 194 202
# 400 faces, 0 coords texture

# End of File
