####
#
# OBJ File Generated by Meshlab
#
####
# Object torus500.obj
#
# Vertices: 250
# Faces: 500
#
####
v -0.4705685 0.0547064 0.0164890
v -0.4706193 -0.0259832 -0.0970666
v -0.4796357 -0.0062847 0.0506282
v -0.4689420 -0.0367311 0.0833578
v -0.4793263 0.0152260 -0.0556126
v -0.4489711 0.0594739 0.1357366
v -0.4646829 -0.0664773 0.0030208
v -0.4266635 -0.0908558 -0.1311620
v -0.4621312 0.0472221 -0.1022965
v -0.4342925 0.0960238 -0.0840233
v -0.4348911 -0.1015225 0.0032181
v -0.4316328 -0.0782374 0.1497606
v -0.4166594 -0.0547978 -0.2209679
v -0.4454210 0.0130638 -0.1805909
v -0.4504924 0.0127050 0.1741527
v -0.4128254 0.0691981 -0.2102705
v -0.3926059 -0.0857038 0.2218438
v -0.4267648 -0.0343406 0.2162040
v -0.3860784 -0.1230310 0.1072934
v -0.3524408 -0.0179543 0.3298812
v -0.4230324 0.1057706 0.0760592
v -0.4156811 0.0731362 0.1989043
v -0.3597778 -0.1194308 -0.1920989
v -0.3809068 0.0444178 0.2823068
v -0.3935383 0.0052557 -0.2821439
v -0.3369949 -0.1073437 -0.2639214
v -0.3356061 0.0836169 -0.3044453
v -0.3813393 0.1280507 0.0286753
v -0.3530794 -0.0697129 0.2975639
v -0.3765011 -0.1283469 -0.0639555
v -0.3467535 -0.0538961 -0.3185244
v -0.3335688 0.1298211 -0.0632837
v -0.3069606 0.0963201 0.3184739
v -0.3446654 0.1160899 -0.2277493
v -0.3833731 0.1123096 0.1723875
v -0.3588731 0.1266792 -0.1456003
v -0.3352030 -0.1306091 0.0648279
v -0.2914927 0.0109611 0.3871195
v -0.2768583 0.1309630 0.2500616
v -0.2756537 -0.1067765 0.0103770
v -0.2586373 -0.1133465 0.1229000
v -0.3122711 0.1281704 0.0913563
v -0.3182013 -0.1287118 0.2135524
v -0.2915112 -0.1047068 0.3161215
v -0.2597699 0.1024815 -0.3478192
v -0.2960674 0.1301367 -0.1622381
v -0.2842000 0.1129332 0.0065264
v -0.3037725 -0.1309734 -0.1678118
v -0.2663668 -0.0663238 0.3819725
v -0.2666311 0.1108373 -0.0941196
v -0.2526602 0.1311640 -0.2418890
v -0.2571427 -0.0936300 -0.3625056
v -0.3004546 0.0242792 -0.3772460
v -0.2558258 0.0627193 0.3905634
v -0.2630371 -0.1294072 -0.2644832
v -0.1988080 -0.1198474 0.3569791
v -0.2728590 -0.0340391 -0.3935910
v -0.2353030 0.0925016 0.1094979
v -0.2167822 0.1181464 -0.2029402
v -0.2335274 -0.0570474 -0.0054461
v -0.2272766 0.0888295 -0.1183756
v -0.2487728 -0.1016208 -0.0987507
v -0.2212244 -0.0029660 0.0043025
v -0.2145372 0.0337831 -0.4295957
v -0.2301801 0.0571843 -0.0220275
v -0.2322297 0.0673810 0.0570317
v -0.2299884 -0.1215624 -0.1915116
v -0.2154241 -0.0583855 0.0816748
v -0.1891323 0.0276497 0.1186877
v -0.1428564 0.1298778 0.3140597
v -0.1592607 -0.0374345 -0.4521779
v -0.2037750 -0.0071619 -0.0819716
v -0.1716905 0.0693740 -0.1643356
v -0.1647741 0.1275245 0.3518503
v -0.2078704 -0.0617783 -0.1143791
v -0.2062499 0.0489476 -0.1047669
v -0.1692307 0.1061851 0.3953696
v -0.2210857 0.1215897 0.2086496
v -0.2296455 -0.1292050 0.2399466
v -0.1939292 -0.1191315 -0.3585413
v -0.1752523 -0.1015536 0.2003286
v -0.1862981 0.1079852 -0.3838232
v -0.2119332 0.1295518 -0.3077886
v -0.1629161 -0.0276789 0.1536401
v -0.1624688 0.1095972 0.2266703
v -0.0882577 -0.0944406 -0.4356825
v -0.1521668 -0.0461886 0.4510986
v -0.1667298 -0.0142895 -0.1470949
v -0.0787593 0.0976907 0.4327939
v -0.0850111 -0.1124132 -0.4095406
v -0.0688130 -0.0919963 -0.2511407
v -0.1458776 -0.0770444 -0.1957084
v -0.1195404 -0.0561400 0.1985614
v -0.1251732 0.0422676 0.1898367
v -0.1015749 0.0467843 -0.2055918
v -0.0624817 0.1174364 -0.4094499
v -0.1071178 0.1093510 -0.2585021
v -0.1061129 0.0693802 -0.4499400
v -0.1141566 0.0780176 0.2184382
v -0.1071307 -0.1296802 -0.3509683
v -0.0593748 0.0045838 -0.2138497
v -0.0355218 -0.1304674 -0.3465464
v -0.0215322 0.1172678 -0.4088323
v -0.1373676 -0.1243219 -0.2762061
v -0.1412781 0.0274632 0.4602157
v -0.0917361 0.0043947 0.1995587
v -0.1050231 0.1279208 -0.3130349
v 0.0054140 0.1293015 -0.3725753
v -0.0348886 -0.0701229 0.2402974
v -0.0304489 -0.0346319 0.2233335
v -0.0754160 0.0228877 -0.4751501
v -0.1318455 -0.1310747 0.3083015
v -0.0118567 -0.0328493 -0.2263098
v -0.0227078 0.0068909 0.2190013
v -0.0631280 0.0688235 -0.2330340
v 0.0512819 0.1313164 0.3406755
v 0.0571749 -0.1311378 0.3361773
v -0.0710787 -0.1250412 0.3841104
v -0.0773455 -0.1026987 0.2611922
v -0.0143448 0.0729059 0.2422469
v -0.0102011 -0.1214937 -0.3993980
v 0.0204051 -0.1021010 0.4332739
v 0.0069857 -0.0352107 -0.4785186
v -0.0100347 0.0514681 0.4723603
v 0.0115709 0.1150185 -0.2890827
v 0.0469185 -0.0651805 0.4625665
v -0.0320348 0.0947561 -0.2604077
v -0.0318471 0.1180964 0.2971464
v -0.0670670 -0.0930943 0.4392418
v -0.0134585 -0.0265146 0.4809218
v 0.0234096 0.1240351 0.3918698
v 0.0967559 -0.1255056 -0.3801496
v 0.0551654 0.0116721 -0.2146640
v 0.0330265 -0.1068387 0.2725890
v 0.0954397 -0.0895070 -0.4390241
v 0.0616947 -0.0978619 -0.2555210
v -0.0023219 0.0367883 -0.4769329
v 0.0677423 0.0478734 -0.4684516
v 0.0558095 0.0646199 -0.2307673
v 0.0913796 0.1286182 -0.3194015
v 0.1271650 -0.0075763 -0.4659342
v 0.0679523 0.0915553 0.4424475
v 0.1314409 -0.0542573 -0.4519902
v 0.0900159 -0.0326143 -0.2047384
v 0.0902653 -0.0609108 0.2175744
v 0.0607284 -0.0183346 0.2118958
v 0.0468722 0.0401823 0.2222420
v 0.0351585 0.0850363 -0.4499151
v 0.2354025 -0.1301225 -0.2812364
v 0.0258383 -0.1242525 -0.3134415
v 0.1174027 -0.0965487 0.2356582
v 0.1923535 0.0535849 -0.4319109
v 0.1654819 -0.0655501 0.1720485
v 0.1536639 0.0638057 0.1806462
v 0.1177472 0.1129586 -0.4018647
v 0.1510532 -0.0000959 -0.1604409
v 0.1314031 0.0751803 -0.2043871
v 0.1886804 -0.1321235 0.2995648
v 0.1241231 -0.0352863 0.4620251
v 0.1101103 0.0949968 0.2347619
v 0.1134889 0.1297737 0.3101089
v 0.1825192 -0.1148071 -0.2248820
v 0.1316906 -0.0605446 -0.1943431
v 0.0848491 0.0210320 0.4728430
v 0.1981775 0.1055549 0.3829585
v 0.1326509 -0.1181039 0.2663047
v 0.2388691 -0.0923472 -0.1066103
v 0.1746998 -0.0912601 -0.1893429
v 0.1895174 -0.0233263 -0.1156728
v 0.2180699 0.1251529 0.2278373
v 0.1112509 -0.1138545 0.4031615
v 0.1460009 0.0083007 0.1658546
v 0.2135944 0.0510661 0.0882933
v 0.1168434 0.1181347 -0.2714904
v 0.1727062 -0.1026668 0.2073963
v 0.2052401 -0.0416893 0.1028103
v 0.2087506 0.1051663 0.1769412
v 0.2614855 -0.1133405 0.3275796
v 0.2450318 -0.0108955 -0.4143958
v 0.1891642 0.0433992 -0.1266745
v 0.2086273 0.0933463 -0.1578389
v 0.2176242 -0.1289576 -0.2571973
v 0.1665603 -0.0821358 0.4221693
v 0.2192474 0.0322873 -0.0453103
v 0.2138407 0.0111395 0.0584980
v 0.1572380 0.1255187 0.3555142
v 0.1536017 0.1307177 -0.3283150
v 0.2026803 -0.1108549 -0.3711317
v 0.2326938 -0.0689280 0.0702609
v 0.2758027 -0.0628620 0.3754830
v 0.2832525 0.0494972 -0.3797867
v 0.1859872 0.0389044 0.4394744
v 0.2192345 0.1118834 -0.3609738
v 0.2330910 0.1219290 -0.1998693
v 0.2470321 0.1308399 0.2672645
v 0.2253490 -0.0509435 -0.0408536
v 0.2421400 0.0739531 0.0281666
v 0.2314959 0.0713176 -0.0611179
v 0.2927952 0.1112329 0.3037899
v 0.2731251 -0.1140289 -0.0973052
v 0.2505863 -0.1093128 0.1265859
v 0.2629811 -0.0967508 0.0266399
v 0.3174207 -0.0962105 0.3073765
v 0.2492782 -0.0584121 -0.3970261
v 0.2745957 0.0553330 0.3826399
v 0.2781408 0.1111796 0.0570446
v 0.2978421 0.1301827 -0.2194923
v 0.2613989 -0.1023925 -0.3457222
v 0.3345717 -0.1236563 0.2105244
v 0.3193073 0.0260327 -0.3616600
v 0.2479760 -0.0249378 0.4119138
v 0.3385901 -0.1291679 -0.1789691
v 0.3081434 -0.1287832 -0.1135140
v 0.2735181 -0.1309876 0.1969642
v 0.3492685 -0.1169562 -0.2252681
v 0.2899497 0.1204011 -0.0739270
v 0.3075449 -0.1247276 0.0428185
v 0.3331112 -0.0608710 -0.3278601
v 0.3470083 0.0736093 0.3041489
v 0.2929744 0.1268301 0.1261826
v 0.3392554 -0.0200432 0.3418190
v 0.3432980 0.1304555 -0.1004412
v 0.3444333 0.1006604 -0.2706876
v 0.3938215 0.0526825 -0.2582080
v 0.3700402 0.1233949 -0.1389610
v 0.3821634 -0.1095102 0.1811022
v 0.3991209 -0.0003146 0.2728847
v 0.3427946 0.1293865 0.1497394
v 0.3664442 -0.0701016 0.2816620
v 0.3873869 0.0326619 0.2823458
v 0.4286328 -0.1068048 -0.0376071
v 0.4055248 -0.0641794 -0.2334940
v 0.3980130 0.1035827 0.1747339
v 0.3669230 -0.1281182 0.1000937
v 0.3855169 0.1274111 0.0212296
v 0.4202370 -0.1097096 0.0756447
v 0.4316306 0.1039121 -0.0235353
v 0.4140906 -0.0591696 0.2210619
v 0.4496740 0.0178512 -0.1717883
v 0.4246987 0.0871151 -0.1526308
v 0.4561791 -0.0387351 0.1389255
v 0.4326657 0.0988164 0.0626827
v 0.4425507 -0.0758710 -0.1274482
v 0.4127702 -0.0056868 -0.2531712
v 0.4615736 -0.0523753 -0.1039950
v 0.4797289 0.0294607 -0.0406907
v 0.4474593 0.0386697 0.1645107
v 0.4608552 0.0633683 0.0603983
v 0.4757332 0.0019247 0.0818064
v 0.4736131 -0.0472057 0.0115958
# 250 vertices, 0 vertices normals

f 5 2 3
f 5 3 1
f 2 7 3
f 3 7 4
f 1 3 6
f 1 9 5
f 2 8 7
f 12 4 7
f 15 4 18
f 2 5 14
f 15 3 4
f 9 14 5
f 3 15 6
f 4 12 18
f 1 10 9
f 6 21 1
f 12 7 11
f 7 8 11
f 2 13 8
f 2 14 13
f 16 14 9
f 6 15 22
f 10 16 9
f 21 10 1
f 25 13 14
f 17 18 12
f 25 14 16
f 21 6 35
f 30 11 8
f 11 30 19
f 12 11 19
f 18 20 15
f 15 20 24
f 15 24 22
f 22 35 6
f 10 21 28
f 30 8 23
f 36 10 28
f 12 19 17
f 8 13 23
f 29 18 17
f 16 10 34
f 36 34 10
f 13 26 23
f 26 13 31
f 29 20 18
f 35 28 21
f 30 37 19
f 16 27 25
f 34 27 16
f 48 30 23
f 43 17 19
f 25 31 13
f 20 38 24
f 33 22 24
f 35 22 33
f 32 36 28
f 44 17 43
f 25 53 31
f 53 25 27
f 28 35 39
f 42 32 28
f 44 29 17
f 48 37 30
f 37 43 19
f 55 23 26
f 31 52 26
f 33 24 38
f 35 33 39
f 48 23 55
f 49 20 29
f 31 53 57
f 46 51 36
f 32 46 36
f 79 43 37
f 44 49 29
f 57 52 31
f 32 47 46
f 42 47 32
f 39 42 28
f 48 40 37
f 54 33 38
f 34 45 27
f 51 34 36
f 40 41 37
f 49 38 20
f 45 53 27
f 50 46 47
f 42 58 47
f 67 62 48
f 62 40 48
f 43 56 44
f 83 45 34
f 51 83 34
f 50 59 46
f 80 55 26
f 80 26 52
f 59 51 46
f 39 78 42
f 40 68 41
f 47 66 65
f 47 58 66
f 39 33 74
f 74 70 39
f 67 48 55
f 41 79 37
f 40 62 60
f 50 65 61
f 65 50 47
f 42 78 58
f 79 41 81
f 56 49 44
f 68 40 60
f 105 54 38
f 64 53 45
f 61 59 50
f 62 75 60
f 64 71 57
f 57 53 64
f 82 64 45
f 54 77 33
f 83 82 45
f 43 79 56
f 75 63 60
f 72 63 75
f 87 38 49
f 63 76 65
f 65 66 63
f 76 61 65
f 39 70 78
f 71 52 57
f 72 75 88
f 63 68 60
f 68 63 69
f 72 76 63
f 69 63 66
f 69 66 58
f 59 61 73
f 78 85 58
f 77 74 33
f 107 51 59
f 62 67 75
f 81 41 68
f 71 86 52
f 68 84 81
f 107 83 51
f 55 104 67
f 104 92 67
f 92 75 67
f 56 87 49
f 84 68 69
f 87 105 38
f 72 88 76
f 73 61 76
f 75 92 88
f 94 69 58
f 85 94 58
f 79 112 56
f 79 81 112
f 86 80 52
f 77 54 105
f 82 98 64
f 70 85 78
f 80 100 55
f 100 104 55
f 69 94 84
f 85 99 94
f 73 97 59
f 83 96 82
f 80 86 90
f 56 129 87
f 84 93 81
f 64 111 71
f 73 76 88
f 111 64 98
f 89 77 105
f 97 107 59
f 112 118 56
f 85 70 128
f 119 112 81
f 101 88 92
f 88 95 73
f 115 73 95
f 96 98 82
f 97 73 115
f 92 104 91
f 93 119 81
f 94 106 84
f 102 104 100
f 95 88 101
f 128 99 85
f 118 129 56
f 109 119 93
f 84 106 93
f 89 105 124
f 77 89 74
f 92 91 113
f 109 93 110
f 92 113 101
f 105 87 130
f 127 97 115
f 83 108 96
f 106 110 93
f 94 99 106
f 107 108 83
f 104 102 150
f 117 118 112
f 100 90 121
f 100 80 90
f 130 87 129
f 71 111 123
f 111 98 137
f 99 128 120
f 108 103 96
f 86 71 123
f 106 114 110
f 97 125 107
f 121 102 100
f 121 90 86
f 150 91 104
f 112 119 117
f 106 99 114
f 101 115 95
f 96 148 98
f 74 89 131
f 122 129 118
f 124 105 130
f 120 114 99
f 148 137 98
f 89 124 142
f 125 97 127
f 74 116 70
f 131 116 74
f 128 70 116
f 130 129 126
f 150 136 91
f 123 135 86
f 137 123 111
f 120 147 114
f 139 115 101
f 138 137 148
f 171 122 118
f 134 119 109
f 113 91 136
f 139 127 115
f 142 131 89
f 121 132 102
f 119 134 117
f 133 101 113
f 133 139 101
f 164 124 130
f 125 140 107
f 126 129 122
f 114 146 110
f 147 146 114
f 139 125 127
f 103 148 96
f 116 161 128
f 117 171 118
f 135 121 86
f 110 134 109
f 121 135 132
f 144 133 113
f 140 108 107
f 145 134 110
f 145 110 146
f 130 159 164
f 137 141 123
f 160 147 120
f 128 160 120
f 155 148 103
f 166 117 134
f 122 171 126
f 136 144 113
f 161 160 128
f 132 149 102
f 102 149 150
f 151 166 134
f 123 143 135
f 159 130 126
f 137 138 141
f 157 125 139
f 157 174 125
f 108 155 103
f 142 186 131
f 134 145 151
f 164 142 124
f 117 166 158
f 171 183 126
f 163 144 136
f 160 154 147
f 174 140 125
f 187 108 140
f 149 182 150
f 136 162 163
f 123 141 143
f 153 145 146
f 153 146 172
f 156 133 144
f 146 154 172
f 157 133 156
f 157 139 133
f 146 147 154
f 148 152 138
f 186 116 131
f 158 171 117
f 136 150 182
f 126 183 159
f 192 142 164
f 148 155 152
f 186 142 165
f 187 155 108
f 182 162 136
f 175 166 151
f 168 163 162
f 153 151 145
f 156 144 163
f 135 188 132
f 138 152 141
f 174 157 181
f 186 161 116
f 153 175 151
f 176 153 172
f 169 156 163
f 156 180 157
f 192 165 142
f 187 193 155
f 161 170 160
f 167 169 163
f 192 164 159
f 155 193 152
f 160 177 154
f 181 194 174
f 170 177 160
f 168 167 163
f 159 183 211
f 192 159 211
f 180 181 157
f 187 140 174
f 161 195 170
f 158 178 171
f 156 169 180
f 180 169 198
f 173 172 154
f 195 161 186
f 188 149 132
f 214 166 175
f 204 135 143
f 176 189 153
f 179 204 143
f 143 141 179
f 185 176 172
f 173 185 172
f 158 166 214
f 178 183 171
f 153 189 201
f 175 153 201
f 204 188 135
f 198 169 184
f 154 177 173
f 187 174 194
f 167 196 169
f 152 179 141
f 184 169 196
f 200 167 168
f 183 190 211
f 189 176 196
f 196 176 185
f 185 184 196
f 180 198 181
f 205 165 192
f 177 206 173
f 201 214 175
f 162 200 168
f 183 178 190
f 184 185 197
f 173 197 185
f 197 173 206
f 186 165 195
f 187 207 193
f 194 207 187
f 208 149 188
f 200 162 213
f 201 189 202
f 204 208 188
f 191 179 152
f 184 197 198
f 191 152 193
f 190 178 203
f 189 196 202
f 205 192 211
f 198 197 206
f 165 205 199
f 216 181 198
f 216 194 181
f 220 206 177
f 220 177 170
f 214 209 158
f 208 212 149
f 209 178 158
f 196 167 202
f 216 198 206
f 222 207 194
f 195 220 170
f 182 213 162
f 217 201 202
f 223 193 207
f 199 195 165
f 149 212 182
f 212 208 215
f 217 214 201
f 167 200 202
f 200 217 202
f 179 210 204
f 179 191 210
f 199 205 219
f 222 194 216
f 228 220 195
f 211 221 205
f 193 223 191
f 228 195 199
f 215 208 218
f 218 208 204
f 218 204 210
f 182 212 213
f 200 213 217
f 190 203 229
f 191 223 210
f 206 222 216
f 206 220 222
f 221 211 190
f 205 221 230
f 230 219 205
f 199 233 228
f 213 212 217
f 212 234 217
f 234 214 217
f 234 209 214
f 203 178 209
f 221 190 229
f 207 222 225
f 228 222 220
f 244 218 210
f 230 221 227
f 219 233 199
f 223 207 225
f 225 222 235
f 218 232 215
f 228 235 222
f 226 209 234
f 221 229 227
f 244 232 218
f 224 244 210
f 209 226 203
f 203 226 229
f 224 210 223
f 225 240 223
f 236 234 212
f 215 231 212
f 212 231 236
f 229 226 238
f 223 240 224
f 233 235 228
f 226 234 236
f 238 227 229
f 237 225 235
f 243 231 215
f 243 215 232
f 233 219 230
f 237 240 225
f 233 242 235
f 226 236 238
f 239 244 224
f 247 233 230
f 247 230 227
f 224 240 239
f 242 237 235
f 243 245 231
f 241 238 236
f 227 238 241
f 243 232 244
f 241 247 227
f 233 247 242
f 242 247 248
f 250 236 231
f 241 236 250
f 245 243 244
f 244 239 245
f 246 239 240
f 240 237 246
f 248 237 242
f 250 231 245
f 250 249 241
f 249 247 241
f 248 247 249
f 246 237 248
f 245 246 250
f 245 239 246
f 246 249 250
f 246 248 249
# 500 faces, 0 coords texture

# End of File
