####
#
# OBJ File Generated by Meshlab
#
####
# Object twisted_torus200.obj
#
# Vertices: 100
# Faces: 200
#
####
v -0.4712558 0.0319284 0.1827551
v -0.4910590 -0.0244252 -0.1007906
v -0.3752280 0.0628864 0.0982353
v -0.3770187 -0.2835731 0.0083534
v -0.3718338 0.2815229 -0.0179349
v -0.3948030 -0.2785012 0.1304293
v -0.3861023 0.2921028 -0.0997290
v -0.2399973 0.1884913 -0.3309514
v -0.3006794 -0.0132214 -0.1749797
v -0.4046476 -0.0724712 -0.2749327
v -0.2895270 -0.3634288 -0.1440916
v -0.1546422 -0.3736100 0.0327517
v -0.2335161 -0.0204731 0.0194584
v -0.2389812 0.0059662 -0.0502661
v -0.3192873 0.0780539 0.3677848
v -0.2532182 -0.2180866 0.3623761
v -0.2489424 -0.0722114 -0.0960762
v -0.2995053 0.3508983 0.1569453
v -0.2497795 -0.3384697 -0.1659762
v -0.2603965 0.2171222 -0.3604562
v -0.1881926 -0.0489582 -0.0945380
v -0.1842636 0.0537612 0.1080911
v -0.1798971 0.1270721 0.4371097
v -0.1223253 0.2676837 -0.2028304
v -0.2356378 0.3418020 -0.0684082
v -0.1713688 0.1098797 0.1642633
v -0.0270279 0.1681463 -0.4630710
v -0.0592724 -0.4212633 -0.2300631
v -0.0946192 -0.1828580 0.4472607
v -0.1158126 -0.0908249 -0.1646349
v -0.2039312 0.0407728 0.2029137
v -0.1369230 0.3807636 0.2219691
v -0.0774434 0.1130877 0.1725392
v 0.0047421 -0.4922961 -0.0512990
v 0.0237792 -0.1938402 0.2361587
v -0.1849255 0.1411869 0.3040842
v -0.1025695 -0.1419344 -0.1799301
v -0.0592613 0.2726416 0.0962137
v -0.2061831 -0.1815058 0.3557119
v -0.0315735 0.1136335 0.4050346
v -0.1826672 -0.1026447 -0.4391637
v -0.1639756 -0.0592252 -0.2345843
v -0.0495773 0.4633821 -0.0696140
v 0.0203710 -0.1954968 -0.0921542
v -0.0203511 0.1681293 0.1442053
v -0.0333297 -0.4626900 0.1433290
v -0.0463538 -0.3266713 0.1172412
v -0.1582732 -0.2723311 0.2109113
v 0.1027179 -0.1460204 0.4585163
v -0.0135450 -0.1321130 0.2110802
v 0.2816382 -0.2062348 -0.2574432
v -0.0722717 0.1646611 -0.1547861
v 0.0103383 -0.1402241 -0.1791415
v -0.0017840 0.1997304 -0.1313024
v -0.0062830 0.4820945 0.1275850
v 0.0913383 0.3764659 0.0954986
v -0.0123138 -0.2815168 -0.1071307
v -0.0319704 -0.1628371 -0.4532765
v 0.0425595 0.2716822 0.1380675
v -0.0144639 0.2273281 0.0690118
v 0.0051222 0.3155144 -0.1332675
v 0.0582668 -0.2238033 -0.3004235
v 0.0646174 0.2353608 0.2566899
v 0.0192942 -0.2200995 0.0197474
v 0.0822869 0.4158766 -0.2379288
v 0.0491871 0.1318030 0.2568636
v 0.1408063 -0.4041357 0.2358959
v 0.1312204 0.0759581 -0.3115126
v 0.0796269 0.1024439 -0.1789576
v 0.0193394 0.2346792 -0.0486574
v 0.0026402 0.4458106 0.1840263
v 0.0573542 -0.1451391 0.1708370
v 0.2687773 0.0903230 -0.4044477
v 0.2028635 0.3341396 0.0946725
v -0.0076748 -0.1344728 -0.4529493
v 0.1026620 -0.4140969 -0.0697523
v 0.0155418 -0.1375976 0.4608115
v 0.2356413 -0.0864072 0.4020093
v 0.1942464 0.1358764 -0.3771347
v 0.0504224 0.1704622 0.4604007
v 0.1102512 0.1331786 -0.1806198
v 0.2779579 -0.3324616 -0.0711341
v 0.2213521 -0.0321402 0.0516384
v 0.2981687 0.2319044 0.3268311
v 0.2302836 0.0209246 -0.0154827
v 0.3087162 -0.3479899 0.1575927
v 0.2315118 -0.1284911 0.2473629
v 0.2404844 -0.2147797 -0.3771260
v 0.3195642 -0.0065930 -0.1120325
v 0.2951415 0.1042890 -0.2154676
v 0.1737445 0.4153229 -0.1198056
v 0.3188065 0.3324058 -0.1403947
v 0.3785062 -0.2692532 -0.1314792
v 0.3928074 0.2830840 0.0799102
v 0.3643649 -0.2924542 0.0213822
v 0.3460725 -0.0006710 0.1502676
v 0.3981366 -0.0571250 0.2813834
v 0.4425425 0.0461653 -0.1941192
v 0.4693012 0.0100899 0.0384404
v 0.4801651 -0.0133073 -0.0249062
# 100 vertices, 0 vertices normals

f 3 2 1
f 9 10 2
f 3 9 2
f 13 15 1
f 20 8 7
f 5 7 8
f 7 5 18
f 4 11 6
f 9 41 10
f 17 13 1
f 36 1 15
f 25 7 18
f 19 11 4
f 17 1 2
f 14 9 3
f 12 16 6
f 16 39 6
f 12 6 11
f 31 15 13
f 26 14 3
f 25 20 7
f 26 3 1
f 4 6 50
f 10 17 2
f 15 31 40
f 12 48 16
f 6 39 50
f 22 14 26
f 8 52 5
f 50 19 4
f 14 42 9
f 14 22 13
f 40 23 15
f 18 5 38
f 25 18 55
f 19 28 11
f 14 13 21
f 13 17 21
f 31 13 22
f 18 38 32
f 12 11 34
f 48 29 16
f 62 37 10
f 41 58 10
f 37 17 10
f 41 9 42
f 25 24 20
f 30 21 17
f 21 42 14
f 36 26 1
f 23 36 15
f 28 34 11
f 24 27 20
f 18 32 55
f 38 5 52
f 37 30 17
f 26 33 22
f 55 43 25
f 47 48 12
f 41 75 58
f 39 16 29
f 22 33 31
f 43 61 25
f 57 28 19
f 64 57 19
f 50 64 19
f 21 30 42
f 52 8 68
f 32 71 55
f 62 10 58
f 24 25 61
f 46 12 34
f 47 35 48
f 44 37 62
f 26 36 45
f 48 49 29
f 66 31 33
f 23 40 80
f 29 77 39
f 8 20 27
f 29 49 77
f 26 45 33
f 63 45 36
f 52 60 38
f 75 41 42
f 44 53 37
f 53 30 37
f 39 96 50
f 43 65 61
f 42 30 53
f 68 8 27
f 63 36 23
f 70 60 52
f 38 60 59
f 12 46 47
f 64 44 57
f 66 40 31
f 68 69 52
f 32 38 71
f 54 70 52
f 61 70 24
f 53 51 42
f 66 33 45
f 45 59 60
f 47 64 72
f 72 35 47
f 64 50 72
f 79 24 70
f 45 63 59
f 44 62 57
f 69 54 52
f 24 79 27
f 71 38 56
f 67 47 46
f 57 76 28
f 35 49 48
f 54 69 81
f 91 43 55
f 42 51 75
f 81 79 70
f 70 54 81
f 23 80 63
f 34 67 46
f 56 38 59
f 91 65 43
f 76 34 28
f 77 96 39
f 57 82 76
f 27 73 68
f 45 60 70
f 34 76 67
f 58 75 88
f 45 70 66
f 56 55 71
f 74 59 63
f 74 56 59
f 67 64 47
f 72 50 83
f 96 83 50
f 79 73 27
f 92 61 65
f 82 57 62
f 87 35 72
f 95 53 44
f 51 88 75
f 68 85 69
f 76 86 67
f 44 64 95
f 81 90 79
f 91 55 56
f 64 67 86
f 77 49 78
f 78 96 77
f 84 80 40
f 85 81 69
f 70 61 92
f 84 63 80
f 62 58 88
f 83 87 72
f 90 81 85
f 70 92 66
f 74 91 56
f 87 49 35
f 91 92 65
f 89 68 73
f 63 84 74
f 85 83 96
f 68 89 85
f 86 95 64
f 89 83 85
f 66 84 40
f 88 82 62
f 87 78 49
f 95 51 53
f 87 83 100
f 78 87 97
f 89 100 83
f 66 92 94
f 74 94 91
f 76 82 86
f 96 90 85
f 90 73 79
f 94 84 66
f 51 95 93
f 84 94 74
f 82 88 93
f 97 96 78
f 96 99 90
f 93 88 51
f 94 92 91
f 82 95 86
f 82 93 95
f 98 89 73
f 98 100 89
f 99 98 90
f 98 73 90
f 100 97 87
f 96 97 99
f 100 99 97
f 100 98 99
# 200 faces, 0 coords texture

# End of File
