####
#
# OBJ File Generated by Meshlab
#
####
# Object twisted_torus500.obj
#
# Vertices: 200
# Faces: 400
#
####
v -0.4844916 -0.0066286 0.0024401
v -0.4062029 -0.0619352 -0.2529596
v -0.4540272 -0.0420675 -0.1037879
v -0.4648382 0.0320157 0.1458277
v -0.4461569 -0.0187678 -0.1578571
v -0.3752280 0.0628864 0.0982353
v -0.3343998 0.0506492 0.3034980
v -0.3767022 -0.2706878 0.0988557
v -0.3706042 -0.3122753 0.0264556
v -0.3599488 -0.0658799 -0.3170171
v -0.3755766 0.2716438 -0.0777295
v -0.3311519 0.2925411 0.0422946
v -0.3326730 -0.2349434 0.2336233
v -0.4049487 -0.0202933 0.0483887
v -0.3676013 0.3156477 -0.0095314
v -0.3425185 0.0757599 0.3387806
v -0.2998669 0.2173386 -0.2266987
v -0.3006794 -0.0132214 -0.1749797
v -0.3592186 0.2708946 -0.1866435
v -0.3561431 -0.2741748 0.1809080
v -0.2554424 -0.2384073 0.3224803
v -0.2667300 -0.1190360 -0.2938550
v -0.4200353 0.0621760 0.1893990
v -0.3116632 0.3519044 0.1217728
v -0.3394422 -0.3114383 -0.0788385
v -0.2895270 -0.3634288 -0.1440916
v -0.2358023 -0.3553005 0.0257483
v -0.2335161 -0.0204731 0.0194584
v -0.2305093 0.3758425 0.1901487
v -0.2389812 0.0059662 -0.0502661
v -0.2500840 0.1065149 0.3986498
v -0.2508124 -0.2081786 0.3554821
v -0.2489424 -0.0722114 -0.0960762
v -0.2950253 -0.2322200 0.1207975
v -0.2683095 0.3359979 0.1547525
v -0.2434159 0.3642461 0.0091546
v -0.2497795 -0.3384697 -0.1659762
v -0.2571570 -0.1039004 -0.3954614
v -0.2207655 0.2033824 -0.3828316
v -0.2870443 0.2283422 -0.3330655
v -0.1881926 -0.0489582 -0.0945380
v -0.1842636 0.0537612 0.1080911
v -0.1798971 0.1270721 0.4371097
v -0.1453473 0.1630624 -0.3719843
v -0.1775699 0.3654266 0.2060985
v -0.1220589 0.2389903 -0.3021103
v -0.1743487 0.3021995 -0.1481732
v -0.1713688 0.1098797 0.1642633
v -0.1086142 0.1868234 -0.4328428
v -0.1399930 -0.3929077 -0.2269589
v -0.1636861 0.4164666 0.1747793
v -0.0946192 -0.1828580 0.4472607
v -0.1158126 -0.0908249 -0.1646349
v -0.2039312 0.0407728 0.2029137
v -0.1149801 0.3930243 0.2243353
v -0.1347111 -0.3461960 0.0867287
v -0.0774434 0.1130877 0.1725392
v -0.0949781 -0.4517189 -0.0912739
v 0.0237792 -0.1938402 0.2361587
v 0.0064488 -0.1186248 0.2359098
v -0.1308775 0.0980364 0.4054776
v -0.1849255 0.1411869 0.3040842
v -0.0542954 -0.2580083 -0.0718772
v -0.1025695 -0.1419344 -0.1799301
v 0.0099525 0.1547141 0.4600100
v -0.0675511 -0.3777224 0.1071013
v -0.0453015 0.1841730 -0.1171077
v -0.1157248 0.2405993 0.0144798
v 0.0222660 0.1642074 -0.4524306
v -0.0449073 0.3167072 0.1308425
v -0.2061831 -0.1815058 0.3557119
v 0.0821075 0.1463169 0.3990878
v -0.0616381 0.2643289 -0.1674490
v -0.1295267 -0.3991558 0.0236620
v -0.1719996 -0.0946284 -0.4173642
v -0.1639756 -0.0592252 -0.2345843
v 0.0244289 0.1469499 -0.4623984
v -0.1203974 0.4057733 -0.0389269
v -0.0336662 0.4725701 -0.0969292
v 0.0076006 -0.2045535 -0.1372620
v -0.0419279 0.1753278 0.1766421
v 0.0709859 0.0951784 -0.2204857
v -0.0178465 0.2290091 -0.1702386
v 0.0163845 -0.4371252 0.1911308
v -0.0005920 -0.3315625 0.1268282
v -0.0222631 -0.1825894 0.1190637
v -0.0329950 -0.2165897 0.0143731
v -0.1582732 -0.2723311 0.2109113
v -0.0159437 -0.1733746 0.4461275
v -0.0467739 -0.1600416 0.1601487
v 0.2265143 -0.1877068 -0.3107290
v -0.0678516 0.1499612 -0.2046950
v -0.0322360 -0.4744746 0.0869972
v -0.0254153 -0.3332233 -0.1376145
v -0.0460288 -0.2838431 0.1458084
v 0.0083192 -0.2319653 0.0857117
v 0.0127362 -0.1604279 -0.1503740
v 0.0226051 -0.1474693 0.4604014
v -0.0017840 0.1997304 -0.1313024
v 0.0039276 0.2147791 0.0705923
v 0.0040545 0.2228929 -0.1041090
v 0.0191837 0.4835477 0.0631597
v 0.0229272 -0.1709475 0.1555528
v 0.0653263 0.3471626 0.1122187
v 0.0273951 0.4212761 -0.2036991
v 0.0367720 -0.2756400 -0.1382799
v -0.0814158 -0.1486319 -0.4523943
v 0.0425595 0.2716822 0.1380675
v -0.0223084 -0.4339731 -0.2020367
v 0.0392824 0.1907462 -0.2785757
v -0.0163897 0.2421747 0.0898756
v 0.0463333 0.2834103 -0.1013884
v 0.0085090 -0.2056260 -0.2758062
v 0.0646174 0.2353608 0.2566899
v 0.1018373 -0.2740386 0.0784257
v 0.1638319 0.1734570 0.2168088
v 0.1286307 0.4148575 -0.2180904
v 0.0422868 -0.1867291 -0.4229016
v -0.0336503 0.1057569 0.2411291
v 0.0001005 0.1623786 0.1445446
v -0.0350670 0.3427720 -0.1241209
v 0.0389063 -0.4777082 -0.0642014
v 0.1260453 -0.3939579 0.2304093
v 0.1312204 0.0759581 -0.3115126
v 0.0826646 0.1174177 -0.1689030
v 0.0954547 0.2223701 0.0196550
v 0.0026402 0.4458106 0.1840263
v 0.1395583 -0.4172485 0.2020263
v 0.1651618 -0.2037038 -0.4079749
v 0.0730556 0.1936116 0.4167741
v 0.1127237 0.3927515 0.0580702
v 0.0380987 -0.2040099 -0.0554776
v 0.1318754 -0.1289962 0.4501975
v -0.0217776 -0.1402940 -0.4591558
v 0.0826826 0.4553722 -0.0660703
v 0.0893020 -0.1179978 0.1640660
v 0.1376228 0.3775703 -0.2152347
v 0.1590399 0.1081258 -0.4356448
v 0.1524104 0.3113506 0.1301879
v 0.0793795 -0.1483046 -0.4040492
v 0.1534934 -0.4124720 0.0426164
v 0.1673145 -0.2834674 -0.1910653
v 0.0544078 -0.1161701 0.4203237
v 0.0799697 -0.3822891 -0.1028363
v 0.0614360 -0.1436443 -0.2218568
v 0.1344984 -0.1258489 0.1717702
v 0.2356413 -0.0864072 0.4020093
v 0.2114798 0.1263530 -0.3996104
v 0.1295606 0.1797749 0.4264566
v 0.2033255 -0.0501729 0.2518449
v 0.2386396 0.1127668 -0.2040535
v 0.1841694 -0.1317618 0.4159951
v 0.1102512 0.1331786 -0.1806198
v 0.2043294 0.3910139 -0.0576053
v 0.2036081 -0.3454700 -0.0745369
v 0.2307199 -0.0216206 0.0076648
v 0.1880721 -0.1904482 -0.3977408
v 0.2316891 0.0050258 0.0360309
v 0.1650175 -0.0582765 0.1210363
v 0.2697472 0.2075369 0.3180746
v 0.1936395 0.0374730 -0.1107207
v 0.2087015 0.0669947 -0.0902324
v 0.2651696 -0.3323083 0.1528853
v 0.3199825 0.2854065 -0.0291325
v 0.2280523 0.3500388 0.0415163
v 0.2122606 -0.1142211 0.1853068
v 0.2650335 -0.2153955 -0.3377846
v 0.2431349 0.2252025 0.3575556
v 0.2595552 0.3609622 -0.1800840
v 0.2905636 -0.2424531 -0.3012302
v 0.4132950 -0.0498830 0.0788447
v 0.3198549 0.0428273 -0.2815440
v 0.3245930 -0.2296799 -0.1926124
v 0.2998716 -0.0210035 -0.0524873
v 0.3793607 0.0782110 -0.2319109
v 0.2795461 -0.3661436 0.1578749
v 0.3434071 -0.3273560 -0.0045856
v 0.3549494 -0.2894952 -0.1405760
v 0.3064225 0.0831771 -0.3698735
v 0.3683994 0.0694618 -0.3063631
v 0.2740107 0.3443149 -0.1698238
v 0.3478888 0.2596417 0.2197507
v 0.2629187 0.3761965 -0.1426971
v 0.3236107 -0.2760095 0.0052854
v 0.3540916 0.3237824 -0.0494872
v 0.3719242 -0.2671990 -0.1068083
v 0.3640468 -0.0651502 0.3180592
v 0.3494995 -0.3272043 0.0639137
v 0.3682705 -0.2701113 -0.1601422
v 0.3656023 0.2636082 0.0928106
v 0.3757260 0.2977970 0.0218155
v 0.3725780 -0.3021486 -0.0188253
v 0.3931950 -0.0025292 0.1407517
v 0.3703723 0.2953616 0.0975439
v 0.4355483 -0.0457637 0.2061051
v 0.3436237 -0.0915411 0.2975985
v 0.4425425 0.0461653 -0.1941192
v 0.4561200 0.0128383 -0.1332078
v 0.4693012 0.0100899 0.0384404
v 0.4783282 -0.0186409 0.0553359
# 200 vertices, 0 vertices normals

f 5 3 1
f 6 5 1
f 6 1 4
f 5 2 3
f 1 14 4
f 6 4 23
f 10 2 5
f 3 14 1
f 16 4 7
f 23 4 16
f 14 7 4
f 22 3 2
f 18 10 5
f 6 18 5
f 11 15 19
f 8 25 9
f 9 20 8
f 28 7 14
f 15 11 12
f 20 13 8
f 40 17 19
f 11 19 17
f 15 12 24
f 25 26 9
f 34 25 8
f 21 13 20
f 13 21 32
f 22 2 10
f 34 8 13
f 18 75 10
f 33 28 14
f 62 23 16
f 24 12 35
f 36 15 24
f 37 26 25
f 27 20 9
f 38 22 10
f 33 14 3
f 30 18 6
f 36 19 15
f 27 21 20
f 32 71 13
f 10 75 38
f 27 9 26
f 54 7 28
f 48 30 6
f 36 40 19
f 34 90 25
f 48 6 23
f 34 13 60
f 62 16 31
f 35 29 24
f 22 33 3
f 7 54 61
f 27 88 21
f 13 71 60
f 61 16 7
f 92 12 11
f 42 30 48
f 61 31 16
f 39 44 40
f 44 17 40
f 17 92 11
f 45 29 35
f 90 37 25
f 30 76 18
f 30 42 28
f 61 43 31
f 47 40 36
f 35 12 68
f 36 24 51
f 37 50 26
f 30 28 41
f 28 33 41
f 54 28 42
f 46 39 40
f 35 68 45
f 51 24 29
f 27 26 58
f 88 52 21
f 113 64 22
f 38 107 22
f 64 33 22
f 75 18 76
f 47 46 40
f 55 29 45
f 53 41 33
f 41 76 30
f 62 48 23
f 43 62 31
f 50 58 26
f 27 74 56
f 32 21 52
f 46 49 39
f 29 55 51
f 58 74 27
f 56 88 27
f 75 107 38
f 68 12 92
f 47 36 78
f 60 90 34
f 64 53 33
f 48 57 42
f 51 78 36
f 95 88 56
f 75 134 107
f 71 32 52
f 42 57 54
f 70 45 68
f 78 121 47
f 94 50 37
f 87 63 37
f 90 87 37
f 54 72 61
f 41 53 76
f 92 17 124
f 73 46 47
f 55 127 51
f 50 109 58
f 113 22 107
f 73 47 121
f 93 74 58
f 74 66 56
f 95 56 66
f 95 59 88
f 80 64 113
f 48 62 81
f 69 49 46
f 70 55 45
f 37 63 94
f 86 87 90
f 88 89 52
f 119 54 57
f 43 61 65
f 67 68 92
f 78 51 79
f 52 143 71
f 44 39 49
f 52 89 98
f 61 72 65
f 44 124 17
f 48 81 57
f 44 49 77
f 114 81 62
f 67 111 68
f 94 109 50
f 85 95 66
f 143 52 98
f 140 75 76
f 102 79 51
f 88 152 89
f 113 107 118
f 80 97 64
f 97 53 64
f 71 150 60
f 120 57 81
f 125 67 92
f 83 46 73
f 111 70 68
f 121 112 73
f 78 105 121
f 76 53 145
f 124 44 77
f 114 62 43
f 101 111 67
f 70 111 108
f 51 127 102
f 58 122 93
f 93 84 74
f 74 84 66
f 87 132 63
f 119 72 54
f 124 82 92
f 69 77 49
f 55 70 127
f 79 105 78
f 94 63 106
f 80 63 132
f 99 101 67
f 101 100 111
f 112 83 73
f 101 83 112
f 58 109 122
f 106 63 80
f 86 96 87
f 145 91 76
f 119 57 120
f 120 108 100
f 81 108 120
f 95 96 103
f 103 59 95
f 96 86 103
f 86 90 103
f 53 97 145
f 82 125 92
f 65 130 43
f 110 46 83
f 81 114 108
f 111 100 108
f 99 83 101
f 106 144 94
f 80 113 106
f 132 97 80
f 140 134 75
f 125 99 67
f 46 110 69
f 127 70 104
f 123 66 84
f 123 85 66
f 94 144 109
f 96 95 85
f 59 152 88
f 120 116 119
f 99 125 153
f 117 105 79
f 135 79 102
f 93 128 84
f 87 115 132
f 96 115 87
f 103 90 136
f 76 91 140
f 136 90 60
f 153 110 83
f 83 99 153
f 43 130 114
f 100 101 126
f 126 101 112
f 122 128 93
f 96 85 115
f 104 70 108
f 135 117 79
f 144 122 109
f 107 134 118
f 131 127 104
f 141 122 144
f 152 98 89
f 133 143 98
f 143 150 71
f 128 123 84
f 106 155 144
f 97 132 145
f 77 138 124
f 130 65 149
f 120 100 126
f 121 105 137
f 122 141 128
f 142 106 113
f 118 134 129
f 103 146 59
f 152 133 98
f 148 77 69
f 148 69 110
f 120 126 116
f 131 102 127
f 183 117 135
f 146 103 136
f 139 108 114
f 105 117 137
f 142 113 118
f 139 104 108
f 112 121 137
f 139 131 104
f 123 115 85
f 140 129 134
f 173 91 145
f 136 60 159
f 150 159 60
f 148 138 77
f 181 112 137
f 155 106 142
f 140 157 129
f 166 59 146
f 161 125 82
f 72 149 65
f 184 145 132
f 91 157 140
f 124 161 82
f 141 176 128
f 132 115 184
f 146 136 159
f 153 151 110
f 149 168 130
f 154 102 131
f 102 154 135
f 115 123 163
f 143 133 147
f 147 150 143
f 160 149 72
f 131 139 165
f 161 153 125
f 119 116 72
f 126 112 181
f 110 175 148
f 175 110 151
f 168 114 130
f 135 154 183
f 141 144 155
f 176 123 128
f 142 118 129
f 147 133 152
f 159 166 146
f 161 162 153
f 151 153 162
f 160 168 149
f 126 164 116
f 165 154 131
f 196 152 59
f 169 181 137
f 117 169 137
f 183 169 117
f 166 196 59
f 158 156 159
f 172 124 138
f 114 168 139
f 167 129 157
f 158 159 150
f 124 174 161
f 161 156 162
f 163 184 115
f 129 170 142
f 166 159 156
f 174 156 161
f 158 162 156
f 138 148 179
f 176 163 123
f 157 91 167
f 116 160 72
f 170 155 142
f 170 129 167
f 196 147 152
f 168 165 139
f 155 177 141
f 184 173 145
f 171 196 166
f 166 156 171
f 179 172 138
f 170 178 155
f 147 196 187
f 174 171 156
f 150 193 158
f 124 172 174
f 193 162 158
f 116 164 190
f 126 181 164
f 168 182 165
f 165 194 154
f 141 177 176
f 193 151 162
f 175 179 148
f 183 181 169
f 177 188 176
f 173 167 91
f 199 175 151
f 190 160 116
f 194 183 154
f 188 163 176
f 173 184 186
f 167 173 170
f 193 150 147
f 182 168 160
f 182 194 165
f 188 184 163
f 178 170 189
f 187 193 147
f 193 199 151
f 190 182 160
f 181 183 185
f 189 170 173
f 164 191 190
f 181 185 164
f 194 185 183
f 177 155 178
f 189 173 186
f 164 185 191
f 178 192 177
f 184 188 192
f 184 192 186
f 179 180 172
f 175 180 179
f 177 192 188
f 195 187 196
f 171 174 198
f 198 174 172
f 190 194 182
f 191 185 194
f 186 178 189
f 178 186 192
f 190 191 194
f 197 172 180
f 197 198 172
f 199 197 175
f 197 180 175
f 171 195 196
f 200 195 171
f 195 193 187
f 193 195 199
f 171 198 200
f 200 199 195
f 198 197 199
f 198 199 200
# 400 faces, 0 coords texture

# End of File
