####
#
# OBJ File Generated by Meshlab
#
####
# Object urchin210.obj
#
# Vertices: 107
# Faces: 210
#
####
v -1.0336891 -0.0859391 0.0688059
v -0.9785580 -0.0927605 -0.3377576
v -0.9163706 -0.4736640 0.2564206
v -0.8612724 0.1897987 0.2530530
v -0.7500788 -0.1814536 -0.7052636
v -0.7944520 -0.5074087 -0.4009108
v -0.8738991 0.2138328 -0.1237390
v -0.7947221 0.4780227 -0.2492854
v -0.8076423 0.5657079 0.0978952
v -0.7450325 0.2163459 -0.5065789
v -0.7236474 0.4326663 0.4714107
v -0.6780805 0.5801820 -0.5101904
v -0.7103579 0.0664243 0.6636899
v -0.7299496 -0.3874098 0.6280407
v -0.6356185 0.7758122 0.3999442
v -0.6279455 -0.5959517 0.3861956
v -0.4814720 -0.7649131 0.0722596
v -0.4346430 -0.5200718 -0.6621225
v -0.5524476 0.3930416 -0.7312541
v -0.3251231 0.1165829 0.9226670
v -0.2879477 0.9467431 0.0340363
v -0.2780276 -0.9538898 -0.2011679
v -0.4962823 0.1002557 -0.8327587
v -0.1989941 0.3642164 -0.9221292
v -0.3148033 0.8739125 -0.4040948
v -0.3473158 -0.7819288 0.4342154
v -0.3979815 -0.5181600 0.6869966
v -0.4290668 -0.2345313 -0.8854834
v -0.4266293 -0.2430572 0.8828818
v -0.2661479 0.4454671 0.8781903
v -0.0307016 -0.7785424 0.7022866
v -0.2440907 0.8661333 0.3957204
v -0.2131678 -0.8467183 -0.5334847
v -0.1145559 -0.3739400 0.9212017
v -0.0616891 0.6482443 0.6979517
v -0.2335924 -1.0045379 0.1319434
v -0.0775774 -0.9863399 0.4211430
v -0.2002167 -0.3772370 -0.8861902
v -0.0440997 -0.6388564 -0.8086184
v -0.1282348 -0.0790913 -0.9888322
v 0.1178623 -0.3646224 -0.9235533
v 0.0831029 0.8448683 -0.3636712
v -0.0467913 0.8971401 -0.1079592
v 0.0465378 0.8890029 0.1718318
v 0.0283418 -1.0873628 -0.1393229
v 0.1975365 -1.0335295 0.1000861
v 0.2847338 -0.0438376 -0.9620799
v -0.1045062 -0.0754576 0.9914824
v 0.0454906 -1.0137289 -0.3768223
v 0.3040449 -0.8703938 0.3611050
v 0.2079743 -0.1235080 0.9723661
v -0.0521117 0.6775319 -0.6607547
v 0.1799850 0.8004072 0.5109457
v 0.0420496 0.3129973 0.9391531
v 0.2949198 0.2496005 -0.9271474
v 0.2116597 -0.8268877 -0.5602120
v 0.1862119 -0.5275689 0.8232164
v 0.3873028 -0.6373101 0.5690322
v 0.3142809 0.7542440 -0.6166415
v 0.5554493 -0.0922103 0.8495940
v 0.5450146 -0.6680322 0.2994792
v 0.5196695 -0.2260798 -0.8518162
v 0.4013605 0.1848072 0.8756540
v 0.3081399 -0.9165025 -0.2338042
v 0.4842172 -0.3953710 0.7649605
v 0.4031356 0.9080487 -0.3210126
v 0.5193840 -0.6685068 -0.3428700
v 0.3154393 0.5725452 0.7946459
v 0.4316714 0.9195457 0.2768798
v 0.5078343 -0.7444310 0.0032972
v 0.5264051 0.4897101 -0.7313841
v 0.6359628 0.4631888 0.6165825
v 0.6907423 0.1458803 0.6335916
v 0.5394639 0.7329472 0.5587937
v 0.7415013 0.6537953 0.3231931
v 0.7035604 0.8346441 -0.0475814
v 0.7204444 0.3781470 -0.4893858
v 0.8794248 -0.5436862 0.0663044
v 0.6878456 -0.4366021 -0.6112212
v 0.6688433 0.7098678 -0.4255099
v 0.8270964 0.4223489 0.0429894
v 0.8064672 -0.2167571 0.6461889
v 0.9096901 0.0107118 0.4020117
v 0.7954069 0.5256597 -0.2214584
v 0.8011144 0.2933461 0.3228619
v 0.7928318 0.0217648 -0.5941573
v 1.0542586 -0.2249843 -0.1219379
v 0.9633082 -0.1873529 -0.4175227
v 1.0109417 -0.2732979 0.2936880
v 0.9685040 0.0517060 0.0830617
v -0.3796078 0.6633055 -0.7069448
v -0.9986678 -0.4214659 -0.1019406
v -0.9328992 -0.1132941 0.4561856
v -0.4942343 -0.7059531 -0.2887511
v -0.4679438 0.6669292 0.6679776
v -0.5471886 0.3012997 0.7475153
v 0.1726463 0.4859840 -0.8598405
v 0.7119052 -0.5162268 0.4756108
v -0.5929924 0.7289037 -0.1545178
v 0.2544841 0.9391070 -0.0706809
v 0.5370042 0.1859095 -0.7739382
v -0.5788260 0.9127873 0.1528254
v -0.7332725 -0.6235308 0.0056487
v 0.3660254 -0.5726780 -0.6581107
v 0.7852171 -0.5656545 -0.2587367
v 0.0645164 0.1957484 -0.9782664
v 0.9070258 0.1202256 -0.2224757
# 107 vertices, 0 vertices normals

f 2 92 1
f 7 1 4
f 3 93 1
f 93 4 1
f 2 1 7
f 7 10 2
f 2 6 92
f 2 5 6
f 10 5 2
f 9 7 4
f 93 14 13
f 13 4 93
f 6 103 92
f 5 18 6
f 13 11 4
f 7 8 10
f 4 11 9
f 9 8 7
f 12 8 99
f 15 9 11
f 102 9 15
f 6 18 94
f 12 10 8
f 11 95 15
f 14 16 27
f 5 28 18
f 28 5 23
f 10 23 5
f 19 23 10
f 12 19 10
f 99 102 21
f 6 94 103
f 13 96 11
f 96 95 11
f 20 96 13
f 96 30 95
f 91 19 12
f 16 17 26
f 23 40 28
f 20 13 29
f 27 34 29
f 19 24 23
f 30 35 95
f 32 15 95
f 102 15 32
f 32 21 102
f 26 27 16
f 14 27 29
f 33 18 39
f 94 18 33
f 37 31 26
f 23 24 40
f 17 36 26
f 37 26 36
f 26 31 27
f 27 31 34
f 28 38 18
f 38 28 40
f 91 52 24
f 49 22 33
f 94 33 22
f 29 34 48
f 48 54 20
f 43 42 25
f 33 56 49
f 57 34 31
f 54 30 20
f 22 45 36
f 36 45 46
f 36 46 37
f 45 22 49
f 18 38 39
f 51 48 34
f 32 35 53
f 46 50 37
f 50 31 37
f 41 38 40
f 44 43 21
f 21 32 44
f 52 97 24
f 53 44 32
f 33 39 56
f 39 104 56
f 39 38 41
f 40 106 47
f 41 47 62
f 40 47 41
f 51 34 57
f 63 54 51
f 52 42 59
f 49 64 45
f 45 64 46
f 58 31 50
f 54 68 35
f 100 43 44
f 69 44 53
f 58 57 31
f 59 42 66
f 42 100 66
f 69 100 44
f 70 61 50
f 46 64 70
f 50 61 58
f 68 53 35
f 67 64 56
f 57 65 51
f 59 71 97
f 61 98 58
f 58 65 57
f 60 63 51
f 49 56 64
f 51 65 60
f 104 62 79
f 63 68 54
f 68 63 72
f 59 66 80
f 76 66 100
f 67 79 105
f 72 63 73
f 80 77 71
f 68 74 53
f 69 53 74
f 64 67 70
f 65 82 60
f 60 73 63
f 68 72 74
f 66 76 80
f 75 76 69
f 77 86 101
f 70 78 61
f 75 69 74
f 85 72 73
f 61 78 98
f 73 60 82
f 72 75 74
f 70 67 105
f 75 72 85
f 77 80 84
f 76 84 80
f 84 76 81
f 81 76 75
f 98 89 82
f 86 88 79
f 83 73 82
f 83 85 73
f 77 84 107
f 81 75 85
f 84 81 107
f 83 82 89
f 88 86 107
f 87 89 78
f 105 88 87
f 83 90 85
f 90 81 85
f 89 98 78
f 87 90 89
f 89 90 83
f 91 24 19
f 54 35 30
f 77 107 86
f 107 81 90
f 1 92 3
f 92 103 3
f 103 94 17
f 30 96 20
f 32 95 35
f 97 55 106
f 70 50 46
f 59 97 52
f 98 65 58
f 76 100 69
f 80 71 59
f 98 82 65
f 99 21 25
f 43 25 21
f 52 91 25
f 43 100 42
f 55 101 47
f 77 101 71
f 101 86 62
f 16 14 3
f 52 25 42
f 3 103 16
f 9 102 99
f 104 39 41
f 104 41 62
f 62 86 79
f 14 93 3
f 17 94 22
f 29 13 14
f 17 22 36
f 47 101 62
f 48 20 29
f 70 105 78
f 88 105 79
f 103 17 16
f 9 99 8
f 25 91 12
f 51 54 48
f 104 67 56
f 104 79 67
f 87 107 90
f 55 97 71
f 99 25 12
f 101 55 71
f 24 106 40
f 106 55 47
f 78 105 87
f 88 107 87
f 97 106 24
# 210 faces, 0 coords texture

# End of File
