####
#
# OBJ File Generated by Meshlab
#
####
# Object wobbly_torus300.obj
#
# Vertices: 150
# Faces: 300
#
####
v -0.5146534 0.0958511 -0.1279065
v -0.5369717 0.0680389 0.0398525
v -0.4327547 -0.1793794 0.0350219
v -0.4113372 0.0332453 -0.1755269
v -0.4136166 -0.0529423 0.0991520
v -0.3995803 -0.1823132 -0.0967892
v -0.4453177 -0.0816201 -0.2737550
v -0.4533042 -0.1221519 0.1815762
v -0.4288717 0.1138623 -0.2608166
v -0.4453257 0.0115242 -0.0381524
v -0.4873949 0.0806010 0.1971890
v -0.3851723 0.0800561 0.0942520
v -0.3527176 0.1791768 0.1490719
v -0.4006622 -0.0709689 0.3526616
v -0.2795209 0.1650894 -0.0664197
v -0.2819673 -0.0771293 0.0671117
v -0.2896664 -0.0444118 0.3401902
v -0.2780272 -0.1764896 0.2319013
v -0.2803176 0.0776797 -0.0225662
v -0.2990424 -0.0989537 -0.1244376
v -0.3363460 0.0850445 0.2029377
v -0.2635232 -0.1636404 -0.1811141
v -0.3823952 0.1778673 0.0305101
v -0.3223097 0.0707351 -0.2737028
v -0.3274208 0.1580149 0.2837749
v -0.3362688 -0.1096993 -0.3863865
v -0.3055553 0.1341410 -0.3553120
v -0.2775472 0.1744884 -0.1634797
v -0.2454569 0.0967453 0.2863577
v -0.2798263 0.0460460 0.4379989
v -0.2402890 -0.0928423 -0.2047154
v -0.3627917 -0.0702402 0.2214447
v -0.2188906 -0.1716496 0.3522908
v -0.2665737 0.0736867 0.0634558
v -0.1775802 0.0036247 0.4257364
v -0.2429343 0.0631472 -0.1001501
v -0.1973443 0.0023946 0.1203058
v -0.2074164 0.0989721 -0.3306282
v -0.3025902 -0.0902774 -0.0208633
v -0.1876672 -0.0624272 0.0139387
v -0.2357528 -0.0560916 -0.3769799
v -0.1899634 0.0482901 -0.1608670
v -0.1730056 -0.0487287 -0.0402869
v -0.2412604 0.1319242 0.0201567
v -0.2146401 0.1591574 0.3447718
v -0.1877697 0.0892892 0.0792184
v -0.2348277 -0.1519829 0.0941578
v -0.2008131 0.0802348 -0.4674544
v -0.2072169 0.1516958 0.1750531
v -0.1493057 0.0077977 -0.0922510
v -0.1594171 0.0251840 0.1825921
v -0.1640418 0.1400880 -0.1876744
v -0.1789108 -0.1369479 -0.4210274
v -0.1702820 -0.1296025 -0.2125271
v -0.1406307 -0.0550401 0.1215317
v -0.1098962 -0.0031094 -0.4512169
v -0.1324496 0.1079170 0.3130855
v -0.1368760 0.1432359 0.2252882
v -0.1513518 -0.0803022 0.1942109
v -0.1243846 -0.1085767 0.2952706
v -0.1221465 -0.0848242 0.4899358
v -0.1569636 0.0963344 -0.2538746
v -0.1301519 0.1655491 -0.3188948
v -0.0527386 -0.1422139 0.2924322
v -0.1226703 -0.0214550 -0.1726514
v -0.1017185 0.1565046 0.4249662
v -0.1027662 -0.1423316 -0.2471516
v -0.0922497 -0.0129335 0.1899494
v -0.0845520 0.1070976 -0.3508170
v -0.0089967 0.0751902 0.4627165
v -0.0779277 0.0614390 -0.1736598
v -0.0804652 -0.1138347 -0.3429005
v -0.0602498 -0.0017006 -0.2198030
v -0.0287685 -0.0448255 0.2205321
v -0.0423333 0.0591651 -0.4989027
v -0.0389741 0.0974211 0.2378023
v -0.0193660 -0.0903804 -0.2137777
v -0.0431354 -0.0145002 0.4637528
v 0.0433535 -0.0134153 0.5082805
v -0.0201156 0.0892570 -0.2182487
v -0.0272049 0.1616779 -0.3844061
v -0.0378891 -0.1107145 -0.4756700
v 0.0227107 -0.1477690 0.2905133
v 0.0154379 0.0351335 0.1872245
v 0.0312558 -0.1289365 0.4430793
v 0.0334151 -0.0735991 -0.4421146
v 0.0289164 0.1606808 0.3417186
v 0.0205076 -0.0871592 -0.2618701
v 0.0321496 0.1011313 -0.2543256
v 0.0737332 -0.0647020 -0.2008864
v 0.0797329 -0.1157795 0.2519788
v 0.0272201 0.0852612 -0.4252590
v 0.1469838 -0.1085642 0.4279959
v 0.0631126 0.0961151 0.2687961
v 0.0976531 0.1283908 -0.4421259
v 0.0770442 -0.1645851 -0.3138324
v 0.1037448 -0.0455634 0.4451976
v 0.0973187 0.0861492 0.4174963
v 0.1072850 -0.0491049 -0.4858091
v 0.0988932 -0.0167728 -0.1786494
v 0.1651650 0.1526290 -0.2544682
v 0.1584902 -0.0640097 -0.1808100
v 0.1160753 0.1205960 -0.2966936
v 0.1192054 -0.0237628 0.1658962
v 0.1889051 0.0457733 0.4601201
v 0.1802112 0.0362143 -0.1234819
v 0.1562530 0.0461173 -0.1802656
v 0.0866914 0.0640089 0.1822570
v 0.2041982 -0.1141034 0.3387631
v 0.1487485 -0.1176042 -0.3702175
v 0.1857279 -0.0887768 0.1640834
v 0.1829692 -0.0130354 0.0824454
v 0.2524202 0.1327934 -0.2746740
v 0.2072157 -0.1348845 -0.2881536
v 0.2730024 -0.1357400 0.3277880
v 0.1748728 0.0307572 -0.4343599
v 0.1958983 -0.0079258 -0.0178947
v 0.2302611 0.1211119 -0.1644019
v 0.2717797 -0.1243495 -0.1553350
v 0.2024104 -0.0391964 -0.0701839
v 0.2537528 -0.1120538 0.1127130
v 0.2219558 0.0291980 -0.0557107
v 0.2215853 -0.0518332 0.0298497
v 0.1664881 0.1326501 0.3525730
v 0.2636968 -0.0529835 -0.4215541
v 0.1834971 0.0435499 -0.0893220
v 0.2271549 0.1463961 0.2302098
v 0.2192013 0.1059750 0.1362032
v 0.2436529 0.1012789 -0.3742271
v 0.3186359 -0.0976765 -0.3198827
v 0.2649904 0.0928546 0.0177531
v 0.2653295 0.0443698 0.3972839
v 0.2468591 -0.1458975 -0.2063633
v 0.3142638 0.1537628 -0.1252417
v 0.3541646 -0.1361952 -0.0939507
v 0.3390855 -0.1175649 0.2476399
v 0.3724599 0.1349156 -0.0726882
v 0.3197433 -0.1399676 0.1001462
v 0.3630740 0.0123864 0.3171571
v 0.3867550 0.0193951 -0.3213743
v 0.4415110 -0.1102396 0.0930926
v 0.3875009 0.1282808 0.0612917
v 0.3146402 -0.1329093 0.0072745
v 0.4026897 0.0845123 0.2480835
v 0.4385875 -0.0340225 0.1889925
v 0.4220653 0.0733702 -0.2052958
v 0.4721056 0.0328635 0.1229742
v 0.4210359 -0.1284728 -0.0375983
v 0.4314705 -0.0548604 -0.1926642
v 0.4965229 -0.0005195 -0.0309512
# 150 vertices, 0 vertices normals

f 6 10 1
f 4 6 1
f 5 2 3
f 10 3 2
f 11 5 8
f 12 2 5
f 11 8 32
f 5 11 12
f 7 4 9
f 2 23 10
f 10 6 39
f 21 13 11
f 20 6 4
f 12 23 2
f 32 21 11
f 7 9 24
f 4 28 9
f 21 32 14
f 10 23 19
f 13 12 11
f 15 1 10
f 10 39 3
f 5 47 8
f 20 4 7
f 25 21 14
f 34 12 13
f 47 32 8
f 22 20 7
f 32 18 14
f 19 15 10
f 1 15 4
f 3 16 5
f 47 5 16
f 12 44 23
f 24 22 7
f 26 22 24
f 27 26 24
f 14 17 25
f 36 28 4
f 25 17 29
f 34 44 12
f 9 28 24
f 6 43 39
f 23 44 19
f 25 49 21
f 3 39 40
f 22 26 31
f 26 27 41
f 15 36 4
f 46 34 13
f 29 17 30
f 21 37 13
f 16 3 40
f 32 47 37
f 17 33 30
f 27 24 52
f 37 46 13
f 54 31 26
f 20 43 6
f 35 30 33
f 27 38 41
f 29 30 45
f 49 37 21
f 18 17 14
f 43 20 36
f 16 40 34
f 28 42 24
f 49 25 29
f 18 59 17
f 28 36 50
f 52 38 27
f 50 20 22
f 37 18 32
f 15 19 43
f 15 43 36
f 35 45 30
f 52 62 38
f 37 55 18
f 41 48 53
f 39 43 19
f 40 44 34
f 50 42 28
f 52 24 42
f 41 54 26
f 31 50 22
f 19 40 39
f 34 47 16
f 34 46 47
f 38 48 41
f 19 44 40
f 55 59 18
f 37 47 46
f 59 33 17
f 48 56 53
f 50 31 42
f 50 36 20
f 51 49 29
f 33 60 35
f 55 51 59
f 49 55 37
f 57 45 35
f 58 29 45
f 42 31 65
f 38 62 63
f 51 29 58
f 38 63 48
f 58 45 57
f 31 54 65
f 49 51 55
f 53 67 41
f 42 65 52
f 66 35 61
f 67 54 41
f 67 65 54
f 35 66 57
f 71 63 62
f 60 33 59
f 60 61 35
f 51 68 59
f 65 62 52
f 58 68 51
f 48 69 56
f 48 63 69
f 72 67 53
f 61 60 64
f 59 68 60
f 56 72 53
f 62 65 71
f 68 58 57
f 67 71 65
f 78 66 61
f 71 69 63
f 57 66 76
f 64 60 74
f 73 67 72
f 73 71 67
f 74 60 68
f 57 76 68
f 64 78 61
f 56 82 72
f 82 56 75
f 69 75 56
f 73 69 71
f 66 78 70
f 74 68 76
f 75 69 81
f 73 80 69
f 76 66 70
f 77 73 72
f 80 81 69
f 73 77 80
f 88 72 82
f 82 86 88
f 72 88 77
f 79 78 85
f 88 80 77
f 70 78 79
f 76 70 87
f 89 81 80
f 74 83 64
f 85 78 64
f 75 86 82
f 89 80 88
f 76 84 74
f 92 75 81
f 84 76 87
f 92 81 89
f 83 74 84
f 85 64 83
f 75 92 86
f 96 88 86
f 90 88 96
f 84 91 83
f 94 91 84
f 89 88 90
f 85 83 93
f 94 84 87
f 95 92 89
f 91 93 83
f 92 99 86
f 92 95 99
f 94 87 98
f 86 99 96
f 94 108 91
f 98 87 70
f 97 79 85
f 90 100 89
f 98 70 79
f 93 97 85
f 100 103 89
f 96 110 90
f 98 79 97
f 108 94 124
f 103 95 89
f 99 110 96
f 108 104 91
f 103 100 101
f 124 94 98
f 102 107 100
f 107 101 100
f 100 90 102
f 99 116 110
f 116 99 95
f 90 110 114
f 104 109 91
f 105 98 97
f 124 98 105
f 103 116 95
f 127 104 108
f 91 109 93
f 105 97 93
f 107 102 106
f 104 128 111
f 109 104 111
f 116 103 129
f 113 101 107
f 114 102 90
f 128 112 111
f 104 127 128
f 127 108 124
f 101 129 103
f 115 109 111
f 110 125 114
f 119 102 133
f 106 102 119
f 118 107 106
f 118 113 107
f 125 110 116
f 106 120 126
f 93 132 105
f 124 105 132
f 133 102 114
f 132 93 109
f 112 123 121
f 122 126 120
f 116 129 125
f 131 123 112
f 126 118 106
f 101 113 129
f 111 112 121
f 134 126 122
f 120 106 119
f 117 122 120
f 131 117 123
f 135 120 119
f 143 123 117
f 117 131 122
f 128 131 112
f 127 124 132
f 130 133 114
f 111 136 115
f 114 125 130
f 117 120 143
f 122 137 134
f 138 121 123
f 115 132 109
f 137 122 131
f 118 126 134
f 136 111 121
f 143 120 135
f 138 123 143
f 125 129 140
f 137 131 142
f 140 130 125
f 132 139 127
f 131 128 142
f 146 113 118
f 129 113 140
f 134 146 118
f 138 136 121
f 139 115 136
f 139 132 115
f 135 148 143
f 113 146 140
f 141 138 143
f 133 135 119
f 144 142 128
f 127 144 128
f 149 133 130
f 139 144 127
f 149 130 140
f 138 145 136
f 133 149 135
f 140 146 149
f 142 144 147
f 141 143 150
f 145 139 136
f 141 145 138
f 145 144 139
f 146 134 137
f 135 149 148
f 148 150 143
f 147 144 145
f 146 137 150
f 150 137 142
f 147 145 141
f 150 149 146
f 150 142 147
f 150 147 141
f 149 150 148
# 300 faces, 0 coords texture

# End of File
