####
#
# OBJ File Generated by Meshlab
#
####
# Object wobbly_torus200.obj
#
# Vertices: 100
# Faces: 200
#
####
v -0.5218163 0.1177570 0.0401505
v -0.4082056 0.0674793 0.1010899
v -0.4299111 0.0553555 -0.0346277
v -0.4937379 -0.0539041 0.2023932
v -0.4039726 0.1804916 0.1676033
v -0.4113372 0.0332453 -0.1755269
v -0.5204468 0.0698002 -0.1295004
v -0.3148670 0.1834502 -0.0739682
v -0.4453177 -0.0816201 -0.2737550
v -0.3963527 -0.1807313 -0.0953719
v -0.2940780 -0.1508927 0.0064076
v -0.4288717 0.1138623 -0.2608166
v -0.4327547 -0.1793794 0.0350219
v -0.3950396 0.0981412 0.3318798
v -0.3224466 -0.1892410 0.1335509
v -0.3742688 -0.0402318 0.2250245
v -0.3294777 -0.1741381 0.2855884
v -0.3629347 -0.0958704 0.0872485
v -0.2537256 -0.1260649 0.3601780
v -0.2635232 -0.1636404 -0.1811141
v -0.1896131 0.0260349 0.0573395
v -0.3223097 0.0707351 -0.2737028
v -0.3362688 -0.1096993 -0.3863865
v -0.3055553 0.1341410 -0.3553120
v -0.2449894 0.1504611 0.1817355
v -0.2775472 0.1744884 -0.1634797
v -0.2123169 0.1220958 0.0144056
v -0.2402890 -0.0928423 -0.2047154
v -0.1949439 -0.0142665 -0.0251659
v -0.2990424 -0.0989537 -0.1244376
v -0.2429343 0.0631472 -0.1001501
v -0.1824165 0.1174823 -0.2911082
v -0.1666423 0.0854647 0.3941019
v -0.1749741 0.0909940 -0.1619899
v -0.2764713 0.0919986 0.4446988
v -0.2032218 -0.0863498 0.1367542
v -0.2008131 0.0802348 -0.4674544
v -0.2281578 0.1099269 0.2685628
v -0.1493057 0.0077977 -0.0922510
v -0.1354129 -0.0879473 0.1812962
v -0.2082471 -0.1044686 -0.3813214
v -0.1702820 -0.1296025 -0.2125271
v -0.1858231 0.0636009 0.1253388
v -0.1098962 -0.0031094 -0.4512169
v -0.1221465 -0.0848242 0.4899358
v -0.1571880 -0.0858800 0.3758921
v -0.0949919 0.1355081 -0.2987132
v -0.1370135 0.1439442 0.2260122
v -0.0896481 -0.0484065 0.2199734
v -0.1025122 0.1554144 0.4236713
v -0.0969178 0.0402379 -0.1622585
v -0.0670317 -0.1568743 0.2863588
v -0.0854813 -0.1316065 -0.2718403
v -0.0389532 -0.0754687 0.4387754
v -0.0423312 -0.0151927 0.1822289
v -0.0138670 0.0580112 -0.4798306
v -0.0542539 0.0986013 0.2140200
v -0.0107868 0.0734961 0.2435691
v -0.0226539 -0.0916865 0.2867187
v -0.0057410 0.1048963 0.4366003
v -0.0453424 -0.0049270 -0.1953360
v 0.0047512 0.1522487 -0.3498859
v -0.0378891 -0.1107145 -0.4756700
v 0.0190415 0.1465743 0.2750975
v 0.0109936 -0.1238598 0.2259930
v 0.0531279 -0.0602109 -0.4639648
v 0.0876636 0.0573588 0.1949448
v 0.0205076 -0.0871592 -0.2618701
v 0.0737332 -0.0647020 -0.2008864
v 0.0925390 0.1245556 -0.2697457
v 0.0659367 -0.1283251 0.4116719
v 0.0770442 -0.1645851 -0.3138324
v 0.0854890 -0.0761738 0.2263315
v 0.0604563 -0.0003651 0.4881449
v 0.1756680 -0.1341424 0.3322710
v 0.1188814 -0.0266981 -0.1706335
v 0.1802294 0.0396309 -0.1131430
v 0.1750468 0.1349909 -0.2201414
v 0.1487485 -0.1176042 -0.3702175
v 0.1960895 -0.0464826 0.4637455
v 0.1295815 0.0970796 0.4234168
v 0.1752874 -0.0692077 0.1388796
v 0.3041575 0.1276632 -0.2827013
v 0.1164164 0.1065824 -0.4487064
v 0.3003424 -0.1403488 -0.1531255
v 0.2045201 -0.0425079 -0.0266728
v 0.1545268 0.1471323 0.2645735
v 0.2781756 0.0240199 -0.4323673
v 0.2094546 0.1065388 0.1590156
v 0.2297366 0.0990182 0.0865601
v 0.2653716 -0.1242494 -0.3303286
v 0.3007056 0.0665397 0.3688855
v 0.3239874 -0.1213444 0.2980433
v 0.3470424 0.1418362 -0.0453952
v 0.3068857 -0.1405780 0.0902425
v 0.3867550 0.0193951 -0.3213743
v 0.3932063 0.1231037 0.1453925
v 0.4722657 0.0075523 -0.1640719
v 0.4620461 -0.0936851 -0.0459904
v 0.4621132 0.0068476 0.1859398
# 100 vertices, 0 vertices normals

f 10 3 7
f 6 10 7
f 2 1 13
f 3 13 1
f 18 2 13
f 3 11 13
f 5 2 4
f 4 2 18
f 3 10 11
f 9 6 12
f 15 4 18
f 5 4 16
f 5 16 25
f 7 3 8
f 30 10 6
f 15 16 4
f 9 12 22
f 6 26 12
f 6 7 8
f 14 16 17
f 30 6 9
f 20 30 9
f 14 25 16
f 19 14 17
f 2 5 21
f 1 27 3
f 2 27 1
f 16 15 36
f 22 20 9
f 23 20 22
f 38 14 19
f 24 23 22
f 29 8 3
f 31 26 6
f 25 43 5
f 36 17 16
f 21 27 2
f 12 26 22
f 27 29 3
f 29 11 10
f 20 23 28
f 23 24 41
f 8 31 6
f 25 14 38
f 38 19 35
f 18 13 11
f 21 15 18
f 24 22 34
f 42 28 23
f 30 29 10
f 17 40 19
f 24 32 41
f 29 30 31
f 18 11 21
f 26 34 22
f 26 31 39
f 21 5 43
f 34 32 24
f 39 30 20
f 8 29 31
f 15 21 36
f 36 21 43
f 35 19 46
f 39 34 26
f 41 42 23
f 28 39 20
f 33 35 46
f 11 29 27
f 27 21 11
f 32 37 41
f 40 17 36
f 37 44 41
f 39 28 34
f 39 31 30
f 38 43 25
f 48 38 35
f 46 19 40
f 34 28 51
f 32 47 37
f 48 35 33
f 40 49 46
f 28 42 51
f 40 36 43
f 46 45 33
f 43 38 40
f 50 33 45
f 53 42 41
f 53 51 42
f 51 47 32
f 51 32 34
f 48 40 38
f 37 47 44
f 45 46 52
f 46 49 52
f 44 53 41
f 48 33 49
f 54 50 45
f 40 48 49
f 33 50 57
f 52 49 55
f 61 51 53
f 33 57 49
f 44 63 53
f 63 44 56
f 50 54 60
f 47 56 44
f 61 47 51
f 54 45 52
f 55 49 57
f 56 47 62
f 59 54 52
f 57 50 58
f 50 60 58
f 59 52 58
f 52 55 58
f 55 57 58
f 61 62 47
f 68 53 63
f 63 66 68
f 53 68 61
f 60 54 74
f 74 54 71
f 65 59 58
f 64 58 60
f 59 65 54
f 56 66 63
f 62 61 68
f 58 64 65
f 71 54 65
f 64 67 65
f 72 68 66
f 69 68 72
f 71 65 73
f 67 73 65
f 68 70 62
f 70 68 69
f 84 56 62
f 84 62 70
f 64 60 81
f 56 84 66
f 67 64 81
f 69 76 70
f 81 60 74
f 75 71 73
f 72 79 69
f 66 79 72
f 70 76 78
f 87 67 81
f 71 80 74
f 75 80 71
f 66 84 79
f 69 79 91
f 67 82 73
f 81 74 80
f 78 76 77
f 67 89 82
f 75 73 82
f 84 70 88
f 91 76 69
f 67 87 89
f 78 88 70
f 93 75 82
f 79 88 91
f 77 76 85
f 89 90 82
f 88 79 84
f 82 90 95
f 92 81 80
f 87 81 92
f 85 76 91
f 92 80 75
f 86 95 90
f 94 86 90
f 78 83 88
f 95 93 82
f 94 77 86
f 86 77 85
f 87 92 89
f 93 92 75
f 78 77 94
f 97 89 92
f 89 97 90
f 96 91 88
f 88 83 96
f 94 83 78
f 86 99 95
f 97 94 90
f 85 99 86
f 98 85 91
f 98 91 96
f 92 100 97
f 95 100 93
f 93 100 92
f 94 98 83
f 96 83 98
f 85 98 99
f 98 94 97
f 100 95 99
f 99 98 100
f 98 97 100
# 200 faces, 0 coords texture

# End of File
