v 79.16883116883118 41.41991341991343 0.0
v 84.34632034632033 55.75757575757575 0.0
v 89.92207792207792 64.12121212121212 0.0
v 93.5064935064935 79.65367965367966 0.0
v 95.0995670995671 90.80519480519479 0.0
v 97.09090909090908 99.16883116883116 0.0
v 99.48051948051948 109.52380952380952 0.0
v 100.67532467532466 118.68398268398266 0.0
v 100.67532467532466 125.45454545454544 0.0
v 100.67532467532466 129.4372294372294 0.0
v 100.67532467532466 137.80086580086578 0.0
v 100.67532467532466 143.77489177489178 0.0
v 99.87878787878786 151.34199134199133 0.0
v 99.87878787878786 157.31601731601728 0.0
v 94.3030303030303 165.67965367965365 0.0
v 89.5238095238095 172.05194805194805 0.0
v 70.8051948051948 176.43290043290042 0.0
v 59.653679653679646 181.6103896103896 0.0
v 54.47619047619047 188.77922077922076 0.0
v 51.29004329004327 195.54978354978354 0.0
v 50.09523809523809 203.9134199134199 0.0
v 50.49350649350647 209.88744588744586 0.0
v 54.87445887445888 221.03896103896102 0.0
v 60.05194805194803 227.41125541125538 0.0
v 66.82251082251081 234.18181818181816 0.0
v 72.3982683982684 238.96103896103895 0.0
v 77.97402597402596 242.54545454545453 0.0
v 84.34632034632033 246.1298701298701 0.0
v 90.71861471861472 248.1212121212121 0.0
v 105.45454545454545 251.3073593073593 0.0
v 119.79220779220778 253.29870129870127 0.0
v 128.15584415584414 259.6709956709957 0.0
v 130.14718614718612 273.6103896103896 0.0
v 134.9264069264069 281.97402597402595 0.0
v 136.5194805194805 292.7272727272727 0.0
v 140.50216450216448 303.08225108225105 0.0
v 145.28138528138527 311.04761904761904 0.0
v 150.06060606060606 317.8181818181818 0.0
v 155.23809523809524 322.19913419913416 0.0
v 161.2121212121212 326.97835497835496 0.0
v 168.38095238095235 328.96969696969694 0.0
v 173.95670995670997 328.96969696969694 0.0
v 177.93939393939394 321.8008658008658 0.0
v 174.35497835497836 306.26839826839824 0.0
v 169.57575757575756 295.9134199134199 0.0
v 165.1948051948052 285.16017316017314 0.0
v 162.00865800865802 273.2121212121212 0.0
v 159.6190476190476 267.6363636363636 0.0
v 167.1861471861472 276.0 0.0
v 176.34632034632034 283.56709956709955 0.0
v 183.91341991341994 289.9393939393939 0.0
v 190.68398268398272 294.71861471861473 0.0
v 196.65800865800867 298.30303030303025 0.0
v 210.5974025974026 304.67532467532465 0.0
v 219.75757575757575 305.87012987012986 0.0
v 221.35064935064935 301.09090909090907 0.0
v 218.96103896103898 292.7272727272727 0.0
v 216.969696969697 285.55844155844153 0.0
v 212.5887445887446 278.38961038961037 0.0
v 205.41991341991343 271.2207792207792 0.0
v 197.85281385281388 264.45021645021643 0.0
v 191.4805194805195 259.27272727272725 0.0
v 183.91341991341994 253.29870129870127 0.0
v 175.15151515151518 250.90909090909088 0.0
v 165.99134199134198 241.74891774891773 0.0
v 158.025974025974 232.19047619047618 0.0
v 154.04329004329003 223.8268398268398 0.0
v 153.24675324675326 211.48051948051946 0.0
v 156.034632034632 203.1168831168831 0.0
v 158.025974025974 201.52380952380952 0.0
v 166.38961038961037 195.54978354978354 0.0
v 173.16017316017314 193.16017316017314 0.0
v 181.52380952380952 188.77922077922076 0.0
v 207.8095238095238 180.8138528138528 0.0
v 224.93506493506493 170.06060606060603 0.0
v 234.09523809523813 163.2900432900433 0.0
v 238.87445887445887 159.30735930735926 0.0
v 245.64502164502164 152.53679653679654 0.0
v 251.2207792207792 145.76623376623377 0.0
v 256.3982683982684 138.995670995671 0.0
v 260.3809523809524 133.02164502164499 0.0
v 266.75324675324674 119.48051948051949 0.0
v 270.3376623376623 109.52380952380952 0.0
v 271.53246753246754 98.37229437229433 0.0
v 272.72727272727275 92.0 0.0
v 272.72727272727275 83.63636363636363 0.0
v 281.0909090909091 74.47619047619048 0.0
v 286.2683982683983 64.9177489177489 0.0
v 284.27705627705626 56.155844155844136 0.0
v 279.0995670995671 48.987012987012974 0.0
v 269.14285714285717 44.606060606060566 0.0
v 261.1774891774892 42.2164502164502 0.0
v 246.83982683982686 34.25108225108221 0.0
v 229.71428571428572 34.25108225108221 0.0
v 222.94372294372295 33.852813852813824 0.0
v 212.5887445887446 33.45454545454544 0.0
v 184.7099567099567 33.45454545454544 0.0
v 169.57575757575756 33.45454545454544 0.0
v 148.86580086580085 33.45454545454544 0.0
v 137.31601731601734 35.84415584415581 0.0
v 130.94372294372295 35.44588744588742 0.0
v 127.35930735930735 41.81818181818181 0.0
v 127.35930735930735 46.99567099567099 0.0
v 132.53679653679654 52.17316017316017 0.0
v 140.90043290043292 55.75757575757575 0.0
v 147.27272727272725 58.943722943722946 0.0
v 152.45021645021643 61.333333333333314 0.0
v 156.43290043290045 68.50216450216448 0.0
v 153.64502164502164 71.68831168831167 0.0
v 148.46753246753246 76.06926406926402 0.0
v 144.08658008658006 78.06060606060606 0.0
v 137.71428571428572 82.44155844155841 0.0
v 132.13852813852816 84.83116883116884 0.0
v 121.38528138528137 80.84848484848482 0.0
v 119.39393939393939 72.48484848484844 0.0
v 114.6147186147186 62.52813852813853 0.0
v 113.02164502164503 56.55411255411252 0.0
v 109.03896103896103 48.19047619047615 0.0
v 103.46320346320347 41.021645021644986 0.0
v 94.3030303030303 37.03896103896102 0.0
v 85.93939393939392 36.640692640692635 0.0
l 1 2
l 2 3
l 3 4
l 4 5
l 5 6
l 6 7
l 7 8
l 8 9
l 9 10
l 10 11
l 11 12
l 12 13
l 13 14
l 14 15
l 15 16
l 16 17
l 17 18
l 18 19
l 19 20
l 20 21
l 21 22
l 22 23
l 23 24
l 24 25
l 25 26
l 26 27
l 27 28
l 28 29
l 29 30
l 30 31
l 31 32
l 32 33
l 33 34
l 34 35
l 35 36
l 36 37
l 37 38
l 38 39
l 39 40
l 40 41
l 41 42
l 42 43
l 43 44
l 44 45
l 45 46
l 46 47
l 47 48
l 48 49
l 49 50
l 50 51
l 51 52
l 52 53
l 53 54
l 54 55
l 55 56
l 56 57
l 57 58
l 58 59
l 59 60
l 60 61
l 61 62
l 62 63
l 63 64
l 64 65
l 65 66
l 66 67
l 67 68
l 68 69
l 69 70
l 70 71
l 71 72
l 72 73
l 73 74
l 74 75
l 75 76
l 76 77
l 77 78
l 78 79
l 79 80
l 80 81
l 81 82
l 82 83
l 83 84
l 84 85
l 85 86
l 86 87
l 87 88
l 88 89
l 89 90
l 90 91
l 91 92
l 92 93
l 93 94
l 94 95
l 95 96
l 96 97
l 97 98
l 98 99
l 99 100
l 100 101
l 101 102
l 102 103
l 103 104
l 104 105
l 105 106
l 106 107
l 107 108
l 108 109
l 109 110
l 110 111
l 111 112
l 112 113
l 113 114
l 114 115
l 115 116
l 116 117
l 117 118
l 118 119
l 119 120
l 120 121
l 121 1
