v -0.19983143514418503 -0.9553276736585509 0.0
v -0.21071855350271596 -0.8355692929790217 0.0
v -0.21725082058105008 -0.7092786452211582 0.0
v -0.21942825606310962 -0.6483107469823248 0.0
v -0.16281520910447314 -0.61564937222281 0.0
v -0.11926669630250492 -0.6025848183822193 0.0
v -0.11491184502230808 -0.4458102116629783 0.0
v -0.10837957794397397 -0.238954844747357 0.0
v -0.21071855350271596 -0.2041160345057824 0.0
v -0.3174123803416548 -0.06476083290732858 0.0
v -0.3566060221795039 0.09419118961004987 0.0
v -0.37184801150215396 0.22483668864811013 0.0
v -0.38273512986068486 0.30975627876998707 0.0
v -0.32829949870018565 0.39685326500607904 0.0
v -0.26515418466321516 0.33370795096910844 0.0
v -0.24773477954242784 0.2270141241301697 0.0
v -0.2390250769820342 0.10072347637230625 0.0
v -0.17152489198094453 -0.04298657650634442 0.0
v -0.11273442922417079 -0.10395449442909999 0.0
v -0.09966987538358033 0.06806208192886891 0.0
v -0.08660532154298986 0.11378801052897444 0.0
v -0.08225047026279303 0.23790124248870065 0.0
v -0.08660532154298986 0.3663693257286235 0.0
v -0.08225047026279303 0.48830512220629013 0.0
v -0.08442790574485258 0.5797569794065012 0.0
v -0.08660532154298986 0.7147573297247581 0.0
v -0.09313760830524621 0.8105640185212438 0.0
v -0.07136335190426209 0.9346772504809701 0.0
v -0.010395453665428819 1.0 0.0
v 0.04404017749507036 0.9477418043215603 0.0
v 0.07016928517625132 0.891128757362924 0.0
v 0.07670155225458541 0.7866123463221224 0.0
v 0.07670155225458541 0.6058860674037599 0.0
v 0.08541125481497906 0.41209525432872907 0.0
v 0.08758867061311634 0.31193369456812436 0.0
v 0.08758867061311634 0.20959471900938237 0.0
v 0.16379855817459962 0.30757884328792756 0.0
v 0.22258902093137337 0.4338694910457909 0.0
v 0.27049238501353845 0.5340310508063956 0.0
v 0.33363769905050905 0.5906440977650321 0.0
v 0.3837184789308114 0.5558053072073798 0.0
v 0.3793636276506146 0.4861277064081528 0.0
v 0.3401699858127654 0.38378873084941084 0.0
v 0.2748472362937353 0.24661094504909428 0.0
v 0.2029922000124488 0.14644938528848955 0.0
v 0.15944370689440285 0.10725574345064035 0.0
v 0.12242748085469092 0.10290089217044353 0.0
v 0.10936292701410048 -0.060405981627131726 0.0
v 0.11154036249616002 -0.1670998084660705 0.0
v 0.1137177782942973 -0.29121304042579665 0.0
v 0.10936292701410048 -0.4000842830628727 0.0
v 0.10500807573390364 -0.49806840734141783 0.0
v 0.10718551121596319 -0.6025848183822193 0.0
v 0.15291142013214643 -0.6047622341803567 0.0
v 0.20952448677470517 -0.6396010444219313 0.0
v 0.213879338054902 -0.7266980503419457 0.0
v 0.2029922000124488 -0.8268595904186279 0.0
v 0.19645993293411468 -0.9139565963386421 0.0
v 0.19645993293411468 -0.9640373762189445 0.0
v 0.09412095737537272 -0.9662147920170819 0.0
v -0.036524541662687496 -0.9683922274991414 0.0
v -0.12797639886289855 -0.9640373762189445 0.0
l 1 2
l 2 3
l 3 4
l 4 5
l 5 6
l 6 7
l 7 8
l 8 9
l 9 10
l 10 11
l 11 12
l 12 13
l 13 14
l 14 15
l 15 16
l 16 17
l 17 18
l 18 19
l 19 20
l 20 21
l 21 22
l 22 23
l 23 24
l 24 25
l 25 26
l 26 27
l 27 28
l 28 29
l 29 30
l 30 31
l 31 32
l 32 33
l 33 34
l 34 35
l 35 36
l 36 37
l 37 38
l 38 39
l 39 40
l 40 41
l 41 42
l 42 43
l 43 44
l 44 45
l 45 46
l 46 47
l 47 48
l 48 49
l 49 50
l 50 51
l 51 52
l 52 53
l 53 54
l 54 55
l 55 56
l 56 57
l 57 58
l 58 59
l 59 60
l 60 61
l 61 62
l 62 1
