# https://github.com/mikedh/trimesh
v -0.85878962 -0.62103747 0.00000000
v -0.81844380 -0.59221903 0.00000000
v -0.77809798 -0.60086455 0.00000000
v -0.75504322 -0.63832853 0.00000000
v -0.76945244 -0.71037463 0.00000000
v -0.87031700 -0.77089337 0.00000000
v -0.95389048 -0.74783861 0.00000000
v -0.99423630 -0.68731989 0.00000000
v -1.00000000 -0.62968299 0.00000000
v -0.98847262 -0.55475505 0.00000000
v -0.97694524 -0.50864553 0.00000000
v -0.93659942 -0.45677233 0.00000000
v -0.89048990 -0.43083573 0.00000000
v -0.81844380 -0.42219021 0.00000000
v -0.69740634 -0.40778097 0.00000000
v -0.63688760 -0.35590779 0.00000000
v -0.56484150 -0.28674351 0.00000000
v -0.48703170 -0.18876081 0.00000000
v -0.50144092 -0.10230547 0.00000000
v -0.44956772 -0.10230547 0.00000000
v -0.44668588 -0.04755043 0.00000000
v -0.40057636 -0.05907781 0.00000000
v -0.37175792 0.03025937 0.00000000
v -0.38616714 0.09942363 0.00000000
v -0.27377520 0.06195965 0.00000000
v -0.27953890 0.14841499 0.00000000
v -0.29106628 0.21757925 0.00000000
v -0.20172910 0.18011527 0.00000000
v -0.17291066 0.24927953 0.00000000
v -0.19020172 0.30979827 0.00000000
v -0.10951008 0.26080691 0.00000000
v -0.08069164 0.31844381 0.00000000
v -0.08933716 0.39048991 0.00000000
v 0.00000000 0.35302593 0.00000000
v 0.02593660 0.41066283 0.00000000
v 0.03170030 0.46253603 0.00000000
v 0.07492796 0.42795389 0.00000000
v 0.11815562 0.43659943 0.00000000
v 0.12968300 0.47406341 0.00000000
v 0.17002882 0.45965417 0.00000000
v 0.17867436 0.43371757 0.00000000
v 0.21325650 0.46829971 0.00000000
v 0.23631124 0.44236311 0.00000000
v 0.26801154 0.46829971 0.00000000
v 0.29682998 0.43948127 0.00000000
v 0.33429396 0.45965417 0.00000000
v 0.35446686 0.44524495 0.00000000
v 0.40345822 0.44524495 0.00000000
v 0.46397696 0.44524495 0.00000000
v 0.46685880 0.54610951 0.00000000
v 0.45533142 0.60374639 0.00000000
v 0.46974064 0.65561959 0.00000000
v 0.50144092 0.71902017 0.00000000
v 0.55043228 0.77089337 0.00000000
v 0.60518732 0.72478387 0.00000000
v 0.61671470 0.66714697 0.00000000
v 0.60230548 0.59221903 0.00000000
v 0.59077810 0.53170029 0.00000000
v 0.59654180 0.45677233 0.00000000
v 0.65417868 0.45965417 0.00000000
v 0.66858790 0.55763689 0.00000000
v 0.68876082 0.66138329 0.00000000
v 0.72334294 0.69596541 0.00000000
v 0.76657062 0.71613833 0.00000000
v 0.80403458 0.63256485 0.00000000
v 0.80979828 0.57780979 0.00000000
v 0.78674352 0.50864553 0.00000000
v 0.75792508 0.45677233 0.00000000
v 0.74063402 0.42507205 0.00000000
v 0.77521614 0.36167147 0.00000000
v 0.79250722 0.33285303 0.00000000
v 0.82132566 0.31556195 0.00000000
v 0.83861672 0.28674351 0.00000000
v 0.86455332 0.25216139 0.00000000
v 0.90489914 0.23775217 0.00000000
v 0.92795390 0.23198847 0.00000000
v 0.97118156 0.23775217 0.00000000
v 0.98847264 0.22046109 0.00000000
v 1.00000000 0.19164265 0.00000000
v 0.98559078 0.14553315 0.00000000
v 0.96541788 0.12247839 0.00000000
v 0.94524496 0.11959655 0.00000000
v 0.89913546 0.12824207 0.00000000
v 0.89048992 0.14841499 0.00000000
v 0.86743516 0.16570605 0.00000000
v 0.76945246 0.18876081 0.00000000
v 0.70605188 0.20317003 0.00000000
v 0.67146974 0.19164265 0.00000000
v 0.66282422 0.10518731 0.00000000
v 0.69740634 0.02449567 0.00000000
v 0.72622480 -0.03314121 0.00000000
v 0.78674352 -0.01585015 0.00000000
v 0.82708934 -0.02737753 0.00000000
v 0.82708934 -0.07925073 0.00000000
v 0.71469742 -0.11671469 0.00000000
v 0.65129684 -0.03890489 0.00000000
v 0.60518732 0.07060519 0.00000000
v 0.57348704 0.11095101 0.00000000
v 0.51873200 0.10806917 0.00000000
v 0.52737752 0.02161383 0.00000000
v 0.52449568 -0.03025937 0.00000000
v 0.52737752 -0.08213257 0.00000000
v 0.54466860 -0.11959655 0.00000000
v 0.57925072 -0.14553315 0.00000000
v 0.60806918 -0.16570605 0.00000000
v 0.62536024 -0.19740635 0.00000000
v 0.59942364 -0.23198847 0.00000000
v 0.53890490 -0.23775217 0.00000000
v 0.50432278 -0.21181557 0.00000000
v 0.46685880 -0.16858789 0.00000000
v 0.43227666 -0.09654179 0.00000000
v 0.41786744 -0.02161383 0.00000000
v 0.41498560 0.00432277 0.00000000
v 0.28530260 -0.03025937 0.00000000
v 0.18443804 -0.07636887 0.00000000
v 0.06340058 -0.16282421 0.00000000
v 0.03746398 -0.19452449 0.00000000
v 0.03170030 -0.26080691 0.00000000
v 0.04899136 -0.30403459 0.00000000
v 0.10374640 -0.31268011 0.00000000
v 0.17002882 -0.35014409 0.00000000
v 0.17291068 -0.38760807 0.00000000
v 0.08933718 -0.38760807 0.00000000
v -0.00288184 -0.36167147 0.00000000
v -0.04610950 -0.31556195 0.00000000
v -0.04322766 -0.27233429 0.00000000
v -0.10086454 -0.26657061 0.00000000
v -0.12391930 -0.31556195 0.00000000
v -0.11815562 -0.38760807 0.00000000
v -0.06340056 -0.41642651 0.00000000
v -0.04899134 -0.43948127 0.00000000
v -0.05187320 -0.47982709 0.00000000
v -0.20749278 -0.45389049 0.00000000
v -0.22766570 -0.41354467 0.00000000
v -0.23342938 -0.34726225 0.00000000
v -0.23342938 -0.31556195 0.00000000
v -0.26224784 -0.28674351 0.00000000
v -0.38040346 -0.22622479 0.00000000
v -0.45533140 -0.30115273 0.00000000
v -0.51008644 -0.36167147 0.00000000
v -0.60806916 -0.43371757 0.00000000
v -0.68876080 -0.45677233 0.00000000
v -0.80403458 -0.47406341 0.00000000
v -0.86455330 -0.47982709 0.00000000
v -0.91642650 -0.52305475 0.00000000
v -0.94236310 -0.56628243 0.00000000
v -0.94236310 -0.62103747 0.00000000
v -0.92795388 -0.66714697 0.00000000
v -0.89337176 -0.68731989 0.00000000
v -0.85878962 -0.69884727 0.00000000
v -0.82997118 -0.69308357 0.00000000
v -0.81556196 -0.67579251 0.00000000
v -0.82708932 -0.64985591 0.00000000
v -0.84438040 -0.63544669 0.00000000

