# https://github.com/mikedh/trimesh
v -0.78918126 0.72910946 0.00000000
v -0.79067242 0.72767857 0.00000000
v -0.79126364 0.72541492 0.00000000
v -0.79094586 0.72244619 0.00000000
v -0.78975622 0.71886390 0.00000000
v -0.78767610 0.71466046 0.00000000
v -0.78461431 0.70978759 0.00000000
v -0.78051773 0.70430131 0.00000000
v -0.77552430 0.69847216 0.00000000
v -0.77000529 0.69274527 0.00000000
v -0.76443089 0.68755432 0.00000000
v -0.75916691 0.68313315 0.00000000
v -0.75437280 0.67947504 0.00000000
v -0.75004855 0.67643928 0.00000000
v -0.74612829 0.67387118 0.00000000
v -0.74251811 0.67163401 0.00000000
v -0.73908670 0.66958076 0.00000000
v -0.73567544 0.66754855 0.00000000
v -0.73214871 0.66540097 0.00000000
v -0.72844555 0.66307697 0.00000000
v -0.72459366 0.66060424 0.00000000
v -0.72068559 0.65807534 0.00000000
v -0.71683955 0.65560845 0.00000000
v -0.71316139 0.65330945 0.00000000
v -0.70971354 0.65124076 0.00000000
v -0.70649640 0.64940278 0.00000000
v -0.70344954 0.64773508 0.00000000
v -0.70047355 0.64613825 0.00000000
v -0.69746443 0.64450829 0.00000000
v -0.69434825 0.64277127 0.00000000
v -0.69110127 0.64090345 0.00000000
v -0.68774173 0.63892307 0.00000000
v -0.68429683 0.63685733 0.00000000
v -0.68077381 0.63471347 0.00000000
v -0.67716577 0.63248459 0.00000000
v -0.67348762 0.63018560 0.00000000
v -0.66980186 0.62787900 0.00000000
v -0.66620067 0.62565697 0.00000000
v -0.66275277 0.62358823 0.00000000
v -0.65945817 0.62167279 0.00000000
v -0.65624817 0.61984195 0.00000000
v -0.65303103 0.61800397 0.00000000
v -0.64974632 0.61609842 0.00000000
v -0.64638678 0.61411804 0.00000000
v -0.64297962 0.61209003 0.00000000
v -0.63955767 0.61004708 0.00000000
v -0.63615172 0.60801868 0.00000000
v -0.63280030 0.60603636 0.00000000
v -0.62955423 0.60412462 0.00000000
v -0.62647725 0.60227490 0.00000000
v -0.62367001 0.60044003 0.00000000
v -0.62131899 0.59858216 0.00000000
v -0.61971438 0.59675193 0.00000000
v -0.61917569 0.59512652 0.00000000
v -0.61990340 0.59395269 0.00000000
v -0.62186053 0.59342200 0.00000000
v -0.62477657 0.59357148 0.00000000
v -0.62826409 0.59428180 0.00000000
v -0.63195803 0.59535917 0.00000000
v -0.63560309 0.59662772 0.00000000
v -0.63907862 0.59797484 0.00000000
v -0.64238336 0.59934695 0.00000000
v -0.64559314 0.60072500 0.00000000
v -0.64879803 0.60210405 0.00000000
v -0.65204206 0.60348320 0.00000000
v -0.65530013 0.60486236 0.00000000
v -0.65850633 0.60624152 0.00000000
v -0.66160927 0.60762068 0.00000000
v -0.66461240 0.60899984 0.00000000
v -0.66757514 0.61037900 0.00000000
v -0.67058116 0.61175816 0.00000000
v -0.67369634 0.61313732 0.00000000
v -0.67694027 0.61451648 0.00000000
v -0.68028706 0.61589564 0.00000000
v -0.68369123 0.61727480 0.00000000
v -0.68711279 0.61865396 0.00000000
v -0.69051985 0.62003312 0.00000000
v -0.69387888 0.62141228 0.00000000
v -0.69716059 0.62279144 0.00000000
v -0.70036499 0.62417060 0.00000000
v -0.70353426 0.62554976 0.00000000
v -0.70672740 0.62692892 0.00000000
v -0.70997438 0.62830808 0.00000000
v -0.71325695 0.62968724 0.00000000
v -0.71654172 0.63106640 0.00000000
v -0.71983633 0.63244556 0.00000000
v -0.72320951 0.63382472 0.00000000
v -0.72674577 0.63520388 0.00000000
v -0.73047236 0.63658304 0.00000000
v -0.73433065 0.63796220 0.00000000
v -0.73822338 0.63934136 0.00000000
v -0.74209151 0.64072052 0.00000000
v -0.74594730 0.64209968 0.00000000
v -0.74984213 0.64347884 0.00000000
v -0.75381342 0.64485800 0.00000000
v -0.75786118 0.64623716 0.00000000
v -0.76196082 0.64761632 0.00000000
v -0.76608606 0.64899548 0.00000000
v -0.77022064 0.65037464 0.00000000
v -0.77435813 0.65175380 0.00000000
v -0.77849855 0.65313296 0.00000000
v -0.78264878 0.65451212 0.00000000
v -0.78682709 0.65589128 0.00000000
v -0.79106704 0.65727044 0.00000000
v -0.79541154 0.65864960 0.00000000
v -0.79989414 0.66002876 0.00000000
v -0.80452033 0.66140792 0.00000000
v -0.80927227 0.66278708 0.00000000
v -0.81414317 0.66416624 0.00000000
v -0.81917379 0.66554540 0.00000000
v -0.82445237 0.66692456 0.00000000
v -0.83006946 0.66830361 0.00000000
v -0.83605955 0.66968177 0.00000000
v -0.84236646 0.67105482 0.00000000
v -0.84884110 0.67240743 0.00000000
v -0.85525667 0.67369836 0.00000000
v -0.86133232 0.67484355 0.00000000
v -0.86677062 0.67571085 0.00000000
v -0.87130653 0.67613933 0.00000000
v -0.87474602 0.67597779 0.00000000
v -0.87697564 0.67511913 0.00000000
v -0.87795210 0.67351367 0.00000000
v -0.87769521 0.67117114 0.00000000
v -0.87629122 0.66817183 0.00000000
v -0.87389492 0.66468481 0.00000000
v -0.87071863 0.66096493 0.00000000
v -0.86700351 0.65730577 0.00000000
v -0.86297431 0.65396099 0.00000000
v -0.85879346 0.65107369 0.00000000
v -0.85454373 0.64864859 0.00000000
v -0.85025177 0.64657565 0.00000000
v -0.84592658 0.64469084 0.00000000
v -0.84157764 0.64284931 0.00000000
v -0.83720960 0.64098099 0.00000000
v -0.83281632 0.63910203 0.00000000
v -0.82838686 0.63727793 0.00000000
v -0.82391761 0.63556690 0.00000000
v -0.81942417 0.63398371 0.00000000
v -0.81494632 0.63250209 0.00000000
v -0.81053295 0.63107915 0.00000000
v -0.80620679 0.62967450 0.00000000
v -0.80193851 0.62825156 0.00000000
v -0.79765790 0.62676994 0.00000000
v -0.79328976 0.62518680 0.00000000
v -0.78878312 0.62347627 0.00000000
v -0.78412905 0.62165529 0.00000000
v -0.77938021 0.61979012 0.00000000
v -0.77465851 0.61796913 0.00000000
v -0.77011789 0.61625861 0.00000000
v -0.76586671 0.61467553 0.00000000
v -0.76190606 0.61319441 0.00000000
v -0.75813734 0.61177446 0.00000000
v -0.75443488 0.61038256 0.00000000
v -0.75072823 0.60900040 0.00000000
v -0.74703593 0.60762074 0.00000000
v -0.74343319 0.60624153 0.00000000
v -0.73998218 0.60486236 0.00000000
v -0.73667482 0.60348320 0.00000000
v -0.73342393 0.60210404 0.00000000
v -0.73010383 0.60072488 0.00000000
v -0.72660921 0.59934572 0.00000000
v -0.72289281 0.59796656 0.00000000
v -0.71896231 0.59658740 0.00000000
v -0.71485082 0.59520824 0.00000000
v -0.71059704 0.59382908 0.00000000
v -0.70625664 0.59244992 0.00000000
v -0.70192808 0.59107076 0.00000000
v -0.69775112 0.58969155 0.00000000
v -0.69385795 0.58831189 0.00000000
v -0.69030589 0.58692967 0.00000000
v -0.68704198 0.58553722 0.00000000
v -0.68392192 0.58411383 0.00000000
v -0.68076797 0.58261752 0.00000000
v -0.67744329 0.58098447 0.00000000
v -0.67393167 0.57914750 0.00000000
v -0.67040552 0.57707771 0.00000000
v -0.66724177 0.57483630 0.00000000
v -0.66494568 0.57260508 0.00000000
v -0.66398741 0.57066105 0.00000000
v -0.66462221 0.56928629 0.00000000
v -0.66679446 0.56865414 0.00000000
v -0.67018353 0.56876290 0.00000000
v -0.67435898 0.56946048 0.00000000
v -0.67894592 0.57053485 0.00000000
v -0.68371249 0.57180290 0.00000000
v -0.68856412 0.57314996 0.00000000
v -0.69349187 0.57452207 0.00000000
v -0.69852258 0.57590012 0.00000000
v -0.70367965 0.57727917 0.00000000
v -0.70894853 0.57865833 0.00000000
v -0.71426295 0.58003749 0.00000000
v -0.71953189 0.58141665 0.00000000
v -0.72468947 0.58279581 0.00000000
v -0.72972339 0.58417497 0.00000000
v -0.73466601 0.58555413 0.00000000
v -0.73957169 0.58693329 0.00000000
v -0.74449986 0.58831245 0.00000000
v -0.74949605 0.58969161 0.00000000
v -0.75456712 0.59107076 0.00000000
v -0.75967297 0.59244992 0.00000000
v -0.76475578 0.59382908 0.00000000
v -0.76978976 0.59520824 0.00000000
v -0.77480765 0.59658740 0.00000000
v -0.77987946 0.59796656 0.00000000
v -0.78506424 0.59934572 0.00000000
v -0.79037696 0.60072488 0.00000000
v -0.79579214 0.60210404 0.00000000
v -0.80127104 0.60348320 0.00000000
v -0.80678819 0.60486236 0.00000000
v -0.81234566 0.60624152 0.00000000
v -0.81797701 0.60762068 0.00000000
v -0.82374135 0.60899984 0.00000000
v -0.82970457 0.61037900 0.00000000
v -0.83591095 0.61175816 0.00000000
v -0.84236170 0.61313732 0.00000000
v -0.84901926 0.61451648 0.00000000
v -0.85584302 0.61589553 0.00000000
v -0.86284656 0.61727363 0.00000000
v -0.87015688 0.61864619 0.00000000
v -0.87804072 0.61999580 0.00000000
v -0.88683965 0.62127404 0.00000000
v -0.89676568 0.62237896 0.00000000
v -0.90760935 0.62314745 0.00000000
v -0.91856302 0.62338621 0.00000000
v -0.92838750 0.62294268 0.00000000
v -0.93591958 0.62178034 0.00000000
v -0.94059678 0.62000794 0.00000000
v -0.94261793 0.61784300 0.00000000
v -0.94266856 0.61553531 0.00000000
v -0.94149059 0.61329390 0.00000000
v -0.93961109 0.61124451 0.00000000
v -0.93730701 0.60942283 0.00000000
v -0.93468145 0.60779652 0.00000000
v -0.93173124 0.60630221 0.00000000
v -0.92839289 0.60487922 0.00000000
v -0.92460123 0.60348681 0.00000000
v -0.92034835 0.60210460 0.00000000
v -0.91568643 0.60072494 0.00000000
v -0.91066461 0.59934573 0.00000000
v -0.90528032 0.59796656 0.00000000
v -0.89952803 0.59658740 0.00000000
v -0.89351144 0.59520824 0.00000000
v -0.88748816 0.59382908 0.00000000
v -0.88176741 0.59244992 0.00000000
v -0.87652962 0.59107076 0.00000000
v -0.87171736 0.58969161 0.00000000
v -0.86708657 0.58831245 0.00000000
v -0.86237606 0.58693329 0.00000000
v -0.85746834 0.58555413 0.00000000
v -0.85243382 0.58417497 0.00000000
v -0.84744731 0.58279581 0.00000000
v -0.84265883 0.58141665 0.00000000
v -0.83811624 0.58003749 0.00000000
v -0.83377384 0.57865833 0.00000000
v -0.82954579 0.57727917 0.00000000
v -0.82534409 0.57590001 0.00000000
v -0.82107532 0.57452085 0.00000000
v -0.81661871 0.57314169 0.00000000
v -0.81183159 0.57176253 0.00000000
v -0.80661078 0.57038337 0.00000000
v -0.80098463 0.56900421 0.00000000
v -0.79515922 0.56762505 0.00000000
v -0.78945536 0.56624589 0.00000000
v -0.78415638 0.56486673 0.00000000
v -0.77936626 0.56348757 0.00000000
v -0.77497457 0.56210841 0.00000000
v -0.77074263 0.56072925 0.00000000
v -0.76643846 0.55935009 0.00000000
v -0.76192573 0.55797093 0.00000000
v -0.75716055 0.55659177 0.00000000
v -0.75212941 0.55521261 0.00000000
v -0.74680564 0.55383345 0.00000000
v -0.74117275 0.55245429 0.00000000
v -0.73528681 0.55107513 0.00000000
v -0.72930352 0.54969597 0.00000000
v -0.72342934 0.54831680 0.00000000
v -0.71783445 0.54693754 0.00000000
v -0.71260253 0.54555749 0.00000000
v -0.70775116 0.54417334 0.00000000
v -0.70329123 0.54277479 0.00000000
v -0.69928323 0.54134056 0.00000000
v -0.69588813 0.53984515 0.00000000
v -0.69342001 0.53828856 0.00000000
v -0.69235553 0.53674217 0.00000000
v -0.69322739 0.53537252 0.00000000
v -0.69640528 0.53440050 0.00000000
v -0.70189047 0.53400286 0.00000000
v -0.70927422 0.53422377 0.00000000
v -0.71789182 0.53496468 0.00000000
v -0.72706015 0.53605225 0.00000000
v -0.73625858 0.53732334 0.00000000
v -0.74520160 0.53867091 0.00000000
v -0.75383630 0.54004307 0.00000000
v -0.76229961 0.54142112 0.00000000
v -0.77083496 0.54280017 0.00000000
v -0.77967220 0.54417933 0.00000000
v -0.78891869 0.54555849 0.00000000
v -0.79852510 0.54693765 0.00000000
v -0.80834587 0.54831680 0.00000000
v -0.81825462 0.54969586 0.00000000
v -0.82826294 0.55107401 0.00000000
v -0.83862720 0.55244706 0.00000000
v -0.84993438 0.55379957 0.00000000
v -0.86307249 0.55508961 0.00000000
v -0.87890799 0.55622981 0.00000000
v -0.89762995 0.55707777 0.00000000
v -0.91811876 0.55745163 0.00000000
v -0.93795827 0.55717634 0.00000000
v -0.95435574 0.55614994 0.00000000
v -0.96543761 0.55440473 0.00000000
v -0.97098558 0.55212933 0.00000000
v -0.97215543 0.54962282 0.00000000
v -0.97056362 0.54718769 0.00000000
v -0.96747974 0.54501934 0.00000000
v -0.96354750 0.54316198 0.00000000
v -0.95896202 0.54154842 0.00000000
v -0.95379208 0.54007750 0.00000000
v -0.94818028 0.53867030 0.00000000
v -0.94232448 0.53728469 0.00000000
v -0.93632355 0.53590448 0.00000000
v -0.93007150 0.53452521 0.00000000
v -0.92333444 0.53314605 0.00000000
v -0.91596739 0.53176689 0.00000000
v -0.90808539 0.53038773 0.00000000
v -0.90003845 0.52900857 0.00000000
v -0.89221816 0.52762941 0.00000000
v -0.88486375 0.52625025 0.00000000
v -0.87800494 0.52487109 0.00000000
v -0.87153172 0.52349193 0.00000000
v -0.86528182 0.52211277 0.00000000
v -0.85907546 0.52073361 0.00000000
v -0.85272804 0.51935445 0.00000000
v -0.84610058 0.51797529 0.00000000
v -0.83917664 0.51659613 0.00000000
v -0.83208675 0.51521697 0.00000000
v -0.82503462 0.51383781 0.00000000
v -0.81817825 0.51245865 0.00000000
v -0.81156103 0.51107949 0.00000000
v -0.80512355 0.50970033 0.00000000
v -0.79874814 0.50832117 0.00000000
v -0.79228739 0.50694201 0.00000000
v -0.78557998 0.50556279 0.00000000
v -0.77848144 0.50418313 0.00000000
v -0.77091648 0.50280098 0.00000000
v -0.76294354 0.50140918 0.00000000
v -0.75483352 0.49999024 0.00000000
v -0.74717513 0.49851523 0.00000000
v -0.74098396 0.49695864 0.00000000
v -0.73770178 0.49533578 0.00000000
v -0.73891479 0.49374521 0.00000000
v -0.74575213 0.49237555 0.00000000
v -0.75826248 0.49144772 0.00000000
v -0.77527906 0.49111624 0.00000000
v -0.79500242 0.49139732 0.00000000
v -0.81591364 0.49217291 0.00000000
v -0.83733391 0.49325438 0.00000000
v -0.85930075 0.49444545 0.00000000
v -0.88200425 0.49556465 0.00000000
v -0.90523905 0.49644120 0.00000000
v -0.92816018 0.49692315 0.00000000
v -0.94941202 0.49691030 0.00000000
v -0.96755421 0.49638350 0.00000000
v -0.98157313 0.49539789 0.00000000
v -0.99120149 0.49404522 0.00000000
v -0.99689021 0.49242237 0.00000000
v -0.99951036 0.49062788 0.00000000
v -1.00000000 0.48876881 0.00000000
v -0.99912813 0.48694883 0.00000000
v -0.99741914 0.48523841 0.00000000
v -0.99518342 0.48365533 0.00000000
v -0.99257700 0.48217421 0.00000000
v -0.98964632 0.48075427 0.00000000
v -0.98635888 0.47936237 0.00000000
v -0.98263869 0.47798021 0.00000000
v -0.97841405 0.47660055 0.00000000
v -0.97366606 0.47522133 0.00000000
v -0.96845585 0.47384217 0.00000000
v -0.96290812 0.47246301 0.00000000
v -0.95714663 0.47108385 0.00000000
v -0.95121626 0.46970469 0.00000000
v -0.94505233 0.46832553 0.00000000
v -0.93852611 0.46694643 0.00000000
v -0.93152915 0.46556777 0.00000000
v -0.92404049 0.46419161 0.00000000
v -0.91616384 0.46282519 0.00000000
v -0.90814670 0.46148682 0.00000000
v -0.90035516 0.46020973 0.00000000
v -0.89316184 0.45903548 0.00000000
v -0.88678003 0.45799369 0.00000000
v -0.88116818 0.45708185 0.00000000
v -0.87609901 0.45627026 0.00000000
v -0.87134132 0.45553685 0.00000000
v -0.86679059 0.45489689 0.00000000
v -0.86243495 0.45438440 0.00000000
v -0.85820795 0.45399095 0.00000000
v -0.85389353 0.45362559 0.00000000
v -0.84919695 0.45314882 0.00000000
v -0.84393679 0.45246089 0.00000000
v -0.83819909 0.45157164 0.00000000
v -0.83232084 0.45060036 0.00000000
v -0.82669944 0.44971051 0.00000000
v -0.82154506 0.44901857 0.00000000
v -0.81672824 0.44852301 0.00000000
v -0.81182017 0.44809088 0.00000000
v -0.80631360 0.44751090 0.00000000
v -0.79990099 0.44657766 0.00000000
v -0.79264381 0.44515627 0.00000000
v -0.78494434 0.44320778 0.00000000
v -0.77737737 0.44078683 0.00000000
v -0.77051981 0.43801667 0.00000000
v -0.76486202 0.43503719 0.00000000
v -0.76077053 0.43194696 0.00000000
v -0.75842634 0.42878531 0.00000000
v -0.75772526 0.42557088 0.00000000
v -0.75821935 0.42235475 0.00000000
v -0.75919404 0.41923547 0.00000000
v -0.75988294 0.41632942 0.00000000
v -0.75971108 0.41372829 0.00000000
v -0.75843596 0.41147076 0.00000000
v -0.75613666 0.40953425 0.00000000
v -0.75309597 0.40784416 0.00000000
v -0.74965418 0.40629101 0.00000000
v -0.74609454 0.40473702 0.00000000
v -0.74259574 0.40300345 0.00000000
v -0.73927102 0.40086633 0.00000000
v -0.73627672 0.39811016 0.00000000
v -0.73390977 0.39464927 0.00000000
v -0.73258910 0.39064125 0.00000000
v -0.73269582 0.38647859 0.00000000
v -0.73438120 0.38262521 0.00000000
v -0.73749487 0.37940228 0.00000000
v -0.74167957 0.37687607 0.00000000
v -0.74654065 0.37490555 0.00000000
v -0.75176879 0.37327658 0.00000000
v -0.75717190 0.37181241 0.00000000
v -0.76264919 0.37041051 0.00000000
v -0.76815336 0.36902674 0.00000000
v -0.77366128 0.36764692 0.00000000
v -0.77915153 0.36626764 0.00000000
v -0.78458395 0.36488797 0.00000000
v -0.78988607 0.36350565 0.00000000
v -0.79496217 0.36211203 0.00000000
v -0.79973668 0.36068098 0.00000000
v -0.80421316 0.35914863 0.00000000
v -0.80849637 0.35738617 0.00000000
v -0.81272990 0.35518064 0.00000000
v -0.81695754 0.35225549 0.00000000
v -0.82098674 0.34836387 0.00000000
v -0.82436381 0.34344331 0.00000000
v -0.82652337 0.33774276 0.00000000
v -0.82705541 0.33180260 0.00000000
v -0.82592037 0.32625669 0.00000000
v -0.82345719 0.32157404 0.00000000
v -0.82018984 0.31791183 0.00000000
v -0.81659246 0.31514982 0.00000000
v -0.81296919 0.31303350 0.00000000
v -0.80946828 0.31130882 0.00000000
v -0.80614624 0.30978871 0.00000000
v -0.80300993 0.30836050 0.00000000
v -0.80003006 0.30696621 0.00000000
v -0.79714817 0.30557617 0.00000000
v -0.79428279 0.30415952 0.00000000
v -0.79132584 0.30264546 0.00000000
v -0.78813318 0.30087580 0.00000000
v -0.78452966 0.29857600 0.00000000
v -0.78034431 0.29539981 0.00000000
v -0.77546706 0.29108262 0.00000000
v -0.76989178 0.28564816 0.00000000
v -0.76369477 0.27952028 0.00000000
v -0.75691354 0.27341699 0.00000000
v -0.74937587 0.26806649 0.00000000
v -0.74064792 0.26393267 0.00000000
v -0.73026673 0.26111203 0.00000000
v -0.71819051 0.25940405 0.00000000
v -0.70512518 0.25844628 0.00000000
v -0.69240645 0.25783286 0.00000000
v -0.68148007 0.25720860 0.00000000
v -0.67335483 0.25634422 0.00000000
v -0.66836489 0.25517081 0.00000000
v -0.66626950 0.25375205 0.00000000
v -0.66649582 0.25221140 0.00000000
v -0.66835243 0.25065880 0.00000000
v -0.67117272 0.24915203 0.00000000
v -0.67441420 0.24769583 0.00000000
v -0.67772449 0.24625598 0.00000000
v -0.68096017 0.24476111 0.00000000
v -0.68415138 0.24308241 0.00000000
v -0.68742012 0.24100723 0.00000000
v -0.69086495 0.23823882 0.00000000
v -0.69443103 0.23445171 0.00000000
v -0.69781490 0.22941050 0.00000000
v -0.70048499 0.22312368 0.00000000
v -0.70186779 0.21595672 0.00000000
v -0.70162667 0.20860372 0.00000000
v -0.69984463 0.20187438 0.00000000
v -0.69695907 0.19639059 0.00000000
v -0.69349080 0.19238631 0.00000000
v -0.68977163 0.18973585 0.00000000
v -0.68585249 0.18814527 0.00000000
v -0.68161937 0.18732189 0.00000000
v -0.67701331 0.18700350 0.00000000
v -0.67220947 0.18689267 0.00000000
v -0.66764224 0.18662765 0.00000000
v -0.66385208 0.18586201 0.00000000
v -0.66124858 0.18439965 0.00000000
v -0.65994523 0.18226708 0.00000000
v -0.65976028 0.17965510 0.00000000
v -0.66034644 0.17676638 0.00000000
v -0.66132865 0.17366530 0.00000000
v -0.66235644 0.17021215 0.00000000
v -0.66307444 0.16612200 0.00000000
v -0.66310081 0.16114257 0.00000000
v -0.66210728 0.15526814 0.00000000
v -0.65999605 0.14883073 0.00000000
v -0.65703736 0.14235508 0.00000000
v -0.65380597 0.13626103 0.00000000
v -0.65089936 0.13066024 0.00000000
v -0.64861671 0.12541896 0.00000000
v -0.64682621 0.12040289 0.00000000
v -0.64509189 0.11566127 0.00000000
v -0.64292679 0.11140595 0.00000000
v -0.63998285 0.10786105 0.00000000
v -0.63610647 0.10515135 0.00000000
v -0.63132639 0.10330015 0.00000000
v -0.62584548 0.10227518 0.00000000
v -0.62001262 0.10200527 0.00000000
v -0.61421440 0.10236316 0.00000000
v -0.60871477 0.10315224 0.00000000
v -0.60356081 0.10410804 0.00000000
v -0.59863320 0.10489796 0.00000000
v -0.59379140 0.10512967 0.00000000
v -0.58899043 0.10441914 0.00000000
v -0.58429173 0.10253861 0.00000000
v -0.57978950 0.09956408 0.00000000
v -0.57553341 0.09588782 0.00000000
v -0.57150993 0.09204713 0.00000000
v -0.56767928 0.08847359 0.00000000
v -0.56401896 0.08532537 0.00000000
v -0.56053742 0.08247964 0.00000000
v -0.55726260 0.07964456 0.00000000
v -0.55422318 0.07650705 0.00000000
v -0.55142211 0.07285360 0.00000000
v -0.54879869 0.06863366 0.00000000
v -0.54620135 0.06396133 0.00000000
v -0.54340820 0.05907290 0.00000000
v -0.54020381 0.05426434 0.00000000
v -0.53647658 0.04982158 0.00000000
v -0.53228383 0.04594720 0.00000000
v -0.52785347 0.04269852 0.00000000
v -0.52352543 0.03996809 0.00000000
v -0.51965839 0.03752649 0.00000000
v -0.51653317 0.03510664 0.00000000
v -0.51427926 0.03247947 0.00000000
v -0.51284347 0.02949163 0.00000000
v -0.51201003 0.02608032 0.00000000
v -0.51147048 0.02229057 0.00000000
v -0.51092223 0.01828684 0.00000000
v -0.51015136 0.01432729 0.00000000
v -0.50905439 0.01069392 0.00000000
v -0.50759350 0.00761362 0.00000000
v -0.50573003 0.00521041 0.00000000
v -0.50339414 0.00349328 0.00000000
v -0.50052048 0.00235482 0.00000000
v -0.49713201 0.00156937 0.00000000
v -0.49341128 0.00081611 0.00000000
v -0.48968535 -0.00024428 0.00000000
v -0.48630433 -0.00185771 0.00000000
v -0.48348703 -0.00409304 0.00000000
v -0.48124570 -0.00683851 0.00000000
v -0.47943126 -0.00987271 0.00000000
v -0.47783609 -0.01295869 0.00000000
v -0.47626475 -0.01590782 0.00000000
v -0.47454422 -0.01859176 0.00000000
v -0.47251256 -0.02091719 0.00000000
v -0.47003571 -0.02279623 0.00000000
v -0.46706067 -0.02413915 0.00000000
v -0.46366290 -0.02487541 0.00000000
v -0.46003153 -0.02498812 0.00000000
v -0.45637686 -0.02453326 0.00000000
v -0.45281357 -0.02362207 0.00000000
v -0.44930380 -0.02237442 0.00000000
v -0.44570481 -0.02087951 0.00000000
v -0.44188781 -0.01919553 0.00000000
v -0.43784430 -0.01738065 0.00000000
v -0.43370732 -0.01551648 0.00000000
v -0.42967600 -0.01369555 0.00000000
v -0.42589907 -0.01198453 0.00000000
v -0.42239754 -0.01039856 0.00000000
v -0.41906995 -0.00890576 0.00000000
v -0.41575911 -0.00745164 0.00000000
v -0.41232297 -0.00598737 0.00000000
v -0.40867391 -0.00450271 0.00000000
v -0.40480133 -0.00306899 0.00000000
v -0.40080940 -0.00187191 0.00000000
v -0.39695562 -0.00119143 0.00000000
v -0.39362358 -0.00131090 0.00000000
v -0.39119218 -0.00240025 0.00000000
v -0.38986610 -0.00444989 0.00000000
v -0.38959055 -0.00729782 0.00000000
v -0.39010769 -0.01073181 0.00000000
v -0.39109174 -0.01461698 0.00000000
v -0.39225374 -0.01898605 0.00000000
v -0.39336552 -0.02401737 0.00000000
v -0.39423447 -0.02986186 0.00000000
v -0.39468207 -0.03640967 0.00000000
v -0.39453619 -0.04320179 0.00000000
v -0.39360873 -0.04961236 0.00000000
v -0.39166020 -0.05517701 0.00000000
v -0.38841973 -0.05979509 0.00000000
v -0.38371633 -0.06366461 0.00000000
v -0.37764157 -0.06705447 0.00000000
v -0.37056571 -0.07010930 0.00000000
v -0.36295450 -0.07278692 0.00000000
v -0.35516931 -0.07490861 0.00000000
v -0.34744934 -0.07625599 0.00000000
v -0.34001496 -0.07664464 0.00000000
v -0.33305986 -0.07592367 0.00000000
v -0.32657532 -0.07391112 0.00000000
v -0.32022236 -0.07035101 0.00000000
v -0.31345762 -0.06498473 0.00000000
v -0.30585650 -0.05773475 0.00000000
v -0.29739482 -0.04888249 0.00000000
v -0.28850398 -0.03909216 0.00000000
v -0.27988203 -0.02922312 0.00000000
v -0.27217790 -0.02002100 0.00000000
v -0.26572826 -0.01187462 0.00000000
v -0.26049697 -0.00478782 0.00000000
v -0.25622905 0.00144472 0.00000000
v -0.25267004 0.00701937 0.00000000
v -0.24967040 0.01202100 0.00000000
v -0.24713103 0.01645226 0.00000000
v -0.24489854 0.02029721 0.00000000
v -0.24273332 0.02354220 0.00000000
v -0.24037203 0.02616163 0.00000000
v -0.23761991 0.02811206 0.00000000
v -0.23440938 0.02935161 0.00000000
v -0.23081210 0.02986895 0.00000000
v -0.22702414 0.02969513 0.00000000
v -0.22333659 0.02887721 0.00000000
v -0.22008407 0.02741709 0.00000000
v -0.21756737 0.02521821 0.00000000
v -0.21597170 0.02210584 0.00000000
v -0.21531826 0.01794918 0.00000000
v -0.21547445 0.01282215 0.00000000
v -0.21621735 0.00707357 0.00000000
v -0.21731626 0.00122247 0.00000000
v -0.21859350 -0.00426716 0.00000000
v -0.21994301 -0.00917638 0.00000000
v -0.22131561 -0.01356561 0.00000000
v -0.22269422 -0.01766344 0.00000000
v -0.22407627 -0.02171370 0.00000000
v -0.22546817 -0.02587282 0.00000000
v -0.22688811 -0.03018002 0.00000000
v -0.22836923 -0.03457596 0.00000000
v -0.22995231 -0.03894456 0.00000000
v -0.23166284 -0.04316276 0.00000000
v -0.23348382 -0.04714087 0.00000000
v -0.23534899 -0.05084019 0.00000000
v -0.23716987 -0.05427374 0.00000000
v -0.23887951 -0.05750987 0.00000000
v -0.24045764 -0.06068973 0.00000000
v -0.24191983 -0.06404796 0.00000000
v -0.24328725 -0.06790285 0.00000000
v -0.24457310 -0.07257081 0.00000000
v -0.24580842 -0.07819585 0.00000000
v -0.24709222 -0.08457799 0.00000000
v -0.24861343 -0.09115340 0.00000000
v -0.25059806 -0.09720367 0.00000000
v -0.25319869 -0.10217996 0.00000000
v -0.25640767 -0.10591574 0.00000000
v -0.26006189 -0.10860048 0.00000000
v -0.26392512 -0.11058726 0.00000000
v -0.26777826 -0.11220192 0.00000000
v -0.27146916 -0.11365616 0.00000000
v -0.27492631 -0.11505462 0.00000000
v -0.27815864 -0.11643765 0.00000000
v -0.28124967 -0.11781738 0.00000000
v -0.28434041 -0.11919659 0.00000000
v -0.28759419 -0.12057576 0.00000000
v -0.29114320 -0.12195492 0.00000000
v -0.29503292 -0.12333408 0.00000000
v -0.29919709 -0.12471324 0.00000000
v -0.30348491 -0.12609240 0.00000000
v -0.30772385 -0.12747156 0.00000000
v -0.31177666 -0.12885072 0.00000000
v -0.31556902 -0.13022987 0.00000000
v -0.31909549 -0.13160903 0.00000000
v -0.32241509 -0.13298819 0.00000000
v -0.32563103 -0.13436735 0.00000000
v -0.32884917 -0.13574651 0.00000000
v -0.33213404 -0.13712567 0.00000000
v -0.33549407 -0.13850483 0.00000000
v -0.33890419 -0.13988399 0.00000000
v -0.34233850 -0.14126315 0.00000000
v -0.34578345 -0.14264231 0.00000000
v -0.34923220 -0.14402147 0.00000000
v -0.35268005 -0.14540063 0.00000000
v -0.35612660 -0.14677979 0.00000000
v -0.35957450 -0.14815895 0.00000000
v -0.36302374 -0.14953811 0.00000000
v -0.36647164 -0.15091727 0.00000000
v -0.36991820 -0.15229643 0.00000000
v -0.37336610 -0.15367559 0.00000000
v -0.37681534 -0.15505475 0.00000000
v -0.38026324 -0.15643391 0.00000000
v -0.38370980 -0.15781307 0.00000000
v -0.38715770 -0.15919223 0.00000000
v -0.39060694 -0.16057139 0.00000000
v -0.39405490 -0.16195055 0.00000000
v -0.39750195 -0.16332971 0.00000000
v -0.40095279 -0.16470887 0.00000000
v -0.40441429 -0.16608803 0.00000000
v -0.40790002 -0.16746719 0.00000000
v -0.41143629 -0.16884635 0.00000000
v -0.41505033 -0.17022551 0.00000000
v -0.41874173 -0.17160467 0.00000000
v -0.42246837 -0.17298383 0.00000000
v -0.42617202 -0.17436299 0.00000000
v -0.42982684 -0.17574215 0.00000000
v -0.43346557 -0.17712131 0.00000000
v -0.43715822 -0.17850047 0.00000000
v -0.44096383 -0.17987963 0.00000000
v -0.44489734 -0.18125879 0.00000000
v -0.44893286 -0.18263795 0.00000000
v -0.45302950 -0.18401711 0.00000000
v -0.45715373 -0.18539627 0.00000000
v -0.46128522 -0.18677543 0.00000000
v -0.46540950 -0.18815465 0.00000000
v -0.46950659 -0.18953431 0.00000000
v -0.47354460 -0.19091647 0.00000000
v -0.47748781 -0.19230848 0.00000000
v -0.48132095 -0.19372943 0.00000000
v -0.48507167 -0.19521677 0.00000000
v -0.48879839 -0.19682744 0.00000000
v -0.49253171 -0.19863253 0.00000000
v -0.49620477 -0.20071442 0.00000000
v -0.49962907 -0.20317610 0.00000000
v -0.50253303 -0.20614973 0.00000000
v -0.50462721 -0.20976656 0.00000000
v -0.50566480 -0.21406817 0.00000000
v -0.50551145 -0.21890636 0.00000000
v -0.50423460 -0.22392938 0.00000000
v -0.50214888 -0.22870595 0.00000000
v -0.49972275 -0.23291669 0.00000000
v -0.49735085 -0.23647205 0.00000000
v -0.49514045 -0.23948272 0.00000000
v -0.49288336 -0.24213959 0.00000000
v -0.49025406 -0.24461312 0.00000000
v -0.48711271 -0.24702674 0.00000000
v -0.48371971 -0.24948213 0.00000000
v -0.48071640 -0.25209088 0.00000000
v -0.47886471 -0.25498384 0.00000000
v -0.47869230 -0.25829160 0.00000000
v -0.48025192 -0.26210764 0.00000000
v -0.48311844 -0.26646418 0.00000000
v -0.48658356 -0.27135421 0.00000000
v -0.48989989 -0.27679442 0.00000000
v -0.49244543 -0.28285628 0.00000000
v -0.49378790 -0.28958084 0.00000000
v -0.49371290 -0.29680346 0.00000000
v -0.49226116 -0.30406070 0.00000000
v -0.48973810 -0.31073832 0.00000000
v -0.48663652 -0.31640220 0.00000000
v -0.48348357 -0.32105716 0.00000000
v -0.48068784 -0.32513047 0.00000000
v -0.47844308 -0.32921052 0.00000000
v -0.47669877 -0.33373409 0.00000000
v -0.47520417 -0.33879471 0.00000000
v -0.47363305 -0.34413908 0.00000000
v -0.47174609 -0.34932583 0.00000000
v -0.46949882 -0.35395283 0.00000000
v -0.46703327 -0.35783412 0.00000000
v -0.46457993 -0.36106065 0.00000000
v -0.46234950 -0.36396991 0.00000000
v -0.46047018 -0.36707194 0.00000000
v -0.45896576 -0.37092083 0.00000000
v -0.45774379 -0.37590041 0.00000000
v -0.45659299 -0.38199473 0.00000000
v -0.45522672 -0.38872020 0.00000000
v -0.45338894 -0.39532436 0.00000000
v -0.45096974 -0.40113449 0.00000000
v -0.44804259 -0.40581881 0.00000000
v -0.44479252 -0.40943513 0.00000000
v -0.44140515 -0.41233070 0.00000000
v -0.43802119 -0.41501080 0.00000000
v -0.43478221 -0.41801572 0.00000000
v -0.43188219 -0.42178409 0.00000000
v -0.42952537 -0.42650940 0.00000000
v -0.42780109 -0.43205549 0.00000000
v -0.42659406 -0.43800094 0.00000000
v -0.42562232 -0.44381376 0.00000000
v -0.42456736 -0.44906739 0.00000000
v -0.42318315 -0.45357321 0.00000000
v -0.42131937 -0.45736199 0.00000000
v -0.41888678 -0.46055945 0.00000000
v -0.41582417 -0.46327039 0.00000000
v -0.41209768 -0.46555334 0.00000000
v -0.40773029 -0.46748345 0.00000000
v -0.40284332 -0.46924746 0.00000000
v -0.39767500 -0.47120086 0.00000000
v -0.39253860 -0.47381000 0.00000000
v -0.38771940 -0.47744127 0.00000000
v -0.38336407 -0.48209349 0.00000000
v -0.37942562 -0.48729550 0.00000000
v -0.37567789 -0.49231263 0.00000000
v -0.37177638 -0.49653782 0.00000000
v -0.36736581 -0.49977060 0.00000000
v -0.36225122 -0.50220814 0.00000000
v -0.35657194 -0.50423231 0.00000000
v -0.35082384 -0.50619359 0.00000000
v -0.34563828 -0.50831021 0.00000000
v -0.34144312 -0.51067478 0.00000000
v -0.33825777 -0.51331060 0.00000000
v -0.33575039 -0.51622592 0.00000000
v -0.33345973 -0.51943086 0.00000000
v -0.33099999 -0.52290428 0.00000000
v -0.32815634 -0.52653405 0.00000000
v -0.32488493 -0.53008321 0.00000000
v -0.32125874 -0.53322592 0.00000000
v -0.31738834 -0.53565032 0.00000000
v -0.31334803 -0.53717833 0.00000000
v -0.30914629 -0.53784308 0.00000000
v -0.30476357 -0.53789182 0.00000000
v -0.30023765 -0.53771670 0.00000000
v -0.29573293 -0.53773790 0.00000000
v -0.29152428 -0.53827870 0.00000000
v -0.28788436 -0.53948179 0.00000000
v -0.28494914 -0.54130378 0.00000000
v -0.28266286 -0.54358238 0.00000000
v -0.28083063 -0.54612758 0.00000000
v -0.27921066 -0.54878348 0.00000000
v -0.27755979 -0.55144192 0.00000000
v -0.27561489 -0.55402389 0.00000000
v -0.27307328 -0.55645111 0.00000000
v -0.26965192 -0.55861920 0.00000000
v -0.26523300 -0.56038175 0.00000000
v -0.25999211 -0.56156023 0.00000000
v -0.25436798 -0.56198161 0.00000000
v -0.24885045 -0.56152059 0.00000000
v -0.24374507 -0.56012414 0.00000000
v -0.23910915 -0.55782575 0.00000000
v -0.23488106 -0.55476221 0.00000000
v -0.23103573 -0.55116978 0.00000000
v -0.22761382 -0.54732494 0.00000000
v -0.22464544 -0.54344912 0.00000000
v -0.22209194 -0.53964763 0.00000000
v -0.21986404 -0.53592460 0.00000000
v -0.21786666 -0.53224319 0.00000000
v -0.21601289 -0.52857448 0.00000000
v -0.21421639 -0.52491332 0.00000000
v -0.21240235 -0.52127541 0.00000000
v -0.21054042 -0.51769021 0.00000000
v -0.20866250 -0.51418842 0.00000000
v -0.20683851 -0.51078136 0.00000000
v -0.20512749 -0.50744647 0.00000000
v -0.20354435 -0.50414006 0.00000000
v -0.20206323 -0.50083496 0.00000000
v -0.20064329 -0.49754934 0.00000000
v -0.19925138 -0.49433640 0.00000000
v -0.19786922 -0.49124371 0.00000000
v -0.19648956 -0.48828097 0.00000000
v -0.19511035 -0.48542064 0.00000000
v -0.19373119 -0.48262153 0.00000000
v -0.19235203 -0.47985047 0.00000000
v -0.19097287 -0.47708915 0.00000000
v -0.18959371 -0.47433033 0.00000000
v -0.18821455 -0.47157196 0.00000000
v -0.18683539 -0.46881364 0.00000000
v -0.18545623 -0.46605532 0.00000000
v -0.18407707 -0.46329700 0.00000000
v -0.18269791 -0.46053867 0.00000000
v -0.18131869 -0.45778030 0.00000000
v -0.17993904 -0.45502148 0.00000000
v -0.17855688 -0.45226016 0.00000000
v -0.17716497 -0.44948910 0.00000000
v -0.17574497 -0.44668994 0.00000000
v -0.17426335 -0.44382916 0.00000000
v -0.17267727 -0.44086392 0.00000000
v -0.17095400 -0.43776149 0.00000000
v -0.16909223 -0.43452056 0.00000000
v -0.16712510 -0.43117427 0.00000000
v -0.16510020 -0.42777021 0.00000000
v -0.16305830 -0.42434914 0.00000000
v -0.16103329 -0.42094497 0.00000000
v -0.15906516 -0.41759769 0.00000000
v -0.15719739 -0.41435076 0.00000000
v -0.15544863 -0.41122278 0.00000000
v -0.15378098 -0.40817548 0.00000000
v -0.15209544 -0.40510778 0.00000000
v -0.15026761 -0.40188804 0.00000000
v -0.14821296 -0.39841345 0.00000000
v -0.14594715 -0.39466652 0.00000000
v -0.14359548 -0.39073177 0.00000000
v -0.14133262 -0.38675837 0.00000000
v -0.13929072 -0.38289549 0.00000000
v -0.13750372 -0.37924332 0.00000000
v -0.13592064 -0.37583925 0.00000000
v -0.13445985 -0.37266795 0.00000000
v -0.13305471 -0.36967972 0.00000000
v -0.13166655 -0.36681044 0.00000000
v -0.13027364 -0.36399759 0.00000000
v -0.12885360 -0.36118564 0.00000000
v -0.12737247 -0.35832235 0.00000000
v -0.12578939 -0.35535962 0.00000000
v -0.12407886 -0.35226987 0.00000000
v -0.12225788 -0.34906973 0.00000000
v -0.12039270 -0.34582539 0.00000000
v -0.11857156 -0.34262509 0.00000000
v -0.11685947 -0.33953396 0.00000000
v -0.11526690 -0.33656322 0.00000000
v -0.11374455 -0.33366770 0.00000000
v -0.11218951 -0.33075899 0.00000000
v -0.11045094 -0.32772283 0.00000000
v -0.10835506 -0.32445171 0.00000000
v -0.10577738 -0.32090254 0.00000000
v -0.10274132 -0.31714856 0.00000000
v -0.09946231 -0.31336494 0.00000000
v -0.09627166 -0.30972791 0.00000000
v -0.09345657 -0.30628896 0.00000000
v -0.09113428 -0.30291889 0.00000000
v -0.08924532 -0.29936528 0.00000000
v -0.08764180 -0.29538849 0.00000000
v -0.08618309 -0.29089888 0.00000000
v -0.08477866 -0.28602003 0.00000000
v -0.08337716 -0.28103650 0.00000000
v -0.08192562 -0.27624324 0.00000000
v -0.08031144 -0.27177025 0.00000000
v -0.07829758 -0.26747690 0.00000000
v -0.07549608 -0.26299237 0.00000000
v -0.07146257 -0.25793092 0.00000000
v -0.06594719 -0.25221213 0.00000000
v -0.05917721 -0.24628629 0.00000000
v -0.05191833 -0.24104182 0.00000000
v -0.04517269 -0.23738091 0.00000000
v -0.03968625 -0.23575391 0.00000000
v -0.03563060 -0.23601275 0.00000000
v -0.03266800 -0.23766886 0.00000000
v -0.03027838 -0.24030042 0.00000000
v -0.02806535 -0.24377564 0.00000000
v -0.02586154 -0.24816300 0.00000000
v -0.02364549 -0.25346839 0.00000000
v -0.02139204 -0.25945554 0.00000000
v -0.01897415 -0.26569515 0.00000000
v -0.01616265 -0.27175801 0.00000000
v -0.01269266 -0.27734675 0.00000000
v -0.00833647 -0.28226851 0.00000000
v -0.00295774 -0.28634185 0.00000000
v 0.00343384 -0.28937940 0.00000000
v 0.01062576 -0.29126795 0.00000000
v 0.01820288 -0.29205144 0.00000000
v 0.02566104 -0.29193121 0.00000000
v 0.03258776 -0.29118667 0.00000000
v 0.03878041 -0.29007977 0.00000000
v 0.04422712 -0.28879794 0.00000000
v 0.04900569 -0.28744784 0.00000000
v 0.05320604 -0.28608104 0.00000000
v 0.05691649 -0.28472944 0.00000000
v 0.06023802 -0.28343857 0.00000000
v 0.06328148 -0.28229298 0.00000000
v 0.06613772 -0.28142358 0.00000000
v 0.06883601 -0.28098743 0.00000000
v 0.07130835 -0.28112854 0.00000000
v 0.07337759 -0.28194788 0.00000000
v 0.07479260 -0.28350606 0.00000000
v 0.07532350 -0.28585469 0.00000000
v 0.07489084 -0.28907077 0.00000000
v 0.07365790 -0.29326702 0.00000000
v 0.07201662 -0.29854913 0.00000000
v 0.07046120 -0.30490456 0.00000000
v 0.06942632 -0.31207228 0.00000000
v 0.06919637 -0.31951759 0.00000000
v 0.06993424 -0.32659295 0.00000000
v 0.07177022 -0.33279156 0.00000000
v 0.07482612 -0.33789370 0.00000000
v 0.07910839 -0.34192147 0.00000000
v 0.08435850 -0.34501741 0.00000000
v 0.09003793 -0.34739323 0.00000000
v 0.09552256 -0.34934617 0.00000000
v 0.10038520 -0.35123777 0.00000000
v 0.10458210 -0.35339548 0.00000000
v 0.10847652 -0.35600483 0.00000000
v 0.11273574 -0.35905744 0.00000000
v 0.11811051 -0.36234651 0.00000000
v 0.12509340 -0.36548874 0.00000000
v 0.13359060 -0.36800897 0.00000000
v 0.14286216 -0.36952858 0.00000000
v 0.15183614 -0.36999920 0.00000000
v 0.15958113 -0.36982753 0.00000000
v 0.16560392 -0.36977232 0.00000000
v 0.16985478 -0.37064504 0.00000000
v 0.17258513 -0.37297997 0.00000000
v 0.17422679 -0.37685254 0.00000000
v 0.17532257 -0.38192184 0.00000000
v 0.17646448 -0.38763815 0.00000000
v 0.17823302 -0.39347286 0.00000000
v 0.18114690 -0.39903776 0.00000000
v 0.18558045 -0.40405963 0.00000000
v 0.19160269 -0.40830414 0.00000000
v 0.19881475 -0.41158500 0.00000000
v 0.20637302 -0.41388385 0.00000000
v 0.21328674 -0.41544995 0.00000000
v 0.21882575 -0.41673576 0.00000000
v 0.22275474 -0.41818930 0.00000000
v 0.22527376 -0.42007219 0.00000000
v 0.22679378 -0.42243357 0.00000000
v 0.22774341 -0.42521004 0.00000000
v 0.22848211 -0.42832967 0.00000000
v 0.22928244 -0.43174682 0.00000000
v 0.23034321 -0.43542698 0.00000000
v 0.23183342 -0.43932934 0.00000000
v 0.23396070 -0.44339574 0.00000000
v 0.23702515 -0.44752267 0.00000000
v 0.24140932 -0.45152364 0.00000000
v 0.24747144 -0.45514217 0.00000000
v 0.25534970 -0.45816344 0.00000000
v 0.26476879 -0.46057384 0.00000000
v 0.27500880 -0.46262813 0.00000000
v 0.28512911 -0.46472527 0.00000000
v 0.29434368 -0.46715912 0.00000000
v 0.30231824 -0.46993889 0.00000000
v 0.30923197 -0.47281841 0.00000000
v 0.31560416 -0.47548686 0.00000000
v 0.32198860 -0.47775963 0.00000000
v 0.32868712 -0.47966304 0.00000000
v 0.33563773 -0.48141006 0.00000000
v 0.34252905 -0.48329462 0.00000000
v 0.34902143 -0.48553533 0.00000000
v 0.35489677 -0.48814509 0.00000000
v 0.36007615 -0.49092460 0.00000000
v 0.36457805 -0.49359170 0.00000000
v 0.36849507 -0.49593962 0.00000000
v 0.37199219 -0.49790304 0.00000000
v 0.37529275 -0.49950586 0.00000000
v 0.37863761 -0.50075550 0.00000000
v 0.38223048 -0.50156582 0.00000000
v 0.38619107 -0.50175575 0.00000000
v 0.39053252 -0.50112601 0.00000000
v 0.39516605 -0.49957145 0.00000000
v 0.39992998 -0.49715752 0.00000000
v 0.40464287 -0.49411229 0.00000000
v 0.40916716 -0.49076114 0.00000000
v 0.41343860 -0.48748296 0.00000000
v 0.41742943 -0.48471676 0.00000000
v 0.42109075 -0.48295276 0.00000000
v 0.42436921 -0.48264104 0.00000000
v 0.42732222 -0.48405914 0.00000000
v 0.43022575 -0.48724147 0.00000000
v 0.43353186 -0.49199289 0.00000000
v 0.43764695 -0.49791134 0.00000000
v 0.44267768 -0.50438771 0.00000000
v 0.44836399 -0.51066558 0.00000000
v 0.45428076 -0.51602921 0.00000000
v 0.46013366 -0.52003157 0.00000000
v 0.46587330 -0.52259191 0.00000000
v 0.47154837 -0.52391185 0.00000000
v 0.47709768 -0.52432574 0.00000000
v 0.48231137 -0.52421236 0.00000000
v 0.48696324 -0.52397422 0.00000000
v 0.49093917 -0.52401127 0.00000000
v 0.49425009 -0.52465084 0.00000000
v 0.49697740 -0.52606957 0.00000000
v 0.49923973 -0.52826377 0.00000000
v 0.50119257 -0.53108766 0.00000000
v 0.50302061 -0.53433193 0.00000000
v 0.50491134 -0.53780077 0.00000000
v 0.50703968 -0.54136386 0.00000000
v 0.50957957 -0.54498086 0.00000000
v 0.51270780 -0.54869192 0.00000000
v 0.51655539 -0.55255714 0.00000000
v 0.52113024 -0.55655215 0.00000000
v 0.52631080 -0.56047885 0.00000000
v 0.53196546 -0.56395907 0.00000000
v 0.53809170 -0.56652115 0.00000000
v 0.54478596 -0.56773391 0.00000000
v 0.55200961 -0.56734229 0.00000000
v 0.55937130 -0.56536507 0.00000000
v 0.56618791 -0.56209181 0.00000000
v 0.57182194 -0.55793504 0.00000000
v 0.57601259 -0.55319974 0.00000000
v 0.57893760 -0.54792863 0.00000000
v 0.58101365 -0.54194284 0.00000000
v 0.58264572 -0.53504620 0.00000000
v 0.58409690 -0.52723263 0.00000000
v 0.58549156 -0.51873827 0.00000000
v 0.58687309 -0.50991020 0.00000000
v 0.58825248 -0.50101423 0.00000000
v 0.58963165 -0.49213655 0.00000000
v 0.59101081 -0.48322265 0.00000000
v 0.59238997 -0.47417676 0.00000000
v 0.59376913 -0.46493420 0.00000000
v 0.59514834 -0.45548148 0.00000000
v 0.59652800 -0.44584054 0.00000000
v 0.59791016 -0.43604854 0.00000000
v 0.59930212 -0.42617738 0.00000000
v 0.60072256 -0.41641538 0.00000000
v 0.60220668 -0.40715794 0.00000000
v 0.60380251 -0.39900170 0.00000000
v 0.60555382 -0.39259203 0.00000000
v 0.60747676 -0.38839308 0.00000000
v 0.60954585 -0.38651657 0.00000000
v 0.61169821 -0.38670329 0.00000000
v 0.61385056 -0.38845103 0.00000000
v 0.61591965 -0.39120499 0.00000000
v 0.61784259 -0.39451737 0.00000000
v 0.61959390 -0.39812944 0.00000000
v 0.62118973 -0.40197790 0.00000000
v 0.62267385 -0.40614119 0.00000000
v 0.62409429 -0.41073722 0.00000000
v 0.62548625 -0.41580882 0.00000000
v 0.62686841 -0.42126712 0.00000000
v 0.62824807 -0.42693439 0.00000000
v 0.62962728 -0.43263856 0.00000000
v 0.63100645 -0.43826845 0.00000000
v 0.63238566 -0.44376084 0.00000000
v 0.63376532 -0.44906791 0.00000000
v 0.63514748 -0.45415051 0.00000000
v 0.63653938 -0.45899316 0.00000000
v 0.63795933 -0.46362019 0.00000000
v 0.63944045 -0.46810144 0.00000000
v 0.64102353 -0.47252986 0.00000000
v 0.64273405 -0.47696087 0.00000000
v 0.64455504 -0.48135119 0.00000000
v 0.64642021 -0.48556390 0.00000000
v 0.64824119 -0.48945278 0.00000000
v 0.64995172 -0.49295641 0.00000000
v 0.65153486 -0.49612412 0.00000000
v 0.65301659 -0.49906953 0.00000000
v 0.65444058 -0.50190942 0.00000000
v 0.65585173 -0.50473752 0.00000000
v 0.65730322 -0.50763288 0.00000000
v 0.65887965 -0.51067015 0.00000000
v 0.66071048 -0.51390564 0.00000000
v 0.66294356 -0.51734794 0.00000000
v 0.66567198 -0.52094743 0.00000000
v 0.66885413 -0.52462514 0.00000000
v 0.67229288 -0.52831689 0.00000000
v 0.67570444 -0.53198905 0.00000000
v 0.67883396 -0.53561833 0.00000000
v 0.68154079 -0.53917419 0.00000000
v 0.68381340 -0.54263528 0.00000000
v 0.68573294 -0.54602155 0.00000000
v 0.68742608 -0.54940023 0.00000000
v 0.68902840 -0.55285543 0.00000000
v 0.69065632 -0.55644948 0.00000000
v 0.69238020 -0.56020116 0.00000000
v 0.69420429 -0.56408039 0.00000000
v 0.69607047 -0.56801530 0.00000000
v 0.69789456 -0.57192172 0.00000000
v 0.69961833 -0.57575497 0.00000000
v 0.70124520 -0.57955118 0.00000000
v 0.70284102 -0.58341961 0.00000000
v 0.70450567 -0.58748522 0.00000000
v 0.70633090 -0.59181807 0.00000000
v 0.70835880 -0.59638713 0.00000000
v 0.71055584 -0.60105689 0.00000000
v 0.71281876 -0.60563155 0.00000000
v 0.71501580 -0.60993517 0.00000000
v 0.71704370 -0.61389076 0.00000000
v 0.71886893 -0.61754967 0.00000000
v 0.72053358 -0.62105169 0.00000000
v 0.72212946 -0.62454613 0.00000000
v 0.72375677 -0.62812203 0.00000000
v 0.72548309 -0.63176820 0.00000000
v 0.72731733 -0.63535815 0.00000000
v 0.72921364 -0.63867531 0.00000000
v 0.73110655 -0.64151575 0.00000000
v 0.73295263 -0.64385054 0.00000000
v 0.73474727 -0.64592573 0.00000000
v 0.73651218 -0.64817215 0.00000000
v 0.73827709 -0.65095476 0.00000000
v 0.74007173 -0.65435803 0.00000000
v 0.74191781 -0.65817719 0.00000000
v 0.74381066 -0.66208945 0.00000000
v 0.74570648 -0.66583903 0.00000000
v 0.74753771 -0.66931368 0.00000000
v 0.74925130 -0.67251923 0.00000000
v 0.75083799 -0.67552175 0.00000000
v 0.75233345 -0.67840511 0.00000000
v 0.75380368 -0.68125499 0.00000000
v 0.75533878 -0.68416340 0.00000000
v 0.75705995 -0.68723820 0.00000000
v 0.75911770 -0.69059299 0.00000000
v 0.76165296 -0.69429993 0.00000000
v 0.76471926 -0.69832126 0.00000000
v 0.76821084 -0.70247217 0.00000000
v 0.77186805 -0.70646585 0.00000000
v 0.77539056 -0.71003255 0.00000000
v 0.77859615 -0.71303932 0.00000000
v 0.78150776 -0.71553119 0.00000000
v 0.78430298 -0.71767555 0.00000000
v 0.78717366 -0.71965721 0.00000000
v 0.79020801 -0.72159114 0.00000000
v 0.79337331 -0.72349439 0.00000000
v 0.79659379 -0.72531442 0.00000000
v 0.79985546 -0.72697162 0.00000000
v 0.80325418 -0.72836662 0.00000000
v 0.80693067 -0.72934363 0.00000000
v 0.81090840 -0.72966045 0.00000000
v 0.81494650 -0.72903205 0.00000000
v 0.81855513 -0.72725614 0.00000000
v 0.82121133 -0.72434384 0.00000000
v 0.82262998 -0.72055339 0.00000000
v 0.82288113 -0.71629387 0.00000000
v 0.82228602 -0.71196133 0.00000000
v 0.82121170 -0.70780597 0.00000000
v 0.81992581 -0.70389101 0.00000000
v 0.81856825 -0.70014214 0.00000000
v 0.81719265 -0.69644415 0.00000000
v 0.81581386 -0.69272681 0.00000000
v 0.81443471 -0.68899418 0.00000000
v 0.81305555 -0.68529003 0.00000000
v 0.81167639 -0.68163815 0.00000000
v 0.81029723 -0.67801267 0.00000000
v 0.80891807 -0.67436385 0.00000000
v 0.80753892 -0.67067344 0.00000000
v 0.80615976 -0.66698764 0.00000000
v 0.80478060 -0.66339820 0.00000000
v 0.80340144 -0.65998808 0.00000000
v 0.80202228 -0.65678319 0.00000000
v 0.80064312 -0.65373933 0.00000000
v 0.79926396 -0.65076434 0.00000000
v 0.79788480 -0.64775826 0.00000000
v 0.79650564 -0.64465483 0.00000000
v 0.79512648 -0.64144863 0.00000000
v 0.79374732 -0.63819106 0.00000000
v 0.79236816 -0.63495008 0.00000000
v 0.79098900 -0.63175843 0.00000000
v 0.78960984 -0.62859227 0.00000000
v 0.78823068 -0.62540062 0.00000000
v 0.78685152 -0.62215969 0.00000000
v 0.78547236 -0.61890262 0.00000000
v 0.78409320 -0.61569947 0.00000000
v 0.78271404 -0.61260928 0.00000000
v 0.78133488 -0.60964694 0.00000000
v 0.77995572 -0.60678616 0.00000000
v 0.77857656 -0.60398405 0.00000000
v 0.77719740 -0.60120024 0.00000000
v 0.77581824 -0.59839814 0.00000000
v 0.77443908 -0.59553736 0.00000000
v 0.77305992 -0.59257501 0.00000000
v 0.77168076 -0.58948482 0.00000000
v 0.77030160 -0.58628168 0.00000000
v 0.76892244 -0.58302461 0.00000000
v 0.76754328 -0.57978368 0.00000000
v 0.76616412 -0.57659203 0.00000000
v 0.76478496 -0.57342582 0.00000000
v 0.76340580 -0.57023367 0.00000000
v 0.76202664 -0.56698974 0.00000000
v 0.76064748 -0.56371992 0.00000000
v 0.75926832 -0.56047594 0.00000000
v 0.75788916 -0.55728329 0.00000000
v 0.75651000 -0.55411408 0.00000000
v 0.75513084 -0.55090968 0.00000000
v 0.75375168 -0.54762797 0.00000000
v 0.75237252 -0.54426894 0.00000000
v 0.75099336 -0.54086182 0.00000000
v 0.74961420 -0.53743976 0.00000000
v 0.74823504 -0.53403265 0.00000000
v 0.74685588 -0.53067361 0.00000000
v 0.74547672 -0.52739184 0.00000000
v 0.74409756 -0.52418695 0.00000000
v 0.74271840 -0.52101474 0.00000000
v 0.74133924 -0.51780934 0.00000000
v 0.73996008 -0.51452453 0.00000000
v 0.73858092 -0.51115225 0.00000000
v 0.73720176 -0.50770140 0.00000000
v 0.73582271 -0.50416514 0.00000000
v 0.73444461 -0.50051638 0.00000000
v 0.73307216 -0.49673748 0.00000000
v 0.73172350 -0.49285592 0.00000000
v 0.73045080 -0.48896201 0.00000000
v 0.72936883 -0.48521249 0.00000000
v 0.72867171 -0.48183503 0.00000000
v 0.72860628 -0.47912880 0.00000000
v 0.72938628 -0.47743032 0.00000000
v 0.73107881 -0.47701948 0.00000000
v 0.73353603 -0.47799184 0.00000000
v 0.73642999 -0.48017923 0.00000000
v 0.73937832 -0.48319248 0.00000000
v 0.74208365 -0.48657449 0.00000000
v 0.74440834 -0.48996585 0.00000000
v 0.74636257 -0.49318603 0.00000000
v 0.74803990 -0.49621003 0.00000000
v 0.74955001 -0.49909219 0.00000000
v 0.75097945 -0.50189968 0.00000000
v 0.75238515 -0.50468443 0.00000000
v 0.75380820 -0.50748664 0.00000000
v 0.75528983 -0.51034742 0.00000000
v 0.75687296 -0.51330971 0.00000000
v 0.75858349 -0.51639941 0.00000000
v 0.76040453 -0.51959960 0.00000000
v 0.76227020 -0.52284443 0.00000000
v 0.76409424 -0.52604763 0.00000000
v 0.76581801 -0.52915056 0.00000000
v 0.76744487 -0.53215659 0.00000000
v 0.76904070 -0.53513157 0.00000000
v 0.77070540 -0.53817543 0.00000000
v 0.77253113 -0.54138033 0.00000000
v 0.77456203 -0.54479039 0.00000000
v 0.77677182 -0.54837933 0.00000000
v 0.77907552 -0.55206219 0.00000000
v 0.78137452 -0.55574035 0.00000000
v 0.78360639 -0.55935139 0.00000000
v 0.78576350 -0.56288765 0.00000000
v 0.78787302 -0.56637634 0.00000000
v 0.78996810 -0.56985058 0.00000000
v 0.79208068 -0.57334231 0.00000000
v 0.79425153 -0.57689232 0.00000000
v 0.79653018 -0.58055014 0.00000000
v 0.79895663 -0.58435575 0.00000000
v 0.80154577 -0.58832404 0.00000000
v 0.80429035 -0.59244778 0.00000000
v 0.80716807 -0.59670467 0.00000000
v 0.81013131 -0.60104706 0.00000000
v 0.81308975 -0.60538466 0.00000000
v 0.81592574 -0.60959981 0.00000000
v 0.81856165 -0.61361489 0.00000000
v 0.82103788 -0.61747028 0.00000000
v 0.82352431 -0.62133586 0.00000000
v 0.82623001 -0.62542061 0.00000000
v 0.82926757 -0.62983633 0.00000000
v 0.83258088 -0.63452269 0.00000000
v 0.83599745 -0.63929192 0.00000000
v 0.83936143 -0.64394734 0.00000000
v 0.84264330 -0.64837746 0.00000000
v 0.84595730 -0.65257206 0.00000000
v 0.84949562 -0.65658313 0.00000000
v 0.85343264 -0.66047609 0.00000000
v 0.85784854 -0.66428857 0.00000000
v 0.86270052 -0.66799526 0.00000000
v 0.86785179 -0.67148918 0.00000000
v 0.87314656 -0.67459436 0.00000000
v 0.87848380 -0.67709877 0.00000000
v 0.88381934 -0.67878026 0.00000000
v 0.88906567 -0.67942690 0.00000000
v 0.89396664 -0.67888827 0.00000000
v 0.89809321 -0.67716305 0.00000000
v 0.90102010 -0.67445397 0.00000000
v 0.90255950 -0.67111439 0.00000000
v 0.90285544 -0.66750927 0.00000000
v 0.90227368 -0.66389735 0.00000000
v 0.90120242 -0.66040474 0.00000000
v 0.89991703 -0.65706081 0.00000000
v 0.89855952 -0.65383498 0.00000000
v 0.89718392 -0.65066043 0.00000000
v 0.89580513 -0.64746734 0.00000000
v 0.89442599 -0.64422625 0.00000000
v 0.89304678 -0.64096912 0.00000000
v 0.89166712 -0.63776548 0.00000000
v 0.89028496 -0.63467229 0.00000000
v 0.88889305 -0.63169725 0.00000000
v 0.88747311 -0.62879619 0.00000000
v 0.88599199 -0.62589512 0.00000000
v 0.88440891 -0.62292014 0.00000000
v 0.88269838 -0.61982745 0.00000000
v 0.88087739 -0.61662681 0.00000000
v 0.87901222 -0.61338242 0.00000000
v 0.87719119 -0.61018222 0.00000000
v 0.87548016 -0.60709204 0.00000000
v 0.87389408 -0.60412680 0.00000000
v 0.87240022 -0.60125377 0.00000000
v 0.87093949 -0.59841389 0.00000000
v 0.86944562 -0.59554086 0.00000000
v 0.86785949 -0.59257557 0.00000000
v 0.86614796 -0.58948488 0.00000000
v 0.86432392 -0.58628168 0.00000000
v 0.86244601 -0.58302461 0.00000000
v 0.86058424 -0.57978368 0.00000000
v 0.85877175 -0.57659203 0.00000000
v 0.85698470 -0.57342582 0.00000000
v 0.85517171 -0.57023367 0.00000000
v 0.85330694 -0.56698974 0.00000000
v 0.85141628 -0.56371992 0.00000000
v 0.84955146 -0.56047594 0.00000000
v 0.84773797 -0.55728329 0.00000000
v 0.84594792 -0.55411408 0.00000000
v 0.84412269 -0.55090968 0.00000000
v 0.84222013 -0.54762797 0.00000000
v 0.84024026 -0.54426894 0.00000000
v 0.83821230 -0.54086182 0.00000000
v 0.83616940 -0.53743976 0.00000000
v 0.83414145 -0.53403265 0.00000000
v 0.83216157 -0.53067361 0.00000000
v 0.83025902 -0.52739190 0.00000000
v 0.82843379 -0.52418751 0.00000000
v 0.82664379 -0.52101835 0.00000000
v 0.82483080 -0.51782620 0.00000000
v 0.82296892 -0.51458516 0.00000000
v 0.82109051 -0.51132759 0.00000000
v 0.81926353 -0.50812145 0.00000000
v 0.81753975 -0.50501851 0.00000000
v 0.81591584 -0.50201544 0.00000000
v 0.81433275 -0.49905319 0.00000000
v 0.81270884 -0.49605012 0.00000000
v 0.81098506 -0.49294718 0.00000000
v 0.80915808 -0.48974104 0.00000000
v 0.80727967 -0.48648347 0.00000000
v 0.80541785 -0.48324249 0.00000000
v 0.80360536 -0.48005083 0.00000000
v 0.80181847 -0.47688468 0.00000000
v 0.80000710 -0.47369309 0.00000000
v 0.79815254 -0.47045288 0.00000000
v 0.79630812 -0.46720092 0.00000000
v 0.79460329 -0.46402362 0.00000000
v 0.79322974 -0.46103236 0.00000000
v 0.79242765 -0.45836832 0.00000000
v 0.79245195 -0.45623746 0.00000000
v 0.79348490 -0.45491939 0.00000000
v 0.79551880 -0.45469658 0.00000000
v 0.79830495 -0.45572903 0.00000000
v 0.80144956 -0.45797300 0.00000000
v 0.80461676 -0.46121837 0.00000000
v 0.80769100 -0.46521024 0.00000000
v 0.81077634 -0.46974681 0.00000000
v 0.81404907 -0.47468658 0.00000000
v 0.81759755 -0.47990035 0.00000000
v 0.82137661 -0.48525239 0.00000000
v 0.82529727 -0.49065256 0.00000000
v 0.82936948 -0.49614443 0.00000000
v 0.83379364 -0.50195950 0.00000000
v 0.83893897 -0.50848099 0.00000000
v 0.84519406 -0.51609024 0.00000000
v 0.85272549 -0.52491922 0.00000000
v 0.86126423 -0.53463219 0.00000000
v 0.87009745 -0.54443063 0.00000000
v 0.87834600 -0.55336911 0.00000000
v 0.88537644 -0.56080738 0.00000000
v 0.89106060 -0.56666828 0.00000000
v 0.89571757 -0.57132524 0.00000000
v 0.89982781 -0.57525865 0.00000000
v 0.90374950 -0.57877152 0.00000000
v 0.90760392 -0.58192993 0.00000000
v 0.91134000 -0.58467276 0.00000000
v 0.91488209 -0.58693824 0.00000000
v 0.91826328 -0.58871512 0.00000000
v 0.92170168 -0.59002961 0.00000000
v 0.92559999 -0.59092085 0.00000000
v 0.93042438 -0.59142895 0.00000000
v 0.93643925 -0.59158364 0.00000000
v 0.94341305 -0.59138527 0.00000000
v 0.95054104 -0.59079390 0.00000000
v 0.95673474 -0.58974407 0.00000000
v 0.96112156 -0.58817883 0.00000000
v 0.96340036 -0.58608256 0.00000000
v 0.96383708 -0.58349857 0.00000000
v 0.96299077 -0.58052534 0.00000000
v 0.96141158 -0.57728606 0.00000000
v 0.95947065 -0.57387984 0.00000000
v 0.95733434 -0.57034317 0.00000000
v 0.95502192 -0.56664752 0.00000000
v 0.95248085 -0.56272671 0.00000000
v 0.94963807 -0.55850472 0.00000000
v 0.94642093 -0.55390842 0.00000000
v 0.94276906 -0.54887739 0.00000000
v 0.93865657 -0.54338574 0.00000000
v 0.93411805 -0.53746806 0.00000000
v 0.92925291 -0.53122376 0.00000000
v 0.92419105 -0.52478273 0.00000000
v 0.91903228 -0.51824481 0.00000000
v 0.91380054 -0.51163390 0.00000000
v 0.90845329 -0.50490749 0.00000000
v 0.90294575 -0.49802080 0.00000000
v 0.89730046 -0.49099635 0.00000000
v 0.89162749 -0.48394421 0.00000000
v 0.88608486 -0.47702242 0.00000000
v 0.88080992 -0.47036833 0.00000000
v 0.87585407 -0.46403331 0.00000000
v 0.87114256 -0.45794265 0.00000000
v 0.86648424 -0.45190516 0.00000000
v 0.86164765 -0.44568931 0.00000000
v 0.85647722 -0.43913872 0.00000000
v 0.85098361 -0.43225995 0.00000000
v 0.84536114 -0.42523283 0.00000000
v 0.83995084 -0.41836180 0.00000000
v 0.83520952 -0.41203740 0.00000000
v 0.83171392 -0.40675480 0.00000000
v 0.83014928 -0.40314826 0.00000000
v 0.83118937 -0.40192555 0.00000000
v 0.83524376 -0.40362887 0.00000000
v 0.84219970 -0.40832300 0.00000000
v 0.85136138 -0.41544877 0.00000000
v 0.86166419 -0.42399009 0.00000000
v 0.87201629 -0.43284077 0.00000000
v 0.88154592 -0.44111455 0.00000000
v 0.88968491 -0.44826227 0.00000000
v 0.89617829 -0.45405618 0.00000000
v 0.90108850 -0.45854125 0.00000000
v 0.90475551 -0.46197434 0.00000000
v 0.90767697 -0.46473675 0.00000000
v 0.91036465 -0.46723820 0.00000000
v 0.91325254 -0.46983960 0.00000000
v 0.91665192 -0.47279275 0.00000000
v 0.92070478 -0.47618863 0.00000000
v 0.92534276 -0.47993611 0.00000000
v 0.93031422 -0.48380260 0.00000000
v 0.93530961 -0.48750933 0.00000000
v 0.94014325 -0.49082987 0.00000000
v 0.94491736 -0.49363965 0.00000000
v 0.95008416 -0.49590300 0.00000000
v 0.95630608 -0.49762124 0.00000000
v 0.96407402 -0.49877955 0.00000000
v 0.97324937 -0.49931971 0.00000000
v 0.98287164 -0.49913687 0.00000000
v 0.99144075 -0.49807078 0.00000000
v 0.99748530 -0.49587020 0.00000000
v 1.00000000 -0.49216195 0.00000000
v 0.99854037 -0.48650328 0.00000000
v 0.99312634 -0.47856406 0.00000000
v 0.98418957 -0.46837147 0.00000000
v 0.97257892 -0.45644848 0.00000000
v 0.95946132 -0.44370798 0.00000000
v 0.94603948 -0.43112951 0.00000000
v 0.93322274 -0.41941009 0.00000000
v 0.92147695 -0.40880334 0.00000000
v 0.91095578 -0.39923097 0.00000000
v 0.90179551 -0.39057100 0.00000000
v 0.89432241 -0.38291506 0.00000000
v 0.88899296 -0.37661350 0.00000000
v 0.88611773 -0.37208141 0.00000000
v 0.88561060 -0.36951980 0.00000000
v 0.88697374 -0.36876217 0.00000000
v 0.88951221 -0.36934132 0.00000000
v 0.89259958 -0.37069877 0.00000000
v 0.89583389 -0.37238669 0.00000000
v 0.89905370 -0.37416462 0.00000000
v 0.90226927 -0.37598284 0.00000000
v 0.90556545 -0.37789592 0.00000000
v 0.90901077 -0.37996149 0.00000000
v 0.91259927 -0.38217076 0.00000000
v 0.91624424 -0.38443657 0.00000000
v 0.91982049 -0.38663361 0.00000000
v 0.92322512 -0.38865856 0.00000000
v 0.92641992 -0.39047105 0.00000000
v 0.92943720 -0.39209481 0.00000000
v 0.93236011 -0.39358767 0.00000000
v 0.93530341 -0.39500451 0.00000000
v 0.93840729 -0.39637042 0.00000000
v 0.94183190 -0.39766496 0.00000000
v 0.94572888 -0.39881420 0.00000000
v 0.95018408 -0.39969785 0.00000000
v 0.95515875 -0.40018330 0.00000000
v 0.96047329 -0.40017954 0.00000000
v 0.96585471 -0.39967528 0.00000000
v 0.97101836 -0.39872306 0.00000000
v 0.97571905 -0.39736734 0.00000000
v 0.97972562 -0.39556306 0.00000000
v 0.98274577 -0.39315256 0.00000000
v 0.98440221 -0.38994587 0.00000000
v 0.98435129 -0.38588058 0.00000000
v 0.98250602 -0.38115765 0.00000000
v 0.97918234 -0.37623114 0.00000000
v 0.97500720 -0.37162491 0.00000000
v 0.97063063 -0.36769455 0.00000000
v 0.96646139 -0.36450431 0.00000000
v 0.96260396 -0.36188634 0.00000000
v 0.95897805 -0.35960099 0.00000000
v 0.95547068 -0.35746468 0.00000000
v 0.95201145 -0.35538339 0.00000000
v 0.94857471 -0.35332569 0.00000000
v 0.94516439 -0.35129452 0.00000000
v 0.94180484 -0.34931414 0.00000000
v 0.93852308 -0.34741153 0.00000000
v 0.93531868 -0.34558629 0.00000000
v 0.93214947 -0.34379624 0.00000000
v 0.92895682 -0.34198275 0.00000000
v 0.92571278 -0.34011788 0.00000000
v 0.92244246 -0.33822672 0.00000000
v 0.91919554 -0.33635895 0.00000000
v 0.91599064 -0.33453322 0.00000000
v 0.91278365 -0.33270538 0.00000000
v 0.90949004 -0.33079093 0.00000000
v 0.90604519 -0.32872524 0.00000000
v 0.90245675 -0.32651596 0.00000000
v 0.89881172 -0.32425010 0.00000000
v 0.89523503 -0.32205256 0.00000000
v 0.89182791 -0.32002461 0.00000000
v 0.88862351 -0.31819937 0.00000000
v 0.88557965 -0.31653467 0.00000000
v 0.88260417 -0.31493834 0.00000000
v 0.87959515 -0.31330848 0.00000000
v 0.87647947 -0.31157196 0.00000000
v 0.87323544 -0.30970709 0.00000000
v 0.86988814 -0.30773896 0.00000000
v 0.86648097 -0.30571095 0.00000000
v 0.86304667 -0.30365580 0.00000000
v 0.85959882 -0.30158712 0.00000000
v 0.85613782 -0.29950528 0.00000000
v 0.85265204 -0.29739864 0.00000000
v 0.84911489 -0.29524049 0.00000000
v 0.84549602 -0.29299923 0.00000000
v 0.84178673 -0.29065955 0.00000000
v 0.83801417 -0.28822436 0.00000000
v 0.83423401 -0.28568471 0.00000000
v 0.83053328 -0.28300018 0.00000000
v 0.82707295 -0.28014820 0.00000000
v 0.82413306 -0.27723040 0.00000000
v 0.82207432 -0.27453102 0.00000000
v 0.82119107 -0.27243275 0.00000000
v 0.82155338 -0.27122658 0.00000000
v 0.82297102 -0.27096523 0.00000000
v 0.82510537 -0.27147112 0.00000000
v 0.82763012 -0.27246688 0.00000000
v 0.83033035 -0.27370993 0.00000000
v 0.83311340 -0.27505105 0.00000000
v 0.83597157 -0.27642216 0.00000000
v 0.83893654 -0.27780011 0.00000000
v 0.84203896 -0.27917915 0.00000000
v 0.84527989 -0.28055831 0.00000000
v 0.84862618 -0.28193747 0.00000000
v 0.85203024 -0.28331663 0.00000000
v 0.85545132 -0.28469579 0.00000000
v 0.85885575 -0.28607494 0.00000000
v 0.86220554 -0.28745400 0.00000000
v 0.86546751 -0.28883215 0.00000000
v 0.86865966 -0.29020521 0.00000000
v 0.87191339 -0.29155787 0.00000000
v 0.87550074 -0.29284925 0.00000000
v 0.87976911 -0.29399700 0.00000000
v 0.88496755 -0.29487460 0.00000000
v 0.89104939 -0.29533461 0.00000000
v 0.89761260 -0.29525005 0.00000000
v 0.90406115 -0.29454738 0.00000000
v 0.90986520 -0.29321510 0.00000000
v 0.91469464 -0.29130166 0.00000000
v 0.91834939 -0.28892260 0.00000000
v 0.92064213 -0.28626655 0.00000000
v 0.92141653 -0.28356802 0.00000000
v 0.92068342 -0.28104112 0.00000000
v 0.91869530 -0.27881240 0.00000000
v 0.91585230 -0.27689795 0.00000000
v 0.91252553 -0.27523331 0.00000000
v 0.90895530 -0.27372670 0.00000000
v 0.90527545 -0.27230076 0.00000000
v 0.90158801 -0.27090785 0.00000000
v 0.89799728 -0.26952559 0.00000000
v 0.89458683 -0.26814592 0.00000000
v 0.89138189 -0.26676671 0.00000000
v 0.88833803 -0.26538755 0.00000000
v 0.88536304 -0.26400839 0.00000000
v 0.88235702 -0.26262923 0.00000000
v 0.87925409 -0.26125007 0.00000000
v 0.87605084 -0.25987091 0.00000000
v 0.87280551 -0.25849175 0.00000000
v 0.86960231 -0.25711259 0.00000000
v 0.86649987 -0.25573343 0.00000000
v 0.86349685 -0.25435427 0.00000000
v 0.86053461 -0.25297511 0.00000000
v 0.85753159 -0.25159595 0.00000000
v 0.85442915 -0.25021679 0.00000000
v 0.85122596 -0.24883763 0.00000000
v 0.84798063 -0.24745847 0.00000000
v 0.84477743 -0.24607931 0.00000000
v 0.84167500 -0.24470015 0.00000000
v 0.83867197 -0.24332099 0.00000000
v 0.83570973 -0.24194183 0.00000000
v 0.83270666 -0.24056267 0.00000000
v 0.82960372 -0.23918351 0.00000000
v 0.82639758 -0.23780435 0.00000000
v 0.82314001 -0.23642519 0.00000000
v 0.81989903 -0.23504603 0.00000000
v 0.81670737 -0.23366687 0.00000000
v 0.81354116 -0.23228771 0.00000000
v 0.81034901 -0.23090855 0.00000000
v 0.80710508 -0.22952939 0.00000000
v 0.80383527 -0.22815023 0.00000000
v 0.80059134 -0.22677107 0.00000000
v 0.79739919 -0.22539191 0.00000000
v 0.79423298 -0.22401275 0.00000000
v 0.79104133 -0.22263359 0.00000000
v 0.78780040 -0.22125443 0.00000000
v 0.78454332 -0.21987527 0.00000000
v 0.78134013 -0.21849611 0.00000000
v 0.77824944 -0.21711695 0.00000000
v 0.77528415 -0.21573779 0.00000000
v 0.77241112 -0.21435863 0.00000000
v 0.76957123 -0.21297947 0.00000000
v 0.76669821 -0.21160031 0.00000000
v 0.76373297 -0.21022115 0.00000000
v 0.76064278 -0.20884199 0.00000000
v 0.75744258 -0.20746283 0.00000000
v 0.75419825 -0.20608367 0.00000000
v 0.75099811 -0.20470451 0.00000000
v 0.74790842 -0.20332535 0.00000000
v 0.74494613 -0.20194619 0.00000000
v 0.74208535 -0.20056703 0.00000000
v 0.73928324 -0.19918787 0.00000000
v 0.73649943 -0.19780871 0.00000000
v 0.73369733 -0.19642955 0.00000000
v 0.73083655 -0.19505039 0.00000000
v 0.72787426 -0.19367123 0.00000000
v 0.72478457 -0.19229207 0.00000000
v 0.72158442 -0.19091291 0.00000000
v 0.71834009 -0.18953375 0.00000000
v 0.71513990 -0.18815459 0.00000000
v 0.71204971 -0.18677543 0.00000000
v 0.70908447 -0.18539627 0.00000000
v 0.70621144 -0.18401711 0.00000000
v 0.70337155 -0.18263795 0.00000000
v 0.70049848 -0.18125874 0.00000000
v 0.69753274 -0.17987908 0.00000000
v 0.69443955 -0.17849692 0.00000000
v 0.69122661 -0.17710501 0.00000000
v 0.68794150 -0.17568507 0.00000000
v 0.68463939 -0.17420395 0.00000000
v 0.68134578 -0.17262087 0.00000000
v 0.67805217 -0.17091034 0.00000000
v 0.67475001 -0.16908930 0.00000000
v 0.67146440 -0.16722363 0.00000000
v 0.66824846 -0.16539959 0.00000000
v 0.66514253 -0.16367582 0.00000000
v 0.66213600 -0.16204896 0.00000000
v 0.65916096 -0.16045313 0.00000000
v 0.65611710 -0.15878843 0.00000000
v 0.65291221 -0.15696270 0.00000000
v 0.64950215 -0.15493180 0.00000000
v 0.64591321 -0.15272202 0.00000000
v 0.64223040 -0.15041837 0.00000000
v 0.63855274 -0.14811987 0.00000000
v 0.63494470 -0.14589099 0.00000000
v 0.63142118 -0.14374663 0.00000000
v 0.62797334 -0.14167795 0.00000000
v 0.62460156 -0.13968533 0.00000000
v 0.62131685 -0.13777978 0.00000000
v 0.61811195 -0.13595404 0.00000000
v 0.61494274 -0.13416399 0.00000000
v 0.61175059 -0.13235100 0.00000000
v 0.60850956 -0.13048913 0.00000000
v 0.60525198 -0.12861071 0.00000000
v 0.60204584 -0.12678373 0.00000000
v 0.59894290 -0.12505995 0.00000000
v 0.59593983 -0.12343604 0.00000000
v 0.59297753 -0.12185296 0.00000000
v 0.58997401 -0.12022909 0.00000000
v 0.58686858 -0.11850582 0.00000000
v 0.58365269 -0.11668183 0.00000000
v 0.58036708 -0.11481617 0.00000000
v 0.57706492 -0.11299513 0.00000000
v 0.57377131 -0.11128460 0.00000000
v 0.57047770 -0.10970152 0.00000000
v 0.56717560 -0.10822040 0.00000000
v 0.56389048 -0.10680046 0.00000000
v 0.56067754 -0.10540855 0.00000000
v 0.55758435 -0.10402639 0.00000000
v 0.55461856 -0.10264673 0.00000000
v 0.55174498 -0.10126752 0.00000000
v 0.54890198 -0.09988836 0.00000000
v 0.54601521 -0.09850920 0.00000000
v 0.54300314 -0.09713004 0.00000000
v 0.53978499 -0.09575088 0.00000000
v 0.53629621 -0.09437172 0.00000000
v 0.53250284 -0.09299256 0.00000000
v 0.52840625 -0.09161340 0.00000000
v 0.52404036 -0.09023424 0.00000000
v 0.51946711 -0.08885508 0.00000000
v 0.51476765 -0.08747592 0.00000000
v 0.51002821 -0.08609676 0.00000000
v 0.50532995 -0.08471760 0.00000000
v 0.50074765 -0.08333844 0.00000000
v 0.49634033 -0.08195928 0.00000000
v 0.49211828 -0.08058012 0.00000000
v 0.48800799 -0.07920096 0.00000000
v 0.48386077 -0.07782180 0.00000000
v 0.47951937 -0.07644264 0.00000000
v 0.47490217 -0.07506348 0.00000000
v 0.47004877 -0.07368432 0.00000000
v 0.46510321 -0.07230516 0.00000000
v 0.46024982 -0.07092600 0.00000000
v 0.45563267 -0.06954684 0.00000000
v 0.45129177 -0.06816768 0.00000000
v 0.44714755 -0.06678852 0.00000000
v 0.44305001 -0.06540936 0.00000000
v 0.43886874 -0.06403020 0.00000000
v 0.43456338 -0.06265104 0.00000000
v 0.43018494 -0.06127188 0.00000000
v 0.42581755 -0.05989272 0.00000000
v 0.42151694 -0.05851356 0.00000000
v 0.41729074 -0.05713440 0.00000000
v 0.41311842 -0.05575524 0.00000000
v 0.40898094 -0.05437608 0.00000000
v 0.40487830 -0.05299692 0.00000000
v 0.40082954 -0.05161776 0.00000000
v 0.39685514 -0.05023860 0.00000000
v 0.39294707 -0.04885944 0.00000000
v 0.38904749 -0.04748028 0.00000000
v 0.38506465 -0.04610112 0.00000000
v 0.38092723 -0.04472196 0.00000000
v 0.37663561 -0.04334280 0.00000000
v 0.37226322 -0.04196364 0.00000000
v 0.36790908 -0.04058448 0.00000000
v 0.36364925 -0.03920532 0.00000000
v 0.35952451 -0.03782616 0.00000000
v 0.35555317 -0.03644700 0.00000000
v 0.35173481 -0.03506784 0.00000000
v 0.34803626 -0.03368868 0.00000000
v 0.34438480 -0.03230952 0.00000000
v 0.34069209 -0.03093036 0.00000000
v 0.33689872 -0.02955120 0.00000000
v 0.33300594 -0.02817204 0.00000000
v 0.32907238 -0.02679288 0.00000000
v 0.32517966 -0.02541372 0.00000000
v 0.32138679 -0.02403456 0.00000000
v 0.31769714 -0.02265540 0.00000000
v 0.31405891 -0.02127624 0.00000000
v 0.31040409 -0.01989708 0.00000000
v 0.30669995 -0.01851792 0.00000000
v 0.30297036 -0.01713876 0.00000000
v 0.29926671 -0.01575960 0.00000000
v 0.29561483 -0.01438044 0.00000000
v 0.29198880 -0.01300123 0.00000000
v 0.28833643 -0.01162157 0.00000000
v 0.28462978 -0.01023941 0.00000000
v 0.28088750 -0.00884750 0.00000000
v 0.27714307 -0.00742756 0.00000000
v 0.27338929 -0.00594644 0.00000000
v 0.26955989 -0.00436336 0.00000000
v 0.26557970 -0.00265283 0.00000000
v 0.26144747 -0.00083185 0.00000000
v 0.25727571 0.00103332 0.00000000
v 0.25324494 0.00285431 0.00000000
v 0.24950646 0.00456484 0.00000000
v 0.24611038 0.00614792 0.00000000
v 0.24300524 0.00762903 0.00000000
v 0.24009043 0.00904898 0.00000000
v 0.23726964 0.01044094 0.00000000
v 0.23447003 0.01182354 0.00000000
v 0.23162910 0.01320576 0.00000000
v 0.22867616 0.01459521 0.00000000
v 0.22553898 0.01600541 0.00000000
v 0.22218509 0.01745850 0.00000000
v 0.21867051 0.01898040 0.00000000
v 0.21514864 0.02058902 0.00000000
v 0.21181750 0.02228306 0.00000000
v 0.20883221 0.02404077 0.00000000
v 0.20622797 0.02583031 0.00000000
v 0.20388244 0.02762570 0.00000000
v 0.20153446 0.02942025 0.00000000
v 0.19886966 0.03122725 0.00000000
v 0.19564883 0.03305808 0.00000000
v 0.19181025 0.03488473 0.00000000
v 0.18748796 0.03662145 0.00000000
v 0.18295816 0.03816401 0.00000000
v 0.17857382 0.03948066 0.00000000
v 0.17472191 0.04069336 0.00000000
v 0.17178964 0.04208084 0.00000000
v 0.17012466 0.04399470 0.00000000
v 0.17000851 0.04675102 0.00000000
v 0.17166406 0.05057306 0.00000000
v 0.17527119 0.05560078 0.00000000
v 0.18093046 0.06190719 0.00000000
v 0.18854789 0.06944631 0.00000000
v 0.19770290 0.07793288 0.00000000
v 0.20762871 0.08676290 0.00000000
v 0.21739773 0.09510864 0.00000000
v 0.22624802 0.10219968 0.00000000
v 0.23382561 0.10763339 0.00000000
v 0.24013851 0.11151486 0.00000000
v 0.24526163 0.11434705 0.00000000
v 0.24907518 0.11674601 0.00000000
v 0.25128645 0.11913164 0.00000000
v 0.25169430 0.12154761 0.00000000
v 0.25042253 0.12371318 0.00000000
v 0.24791229 0.12528074 0.00000000
v 0.24471264 0.12612479 0.00000000
v 0.24125941 0.12646366 0.00000000
v 0.23778159 0.12675661 0.00000000
v 0.23434500 0.12748108 0.00000000
v 0.23096854 0.12893705 0.00000000
v 0.22773113 0.13116138 0.00000000
v 0.22479598 0.13396063 0.00000000
v 0.22232549 0.13702473 0.00000000
v 0.22034485 0.14005634 0.00000000
v 0.21866915 0.14285344 0.00000000
v 0.21696625 0.14532426 0.00000000
v 0.21491079 0.14746121 0.00000000
v 0.21230473 0.14930928 0.00000000
v 0.20908142 0.15094068 0.00000000
v 0.20522658 0.15242989 0.00000000
v 0.20071120 0.15382649 0.00000000
v 0.19547900 0.15513124 0.00000000
v 0.18945156 0.15628303 0.00000000
v 0.18252049 0.15716708 0.00000000
v 0.17457273 0.15765214 0.00000000
v 0.16560876 0.15764614 0.00000000
v 0.15589839 0.15713464 0.00000000
v 0.14600578 0.15616943 0.00000000
v 0.13659064 0.15481676 0.00000000
v 0.12811763 0.15311738 0.00000000
v 0.12071434 0.15110147 0.00000000
v 0.11426058 0.14884177 0.00000000
v 0.10856431 0.14647885 0.00000000
v 0.10345261 0.14417537 0.00000000
v 0.09876430 0.14203157 0.00000000
v 0.09434237 0.14004120 0.00000000
v 0.09007652 0.13813020 0.00000000
v 0.08594786 0.13624294 0.00000000
v 0.08201295 0.13440326 0.00000000
v 0.07832853 0.13270883 0.00000000
v 0.07487683 0.13127270 0.00000000
v 0.07154607 0.13015444 0.00000000
v 0.06817033 0.12932017 0.00000000
v 0.06458889 0.12865674 0.00000000
v 0.06068546 0.12804338 0.00000000
v 0.05640224 0.12744783 0.00000000
v 0.05174721 0.12698481 0.00000000
v 0.04679994 0.12688976 0.00000000
v 0.04169549 0.12741590 0.00000000
v 0.03657530 0.12871655 0.00000000
v 0.03152987 0.13078404 0.00000000
v 0.02656896 0.13348078 0.00000000
v 0.02162665 0.13663725 0.00000000
v 0.01658529 0.14014755 0.00000000
v 0.01130802 0.14400082 0.00000000
v 0.00567492 0.14824482 0.00000000
v -0.00039942 0.15293940 0.00000000
v -0.00700119 0.15816794 0.00000000
v -0.01430953 0.16412361 0.00000000
v -0.02267864 0.17120123 0.00000000
v -0.03259279 0.17996664 0.00000000
v -0.04442923 0.19091943 0.00000000
v -0.05813108 0.20413527 0.00000000
v -0.07303651 0.21904070 0.00000000
v -0.08804695 0.23453714 0.00000000
v -0.10205698 0.24943082 0.00000000
v -0.11435993 0.26288252 0.00000000
v -0.12479188 0.27460596 0.00000000
v -0.13360481 0.28477156 0.00000000
v -0.14122912 0.29376893 0.00000000
v -0.14807754 0.30199550 0.00000000
v -0.15444089 0.30973791 0.00000000
v -0.16045872 0.31713489 0.00000000
v -0.16614579 0.32420112 0.00000000
v -0.17146236 0.33089684 0.00000000
v -0.17639660 0.33721013 0.00000000
v -0.18101934 0.34321104 0.00000000
v -0.18550500 0.34906975 0.00000000
v -0.19014829 0.35506571 0.00000000
v -0.19537570 0.36158460 0.00000000
v -0.20167668 0.36903433 0.00000000
v -0.20938985 0.37763115 0.00000000
v -0.21843599 0.38716330 0.00000000
v -0.22823734 0.39696465 0.00000000
v -0.23796731 0.40620861 0.00000000
v -0.24696996 0.41432761 0.00000000
v -0.25501244 0.42122135 0.00000000
v -0.26220651 0.42712393 0.00000000
v -0.26875059 0.43231534 0.00000000
v -0.27474918 0.43694088 0.00000000
v -0.28020769 0.44102123 0.00000000
v -0.28511531 0.44454980 0.00000000
v -0.28950102 0.44755635 0.00000000
v -0.29343460 0.45011077 0.00000000
v -0.29701091 0.45230792 0.00000000
v -0.30034426 0.45426211 0.00000000
v -0.30356041 0.45609910 0.00000000
v -0.30676681 0.45792634 0.00000000
v -0.31001395 0.45979432 0.00000000
v -0.31328478 0.46168599 0.00000000
v -0.31653186 0.46355391 0.00000000
v -0.31973776 0.46538065 0.00000000
v -0.32295086 0.46721459 0.00000000
v -0.32627097 0.46915554 0.00000000
v -0.32980348 0.47130889 0.00000000
v -0.33362234 0.47374859 0.00000000
v -0.33776282 0.47650991 0.00000000
v -0.34223216 0.47960009 0.00000000
v -0.34701539 0.48300416 0.00000000
v -0.35207171 0.48668132 0.00000000
v -0.35733449 0.49056494 0.00000000
v -0.36272217 0.49457346 0.00000000
v -0.36815114 0.49862327 0.00000000
v -0.37353983 0.50263280 0.00000000
v -0.37880877 0.50652258 0.00000000
v -0.38389208 0.51022673 0.00000000
v -0.38876603 0.51372152 0.00000000
v -0.39347903 0.51705536 0.00000000
v -0.39815880 0.52035597 0.00000000
v -0.40298552 0.52380353 0.00000000
v -0.40814201 0.52758086 0.00000000
v -0.41376161 0.53182130 0.00000000
v -0.41988932 0.53656985 0.00000000
v -0.42646649 0.54176786 0.00000000
v -0.43335238 0.54727460 0.00000000
v -0.44038858 0.55293163 0.00000000
v -0.44747919 0.55864308 0.00000000
v -0.45462719 0.56441192 0.00000000
v -0.46188688 0.57029245 0.00000000
v -0.46926769 0.57629410 0.00000000
v -0.47667703 0.58232428 0.00000000
v -0.48395687 0.58822496 0.00000000
v -0.49097791 0.59386685 0.00000000
v -0.49770583 0.59921560 0.00000000
v -0.50419159 0.60432220 0.00000000
v -0.51051286 0.60926432 0.00000000
v -0.51672198 0.61409427 0.00000000
v -0.52282538 0.61881851 0.00000000
v -0.52878690 0.62340087 0.00000000
v -0.53454789 0.62778270 0.00000000
v -0.54006153 0.63191718 0.00000000
v -0.54532058 0.63579707 0.00000000
v -0.55035156 0.63944889 0.00000000
v -0.55517996 0.64289813 0.00000000
v -0.55980310 0.64614212 0.00000000
v -0.56419549 0.64915534 0.00000000
v -0.56833602 0.65191671 0.00000000
v -0.57223234 0.65443388 0.00000000
v -0.57592805 0.65675042 0.00000000
v -0.57948981 0.65893303 0.00000000
v -0.58298155 0.66104560 0.00000000
v -0.58644404 0.66312894 0.00000000
v -0.58989499 0.66520073 0.00000000
v -0.59334205 0.66726862 0.00000000
v -0.59678995 0.66933736 0.00000000
v -0.60023870 0.67140695 0.00000000
v -0.60368360 0.67347269 0.00000000
v -0.60711740 0.67552734 0.00000000
v -0.61052446 0.67755523 0.00000000
v -0.61387119 0.67952270 0.00000000
v -0.61711157 0.68138291 0.00000000
v -0.62020995 0.68309608 0.00000000
v -0.62315583 0.68463681 0.00000000
v -0.62594628 0.68596354 0.00000000
v -0.62854251 0.68696394 0.00000000
v -0.63083490 0.68742855 0.00000000
v -0.63265097 0.68710077 0.00000000
v -0.63381275 0.68579592 0.00000000
v -0.63420889 0.68351052 0.00000000
v -0.63382539 0.68042849 0.00000000
v -0.63270543 0.67680712 0.00000000
v -0.63086845 0.67282898 0.00000000
v -0.62825802 0.66853452 0.00000000
v -0.62477019 0.66387756 0.00000000
v -0.62035309 0.65884700 0.00000000
v -0.61510681 0.65355393 0.00000000
v -0.60929445 0.64821384 0.00000000
v -0.60323299 0.64303293 0.00000000
v -0.59714434 0.63809251 0.00000000
v -0.59110241 0.63334202 0.00000000
v -0.58511952 0.62871179 0.00000000
v -0.57925734 0.62422250 0.00000000
v -0.57362398 0.61996568 0.00000000
v -0.56827190 0.61598261 0.00000000
v -0.56314487 0.61218995 0.00000000
v -0.55816598 0.60843882 0.00000000
v -0.55340001 0.60464826 0.00000000
v -0.54914918 0.60090383 0.00000000
v -0.54589576 0.59746859 0.00000000
v -0.54410687 0.59470768 0.00000000
v -0.54400550 0.59294947 0.00000000
v -0.54545167 0.59234115 0.00000000
v -0.54801896 0.59278768 0.00000000
v -0.55120895 0.59401834 0.00000000
v -0.55464533 0.59572481 0.00000000
v -0.55813605 0.59766914 0.00000000
v -0.56162462 0.59971583 0.00000000
v -0.56512099 0.60181485 0.00000000
v -0.56866053 0.60397129 0.00000000
v -0.57227800 0.60620900 0.00000000
v -0.57598171 0.60853348 0.00000000
v -0.57974619 0.61091880 0.00000000
v -0.58353955 0.61333301 0.00000000
v -0.58736051 0.61577480 0.00000000
v -0.59124138 0.61827652 0.00000000
v -0.59521267 0.62086865 0.00000000
v -0.59927438 0.62355120 0.00000000
v -0.60340881 0.62630647 0.00000000
v -0.60760831 0.62912681 0.00000000
v -0.61186809 0.63200743 0.00000000
v -0.61614697 0.63490714 0.00000000
v -0.62035322 0.63773423 0.00000000
v -0.62438824 0.64039009 0.00000000
v -0.62820919 0.64283189 0.00000000
v -0.63184841 0.64509195 0.00000000
v -0.63537799 0.64724236 0.00000000
v -0.63886498 0.64935019 0.00000000
v -0.64235966 0.65146572 0.00000000
v -0.64590967 0.65363656 0.00000000
v -0.64956454 0.65591227 0.00000000
v -0.65335740 0.65832598 0.00000000
v -0.65728497 0.66087438 0.00000000
v -0.66130724 0.66351750 0.00000000
v -0.66536305 0.66619414 0.00000000
v -0.66938532 0.66883725 0.00000000
v -0.67331283 0.67138560 0.00000000
v -0.67710519 0.67379881 0.00000000
v -0.68075701 0.67607147 0.00000000
v -0.68429377 0.67822907 0.00000000
v -0.68774467 0.68030081 0.00000000
v -0.69111695 0.68229393 0.00000000
v -0.69440172 0.68419954 0.00000000
v -0.69760662 0.68602527 0.00000000
v -0.70077588 0.68781538 0.00000000
v -0.70396853 0.68962887 0.00000000
v -0.70721251 0.69149369 0.00000000
v -0.71048233 0.69338435 0.00000000
v -0.71372626 0.69524912 0.00000000
v -0.71691841 0.69706210 0.00000000
v -0.72008462 0.69884916 0.00000000
v -0.72327627 0.70066165 0.00000000
v -0.72651720 0.70252342 0.00000000
v -0.72977427 0.70440133 0.00000000
v -0.73297742 0.70622531 0.00000000
v -0.73606766 0.70793634 0.00000000
v -0.73903045 0.70951947 0.00000000
v -0.74189373 0.71100060 0.00000000
v -0.74470558 0.71242054 0.00000000
v -0.74751743 0.71381244 0.00000000
v -0.75038071 0.71519460 0.00000000
v -0.75334344 0.71657426 0.00000000
v -0.75643319 0.71795348 0.00000000
v -0.75963339 0.71933264 0.00000000
v -0.76287822 0.72071180 0.00000000
v -0.76608136 0.72209089 0.00000000
v -0.76918373 0.72346939 0.00000000
v -0.77218615 0.72484400 0.00000000
v -0.77514433 0.72620081 0.00000000
v -0.77812801 0.72749689 0.00000000
v -0.78116011 0.72863233 0.00000000
v -0.78416032 0.72943081 0.00000000
v -0.78692646 0.72966045 0.00000000

