# https://github.com/mikedh/trimesh
v -0.41545190 -0.95918367 0.00000000
v -0.38046647 -0.97376093 0.00000000
v -0.36005831 -1.00000000 0.00000000
v -0.33673469 -0.97667638 0.00000000
v -0.31632653 -0.94460641 0.00000000
v -0.28717201 -0.93586006 0.00000000
v -0.25510204 -0.93586006 0.00000000
v -0.21137026 -0.93877551 0.00000000
v -0.16763848 -0.95335277 0.00000000
v -0.13848397 -0.93586006 0.00000000
v -0.12682216 -0.89795918 0.00000000
v -0.10932945 -0.87172012 0.00000000
v -0.08309038 -0.85714286 0.00000000
v -0.04810496 -0.86005831 0.00000000
v 0.01311953 -0.86880466 0.00000000
v 0.04227405 -0.86880466 0.00000000
v 0.06851312 -0.87755102 0.00000000
v 0.09475219 -0.85422741 0.00000000
v 0.11807580 -0.84256560 0.00000000
v 0.14139942 -0.86588921 0.00000000
v 0.16180758 -0.88338192 0.00000000
v 0.18513120 -0.86588921 0.00000000
v 0.19970845 -0.84548105 0.00000000
v 0.23177843 -0.83090379 0.00000000
v 0.26967930 -0.83090379 0.00000000
v 0.31049563 -0.83090379 0.00000000
v 0.33965015 -0.84256560 0.00000000
v 0.40670554 -0.83381924 0.00000000
v 0.45335277 -0.80466472 0.00000000
v 0.48833819 -0.76384840 0.00000000
v 0.52623907 -0.72594752 0.00000000
v 0.49708455 -0.69970845 0.00000000
v 0.47084548 -0.70262391 0.00000000
v 0.45043732 -0.68513120 0.00000000
v 0.45335277 -0.65014577 0.00000000
v 0.48833819 -0.61516035 0.00000000
v 0.51457726 -0.58892128 0.00000000
v 0.53790087 -0.55393586 0.00000000
v 0.55539359 -0.52478134 0.00000000
v 0.56413994 -0.48396501 0.00000000
v 0.56705539 -0.45189504 0.00000000
v 0.56122449 -0.40816327 0.00000000
v 0.52623907 -0.37900875 0.00000000
v 0.49125364 -0.37026239 0.00000000
v 0.43294461 -0.35860058 0.00000000
v 0.40670554 -0.36443149 0.00000000
v 0.38629738 -0.38775510 0.00000000
v 0.35422741 -0.38483965 0.00000000
v 0.36297376 -0.34985423 0.00000000
v 0.38046647 -0.32653061 0.00000000
v 0.37172012 -0.28862974 0.00000000
v 0.35714286 -0.24781341 0.00000000
v 0.35422741 -0.21865889 0.00000000
v 0.34548105 -0.18367347 0.00000000
v 0.33673469 -0.15743440 0.00000000
v 0.30174927 -0.13411079 0.00000000
v 0.30174927 -0.10787172 0.00000000
v 0.31632653 -0.09037901 0.00000000
v 0.29883382 -0.06705539 0.00000000
v 0.28425656 -0.03498542 0.00000000
v 0.27259475 -0.01457726 0.00000000
v 0.23760933 0.00000000 0.00000000
v 0.19679300 0.01166181 0.00000000
v 0.17638484 0.02623907 0.00000000
v 0.15889213 0.05830904 0.00000000
v 0.14723032 0.09620991 0.00000000
v 0.13556851 0.13411079 0.00000000
v 0.12973761 0.16326531 0.00000000
v 0.12973761 0.20116618 0.00000000
v 0.12682216 0.23615160 0.00000000
v 0.11516035 0.25947522 0.00000000
v 0.08892128 0.27988338 0.00000000
v 0.06559767 0.29446064 0.00000000
v 0.05102041 0.31195335 0.00000000
v 0.03644315 0.32653061 0.00000000
v 0.00437318 0.33819242 0.00000000
v -0.01020408 0.36151603 0.00000000
v -0.05393586 0.34110787 0.00000000
v -0.07142857 0.33527697 0.00000000
v -0.10932945 0.33527697 0.00000000
v -0.09766764 0.36151603 0.00000000
v -0.07434402 0.38192420 0.00000000
v -0.05102041 0.39067055 0.00000000
v -0.02769679 0.40233236 0.00000000
v -0.01020408 0.41690962 0.00000000
v -0.01603499 0.44314869 0.00000000
v -0.02769679 0.46938776 0.00000000
v -0.01311953 0.48688047 0.00000000
v 0.01895044 0.50145773 0.00000000
v 0.03644315 0.53061224 0.00000000
v 0.04810496 0.55393586 0.00000000
v 0.05102041 0.56559767 0.00000000
v 0.06851312 0.60641399 0.00000000
v 0.07142857 0.62099125 0.00000000
v 0.07142857 0.66180758 0.00000000
v 0.08600583 0.68513120 0.00000000
v 0.10641399 0.70262391 0.00000000
v 0.10058309 0.72886297 0.00000000
v 0.06268222 0.75801749 0.00000000
v 0.01311953 0.76676385 0.00000000
v -0.03352770 0.75510204 0.00000000
v -0.08892128 0.74927114 0.00000000
v -0.14139942 0.74927114 0.00000000
v -0.17346939 0.73760933 0.00000000
v -0.19679300 0.72011662 0.00000000
v -0.19970845 0.75801749 0.00000000
v -0.18221574 0.79300292 0.00000000
v -0.19970845 0.81341108 0.00000000
v -0.19387755 0.83090379 0.00000000
v -0.15306122 0.85714286 0.00000000
v -0.12973761 0.87755102 0.00000000
v -0.10932945 0.89212828 0.00000000
v -0.08600583 0.90962099 0.00000000
v -0.07434402 0.92128280 0.00000000
v -0.08600583 0.94460641 0.00000000
v -0.08600583 0.96501458 0.00000000
v -0.07142857 0.98833819 0.00000000
v -0.10058309 0.99708455 0.00000000
v -0.12682216 0.99708455 0.00000000
v -0.15597668 0.98250729 0.00000000
v -0.18513120 0.96501458 0.00000000
v -0.21720117 0.95918367 0.00000000
v -0.24635569 0.96209913 0.00000000
v -0.27259475 0.97376093 0.00000000
v -0.30174927 0.99708455 0.00000000
v -0.33965015 1.00000000 0.00000000
v -0.35131195 0.96793003 0.00000000
v -0.35131195 0.94169096 0.00000000
v -0.35131195 0.90379009 0.00000000
v -0.37172012 0.89795918 0.00000000
v -0.35422741 0.87463557 0.00000000
v -0.39212828 0.87172012 0.00000000
v -0.36588921 0.82215743 0.00000000
v -0.41253644 0.80466472 0.00000000
v -0.43877551 0.77842566 0.00000000
v -0.43294461 0.73760933 0.00000000
v -0.43877551 0.71428571 0.00000000
v -0.43002915 0.68221574 0.00000000
v -0.40379009 0.67930029 0.00000000
v -0.44169096 0.64723032 0.00000000
v -0.47376093 0.69096210 0.00000000
v -0.49125364 0.74052478 0.00000000
v -0.52040816 0.72011662 0.00000000
v -0.54956268 0.73177843 0.00000000
v -0.56705539 0.69096210 0.00000000
v -0.54373178 0.66180758 0.00000000
v -0.51749271 0.63848397 0.00000000
v -0.49708455 0.62682216 0.00000000
v -0.47084548 0.61807580 0.00000000
v -0.45918367 0.60058309 0.00000000
v -0.43002915 0.61516035 0.00000000
v -0.44169096 0.57142857 0.00000000
v -0.45335277 0.54518950 0.00000000
v -0.47667638 0.53061224 0.00000000
v -0.49416910 0.51311953 0.00000000
v -0.50291545 0.49271137 0.00000000
v -0.50291545 0.47813411 0.00000000
v -0.50291545 0.45189504 0.00000000
v -0.49125364 0.42565598 0.00000000
v -0.50874636 0.41399417 0.00000000
v -0.47959184 0.41982507 0.00000000
v -0.45918367 0.44314869 0.00000000
v -0.43002915 0.45772595 0.00000000
v -0.40670554 0.46355685 0.00000000
v -0.40087464 0.45481050 0.00000000
v -0.40962099 0.42857143 0.00000000
v -0.42419825 0.39941691 0.00000000
v -0.43586006 0.38192420 0.00000000
v -0.45626822 0.36734694 0.00000000
v -0.47084548 0.35276968 0.00000000
v -0.48833819 0.33527697 0.00000000
v -0.49125364 0.33236152 0.00000000
v -0.51749271 0.31195335 0.00000000
v -0.52040816 0.30320700 0.00000000
v -0.53206997 0.28862974 0.00000000
v -0.52040816 0.27113703 0.00000000
v -0.50874636 0.26530612 0.00000000
v -0.49416910 0.24781341 0.00000000
v -0.47667638 0.27405248 0.00000000
v -0.46501458 0.30612245 0.00000000
v -0.44752187 0.32653061 0.00000000
v -0.42128280 0.33527697 0.00000000
v -0.41545190 0.29446064 0.00000000
v -0.41836735 0.28279883 0.00000000
v -0.42711370 0.25072886 0.00000000
v -0.43002915 0.23032070 0.00000000
v -0.43002915 0.21282799 0.00000000
v -0.43002915 0.19533528 0.00000000
v -0.41545190 0.19241983 0.00000000
v -0.39212828 0.20991254 0.00000000
v -0.36588921 0.21865889 0.00000000
v -0.35131195 0.22157434 0.00000000
v -0.35422741 0.25072886 0.00000000
v -0.36005831 0.26822157 0.00000000
v -0.35422741 0.28571429 0.00000000
v -0.33965015 0.28862974 0.00000000
v -0.31632653 0.27696793 0.00000000
v -0.30758017 0.25655977 0.00000000
v -0.30174927 0.24198251 0.00000000
v -0.29883382 0.23032070 0.00000000
v -0.29883382 0.18950437 0.00000000
v -0.31341108 0.16909621 0.00000000
v -0.32798834 0.11078717 0.00000000
v -0.35714286 0.08454810 0.00000000
v -0.33381924 0.04373178 0.00000000
v -0.30758017 0.06705539 0.00000000
v -0.27259475 0.04956268 0.00000000
v -0.25510204 0.03790087 0.00000000
v -0.24344023 0.06997085 0.00000000
v -0.22011662 0.06997085 0.00000000
v -0.19970845 0.05539359 0.00000000
v -0.15014577 0.09037901 0.00000000
v -0.11516035 0.08454810 0.00000000
v -0.11516035 0.05830904 0.00000000
v -0.12682216 0.02040816 0.00000000
v -0.14139942 -0.01166181 0.00000000
v -0.12682216 -0.05247813 0.00000000
v -0.08892128 -0.10787172 0.00000000
v -0.05393586 -0.09620991 0.00000000
v -0.05102041 -0.12244898 0.00000000
v -0.06559767 -0.14285714 0.00000000
v -0.06559767 -0.16326531 0.00000000
v -0.06268222 -0.17784257 0.00000000
v -0.06268222 -0.21865889 0.00000000
v -0.08017493 -0.25072886 0.00000000
v -0.09475219 -0.27113703 0.00000000
v -0.20553936 -0.28279883 0.00000000
v -0.24344023 -0.25655977 0.00000000
v -0.26967930 -0.27405248 0.00000000
v -0.26093294 -0.32069971 0.00000000
v -0.28425656 -0.38775510 0.00000000
v -0.26384840 -0.39941691 0.00000000
v -0.24344023 -0.37317784 0.00000000
v -0.21720117 -0.37026239 0.00000000
v -0.20845481 -0.38775510 0.00000000
v -0.20553936 -0.42274052 0.00000000
v -0.20845481 -0.44314869 0.00000000
v -0.22011662 -0.46938776 0.00000000
v -0.23177843 -0.49562682 0.00000000
v -0.24635569 -0.50145773 0.00000000
v -0.29883382 -0.54810496 0.00000000
v -0.36880466 -0.59766764 0.00000000
v -0.35131195 -0.63265306 0.00000000
v -0.31632653 -0.64139942 0.00000000
v -0.28134111 -0.64139942 0.00000000
v -0.26384840 -0.63556851 0.00000000
v -0.23760933 -0.63556851 0.00000000
v -0.22303207 -0.65014577 0.00000000
v -0.22011662 -0.66180758 0.00000000
v -0.19970845 -0.66472303 0.00000000
v -0.17930029 -0.66180758 0.00000000
v -0.15889213 -0.65597668 0.00000000
v -0.14723032 -0.67638484 0.00000000
v -0.13265306 -0.68513120 0.00000000
v -0.12099125 -0.69096210 0.00000000
v -0.09475219 -0.68804665 0.00000000
v -0.07725948 -0.67930029 0.00000000
v -0.06268222 -0.66472303 0.00000000
v -0.05102041 -0.66180758 0.00000000
v -0.04518950 -0.67638484 0.00000000
v -0.04518950 -0.69970845 0.00000000
v -0.05685131 -0.72011662 0.00000000
v -0.07434402 -0.73760933 0.00000000
v -0.09766764 -0.74052478 0.00000000
v -0.12099125 -0.74052478 0.00000000
v -0.13848397 -0.74052478 0.00000000
v -0.17346939 -0.74052478 0.00000000
v -0.21137026 -0.73760933 0.00000000
v -0.23760933 -0.75801749 0.00000000
v -0.24052478 -0.77842566 0.00000000
v -0.26093294 -0.78134111 0.00000000
v -0.27842566 -0.79883382 0.00000000
v -0.27842566 -0.83090379 0.00000000
v -0.32215743 -0.85714286 0.00000000
v -0.35131195 -0.88629738 0.00000000
v -0.37755102 -0.93002915 0.00000000
v -0.41545190 -0.92419825 0.00000000

