# https://github.com/mikedh/trimesh
v -0.86489434 0.51944145 0.00000000
v -0.87291827 0.51897900 0.00000000
v -0.87979852 0.51813620 0.00000000
v -0.88543986 0.51703214 0.00000000
v -0.89002901 0.51576560 0.00000000
v -0.89388136 0.51438149 0.00000000
v -0.89731377 0.51287394 0.00000000
v -0.90058142 0.51121252 0.00000000
v -0.90386490 0.50936411 0.00000000
v -0.90728917 0.50728997 0.00000000
v -0.91095939 0.50491956 0.00000000
v -0.91500158 0.50211364 0.00000000
v -0.91961487 0.49861700 0.00000000
v -0.92513419 0.49401522 0.00000000
v -0.93202242 0.48778279 0.00000000
v -0.94066406 0.47952867 0.00000000
v -0.95098763 0.46937164 0.00000000
v -0.96221178 0.45813854 0.00000000
v -0.97302997 0.44711211 0.00000000
v -0.98218754 0.43742665 0.00000000
v -0.98903007 0.42953342 0.00000000
v -0.99363959 0.42308093 0.00000000
v -0.99655421 0.41720923 0.00000000
v -0.99836339 0.41101504 0.00000000
v -0.99945485 0.40394451 0.00000000
v -0.99998737 0.39597517 0.00000000
v -1.00000000 0.38754415 0.00000000
v -0.99952790 0.37927960 0.00000000
v -0.99864653 0.37169235 0.00000000
v -0.99744508 0.36500021 0.00000000
v -0.99598171 0.35914698 0.00000000
v -0.99426902 0.35393813 0.00000000
v -0.99229365 0.34916593 0.00000000
v -0.99003371 0.34465298 0.00000000
v -0.98744102 0.34022545 0.00000000
v -0.98440285 0.33567932 0.00000000
v -0.98074681 0.33080876 0.00000000
v -0.97633967 0.32551704 0.00000000
v -0.97123795 0.31994028 0.00000000
v -0.96576068 0.31446006 0.00000000
v -0.96038797 0.30954884 0.00000000
v -0.95554013 0.30554096 0.00000000
v -0.95140260 0.30249582 0.00000000
v -0.94791047 0.30023387 0.00000000
v -0.94486016 0.29847860 0.00000000
v -0.94203480 0.29698043 0.00000000
v -0.93926936 0.29555280 0.00000000
v -0.93645798 0.29403590 0.00000000
v -0.93353295 0.29225488 0.00000000
v -0.93042563 0.29005080 0.00000000
v -0.92701987 0.28741582 0.00000000
v -0.92315013 0.28465286 0.00000000
v -0.91870283 0.28238499 0.00000000
v -0.91377813 0.28130581 0.00000000
v -0.90874815 0.28179205 0.00000000
v -0.90409182 0.28366863 0.00000000
v -0.90010304 0.28630896 0.00000000
v -0.89671714 0.28895904 0.00000000
v -0.89359928 0.29101236 0.00000000
v -0.89040583 0.29208720 0.00000000
v -0.88700890 0.29198709 0.00000000
v -0.88353839 0.29069461 0.00000000
v -0.88024243 0.28842364 0.00000000
v -0.87728224 0.28562842 0.00000000
v -0.87460673 0.28288971 0.00000000
v -0.87198748 0.28072187 0.00000000
v -0.86917887 0.27941825 0.00000000
v -0.86608430 0.27901391 0.00000000
v -0.86282007 0.27935902 0.00000000
v -0.85965612 0.28024279 0.00000000
v -0.85689818 0.28150347 0.00000000
v -0.85478606 0.28308127 0.00000000
v -0.85342882 0.28500032 0.00000000
v -0.85275529 0.28729825 0.00000000
v -0.85247797 0.28994514 0.00000000
v -0.85211328 0.29279435 0.00000000
v -0.85110319 0.29558619 0.00000000
v -0.84901864 0.29799967 0.00000000
v -0.84574166 0.29973280 0.00000000
v -0.84150469 0.30057904 0.00000000
v -0.83675286 0.30046356 0.00000000
v -0.83192321 0.29943063 0.00000000
v -0.82728170 0.29762506 0.00000000
v -0.82288620 0.29531933 0.00000000
v -0.81863908 0.29296552 0.00000000
v -0.81436168 0.29116774 0.00000000
v -0.80986233 0.29049255 0.00000000
v -0.80500419 0.29117810 0.00000000
v -0.79977262 0.29294015 0.00000000
v -0.79431700 0.29504990 0.00000000
v -0.78893251 0.29666457 0.00000000
v -0.78396642 0.29719371 0.00000000
v -0.77968313 0.29647290 0.00000000
v -0.77616839 0.29469198 0.00000000
v -0.77333653 0.29220199 0.00000000
v -0.77102148 0.28934789 0.00000000
v -0.76906858 0.28638098 0.00000000
v -0.76736852 0.28342891 0.00000000
v -0.76584415 0.28049425 0.00000000
v -0.76443324 0.27746615 0.00000000
v -0.76308873 0.27412600 0.00000000
v -0.76179078 0.27013298 0.00000000
v -0.76056031 0.26502214 0.00000000
v -0.75946790 0.25830403 0.00000000
v -0.75862789 0.24971745 0.00000000
v -0.75816592 0.23951729 0.00000000
v -0.75816592 0.22853738 0.00000000
v -0.75862789 0.21788138 0.00000000
v -0.75946784 0.20842193 0.00000000
v -0.76055978 0.20047957 0.00000000
v -0.76178740 0.19387986 0.00000000
v -0.76307318 0.18825136 0.00000000
v -0.76437833 0.18328712 0.00000000
v -0.76568834 0.17882253 0.00000000
v -0.76699925 0.17477488 0.00000000
v -0.76831067 0.17106422 0.00000000
v -0.76962448 0.16758997 0.00000000
v -0.77094756 0.16425874 0.00000000
v -0.77229738 0.16101388 0.00000000
v -0.77370622 0.15782954 0.00000000
v -0.77521697 0.15467979 0.00000000
v -0.77686956 0.15151960 0.00000000
v -0.77869277 0.14828955 0.00000000
v -0.78072327 0.14491896 0.00000000
v -0.78305082 0.14131388 0.00000000
v -0.78584861 0.13736916 0.00000000
v -0.78934069 0.13305931 0.00000000
v -0.79371020 0.12858114 0.00000000
v -0.79901254 0.12440046 0.00000000
v -0.80514919 0.12104763 0.00000000
v -0.81188392 0.11870877 0.00000000
v -0.81884892 0.11693608 0.00000000
v -0.82555387 0.11482179 0.00000000
v -0.83147616 0.11159865 0.00000000
v -0.83624598 0.10718258 0.00000000
v -0.83980686 0.10218733 0.00000000
v -0.84241681 0.09744601 0.00000000
v -0.84449195 0.09350497 0.00000000
v -0.84641812 0.09046564 0.00000000
v -0.84844424 0.08814560 0.00000000
v -0.85068020 0.08630394 0.00000000
v -0.85315842 0.08476763 0.00000000
v -0.85590611 0.08346806 0.00000000
v -0.85898160 0.08244733 0.00000000
v -0.86244960 0.08184865 0.00000000
v -0.86631662 0.08187506 0.00000000
v -0.87049164 0.08272228 0.00000000
v -0.87482511 0.08452086 0.00000000
v -0.87920474 0.08731035 0.00000000
v -0.88362452 0.09102755 0.00000000
v -0.88816644 0.09547919 0.00000000
v -0.89291991 0.10030820 0.00000000
v -0.89791084 0.10499838 0.00000000
v -0.90307303 0.10894633 0.00000000
v -0.90823408 0.11158391 0.00000000
v -0.91309668 0.11251545 0.00000000
v -0.91725977 0.11163786 0.00000000
v -0.92033049 0.10919711 0.00000000
v -0.92208556 0.10571862 0.00000000
v -0.92255979 0.10180249 0.00000000
v -0.92198974 0.09788717 0.00000000
v -0.92067143 0.09413376 0.00000000
v -0.91884958 0.09048729 0.00000000
v -0.91669218 0.08682818 0.00000000
v -0.91431738 0.08308583 0.00000000
v -0.91182220 0.07926366 0.00000000
v -0.90929970 0.07541170 0.00000000
v -0.90685701 0.07159740 0.00000000
v -0.90463678 0.06788796 0.00000000
v -0.90282351 0.06432917 0.00000000
v -0.90161309 0.06091609 0.00000000
v -0.90114564 0.05757846 0.00000000
v -0.90143093 0.05420938 0.00000000
v -0.90230902 0.05073088 0.00000000
v -0.90347625 0.04714658 0.00000000
v -0.90457241 0.04353321 0.00000000
v -0.90529220 0.03997960 0.00000000
v -0.90547002 0.03653336 0.00000000
v -0.90510107 0.03320017 0.00000000
v -0.90429686 0.02997749 0.00000000
v -0.90320819 0.02686997 0.00000000
v -0.90196455 0.02386267 0.00000000
v -0.90066661 0.02087142 0.00000000
v -0.89943571 0.01770145 0.00000000
v -0.89847409 0.01403810 0.00000000
v -0.89804823 0.00950415 0.00000000
v -0.89833799 0.00381808 0.00000000
v -0.89922426 -0.00298330 0.00000000
v -0.90019917 -0.01040852 0.00000000
v -0.90050207 -0.01762370 0.00000000
v -0.89935197 -0.02379864 0.00000000
v -0.89605230 -0.02845358 0.00000000
v -0.88994453 -0.03156188 0.00000000
v -0.88044186 -0.03338645 0.00000000
v -0.86732738 -0.03424189 0.00000000
v -0.85116709 -0.03436813 0.00000000
v -0.83344599 -0.03393780 0.00000000
v -0.81618104 -0.03310380 0.00000000
v -0.80117912 -0.03201265 0.00000000
v -0.78940571 -0.03078509 0.00000000
v -0.78083667 -0.02949932 0.00000000
v -0.77478421 -0.02819417 0.00000000
v -0.77038143 -0.02688417 0.00000000
v -0.76691647 -0.02557331 0.00000000
v -0.76392951 -0.02426236 0.00000000
v -0.76116527 -0.02295140 0.00000000
v -0.75849509 -0.02164044 0.00000000
v -0.75585959 -0.02032948 0.00000000
v -0.75323467 -0.01901853 0.00000000
v -0.75061227 -0.01770757 0.00000000
v -0.74799031 -0.01639661 0.00000000
v -0.74536839 -0.01508565 0.00000000
v -0.74274642 -0.01377470 0.00000000
v -0.74012403 -0.01246374 0.00000000
v -0.73749922 -0.01115278 0.00000000
v -0.73486471 -0.00984183 0.00000000
v -0.73220108 -0.00853087 0.00000000
v -0.72946914 -0.00721991 0.00000000
v -0.72660823 -0.00590895 0.00000000
v -0.72354351 -0.00459800 0.00000000
v -0.72018989 -0.00328704 0.00000000
v -0.71642330 -0.00197618 0.00000000
v -0.71200536 -0.00066613 0.00000000
v -0.70651035 0.00063955 0.00000000
v -0.69936922 0.00192860 0.00000000
v -0.69011234 0.00317075 0.00000000
v -0.67872081 0.00431094 0.00000000
v -0.66582298 0.00527494 0.00000000
v -0.65251989 0.00598676 0.00000000
v -0.63991537 0.00637680 0.00000000
v -0.62868623 0.00635856 0.00000000
v -0.61897631 0.00579197 0.00000000
v -0.61059896 0.00449570 0.00000000
v -0.60330904 0.00234736 0.00000000
v -0.59694363 -0.00058439 0.00000000
v -0.59140914 -0.00399751 0.00000000
v -0.58660759 -0.00746554 0.00000000
v -0.58239096 -0.01062348 0.00000000
v -0.57857394 -0.01329247 0.00000000
v -0.57498092 -0.01547801 0.00000000
v -0.57147976 -0.01728800 0.00000000
v -0.56797350 -0.01885094 0.00000000
v -0.56436713 -0.02027264 0.00000000
v -0.56055460 -0.02162469 0.00000000
v -0.55644907 -0.02294801 0.00000000
v -0.55202671 -0.02426183 0.00000000
v -0.54732809 -0.02557326 0.00000000
v -0.54240016 -0.02688427 0.00000000
v -0.53723045 -0.02819523 0.00000000
v -0.53174737 -0.02950619 0.00000000
v -0.52590123 -0.03081714 0.00000000
v -0.51975912 -0.03212810 0.00000000
v -0.51352973 -0.03343906 0.00000000
v -0.50749726 -0.03475007 0.00000000
v -0.50191345 -0.03606152 0.00000000
v -0.49690967 -0.03737568 0.00000000
v -0.49246029 -0.03870212 0.00000000
v -0.48839857 -0.04007223 0.00000000
v -0.48446850 -0.04156738 0.00000000
v -0.48038398 -0.04335371 0.00000000
v -0.47587829 -0.04569005 0.00000000
v -0.47076126 -0.04885826 0.00000000
v -0.46500505 -0.05300368 0.00000000
v -0.45881637 -0.05797246 0.00000000
v -0.45259986 -0.06329581 0.00000000
v -0.44678246 -0.06838332 0.00000000
v -0.44161119 -0.07279887 0.00000000
v -0.43708032 -0.07640839 0.00000000
v -0.43302179 -0.07931784 0.00000000
v -0.42924992 -0.08171052 0.00000000
v -0.42564453 -0.08373934 0.00000000
v -0.42214893 -0.08552434 0.00000000
v -0.41872535 -0.08720346 0.00000000
v -0.41531288 -0.08896890 0.00000000
v -0.41182078 -0.09105461 0.00000000
v -0.40817397 -0.09367054 0.00000000
v -0.40438420 -0.09691401 0.00000000
v -0.40058070 -0.10072036 0.00000000
v -0.39695935 -0.10490060 0.00000000
v -0.39368813 -0.10924152 0.00000000
v -0.39084573 -0.11358728 0.00000000
v -0.38842535 -0.11784905 0.00000000
v -0.38637168 -0.12196544 0.00000000
v -0.38460958 -0.12587270 0.00000000
v -0.38305694 -0.12951278 0.00000000
v -0.38163500 -0.13286223 0.00000000
v -0.38027942 -0.13595278 0.00000000
v -0.37894375 -0.13887078 0.00000000
v -0.37759107 -0.14174036 0.00000000
v -0.37618219 -0.14469555 0.00000000
v -0.37467397 -0.14784134 0.00000000
v -0.37303254 -0.15121081 0.00000000
v -0.37124740 -0.15474417 0.00000000
v -0.36932377 -0.15831545 0.00000000
v -0.36725072 -0.16179542 0.00000000
v -0.36497738 -0.16510255 0.00000000
v -0.36243428 -0.16820454 0.00000000
v -0.35959392 -0.17108362 0.00000000
v -0.35651720 -0.17371000 0.00000000
v -0.35333792 -0.17604933 0.00000000
v -0.35019104 -0.17809265 0.00000000
v -0.34713547 -0.17988212 0.00000000
v -0.34411952 -0.18151777 0.00000000
v -0.34100670 -0.18314605 0.00000000
v -0.33765359 -0.18493666 0.00000000
v -0.33401086 -0.18705394 0.00000000
v -0.33019363 -0.18963272 0.00000000
v -0.32646282 -0.19276555 0.00000000
v -0.32311041 -0.19649237 0.00000000
v -0.32032018 -0.20077799 0.00000000
v -0.31810014 -0.20548800 0.00000000
v -0.31632108 -0.21040073 0.00000000
v -0.31481096 -0.21527146 0.00000000
v -0.31343126 -0.21991121 0.00000000
v -0.31210153 -0.22422390 0.00000000
v -0.31078667 -0.22818779 0.00000000
v -0.30947514 -0.23181646 0.00000000
v -0.30816412 -0.23513823 0.00000000
v -0.30685311 -0.23819775 0.00000000
v -0.30554168 -0.24105859 0.00000000
v -0.30422782 -0.24379340 0.00000000
v -0.30290427 -0.24646962 0.00000000
v -0.30155164 -0.24914580 0.00000000
v -0.30013118 -0.25188012 0.00000000
v -0.29858477 -0.25473797 0.00000000
v -0.29684980 -0.25778395 0.00000000
v -0.29488621 -0.26105849 0.00000000
v -0.29270090 -0.26455476 0.00000000
v -0.29035326 -0.26821336 0.00000000
v -0.28793777 -0.27193980 0.00000000
v -0.28555141 -0.27563712 0.00000000
v -0.28325755 -0.27924194 0.00000000
v -0.28106141 -0.28274904 0.00000000
v -0.27891454 -0.28620687 0.00000000
v -0.27675432 -0.28967804 0.00000000
v -0.27455690 -0.29318642 0.00000000
v -0.27236432 -0.29668996 0.00000000
v -0.27026381 -0.30010152 0.00000000
v -0.26833615 -0.30334112 0.00000000
v -0.26661282 -0.30638151 0.00000000
v -0.26506931 -0.30926412 0.00000000
v -0.26365027 -0.31209550 0.00000000
v -0.26230350 -0.31505074 0.00000000
v -0.26100513 -0.31838875 0.00000000
v -0.25977461 -0.32244310 0.00000000
v -0.25868220 -0.32753366 0.00000000
v -0.25784230 -0.33379337 0.00000000
v -0.25738128 -0.34100367 0.00000000
v -0.25738719 -0.34858720 0.00000000
v -0.25787535 -0.35582264 0.00000000
v -0.25880486 -0.36217080 0.00000000
v -0.26014342 -0.36750170 0.00000000
v -0.26193503 -0.37209195 0.00000000
v -0.26431742 -0.37643065 0.00000000
v -0.26746983 -0.38097251 0.00000000
v -0.27151841 -0.38596260 0.00000000
v -0.27645768 -0.39139361 0.00000000
v -0.28214540 -0.39709799 0.00000000
v -0.28838518 -0.40292557 0.00000000
v -0.29503163 -0.40890368 0.00000000
v -0.30199710 -0.41525403 0.00000000
v -0.30909987 -0.42220687 0.00000000
v -0.31587236 -0.42971623 0.00000000
v -0.32156426 -0.43731291 0.00000000
v -0.32543859 -0.44426353 0.00000000
v -0.32715869 -0.44994338 0.00000000
v -0.32694049 -0.45413508 0.00000000
v -0.32535884 -0.45704661 0.00000000
v -0.32300541 -0.45910000 0.00000000
v -0.32026668 -0.46069539 0.00000000
v -0.31731045 -0.46209510 0.00000000
v -0.31418125 -0.46342816 0.00000000
v -0.31087598 -0.46474337 0.00000000
v -0.30735849 -0.46605492 0.00000000
v -0.30354762 -0.46736583 0.00000000
v -0.29930517 -0.46867583 0.00000000
v -0.29438940 -0.46998099 0.00000000
v -0.28833742 -0.47126671 0.00000000
v -0.28037017 -0.47249385 0.00000000
v -0.26956200 -0.47358289 0.00000000
v -0.25541417 -0.47441025 0.00000000
v -0.23854177 -0.47483050 0.00000000
v -0.22083915 -0.47472052 0.00000000
v -0.20476874 -0.47402014 0.00000000
v -0.19219696 -0.47274311 0.00000000
v -0.18364725 -0.47095407 0.00000000
v -0.17843393 -0.46873095 0.00000000
v -0.17536691 -0.46613707 0.00000000
v -0.17339985 -0.46321809 0.00000000
v -0.17188687 -0.46002203 0.00000000
v -0.17052531 -0.45662278 0.00000000
v -0.16920430 -0.45311920 0.00000000
v -0.16789184 -0.44959824 0.00000000
v -0.16658074 -0.44608264 0.00000000
v -0.16526977 -0.44250366 0.00000000
v -0.16395881 -0.43872510 0.00000000
v -0.16264786 -0.43461051 0.00000000
v -0.16133690 -0.43009979 0.00000000
v -0.16002594 -0.42525671 0.00000000
v -0.15871498 -0.42025774 0.00000000
v -0.15740403 -0.41531612 0.00000000
v -0.15609307 -0.41057850 0.00000000
v -0.15478211 -0.40606669 0.00000000
v -0.15347116 -0.40171028 0.00000000
v -0.15216020 -0.39743659 0.00000000
v -0.15084924 -0.39323601 0.00000000
v -0.14953828 -0.38915776 0.00000000
v -0.14822732 -0.38526081 0.00000000
v -0.14691631 -0.38156971 0.00000000
v -0.14560478 -0.37806214 0.00000000
v -0.14429001 -0.37468775 0.00000000
v -0.14296104 -0.37140472 0.00000000
v -0.14158523 -0.36821376 0.00000000
v -0.14008880 -0.36517701 0.00000000
v -0.13834366 -0.36243101 0.00000000
v -0.13618182 -0.36020348 0.00000000
v -0.13345022 -0.35880850 0.00000000
v -0.13009117 -0.35857385 0.00000000
v -0.12620640 -0.35970475 0.00000000
v -0.12206161 -0.36217382 0.00000000
v -0.11802063 -0.36574324 0.00000000
v -0.11444247 -0.37012117 0.00000000
v -0.11159811 -0.37512066 0.00000000
v -0.10964415 -0.38067458 0.00000000
v -0.10864619 -0.38670557 0.00000000
v -0.10862016 -0.39301362 0.00000000
v -0.10957637 -0.39933701 0.00000000
v -0.11156949 -0.40555870 0.00000000
v -0.11473317 -0.41186243 0.00000000
v -0.11923361 -0.41865966 0.00000000
v -0.12510148 -0.42629133 0.00000000
v -0.13202770 -0.43470649 0.00000000
v -0.13931333 -0.44337511 0.00000000
v -0.14608452 -0.45153867 0.00000000
v -0.15164981 -0.45863696 0.00000000
v -0.15573421 -0.46460117 0.00000000
v -0.15843849 -0.46981216 0.00000000
v -0.16001007 -0.47478523 0.00000000
v -0.16062669 -0.47983260 0.00000000
v -0.16031760 -0.48493789 0.00000000
v -0.15901672 -0.48988445 0.00000000
v -0.15667779 -0.49447386 0.00000000
v -0.15338019 -0.49863323 0.00000000
v -0.14936846 -0.50236528 0.00000000
v -0.14499876 -0.50565949 0.00000000
v -0.14061695 -0.50847960 0.00000000
v -0.13643143 -0.51081878 0.00000000
v -0.13242925 -0.51273980 0.00000000
v -0.12833615 -0.51435582 0.00000000
v -0.12360509 -0.51577491 0.00000000
v -0.11746944 -0.51704980 0.00000000
v -0.10916058 -0.51815479 0.00000000
v -0.09832598 -0.51899454 0.00000000
v -0.08544438 -0.51944150 0.00000000
v -0.07185235 -0.51938230 0.00000000
v -0.05919134 -0.51873518 0.00000000
v -0.04858751 -0.51741411 0.00000000
v -0.04016594 -0.51527208 0.00000000
v -0.03323281 -0.51210676 0.00000000
v -0.02691102 -0.50777985 0.00000000
v -0.02072250 -0.50238515 0.00000000
v -0.01475855 -0.49630893 0.00000000
v -0.00944152 -0.49008454 0.00000000
v -0.00514977 -0.48412097 0.00000000
v -0.00199605 -0.47850673 0.00000000
v 0.00014317 -0.47303145 0.00000000
v 0.00146378 -0.46739626 0.00000000
v 0.00211085 -0.46145487 0.00000000
v 0.00217009 -0.45532553 0.00000000
v 0.00172361 -0.44931906 0.00000000
v 0.00088686 -0.44375845 0.00000000
v -0.00020458 -0.43882305 0.00000000
v -0.00143205 -0.43449675 0.00000000
v -0.00271686 -0.43060054 0.00000000
v -0.00401622 -0.42683699 0.00000000
v -0.00530104 -0.42279732 0.00000000
v -0.00652856 -0.41795395 0.00000000
v -0.00762049 -0.41173077 0.00000000
v -0.00846044 -0.40372687 0.00000000
v -0.00892242 -0.39401762 0.00000000
v -0.00892242 -0.38329277 0.00000000
v -0.00846044 -0.37264028 0.00000000
v -0.00762049 -0.36306809 0.00000000
v -0.00652855 -0.35509058 0.00000000
v -0.00530093 -0.34863785 0.00000000
v -0.00401516 -0.34327060 0.00000000
v -0.00271000 -0.33848970 0.00000000
v -0.00140000 -0.33394752 0.00000000
v -0.00008914 -0.32949804 0.00000000
v 0.00122181 -0.32513034 0.00000000
v 0.00253282 -0.32086845 0.00000000
v 0.00384477 -0.31670288 0.00000000
v 0.00516525 -0.31257722 0.00000000
v 0.00653346 -0.30841850 0.00000000
v 0.00808912 -0.30418952 0.00000000
v 0.01019017 -0.29994234 0.00000000
v 0.01350481 -0.29584937 0.00000000
v 0.01891501 -0.29218650 0.00000000
v 0.02713326 -0.28925863 0.00000000
v 0.03821228 -0.28729186 0.00000000
v 0.05135812 -0.28634596 0.00000000
v 0.06527930 -0.28629816 0.00000000
v 0.07881280 -0.28690698 0.00000000
v 0.09132530 -0.28791273 0.00000000
v 0.10268482 -0.28911470 0.00000000
v 0.11302442 -0.29039462 0.00000000
v 0.12257058 -0.29169882 0.00000000
v 0.13156716 -0.29300872 0.00000000
v 0.14020486 -0.29431957 0.00000000
v 0.14856250 -0.29563052 0.00000000
v 0.15663681 -0.29694148 0.00000000
v 0.16445158 -0.29825244 0.00000000
v 0.17213628 -0.29956340 0.00000000
v 0.17990018 -0.30087435 0.00000000
v 0.18795617 -0.30218521 0.00000000
v 0.19651673 -0.30349521 0.00000000
v 0.20593458 -0.30480036 0.00000000
v 0.21693618 -0.30608614 0.00000000
v 0.23074231 -0.30731376 0.00000000
v 0.24876867 -0.30840570 0.00000000
v 0.27178168 -0.30924565 0.00000000
v 0.29894333 -0.30970762 0.00000000
v 0.32761707 -0.30970762 0.00000000
v 0.35440031 -0.30924565 0.00000000
v 0.37675751 -0.30840570 0.00000000
v 0.39402415 -0.30731376 0.00000000
v 0.40716140 -0.30608614 0.00000000
v 0.41773728 -0.30480036 0.00000000
v 0.42702139 -0.30349521 0.00000000
v 0.43564727 -0.30218521 0.00000000
v 0.44374025 -0.30087435 0.00000000
v 0.45121742 -0.29956340 0.00000000
v 0.45803817 -0.29825244 0.00000000
v 0.46429864 -0.29694148 0.00000000
v 0.47017339 -0.29563052 0.00000000
v 0.47580138 -0.29431957 0.00000000
v 0.48122902 -0.29300861 0.00000000
v 0.48644269 -0.29169765 0.00000000
v 0.49143192 -0.29038669 0.00000000
v 0.49621426 -0.28907574 0.00000000
v 0.50081506 -0.28776478 0.00000000
v 0.50524550 -0.28645382 0.00000000
v 0.50950594 -0.28514287 0.00000000
v 0.51359963 -0.28383191 0.00000000
v 0.51753345 -0.28252095 0.00000000
v 0.52131131 -0.28120999 0.00000000
v 0.52494084 -0.27989904 0.00000000
v 0.52845374 -0.27858808 0.00000000
v 0.53191300 -0.27727712 0.00000000
v 0.53538712 -0.27596616 0.00000000
v 0.53890762 -0.27465521 0.00000000
v 0.54244992 -0.27334425 0.00000000
v 0.54595830 -0.27203329 0.00000000
v 0.54939076 -0.27072233 0.00000000
v 0.55274004 -0.26941138 0.00000000
v 0.55601458 -0.26810042 0.00000000
v 0.55920751 -0.26678946 0.00000000
v 0.56229107 -0.26547851 0.00000000
v 0.56524102 -0.26416766 0.00000000
v 0.56806248 -0.26285776 0.00000000
v 0.57079342 -0.26155355 0.00000000
v 0.57349002 -0.26027353 0.00000000
v 0.57620838 -0.25907062 0.00000000
v 0.57898531 -0.25805911 0.00000000
v 0.58181317 -0.25742559 0.00000000
v 0.58461961 -0.25739295 0.00000000
v 0.58727901 -0.25813243 0.00000000
v 0.58966542 -0.25966986 0.00000000
v 0.59171590 -0.26185830 0.00000000
v 0.59345667 -0.26444614 0.00000000
v 0.59497691 -0.26719304 0.00000000
v 0.59638042 -0.26995406 0.00000000
v 0.59775485 -0.27269326 0.00000000
v 0.59916848 -0.27544701 0.00000000
v 0.60067427 -0.27827435 0.00000000
v 0.60230079 -0.28121456 0.00000000
v 0.60403457 -0.28426026 0.00000000
v 0.60581962 -0.28735921 0.00000000
v 0.60758932 -0.29045248 0.00000000
v 0.60931217 -0.29352836 0.00000000
v 0.61101070 -0.29665126 0.00000000
v 0.61273260 -0.29994338 0.00000000
v 0.61449650 -0.30354545 0.00000000
v 0.61625636 -0.30760707 0.00000000
v 0.61790681 -0.31231361 0.00000000
v 0.61931421 -0.31787707 0.00000000
v 0.62034804 -0.32441369 0.00000000
v 0.62090694 -0.33175872 0.00000000
v 0.62094570 -0.33940097 0.00000000
v 0.62049585 -0.34666120 0.00000000
v 0.61965874 -0.35300679 0.00000000
v 0.61856728 -0.35825526 0.00000000
v 0.61733966 -0.36253908 0.00000000
v 0.61605341 -0.36612709 0.00000000
v 0.61474530 -0.36927337 0.00000000
v 0.61342223 -0.37216666 0.00000000
v 0.61206680 -0.37494645 0.00000000
v 0.61063375 -0.37773254 0.00000000
v 0.60904567 -0.38064418 0.00000000
v 0.60720114 -0.38380247 0.00000000
v 0.60500173 -0.38731241 0.00000000
v 0.60239046 -0.39122941 0.00000000
v 0.59938339 -0.39552553 0.00000000
v 0.59607702 -0.40007407 0.00000000
v 0.59262727 -0.40466421 0.00000000
v 0.58920901 -0.40904841 0.00000000
v 0.58596844 -0.41301263 0.00000000
v 0.58297748 -0.41644457 0.00000000
v 0.58020292 -0.41936607 0.00000000
v 0.57751188 -0.42190964 0.00000000
v 0.57472753 -0.42425011 0.00000000
v 0.57171377 -0.42652764 0.00000000
v 0.56843514 -0.42879870 0.00000000
v 0.56495099 -0.43103343 0.00000000
v 0.56135581 -0.43315384 0.00000000
v 0.55771987 -0.43508883 0.00000000
v 0.55407505 -0.43681417 0.00000000
v 0.55044400 -0.43835821 0.00000000
v 0.54687272 -0.43977877 0.00000000
v 0.54342987 -0.44113468 0.00000000
v 0.54017234 -0.44247340 0.00000000
v 0.53710960 -0.44384009 0.00000000
v 0.53420079 -0.44529914 0.00000000
v 0.53139412 -0.44695268 0.00000000
v 0.52868846 -0.44894249 0.00000000
v 0.52618105 -0.45142696 0.00000000
v 0.52406858 -0.45453089 0.00000000
v 0.52259011 -0.45827448 0.00000000
v 0.52193435 -0.46250912 0.00000000
v 0.52216145 -0.46691174 0.00000000
v 0.52318827 -0.47107531 0.00000000
v 0.52484794 -0.47466383 0.00000000
v 0.52698716 -0.47753596 0.00000000
v 0.52954668 -0.47975827 0.00000000
v 0.53258956 -0.48151742 0.00000000
v 0.53627010 -0.48300724 0.00000000
v 0.54076091 -0.48435535 0.00000000
v 0.54618873 -0.48559984 0.00000000
v 0.55265124 -0.48669530 0.00000000
v 0.56032194 -0.48753579 0.00000000
v 0.56950404 -0.48799782 0.00000000
v 0.58045084 -0.48799782 0.00000000
v 0.59299365 -0.48753585 0.00000000
v 0.60631912 -0.48669589 0.00000000
v 0.61920275 -0.48560396 0.00000000
v 0.63057936 -0.48437633 0.00000000
v 0.63999624 -0.48309056 0.00000000
v 0.64764087 -0.48178541 0.00000000
v 0.65403921 -0.48047540 0.00000000
v 0.65971613 -0.47916455 0.00000000
v 0.66499971 -0.47785359 0.00000000
v 0.66998528 -0.47654264 0.00000000
v 0.67460954 -0.47523168 0.00000000
v 0.67877363 -0.47392067 0.00000000
v 0.68244503 -0.47260923 0.00000000
v 0.68568922 -0.47129524 0.00000000
v 0.68863776 -0.46997014 0.00000000
v 0.69144026 -0.46860616 0.00000000
v 0.69423991 -0.46712764 0.00000000
v 0.69717291 -0.46536021 0.00000000
v 0.70036189 -0.46297256 0.00000000
v 0.70387631 -0.45947236 0.00000000
v 0.70767017 -0.45434755 0.00000000
v 0.71155035 -0.44736763 0.00000000
v 0.71522987 -0.43887464 0.00000000
v 0.71845858 -0.42978822 0.00000000
v 0.72114910 -0.42122384 0.00000000
v 0.72341062 -0.41396879 0.00000000
v 0.72548428 -0.40819867 0.00000000
v 0.72765606 -0.40357907 0.00000000
v 0.73021351 -0.39956719 0.00000000
v 0.73342778 -0.39566173 0.00000000
v 0.73749338 -0.39152600 0.00000000
v 0.74242203 -0.38704103 0.00000000
v 0.74798768 -0.38230614 0.00000000
v 0.75381499 -0.37754505 0.00000000
v 0.75956719 -0.37293674 0.00000000
v 0.76507420 -0.36849305 0.00000000
v 0.77029368 -0.36408676 0.00000000
v 0.77516626 -0.35958410 0.00000000
v 0.77952476 -0.35492565 0.00000000
v 0.78314250 -0.35006789 0.00000000
v 0.78585434 -0.34487676 0.00000000
v 0.78762967 -0.33913348 0.00000000
v 0.78855929 -0.33266996 0.00000000
v 0.78881371 -0.32548215 0.00000000
v 0.78862551 -0.31771374 0.00000000
v 0.78828133 -0.30959781 0.00000000
v 0.78808433 -0.30148671 0.00000000
v 0.78829120 -0.29392106 0.00000000
v 0.78907202 -0.28757262 0.00000000
v 0.79052636 -0.28303892 0.00000000
v 0.79272976 -0.28065660 0.00000000
v 0.79574238 -0.28046187 0.00000000
v 0.79953994 -0.28224372 0.00000000
v 0.80391577 -0.28558430 0.00000000
v 0.80846443 -0.28989829 0.00000000
v 0.81270694 -0.29455694 0.00000000
v 0.81628642 -0.29909946 0.00000000
v 0.81908976 -0.30341968 0.00000000
v 0.82121672 -0.30781213 0.00000000
v 0.82284460 -0.31284429 0.00000000
v 0.82409683 -0.31909039 0.00000000
v 0.82498927 -0.32680898 0.00000000
v 0.82545956 -0.33571024 0.00000000
v 0.82543511 -0.34498213 0.00000000
v 0.82488107 -0.35361617 0.00000000
v 0.82379598 -0.36084690 0.00000000
v 0.82217778 -0.36641867 0.00000000
v 0.82001685 -0.37054233 0.00000000
v 0.81734064 -0.37364641 0.00000000
v 0.81426707 -0.37613035 0.00000000
v 0.81099967 -0.37824783 0.00000000
v 0.80775240 -0.38011773 0.00000000
v 0.80466334 -0.38179159 0.00000000
v 0.80176327 -0.38330995 0.00000000
v 0.79900857 -0.38472083 0.00000000
v 0.79633620 -0.38607109 0.00000000
v 0.79369889 -0.38739469 0.00000000
v 0.79107076 -0.38871140 0.00000000
v 0.78843577 -0.39003548 0.00000000
v 0.78577262 -0.39138863 0.00000000
v 0.78304409 -0.39281200 0.00000000
v 0.78019932 -0.39437100 0.00000000
v 0.77719506 -0.39614769 0.00000000
v 0.77403008 -0.39822121 0.00000000
v 0.77076984 -0.40064439 0.00000000
v 0.76753917 -0.40342575 0.00000000
v 0.76448433 -0.40652304 0.00000000
v 0.76173206 -0.40985254 0.00000000
v 0.75937501 -0.41331474 0.00000000
v 0.75749239 -0.41682815 0.00000000
v 0.75618966 -0.42035609 0.00000000
v 0.75562307 -0.42391193 0.00000000
v 0.75597069 -0.42753242 0.00000000
v 0.75734003 -0.43121995 0.00000000
v 0.75966325 -0.43488368 0.00000000
v 0.76267064 -0.43833585 0.00000000
v 0.76598944 -0.44137047 0.00000000
v 0.76931160 -0.44387404 0.00000000
v 0.77251734 -0.44587887 0.00000000
v 0.77569344 -0.44752272 0.00000000
v 0.77908533 -0.44896252 0.00000000
v 0.78305536 -0.45031177 0.00000000
v 0.78805170 -0.45162595 0.00000000
v 0.79450790 -0.45291320 0.00000000
v 0.80262210 -0.45414097 0.00000000
v 0.81213092 -0.45523292 0.00000000
v 0.82230965 -0.45607287 0.00000000
v 0.83228722 -0.45653484 0.00000000
v 0.84145269 -0.45653484 0.00000000
v 0.84962114 -0.45607287 0.00000000
v 0.85687941 -0.45523292 0.00000000
v 0.86333856 -0.45414098 0.00000000
v 0.86902977 -0.45291325 0.00000000
v 0.87395769 -0.45162651 0.00000000
v 0.87818052 -0.45031525 0.00000000
v 0.88183540 -0.44897717 0.00000000
v 0.88512712 -0.44756544 0.00000000
v 0.88832304 -0.44596036 0.00000000
v 0.89175659 -0.44393610 0.00000000
v 0.89579945 -0.44116558 0.00000000
v 0.90075719 -0.43731286 0.00000000
v 0.90669938 -0.43221352 0.00000000
v 0.91332965 -0.42604523 0.00000000
v 0.92003379 -0.41933829 0.00000000
v 0.92613053 -0.41276747 0.00000000
v 0.93116764 -0.40685164 0.00000000
v 0.93505627 -0.40177415 0.00000000
v 0.93798542 -0.39742349 0.00000000
v 0.94023862 -0.39356906 0.00000000
v 0.94206224 -0.39001740 0.00000000
v 0.94362918 -0.38666590 0.00000000
v 0.94505303 -0.38346960 0.00000000
v 0.94640606 -0.38038160 0.00000000
v 0.94773010 -0.37732016 0.00000000
v 0.94904686 -0.37418363 0.00000000
v 0.95037089 -0.37089607 0.00000000
v 0.95172351 -0.36744342 0.00000000
v 0.95314351 -0.36386966 0.00000000
v 0.95468712 -0.36023767 0.00000000
v 0.95641045 -0.35658951 0.00000000
v 0.95833812 -0.35293898 0.00000000
v 0.96043862 -0.34929492 0.00000000
v 0.96263115 -0.34568238 0.00000000
v 0.96482809 -0.34213231 0.00000000
v 0.96698536 -0.33864616 0.00000000
v 0.96911916 -0.33516614 0.00000000
v 0.97127073 -0.33156360 0.00000000
v 0.97344249 -0.32762636 0.00000000
v 0.97555168 -0.32304466 0.00000000
v 0.97743317 -0.31746225 0.00000000
v 0.97888983 -0.31066191 0.00000000
v 0.97976418 -0.30281404 0.00000000
v 0.97999683 -0.29456278 0.00000000
v 0.97964389 -0.28679212 0.00000000
v 0.97884556 -0.28020181 0.00000000
v 0.97776620 -0.27501514 0.00000000
v 0.97654133 -0.27100910 0.00000000
v 0.97525461 -0.26776501 0.00000000
v 0.97394090 -0.26490426 0.00000000
v 0.97259408 -0.26217540 0.00000000
v 0.97116397 -0.25941689 0.00000000
v 0.96954920 -0.25648776 0.00000000
v 0.96761227 -0.25323937 0.00000000
v 0.96523522 -0.24955131 0.00000000
v 0.96239296 -0.24539810 0.00000000
v 0.95918727 -0.24088144 0.00000000
v 0.95580874 -0.23619195 0.00000000
v 0.95246090 -0.23153316 0.00000000
v 0.94930851 -0.22706981 0.00000000
v 0.94646787 -0.22291821 0.00000000
v 0.94400682 -0.21914620 0.00000000
v 0.94193264 -0.21576096 0.00000000
v 0.94018680 -0.21270311 0.00000000
v 0.93866947 -0.20986817 0.00000000
v 0.93728426 -0.20714197 0.00000000
v 0.93597662 -0.20442066 0.00000000
v 0.93475536 -0.20161127 0.00000000
v 0.93370124 -0.19863950 0.00000000
v 0.93295811 -0.19548444 0.00000000
v 0.93268996 -0.19221635 0.00000000
v 0.93300494 -0.18898499 0.00000000
v 0.93388689 -0.18594020 0.00000000
v 0.93518882 -0.18313770 0.00000000
v 0.93670073 -0.18050643 0.00000000
v 0.93824334 -0.17789615 0.00000000
v 0.93972295 -0.17515498 0.00000000
v 0.94112502 -0.17218079 0.00000000
v 0.94247379 -0.16893356 0.00000000
v 0.94379676 -0.16542375 0.00000000
v 0.94511056 -0.16168757 0.00000000
v 0.94642200 -0.15775611 0.00000000
v 0.94773300 -0.15363506 0.00000000
v 0.94904396 -0.14931356 0.00000000
v 0.95035492 -0.14479984 0.00000000
v 0.95166588 -0.14014964 0.00000000
v 0.95297683 -0.13544585 0.00000000
v 0.95428779 -0.13072390 0.00000000
v 0.95559875 -0.12589919 0.00000000
v 0.95690971 -0.12077878 0.00000000
v 0.95822066 -0.11518030 0.00000000
v 0.95953162 -0.10907261 0.00000000
v 0.96084258 -0.10260818 0.00000000
v 0.96215354 -0.09600185 0.00000000
v 0.96346449 -0.08935351 0.00000000
v 0.96477535 -0.08256228 0.00000000
v 0.96608535 -0.07537467 0.00000000
v 0.96739051 -0.06746077 0.00000000
v 0.96867633 -0.05840011 0.00000000
v 0.96990448 -0.04762876 0.00000000
v 0.97099981 -0.03456047 0.00000000
v 0.97185550 -0.01899926 0.00000000
v 0.97237412 -0.00161343 0.00000000
v 0.97253960 0.01599170 0.00000000
v 0.97248374 0.03182262 0.00000000
v 0.97250104 0.04433042 0.00000000
v 0.97298953 0.05292053 0.00000000
v 0.97432908 0.05786935 0.00000000
v 0.97673667 0.05991895 0.00000000
v 0.98016109 0.05996905 0.00000000
v 0.98428009 0.05899083 0.00000000
v 0.98860822 0.05799717 0.00000000
v 0.99264550 0.05791890 0.00000000
v 0.99598416 0.05941902 0.00000000
v 0.99835811 0.06276127 0.00000000
v 0.99966968 0.06779174 0.00000000
v 1.00000000 0.07402146 0.00000000
v 0.99957166 0.08078646 0.00000000
v 0.99865897 0.08745549 0.00000000
v 0.99749503 0.09361455 0.00000000
v 0.99622713 0.09913576 0.00000000
v 0.99492578 0.10410017 0.00000000
v 0.99361635 0.10865008 0.00000000
v 0.99230555 0.11288795 0.00000000
v 0.99099460 0.11687389 0.00000000
v 0.98968364 0.12067427 0.00000000
v 0.98837268 0.12438410 0.00000000
v 0.98706173 0.12809940 0.00000000
v 0.98575077 0.13187735 0.00000000
v 0.98443981 0.13572638 0.00000000
v 0.98312885 0.13962903 0.00000000
v 0.98181790 0.14357449 0.00000000
v 0.98050694 0.14758210 0.00000000
v 0.97919598 0.15170833 0.00000000
v 0.97788502 0.15602883 0.00000000
v 0.97657407 0.16059166 0.00000000
v 0.97526311 0.16536454 0.00000000
v 0.97395215 0.17022183 0.00000000
v 0.97264119 0.17499745 0.00000000
v 0.97133024 0.17957193 0.00000000
v 0.97001928 0.18392833 0.00000000
v 0.96870832 0.18813937 0.00000000
v 0.96739737 0.19230194 0.00000000
v 0.96608641 0.19646451 0.00000000
v 0.96477545 0.20058756 0.00000000
v 0.96346449 0.20455886 0.00000000
v 0.96215353 0.20825634 0.00000000
v 0.96084253 0.21161778 0.00000000
v 0.95953108 0.21466952 0.00000000
v 0.95821697 0.21750101 0.00000000
v 0.95689099 0.22021828 0.00000000
v 0.95552359 0.22292040 0.00000000
v 0.95403917 0.22571572 0.00000000
v 0.95228348 0.22875813 0.00000000
v 0.95001014 0.23225920 0.00000000
v 0.94692910 0.23643218 0.00000000
v 0.94283646 0.24136477 0.00000000
v 0.93777061 0.24689259 0.00000000
v 0.93207480 0.25258841 0.00000000
v 0.92628206 0.25791917 0.00000000
v 0.92087539 0.26248589 0.00000000
v 0.91608580 0.26618354 0.00000000
v 0.91185795 0.26918377 0.00000000
v 0.90797293 0.27178302 0.00000000
v 0.90421304 0.27423775 0.00000000
v 0.90046313 0.27667766 0.00000000
v 0.89672225 0.27910768 0.00000000
v 0.89306055 0.28145843 0.00000000
v 0.88956379 0.28364423 0.00000000
v 0.88628920 0.28560786 0.00000000
v 0.88324327 0.28734284 0.00000000
v 0.88038590 0.28888925 0.00000000
v 0.87765442 0.29030972 0.00000000
v 0.87499031 0.29166239 0.00000000
v 0.87235243 0.29298642 0.00000000
v 0.86971218 0.29430312 0.00000000
v 0.86703605 0.29562667 0.00000000
v 0.86426628 0.29697645 0.00000000
v 0.86131480 0.29838433 0.00000000
v 0.85808667 0.29988912 0.00000000
v 0.85453306 0.30151506 0.00000000
v 0.85070163 0.30324599 0.00000000
v 0.84673617 0.30501892 0.00000000
v 0.84280829 0.30674985 0.00000000
v 0.83902498 0.30837579 0.00000000
v 0.83538543 0.30988059 0.00000000
v 0.83182008 0.31128846 0.00000000
v 0.82827246 0.31263819 0.00000000
v 0.82475116 0.31396126 0.00000000
v 0.82131262 0.31527507 0.00000000
v 0.81799593 0.31658650 0.00000000
v 0.81476728 0.31789751 0.00000000
v 0.81152214 0.31920847 0.00000000
v 0.80814863 0.32051942 0.00000000
v 0.80460343 0.32183038 0.00000000
v 0.80093499 0.32314134 0.00000000
v 0.79723187 0.32445229 0.00000000
v 0.79354291 0.32576325 0.00000000
v 0.78983903 0.32707421 0.00000000
v 0.78603989 0.32838517 0.00000000
v 0.78207115 0.32969612 0.00000000
v 0.77790858 0.33100708 0.00000000
v 0.77359165 0.33231804 0.00000000
v 0.76920797 0.33362900 0.00000000
v 0.76485502 0.33493995 0.00000000
v 0.76059505 0.33625091 0.00000000
v 0.75642677 0.33756187 0.00000000
v 0.75228795 0.33887283 0.00000000
v 0.74808366 0.34018378 0.00000000
v 0.74372629 0.34149474 0.00000000
v 0.73917376 0.34280570 0.00000000
v 0.73444991 0.34411665 0.00000000
v 0.72962972 0.34542761 0.00000000
v 0.72478662 0.34673857 0.00000000
v 0.71992960 0.34804953 0.00000000
v 0.71497718 0.34936048 0.00000000
v 0.70979862 0.35067144 0.00000000
v 0.70429943 0.35198240 0.00000000
v 0.69847826 0.35329336 0.00000000
v 0.69239287 0.35460431 0.00000000
v 0.68605487 0.35591527 0.00000000
v 0.67935033 0.35722612 0.00000000
v 0.67205478 0.35853613 0.00000000
v 0.66389619 0.35984128 0.00000000
v 0.65456447 0.36112705 0.00000000
v 0.64366749 0.36235468 0.00000000
v 0.63077658 0.36344661 0.00000000
v 0.61567352 0.36428657 0.00000000
v 0.59867377 0.36474854 0.00000000
v 0.58071630 0.36474854 0.00000000
v 0.56305278 0.36428657 0.00000000
v 0.54673664 0.36344661 0.00000000
v 0.53229342 0.36235468 0.00000000
v 0.51974495 0.36112705 0.00000000
v 0.50883670 0.35984128 0.00000000
v 0.49923713 0.35853613 0.00000000
v 0.49062777 0.35722612 0.00000000
v 0.48272971 0.35591527 0.00000000
v 0.47530760 0.35460431 0.00000000
v 0.46815582 0.35329336 0.00000000
v 0.46107676 0.35198240 0.00000000
v 0.45387655 0.35067144 0.00000000
v 0.44638892 0.34936048 0.00000000
v 0.43851056 0.34804953 0.00000000
v 0.43022179 0.34673857 0.00000000
v 0.42157719 0.34542761 0.00000000
v 0.41266906 0.34411665 0.00000000
v 0.40357811 0.34280570 0.00000000
v 0.39432963 0.34149474 0.00000000
v 0.38487477 0.34018378 0.00000000
v 0.37511666 0.33887283 0.00000000
v 0.36498338 0.33756187 0.00000000
v 0.35450803 0.33625091 0.00000000
v 0.34384849 0.33493995 0.00000000
v 0.33321803 0.33362900 0.00000000
v 0.32278140 0.33231804 0.00000000
v 0.31260327 0.33100708 0.00000000
v 0.30267431 0.32969612 0.00000000
v 0.29296408 0.32838517 0.00000000
v 0.28344723 0.32707421 0.00000000
v 0.27410146 0.32576331 0.00000000
v 0.26490149 0.32445287 0.00000000
v 0.25581667 0.32314519 0.00000000
v 0.24681170 0.32184877 0.00000000
v 0.23787039 0.32058627 0.00000000
v 0.22905786 0.31940131 0.00000000
v 0.22057190 0.31835203 0.00000000
v 0.21267779 0.31748210 0.00000000
v 0.20549009 0.31678063 0.00000000
v 0.19873758 0.31616591 0.00000000
v 0.19174226 0.31552046 0.00000000
v 0.18371573 0.31476204 0.00000000
v 0.17420778 0.31389785 0.00000000
v 0.16336496 0.31301913 0.00000000
v 0.15175397 0.31224218 0.00000000
v 0.13985146 0.31164533 0.00000000
v 0.12762712 0.31125162 0.00000000
v 0.11461358 0.31106354 0.00000000
v 0.10042588 0.31110563 0.00000000
v 0.08526654 0.31142547 0.00000000
v 0.06996733 0.31205220 0.00000000
v 0.05555072 0.31295999 0.00000000
v 0.04269799 0.31407374 0.00000000
v 0.03152782 0.31530663 0.00000000
v 0.02176927 0.31659331 0.00000000
v 0.01309005 0.31789856 0.00000000
v 0.00528560 0.31920857 0.00000000
v -0.00175900 0.32051943 0.00000000
v -0.00819220 0.32183038 0.00000000
v -0.01422665 0.32314134 0.00000000
v -0.02005167 0.32445229 0.00000000
v -0.02574748 0.32576325 0.00000000
v -0.03130648 0.32707421 0.00000000
v -0.03673279 0.32838517 0.00000000
v -0.04210524 0.32969612 0.00000000
v -0.04754292 0.33100708 0.00000000
v -0.05312364 0.33231804 0.00000000
v -0.05884204 0.33362900 0.00000000
v -0.06463359 0.33493995 0.00000000
v -0.07042449 0.33625091 0.00000000
v -0.07616883 0.33756187 0.00000000
v -0.08187466 0.33887283 0.00000000
v -0.08762581 0.34018378 0.00000000
v -0.09357590 0.34149464 0.00000000
v -0.09989424 0.34280464 0.00000000
v -0.10670508 0.34410979 0.00000000
v -0.11409756 0.34539557 0.00000000
v -0.12220989 0.34662329 0.00000000
v -0.13127371 0.34771619 0.00000000
v -0.14151373 0.34856194 0.00000000
v -0.15297464 0.34904910 0.00000000
v -0.16548082 0.34913243 0.00000000
v -0.17879664 0.34888948 0.00000000
v -0.19277726 0.34852053 0.00000000
v -0.20727648 0.34827758 0.00000000
v -0.22189528 0.34836091 0.00000000
v -0.23589980 0.34884807 0.00000000
v -0.24847107 0.34969382 0.00000000
v -0.25908964 0.35078672 0.00000000
v -0.26774407 0.35201444 0.00000000
v -0.27484927 0.35330022 0.00000000
v -0.28098847 0.35460537 0.00000000
v -0.28665708 0.35591538 0.00000000
v -0.29212677 0.35722623 0.00000000
v -0.29745942 0.35853719 0.00000000
v -0.30262133 0.35984814 0.00000000
v -0.30760335 0.36115910 0.00000000
v -0.31247003 0.36247006 0.00000000
v -0.31732704 0.36378101 0.00000000
v -0.32225590 0.36509197 0.00000000
v -0.32727293 0.36640293 0.00000000
v -0.33233695 0.36771389 0.00000000
v -0.33739580 0.36902484 0.00000000
v -0.34244818 0.37033580 0.00000000
v -0.34759372 0.37164675 0.00000000
v -0.35304283 0.37295761 0.00000000
v -0.35907045 0.37426762 0.00000000
v -0.36592667 0.37557287 0.00000000
v -0.37373909 0.37685960 0.00000000
v -0.38243951 0.37809292 0.00000000
v -0.39173535 0.37920909 0.00000000
v -0.40114354 0.38012657 0.00000000
v -0.41009883 0.38078239 0.00000000
v -0.41812034 0.38117018 0.00000000
v -0.42497641 0.38133952 0.00000000
v -0.43076283 0.38134913 0.00000000
v -0.43583210 0.38122928 0.00000000
v -0.44058811 0.38102329 0.00000000
v -0.44525613 0.38090524 0.00000000
v -0.44977726 0.38127092 0.00000000
v -0.45389695 0.38267362 0.00000000
v -0.45736887 0.38557451 0.00000000
v -0.46011442 0.39004411 0.00000000
v -0.46224273 0.39564228 0.00000000
v -0.46396745 0.40159857 0.00000000
v -0.46552166 0.40717598 0.00000000
v -0.46713083 0.41195216 0.00000000
v -0.46902082 0.41584035 0.00000000
v -0.47139613 0.41889747 0.00000000
v -0.47435840 0.42111545 0.00000000
v -0.47781613 0.42236249 0.00000000
v -0.48147896 0.42249214 0.00000000
v -0.48497379 0.42149865 0.00000000
v -0.48801150 0.41957296 0.00000000
v -0.49048869 0.41701524 0.00000000
v -0.49247323 0.41408995 0.00000000
v -0.49411619 0.41094412 0.00000000
v -0.49556625 0.40763277 0.00000000
v -0.49692924 0.40419714 0.00000000
v -0.49827185 0.40071458 0.00000000
v -0.49965072 0.39728685 0.00000000
v -0.50114811 0.39399635 0.00000000
v -0.50289620 0.39088396 0.00000000
v -0.50507064 0.38797516 0.00000000
v -0.50784406 0.38533221 0.00000000
v -0.51131415 0.38308263 0.00000000
v -0.51544393 0.38139417 0.00000000
v -0.52005536 0.38041521 0.00000000
v -0.52489341 0.38022827 0.00000000
v -0.52973317 0.38084616 0.00000000
v -0.53446024 0.38223412 0.00000000
v -0.53906250 0.38431946 0.00000000
v -0.54354805 0.38698099 0.00000000
v -0.54788166 0.39005194 0.00000000
v -0.55201112 0.39335839 0.00000000
v -0.55594656 0.39676019 0.00000000
v -0.55979639 0.40014821 0.00000000
v -0.56372780 0.40340787 0.00000000
v -0.56790909 0.40640424 0.00000000
v -0.57247915 0.40901213 0.00000000
v -0.57751640 0.41115286 0.00000000
v -0.58298109 0.41279381 0.00000000
v -0.58868157 0.41391740 0.00000000
v -0.59433217 0.41450337 0.00000000
v -0.59967705 0.41454832 0.00000000
v -0.60458005 0.41409946 0.00000000
v -0.60902725 0.41326257 0.00000000
v -0.61308250 0.41217206 0.00000000
v -0.61685536 0.41095029 0.00000000
v -0.62049301 0.40968971 0.00000000
v -0.62417295 0.40846794 0.00000000
v -0.62807129 0.40737743 0.00000000
v -0.63229568 0.40654043 0.00000000
v -0.63680920 0.40609058 0.00000000
v -0.64141570 0.40612939 0.00000000
v -0.64585378 0.40668876 0.00000000
v -0.64994448 0.40772545 0.00000000
v -0.65367216 0.40914496 0.00000000
v -0.65714391 0.41083428 0.00000000
v -0.66049290 0.41269201 0.00000000
v -0.66382156 0.41465544 0.00000000
v -0.66720599 0.41671656 0.00000000
v -0.67071503 0.41891265 0.00000000
v -0.67440533 0.42129179 0.00000000
v -0.67829655 0.42387203 0.00000000
v -0.68235009 0.42661462 0.00000000
v -0.68647023 0.42942380 0.00000000
v -0.69053750 0.43218012 0.00000000
v -0.69446462 0.43479628 0.00000000
v -0.69823744 0.43725813 0.00000000
v -0.70190245 0.43961219 0.00000000
v -0.70550775 0.44190653 0.00000000
v -0.70905005 0.44413787 0.00000000
v -0.71247362 0.44625049 0.00000000
v -0.71571510 0.44818101 0.00000000
v -0.71874992 0.44990482 0.00000000
v -0.72160501 0.45144848 0.00000000
v -0.72433887 0.45286848 0.00000000
v -0.72701499 0.45422105 0.00000000
v -0.72969116 0.45554460 0.00000000
v -0.73242549 0.45685846 0.00000000
v -0.73528336 0.45816992 0.00000000
v -0.73832994 0.45948153 0.00000000
v -0.74161014 0.46079819 0.00000000
v -0.74514018 0.46214340 0.00000000
v -0.74894174 0.46360021 0.00000000
v -0.75312364 0.46537923 0.00000000
v -0.75795447 0.46786531 0.00000000
v -0.76381505 0.47154105 0.00000000
v -0.77096624 0.47672871 0.00000000
v -0.77924572 0.48327322 0.00000000
v -0.78796180 0.49044284 0.00000000
v -0.79615340 0.49721349 0.00000000
v -0.80306184 0.50276620 0.00000000
v -0.80845686 0.50682316 0.00000000
v -0.81261308 0.50961210 0.00000000
v -0.81605581 0.51158200 0.00000000
v -0.81933064 0.51313429 0.00000000
v -0.82292297 0.51451242 0.00000000
v -0.82726774 0.51581601 0.00000000
v -0.83273004 0.51704708 0.00000000
v -0.83950338 0.51813953 0.00000000
v -0.84747600 0.51897953 0.00000000
v -0.85617788 0.51944150 0.00000000

