v -0.38130932841503257 -0.7232440481226415 0.0
v -0.38130932841503257 -0.7232440481226415 0.0
v -0.38130932841503257 -0.7192169072234724 0.0
v -0.38130932841503257 -0.711162625425134 0.0
v -0.38130932841503257 -0.707135484525965 0.0
v -0.3853364693142014 -0.707135484525965 0.0
v -0.3853364693142014 -0.7031083436267955 0.0
v -0.3853364693142014 -0.6990812027276264 0.0
v -0.3853364693142014 -0.6950540618284573 0.0
v -0.3853364693142014 -0.6910269209292882 0.0
v -0.3853364693142014 -0.686999780030119 0.0
v -0.3853364693142014 -0.686999780030119 0.0
v -0.3893636102133708 -0.6829726391309495 0.0
v -0.3893636102133708 -0.6749183573326114 0.0
v -0.3893636102133708 -0.6708912164334422 0.0
v -0.3893636102133708 -0.6668640755342731 0.0
v -0.3933907511125398 -0.6588097937359343 0.0
v -0.3933907511125398 -0.6547826528367654 0.0
v -0.3933907511125398 -0.6507555119375962 0.0
v -0.3974178920117092 -0.6507555119375962 0.0
v -0.3974178920117092 -0.6467283710384272 0.0
v -0.3974178920117092 -0.6386740892400884 0.0
v -0.4014450329108786 -0.6346469483409194 0.0
v -0.4014450329108786 -0.6306198074417502 0.0
v -0.4014450329108786 -0.6265926665425812 0.0
v -0.4054721738100474 -0.6104841029459042 0.0
v -0.4094993147092168 -0.6064569620467352 0.0
v -0.4094993147092168 -0.6024298211475657 0.0
v -0.4094993147092168 -0.5943755393492275 0.0
v -0.4094993147092168 -0.5903483984500582 0.0
v -0.41352645560838575 -0.5822941166517198 0.0
v -0.41755359650755514 -0.5742398348533815 0.0
v -0.41755359650755514 -0.5702126939542126 0.0
v -0.4215807374067245 -0.5541041303575356 0.0
v -0.4215807374067245 -0.5500769894583666 0.0
v -0.4256078783058935 -0.5460498485591972 0.0
v -0.4256078783058935 -0.5379955667608589 0.0
v -0.42963501920506286 -0.5299412849625206 0.0
v -0.42963501920506286 -0.5259141440633512 0.0
v -0.42963501920506286 -0.5218870031641822 0.0
v -0.43366216010423175 -0.5138327213658436 0.0
v -0.43366216010423175 -0.5098055804666747 0.0
v -0.43366216010423175 -0.5017512986683362 0.0
v -0.43768930100340114 -0.4936970168699979 0.0
v -0.43768930100340114 -0.4936970168699979 0.0
v -0.4417164419025701 -0.4856427350716592 0.0
v -0.4417164419025701 -0.4816155941724902 0.0
v -0.4417164419025701 -0.47356131237415183 0.0
v -0.4457435828017395 -0.47356131237415183 0.0
v -0.4457435828017395 -0.4655070305758136 0.0
v -0.44977072370090887 -0.4574527487774749 0.0
v -0.44977072370090887 -0.4574527487774749 0.0
v -0.45379786460007776 -0.4493984669791366 0.0
v -0.45379786460007776 -0.44134418518079827 0.0
v -0.45379786460007776 -0.4373170442816289 0.0
v -0.45379786460007776 -0.42926276248329065 0.0
v -0.45379786460007776 -0.4252356215841216 0.0
v -0.45379786460007776 -0.42120848068495226 0.0
v -0.45782500549924715 -0.413154198886614 0.0
v -0.46185214639841604 -0.40509991708827564 0.0
v -0.46185214639841604 -0.39301849439076797 0.0
v -0.46185214639841604 -0.3769099307940913 0.0
v -0.46587928729758543 -0.36885564899575296 0.0
v -0.46587928729758543 -0.3648285080965836 0.0
v -0.46587928729758543 -0.35677422629824534 0.0
v -0.46990642819675443 -0.35274708539907595 0.0
v -0.46990642819675443 -0.3446928036007376 0.0
v -0.4739335690959238 -0.328584240004061 0.0
v -0.4739335690959238 -0.3245570991048916 0.0
v -0.4739335690959238 -0.3165028173065534 0.0
v -0.4779607099950932 -0.30844853550821505 0.0
v -0.4779607099950932 -0.30442139460904566 0.0
v -0.48198785089426205 -0.2963671128107073 0.0
v -0.48198785089426205 -0.28428569011319965 0.0
v -0.48198785089426205 -0.2762314083148613 0.0
v -0.48198785089426205 -0.2440142811215076 0.0
v -0.48601499179343144 -0.23193285842400035 0.0
v -0.48601499179343144 -0.2158242948273233 0.0
v -0.48601499179343144 -0.21179715392815437 0.0
v -0.48601499179343144 -0.1956885903314773 0.0
v -0.48601499179343144 -0.187634308533139 0.0
v -0.4900421326926004 -0.18360716763397006 0.0
v -0.4900421326926004 -0.16749860403729303 0.0
v -0.4900421326926004 -0.15139004044061638 0.0
v -0.4900421326926004 -0.15139004044061638 0.0
v -0.4900421326926004 -0.1433357586422781 0.0
v -0.4900421326926004 -0.1352814768439398 0.0
v -0.4900421326926004 -0.12320005414643212 0.0
v -0.49809641449093917 -0.10709149054975549 0.0
v -0.49809641449093917 -0.10306434965058613 0.0
v -0.49809641449093917 -0.0869557860539095 0.0
v -0.49809641449093917 -0.07084722245723246 0.0
v -0.49809641449093917 -0.058765799759725186 0.0
v -0.49809641449093917 -0.050711517961386864 0.0
v -0.49809641449093917 -0.0466843770622175 0.0
v -0.49809641449093917 -0.03057581346554087 0.0
v -0.49809641449093917 -0.01446724986886383 0.0
v -0.49809641449093917 -0.0023858271713565627 0.0
v -0.5061506962892773 0.01372273642532048 0.0
v -0.5061506962892773 0.02580415912282816 0.0
v -0.5061506962892773 0.041912722719504795 0.0
v -0.5061506962892773 0.05802128631618142 0.0
v -0.5061506962892773 0.07010270901368909 0.0
v -0.5061506962892773 0.07815699081202741 0.0
v -0.5061506962892773 0.08218413171119678 0.0
v -0.5061506962892773 0.0982926953078734 0.0
v -0.5061506962892773 0.11440125890455005 0.0
v -0.5061506962892773 0.1184283998037194 0.0
v -0.5061506962892773 0.13453696340039606 0.0
v -0.5061506962892773 0.14661838609790373 0.0
v -0.5061506962892773 0.17078123149291868 0.0
v -0.5061506962892773 0.18286265419042635 0.0
v -0.5061506962892773 0.19897121778710297 0.0
v -0.5061506962892773 0.20702549958544172 0.0
v -0.5061506962892773 0.21105264048461067 0.0
v -0.5061506962892773 0.22716120408128773 0.0
v -0.5061506962892773 0.239242626778795 0.0
v -0.5061506962892773 0.24326976767796435 0.0
v -0.5061506962892773 0.25937833127464094 0.0
v -0.5061506962892773 0.26340547217381033 0.0
v -0.5061506962892773 0.279514035770487 0.0
v -0.5061506962892773 0.28756831756882534 0.0
v -0.5061506962892773 0.29964974026633295 0.0
v -0.5061506962892773 0.31575830386300957 0.0
v -0.49809641449093917 0.32783972656051724 0.0
v -0.49809641449093917 0.3358940083588555 0.0
v -0.49809641449093917 0.3520025719555322 0.0
v -0.4940692735917698 0.36408399465303987 0.0
v -0.4940692735917698 0.3801925582497169 0.0
v -0.4940692735917698 0.3842196991488858 0.0
v -0.4900421326926004 0.40032826274556244 0.0
v -0.4900421326926004 0.4043554036447318 0.0
v -0.48601499179343144 0.41643682634223955 0.0
v -0.48601499179343144 0.4244911081405779 0.0
v -0.48601499179343144 0.42851824903974717 0.0
v -0.48198785089426205 0.43657253083808556 0.0
v -0.4779607099950932 0.4446268126364239 0.0
v -0.4779607099950932 0.4486539535355928 0.0
v -0.4739335690959238 0.4526810944347622 0.0
v -0.4739335690959238 0.45670823533393146 0.0
v -0.4739335690959238 0.46073537623310046 0.0
v -0.4739335690959238 0.46476251713226985 0.0
v -0.4739335690959238 0.46878965803143885 0.0
v -0.46990642819675443 0.47281679893060824 0.0
v -0.46990642819675443 0.4768439398297771 0.0
v -0.46185214639841604 0.48087108072894647 0.0
v -0.45782500549924715 0.4889253625272848 0.0
v -0.45782500549924715 0.4889253625272848 0.0
v -0.45782500549924715 0.4929525034264542 0.0
v -0.45782500549924715 0.4969796443256231 0.0
v -0.44977072370090887 0.5050339261239617 0.0
v -0.4457435828017395 0.5050339261239617 0.0
v -0.4457435828017395 0.5090610670231307 0.0
v -0.4417164419025701 0.5090610670231307 0.0
v -0.43768930100340114 0.5090610670231307 0.0
v -0.43768930100340114 0.5090610670231307 0.0
v -0.43366216010423175 0.5090610670231307 0.0
v -0.42963501920506286 0.5090610670231307 0.0
v -0.42963501920506286 0.5050339261239617 0.0
v -0.4256078783058935 0.5050339261239617 0.0
v -0.4256078783058935 0.5010067852247924 0.0
v -0.4215807374067245 0.5010067852247924 0.0
v -0.4215807374067245 0.4969796443256231 0.0
v -0.41755359650755514 0.4969796443256231 0.0
v -0.41755359650755514 0.4929525034264542 0.0
v -0.41352645560838575 0.4929525034264542 0.0
v -0.4094993147092168 0.4889253625272848 0.0
v -0.4054721738100474 0.4889253625272848 0.0
v -0.4054721738100474 0.4889253625272848 0.0
v -0.4014450329108786 0.4889253625272848 0.0
v -0.4014450329108786 0.4848982216281158 0.0
v -0.3974178920117092 0.4848982216281158 0.0
v -0.3933907511125398 0.48087108072894647 0.0
v -0.3893636102133708 0.48087108072894647 0.0
v -0.3893636102133708 0.4768439398297771 0.0
v -0.3853364693142014 0.4768439398297771 0.0
v -0.3853364693142014 0.47281679893060824 0.0
v -0.38130932841503257 0.47281679893060824 0.0
v -0.38130932841503257 0.46878965803143885 0.0
v -0.3772821875158632 0.46878965803143885 0.0
v -0.3732550466166942 0.46073537623310046 0.0
v -0.3732550466166942 0.45670823533393146 0.0
v -0.3732550466166942 0.45670823533393146 0.0
v -0.3692279057175248 0.4526810944347622 0.0
v -0.3692279057175248 0.4486539535355928 0.0
v -0.3692279057175248 0.4405996717372545 0.0
v -0.3692279057175248 0.43657253083808556 0.0
v -0.3692279057175248 0.43657253083808556 0.0
v -0.3692279057175248 0.42851824903974717 0.0
v -0.3652007648183554 0.4244911081405779 0.0
v -0.3652007648183554 0.4204639672414085 0.0
v -0.3652007648183554 0.41643682634223955 0.0
v -0.3652007648183554 0.41240968544307016 0.0
v -0.3652007648183554 0.4083825445439012 0.0
v -0.36117362391918656 0.4043554036447318 0.0
v -0.36117362391918656 0.4043554036447318 0.0
v -0.36117362391918656 0.40032826274556244 0.0
v -0.36117362391918656 0.3963011218463936 0.0
v -0.35714648302001717 0.3882468400480552 0.0
v -0.35714648302001717 0.3842196991488858 0.0
v -0.3531193421208482 0.3801925582497169 0.0
v -0.3531193421208482 0.36811113555220926 0.0
v -0.3531193421208482 0.36408399465303987 0.0
v -0.3531193421208482 0.3560297128547016 0.0
v -0.34909220122167883 0.3520025719555322 0.0
v -0.34909220122167883 0.34797543105636325 0.0
v -0.3450650603225099 0.34394829015719386 0.0
v -0.3450650603225099 0.3358940083588555 0.0
v -0.3450650603225099 0.33186686745968663 0.0
v -0.3450650603225099 0.3238125856613479 0.0
v -0.3410379194233405 0.31978544476217896 0.0
v -0.3410379194233405 0.31575830386300957 0.0
v -0.3410379194233405 0.31575830386300957 0.0
v -0.3410379194233405 0.3117311629638406 0.0
v -0.3410379194233405 0.30770402206467123 0.0
v -0.3410379194233405 0.30367688116550234 0.0
v -0.3410379194233405 0.29964974026633295 0.0
v -0.3410379194233405 0.2956225993671636 0.0
v -0.3410379194233405 0.2915954584679947 0.0
v -0.3410379194233405 0.28756831756882534 0.0
v -0.3410379194233405 0.2835411766696563 0.0
v -0.3410379194233405 0.279514035770487 0.0
v -0.3410379194233405 0.2754868948713176 0.0
v -0.3410379194233405 0.2714597539721487 0.0
v -0.3410379194233405 0.26743261307297933 0.0
v -0.3410379194233405 0.26340547217381033 0.0
v -0.3410379194233405 0.26743261307297933 0.0
v -0.3410379194233405 0.279514035770487 0.0
v -0.3450650603225099 0.2835411766696563 0.0
v -0.3450650603225099 0.28756831756882534 0.0
v -0.3450650603225099 0.2915954584679947 0.0
v -0.3450650603225099 0.2956225993671636 0.0
v -0.3450650603225099 0.29964974026633295 0.0
v -0.3450650603225099 0.29964974026633295 0.0
v -0.34909220122167883 0.29964974026633295 0.0
v -0.34909220122167883 0.30367688116550234 0.0
v -0.34909220122167883 0.30770402206467123 0.0
v -0.34909220122167883 0.3117311629638406 0.0
v -0.34909220122167883 0.31575830386300957 0.0
v -0.34909220122167883 0.31978544476217896 0.0
v -0.3450650603225099 0.31978544476217896 0.0
v -0.3410379194233405 0.3238125856613479 0.0
v -0.3410379194233405 0.32783972656051724 0.0
v -0.3370107785241711 0.33186686745968663 0.0
v -0.3329836376250022 0.3358940083588555 0.0
v -0.3329836376250022 0.3358940083588555 0.0
v -0.3289564967258328 0.3399211492580249 0.0
v -0.3209022149274945 0.34797543105636325 0.0
v -0.31687507402832515 0.3560297128547016 0.0
v -0.31687507402832515 0.360056853753871 0.0
v -0.3128479331291562 0.360056853753871 0.0
v -0.30076651043164854 0.3721382764513782 0.0
v -0.2967393695324796 0.3721382764513782 0.0
v -0.2967393695324796 0.3761654173505476 0.0
v -0.28063080593580253 0.3882468400480552 0.0
v -0.2766036650366336 0.3922739809472242 0.0
v -0.2766036650366336 0.3922739809472242 0.0
v -0.26854938323829486 0.4043554036447318 0.0
v -0.2604951014399565 0.4083825445439012 0.0
v -0.2564679605407876 0.41240968544307016 0.0
v -0.25244081964161824 0.41643682634223955 0.0
v -0.24035939694411093 0.4244911081405779 0.0
v -0.24035939694411093 0.4244911081405779 0.0
v -0.23633225604494154 0.42851824903974717 0.0
v -0.23230511514577262 0.42851824903974717 0.0
v -0.22827797424660326 0.43254538993891617 0.0
v -0.22425083334743387 0.43657253083808556 0.0
v -0.21619655154909556 0.4405996717372545 0.0
v -0.2041151288515879 0.4446268126364239 0.0
v -0.2041151288515879 0.4446268126364239 0.0
v -0.17995228345657294 0.4526810944347622 0.0
v -0.17592514255740357 0.4526810944347622 0.0
v -0.16384371985989632 0.45670823533393146 0.0
v -0.15578943806155798 0.46073537623310046 0.0
v -0.14773515626321926 0.46073537623310046 0.0
v -0.13968087446488092 0.46476251713226985 0.0
v -0.1316265926665426 0.46476251713226985 0.0
v -0.11954516996903493 0.46476251713226985 0.0
v -0.11149088817069663 0.46476251713226985 0.0
v -0.10746374727152767 0.46476251713226985 0.0
v -0.09940946547318895 0.46476251713226985 0.0
v -0.08732804277568167 0.46476251713226985 0.0
v -0.07927376097734297 0.46073537623310046 0.0
v -0.07121947917900465 0.46073537623310046 0.0
v -0.06316519738066632 0.45670823533393146 0.0
v -0.05511091558232802 0.4526810944347622 0.0
v -0.04705663378398971 0.4486539535355928 0.0
v -0.043029492884820345 0.4446268126364239 0.0
v -0.03900235198565139 0.4446268126364239 0.0
v -0.030948070187313076 0.43657253083808556 0.0
v -0.026920929288143713 0.43657253083808556 0.0
v -0.018866647489805394 0.43254538993891617 0.0
v -0.018866647489805394 0.42851824903974717 0.0
v -0.01483950659063603 0.4244911081405779 0.0
v -0.01081236569146708 0.4204639672414085 0.0
v -0.006785224792297715 0.41643682634223955 0.0
v -0.0027580838931283522 0.41643682634223955 0.0
v 0.0012690570060405987 0.41240968544307016 0.0
v 0.005296197905209963 0.4083825445439012 0.0
v 0.013350479703548279 0.40032826274556244 0.0
v 0.013350479703548279 0.3963011218463936 0.0
v 0.01737762060271723 0.3963011218463936 0.0
v 0.025431902401055955 0.3842196991488858 0.0
v 0.029459043300224905 0.3842196991488858 0.0
v 0.029459043300224905 0.3801925582497169 0.0
v 0.03348618419939427 0.3721382764513782 0.0
v 0.04154046599773258 0.36408399465303987 0.0
v 0.04556760689690195 0.3560297128547016 0.0
v 0.0495947477960709 0.3520025719555322 0.0
v 0.05764902959440922 0.34394829015719386 0.0
v 0.06570331139274754 0.33186686745968663 0.0
v 0.06973045229191689 0.31978544476217896 0.0
v 0.07375759319108625 0.31575830386300957 0.0
v 0.07778473409025523 0.3117311629638406 0.0
v 0.08181187498942458 0.3117311629638406 0.0
v 0.08181187498942458 0.29964974026633295 0.0
v 0.08583901588859354 0.2956225993671636 0.0
v 0.08986615678776291 0.28756831756882534 0.0
v 0.09389329768693186 0.279514035770487 0.0
v 0.09792043858610121 0.2714597539721487 0.0
v 0.10194757948527058 0.26340547217381033 0.0
v 0.10597472038443954 0.25937833127464094 0.0
v 0.11000186128360888 0.25535119037547205 0.0
v 0.11000186128360888 0.2513240494763027 0.0
v 0.11402900218277784 0.24326976767796435 0.0
v 0.11805614308194722 0.235215485879626 0.0
v 0.11805614308194722 0.22716120408128773 0.0
v 0.12208328398111659 0.22313406318211834 0.0
v 0.12208328398111659 0.21910692228294895 0.0
v 0.12208328398111659 0.21507978138378003 0.0
v 0.1261104248802855 0.21105264048461067 0.0
v 0.1261104248802855 0.20299835868627236 0.0
v 0.1301375657794549 0.19494407688793405 0.0
v 0.13416470667862385 0.18688979508959572 0.0
v 0.13416470667862385 0.18286265419042635 0.0
v 0.13416470667862385 0.17480837239208807 0.0
v 0.13416470667862385 0.17480837239208807 0.0
v 0.13416470667862385 0.17078123149291868 0.0
v 0.13416470667862385 0.17480837239208807 0.0
v 0.13416470667862385 0.21507978138378003 0.0
v 0.13416470667862385 0.22313406318211834 0.0
v 0.13416470667862385 0.235215485879626 0.0
v 0.1381918475777932 0.24326976767796435 0.0
v 0.1381918475777932 0.2472969085771333 0.0
v 0.1381918475777932 0.2513240494763027 0.0
v 0.14221898847696215 0.25535119037547205 0.0
v 0.14624612937613152 0.26743261307297933 0.0
v 0.15027327027530088 0.2714597539721487 0.0
v 0.1583275520736392 0.28756831756882534 0.0
v 0.16235469297280813 0.2956225993671636 0.0
v 0.1663818338719775 0.29964974026633295 0.0
v 0.17040897477114644 0.30770402206467123 0.0
v 0.17443611567031583 0.31575830386300957 0.0
v 0.17846325656948517 0.31575830386300957 0.0
v 0.17846325656948517 0.31978544476217896 0.0
v 0.17846325656948517 0.32783972656051724 0.0
v 0.18651753836782348 0.33186686745968663 0.0
v 0.19457182016616179 0.34394829015719386 0.0
v 0.19859896106533118 0.3520025719555322 0.0
v 0.20665324286366946 0.360056853753871 0.0
v 0.21068038376283846 0.36811113555220926 0.0
v 0.21873466556117677 0.3721382764513782 0.0
v 0.23081608825868444 0.3842196991488858 0.0
v 0.23081608825868444 0.3882468400480552 0.0
v 0.23887037005702275 0.3882468400480552 0.0
v 0.23887037005702275 0.3922739809472242 0.0
v 0.24692465185536147 0.3963011218463936 0.0
v 0.24692465185536147 0.40032826274556244 0.0
v 0.2549789336536997 0.4043554036447318 0.0
v 0.2590060745528687 0.4083825445439012 0.0
v 0.2630332154520381 0.41643682634223955 0.0
v 0.2791417790487147 0.4244911081405779 0.0
v 0.29525034264539135 0.4405996717372545 0.0
v 0.307331765342899 0.4486539535355928 0.0
v 0.323440328939576 0.45670823533393146 0.0
v 0.3596845970320986 0.46476251713226985 0.0
v 0.3798203015279446 0.48087108072894647 0.0
v 0.4241188514188056 0.4848982216281158 0.0
v 0.44425455591465157 0.4889253625272848 0.0
v 0.46036311951132824 0.4889253625272848 0.0
v 0.48049882400717425 0.4929525034264542 0.0
v 0.5006345285030203 0.4929525034264542 0.0
v 0.5127159512005278 0.4969796443256231 0.0
v 0.5207702329988663 0.4969796443256231 0.0
v 0.5328516556963738 0.4969796443256231 0.0
v 0.5449330783938812 0.4969796443256231 0.0
v 0.5570145010913888 0.4969796443256231 0.0
v 0.5771502055872348 0.4969796443256231 0.0
v 0.5972859100830811 0.4969796443256231 0.0
v 0.6335301781756036 0.4969796443256231 0.0
v 0.6496387417722806 0.4929525034264542 0.0
v 0.6617201644697879 0.4889253625272848 0.0
v 0.6697744462681262 0.4848982216281158 0.0
v 0.677828728066465 0.48087108072894647 0.0
v 0.6939372916631417 0.47281679893060824 0.0
v 0.7060187143606493 0.46073537623310046 0.0
v 0.7140729961589876 0.4526810944347622 0.0
v 0.7301815597556643 0.42851824903974717 0.0
v 0.7462901233523408 0.4083825445439012 0.0
v 0.7543444051506796 0.3882468400480552 0.0
v 0.7664258278481868 0.36811113555220926 0.0
v 0.7785072505456945 0.3358940083588555 0.0
v 0.7946158141423711 0.29964974026633295 0.0
v 0.8268329413357249 0.239242626778795 0.0
v 0.8389143640332325 0.21910692228294895 0.0
v 0.8509957867307403 0.17480837239208807 0.0
v 0.8590500685290785 0.14259124519873437 0.0
v 0.8751586321257551 0.11440125890455005 0.0
v 0.8832129139240935 0.0982926953078734 0.0
v 0.8872400548232628 0.08218413171119678 0.0
v 0.8872400548232628 0.07815699081202741 0.0
v 0.8912671957224318 0.06204842721535078 0.0
v 0.9073757593191089 0.0016413137278128015 0.0
v 0.9154300411174471 -0.042657236163048146 0.0
v 0.9315386047141238 -0.10306434965058613 0.0
v 0.9395928865124621 -0.1433357586422781 0.0
v 0.9476471683108003 -0.21985143572649268 0.0
v 0.9597285910083081 -0.28025854921403065 0.0
v 0.9758371546049851 -0.3406656627015687 0.0
v 0.9879185773024923 -0.4655070305758136 0.0
v 0.9879185773024923 -0.49772415776916684 0.0
v 0.9959728591008308 -0.5259141440633512 0.0
v 0.9959728591008308 -0.5420227076600282 0.0
v 1.0 -0.5460498485591972 0.0
v 1.0 -0.5782669757525508 0.0
v 1.0 -0.5903483984500582 0.0
v 1.0 -0.6024298211475657 0.0
v 1.0 -0.6104841029459042 0.0
v 0.9919457182016618 -0.6306198074417502 0.0
v 0.9919457182016618 -0.6386740892400884 0.0
v 0.9879185773024923 -0.6507555119375962 0.0
v 0.9879185773024923 -0.6547826528367654 0.0
v 0.9838914364033233 -0.6588097937359343 0.0
v 0.9798642955041541 -0.6668640755342731 0.0
v 0.9718100137058158 -0.6749183573326114 0.0
v 0.9718100137058158 -0.6829726391309495 0.0
v 0.9677828728066463 -0.6910269209292882 0.0
v 0.9637557319074774 -0.6950540618284573 0.0
v 0.9637557319074774 -0.6990812027276264 0.0
v 0.9597285910083081 -0.7031083436267955 0.0
v 0.9557014501091391 -0.7031083436267955 0.0
v 0.9516743092099698 -0.707135484525965 0.0
v 0.9436200274116314 -0.707135484525965 0.0
v 0.9355657456132931 -0.707135484525965 0.0
v 0.9315386047141238 -0.707135484525965 0.0
v 0.9114029002182779 -0.7031083436267955 0.0
v 0.9033486184199395 -0.6990812027276264 0.0
v 0.8912671957224318 -0.6829726391309495 0.0
v 0.8751586321257551 -0.6749183573326114 0.0
v 0.867104350327417 -0.6628369346351038 0.0
v 0.8429415049324015 -0.6346469483409194 0.0
v 0.8348872231340632 -0.6225655256434117 0.0
v 0.8268329413357249 -0.6024298211475657 0.0
v 0.8107243777390483 -0.5742398348533815 0.0
v 0.8066972368398788 -0.5621584121558738 0.0
v 0.8026700959407098 -0.5541041303575356 0.0
v 0.7986429550415405 -0.5339684258616896 0.0
v 0.7865615323440328 -0.5098055804666747 0.0
v 0.7825343914448638 -0.49772415776916684 0.0
v 0.7785072505456945 -0.4695341714749826 0.0
v 0.7785072505456945 -0.4614798896766443 0.0
v 0.7704529687473564 -0.44134418518079827 0.0
v 0.7623986869490178 -0.413154198886614 0.0
v 0.7543444051506796 -0.3849642125924297 0.0
v 0.7503172642515104 -0.3648285080965836 0.0
v 0.7462901233523408 -0.35274708539907595 0.0
v 0.7382358415540026 -0.33261138090323 0.0
v 0.7301815597556643 -0.312475676407384 0.0
v 0.7301815597556643 -0.2923399719115384 0.0
v 0.7301815597556643 -0.28428569011319965 0.0
v 0.7181001370581566 -0.2560957038190153 0.0
v 0.7140729961589876 -0.2440142811215076 0.0
v 0.7140729961589876 -0.23193285842400035 0.0
v 0.7060187143606493 -0.2158242948273233 0.0
v 0.7060187143606493 -0.21179715392815437 0.0
v 0.6979644325623106 -0.1956885903314773 0.0
v 0.6979644325623106 -0.18360716763397006 0.0
v 0.6939372916631417 -0.16749860403729303 0.0
v 0.6939372916631417 -0.15139004044061638 0.0
v 0.6858830098648033 -0.1352814768439398 0.0
v 0.6858830098648033 -0.12320005414643212 0.0
v 0.677828728066465 -0.10306434965058613 0.0
v 0.677828728066465 -0.0950100678522478 0.0
v 0.6738015871672957 -0.07890150425557117 0.0
v 0.6697744462681262 -0.0668200815580635 0.0
v 0.6657473053689573 -0.06279294065889414 0.0
v 0.657693023570619 -0.0466843770622175 0.0
v 0.6536658826714496 -0.03460295436470982 0.0
v 0.6496387417722806 -0.02252153166720214 0.0
v 0.6456116008731112 -0.018494390768033196 0.0
v 0.6415844599739419 -0.006412968070525513 0.0
v 0.637557319074773 0.0056684546269821666 0.0
v 0.6295030372764346 0.009695595526151114 0.0
v 0.6295030372764346 0.01774987732448943 0.0
v 0.621448755478096 0.02580415912282816 0.0
v 0.617421614578927 0.037885581820335426 0.0
v 0.6053401918814192 0.04593986361867374 0.0
v 0.6013130509822504 0.05399414541701247 0.0
v 0.5932587691839115 0.06204842721535078 0.0
v 0.5852044873855732 0.07010270901368909 0.0
v 0.5852044873855732 0.07815699081202741 0.0
v 0.5690959237888966 0.08218413171119678 0.0
v 0.5650687828897272 0.0902384135095351 0.0
v 0.5570145010913888 0.0982926953078734 0.0
v 0.5489602192930506 0.0982926953078734 0.0
v 0.5409059374947122 0.10634697710621172 0.0
v 0.5328516556963738 0.11037411800538109 0.0
v 0.5207702329988663 0.1184283998037194 0.0
v 0.5127159512005278 0.1184283998037194 0.0
v 0.5086888103013586 0.1184283998037194 0.0
v 0.5006345285030203 0.1184283998037194 0.0
v 0.49258024670468187 0.1184283998037194 0.0
v 0.49258024670468187 0.1184283998037194 0.0
v 0.4845259649063435 0.1184283998037194 0.0
v 0.47647168310800525 0.1184283998037194 0.0
v 0.4724445422088359 0.1184283998037194 0.0
v 0.4643902604104975 0.1184283998037194 0.0
v 0.45633597861215924 0.11440125890455005 0.0
v 0.4523088377129899 0.11037411800538109 0.0
v 0.44022741501548224 0.10634697710621172 0.0
v 0.43620027411631324 0.10231983620704277 0.0
v 0.42814599231797495 0.0982926953078734 0.0
v 0.4160645696204673 0.08218413171119678 0.0
v 0.40801028782212895 0.07815699081202741 0.0
v 0.4039831469229596 0.07412984991285802 0.0
v 0.3959288651246213 0.06204842721535078 0.0
v 0.387874583326283 0.05399414541701247 0.0
v 0.387874583326283 0.049967004517843104 0.0
v 0.3838474424271136 0.041912722719504795 0.0
v 0.3798203015279446 0.03385844092116648 0.0
v 0.3798203015279446 0.02983130002199711 0.0
v 0.3757931606287753 0.021777018223658795 0.0
v 0.367738878830437 0.009695595526151114 0.0
v 0.367738878830437 -0.0023858271713565627 0.0
v 0.3637117379312676 -0.010440108969694877 0.0
v 0.3637117379312676 -0.01446724986886383 0.0
v 0.3637117379312676 -0.02252153166720214 0.0
v 0.3596845970320986 -0.03863009526387919 0.0
v 0.3596845970320986 -0.0466843770622175 0.0
v 0.35163031523376037 -0.0668200815580635 0.0
v 0.35163031523376037 -0.07487436335640182 0.0
v 0.34760317433459104 -0.07890150425557117 0.0
v 0.34760317433459104 -0.08292864515474012 0.0
v 0.3435760334354216 -0.0950100678522478 0.0
v 0.33954889253625264 -0.10709149054975549 0.0
v 0.3355217516370833 -0.1151457723480938 0.0
v 0.3314946107379143 -0.12320005414643212 0.0
v 0.32746746983874503 -0.12320005414643212 0.0
v 0.32746746983874503 -0.12722719504560145 0.0
v 0.32746746983874503 -0.13125433594477043 0.0
v 0.323440328939576 -0.1352814768439398 0.0
v 0.3153860471412373 -0.1433357586422781 0.0
v 0.31135890624206836 -0.1433357586422781 0.0
v 0.307331765342899 -0.14736289954144705 0.0
v 0.30330462444373 -0.14736289954144705 0.0
v 0.28719606084705307 -0.14736289954144705 0.0
v 0.2751146381495458 -0.15139004044061638 0.0
v 0.2751146381495458 -0.15139004044061638 0.0
v 0.26706035635120706 -0.15139004044061638 0.0
v 0.2590060745528687 -0.15139004044061638 0.0
v 0.2549789336536997 -0.15139004044061638 0.0
v 0.2549789336536997 -0.15139004044061638 0.0
v 0.25095179275453044 -0.15139004044061638 0.0
v 0.23081608825868444 -0.14736289954144705 0.0
v 0.22276180646034616 -0.14736289954144705 0.0
v 0.21873466556117677 -0.1433357586422781 0.0
v 0.21068038376283846 -0.1433357586422781 0.0
v 0.20262610196450015 -0.1433357586422781 0.0
v 0.19457182016616179 -0.13930861774310874 0.0
v 0.17846325656948517 -0.12722719504560145 0.0
v 0.17040897477114644 -0.12320005414643212 0.0
v 0.1663818338719775 -0.12320005414643212 0.0
v 0.1583275520736392 -0.11917291324726276 0.0
v 0.14624612937613152 -0.11111863144892442 0.0
v 0.14221898847696215 -0.10709149054975549 0.0
v 0.1381918475777932 -0.09903720875141675 0.0
v 0.1301375657794549 -0.0869557860539095 0.0
v 0.1261104248802855 -0.0869557860539095 0.0
v 0.12208328398111659 -0.08292864515474012 0.0
v 0.11805614308194722 -0.07084722245723246 0.0
v 0.11402900218277784 -0.0668200815580635 0.0
v 0.11000186128360888 -0.06279294065889414 0.0
v 0.10194757948527058 -0.058765799759725186 0.0
v 0.09792043858610121 -0.050711517961386864 0.0
v 0.09792043858610121 -0.0466843770622175 0.0
v 0.09389329768693186 -0.042657236163048146 0.0
v 0.08986615678776291 -0.03460295436470982 0.0
v 0.08583901588859354 -0.02252153166720214 0.0
v 0.06973045229191689 -0.006412968070525513 0.0
v 0.06167617049357858 0.0016413137278128015 0.0
v 0.05764902959440922 0.009695595526151114 0.0
v 0.0495947477960709 0.01372273642532048 0.0
v 0.04154046599773258 0.02580415912282816 0.0
v 0.029459043300224905 0.037885581820335426 0.0
v 0.025431902401055955 0.037885581820335426 0.0
v 0.01737762060271723 0.04593986361867374 0.0
v 0.009323338804378913 0.05399414541701247 0.0
v 0.0012690570060405987 0.05802128631618142 0.0
v -0.0027580838931283522 0.06204842721535078 0.0
v -0.006785224792297715 0.07010270901368909 0.0
v -0.02289378838897435 0.07815699081202741 0.0
v -0.026920929288143713 0.08621127261036572 0.0
v -0.030948070187313076 0.0902384135095351 0.0
v -0.03900235198565139 0.09426555440870406 0.0
v -0.043029492884820345 0.09426555440870406 0.0
v -0.04705663378398971 0.10231983620704277 0.0
v -0.05511091558232802 0.11037411800538109 0.0
v -0.06316519738066632 0.11440125890455005 0.0
v -0.0671923382798357 0.1184283998037194 0.0
v -0.07927376097734297 0.12648268160205775 0.0
v -0.09135518367485061 0.1305098225012271 0.0
v -0.09940946547318895 0.13453696340039606 0.0
v -0.09940946547318895 0.13856410429956542 0.0
v -0.10746374727152767 0.13856410429956542 0.0
v -0.11149088817069663 0.14259124519873437 0.0
v -0.11954516996903493 0.15064552699707273 0.0
v -0.12357231086820429 0.15064552699707273 0.0
v -0.12759945176737328 0.15064552699707273 0.0
v -0.1316265926665426 0.15064552699707273 0.0
v -0.13565373356571195 0.15064552699707273 0.0
v -0.14370801536405028 0.15064552699707273 0.0
v -0.15578943806155798 0.14661838609790373 0.0
v -0.16787086075906527 0.14259124519873437 0.0
v -0.17189800165823463 0.13856410429956542 0.0
v -0.17995228345657294 0.1305098225012271 0.0
v -0.19203370615408064 0.12648268160205775 0.0
v -0.20008798795241892 0.1184283998037194 0.0
v -0.20814226975075723 0.11440125890455005 0.0
v -0.20814226975075723 0.11440125890455005 0.0
v -0.21619655154909556 0.10634697710621172 0.0
v -0.22425083334743387 0.0982926953078734 0.0
v -0.22827797424660326 0.0982926953078734 0.0
v -0.23230511514577262 0.0902384135095351 0.0
v -0.24035939694411093 0.07815699081202741 0.0
v -0.24438653784327985 0.06607556811451973 0.0
v -0.24841367874244924 0.06204842721535078 0.0
v -0.25244081964161824 0.05399414541701247 0.0
v -0.2564679605407876 0.041912722719504795 0.0
v -0.26452224233912586 0.037885581820335426 0.0
v -0.26452224233912586 0.02580415912282816 0.0
v -0.27257652413746425 0.009695595526151114 0.0
v -0.2766036650366336 -0.010440108969694877 0.0
v -0.28063080593580253 -0.02654867256637151 0.0
v -0.28063080593580253 -0.0466843770622175 0.0
v -0.28063080593580253 -0.0668200815580635 0.0
v -0.28063080593580253 -0.08292864515474012 0.0
v -0.28063080593580253 -0.0950100678522478 0.0
v -0.28063080593580253 -0.11111863144892442 0.0
v -0.2766036650366336 -0.12722719504560145 0.0
v -0.27257652413746425 -0.15541718133978574 0.0
v -0.26854938323829486 -0.17555288583563172 0.0
v -0.26452224233912586 -0.20777001302898498 0.0
v -0.2564679605407876 -0.22387857662566163 0.0
v -0.25244081964161824 -0.2399871402223387 0.0
v -0.24438653784327985 -0.26817712651652303 0.0
v -0.23633225604494154 -0.28428569011319965 0.0
v -0.22827797424660326 -0.312475676407384 0.0
v -0.22022369244826495 -0.3366385218023994 0.0
v -0.21619655154909556 -0.3648285080965836 0.0
v -0.21216941064992662 -0.3809370716932603 0.0
v -0.20814226975075723 -0.40107277618910625 0.0
v -0.2041151288515879 -0.40509991708827564 0.0
v -0.20008798795241892 -0.42926276248329065 0.0
v -0.19606084705324955 -0.43328990338246004 0.0
v -0.19606084705324955 -0.4453713260799676 0.0
v -0.19203370615408064 -0.4534256078783059 0.0
v -0.18800656525491125 -0.4655070305758136 0.0
v -0.18800656525491125 -0.4816155941724902 0.0
v -0.18397942435574233 -0.5017512986683362 0.0
v -0.18397942435574233 -0.5098055804666747 0.0
v -0.17995228345657294 -0.5218870031641822 0.0
v -0.17995228345657294 -0.5299412849625206 0.0
v -0.17592514255740357 -0.5339684258616896 0.0
v -0.17592514255740357 -0.5541041303575356 0.0
v -0.17189800165823463 -0.5702126939542126 0.0
v -0.17189800165823463 -0.6024298211475657 0.0
v -0.17189800165823463 -0.6104841029459042 0.0
v -0.17189800165823463 -0.6185383847442429 0.0
v -0.17189800165823463 -0.6265926665425812 0.0
v -0.17189800165823463 -0.6467283710384272 0.0
v -0.17189800165823463 -0.6668640755342731 0.0
v -0.17189800165823463 -0.686999780030119 0.0
v -0.17189800165823463 -0.707135484525965 0.0
v -0.17592514255740357 -0.7192169072234724 0.0
v -0.17592514255740357 -0.7272711890218109 0.0
v -0.17592514255740357 -0.7353254708201491 0.0
v -0.17995228345657294 -0.7353254708201491 0.0
v -0.18800656525491125 -0.751434034416826 0.0
v -0.18800656525491125 -0.7554611753159951 0.0
v -0.19203370615408064 -0.7635154571143334 0.0
v -0.19606084705324955 -0.771569738912672 0.0
v -0.20008798795241892 -0.7796240207110102 0.0
v -0.20814226975075723 -0.791705443408518 0.0
v -0.21216941064992662 -0.7957325843076871 0.0
v -0.22022369244826495 -0.8037868661060256 0.0
v -0.22827797424660326 -0.8037868661060256 0.0
v -0.22827797424660326 -0.8078140070051946 0.0
v -0.24035939694411093 -0.8118411479043637 0.0
v -0.2564679605407876 -0.8158682888035328 0.0
v -0.26452224233912586 -0.8158682888035328 0.0
v -0.2766036650366336 -0.8118411479043637 0.0
v -0.28063080593580253 -0.8118411479043637 0.0
v -0.28868508773414087 -0.8078140070051946 0.0
v -0.2927122286333102 -0.8037868661060256 0.0
v -0.2967393695324796 -0.8037868661060256 0.0
v -0.30076651043164854 -0.7997597252068562 0.0
v -0.3047936513308179 -0.7957325843076871 0.0
v -0.3088207922299868 -0.7957325843076871 0.0
v -0.31687507402832515 -0.791705443408518 0.0
v -0.3209022149274945 -0.7876783025093487 0.0
v -0.3289564967258328 -0.7836511616101796 0.0
v -0.3329836376250022 -0.7836511616101796 0.0
v -0.3410379194233405 -0.7796240207110102 0.0
v -0.3450650603225099 -0.7796240207110102 0.0
l 1 2
l 2 3
l 3 4
l 4 5
l 5 6
l 6 7
l 7 8
l 8 9
l 9 10
l 10 11
l 11 12
l 12 13
l 13 14
l 14 15
l 15 16
l 16 17
l 17 18
l 18 19
l 19 20
l 20 21
l 21 22
l 22 23
l 23 24
l 24 25
l 25 26
l 26 27
l 27 28
l 28 29
l 29 30
l 30 31
l 31 32
l 32 33
l 33 34
l 34 35
l 35 36
l 36 37
l 37 38
l 38 39
l 39 40
l 40 41
l 41 42
l 42 43
l 43 44
l 44 45
l 45 46
l 46 47
l 47 48
l 48 49
l 49 50
l 50 51
l 51 52
l 52 53
l 53 54
l 54 55
l 55 56
l 56 57
l 57 58
l 58 59
l 59 60
l 60 61
l 61 62
l 62 63
l 63 64
l 64 65
l 65 66
l 66 67
l 67 68
l 68 69
l 69 70
l 70 71
l 71 72
l 72 73
l 73 74
l 74 75
l 75 76
l 76 77
l 77 78
l 78 79
l 79 80
l 80 81
l 81 82
l 82 83
l 83 84
l 84 85
l 85 86
l 86 87
l 87 88
l 88 89
l 89 90
l 90 91
l 91 92
l 92 93
l 93 94
l 94 95
l 95 96
l 96 97
l 97 98
l 98 99
l 99 100
l 100 101
l 101 102
l 102 103
l 103 104
l 104 105
l 105 106
l 106 107
l 107 108
l 108 109
l 109 110
l 110 111
l 111 112
l 112 113
l 113 114
l 114 115
l 115 116
l 116 117
l 117 118
l 118 119
l 119 120
l 120 121
l 121 122
l 122 123
l 123 124
l 124 125
l 125 126
l 126 127
l 127 128
l 128 129
l 129 130
l 130 131
l 131 132
l 132 133
l 133 134
l 134 135
l 135 136
l 136 137
l 137 138
l 138 139
l 139 140
l 140 141
l 141 142
l 142 143
l 143 144
l 144 145
l 145 146
l 146 147
l 147 148
l 148 149
l 149 150
l 150 151
l 151 152
l 152 153
l 153 154
l 154 155
l 155 156
l 156 157
l 157 158
l 158 159
l 159 160
l 160 161
l 161 162
l 162 163
l 163 164
l 164 165
l 165 166
l 166 167
l 167 168
l 168 169
l 169 170
l 170 171
l 171 172
l 172 173
l 173 174
l 174 175
l 175 176
l 176 177
l 177 178
l 178 179
l 179 180
l 180 181
l 181 182
l 182 183
l 183 184
l 184 185
l 185 186
l 186 187
l 187 188
l 188 189
l 189 190
l 190 191
l 191 192
l 192 193
l 193 194
l 194 195
l 195 196
l 196 197
l 197 198
l 198 199
l 199 200
l 200 201
l 201 202
l 202 203
l 203 204
l 204 205
l 205 206
l 206 207
l 207 208
l 208 209
l 209 210
l 210 211
l 211 212
l 212 213
l 213 214
l 214 215
l 215 216
l 216 217
l 217 218
l 218 219
l 219 220
l 220 221
l 221 222
l 222 223
l 223 224
l 224 225
l 225 226
l 226 227
l 227 228
l 228 229
l 229 230
l 230 231
l 231 232
l 232 233
l 233 234
l 234 235
l 235 236
l 236 237
l 237 238
l 238 239
l 239 240
l 240 241
l 241 242
l 242 243
l 243 244
l 244 245
l 245 246
l 246 247
l 247 248
l 248 249
l 249 250
l 250 251
l 251 252
l 252 253
l 253 254
l 254 255
l 255 256
l 256 257
l 257 258
l 258 259
l 259 260
l 260 261
l 261 262
l 262 263
l 263 264
l 264 265
l 265 266
l 266 267
l 267 268
l 268 269
l 269 270
l 270 271
l 271 272
l 272 273
l 273 274
l 274 275
l 275 276
l 276 277
l 277 278
l 278 279
l 279 280
l 280 281
l 281 282
l 282 283
l 283 284
l 284 285
l 285 286
l 286 287
l 287 288
l 288 289
l 289 290
l 290 291
l 291 292
l 292 293
l 293 294
l 294 295
l 295 296
l 296 297
l 297 298
l 298 299
l 299 300
l 300 301
l 301 302
l 302 303
l 303 304
l 304 305
l 305 306
l 306 307
l 307 308
l 308 309
l 309 310
l 310 311
l 311 312
l 312 313
l 313 314
l 314 315
l 315 316
l 316 317
l 317 318
l 318 319
l 319 320
l 320 321
l 321 322
l 322 323
l 323 324
l 324 325
l 325 326
l 326 327
l 327 328
l 328 329
l 329 330
l 330 331
l 331 332
l 332 333
l 333 334
l 334 335
l 335 336
l 336 337
l 337 338
l 338 339
l 339 340
l 340 341
l 341 342
l 342 343
l 343 344
l 344 345
l 345 346
l 346 347
l 347 348
l 348 349
l 349 350
l 350 351
l 351 352
l 352 353
l 353 354
l 354 355
l 355 356
l 356 357
l 357 358
l 358 359
l 359 360
l 360 361
l 361 362
l 362 363
l 363 364
l 364 365
l 365 366
l 366 367
l 367 368
l 368 369
l 369 370
l 370 371
l 371 372
l 372 373
l 373 374
l 374 375
l 375 376
l 376 377
l 377 378
l 378 379
l 379 380
l 380 381
l 381 382
l 382 383
l 383 384
l 384 385
l 385 386
l 386 387
l 387 388
l 388 389
l 389 390
l 390 391
l 391 392
l 392 393
l 393 394
l 394 395
l 395 396
l 396 397
l 397 398
l 398 399
l 399 400
l 400 401
l 401 402
l 402 403
l 403 404
l 404 405
l 405 406
l 406 407
l 407 408
l 408 409
l 409 410
l 410 411
l 411 412
l 412 413
l 413 414
l 414 415
l 415 416
l 416 417
l 417 418
l 418 419
l 419 420
l 420 421
l 421 422
l 422 423
l 423 424
l 424 425
l 425 426
l 426 427
l 427 428
l 428 429
l 429 430
l 430 431
l 431 432
l 432 433
l 433 434
l 434 435
l 435 436
l 436 437
l 437 438
l 438 439
l 439 440
l 440 441
l 441 442
l 442 443
l 443 444
l 444 445
l 445 446
l 446 447
l 447 448
l 448 449
l 449 450
l 450 451
l 451 452
l 452 453
l 453 454
l 454 455
l 455 456
l 456 457
l 457 458
l 458 459
l 459 460
l 460 461
l 461 462
l 462 463
l 463 464
l 464 465
l 465 466
l 466 467
l 467 468
l 468 469
l 469 470
l 470 471
l 471 472
l 472 473
l 473 474
l 474 475
l 475 476
l 476 477
l 477 478
l 478 479
l 479 480
l 480 481
l 481 482
l 482 483
l 483 484
l 484 485
l 485 486
l 486 487
l 487 488
l 488 489
l 489 490
l 490 491
l 491 492
l 492 493
l 493 494
l 494 495
l 495 496
l 496 497
l 497 498
l 498 499
l 499 500
l 500 501
l 501 502
l 502 503
l 503 504
l 504 505
l 505 506
l 506 507
l 507 508
l 508 509
l 509 510
l 510 511
l 511 512
l 512 513
l 513 514
l 514 515
l 515 516
l 516 517
l 517 518
l 518 519
l 519 520
l 520 521
l 521 522
l 522 523
l 523 524
l 524 525
l 525 526
l 526 527
l 527 528
l 528 529
l 529 530
l 530 531
l 531 532
l 532 533
l 533 534
l 534 535
l 535 536
l 536 537
l 537 538
l 538 539
l 539 540
l 540 541
l 541 542
l 542 543
l 543 544
l 544 545
l 545 546
l 546 547
l 547 548
l 548 549
l 549 550
l 550 551
l 551 552
l 552 553
l 553 554
l 554 555
l 555 556
l 556 557
l 557 558
l 558 559
l 559 560
l 560 561
l 561 562
l 562 563
l 563 564
l 564 565
l 565 566
l 566 567
l 567 568
l 568 569
l 569 570
l 570 571
l 571 572
l 572 573
l 573 574
l 574 575
l 575 576
l 576 577
l 577 578
l 578 579
l 579 580
l 580 581
l 581 582
l 582 583
l 583 584
l 584 585
l 585 586
l 586 587
l 587 588
l 588 589
l 589 590
l 590 591
l 591 592
l 592 593
l 593 594
l 594 595
l 595 596
l 596 597
l 597 598
l 598 599
l 599 600
l 600 601
l 601 602
l 602 603
l 603 604
l 604 605
l 605 606
l 606 607
l 607 608
l 608 609
l 609 610
l 610 611
l 611 612
l 612 613
l 613 614
l 614 615
l 615 616
l 616 617
l 617 618
l 618 619
l 619 620
l 620 621
l 621 622
l 622 623
l 623 624
l 624 625
l 625 626
l 626 627
l 627 628
l 628 629
l 629 630
l 630 631
l 631 632
l 632 633
l 633 634
l 634 635
l 635 636
l 636 637
l 637 638
l 638 639
l 639 640
l 640 641
l 641 642
l 642 643
l 643 644
l 644 645
l 645 646
l 646 647
l 647 648
l 648 649
l 649 650
l 650 651
l 651 652
l 652 653
l 653 654
l 654 655
l 655 656
l 656 657
l 657 658
l 658 659
l 659 660
l 660 661
l 661 662
l 662 663
l 663 664
l 664 665
l 665 666
l 666 667
l 667 668
l 668 669
l 669 670
l 670 671
l 671 672
l 672 673
l 673 674
l 674 675
l 675 676
l 676 677
l 677 678
l 678 679
l 679 680
l 680 681
l 681 682
l 682 683
l 683 684
l 684 685
l 685 686
l 686 687
l 687 688
l 688 689
l 689 690
l 690 691
l 691 692
l 692 693
l 693 694
l 694 695
l 695 696
l 696 697
l 697 698
l 698 699
l 699 700
l 700 701
l 701 702
l 702 703
l 703 704
l 704 705
l 705 706
l 706 707
l 707 708
l 708 709
l 709 710
l 710 711
l 711 712
l 712 713
l 713 714
l 714 1
