v -0.5283897144848527 0.8832549224603593 0.0
v -0.5225524606078711 0.8832549224603593 0.0
v -0.5225524606078711 0.877417668583377 0.0
v -0.510877952853907 0.8599059069524307 0.0
v -0.5050406989769247 0.8482313991984667 0.0
v -0.4992034450999425 0.8365568914445028 0.0
v -0.4992034450999425 0.8190451298135564 0.0
v -0.4933661912229607 0.8073706220595924 0.0
v -0.4933661912229607 0.7956961143056285 0.0
v -0.4875289373459784 0.778184352674682 0.0
v -0.4875289373459784 0.754835337166754 0.0
v -0.48169168346899677 0.7373235755358077 0.0
v -0.47001717571503215 0.6906255445199511 0.0
v -0.4583426679610681 0.6497647673810768 0.0
v -0.4583426679610681 0.6030667363652208 0.0
v -0.4583426679610681 0.5563687053493642 0.0
v -0.4466681602071041 0.4921589127025618 0.0
v -0.4466681602071041 0.42211186617877716 0.0
v -0.4466681602071041 0.35790207353197423 0.0
v -0.4466681602071041 0.3345530580240462 0.0
v -0.43499365245314014 0.28785502700818955 0.0
v -0.43499365245314014 0.22364523436138722 0.0
v -0.43499365245314014 0.21197072660742322 0.0
v -0.4233191446991761 0.1711099494685489 0.0
v -0.4233191446991761 0.10106290294476425 0.0
v -0.4233191446991761 0.031015856420979603 0.0
v -0.4233191446991761 -0.009844920717894728 0.0
v -0.4233191446991761 -0.1032409827496074 0.0
v -0.4233191446991761 -0.16745077539641035 0.0
v -0.4233191446991761 -0.21414880641226697 0.0
v -0.4233191446991761 -0.28419585293605104 0.0
v -0.4233191446991761 -0.3017076145669973 0.0
v -0.4233191446991761 -0.3717546610907819 0.0
v -0.4233191446991761 -0.4126154382296563 0.0
v -0.4233191446991761 -0.482662484753441 0.0
v -0.4233191446991761 -0.5001742463843873 0.0
v -0.4233191446991761 -0.5468722774002439 0.0
v -0.4233191446991761 -0.5935703084160999 0.0
v -0.4233191446991761 -0.6110820700470463 0.0
v -0.4233191446991761 -0.657780101062903 0.0
v -0.4233191446991761 -0.6636173549398846 0.0
v -0.4174818908221937 -0.6869663704478133 0.0
v -0.4174818908221937 -0.7103153859557413 0.0
v -0.4174818908221937 -0.7161526398327236 0.0
v -0.4174818908221937 -0.7395016553406516 0.0
v -0.40580738306822983 -0.7570134169715979 0.0
v -0.40580738306822983 -0.768687924725562 0.0
v -0.3999701291912475 -0.7920369402334899 0.0
v -0.3999701291912475 -0.7978741941104721 0.0
v -0.3941328753142658 -0.803711447987454 0.0
v -0.3941328753142658 -0.8153859557414186 0.0
v -0.3941328753142658 -0.8328977173723643 0.0
v -0.3941328753142658 -0.8387349712493466 0.0
v -0.3824583675603018 -0.8620839867572746 0.0
v -0.3824583675603018 -0.8679212406342569 0.0
v -0.3824583675603018 -0.8795957483882209 0.0
v -0.37662111368331946 -0.8854330022652026 0.0
v -0.37662111368331946 -0.8912702561421849 0.0
v -0.3707838598063377 -0.8971075100191671 0.0
v -0.3649466059293555 -0.902944763896149 0.0
v -0.3591093520523732 -0.9087820177731313 0.0
v -0.3591093520523732 -0.9146192716501129 0.0
v -0.3591093520523732 -0.9146192716501129 0.0
v -0.3591093520523732 -0.9204565255270951 0.0
v -0.3532720981753914 -0.9204565255270951 0.0
v -0.3532720981753914 -0.9262937794040774 0.0
v -0.34743484429840915 -0.9321310332810593 0.0
v -0.3415975904214275 -0.9379682871580416 0.0
v -0.33576033654444515 -0.9379682871580416 0.0
v -0.33576033654444515 -0.9379682871580416 0.0
v -0.32992308266746345 -0.9438055410350232 0.0
v -0.32992308266746345 -0.9496427949120055 0.0
v -0.32408582879048115 -0.9496427949120055 0.0
v -0.3182485749134988 -0.9554800487889873 0.0
v -0.30657406715953484 -0.9613173026659697 0.0
v -0.30657406715953484 -0.967154556542952 0.0
v -0.3007368132825531 -0.967154556542952 0.0
v -0.29489955940557083 -0.967154556542952 0.0
v -0.2890623055285886 -0.967154556542952 0.0
v -0.2832250516516068 -0.967154556542952 0.0
v -0.2832250516516068 -0.967154556542952 0.0
v -0.2773877977746245 -0.9729918104199335 0.0
v -0.27155054389764277 -0.9729918104199335 0.0
v -0.26571329002066046 -0.9729918104199335 0.0
v -0.25987603614367877 -0.9729918104199335 0.0
v -0.25987603614367877 -0.967154556542952 0.0
v -0.2540387822666965 -0.967154556542952 0.0
v -0.24236427451273249 -0.9613173026659697 0.0
v -0.2365270206357502 -0.9554800487889873 0.0
v -0.23068976675876846 -0.9438055410350232 0.0
v -0.23068976675876846 -0.9379682871580416 0.0
v -0.22485251288178618 -0.9379682871580416 0.0
v -0.22485251288178618 -0.9321310332810593 0.0
v -0.21901525900480445 -0.9262937794040774 0.0
v -0.21901525900480445 -0.9204565255270951 0.0
v -0.21317800512782217 -0.9146192716501129 0.0
v -0.21317800512782217 -0.9146192716501129 0.0
v -0.20734075125083984 -0.902944763896149 0.0
v -0.20734075125083984 -0.8912702561421849 0.0
v -0.20734075125083984 -0.8854330022652026 0.0
v -0.20734075125083984 -0.8854330022652026 0.0
v -0.20734075125083984 -0.8737584945112385 0.0
v -0.20734075125083984 -0.8679212406342569 0.0
v -0.20150349737385817 -0.8504094790033105 0.0
v -0.20150349737385817 -0.8387349712493466 0.0
v -0.19566624349687586 -0.8328977173723643 0.0
v -0.19566624349687586 -0.8095487018644363 0.0
v -0.19566624349687586 -0.7978741941104721 0.0
v -0.19566624349687586 -0.7803624324795259 0.0
v -0.19566624349687586 -0.768687924725562 0.0
v -0.19566624349687586 -0.7628506708485796 0.0
v -0.19566624349687586 -0.7395016553406516 0.0
v -0.19566624349687586 -0.7278271475866875 0.0
v -0.19566624349687586 -0.7103153859557413 0.0
v -0.19566624349687586 -0.6869663704478133 0.0
v -0.19566624349687586 -0.6752918626938493 0.0
v -0.19566624349687586 -0.657780101062903 0.0
v -0.19566624349687586 -0.6461055933089389 0.0
v -0.19566624349687586 -0.6402683394319567 0.0
v -0.19566624349687586 -0.6285938316779927 0.0
v -0.19566624349687586 -0.6052448161700645 0.0
v -0.19566624349687586 -0.5643840390311902 0.0
v -0.19566624349687586 -0.5527095312772256 0.0
v -0.20734075125083984 -0.5118487541383513 0.0
v -0.20734075125083984 -0.4884997386304233 0.0
v -0.20734075125083984 -0.46515072312249467 0.0
v -0.20734075125083984 -0.44763896149154886 0.0
v -0.20734075125083984 -0.4242899459836203 0.0
v -0.20734075125083984 -0.4067781843526746 0.0
v -0.20734075125083984 -0.38342916884474604 0.0
v -0.20734075125083984 -0.37759191496776423 0.0
v -0.20734075125083984 -0.3717546610907819 0.0
v -0.20734075125083984 -0.360080153336818 0.0
v -0.20734075125083984 -0.35424289945983567 0.0
v -0.20734075125083984 -0.3308938839519076 0.0
v -0.20734075125083984 -0.3192193761979437 0.0
v -0.20734075125083984 -0.3192193761979437 0.0
v -0.21317800512782217 -0.29587036069001565 0.0
v -0.21317800512782217 -0.28419585293605104 0.0
v -0.21317800512782217 -0.26668409130510534 0.0
v -0.21317800512782217 -0.25500958355114134 0.0
v -0.21317800512782217 -0.25500958355114134 0.0
v -0.21317800512782217 -0.2433350757971767 0.0
v -0.21317800512782217 -0.2316605680432127 0.0
v -0.20734075125083984 -0.20247429865830235 0.0
v -0.20734075125083984 -0.19663704478132066 0.0
v -0.20150349737385817 -0.19079979090433835 0.0
v -0.20150349737385817 -0.16745077539641035 0.0
v -0.20150349737385817 -0.15577626764244631 0.0
v -0.20150349737385817 -0.14993901376546398 0.0
v -0.20150349737385817 -0.13826450601149998 0.0
v -0.19566624349687586 -0.1324272521345177 0.0
v -0.18982898961989414 -0.12075274438055371 0.0
v -0.18982898961989414 -0.1032409827496074 0.0
v -0.18399173574291183 -0.09156647499564338 0.0
v -0.18399173574291183 -0.08572922111866167 0.0
v -0.18399173574291183 -0.07989196724167937 0.0
v -0.17815448186592955 -0.056542951733751366 0.0
v -0.17815448186592955 -0.050705697856769066 0.0
v -0.17231722798894783 -0.04486844397978736 0.0
v -0.16647997411196552 -0.033193936225823346 0.0
v -0.16647997411196552 -0.015682174594877033 0.0
v -0.16647997411196552 -0.009844920717894728 0.0
v -0.1548054663580015 0.013504094790033288 0.0
v -0.1548054663580015 0.019341348667015593 0.0
v -0.1489682124810198 0.05436487192890762 0.0
v -0.1489682124810198 0.07187663355985394 0.0
v -0.14313095860403754 0.08355114131381795 0.0
v -0.13145645085007346 0.12441191845269227 0.0
v -0.13145645085007346 0.13608642620665629 0.0
v -0.12561919697309118 0.1419236800836386 0.0
v -0.11978194309610948 0.1652726955915666 0.0
v -0.11978194309610948 0.18862171109949522 0.0
v -0.10810743534214487 0.20613347273044094 0.0
v -0.10227018146516316 0.22948248823836953 0.0
v -0.10227018146516316 0.23531974211535125 0.0
v -0.08475841983421685 0.2936922808851719 0.0
v -0.08475841983421685 0.2995295347621542 0.0
v -0.08475841983421685 0.31120404251611816 0.0
v -0.07308391208025283 0.32287855027008217 0.0
v -0.07308391208025283 0.3345530580240462 0.0
v -0.06724665820327114 0.34039031190102853 0.0
v -0.06140940432628883 0.3462275657780102 0.0
v -0.06140940432628883 0.35206481965499253 0.0
v -0.06140940432628883 0.35790207353197423 0.0
v -0.06140940432628883 0.3695765812859382 0.0
v -0.05557215044930713 0.3695765812859382 0.0
v -0.04973489657232482 0.38125108903990285 0.0
v -0.04389764269534253 0.3870883429168846 0.0
v -0.03222313494137852 0.39876285067084855 0.0
v -0.026385881064396814 0.40460010454783085 0.0
v -0.020548627187414507 0.4162746123017949 0.0
v -0.008874119433450501 0.42211186617877716 0.0
v -0.0030368655564681963 0.42211186617877716 0.0
v 0.002800388320513509 0.42794912005575886 0.0
v 0.014474896074477517 0.4337863739327412 0.0
v 0.014474896074477517 0.43962362780972297 0.0
v 0.02031214995145982 0.43962362780972297 0.0
v 0.031986657705423825 0.44546088168670517 0.0
v 0.03782391158240614 0.44546088168670517 0.0
v 0.04366116545938784 0.44546088168670517 0.0
v 0.04949841933637014 0.44546088168670517 0.0
v 0.05533567321335185 0.44546088168670517 0.0
v 0.05533567321335185 0.43962362780972297 0.0
v 0.07284743484429816 0.4337863739327412 0.0
v 0.07284743484429816 0.42794912005575886 0.0
v 0.09035919647524446 0.42211186617877716 0.0
v 0.09619645035222676 0.42211186617877716 0.0
v 0.10203370422920847 0.4162746123017949 0.0
v 0.11954546586015477 0.40460010454783085 0.0
v 0.1253827197371365 0.39876285067084855 0.0
v 0.1312199736141188 0.39876285067084855 0.0
v 0.14289448136808278 0.3754138351629205 0.0
v 0.14873173524506508 0.3695765812859382 0.0
v 0.1604062429990291 0.35206481965499253 0.0
v 0.1720807507529931 0.3345530580240462 0.0
v 0.17791800462997542 0.31120404251611816 0.0
v 0.1895925123839394 0.2936922808851719 0.0
v 0.20126702013790343 0.26450601150026154 0.0
v 0.2071042740148857 0.25283150374629754 0.0
v 0.21877878176884974 0.23531974211535125 0.0
v 0.2246160356458314 0.21197072660742322 0.0
v 0.23629054339979544 0.1711099494685489 0.0
v 0.24212779727677775 0.1594354417145849 0.0
v 0.2538023050307418 0.1302491723296746 0.0
v 0.2654768127847058 0.08938839519080025 0.0
v 0.28298857441565206 0.019341348667015593 0.0
v 0.28882582829263437 0.013504094790033288 0.0
v 0.30633758992358007 -0.050705697856769066 0.0
v 0.3121748438005624 -0.06238020561073307 0.0
v 0.32968660543150874 -0.12658999825753597 0.0
v 0.32968660543150874 -0.14993901376546398 0.0
v 0.3413611131854728 -0.19079979090433835 0.0
v 0.3530356209394367 -0.2316605680432127 0.0
v 0.36471012869340075 -0.27835859905906934 0.0
v 0.37054738257038305 -0.29587036069001565 0.0
v 0.3763846364473647 -0.32505663007492597 0.0
v 0.382221890324347 -0.348405645582854 0.0
v 0.38805914420132936 -0.360080153336818 0.0
v 0.38805914420132936 -0.37759191496776423 0.0
v 0.39389639807831106 -0.4009409304756923 0.0
v 0.39973365195529337 -0.4067781843526746 0.0
v 0.40557090583227506 -0.4242899459836203 0.0
v 0.41140815970925737 -0.45347621536853067 0.0
v 0.41140815970925737 -0.46515072312249467 0.0
v 0.41140815970925737 -0.494336992507405 0.0
v 0.4172454135862391 -0.5060115002613695 0.0
v 0.42308266746322143 -0.5176860080153336 0.0
v 0.4289199213402036 -0.5235232618923152 0.0
v 0.4289199213402036 -0.5410350235232616 0.0
v 0.4347571752171854 -0.5585467851542079 0.0
v 0.44059442909416774 -0.5760585467851543 0.0
v 0.4464316829711493 -0.5935703084160999 0.0
v 0.4464316829711493 -0.6052448161700645 0.0
v 0.45226893684813163 -0.6169193239240286 0.0
v 0.45226893684813163 -0.6285938316779927 0.0
v 0.45226893684813163 -0.6285938316779927 0.0
v 0.45810619072511405 -0.6402683394319567 0.0
v 0.4639434446020957 -0.669454608816867 0.0
v 0.4639434446020957 -0.6928036243247949 0.0
v 0.481455206233042 -0.7336644014636693 0.0
v 0.481455206233042 -0.7395016553406516 0.0
v 0.481455206233042 -0.7453389092176339 0.0
v 0.481455206233042 -0.7511761630946155 0.0
v 0.48729246011002375 -0.768687924725562 0.0
v 0.48729246011002375 -0.7745251786025437 0.0
v 0.49896696786398825 -0.7861996863565082 0.0
v 0.49896696786398825 -0.7920369402334899 0.0
v 0.5048042217409701 -0.803711447987454 0.0
v 0.5106414756179524 -0.8212232096184003 0.0
v 0.5106414756179524 -0.8328977173723643 0.0
v 0.5164787294949341 -0.8387349712493466 0.0
v 0.5223159833719164 -0.8445722251263282 0.0
v 0.5223159833719164 -0.8504094790033105 0.0
v 0.5281532372488981 -0.8562467328802928 0.0
v 0.5339904911258805 -0.8679212406342569 0.0
v 0.5339904911258805 -0.8737584945112385 0.0
v 0.5398277450028628 -0.8737584945112385 0.0
v 0.5456649988798444 -0.8737584945112385 0.0
v 0.5456649988798444 -0.8795957483882209 0.0
v 0.5515022527568267 -0.8795957483882209 0.0
v 0.5573395066338084 -0.8795957483882209 0.0
v 0.5573395066338084 -0.8795957483882209 0.0
v 0.5631767605107907 -0.8737584945112385 0.0
v 0.5690140143877731 -0.8737584945112385 0.0
v 0.5748512682647549 -0.8679212406342569 0.0
v 0.580688522141737 -0.8679212406342569 0.0
v 0.5865257760187189 -0.8620839867572746 0.0
v 0.5865257760187189 -0.8504094790033105 0.0
v 0.5865257760187189 -0.8445722251263282 0.0
v 0.592363029895701 -0.8387349712493466 0.0
v 0.592363029895701 -0.8212232096184003 0.0
v 0.5982002837726829 -0.8095487018644363 0.0
v 0.6040375376496652 -0.7978741941104721 0.0
v 0.6040375376496652 -0.7803624324795259 0.0
v 0.6098747915266476 -0.7628506708485796 0.0
v 0.6098747915266476 -0.7511761630946155 0.0
v 0.6098747915266476 -0.7453389092176339 0.0
v 0.6098747915266476 -0.7395016553406516 0.0
v 0.6098747915266476 -0.6928036243247949 0.0
v 0.6157120454036292 -0.6402683394319567 0.0
v 0.6157120454036292 -0.6344310855549748 0.0
v 0.6157120454036292 -0.6110820700470463 0.0
v 0.6157120454036292 -0.5994075622930822 0.0
v 0.6157120454036292 -0.5351977696462793 0.0
v 0.6157120454036292 -0.5060115002613695 0.0
v 0.6157120454036292 -0.4593134692455129 0.0
v 0.6157120454036292 -0.3951036765987106 0.0
v 0.6157120454036292 -0.28419585293605104 0.0
v 0.6157120454036292 -0.21998606028924866 0.0
v 0.6157120454036292 -0.173288029273392 0.0
v 0.6157120454036292 -0.1324272521345177 0.0
v 0.6157120454036292 -0.12075274438055371 0.0
v 0.6157120454036292 -0.09156647499564338 0.0
v 0.6157120454036292 -0.056542951733751366 0.0
v 0.6157120454036292 -0.04486844397978736 0.0
v 0.6157120454036292 -0.033193936225823346 0.0
v 0.6157120454036292 -0.02735668234884104 0.0
v 0.6157120454036292 -0.015682174594877033 0.0
v 0.6157120454036292 0.00182958703606928 0.0
v 0.6157120454036292 0.019341348667015593 0.0
v 0.6157120454036292 0.04269036417494361 0.0
v 0.6157120454036292 0.07187663355985394 0.0
v 0.6157120454036292 0.08355114131381795 0.0
v 0.6157120454036292 0.10106290294476425 0.0
v 0.6157120454036292 0.11273741069872827 0.0
v 0.6157120454036292 0.1302491723296746 0.0
v 0.6157120454036292 0.1594354417145849 0.0
v 0.6157120454036292 0.18278445722251294 0.0
v 0.6157120454036292 0.20613347273044094 0.0
v 0.6157120454036292 0.21197072660742322 0.0
v 0.6040375376496652 0.24115699599233353 0.0
v 0.5982002837726829 0.2761805192542256 0.0
v 0.5865257760187189 0.30536678863913586 0.0
v 0.580688522141737 0.32287855027008217 0.0
v 0.5748512682647549 0.3637393274089566 0.0
v 0.5690140143877731 0.38125108903990285 0.0
v 0.5690140143877731 0.3870883429168846 0.0
v 0.5631767605107907 0.39876285067084855 0.0
v 0.5631767605107907 0.41043735842481316 0.0
v 0.5515022527568267 0.4162746123017949 0.0
v 0.5515022527568267 0.42211186617877716 0.0
v 0.5456649988798444 0.43962362780972297 0.0
v 0.5398277450028628 0.46297264331765153 0.0
v 0.5223159833719164 0.48048440494859784 0.0
v 0.5164787294949341 0.4921589127025618 0.0
v 0.5106414756179524 0.5096706743335075 0.0
v 0.5048042217409701 0.5213451820874722 0.0
v 0.49312971398700606 0.5271824359644539 0.0
v 0.48729246011002375 0.5388569437184179 0.0
v 0.481455206233042 0.5505314514723819 0.0
v 0.469780698479078 0.5622059592263465 0.0
v 0.45810619072511405 0.5738804669803104 0.0
v 0.4464316829711493 0.5855549747342744 0.0
v 0.44059442909416774 0.5972294824882385 0.0
v 0.4289199213402036 0.6089039902422024 0.0
v 0.41140815970925737 0.6205784979961664 0.0
v 0.39389639807831106 0.6322530057501311 0.0
v 0.3763846364473647 0.6497647673810768 0.0
v 0.35887287481641905 0.6614392751350409 0.0
v 0.3413611131854728 0.6731137828890055 0.0
v 0.32968660543150874 0.6789510367659871 0.0
v 0.3121748438005624 0.6906255445199511 0.0
v 0.30633758992358007 0.6964627983969334 0.0
v 0.28298857441565206 0.7081373061508974 0.0
v 0.2654768127847058 0.7198118139048614 0.0
v 0.2538023050307418 0.7314863216588254 0.0
v 0.24796505115376005 0.7314863216588254 0.0
v 0.21877878176884974 0.7489980832897717 0.0
v 0.19542976626092115 0.7606725910437356 0.0
v 0.17791800462997542 0.766509844920718 0.0
v 0.1662434968760114 0.7723470987977004 0.0
v 0.15456898912204678 0.7723470987977004 0.0
v 0.14873173524506508 0.778184352674682 0.0
v 0.13705722749110108 0.778184352674682 0.0
v 0.1312199736141188 0.778184352674682 0.0
v 0.10787095810619077 0.7840216065516642 0.0
v 0.10203370422920847 0.7840216065516642 0.0
v 0.09035919647524446 0.7898588604286462 0.0
v 0.03782391158240614 0.7898588604286462 0.0
v 0.026149403828442122 0.7898588604286462 0.0
v 0.014474896074477517 0.7898588604286462 0.0
v -0.0030368655564681963 0.7898588604286462 0.0
v -0.014711373310432204 0.7898588604286462 0.0
v -0.026385881064396814 0.7840216065516642 0.0
v -0.03806038881836082 0.7840216065516642 0.0
v -0.04389764269534253 0.7840216065516642 0.0
v -0.04973489657232482 0.778184352674682 0.0
v -0.05557215044930713 0.778184352674682 0.0
v -0.06140940432628883 0.778184352674682 0.0
v -0.06140940432628883 0.778184352674682 0.0
v -0.06724665820327114 0.778184352674682 0.0
v -0.07892116595723515 0.7723470987977004 0.0
v -0.09059567371119916 0.766509844920718 0.0
v -0.10227018146516316 0.766509844920718 0.0
v -0.10810743534214487 0.7606725910437356 0.0
v -0.11394468921912719 0.754835337166754 0.0
v -0.12561919697309118 0.7489980832897717 0.0
v -0.1372937047270552 0.7373235755358077 0.0
v -0.14313095860403754 0.7314863216588254 0.0
v -0.1548054663580015 0.7198118139048614 0.0
v -0.16064272023498383 0.7139745600278797 0.0
v -0.16647997411196552 0.7081373061508974 0.0
v -0.17231722798894783 0.6964627983969334 0.0
v -0.17815448186592955 0.6847882906429694 0.0
v -0.18399173574291183 0.6789510367659871 0.0
v -0.18982898961989414 0.6731137828890055 0.0
v -0.19566624349687586 0.6614392751350409 0.0
v -0.19566624349687586 0.655602021258059 0.0
v -0.20734075125083984 0.6497647673810768 0.0
v -0.21317800512782217 0.6439275135040949 0.0
v -0.21901525900480445 0.6380902596271126 0.0
v -0.21901525900480445 0.6322530057501311 0.0
v -0.22485251288178618 0.6322530057501311 0.0
v -0.23068976675876846 0.6322530057501311 0.0
v -0.2365270206357502 0.6322530057501311 0.0
v -0.2365270206357502 0.6380902596271126 0.0
v -0.24236427451273249 0.6439275135040949 0.0
v -0.24820152838971415 0.655602021258059 0.0
v -0.24820152838971415 0.6672765290120232 0.0
v -0.2540387822666965 0.6847882906429694 0.0
v -0.2540387822666965 0.6964627983969334 0.0
v -0.25987603614367877 0.7081373061508974 0.0
v -0.26571329002066046 0.7198118139048614 0.0
v -0.26571329002066046 0.7256490677818437 0.0
v -0.27155054389764277 0.7314863216588254 0.0
v -0.27155054389764277 0.7373235755358077 0.0
v -0.2773877977746245 0.754835337166754 0.0
v -0.2773877977746245 0.7606725910437356 0.0
v -0.2832250516516068 0.7840216065516642 0.0
v -0.2890623055285886 0.7898588604286462 0.0
v -0.29489955940557083 0.8015333681826101 0.0
v -0.3007368132825531 0.8132078759365746 0.0
v -0.3007368132825531 0.8248823836905388 0.0
v -0.3124113210365172 0.8365568914445028 0.0
v -0.3182485749134988 0.8423941453214844 0.0
v -0.32408582879048115 0.854068653075449 0.0
v -0.32992308266746345 0.8599059069524307 0.0
v -0.32992308266746345 0.865743160829413 0.0
v -0.33576033654444515 0.877417668583377 0.0
v -0.34743484429840915 0.8949294302143234 0.0
v -0.3591093520523732 0.912441191845269 0.0
v -0.3707838598063377 0.9182784457222513 0.0
v -0.37662111368331946 0.9299529534762154 0.0
v -0.3824583675603018 0.9416274612301794 0.0
v -0.3941328753142658 0.9474647151071617 0.0
v -0.3999701291912475 0.9533019689841435 0.0
v -0.41164463694521214 0.9591392228611257 0.0
v -0.4174818908221937 0.964976476738108 0.0
v -0.43499365245314014 0.9708137306150897 0.0
v -0.4408309063301224 0.9824882383690537 0.0
v -0.45250541408408645 0.988325492246036 0.0
v -0.4583426679610681 0.988325492246036 0.0
v -0.4641799218380504 0.9941627461230184 0.0
v -0.47001717571503215 0.9941627461230184 0.0
v -0.48169168346899677 1.0 0.0
v -0.4875289373459784 1.0 0.0
v -0.4875289373459784 1.0 0.0
v -0.4933661912229607 1.0 0.0
v -0.5050406989769247 1.0 0.0
v -0.510877952853907 1.0 0.0
v -0.5167152067308888 1.0 0.0
v -0.5167152067308888 1.0 0.0
v -0.5225524606078711 1.0 0.0
v -0.5283897144848527 1.0 0.0
v -0.534226968361835 1.0 0.0
v -0.5400642222388168 0.9941627461230184 0.0
v -0.5400642222388168 0.988325492246036 0.0
v -0.5459014761157991 0.9824882383690537 0.0
l 1 2
l 2 3
l 3 4
l 4 5
l 5 6
l 6 7
l 7 8
l 8 9
l 9 10
l 10 11
l 11 12
l 12 13
l 13 14
l 14 15
l 15 16
l 16 17
l 17 18
l 18 19
l 19 20
l 20 21
l 21 22
l 22 23
l 23 24
l 24 25
l 25 26
l 26 27
l 27 28
l 28 29
l 29 30
l 30 31
l 31 32
l 32 33
l 33 34
l 34 35
l 35 36
l 36 37
l 37 38
l 38 39
l 39 40
l 40 41
l 41 42
l 42 43
l 43 44
l 44 45
l 45 46
l 46 47
l 47 48
l 48 49
l 49 50
l 50 51
l 51 52
l 52 53
l 53 54
l 54 55
l 55 56
l 56 57
l 57 58
l 58 59
l 59 60
l 60 61
l 61 62
l 62 63
l 63 64
l 64 65
l 65 66
l 66 67
l 67 68
l 68 69
l 69 70
l 70 71
l 71 72
l 72 73
l 73 74
l 74 75
l 75 76
l 76 77
l 77 78
l 78 79
l 79 80
l 80 81
l 81 82
l 82 83
l 83 84
l 84 85
l 85 86
l 86 87
l 87 88
l 88 89
l 89 90
l 90 91
l 91 92
l 92 93
l 93 94
l 94 95
l 95 96
l 96 97
l 97 98
l 98 99
l 99 100
l 100 101
l 101 102
l 102 103
l 103 104
l 104 105
l 105 106
l 106 107
l 107 108
l 108 109
l 109 110
l 110 111
l 111 112
l 112 113
l 113 114
l 114 115
l 115 116
l 116 117
l 117 118
l 118 119
l 119 120
l 120 121
l 121 122
l 122 123
l 123 124
l 124 125
l 125 126
l 126 127
l 127 128
l 128 129
l 129 130
l 130 131
l 131 132
l 132 133
l 133 134
l 134 135
l 135 136
l 136 137
l 137 138
l 138 139
l 139 140
l 140 141
l 141 142
l 142 143
l 143 144
l 144 145
l 145 146
l 146 147
l 147 148
l 148 149
l 149 150
l 150 151
l 151 152
l 152 153
l 153 154
l 154 155
l 155 156
l 156 157
l 157 158
l 158 159
l 159 160
l 160 161
l 161 162
l 162 163
l 163 164
l 164 165
l 165 166
l 166 167
l 167 168
l 168 169
l 169 170
l 170 171
l 171 172
l 172 173
l 173 174
l 174 175
l 175 176
l 176 177
l 177 178
l 178 179
l 179 180
l 180 181
l 181 182
l 182 183
l 183 184
l 184 185
l 185 186
l 186 187
l 187 188
l 188 189
l 189 190
l 190 191
l 191 192
l 192 193
l 193 194
l 194 195
l 195 196
l 196 197
l 197 198
l 198 199
l 199 200
l 200 201
l 201 202
l 202 203
l 203 204
l 204 205
l 205 206
l 206 207
l 207 208
l 208 209
l 209 210
l 210 211
l 211 212
l 212 213
l 213 214
l 214 215
l 215 216
l 216 217
l 217 218
l 218 219
l 219 220
l 220 221
l 221 222
l 222 223
l 223 224
l 224 225
l 225 226
l 226 227
l 227 228
l 228 229
l 229 230
l 230 231
l 231 232
l 232 233
l 233 234
l 234 235
l 235 236
l 236 237
l 237 238
l 238 239
l 239 240
l 240 241
l 241 242
l 242 243
l 243 244
l 244 245
l 245 246
l 246 247
l 247 248
l 248 249
l 249 250
l 250 251
l 251 252
l 252 253
l 253 254
l 254 255
l 255 256
l 256 257
l 257 258
l 258 259
l 259 260
l 260 261
l 261 262
l 262 263
l 263 264
l 264 265
l 265 266
l 266 267
l 267 268
l 268 269
l 269 270
l 270 271
l 271 272
l 272 273
l 273 274
l 274 275
l 275 276
l 276 277
l 277 278
l 278 279
l 279 280
l 280 281
l 281 282
l 282 283
l 283 284
l 284 285
l 285 286
l 286 287
l 287 288
l 288 289
l 289 290
l 290 291
l 291 292
l 292 293
l 293 294
l 294 295
l 295 296
l 296 297
l 297 298
l 298 299
l 299 300
l 300 301
l 301 302
l 302 303
l 303 304
l 304 305
l 305 306
l 306 307
l 307 308
l 308 309
l 309 310
l 310 311
l 311 312
l 312 313
l 313 314
l 314 315
l 315 316
l 316 317
l 317 318
l 318 319
l 319 320
l 320 321
l 321 322
l 322 323
l 323 324
l 324 325
l 325 326
l 326 327
l 327 328
l 328 329
l 329 330
l 330 331
l 331 332
l 332 333
l 333 334
l 334 335
l 335 336
l 336 337
l 337 338
l 338 339
l 339 340
l 340 341
l 341 342
l 342 343
l 343 344
l 344 345
l 345 346
l 346 347
l 347 348
l 348 349
l 349 350
l 350 351
l 351 352
l 352 353
l 353 354
l 354 355
l 355 356
l 356 357
l 357 358
l 358 359
l 359 360
l 360 361
l 361 362
l 362 363
l 363 364
l 364 365
l 365 366
l 366 367
l 367 368
l 368 369
l 369 370
l 370 371
l 371 372
l 372 373
l 373 374
l 374 375
l 375 376
l 376 377
l 377 378
l 378 379
l 379 380
l 380 381
l 381 382
l 382 383
l 383 384
l 384 385
l 385 386
l 386 387
l 387 388
l 388 389
l 389 390
l 390 391
l 391 392
l 392 393
l 393 394
l 394 395
l 395 396
l 396 397
l 397 398
l 398 399
l 399 400
l 400 401
l 401 402
l 402 403
l 403 404
l 404 405
l 405 406
l 406 407
l 407 408
l 408 409
l 409 410
l 410 411
l 411 412
l 412 413
l 413 414
l 414 415
l 415 416
l 416 417
l 417 418
l 418 419
l 419 420
l 420 421
l 421 422
l 422 423
l 423 424
l 424 425
l 425 426
l 426 427
l 427 428
l 428 429
l 429 430
l 430 431
l 431 432
l 432 433
l 433 434
l 434 435
l 435 436
l 436 437
l 437 438
l 438 439
l 439 440
l 440 441
l 441 442
l 442 443
l 443 444
l 444 445
l 445 446
l 446 447
l 447 448
l 448 449
l 449 450
l 450 451
l 451 452
l 452 453
l 453 454
l 454 455
l 455 456
l 456 457
l 457 458
l 458 459
l 459 460
l 460 461
l 461 462
l 462 463
l 463 464
l 464 465
l 465 466
l 466 467
l 467 468
l 468 469
l 469 1
