v -0.48449518257630936 0.6551696218929636 0.0
v -0.4768034976924947 0.6628613067767788 0.0
v -0.46911181280867925 0.6936280463120389 0.0
v -0.46142012792486464 0.709011416079669 0.0
v -0.46142012792486464 0.7167031009634844 0.0
v -0.45372844304104926 0.7320864707311145 0.0
v -0.4460367581572338 0.7397781556149299 0.0
v -0.4383450732734192 0.7628532102663753 0.0
v -0.4306533883896038 0.7705448951501899 0.0
v -0.4306533883896038 0.7782365800340052 0.0
v -0.4229617035057892 0.7782365800340052 0.0
v -0.4229617035057892 0.7859282649178199 0.0
v -0.4152700186219738 0.7936199498016352 0.0
v -0.4152700186219738 0.80131163468545 0.0
v -0.40757833373815916 0.80131163468545 0.0
v -0.40757833373815916 0.80131163468545 0.0
v -0.39988664885434383 0.8090033195692653 0.0
v -0.39219496397052833 0.8166950044530807 0.0
v -0.37681159420289834 0.8243866893368954 0.0
v -0.3691199093190837 0.8243866893368954 0.0
v -0.3614282244352683 0.8320783742207107 0.0
v -0.3460448546676383 0.8320783742207107 0.0
v -0.33835316978382285 0.8397700591045254 0.0
v -0.32296980001619285 0.8474617439883408 0.0
v -0.2691280058294874 0.8628451137559708 0.0
v -0.2537446360618575 0.8628451137559708 0.0
v -0.2229778965265974 0.8628451137559708 0.0
v -0.215286211642782 0.8705367986397863 0.0
v -0.18451947210752198 0.8705367986397863 0.0
v -0.17682778722370657 0.8705367986397863 0.0
v -0.14606104768844652 0.8705367986397863 0.0
v -0.08452756861792558 0.8705367986397863 0.0
v -0.06145251396648017 0.8782284835236008 0.0
v -0.046069144198850144 0.8782284835236008 0.0
v -0.02299408954740552 0.8782284835236008 0.0
v 0.007772649987855315 0.8782284835236008 0.0
v 0.03853938952311536 0.8782284835236008 0.0
v 0.061614444174560794 0.8782284835236008 0.0
v 0.09238118370982085 0.8782284835236008 0.0
v 0.20775645696704712 0.8782284835236008 0.0
v 0.269289936037568 0.8782284835236008 0.0
v 0.33082341510808816 0.8782284835236008 0.0
v 0.35389846975953354 0.8782284835236008 0.0
v 0.3692818395271636 0.8782284835236008 0.0
v 0.42312363371386913 0.8628451137559708 0.0
v 0.45389037324912906 0.8628451137559708 0.0
v 0.4692737430167599 0.8551534288721562 0.0
v 0.49234879766820455 0.8551534288721562 0.0
v 0.5077321674358354 0.8551534288721562 0.0
v 0.5308072220872802 0.8474617439883408 0.0
v 0.5461905918549101 0.8474617439883408 0.0
v 0.5615739616225407 0.8474617439883408 0.0
v 0.5692656465063554 0.8397700591045254 0.0
v 0.5846490162739855 0.8397700591045254 0.0
v 0.5923407011578008 0.8320783742207107 0.0
v 0.6000323860416154 0.8243866893368954 0.0
v 0.6077240709254309 0.8166950044530807 0.0
v 0.6154157558092462 0.8090033195692653 0.0
v 0.6231074406930609 0.8090033195692653 0.0
v 0.6307991255768763 0.80131163468545 0.0
v 0.6615658651121364 0.7782365800340052 0.0
v 0.6923326046473964 0.7628532102663753 0.0
v 0.6923326046473964 0.7474698404987444 0.0
v 0.7230993441826572 0.7320864707311145 0.0
v 0.7384827139502873 0.7013197311958544 0.0
v 0.7538660837179173 0.6936280463120389 0.0
v 0.7692494534855474 0.6782446765444089 0.0
v 0.7846328232531773 0.647477937009149 0.0
v 0.7923245081369927 0.6397862521253335 0.0
v 0.8153995627884381 0.6167111974738889 0.0
v 0.8230912476722527 0.6090195125900735 0.0
v 0.846166302323698 0.5782527730548134 0.0
v 0.8538579872075136 0.570561088170998 0.0
v 0.8615496720913282 0.5551777184033679 0.0
v 0.8615496720913282 0.5474860335195526 0.0
v 0.8692413569751436 0.539794348635738 0.0
v 0.8769330418589583 0.5321026637519227 0.0
v 0.8846247267427737 0.5167192939842927 0.0
v 0.892316411626589 0.5013359242166626 0.0
v 0.9000080965104037 0.47826086956521724 0.0
v 0.9076997813942191 0.4628774997975872 0.0
v 0.9153914662780337 0.4398024451461418 0.0
v 0.9153914662780337 0.4090357056108818 0.0
v 0.9230831511618491 0.39365233584325177 0.0
v 0.9307748360456637 0.3859606509594364 0.0
v 0.9384665209294791 0.35519391142417633 0.0
v 0.9384665209294791 0.34750222654036084 0.0
v 0.9461582058132944 0.31673548700510085 0.0
v 0.9538498906971091 0.2859687474698408 0.0
v 0.9692332604647392 0.26289369281839536 0.0
v 0.9769249453485546 0.2321269532831353 0.0
v 0.9769249453485546 0.22443526839931988 0.0
v 0.9769249453485546 0.162901789328799 0.0
v 0.9769249453485546 0.132135049793539 0.0
v 0.9846166302323692 0.12444336490972358 0.0
v 0.9846166302323692 0.09367662537446354 0.0
v 0.9846166302323692 0.03983483118775805 0.0
v 0.9846166302323692 0.009068091652498023 0.0
v 0.9846166302323692 -0.021698647882762805 0.0
v 1.0 -0.07554044206946826 0.0
v 1.0 -0.0909238118370983 0.0
v 1.0 -0.09861549672091291 0.0
v 1.0 -0.11399886648854372 0.0
v 1.0 -0.12938223625617373 0.0
v 1.0 -0.1524572909076184 0.0
v 1.0 -0.18322403044287927 0.0
v 1.0 -0.19091571532669388 0.0
v 1.0 -0.20629908509432465 0.0
v 1.0 -0.2370658246295847 0.0
v 1.0 -0.2909076188162901 0.0
v 1.0 -0.3139826734677355 0.0
v 1.0 -0.34474941300299555 0.0
v 0.9923083151161847 -0.3755161525382556 0.0
v 0.9923083151161847 -0.38320783742207104 0.0
v 0.9846166302323692 -0.4139745769573311 0.0
v 0.9846166302323692 -0.4216662618411465 0.0
v 0.9769249453485546 -0.4293579467249611 0.0
v 0.9769249453485546 -0.4447413164925919 0.0
v 0.9692332604647392 -0.4524330013764065 0.0
v 0.9692332604647392 -0.46781637114403657 0.0
v 0.9538498906971091 -0.49858311067929734 0.0
v 0.9461582058132944 -0.49858311067929734 0.0
v 0.9307748360456637 -0.5293498502145575 0.0
v 0.9230831511618491 -0.537041535098372 0.0
v 0.9153914662780337 -0.5447332199821876 0.0
v 0.9076997813942191 -0.5601165897498176 0.0
v 0.9000080965104037 -0.567808274633633 0.0
v 0.7692494534855474 -0.6524168083555985 0.0
v 0.7615577686017327 -0.6601084932394139 0.0
v 0.7461743988341019 -0.6678001781232286 0.0
v 0.7307910290664718 -0.6754918630070439 0.0
v 0.7077159744150273 -0.6908752327746739 0.0
v 0.6923326046473964 -0.6985669176584893 0.0
v 0.6769492348797663 -0.7062586025423039 0.0
v 0.6538741802283218 -0.7139502874261194 0.0
v 0.6231074406930609 -0.7293336571937493 0.0
v 0.6154157558092462 -0.7370253420775648 0.0
v 0.5846490162739855 -0.7447170269613794 0.0
v 0.5538822767387255 -0.7524087118451948 0.0
v 0.5538822767387255 -0.7601003967290094 0.0
v 0.5231155372034654 -0.7677920816128249 0.0
v 0.4615820581329445 -0.7985588211480849 0.0
v 0.438507003481499 -0.8062505060319003 0.0
v 0.42312363371386913 -0.8139421909157148 0.0
v 0.3692818395271636 -0.8447089304509757 0.0
v 0.3385150999919036 -0.8524006153347904 0.0
v 0.32313173022427355 -0.8524006153347904 0.0
v 0.3000566755728281 -0.8600923002186057 0.0
v 0.269289936037568 -0.8754756699862357 0.0
v 0.24621488138612257 -0.8831673548700512 0.0
v 0.21544814185086175 -0.8908590397538658 0.0
v 0.13083960812889625 -0.9139340944053113 0.0
v 0.11545623836126626 -0.9139340944053113 0.0
v 0.09238118370982085 -0.9216257792891258 0.0
v 0.07699781394219081 -0.9216257792891258 0.0
v 0.061614444174560794 -0.9216257792891258 0.0
v 0.05392275929074539 -0.9216257792891258 0.0
v 0.04623107440693077 -0.9216257792891258 0.0
v 0.03853938952311536 -0.9216257792891258 0.0
v 0.030847704639300737 -0.9293174641729411 0.0
v 0.023156019755485334 -0.9293174641729411 0.0
v -0.05376082908266555 -0.9293174641729411 0.0
v -0.07683588373411099 -0.9293174641729411 0.0
v -0.092219253501741 -0.9293174641729411 0.0
v -0.10760262326937102 -0.9293174641729411 0.0
v -0.11529430815318563 -0.9293174641729411 0.0
v -0.13067767792081644 -0.9216257792891258 0.0
v -0.13836936280463108 -0.9216257792891258 0.0
v -0.15375273257226113 -0.9139340944053113 0.0
v -0.16913610233989196 -0.9139340944053113 0.0
v -0.1922111569913366 -0.9139340944053113 0.0
v -0.19990284187515198 -0.9139340944053113 0.0
v -0.20759452675896659 -0.9062424095214957 0.0
v -0.2383612662942274 -0.8908590397538658 0.0
v -0.24605295117804205 -0.8908590397538658 0.0
v -0.2537446360618575 -0.8831673548700512 0.0
v -0.2614363209456721 -0.8754756699862357 0.0
v -0.27681969071330276 -0.8754756699862357 0.0
v -0.2845113755971174 -0.8754756699862357 0.0
v -0.2922030604809328 -0.8677839851024204 0.0
v -0.3075864302485628 -0.8600923002186057 0.0
v -0.3152781151323783 -0.8524006153347904 0.0
v -0.3460448546676383 -0.8370172455671603 0.0
v -0.3614282244352683 -0.8293255606833458 0.0
v -0.3691199093190837 -0.8139421909157148 0.0
v -0.39988664885434383 -0.8062505060319003 0.0
v -0.40757833373815916 -0.7908671362642703 0.0
v -0.4229617035057892 -0.7908671362642703 0.0
v -0.4383450732734192 -0.7754837664966395 0.0
v -0.4460367581572338 -0.7677920816128249 0.0
v -0.46142012792486464 -0.7601003967290094 0.0
v -0.46911181280867925 -0.7524087118451948 0.0
v -0.48449518257630936 -0.721641972309934 0.0
v -0.49987855234393935 -0.7139502874261194 0.0
v -0.5075702372277546 -0.7062586025423039 0.0
v -0.5306452918792002 -0.6831835478908584 0.0
v -0.5460286616468302 -0.6678001781232286 0.0
v -0.5460286616468302 -0.6601084932394139 0.0
v -0.5691037162982756 -0.6293417537041532 0.0
v -0.5767954011820903 -0.6216500688203384 0.0
v -0.5767954011820903 -0.6062666990527084 0.0
v -0.5921787709497204 -0.5908833292850785 0.0
v -0.6152538256011657 -0.5524249048660029 0.0
v -0.6306371953687957 -0.5447332199821876 0.0
v -0.6537122500202411 -0.5062747955631121 0.0
v -0.6537122500202411 -0.47550805602785196 0.0
v -0.6614039349040566 -0.46781637114403657 0.0
v -0.669095619787871 -0.4524330013764065 0.0
v -0.6767873046716866 -0.4293579467249611 0.0
v -0.6844789895555011 -0.4139745769573311 0.0
v -0.6998623593231319 -0.39859120718970104 0.0
v -0.7075540442069467 -0.38320783742207104 0.0
v -0.7152457290907619 -0.3601327827706256 0.0
v -0.7229374139745766 -0.352441097886811 0.0
v -0.7229374139745766 -0.33705772811918017 0.0
v -0.730629098858392 -0.3216743583515501 0.0
v -0.7383207837422067 -0.3062909885839202 0.0
v -0.7383207837422067 -0.2832159339324747 0.0
v -0.746012468626022 -0.26783256416484474 0.0
v -0.761395838393652 -0.20629908509432465 0.0
v -0.761395838393652 -0.17553234555906386 0.0
v -0.761395838393652 -0.1601489757914338 0.0
v -0.761395838393652 -0.13707392113998837 0.0
v -0.761395838393652 -0.12169055137235833 0.0
v -0.7690875232774674 -0.09861549672091291 0.0
v -0.7690875232774674 -0.08323212695328287 0.0
v -0.7690875232774674 -0.060157072301838255 0.0
v -0.7690875232774674 -0.05246538741802285 0.0
v -0.7690875232774674 -0.04477370253420745 0.0
v -0.7690875232774674 -0.029390332766577418 0.0
v -0.7690875232774674 -0.014006962998947402 0.0
v -0.7690875232774674 -0.006315278115131998 0.0
v -0.7690875232774674 0.009068091652498023 0.0
v -0.761395838393652 0.01675977653631264 0.0
v -0.761395838393652 0.03214314630394267 0.0
v -0.761395838393652 0.03983483118775805 0.0
v -0.761395838393652 0.04752651607157347 0.0
v -0.761395838393652 0.05521820095538809 0.0
v -0.761395838393652 0.06290988583920348 0.0
v -0.761395838393652 0.07060157072301812 0.0
v -0.761395838393652 0.0782932556068335 0.0
v -0.761395838393652 0.08598494049064892 0.0
v -0.761395838393652 0.09367662537446354 0.0
v -0.761395838393652 0.10136831025827894 0.0
v -0.761395838393652 0.10905999514209358 0.0
v -0.761395838393652 0.11675168002590897 0.0
v -0.7537041535098374 0.132135049793539 0.0
v -0.7537041535098374 0.13982673467735435 0.0
v -0.746012468626022 0.15521010444498437 0.0
v -0.746012468626022 0.162901789328799 0.0
v -0.746012468626022 0.17059347421261442 0.0
v -0.7383207837422067 0.17828515909642903 0.0
v -0.7383207837422067 0.1936685288640598 0.0
v -0.730629098858392 0.1936685288640598 0.0
v -0.730629098858392 0.1936685288640598 0.0
v -0.730629098858392 0.20136021374787444 0.0
v -0.730629098858392 0.2167435835155045 0.0
v -0.7229374139745766 0.22443526839931988 0.0
v -0.7229374139745766 0.2321269532831353 0.0
v -0.7229374139745766 0.23981863816694993 0.0
v -0.7229374139745766 0.2475103230507653 0.0
v -0.7152457290907619 0.26289369281839536 0.0
v -0.7152457290907619 0.26289369281839536 0.0
v -0.7075540442069467 0.27058537770221 0.0
v -0.7075540442069467 0.2782770625860254 0.0
v -0.7075540442069467 0.2936604323536554 0.0
v -0.7075540442069467 0.30135211723747085 0.0
v -0.7075540442069467 0.30904380212128546 0.0
v -0.7075540442069467 0.31673548700510085 0.0
v -0.7075540442069467 0.3321188567727309 0.0
v -0.7075540442069467 0.3321188567727309 0.0
v -0.7075540442069467 0.3398105416565463 0.0
v -0.6998623593231319 0.34750222654036084 0.0
v -0.6998623593231319 0.35519391142417633 0.0
v -0.6998623593231319 0.3628855963079909 0.0
v -0.6921706744393165 0.37057728119180633 0.0
v -0.6921706744393165 0.37057728119180633 0.0
v -0.6921706744393165 0.3782689660756217 0.0
v -0.6844789895555011 0.3859606509594364 0.0
v -0.6844789895555011 0.39365233584325177 0.0
v -0.6767873046716866 0.4013440207270664 0.0
v -0.6614039349040566 0.4013440207270664 0.0
v -0.6614039349040566 0.4090357056108818 0.0
v -0.6537122500202411 0.4167273904946964 0.0
v -0.6460205651364265 0.4244190753785118 0.0
l 1 2
l 2 3
l 3 4
l 4 5
l 5 6
l 6 7
l 7 8
l 8 9
l 9 10
l 10 11
l 11 12
l 12 13
l 13 14
l 14 15
l 15 16
l 16 17
l 17 18
l 18 19
l 19 20
l 20 21
l 21 22
l 22 23
l 23 24
l 24 25
l 25 26
l 26 27
l 27 28
l 28 29
l 29 30
l 30 31
l 31 32
l 32 33
l 33 34
l 34 35
l 35 36
l 36 37
l 37 38
l 38 39
l 39 40
l 40 41
l 41 42
l 42 43
l 43 44
l 44 45
l 45 46
l 46 47
l 47 48
l 48 49
l 49 50
l 50 51
l 51 52
l 52 53
l 53 54
l 54 55
l 55 56
l 56 57
l 57 58
l 58 59
l 59 60
l 60 61
l 61 62
l 62 63
l 63 64
l 64 65
l 65 66
l 66 67
l 67 68
l 68 69
l 69 70
l 70 71
l 71 72
l 72 73
l 73 74
l 74 75
l 75 76
l 76 77
l 77 78
l 78 79
l 79 80
l 80 81
l 81 82
l 82 83
l 83 84
l 84 85
l 85 86
l 86 87
l 87 88
l 88 89
l 89 90
l 90 91
l 91 92
l 92 93
l 93 94
l 94 95
l 95 96
l 96 97
l 97 98
l 98 99
l 99 100
l 100 101
l 101 102
l 102 103
l 103 104
l 104 105
l 105 106
l 106 107
l 107 108
l 108 109
l 109 110
l 110 111
l 111 112
l 112 113
l 113 114
l 114 115
l 115 116
l 116 117
l 117 118
l 118 119
l 119 120
l 120 121
l 121 122
l 122 123
l 123 124
l 124 125
l 125 126
l 126 127
l 127 128
l 128 129
l 129 130
l 130 131
l 131 132
l 132 133
l 133 134
l 134 135
l 135 136
l 136 137
l 137 138
l 138 139
l 139 140
l 140 141
l 141 142
l 142 143
l 143 144
l 144 145
l 145 146
l 146 147
l 147 148
l 148 149
l 149 150
l 150 151
l 151 152
l 152 153
l 153 154
l 154 155
l 155 156
l 156 157
l 157 158
l 158 159
l 159 160
l 160 161
l 161 162
l 162 163
l 163 164
l 164 165
l 165 166
l 166 167
l 167 168
l 168 169
l 169 170
l 170 171
l 171 172
l 172 173
l 173 174
l 174 175
l 175 176
l 176 177
l 177 178
l 178 179
l 179 180
l 180 181
l 181 182
l 182 183
l 183 184
l 184 185
l 185 186
l 186 187
l 187 188
l 188 189
l 189 190
l 190 191
l 191 192
l 192 193
l 193 194
l 194 195
l 195 196
l 196 197
l 197 198
l 198 199
l 199 200
l 200 201
l 201 202
l 202 203
l 203 204
l 204 205
l 205 206
l 206 207
l 207 208
l 208 209
l 209 210
l 210 211
l 211 212
l 212 213
l 213 214
l 214 215
l 215 216
l 216 217
l 217 218
l 218 219
l 219 220
l 220 221
l 221 222
l 222 223
l 223 224
l 224 225
l 225 226
l 226 227
l 227 228
l 228 229
l 229 230
l 230 231
l 231 232
l 232 233
l 233 234
l 234 235
l 235 236
l 236 237
l 237 238
l 238 239
l 239 240
l 240 241
l 241 242
l 242 243
l 243 244
l 244 245
l 245 246
l 246 247
l 247 248
l 248 249
l 249 250
l 250 251
l 251 252
l 252 253
l 253 254
l 254 255
l 255 256
l 256 257
l 257 258
l 258 259
l 259 260
l 260 261
l 261 262
l 262 263
l 263 264
l 264 265
l 265 266
l 266 267
l 267 268
l 268 269
l 269 270
l 270 271
l 271 272
l 272 273
l 273 274
l 274 275
l 275 276
l 276 277
l 277 278
l 278 279
l 279 280
l 280 281
l 281 282
l 282 283
l 283 284
l 284 285
l 285 1
