v 0.8559489248018126 6.84759132711049e-09 0.0
v 0.8751589865211397 0.010998094582369814 0.0
v 0.8937382138828878 0.0224669542257893 0.0
v 0.9112303861101375 0.034368924025158516 0.0
v 0.9272460464421044 0.04664751135144051 0.0
v 0.9414890365508065 0.05923338434172637 0.0
v 0.9537676238770886 0.0720486516438591 0.0
v 0.9639936456816958 0.08501713380353135 0.0
v 0.9721730936071018 0.0980643632642854 0.0
v 0.9783821471076142 0.11112699980568584 0.0
v 0.9827474866241036 0.12415026269654542 0.0
v 0.985418047269485 0.13708878664384963 0.0
v 0.9865367725142011 0.14990405394598239 0.0
v 0.9862234952077236 0.16256097069702677 0.0
v 0.9845569626511346 0.17502187514429154 0.0
v 0.9815662771078769 0.18724396984153663 0.0
v 0.9772274720080566 0.19917418595542433 0.0
v 0.9714695035909148 0.21074918326551922 0.0
v 0.9641853782408514 0.22189107041966444 0.0
v 0.9552509833637701 0.2325116846786053 0.0
v 0.9445456301612738 0.24251858355846329 0.0
v 0.9319785880473335 0.2518159007796606 0.0
v 0.9175121952692582 0.2603214652454163 0.0
v 0.9011849695286636 0.26797022483744526 0.0
v 0.8831287269599694 0.27472537375198114 0.0
v 0.8635702940282479 0.280591191733648 0.0
v 0.8428323634781496 0.28561133217761053 0.0
v 0.8213155194064817 0.28987566972097323 0.0
v 0.7994699909476898 0.29351430860030575 0.0
v 0.7777682619082646 0.29668987911132044 0.0
v 0.7566639852183512 0.2995846983750002 0.0
v 0.7365637366172302 0.3023870751548013 0.0
v 0.7177936326452511 0.3052767587249322 0.0
v 0.7005890592567348 0.30841209963648125 0.0
v 0.6850809766371755 0.3119206342792439 0.0
v 0.6713087584371144 0.31589394918817393 0.0
v 0.659226183414612 0.3203876810433834 0.0
v 0.6487296817497673 0.3254257964147669 0.0
v 0.6396763099721386 0.3310100072001739 0.0
v 0.6319128532241862 0.33712661821680767 0.0
v 0.6252963680354682 0.3437593664350969 0.0
v 0.6197113013011363 0.3509014042636432 0.0
v 0.6150814735668834 0.35856129119169466 0.0
v 0.6113794944671155 0.36677326517624326 0.0
v 0.6086190591846296 0.37559724264202515 0.0
v 0.6068540925016882 0.3851213863282949 0.0
v 0.6061667655150724 0.39545696959527676 0.0
v 0.6066443850151119 0.40672639313921743 0.0
v 0.6083665542518131 0.41905719334991237 0.0
v 0.6113794944671155 0.4325606435875858 0.0
v 0.615678925916395 0.44731720305116907 0.0
v 0.6211912369921186 0.4633593977998047 0.0
v 0.6277666366324461 0.4806581255700492 0.0
v 0.6351748745766059 0.49911580818447554 0.0
v 0.6431180805987666 0.5185603999091983 0.0
v 0.6512427477929855 0.5387548028920475 0.0
v 0.6591671229388006 0.5594097063964399 0.0
v 0.666507740917901 0.5802041295755752 0.0
v 0.6729119507732682 0.6008076761444796 0.0
v 0.6780784584833719 0.6209087806945255 0.0
v 0.6817804375831398 0.6402343955187008 0.0
v 0.6838740886532049 0.6585662536411812 0.0
v 0.6842977833709818 0.6757519961533519 0.0
v 0.6830669288171168 0.6917043162648833 0.0
v 0.6802551365991429 0.7063966795591063 0.0
v 0.6759822395665323 0.7198479169123669 0.0
v 0.6703843335983284 0.7321093852601529 0.0
v 0.6636043621649732 0.7432444248228997 0.0
v 0.6557690057073374 0.7533129520253434 0.0
v 0.6469801221474724 0.7623534845691002 0.0
v 0.637307899297212 0.7703728700455683 0.0
v 0.6267848632156985 0.7773377264466808 0.0
v 0.6154135817497064 0.783175298113829 0.0
v 0.6031709442782661 0.787775167635714 0.0
v 0.5900210009465359 0.7909978153375928 0.0
v 0.5759260900018244 0.7926934501576253 0.0
v 0.5608605329763877 0.7927191286253693 0.0
v 0.5448311774616241 0.790958441687052 0.0
v 0.5278816768526986 0.7873506169690123 0.0
v 0.5101061855313395 0.7819042139604984 0.0
v 0.49165021481476273 0.7747168108389376 0.0
v 0.4727080651088986 0.7659784282656359 0.0
v 0.4535142664191428 0.7559689615390035 0.0
v 0.4343247474740109 0.7450470532585323 0.0
v 0.4154014286444925 0.7336227029592025 0.0
v 0.3969933910677047 0.7221281648480389 0.0
v 0.37931376602592326 0.7109879895917434 0.0
v 0.3625286076105597 0.700585642308627 0.0
v 0.3467491891818383 0.6912361122030167 0.0
v 0.33202601172632235 0.6831739292803084 0.0
v 0.31835565144831257 0.6765411810620191 0.0
v 0.3056893192590953 0.6713943601771859 0.0
v 0.29394227621511526 0.6677180595451621 0.0
v 0.28301180844539614 0.6654412354051893 0.0
v 0.2727866425897137 0.6644628857841408 0.0
v 0.26316235287924206 0.664673449219642 0.0
v 0.254045640881178 0.6659770594321153 0.0
v 0.24536032714121403 0.6683095202522001 0.0
v 0.23705248687708763 0.6716511448546264 0.0
v 0.22908617023395716 0.6760293236049877 0.0
v 0.22143997848870262 0.6815228038043657 0.0
v 0.21410278430530144 0.6882497064043831 0.0
v 0.20706346034773132 0.6963572546201059 0.0
v 0.20030916738212023 0.705996951411224 0.0
v 0.19381251504287447 0.7173066045546304 0.0
v 0.18752899398590436 0.7303786565342035 0.0
v 0.18139440804184975 0.7452387858176879 0.0
v 0.1753205944714561 0.7618236521846479 0.0
v 0.16920483940374714 0.7799680574925967 0.0
v 0.16293158973387464 0.7994040897280714 0.0
v 0.15637930071451678 0.8197671146491066 0.0
v 0.14943413113867487 0.8406188864062035 0.0
v 0.1419985028289215 0.861476649805774 0.0
v 0.1339970922798742 0.8818490901649819 0.0
v 0.12538282230066874 0.9012731391155095 0.0
v 0.11614114175958357 0.9193482125605492 0.0
v 0.10628574583941551 0.9357610331936241 0.0
v 0.09585686413963022 0.9502950459367588 0.0
v 0.08491526903388864 0.9628415452765037 0.0
v 0.07353029238509974 0.9733825562854381 0.0
v 0.06178068149434527 0.9819762834904483 0.0
v 0.04974090391808297 0.9887331443028338 0.0
v 0.037482859365996206 0.9937892346016381 0.0
v 0.025069888058520326 0.9972823621637543 0.0
v 0.01255848262469223 0.9993272241451058 0.0
v 3.5829854613896254e-17 1.0 0.0
v -0.012558482624692158 0.9993272241451058 0.0
v -0.025069888058520253 0.9972823621637543 0.0
v -0.037482859365996136 0.9937892346016381 0.0
v -0.0497409039180829 0.9887331443028338 0.0
v -0.061780681494345194 0.9819762834904483 0.0
v -0.07353029238509967 0.9733825562854381 0.0
v -0.08491526903388859 0.9628415452765037 0.0
v -0.09585686413963017 0.9502950459367588 0.0
v -0.10628574583941545 0.9357610331936241 0.0
v -0.11614114175958352 0.9193482125605492 0.0
v -0.1253828223006687 0.9012731391155095 0.0
v -0.13399709227987414 0.8818490901649819 0.0
v -0.14199850282892146 0.861476649805774 0.0
v -0.1494341311386748 0.8406188864062035 0.0
v -0.15637930071451672 0.8197671146491066 0.0
v -0.1629315897338746 0.7994040897280714 0.0
v -0.16920483940374706 0.7799680574925967 0.0
v -0.17532059447145604 0.7618236521846479 0.0
v -0.18139440804184967 0.7452387858176879 0.0
v -0.1875289939859043 0.7303786565342035 0.0
v -0.1938125150428744 0.7173066045546304 0.0
v -0.20030916738212015 0.705996951411224 0.0
v -0.20706346034773124 0.6963572546201059 0.0
v -0.21410278430530133 0.6882497064043831 0.0
v -0.2214399784887025 0.6815228038043657 0.0
v -0.22908617023395705 0.6760293236049877 0.0
v -0.23705248687708752 0.6716511448546264 0.0
v -0.24536032714121392 0.6683095202522001 0.0
v -0.254045640881178 0.6659770594321153 0.0
v -0.26316235287924206 0.664673449219642 0.0
v -0.2727866425897137 0.6644628857841408 0.0
v -0.28301180844539614 0.6654412354051893 0.0
v -0.29394227621511526 0.6677180595451621 0.0
v -0.3056893192590953 0.6713943601771859 0.0
v -0.31835565144831257 0.6765411810620191 0.0
v -0.33202601172632235 0.6831739292803084 0.0
v -0.3467491891818383 0.6912361122030167 0.0
v -0.3625286076105597 0.700585642308627 0.0
v -0.37931376602592326 0.7109879895917434 0.0
v -0.3969933910677047 0.7221281648480389 0.0
v -0.4154014286444925 0.7336227029592025 0.0
v -0.4343247474740109 0.7450470532585323 0.0
v -0.4535142664191428 0.7559689615390035 0.0
v -0.4727080651088986 0.7659784282656359 0.0
v -0.49165021481476273 0.7747168108389376 0.0
v -0.5101061855313395 0.7819042139604984 0.0
v -0.5278816768526986 0.7873506169690123 0.0
v -0.5448311774616241 0.790958441687052 0.0
v -0.5608605329763877 0.7927191286253693 0.0
v -0.5759260900018244 0.7926934501576253 0.0
v -0.5900210009465359 0.7909978153375928 0.0
v -0.6031709442782661 0.787775167635714 0.0
v -0.6154135817497064 0.783175298113829 0.0
v -0.6267848632156985 0.7773377264466808 0.0
v -0.637307899297212 0.7703728700455683 0.0
v -0.6469801221474724 0.7623534845691002 0.0
v -0.6557690057073374 0.7533129520253434 0.0
v -0.6636043621649732 0.7432444248228997 0.0
v -0.6703843335983284 0.7321093852601529 0.0
v -0.6759822395665323 0.7198479169123669 0.0
v -0.6802551365991429 0.7063966795591063 0.0
v -0.6830669288171168 0.6917043162648833 0.0
v -0.6842977833709818 0.6757519961533519 0.0
v -0.6838740886532049 0.6585662536411812 0.0
v -0.6817804375831398 0.6402343955187008 0.0
v -0.6780784584833719 0.6209087806945255 0.0
v -0.6729119507732682 0.6008076761444796 0.0
v -0.666507740917901 0.5802041295755752 0.0
v -0.6591671229388006 0.5594097063964399 0.0
v -0.6512427477929855 0.5387548028920475 0.0
v -0.6431180805987666 0.5185603999091983 0.0
v -0.6351748745766059 0.49911580818447554 0.0
v -0.6277666366324461 0.4806581255700492 0.0
v -0.6211912369921186 0.4633593977998047 0.0
v -0.615678925916395 0.44731720305116907 0.0
v -0.6113794944671155 0.4325606435875858 0.0
v -0.6083665542518131 0.41905719334991237 0.0
v -0.6066443850151119 0.40672639313921743 0.0
v -0.6061667655150724 0.39545696959527676 0.0
v -0.6068540925016882 0.3851213863282949 0.0
v -0.6086190591846296 0.37559724264202515 0.0
v -0.6113794944671155 0.36677326517624326 0.0
v -0.6150814735668834 0.35856129119169466 0.0
v -0.6197113013011363 0.3509014042636432 0.0
v -0.6252963680354682 0.3437593664350969 0.0
v -0.6319128532241862 0.33712661821680767 0.0
v -0.6396763099721386 0.3310100072001739 0.0
v -0.6487296817497673 0.3254257964147669 0.0
v -0.659226183414612 0.3203876810433834 0.0
v -0.6713087584371144 0.31589394918817393 0.0
v -0.6850809766371755 0.3119206342792439 0.0
v -0.7005890592567348 0.30841209963648125 0.0
v -0.7177936326452511 0.3052767587249322 0.0
v -0.7365637366172302 0.3023870751548013 0.0
v -0.7566639852183512 0.2995846983750002 0.0
v -0.7777682619082646 0.29668987911132044 0.0
v -0.7994699909476898 0.29351430860030575 0.0
v -0.8213155194064817 0.28987566972097323 0.0
v -0.8428323634781496 0.28561133217761053 0.0
v -0.8635702940282479 0.280591191733648 0.0
v -0.8831287269599694 0.27472537375198114 0.0
v -0.9011849695286636 0.26797022483744526 0.0
v -0.9175121952692582 0.2603214652454163 0.0
v -0.9319785880473335 0.2518159007796606 0.0
v -0.9445456301612738 0.24251858355846329 0.0
v -0.9552509833637701 0.2325116846786053 0.0
v -0.9641853782408514 0.22189107041966444 0.0
v -0.9714695035909148 0.21074918326551922 0.0
v -0.9772274720080566 0.19917418595542433 0.0
v -0.9815662771078769 0.18724396984153663 0.0
v -0.9845569626511346 0.17502187514429154 0.0
v -0.9862234952077236 0.16256097069702677 0.0
v -0.9865367725142011 0.14990405394598239 0.0
v -0.985418047269485 0.13708878664384963 0.0
v -0.9827474866241036 0.12415026269654542 0.0
v -0.9783821471076142 0.11112699980568584 0.0
v -0.9721730936071018 0.0980643632642854 0.0
v -0.9639936456816958 0.08501713380353135 0.0
v -0.9537676238770886 0.0720486516438591 0.0
v -0.9414890365508065 0.05923338434172637 0.0
v -0.9272460464421044 0.04664751135144051 0.0
v -0.9112303861101375 0.034368924025158516 0.0
v -0.8937382138828878 0.0224669542257893 0.0
v -0.8751589865211397 0.010998094582369814 0.0
v -0.8559489248018126 6.84759132711049e-09 0.0
v -0.8366036231523668 -0.010513613795749338 0.0
v -0.8176186760002627 -0.020553038734749795 0.0
v -0.7994511600713442 -0.030152505926402125 0.0
v -0.7824896761774716 -0.03936508420404403 0.0
v -0.7670312385955507 -0.04825753758381006 0.0
v -0.7532667239358127 -0.05690262172430836 0.0
v -0.7412851508864369 -0.06537566013092153 0.0
v -0.7310813837538745 -0.07374512871763364 0.0
v -0.722579243083818 -0.08207179985810567 0.0
v -0.7156511924864722 -0.09040788643675052 0.0
v -0.7101508646956958 -0.09879447400195869 0.0
v -0.705934460292122 -0.10726665645964706 0.0
v -0.7028821464262789 -0.11585695986895803 0.0
v -0.7009160317460091 -0.12459962218688374 0.0
v -0.7000087258857192 -0.13353401706396506 0.0
v -0.7001841954153035 -0.1427089335889157 0.0
v -0.7015134840955207 -0.15218514413539655 0.0
v -0.7041044414908958 -0.1620379722087902 0.0
v -0.7080828920933746 -0.17235044485480244 0.0
v -0.7135695247013543 -0.18321329265946223 0.0
v -0.7206559258497884 -0.19471810215772342 0.0
v -0.7293806132402932 -0.2069444765995925 0.0
v -0.7397059251201776 -0.21995404430765525 0.0
v -0.7515017572528714 -0.23377933134105414 0.0
v -0.7645412831733023 -0.24841434605731552 0.0
v -0.7785026660857446 -0.2638120112655753 0.0
v -0.7929878897401658 -0.27987731663518056 0.0
v -0.8075458690531949 -0.2964793019806365 0.0
v -0.8217075440140409 -0.3134510572616068 0.0
v -0.8350175497947091 -0.3306068415614095 0.0
v -0.8470744463494674 -0.34775577826981385 0.0
v -0.857549549291192 -0.3647146943169121 0.0
v -0.8662108964612616 -0.38132267130484176 0.0
v -0.8729275276741814 -0.39744789309918316 0.0
v -0.877662637126185 -0.4129970612671328 0.0
v -0.8804633020081365 -0.4279102593839548 0.0
v -0.8814356599867114 -0.4421600970840553 0.0
v -0.8807226545323514 -0.4557440065206601 0.0
v -0.8784800683493708 -0.46867054718301704 0.0
v -0.8748517008571358 -0.4809534142539231 0.0
v -0.8699548170583445 -0.4925977434269269 0.0
v -0.8638664523562294 -0.5035898395192319 0.0
v -0.8566191328099324 -0.513894608624921 0.0
v -0.8481965953898826 -0.5234478545746339 0.0
v -0.8385483391095165 -0.532158846782342 0.0
v -0.8275956166677526 -0.5399145999899712 0.0
v -0.8152511212742608 -0.5465875778077262 0.0
v -0.8014369615768844 -0.5520493878968865 0.0
v -0.7861094841804583 -0.5561844771526041 0.0
v -0.769275536676381 -0.5589115304270227 0.0
v -0.7510095866211104 -0.560192885967451 0.0
v -0.7314639929232609 -0.5600559341394826 0.0
v -0.710870717741454 -0.5585965412226955 0.0
v -0.6895293431993705 -0.5559824732063509 0.0
v -0.6677967999986525 -0.5524499719936937 0.0
v -0.6460565532576114 -0.5482840685766833 0.0
v -0.6246937799924076 -0.5438040319042706 0.0
v -0.6040636990068344 -0.53933683446573 0.0
v -0.5844693162202713 -0.5351923297718396 0.0
v -0.5661391699956405 -0.531640141733912 0.0
v -0.5492213394969326 -0.5288968254299222 0.0
v -0.5337783089956584 -0.5271130278706353 0.0
v -0.5197980952068704 -0.5263717761017569 0.0
v -0.5072079424719605 -0.5266987485910312 0.0
v -0.4958931536350053 -0.5280725466153382 0.0
v -0.48571677686803655 -0.5304383894434904 0.0
v -0.4765401484452363 -0.5337303690082782 0.0
v -0.46823915577250835 -0.5378885688849653 0.0
v -0.4607136528256508 -0.5428701916273119 0.0
v -0.4538968755885292 -0.5486675336949945 0.0
v -0.4477588658487754 -0.5553105533003814 0.0
v -0.4422987676574647 -0.5628702942042311 0.0
v -0.4375431154312658 -0.5714554619199932 0.0
v -0.43353128282071973 -0.5812030082756362 0.0
v -0.4303026434763672 -0.5922610124351508 0.0
v -0.4278845877638021 -0.6047707059711294 0.0
v -0.4262754037851747 -0.6188450741416456 0.0
v -0.42543229409424493 -0.6345448893203604 0.0
v -0.42526538405390857 -0.6518581682223266 0.0
v -0.42563087424479895 -0.6706864767211921 0.0
v -0.4263370321077604 -0.6908372263088763 0.0
v -0.42715360738202135 -0.7120288097891196 0.0
v -0.42782723918584037 -0.7339017286135051 0.0
v -0.42809686309715295 -0.7560434154002785 0.0
v -0.4277202455702402 -0.778019904044565 0.0
v -0.4264833993739015 -0.7994040760328887 0.0
v -0.4242254061102744 -0.8198133221958632 0.0
v -0.420836704316984 -0.8389283735845372 0.0
v -0.41627107275209113 -0.8565155561424401 0.0
v -0.4105345030580694 -0.872431070450205 0.0
v -0.40368006406825646 -0.8866141441341711 0.0
v -0.39579249472620776 -0.8990818961728343 0.0
v -0.3869805005453731 -0.9099019465312539 0.0
v -0.3773562108349015 -0.9191752971825567 0.0
v -0.36702918705716764 -0.9270089417423429 0.0
v -0.3560952954917493 -0.9334987464901903 0.0
v -0.3446332834397282 -0.9387063397486844 0.0
v -0.3327004994790661 -0.9426522642920209 0.0
v -0.3203363172603039 -0.9453065619078312 0.0
v -0.3075655593022609 -0.9465887733971844 0.0
v -0.29440277673665866 -0.9463807778084575 0.0
v -0.2808599528484444 -0.94453449597766 0.0
v -0.2669559185139637 -0.9408958570983276 0.0
v -0.2527214878945096 -0.9353279093424918 0.0
v -0.23820202628309634 -0.9277364983284245 0.0
v -0.22346772149155794 -0.9180959455883817 0.0
v -0.2086075922080737 -0.9064670234960244 0.0
v -0.19372948799716863 -0.893014930193839 0.0
v -0.1789515298104653 -0.8780075776952888 0.0
v -0.16439868619098488 -0.8618078883444897 0.0
v -0.15018736619250042 -0.8448549639398649 0.0
v -0.13641942773706325 -0.8276289918282286 0.0
v -0.12317361812575522 -0.8106221426413414 0.0
v -0.11050043834513958 -0.7942957728496716 0.0
v -0.09841700737371238 -0.7790504665500264 0.0
v -0.08691305382437602 -0.7652003569978083 0.0
v -0.07595177189336401 -0.7529594314242176 0.0
v -0.06547752490056423 -0.7424372512916287 0.0
v -0.055420980983067726 -0.7336517915274631 0.0
v -0.04571024043119116 -0.7265439916559088 0.0
v -0.03627169163740157 -0.7210025783167417 0.0
v -0.027039426534489222 -0.7168923115798435 0.0
v -0.017950104902018777 -0.714074527719396 0.0
v -0.008953225753426925 -0.7124353855284005 0.0
v 3.5829854613896254e-17 -0.7118978496036249 0.0
v 0.008953225753426995 -0.7124353855284005 0.0
v 0.01795010490201885 -0.714074527719396 0.0
v 0.0270394265344893 -0.7168923115798435 0.0
v 0.03627169163740165 -0.7210025783167417 0.0
v 0.04571024043119123 -0.7265439916559088 0.0
v 0.055420980983067795 -0.7336517915274631 0.0
v 0.06547752490056429 -0.7424372512916287 0.0
v 0.07595177189336406 -0.7529594314242176 0.0
v 0.08691305382437609 -0.7652003569978083 0.0
v 0.09841700737371245 -0.7790504665500264 0.0
v 0.1105004383451396 -0.7942957728496716 0.0
v 0.12317361812575525 -0.8106221426413414 0.0
v 0.1364194277370633 -0.8276289918282286 0.0
v 0.15018736619250048 -0.8448549639398649 0.0
v 0.16439868619098494 -0.8618078883444897 0.0
v 0.1789515298104654 -0.8780075776952888 0.0
v 0.1937294879971687 -0.893014930193839 0.0
v 0.2086075922080738 -0.9064670234960244 0.0
v 0.22346772149155805 -0.9180959455883817 0.0
v 0.23820202628309645 -0.9277364983284245 0.0
v 0.2527214878945096 -0.9353279093424918 0.0
v 0.2669559185139637 -0.9408958570983276 0.0
v 0.2808599528484444 -0.94453449597766 0.0
v 0.29440277673665866 -0.9463807778084575 0.0
v 0.3075655593022609 -0.9465887733971844 0.0
v 0.3203363172603039 -0.9453065619078312 0.0
v 0.3327004994790661 -0.9426522642920209 0.0
v 0.3446332834397282 -0.9387063397486844 0.0
v 0.3560952954917493 -0.9334987464901903 0.0
v 0.36702918705716764 -0.9270089417423429 0.0
v 0.3773562108349015 -0.9191752971825567 0.0
v 0.3869805005453731 -0.9099019465312539 0.0
v 0.39579249472620776 -0.8990818961728343 0.0
v 0.40368006406825646 -0.8866141441341711 0.0
v 0.4105345030580694 -0.872431070450205 0.0
v 0.41627107275209113 -0.8565155561424401 0.0
v 0.420836704316984 -0.8389283735845372 0.0
v 0.4242254061102744 -0.8198133221958632 0.0
v 0.4264833993739015 -0.7994040760328887 0.0
v 0.4277202455702402 -0.778019904044565 0.0
v 0.42809686309715295 -0.7560434154002785 0.0
v 0.42782723918584037 -0.7339017286135051 0.0
v 0.42715360738202135 -0.7120288097891196 0.0
v 0.4263370321077604 -0.6908372263088763 0.0
v 0.42563087424479895 -0.6706864767211921 0.0
v 0.42526538405390857 -0.6518581682223266 0.0
v 0.42543229409424493 -0.6345448893203604 0.0
v 0.4262754037851747 -0.6188450741416456 0.0
v 0.4278845877638021 -0.6047707059711294 0.0
v 0.4303026434763672 -0.5922610124351508 0.0
v 0.43353128282071973 -0.5812030082756362 0.0
v 0.4375431154312658 -0.5714554619199932 0.0
v 0.4422987676574647 -0.5628702942042311 0.0
v 0.4477588658487754 -0.5553105533003814 0.0
v 0.4538968755885292 -0.5486675336949945 0.0
v 0.4607136528256508 -0.5428701916273119 0.0
v 0.46823915577250835 -0.5378885688849653 0.0
v 0.4765401484452363 -0.5337303690082782 0.0
v 0.48571677686803655 -0.5304383894434904 0.0
v 0.4958931536350053 -0.5280725466153382 0.0
v 0.5072079424719605 -0.5266987485910312 0.0
v 0.5197980952068704 -0.5263717761017569 0.0
v 0.5337783089956584 -0.5271130278706353 0.0
v 0.5492213394969326 -0.5288968254299222 0.0
v 0.5661391699956405 -0.531640141733912 0.0
v 0.5844693162202713 -0.5351923297718396 0.0
v 0.6040636990068344 -0.53933683446573 0.0
v 0.6246937799924076 -0.5438040319042706 0.0
v 0.6460565532576114 -0.5482840685766833 0.0
v 0.6677967999986525 -0.5524499719936937 0.0
v 0.6895293431993705 -0.5559824732063509 0.0
v 0.710870717741454 -0.5585965412226955 0.0
v 0.7314639929232609 -0.5600559341394826 0.0
v 0.7510095866211104 -0.560192885967451 0.0
v 0.769275536676381 -0.5589115304270227 0.0
v 0.7861094841804583 -0.5561844771526041 0.0
v 0.8014369615768844 -0.5520493878968865 0.0
v 0.8152511212742608 -0.5465875778077262 0.0
v 0.8275956166677526 -0.5399145999899712 0.0
v 0.8385483391095165 -0.532158846782342 0.0
v 0.8481965953898826 -0.5234478545746339 0.0
v 0.8566191328099324 -0.513894608624921 0.0
v 0.8638664523562294 -0.5035898395192319 0.0
v 0.8699548170583445 -0.4925977434269269 0.0
v 0.8748517008571358 -0.4809534142539231 0.0
v 0.8784800683493708 -0.46867054718301704 0.0
v 0.8807226545323514 -0.4557440065206601 0.0
v 0.8814356599867114 -0.4421600970840553 0.0
v 0.8804633020081365 -0.4279102593839548 0.0
v 0.877662637126185 -0.4129970612671328 0.0
v 0.8729275276741814 -0.39744789309918316 0.0
v 0.8662108964612616 -0.38132267130484176 0.0
v 0.857549549291192 -0.3647146943169121 0.0
v 0.8470744463494674 -0.34775577826981385 0.0
v 0.8350175497947091 -0.3306068415614095 0.0
v 0.8217075440140409 -0.3134510572616068 0.0
v 0.8075458690531949 -0.2964793019806365 0.0
v 0.7929878897401658 -0.27987731663518056 0.0
v 0.7785026660857446 -0.2638120112655753 0.0
v 0.7645412831733023 -0.24841434605731552 0.0
v 0.7515017572528714 -0.23377933134105414 0.0
v 0.7397059251201776 -0.21995404430765525 0.0
v 0.7293806132402932 -0.2069444765995925 0.0
v 0.7206559258497884 -0.19471810215772342 0.0
v 0.7135695247013543 -0.18321329265946223 0.0
v 0.7080828920933746 -0.17235044485480244 0.0
v 0.7041044414908958 -0.1620379722087902 0.0
v 0.7015134840955207 -0.15218514413539655 0.0
v 0.7001841954153035 -0.1427089335889157 0.0
v 0.7000087258857192 -0.13353401706396506 0.0
v 0.7009160317460091 -0.12459962218688374 0.0
v 0.7028821464262789 -0.11585695986895803 0.0
v 0.705934460292122 -0.10726665645964706 0.0
v 0.7101508646956958 -0.09879447400195869 0.0
v 0.7156511924864722 -0.09040788643675052 0.0
v 0.722579243083818 -0.08207179985810567 0.0
v 0.7310813837538745 -0.07374512871763364 0.0
v 0.7412851508864369 -0.06537566013092153 0.0
v 0.7532667239358127 -0.05690262172430836 0.0
v 0.7670312385955507 -0.04825753758381006 0.0
v 0.7824896761774716 -0.03936508420404403 0.0
v 0.7994511600713442 -0.030152505926402125 0.0
v 0.8176186760002627 -0.020553038734749795 0.0
v 0.8366036231523668 -0.010513613795749338 0.0
l 1 2
l 2 3
l 3 4
l 4 5
l 5 6
l 6 7
l 7 8
l 8 9
l 9 10
l 10 11
l 11 12
l 12 13
l 13 14
l 14 15
l 15 16
l 16 17
l 17 18
l 18 19
l 19 20
l 20 21
l 21 22
l 22 23
l 23 24
l 24 25
l 25 26
l 26 27
l 27 28
l 28 29
l 29 30
l 30 31
l 31 32
l 32 33
l 33 34
l 34 35
l 35 36
l 36 37
l 37 38
l 38 39
l 39 40
l 40 41
l 41 42
l 42 43
l 43 44
l 44 45
l 45 46
l 46 47
l 47 48
l 48 49
l 49 50
l 50 51
l 51 52
l 52 53
l 53 54
l 54 55
l 55 56
l 56 57
l 57 58
l 58 59
l 59 60
l 60 61
l 61 62
l 62 63
l 63 64
l 64 65
l 65 66
l 66 67
l 67 68
l 68 69
l 69 70
l 70 71
l 71 72
l 72 73
l 73 74
l 74 75
l 75 76
l 76 77
l 77 78
l 78 79
l 79 80
l 80 81
l 81 82
l 82 83
l 83 84
l 84 85
l 85 86
l 86 87
l 87 88
l 88 89
l 89 90
l 90 91
l 91 92
l 92 93
l 93 94
l 94 95
l 95 96
l 96 97
l 97 98
l 98 99
l 99 100
l 100 101
l 101 102
l 102 103
l 103 104
l 104 105
l 105 106
l 106 107
l 107 108
l 108 109
l 109 110
l 110 111
l 111 112
l 112 113
l 113 114
l 114 115
l 115 116
l 116 117
l 117 118
l 118 119
l 119 120
l 120 121
l 121 122
l 122 123
l 123 124
l 124 125
l 125 126
l 126 127
l 127 128
l 128 129
l 129 130
l 130 131
l 131 132
l 132 133
l 133 134
l 134 135
l 135 136
l 136 137
l 137 138
l 138 139
l 139 140
l 140 141
l 141 142
l 142 143
l 143 144
l 144 145
l 145 146
l 146 147
l 147 148
l 148 149
l 149 150
l 150 151
l 151 152
l 152 153
l 153 154
l 154 155
l 155 156
l 156 157
l 157 158
l 158 159
l 159 160
l 160 161
l 161 162
l 162 163
l 163 164
l 164 165
l 165 166
l 166 167
l 167 168
l 168 169
l 169 170
l 170 171
l 171 172
l 172 173
l 173 174
l 174 175
l 175 176
l 176 177
l 177 178
l 178 179
l 179 180
l 180 181
l 181 182
l 182 183
l 183 184
l 184 185
l 185 186
l 186 187
l 187 188
l 188 189
l 189 190
l 190 191
l 191 192
l 192 193
l 193 194
l 194 195
l 195 196
l 196 197
l 197 198
l 198 199
l 199 200
l 200 201
l 201 202
l 202 203
l 203 204
l 204 205
l 205 206
l 206 207
l 207 208
l 208 209
l 209 210
l 210 211
l 211 212
l 212 213
l 213 214
l 214 215
l 215 216
l 216 217
l 217 218
l 218 219
l 219 220
l 220 221
l 221 222
l 222 223
l 223 224
l 224 225
l 225 226
l 226 227
l 227 228
l 228 229
l 229 230
l 230 231
l 231 232
l 232 233
l 233 234
l 234 235
l 235 236
l 236 237
l 237 238
l 238 239
l 239 240
l 240 241
l 241 242
l 242 243
l 243 244
l 244 245
l 245 246
l 246 247
l 247 248
l 248 249
l 249 250
l 250 251
l 251 252
l 252 253
l 253 254
l 254 255
l 255 256
l 256 257
l 257 258
l 258 259
l 259 260
l 260 261
l 261 262
l 262 263
l 263 264
l 264 265
l 265 266
l 266 267
l 267 268
l 268 269
l 269 270
l 270 271
l 271 272
l 272 273
l 273 274
l 274 275
l 275 276
l 276 277
l 277 278
l 278 279
l 279 280
l 280 281
l 281 282
l 282 283
l 283 284
l 284 285
l 285 286
l 286 287
l 287 288
l 288 289
l 289 290
l 290 291
l 291 292
l 292 293
l 293 294
l 294 295
l 295 296
l 296 297
l 297 298
l 298 299
l 299 300
l 300 301
l 301 302
l 302 303
l 303 304
l 304 305
l 305 306
l 306 307
l 307 308
l 308 309
l 309 310
l 310 311
l 311 312
l 312 313
l 313 314
l 314 315
l 315 316
l 316 317
l 317 318
l 318 319
l 319 320
l 320 321
l 321 322
l 322 323
l 323 324
l 324 325
l 325 326
l 326 327
l 327 328
l 328 329
l 329 330
l 330 331
l 331 332
l 332 333
l 333 334
l 334 335
l 335 336
l 336 337
l 337 338
l 338 339
l 339 340
l 340 341
l 341 342
l 342 343
l 343 344
l 344 345
l 345 346
l 346 347
l 347 348
l 348 349
l 349 350
l 350 351
l 351 352
l 352 353
l 353 354
l 354 355
l 355 356
l 356 357
l 357 358
l 358 359
l 359 360
l 360 361
l 361 362
l 362 363
l 363 364
l 364 365
l 365 366
l 366 367
l 367 368
l 368 369
l 369 370
l 370 371
l 371 372
l 372 373
l 373 374
l 374 375
l 375 376
l 376 377
l 377 378
l 378 379
l 379 380
l 380 381
l 381 382
l 382 383
l 383 384
l 384 385
l 385 386
l 386 387
l 387 388
l 388 389
l 389 390
l 390 391
l 391 392
l 392 393
l 393 394
l 394 395
l 395 396
l 396 397
l 397 398
l 398 399
l 399 400
l 400 401
l 401 402
l 402 403
l 403 404
l 404 405
l 405 406
l 406 407
l 407 408
l 408 409
l 409 410
l 410 411
l 411 412
l 412 413
l 413 414
l 414 415
l 415 416
l 416 417
l 417 418
l 418 419
l 419 420
l 420 421
l 421 422
l 422 423
l 423 424
l 424 425
l 425 426
l 426 427
l 427 428
l 428 429
l 429 430
l 430 431
l 431 432
l 432 433
l 433 434
l 434 435
l 435 436
l 436 437
l 437 438
l 438 439
l 439 440
l 440 441
l 441 442
l 442 443
l 443 444
l 444 445
l 445 446
l 446 447
l 447 448
l 448 449
l 449 450
l 450 451
l 451 452
l 452 453
l 453 454
l 454 455
l 455 456
l 456 457
l 457 458
l 458 459
l 459 460
l 460 461
l 461 462
l 462 463
l 463 464
l 464 465
l 465 466
l 466 467
l 467 468
l 468 469
l 469 470
l 470 471
l 471 472
l 472 473
l 473 474
l 474 475
l 475 476
l 476 477
l 477 478
l 478 479
l 479 480
l 480 481
l 481 482
l 482 483
l 483 484
l 484 485
l 485 486
l 486 487
l 487 488
l 488 489
l 489 490
l 490 491
l 491 492
l 492 493
l 493 494
l 494 495
l 495 496
l 496 497
l 497 498
l 498 499
l 499 500
l 500 1
