# https://github.com/mikedh/trimesh
v -0.78364780 -0.48553459 0.00000000
v -0.81132075 -0.52327044 0.00000000
v -0.84150943 -0.54088050 0.00000000
v -0.87421384 -0.55597484 0.00000000
v -0.90943396 -0.57610063 0.00000000
v -0.94213836 -0.59371069 0.00000000
v -0.95974843 -0.62389937 0.00000000
v -0.93962264 -0.66415094 0.00000000
v -0.90440252 -0.66163522 0.00000000
v -0.87169811 -0.65408805 0.00000000
v -0.83899371 -0.63144654 0.00000000
v -0.80377358 -0.61635220 0.00000000
v -0.77106918 -0.59874214 0.00000000
v -0.72075472 -0.57358491 0.00000000
v -0.68301887 -0.55345912 0.00000000
v -0.65031447 -0.53081761 0.00000000
v -0.62012579 -0.51069182 0.00000000
v -0.58742138 -0.50314465 0.00000000
v -0.55974843 -0.49811321 0.00000000
v -0.52452830 -0.48553459 0.00000000
v -0.51194969 -0.44779874 0.00000000
v -0.49182390 -0.41257862 0.00000000
v -0.46666667 -0.40251572 0.00000000
v -0.43899371 -0.40754717 0.00000000
v -0.40628931 -0.41257862 0.00000000
v -0.37358491 -0.41257862 0.00000000
v -0.34591195 -0.41761006 0.00000000
v -0.31320755 -0.41509434 0.00000000
v -0.28050314 -0.40754717 0.00000000
v -0.25283019 -0.40503145 0.00000000
v -0.21761006 -0.39496855 0.00000000
v -0.18238994 -0.38742138 0.00000000
v -0.15471698 -0.38238994 0.00000000
v -0.11949686 -0.36981132 0.00000000
v -0.08930818 -0.35723270 0.00000000
v -0.05660377 -0.34465409 0.00000000
v -0.02138365 -0.33207547 0.00000000
v 0.00377358 -0.32201258 0.00000000
v 0.04402516 -0.30943396 0.00000000
v 0.07169811 -0.29937107 0.00000000
v 0.09685535 -0.29182390 0.00000000
v 0.13459119 -0.28176101 0.00000000
v 0.16981132 -0.27672956 0.00000000
v 0.21006289 -0.26918239 0.00000000
v 0.25031447 -0.26918239 0.00000000
v 0.28050314 -0.27169811 0.00000000
v 0.30817610 -0.28176101 0.00000000
v 0.34339623 -0.30188679 0.00000000
v 0.37358491 -0.31446541 0.00000000
v 0.41383648 -0.33962264 0.00000000
v 0.44654088 -0.34968553 0.00000000
v 0.49182390 -0.35220126 0.00000000
v 0.52201258 -0.35220126 0.00000000
v 0.55471698 -0.35471698 0.00000000
v 0.58742138 -0.36226415 0.00000000
v 0.60503145 -0.37484277 0.00000000
v 0.63270440 -0.39245283 0.00000000
v 0.65534591 -0.41509434 0.00000000
v 0.68301887 -0.43773585 0.00000000
v 0.71069182 -0.45283019 0.00000000
v 0.75345912 -0.48050314 0.00000000
v 0.79119497 -0.49811321 0.00000000
v 0.82138365 -0.49308176 0.00000000
v 0.82893082 -0.46289308 0.00000000
v 0.81383648 -0.43773585 0.00000000
v 0.79119497 -0.41257862 0.00000000
v 0.77106918 -0.39245283 0.00000000
v 0.75094340 -0.37735849 0.00000000
v 0.73836478 -0.35723270 0.00000000
v 0.72327044 -0.32201258 0.00000000
v 0.74842767 -0.32201258 0.00000000
v 0.77358491 -0.33710692 0.00000000
v 0.79874214 -0.34968553 0.00000000
v 0.82893082 -0.36981132 0.00000000
v 0.84905660 -0.38238994 0.00000000
v 0.87421384 -0.39748428 0.00000000
v 0.90188679 -0.41509434 0.00000000
v 0.92201258 -0.41509434 0.00000000
v 0.95471698 -0.42012579 0.00000000
v 0.98490566 -0.41761006 0.00000000
v 1.00000000 -0.41509434 0.00000000
v 0.99748428 -0.38238994 0.00000000
v 0.96981132 -0.35974843 0.00000000
v 0.94213836 -0.33962264 0.00000000
v 0.90691824 -0.31949686 0.00000000
v 0.88427673 -0.30440252 0.00000000
v 0.85660377 -0.28427673 0.00000000
v 0.82641509 -0.26163522 0.00000000
v 0.80125786 -0.24402516 0.00000000
v 0.76855346 -0.22389937 0.00000000
v 0.75597484 -0.21886792 0.00000000
v 0.73333333 -0.21383648 0.00000000
v 0.69308176 -0.21132075 0.00000000
v 0.67295597 -0.21383648 0.00000000
v 0.64528302 -0.22138365 0.00000000
v 0.62012579 -0.22641509 0.00000000
v 0.56477987 -0.23144654 0.00000000
v 0.53710692 -0.22641509 0.00000000
v 0.48930818 -0.20377358 0.00000000
v 0.46918239 -0.18616352 0.00000000
v 0.43899371 -0.15345912 0.00000000
v 0.43144654 -0.13584906 0.00000000
v 0.41383648 -0.10062893 0.00000000
v 0.41132075 -0.08050314 0.00000000
v 0.41132075 -0.05534591 0.00000000
v 0.43144654 -0.04276730 0.00000000
v 0.45408805 -0.04528302 0.00000000
v 0.46666667 -0.03522013 0.00000000
v 0.46666667 -0.00251572 0.00000000
v 0.45911950 0.00251572 0.00000000
v 0.43899371 0.04528302 0.00000000
v 0.42138365 0.06792453 0.00000000
v 0.40377358 0.08553459 0.00000000
v 0.37358491 0.10314465 0.00000000
v 0.34842767 0.10817610 0.00000000
v 0.32830189 0.10062893 0.00000000
v 0.31572327 0.08301887 0.00000000
v 0.30817610 0.07547170 0.00000000
v 0.29559748 0.06540881 0.00000000
v 0.26037736 0.09056604 0.00000000
v 0.23522013 0.09559748 0.00000000
v 0.19245283 0.10062893 0.00000000
v 0.15974843 0.10314465 0.00000000
v 0.10188679 0.10314465 0.00000000
v 0.06163522 0.10314465 0.00000000
v 0.01132075 0.09811321 0.00000000
v -0.02138365 0.08805031 0.00000000
v -0.07924528 0.08050314 0.00000000
v -0.12201258 0.07547170 0.00000000
v -0.14968553 0.06792453 0.00000000
v -0.17735849 0.06037736 0.00000000
v -0.20754717 0.05031447 0.00000000
v -0.24528302 0.04276730 0.00000000
v -0.26540881 0.03773585 0.00000000
v -0.29811321 0.03018868 0.00000000
v -0.30817610 0.02767296 0.00000000
v -0.32830189 0.04025157 0.00000000
v -0.33081761 0.05283019 0.00000000
v -0.32578616 0.06289308 0.00000000
v -0.31320755 0.07295597 0.00000000
v -0.30062893 0.08805031 0.00000000
v -0.29056604 0.11572327 0.00000000
v -0.29056604 0.14339623 0.00000000
v -0.29308176 0.15597484 0.00000000
v -0.30314465 0.20377358 0.00000000
v -0.29811321 0.22138365 0.00000000
v -0.28050314 0.25408805 0.00000000
v -0.26792453 0.26415094 0.00000000
v -0.24025157 0.27924528 0.00000000
v -0.20251572 0.29685535 0.00000000
v -0.18238994 0.30691824 0.00000000
v -0.15974843 0.31949686 0.00000000
v -0.13962264 0.33207547 0.00000000
v -0.11194969 0.34716981 0.00000000
v -0.09937107 0.35723270 0.00000000
v -0.07924528 0.38490566 0.00000000
v -0.05911950 0.40503145 0.00000000
v -0.04654088 0.41509434 0.00000000
v -0.01886792 0.43270440 0.00000000
v 0.00880503 0.46037736 0.00000000
v 0.03647799 0.48553459 0.00000000
v 0.04654088 0.49559748 0.00000000
v 0.06415094 0.52830189 0.00000000
v 0.07421384 0.54591195 0.00000000
v 0.07672956 0.56352201 0.00000000
v 0.05660377 0.57861635 0.00000000
v 0.03899371 0.57610063 0.00000000
v 0.00628931 0.57106918 0.00000000
v -0.01635220 0.56352201 0.00000000
v -0.04402516 0.55094340 0.00000000
v -0.07421384 0.53333333 0.00000000
v -0.09937107 0.51823899 0.00000000
v -0.13207547 0.50062893 0.00000000
v -0.14968553 0.48805031 0.00000000
v -0.17735849 0.46792453 0.00000000
v -0.18993711 0.45786164 0.00000000
v -0.22264151 0.42767296 0.00000000
v -0.24779874 0.41257862 0.00000000
v -0.24528302 0.44779874 0.00000000
v -0.22012579 0.47044025 0.00000000
v -0.19748428 0.50062893 0.00000000
v -0.17484277 0.52327044 0.00000000
v -0.16226415 0.54339623 0.00000000
v -0.14716981 0.57358491 0.00000000
v -0.13710692 0.61132075 0.00000000
v -0.12201258 0.63899371 0.00000000
v -0.12704403 0.65408805 0.00000000
v -0.14465409 0.66415094 0.00000000
v -0.18490566 0.64402516 0.00000000
v -0.20754717 0.63144654 0.00000000
v -0.23018868 0.60880503 0.00000000
v -0.26289308 0.57861635 0.00000000
v -0.27295597 0.56352201 0.00000000
v -0.28805031 0.54339623 0.00000000
v -0.30566038 0.52578616 0.00000000
v -0.32075472 0.49811321 0.00000000
v -0.34842767 0.46540881 0.00000000
v -0.37106918 0.44276730 0.00000000
v -0.37861635 0.42515723 0.00000000
v -0.38364780 0.41006289 0.00000000
v -0.39371069 0.39245283 0.00000000
v -0.40377358 0.36981132 0.00000000
v -0.41635220 0.34465409 0.00000000
v -0.43144654 0.32201258 0.00000000
v -0.46415094 0.31194969 0.00000000
v -0.49433962 0.30943396 0.00000000
v -0.52201258 0.29937107 0.00000000
v -0.53962264 0.29182390 0.00000000
v -0.56981132 0.27421384 0.00000000
v -0.58490566 0.26163522 0.00000000
v -0.61509434 0.24654088 0.00000000
v -0.64025157 0.22893082 0.00000000
v -0.67044025 0.20377358 0.00000000
v -0.68553459 0.19371069 0.00000000
v -0.72075472 0.16352201 0.00000000
v -0.74842767 0.12830189 0.00000000
v -0.76352201 0.11069182 0.00000000
v -0.77358491 0.09056604 0.00000000
v -0.78616352 0.04779874 0.00000000
v -0.78616352 0.03018868 0.00000000
v -0.76855346 -0.00754717 0.00000000
v -0.73081761 -0.02515723 0.00000000
v -0.69811321 -0.04276730 0.00000000
v -0.68301887 -0.04779874 0.00000000
v -0.66037736 -0.05534591 0.00000000
v -0.62515723 -0.05786164 0.00000000
v -0.61006289 -0.05786164 0.00000000
v -0.59245283 -0.06289308 0.00000000
v -0.56729560 -0.06792453 0.00000000
v -0.54968553 -0.07547170 0.00000000
v -0.57232704 -0.10817610 0.00000000
v -0.58742138 -0.12578616 0.00000000
v -0.60251572 -0.15849057 0.00000000
v -0.61509434 -0.19119497 0.00000000
v -0.62515723 -0.21635220 0.00000000
v -0.62767296 -0.24654088 0.00000000
v -0.63270440 -0.28176101 0.00000000
v -0.63270440 -0.29685535 0.00000000
v -0.66289308 -0.31949686 0.00000000
v -0.69559748 -0.33207547 0.00000000
v -0.72578616 -0.35471698 0.00000000
v -0.75597484 -0.36729560 0.00000000
v -0.79622642 -0.38490566 0.00000000
v -0.83647799 -0.40000000 0.00000000
v -0.87924528 -0.42012579 0.00000000
v -0.92452830 -0.44528302 0.00000000
v -0.95471698 -0.47044025 0.00000000
v -0.97987421 -0.48805031 0.00000000
v -1.00000000 -0.51823899 0.00000000
v -0.99245283 -0.53836478 0.00000000
v -0.96477987 -0.54088050 0.00000000
v -0.92955975 -0.53081761 0.00000000
v -0.89937107 -0.52075472 0.00000000
v -0.87421384 -0.51069182 0.00000000
v -0.85157233 -0.50314465 0.00000000
v -0.82893082 -0.49056604 0.00000000
v -0.79371069 -0.47547170 0.00000000

