# https://github.com/mikedh/trimesh
v -0.04692781 0.41570753 0.00000000
v -0.05064636 0.40682182 0.00000000
v -0.05247532 0.39600892 0.00000000
v -0.05261086 0.38415860 0.00000000
v -0.05155991 0.37188226 0.00000000
v -0.04985889 0.35932890 0.00000000
v -0.04790311 0.34633147 0.00000000
v -0.04594550 0.33273500 0.00000000
v -0.04418346 0.31867038 0.00000000
v -0.04282514 0.30460422 0.00000000
v -0.04208001 0.29116191 0.00000000
v -0.04209401 0.27887763 0.00000000
v -0.04290192 0.26803749 0.00000000
v -0.04445939 0.25864857 0.00000000
v -0.04674287 0.25046183 0.00000000
v -0.04983049 0.24302009 0.00000000
v -0.05388451 0.23578222 0.00000000
v -0.05904937 0.22832849 0.00000000
v -0.06535888 0.22053253 0.00000000
v -0.07272235 0.21257745 0.00000000
v -0.08096804 0.20482886 0.00000000
v -0.08988281 0.19768007 0.00000000
v -0.09923135 0.19144550 0.00000000
v -0.10878044 0.18629316 0.00000000
v -0.11833223 0.18220325 0.00000000
v -0.12774042 0.17898157 0.00000000
v -0.13690056 0.17634379 0.00000000
v -0.14573725 0.17402424 0.00000000
v -0.15420995 0.17184267 0.00000000
v -0.16233453 0.16970753 0.00000000
v -0.17020006 0.16758408 0.00000000
v -0.17795851 0.16546270 0.00000000
v -0.18578191 0.16334155 0.00000000
v -0.19381638 0.16122041 0.00000000
v -0.20217556 0.15909927 0.00000000
v -0.21097374 0.15697814 0.00000000
v -0.22033644 0.15485700 0.00000000
v -0.23033031 0.15273586 0.00000000
v -0.24084890 0.15061473 0.00000000
v -0.25157589 0.14849359 0.00000000
v -0.26210386 0.14637245 0.00000000
v -0.27214003 0.14425132 0.00000000
v -0.28164704 0.14213019 0.00000000
v -0.29084109 0.14000921 0.00000000
v -0.30010140 0.13788962 0.00000000
v -0.30987964 0.13577787 0.00000000
v -0.32062552 0.13369748 0.00000000
v -0.33268094 0.13171118 0.00000000
v -0.34612209 0.12994442 0.00000000
v -0.36061366 0.12858538 0.00000000
v -0.37539271 0.12783790 0.00000000
v -0.38945565 0.12783790 0.00000000
v -0.40189296 0.12858538 0.00000000
v -0.41219891 0.12994442 0.00000000
v -0.42038605 0.13171118 0.00000000
v -0.42686599 0.13369748 0.00000000
v -0.43220712 0.13577787 0.00000000
v -0.43692446 0.13788962 0.00000000
v -0.44138768 0.14000921 0.00000000
v -0.44583140 0.14213002 0.00000000
v -0.45039749 0.14424958 0.00000000
v -0.45515472 0.14636092 0.00000000
v -0.46009881 0.14843738 0.00000000
v -0.46518036 0.15039966 0.00000000
v -0.47038660 0.15206179 0.00000000
v -0.47581997 0.15307385 0.00000000
v -0.48166597 0.15290835 0.00000000
v -0.48802608 0.15094426 0.00000000
v -0.49476978 0.14666065 0.00000000
v -0.50161326 0.13987325 0.00000000
v -0.50841190 0.13089831 0.00000000
v -0.51537343 0.12055388 0.00000000
v -0.52294623 0.10997961 0.00000000
v -0.53151087 0.10032146 0.00000000
v -0.54121308 0.09239088 0.00000000
v -0.55203113 0.08646089 0.00000000
v -0.56384057 0.08232242 0.00000000
v -0.57631292 0.07955721 0.00000000
v -0.58882350 0.07782589 0.00000000
v -0.60061089 0.07698646 0.00000000
v -0.61111984 0.07702849 0.00000000
v -0.62022070 0.07794906 0.00000000
v -0.62814341 0.07968865 0.00000000
v -0.63525554 0.08214146 0.00000000
v -0.64188823 0.08518371 0.00000000
v -0.64827224 0.08867880 0.00000000
v -0.65453118 0.09246784 0.00000000
v -0.66069053 0.09637379 0.00000000
v -0.66670820 0.10023017 0.00000000
v -0.67253053 0.10392204 0.00000000
v -0.67814393 0.10741276 0.00000000
v -0.68358283 0.11073037 0.00000000
v -0.68889021 0.11391661 0.00000000
v -0.69407675 0.11698200 0.00000000
v -0.69912869 0.11991281 0.00000000
v -0.70405779 0.12272077 0.00000000
v -0.70893201 0.12547386 0.00000000
v -0.71384152 0.12826223 0.00000000
v -0.71882620 0.13112577 0.00000000
v -0.72383633 0.13401476 0.00000000
v -0.72876735 0.13682465 0.00000000
v -0.73353963 0.13947579 0.00000000
v -0.73815834 0.14197336 0.00000000
v -0.74271424 0.14440813 0.00000000
v -0.74733287 0.14690562 0.00000000
v -0.75210439 0.14955600 0.00000000
v -0.75703088 0.15236136 0.00000000
v -0.76202217 0.15523151 0.00000000
v -0.76694866 0.15803686 0.00000000
v -0.77172018 0.16068725 0.00000000
v -0.77633889 0.16318482 0.00000000
v -0.78089556 0.16562035 0.00000000
v -0.78551879 0.16812245 0.00000000
v -0.79030992 0.17079244 0.00000000
v -0.79529913 0.17366052 0.00000000
v -0.80044724 0.17668748 0.00000000
v -0.80568743 0.17980655 0.00000000
v -0.81096937 0.18296735 0.00000000
v -0.81627221 0.18614905 0.00000000
v -0.82159596 0.18935166 0.00000000
v -0.82696153 0.19259609 0.00000000
v -0.83241988 0.19593331 0.00000000
v -0.83804104 0.19943333 0.00000000
v -0.84387599 0.20314714 0.00000000
v -0.84992601 0.20707603 0.00000000
v -0.85615375 0.21118263 0.00000000
v -0.86253091 0.21543866 0.00000000
v -0.86909026 0.21987704 0.00000000
v -0.87595033 0.22461752 0.00000000
v -0.88329068 0.22984611 0.00000000
v -0.89126803 0.23574308 0.00000000
v -0.89990078 0.24238953 0.00000000
v -0.90900274 0.24972472 0.00000000
v -0.91824920 0.25761196 0.00000000
v -0.92735876 0.26597233 0.00000000
v -0.93625185 0.27485433 0.00000000
v -0.94504953 0.28434706 0.00000000
v -0.95392155 0.29438341 0.00000000
v -0.96291310 0.30454613 0.00000000
v -0.97185229 0.31392572 0.00000000
v -0.98034972 0.32104683 0.00000000
v -0.98787314 0.32399823 0.00000000
v -0.99388457 0.32098981 0.00000000
v -0.99798733 0.31131714 0.00000000
v -1.00000000 0.29619405 0.00000000
v -0.99993643 0.27867456 0.00000000
v -0.99796429 0.26241936 0.00000000
v -0.99440957 0.25003344 0.00000000
v -0.98977744 0.24212131 0.00000000
v -0.98470309 0.23758657 0.00000000
v -0.97980300 0.23470253 0.00000000
v -0.97550033 0.23207922 0.00000000
v -0.97193328 0.22903356 0.00000000
v -0.96899141 0.22544473 0.00000000
v -0.96642958 0.22143051 0.00000000
v -0.96397151 0.21709636 0.00000000
v -0.96135562 0.21243036 0.00000000
v -0.95833907 0.20730837 0.00000000
v -0.95469772 0.20154837 0.00000000
v -0.95023501 0.19496477 0.00000000
v -0.94478276 0.18739139 0.00000000
v -0.93817644 0.17866395 0.00000000
v -0.93020932 0.16857564 0.00000000
v -0.92059021 0.15683467 0.00000000
v -0.90894207 0.14305830 0.00000000
v -0.89489161 0.12684349 0.00000000
v -0.87829617 0.10793956 0.00000000
v -0.85957191 0.08647950 0.00000000
v -0.83992959 0.06312915 0.00000000
v -0.82124769 0.03901434 0.00000000
v -0.80550010 0.01544314 0.00000000
v -0.79402037 -0.00640441 0.00000000
v -0.78706592 -0.02568093 0.00000000
v -0.78392842 -0.04197301 0.00000000
v -0.78343113 -0.05533022 0.00000000
v -0.78444686 -0.06618249 0.00000000
v -0.78617977 -0.07513296 0.00000000
v -0.78819056 -0.08273791 0.00000000
v -0.79028734 -0.08940877 0.00000000
v -0.79240457 -0.09544085 0.00000000
v -0.79452530 -0.10106318 0.00000000
v -0.79664641 -0.10643887 0.00000000
v -0.79876738 -0.11164803 0.00000000
v -0.80088689 -0.11671757 0.00000000
v -0.80299787 -0.12170001 0.00000000
v -0.80507356 -0.12673272 0.00000000
v -0.80703949 -0.13200450 0.00000000
v -0.80873883 -0.13761796 0.00000000
v -0.80992069 -0.14342082 0.00000000
v -0.81028712 -0.14893688 0.00000000
v -0.80960029 -0.15349777 0.00000000
v -0.80779225 -0.15653688 0.00000000
v -0.80499889 -0.15785619 0.00000000
v -0.80149195 -0.15767785 0.00000000
v -0.79756093 -0.15646777 0.00000000
v -0.79342205 -0.15468986 0.00000000
v -0.78918835 -0.15265255 0.00000000
v -0.78487940 -0.15048257 0.00000000
v -0.78043284 -0.14815999 0.00000000
v -0.77569587 -0.14554293 0.00000000
v -0.77038888 -0.14234796 0.00000000
v -0.76404136 -0.13808334 0.00000000
v -0.75593361 -0.13197808 0.00000000
v -0.74514215 -0.12302927 0.00000000
v -0.73079818 -0.11031958 0.00000000
v -0.71253396 -0.09360616 0.00000000
v -0.69087274 -0.07388146 0.00000000
v -0.66724297 -0.05343211 0.00000000
v -0.64352243 -0.03515655 0.00000000
v -0.62138116 -0.02145785 0.00000000
v -0.60183709 -0.01341280 0.00000000
v -0.58521590 -0.01071047 0.00000000
v -0.57137567 -0.01222625 0.00000000
v -0.55995843 -0.01667851 0.00000000
v -0.55057239 -0.02296480 0.00000000
v -0.54293150 -0.03019976 0.00000000
v -0.53695252 -0.03768146 0.00000000
v -0.53274532 -0.04490479 0.00000000
v -0.53045131 -0.05158888 0.00000000
v -0.52997555 -0.05766539 0.00000000
v -0.53074664 -0.06321527 0.00000000
v -0.53166849 -0.06835298 0.00000000
v -0.53137298 -0.07307735 0.00000000
v -0.52873449 -0.07717380 0.00000000
v -0.52339820 -0.08027241 0.00000000
v -0.51596001 -0.08205440 0.00000000
v -0.50761238 -0.08244852 0.00000000
v -0.49948321 -0.08165485 0.00000000
v -0.49214634 -0.07999479 0.00000000
v -0.48558768 -0.07773415 0.00000000
v -0.47949954 -0.07501616 0.00000000
v -0.47358806 -0.07191773 0.00000000
v -0.46770680 -0.06854512 0.00000000
v -0.46181593 -0.06508457 0.00000000
v -0.45584224 -0.06179097 0.00000000
v -0.44954122 -0.05895736 0.00000000
v -0.44249991 -0.05690560 0.00000000
v -0.43437260 -0.05597849 0.00000000
v -0.42523845 -0.05647824 0.00000000
v -0.41577193 -0.05855713 0.00000000
v -0.40699929 -0.06216794 0.00000000
v -0.39977878 -0.06716535 0.00000000
v -0.39441237 -0.07348760 0.00000000
v -0.39066120 -0.08123385 0.00000000
v -0.38805162 -0.09055484 0.00000000
v -0.38614379 -0.10146226 0.00000000
v -0.38456895 -0.11368430 0.00000000
v -0.38292047 -0.12657687 0.00000000
v -0.38071544 -0.13909409 0.00000000
v -0.37753093 -0.14994257 0.00000000
v -0.37320710 -0.15799963 0.00000000
v -0.36792671 -0.16278843 0.00000000
v -0.36210270 -0.16464044 0.00000000
v -0.35617677 -0.16441507 0.00000000
v -0.35047037 -0.16302791 0.00000000
v -0.34513909 -0.16113096 0.00000000
v -0.34019739 -0.15906173 0.00000000
v -0.33557048 -0.15694915 0.00000000
v -0.33115034 -0.15482891 0.00000000
v -0.32684049 -0.15270782 0.00000000
v -0.32257707 -0.15058668 0.00000000
v -0.31832549 -0.14846554 0.00000000
v -0.31406284 -0.14634441 0.00000000
v -0.30975768 -0.14422327 0.00000000
v -0.30535780 -0.14210213 0.00000000
v -0.30079697 -0.13998100 0.00000000
v -0.29602237 -0.13786003 0.00000000
v -0.29101932 -0.13574044 0.00000000
v -0.28579358 -0.13362869 0.00000000
v -0.28030264 -0.13154830 0.00000000
v -0.27439423 -0.12956200 0.00000000
v -0.26784158 -0.12779524 0.00000000
v -0.26049963 -0.12643619 0.00000000
v -0.25248339 -0.12568871 0.00000000
v -0.24421232 -0.12568871 0.00000000
v -0.23625419 -0.12643619 0.00000000
v -0.22906829 -0.12779523 0.00000000
v -0.22282918 -0.12956191 0.00000000
v -0.21743038 -0.13154745 0.00000000
v -0.21261840 -0.13362322 0.00000000
v -0.20813474 -0.13571537 0.00000000
v -0.20377869 -0.13777224 0.00000000
v -0.19937420 -0.13973640 0.00000000
v -0.19467384 -0.14154390 0.00000000
v -0.18927197 -0.14315539 0.00000000
v -0.18263197 -0.14459701 0.00000000
v -0.17429063 -0.14597067 0.00000000
v -0.16414847 -0.14741228 0.00000000
v -0.15261259 -0.14902377 0.00000000
v -0.14042701 -0.15083128 0.00000000
v -0.12829160 -0.15279561 0.00000000
v -0.11655169 -0.15485402 0.00000000
v -0.10513696 -0.15695555 0.00000000
v -0.09368373 -0.15907208 0.00000000
v -0.08166829 -0.16119246 0.00000000
v -0.06847884 -0.16331367 0.00000000
v -0.05349957 -0.16543635 0.00000000
v -0.03631726 -0.16756696 0.00000000
v -0.01704941 -0.16972969 0.00000000
v 0.00338875 -0.17199097 0.00000000
v 0.02334463 -0.17448993 0.00000000
v 0.04092409 -0.17745095 0.00000000
v 0.05470844 -0.18114653 0.00000000
v 0.06427835 -0.18580183 0.00000000
v 0.07024418 -0.19148164 0.00000000
v 0.07380169 -0.19803769 0.00000000
v 0.07610077 -0.20517287 0.00000000
v 0.07777467 -0.21259502 0.00000000
v 0.07883209 -0.22015453 0.00000000
v 0.07887305 -0.22787751 0.00000000
v 0.07741098 -0.23591496 0.00000000
v 0.07407964 -0.24450495 0.00000000
v 0.06864532 -0.25399800 0.00000000
v 0.06089330 -0.26489976 0.00000000
v 0.05051688 -0.27785646 0.00000000
v 0.03713527 -0.29352796 0.00000000
v 0.02054424 -0.31229428 0.00000000
v 0.00118315 -0.33381190 0.00000000
v -0.01946505 -0.35666911 0.00000000
v -0.03898735 -0.37855540 0.00000000
v -0.05482017 -0.39707858 0.00000000
v -0.06523909 -0.41076023 0.00000000
v -0.06985540 -0.41949128 0.00000000
v -0.06937550 -0.42419507 0.00000000
v -0.06501849 -0.42611160 0.00000000
v -0.05809129 -0.42627328 0.00000000
v -0.04982119 -0.42537102 0.00000000
v -0.04124745 -0.42384235 0.00000000
v -0.03307425 -0.42197197 0.00000000
v -0.02559748 -0.41993947 0.00000000
v -0.01880532 -0.41784349 0.00000000
v -0.01257683 -0.41572782 0.00000000
v -0.00682262 -0.41360754 0.00000000
v -0.00150141 -0.41148648 0.00000000
v 0.00343076 -0.40936535 0.00000000
v 0.00805440 -0.40724422 0.00000000
v 0.01247388 -0.40512308 0.00000000
v 0.01678357 -0.40300194 0.00000000
v 0.02104622 -0.40088081 0.00000000
v 0.02529319 -0.39875966 0.00000000
v 0.02953632 -0.39663845 0.00000000
v 0.03377944 -0.39451654 0.00000000
v 0.03802633 -0.39239079 0.00000000
v 0.04228821 -0.39025005 0.00000000
v 0.04659329 -0.38806611 0.00000000
v 0.05099315 -0.38578739 0.00000000
v 0.05555374 -0.38334793 0.00000000
v 0.06032603 -0.38069678 0.00000000
v 0.06531525 -0.37782870 0.00000000
v 0.07048218 -0.37478290 0.00000000
v 0.07578502 -0.37160119 0.00000000
v 0.08122377 -0.36828358 0.00000000
v 0.08684032 -0.36478817 0.00000000
v 0.09267449 -0.36107514 0.00000000
v 0.09872427 -0.35714649 0.00000000
v 0.10495048 -0.35304142 0.00000000
v 0.11131866 -0.34879437 0.00000000
v 0.11784120 -0.34439298 0.00000000
v 0.12459034 -0.33976496 0.00000000
v 0.13167978 -0.33479667 0.00000000
v 0.13923358 -0.32936400 0.00000000
v 0.14736297 -0.32335575 0.00000000
v 0.15614704 -0.31669272 0.00000000
v 0.16559025 -0.30936986 0.00000000
v 0.17555318 -0.30152382 0.00000000
v 0.18572742 -0.29345762 0.00000000
v 0.19578035 -0.28551426 0.00000000
v 0.20574688 -0.27777982 0.00000000
v 0.21657612 -0.26980809 0.00000000
v 0.23054927 -0.26070722 0.00000000
v 0.25121651 -0.24974812 0.00000000
v 0.28260755 -0.23713725 0.00000000
v 0.32769636 -0.22424273 0.00000000
v 0.38649018 -0.21292012 0.00000000
v 0.45472209 -0.20443127 0.00000000
v 0.52443380 -0.19885270 0.00000000
v 0.58683194 -0.19535136 0.00000000
v 0.63592748 -0.19290091 0.00000000
v 0.67051971 -0.19079545 0.00000000
v 0.69337956 -0.18872989 0.00000000
v 0.70874803 -0.18663635 0.00000000
v 0.72016472 -0.18452322 0.00000000
v 0.72968295 -0.18240356 0.00000000
v 0.73817676 -0.18028258 0.00000000
v 0.74595175 -0.17816146 0.00000000
v 0.75316367 -0.17604032 0.00000000
v 0.75996673 -0.17391918 0.00000000
v 0.76650666 -0.17179796 0.00000000
v 0.77287545 -0.16967606 0.00000000
v 0.77908742 -0.16755030 0.00000000
v 0.78509408 -0.16540940 0.00000000
v 0.79083339 -0.16322399 0.00000000
v 0.79628844 -0.16093665 0.00000000
v 0.80151090 -0.15846107 0.00000000
v 0.80657770 -0.15569484 0.00000000
v 0.81150874 -0.15253674 0.00000000
v 0.81623254 -0.14889582 0.00000000
v 0.82067208 -0.14469953 0.00000000
v 0.82492467 -0.13992563 0.00000000
v 0.82940264 -0.13466301 0.00000000
v 0.83478552 -0.12915732 0.00000000
v 0.84174951 -0.12377970 0.00000000
v 0.85062001 -0.11890518 0.00000000
v 0.86118669 -0.11476700 0.00000000
v 0.87281702 -0.11138275 0.00000000
v 0.88477328 -0.10859507 0.00000000
v 0.89649624 -0.10618244 0.00000000
v 0.90768926 -0.10395784 0.00000000
v 0.91822358 -0.10180771 0.00000000
v 0.92800528 -0.09968034 0.00000000
v 0.93692421 -0.09755749 0.00000000
v 0.94490487 -0.09543131 0.00000000
v 0.95199031 -0.09328724 0.00000000
v 0.95837393 -0.09108247 0.00000000
v 0.96435268 -0.08871074 0.00000000
v 0.97024195 -0.08595704 0.00000000
v 0.97628811 -0.08247163 0.00000000
v 0.98255772 -0.07782058 0.00000000
v 0.98879267 -0.07165889 0.00000000
v 0.99433757 -0.06398395 0.00000000
v 0.99830772 -0.05530541 0.00000000
v 1.00000000 -0.04655108 0.00000000
v 0.99927804 -0.03870103 0.00000000
v 0.99662083 -0.03237469 0.00000000
v 0.99280904 -0.02764653 0.00000000
v 0.98852743 -0.02417219 0.00000000
v 0.98416357 -0.02147008 0.00000000
v 0.97984491 -0.01914616 0.00000000
v 0.97557283 -0.01696890 0.00000000
v 0.97132260 -0.01483591 0.00000000
v 0.96707889 -0.01271298 0.00000000
v 0.96283645 -0.01059167 0.00000000
v 0.95859409 -0.00847052 0.00000000
v 0.95435105 -0.00634939 0.00000000
v 0.95010416 -0.00422825 0.00000000
v 0.94584229 -0.00210711 0.00000000
v 0.94153729 0.00001402 0.00000000
v 0.93713820 0.00213516 0.00000000
v 0.93258222 0.00425630 0.00000000
v 0.92782954 0.00637743 0.00000000
v 0.92290313 0.00849857 0.00000000
v 0.91789377 0.01061971 0.00000000
v 0.91290917 0.01274084 0.00000000
v 0.90799967 0.01486198 0.00000000
v 0.90312553 0.01698312 0.00000000
v 0.89819720 0.01910425 0.00000000
v 0.89314987 0.02122539 0.00000000
v 0.88798294 0.02334653 0.00000000
v 0.88273829 0.02546766 0.00000000
v 0.87745635 0.02758880 0.00000000
v 0.87215804 0.02970994 0.00000000
v 0.86685390 0.03183107 0.00000000
v 0.86155113 0.03395221 0.00000000
v 0.85625037 0.03607335 0.00000000
v 0.85094753 0.03819448 0.00000000
v 0.84564261 0.04031562 0.00000000
v 0.84033969 0.04243676 0.00000000
v 0.83503815 0.04455789 0.00000000
v 0.82973078 0.04667903 0.00000000
v 0.82440703 0.04880017 0.00000000
v 0.81904599 0.05092130 0.00000000
v 0.81360725 0.05304244 0.00000000
v 0.80804897 0.05516358 0.00000000
v 0.80237239 0.05728471 0.00000000
v 0.79664546 0.05940585 0.00000000
v 0.79096888 0.06152699 0.00000000
v 0.78541052 0.06364812 0.00000000
v 0.77997101 0.06576926 0.00000000
v 0.77460536 0.06789040 0.00000000
v 0.76926201 0.07001153 0.00000000
v 0.76389191 0.07213267 0.00000000
v 0.75843356 0.07425381 0.00000000
v 0.75281701 0.07637494 0.00000000
v 0.74700245 0.07849608 0.00000000
v 0.74102000 0.08061722 0.00000000
v 0.73497099 0.08273835 0.00000000
v 0.72898409 0.08485949 0.00000000
v 0.72315070 0.08698063 0.00000000
v 0.71747604 0.08910176 0.00000000
v 0.71188048 0.09122290 0.00000000
v 0.70625948 0.09334404 0.00000000
v 0.70056330 0.09546517 0.00000000
v 0.69483175 0.09758631 0.00000000
v 0.68915441 0.09970745 0.00000000
v 0.68359605 0.10182858 0.00000000
v 0.67815729 0.10394972 0.00000000
v 0.67279609 0.10607086 0.00000000
v 0.66747080 0.10819199 0.00000000
v 0.66215413 0.11031313 0.00000000
v 0.65681261 0.11243427 0.00000000
v 0.65137955 0.11455540 0.00000000
v 0.64574063 0.11667654 0.00000000
v 0.63974312 0.11879768 0.00000000
v 0.63324588 0.12091881 0.00000000
v 0.62620303 0.12303995 0.00000000
v 0.61871710 0.12516109 0.00000000
v 0.61099925 0.12728222 0.00000000
v 0.60326450 0.12940336 0.00000000
v 0.59565712 0.13152450 0.00000000
v 0.58825221 0.13364563 0.00000000
v 0.58108835 0.13576677 0.00000000
v 0.57417610 0.13788791 0.00000000
v 0.56748531 0.14000904 0.00000000
v 0.56094394 0.14213018 0.00000000
v 0.55445484 0.14425132 0.00000000
v 0.54791423 0.14637245 0.00000000
v 0.54122789 0.14849359 0.00000000
v 0.53433370 0.15061473 0.00000000
v 0.52722326 0.15273586 0.00000000
v 0.51993519 0.15485700 0.00000000
v 0.51251121 0.15697814 0.00000000
v 0.50495132 0.15909927 0.00000000
v 0.49721372 0.16122041 0.00000000
v 0.48925919 0.16334155 0.00000000
v 0.48109288 0.16546268 0.00000000
v 0.47276514 0.16758382 0.00000000
v 0.46433871 0.16970496 0.00000000
v 0.45585340 0.17182609 0.00000000
v 0.44730604 0.17394723 0.00000000
v 0.43864508 0.17606837 0.00000000
v 0.42977957 0.17818950 0.00000000
v 0.42060819 0.18031064 0.00000000
v 0.41106308 0.18243178 0.00000000
v 0.40114423 0.18455291 0.00000000
v 0.39091959 0.18667405 0.00000000
v 0.38049109 0.18879519 0.00000000
v 0.36995274 0.19091632 0.00000000
v 0.35936666 0.19303746 0.00000000
v 0.34876106 0.19515860 0.00000000
v 0.33813655 0.19727973 0.00000000
v 0.32746822 0.19940087 0.00000000
v 0.31670573 0.20152201 0.00000000
v 0.30578650 0.20364314 0.00000000
v 0.29467196 0.20576428 0.00000000
v 0.28339152 0.20788542 0.00000000
v 0.27205951 0.21000655 0.00000000
v 0.26084637 0.21212774 0.00000000
v 0.24992764 0.21424985 0.00000000
v 0.23944771 0.21638031 0.00000000
v 0.22949511 0.21855789 0.00000000
v 0.22003939 0.22092203 0.00000000
v 0.21080452 0.22383502 0.00000000
v 0.20116647 0.22798682 0.00000000
v 0.19025962 0.23431817 0.00000000
v 0.17738682 0.24364329 0.00000000
v 0.16253002 0.25612073 0.00000000
v 0.14653542 0.27098249 0.00000000
v 0.13073392 0.28682194 0.00000000
v 0.11624467 0.30227504 0.00000000
v 0.10347275 0.31659501 0.00000000
v 0.09208286 0.32976886 0.00000000
v 0.08133851 0.34221884 0.00000000
v 0.07054905 0.35435327 0.00000000
v 0.05943121 0.36621627 0.00000000
v 0.04824396 0.37740328 0.00000000
v 0.03761249 0.38728725 0.00000000
v 0.02813684 0.39540386 0.00000000
v 0.02005947 0.40171446 0.00000000
v 0.01321562 0.40657193 0.00000000
v 0.00723754 0.41046884 0.00000000
v 0.00179516 0.41379451 0.00000000
v -0.00330635 0.41675319 0.00000000
v -0.00818302 0.41942238 0.00000000
v -0.01297768 0.42182879 0.00000000
v -0.01791310 0.42394216 0.00000000
v -0.02324699 0.42557593 0.00000000
v -0.02913088 0.42627328 0.00000000
v -0.03542839 0.42531293 0.00000000
v -0.04162013 0.42193311 0.00000000

