# https://github.com/mikedh/trimesh
v -0.04692781 0.41570753 0.00000000
v -0.08096804 0.20482886 0.00000000
v -0.26210386 0.14637245 0.00000000
v -0.45039749 0.14424958 0.00000000
v -0.61111984 0.07702849 0.00000000
v -0.72876735 0.13682465 0.00000000
v -0.82696153 0.19259609 0.00000000
v -0.98034972 0.32104683 0.00000000
v -0.94478276 0.18739139 0.00000000
v -0.79452530 -0.10106318 0.00000000
v -0.77038888 -0.14234796 0.00000000
v -0.53074664 -0.06321527 0.00000000
v -0.40699929 -0.06216794 0.00000000
v -0.32257707 -0.15058668 0.00000000
v -0.20813474 -0.13571537 0.00000000
v 0.02334463 -0.17448993 0.00000000
v -0.05482017 -0.39707858 0.00000000
v 0.02953632 -0.39663845 0.00000000
v 0.13923358 -0.32936400 0.00000000
v 0.70874803 -0.18663635 0.00000000
v 0.83478552 -0.12915732 0.00000000
v 0.99830772 -0.05530541 0.00000000
v 0.92290313 0.00849857 0.00000000
v 0.81904599 0.05092130 0.00000000
v 0.70625948 0.09334404 0.00000000
v 0.58108835 0.13576677 0.00000000
v 0.42977957 0.17818950 0.00000000
v 0.22003939 0.22092203 0.00000000
v 0.00179516 0.41379451 0.00000000
f 

