# https://github.com/mikedh/trimesh
v -0.04692781 0.41570753 0.00000000
v -0.04985889 0.35932890 0.00000000
v -0.04208001 0.29116191 0.00000000
v -0.04983049 0.24302009 0.00000000
v -0.08096804 0.20482886 0.00000000
v -0.12774042 0.17898157 0.00000000
v -0.17020006 0.16758408 0.00000000
v -0.21097374 0.15697814 0.00000000
v -0.26210386 0.14637245 0.00000000
v -0.30987964 0.13577787 0.00000000
v -0.37539271 0.12783790 0.00000000
v -0.42686599 0.13369748 0.00000000
v -0.45039749 0.14424958 0.00000000
v -0.47581997 0.15307385 0.00000000
v -0.50841190 0.13089831 0.00000000
v -0.55203113 0.08646089 0.00000000
v -0.61111984 0.07702849 0.00000000
v -0.64827224 0.08867880 0.00000000
v -0.67814393 0.10741276 0.00000000
v -0.70405779 0.12272077 0.00000000
v -0.72876735 0.13682465 0.00000000
v -0.75210439 0.14955600 0.00000000
v -0.77633889 0.16318482 0.00000000
v -0.80044724 0.17668748 0.00000000
v -0.82696153 0.19259609 0.00000000
v -0.85615375 0.21118263 0.00000000
v -0.89126803 0.23574308 0.00000000
v -0.93625185 0.27485433 0.00000000
v -0.98034972 0.32104683 0.00000000
v -0.99993643 0.27867456 0.00000000
v -0.97980300 0.23470253 0.00000000
v -0.96397151 0.21709636 0.00000000
v -0.94478276 0.18739139 0.00000000
v -0.89489161 0.12684349 0.00000000
v -0.80550010 0.01544314 0.00000000
v -0.78444686 -0.06618249 0.00000000
v -0.79452530 -0.10106318 0.00000000
v -0.80507356 -0.12673272 0.00000000
v -0.80960029 -0.15349777 0.00000000
v -0.79342205 -0.15468986 0.00000000
v -0.77038888 -0.14234796 0.00000000
v -0.71253396 -0.09360616 0.00000000
v -0.60183709 -0.01341280 0.00000000
v -0.54293150 -0.03019976 0.00000000
v -0.53074664 -0.06321527 0.00000000
v -0.51596001 -0.08205440 0.00000000
v -0.47949954 -0.07501616 0.00000000
v -0.44954122 -0.05895736 0.00000000
v -0.40699929 -0.06216794 0.00000000
v -0.38614379 -0.10146226 0.00000000
v -0.37320710 -0.15799963 0.00000000
v -0.34513909 -0.16113096 0.00000000
v -0.32257707 -0.15058668 0.00000000
v -0.30079697 -0.13998100 0.00000000
v -0.27439423 -0.12956200 0.00000000
v -0.23625419 -0.12643619 0.00000000
v -0.20813474 -0.13571537 0.00000000
v -0.18263197 -0.14459701 0.00000000
v -0.12829160 -0.15279561 0.00000000
v -0.06847884 -0.16331367 0.00000000
v 0.02334463 -0.17448993 0.00000000
v 0.07380169 -0.19803769 0.00000000
v 0.07741098 -0.23591496 0.00000000
v 0.03713527 -0.29352796 0.00000000
v -0.05482017 -0.39707858 0.00000000
v -0.05809129 -0.42627328 0.00000000
v -0.01880532 -0.41784349 0.00000000
v 0.00805440 -0.40724422 0.00000000
v 0.02953632 -0.39663845 0.00000000
v 0.05099315 -0.38578739 0.00000000
v 0.07578502 -0.37160119 0.00000000
v 0.10495048 -0.35304142 0.00000000
v 0.13923358 -0.32936400 0.00000000
v 0.18572742 -0.29345762 0.00000000
v 0.25121651 -0.24974812 0.00000000
v 0.52443380 -0.19885270 0.00000000
v 0.70874803 -0.18663635 0.00000000
v 0.75316367 -0.17604032 0.00000000
v 0.78509408 -0.16540940 0.00000000
v 0.81150874 -0.15253674 0.00000000
v 0.83478552 -0.12915732 0.00000000
v 0.88477328 -0.10859507 0.00000000
v 0.93692421 -0.09755749 0.00000000
v 0.97024195 -0.08595704 0.00000000
v 0.99830772 -0.05530541 0.00000000
v 0.98852743 -0.02417219 0.00000000
v 0.96707889 -0.01271298 0.00000000
v 0.94584229 -0.00210711 0.00000000
v 0.92290313 0.00849857 0.00000000
v 0.89819720 0.01910425 0.00000000
v 0.87215804 0.02970994 0.00000000
v 0.84564261 0.04031562 0.00000000
v 0.81904599 0.05092130 0.00000000
v 0.79096888 0.06152699 0.00000000
v 0.76389191 0.07213267 0.00000000
v 0.73497099 0.08273835 0.00000000
v 0.70625948 0.09334404 0.00000000
v 0.67815729 0.10394972 0.00000000
v 0.65137955 0.11455540 0.00000000
v 0.61871710 0.12516109 0.00000000
v 0.58108835 0.13576677 0.00000000
v 0.54791423 0.14637245 0.00000000
v 0.51251121 0.15697814 0.00000000
v 0.47276514 0.16758382 0.00000000
v 0.42977957 0.17818950 0.00000000
v 0.38049109 0.18879519 0.00000000
v 0.32746822 0.19940087 0.00000000
v 0.27205951 0.21000655 0.00000000
v 0.22003939 0.22092203 0.00000000
v 0.16253002 0.25612073 0.00000000
v 0.09208286 0.32976886 0.00000000
v 0.03761249 0.38728725 0.00000000
v 0.00179516 0.41379451 0.00000000
v -0.02324699 0.42557593 0.00000000
f 

