# OBJ file generated by write_polyline_to_obj
v -0.04692781 0.41570753 0.0
v -0.06535888 0.22053253 0.0
v -0.23033031 0.15273586 0.0
v -0.43220712 0.13577787 0.0
v -0.55203113 0.08646089 0.0
v -0.69912869 0.11991281 0.0
v -0.79030992 0.17079244 0.0
v -0.90900274 0.24972472 0.0
v -0.97550033 0.23207922 0.0
v -0.8055001 0.01544314 0.0
v -0.81028712 -0.14893688 0.0
v -0.64352243 -0.03515655 0.0
v -0.49948321 -0.08165485 0.0
v -0.38456895 -0.1136843 0.0
v -0.30079697 -0.139981 0.0
v -0.18927197 -0.14315539 0.0
v 0.05470844 -0.18114653 0.0
v -0.06523909 -0.41076023 0.0
v 0.02953632 -0.39663845 0.0
v 0.13167978 -0.33479667 0.0
v 0.67051971 -0.19079545 0.0
v 0.82067208 -0.14469953 0.0
v 0.97628811 -0.08247163 0.0
v 0.94584229 -0.00210711 0.0
v 0.85094753 0.03819448 0.0
v 0.74700245 0.07849608 0.0
v 0.63974312 0.11879768 0.0
v 0.50495132 0.15909927 0.0
v 0.32746822 0.19940087 0.0
v 0.10347275 0.31659501 0.0
l 1 2
l 2 3
l 3 4
l 4 5
l 5 6
l 6 7
l 7 8
l 8 9
l 9 10
l 10 11
l 11 12
l 12 13
l 13 14
l 14 15
l 15 16
l 16 17
l 17 18
l 18 19
l 19 20
l 20 21
l 21 22
l 22 23
l 23 24
l 24 25
l 25 26
l 26 27
l 27 28
l 28 29
l 29 30
l 30 1
